<svg xmlns="http://www.w3.org/2000/svg" xmlns:xlink="http://www.w3.org/1999/xlink" viewBox="0 0 280.46 287.49"><defs><style>.cls-1{fill:none;}.cls-2{fill:#922160;}.cls-3{opacity:0.7;}.cls-4{fill:#f79521;}.cls-5{opacity:0.5;}.cls-6{clip-path:url(#clip-path);}.cls-7{clip-path:url(#clip-path-2);}.cls-8{fill:#731745;}</style><clipPath id="clip-path" transform="translate(51.78 -0.29)"><circle class="cls-1" cx="114.34" cy="114.34" r="103.62"/></clipPath><clipPath id="clip-path-2" transform="translate(51.78 -0.29)"><path class="cls-1" d="M158.87,83.65c10.3-.83,20.28,5.46,24.74,15.15,1.55,3.37,3.46,9.55,4.65,13.06,1.65,4.92,2.7,16.82,2.77,20.09.12,5.56-9.16,17.58-11.55,19.06-1.11.69-12.62,3.37-17.76,3.76-3.67.28-12.36,1.13-16.11.64-3.27-.42-6.77-.27-9.75-1.79-5.52-2.81-12-7.6-14-13.65-2.23-6.67-1.34-13.31-1.8-20.16-.19-2.84-2.77-6.89-5.8-7.54,8.92-15.11,15.09-20,17.82-26.44.62-1.45.47-3.2,1.2-4.54,3.85.08,5.17,5.94,8.8,7,.61.18,1.42.21,1.7-.35.17-.31,3.58-.89,4.11-1.08,1.59-.56,3.12-1.26,4.69-1.85A22.42,22.42,0,0,1,158.87,83.65Z"/></clipPath></defs><g id="Layer_2" data-name="Layer 2"><g id="BG"><circle class="cls-2" cx="166.12" cy="114.05" r="103.62"/><g class="cls-3"><path class="cls-4" d="M177.66,59.34a20.54,20.54,0,0,0-3.73.31h0c.58-1,1.91-2.77,1.91-2.77a12.29,12.29,0,0,1-.89-3.06,23.83,23.83,0,0,1,2.82.8,21.08,21.08,0,0,1,2.43-1.86,23,23,0,0,1-.23,3.12c1,.46,2.39,1.09,3.39,1.65-.76.22-3.28.85-3.28.85a18.35,18.35,0,0,1-.58,3Z" transform="translate(51.78 -0.29)"/><path class="cls-4" d="M47.29,117.78a20.25,20.25,0,0,1,1.9,3.22h0c.48-1,1.15-3.16,1.15-3.16a11.84,11.84,0,0,0,3-1.06A24.47,24.47,0,0,0,51.07,115a22.49,22.49,0,0,0,.1-3.06,22.24,22.24,0,0,0-2.41,2c-1-.58-2.27-1.32-3.31-1.81.26.74,1.21,3.16,1.21,3.16a17.83,17.83,0,0,0-2.11,2.22Z" transform="translate(51.78 -0.29)"/><path class="cls-4" d="M78.83,38.75A19.1,19.1,0,0,1,82,40.68h0a33.22,33.22,0,0,0-.48-3.33A12.22,12.22,0,0,0,83.69,35a23.08,23.08,0,0,0-2.88-.52,20.19,20.19,0,0,0-1.36-2.74,22.54,22.54,0,0,0-1.17,2.9c-1.13-.05-2.62-.08-3.77,0,.58.54,2.56,2.22,2.56,2.22a18.72,18.72,0,0,0-.8,3Z" transform="translate(51.78 -0.29)"/><path class="cls-4" d="M82.8,69.3a20,20,0,0,1,1.31-3.49h0c-1.12.28-3.18,1.08-3.18,1.08a12.21,12.21,0,0,0-2.72-1.68,25.16,25.16,0,0,0,0,2.92A21.51,21.51,0,0,0,75.78,70a20.75,20.75,0,0,0,3.06.62c.17,1.12.41,2.6.67,3.72.42-.68,1.71-2.93,1.71-2.93a19.1,19.1,0,0,0,3,.25Z" transform="translate(51.78 -0.29)"/><path class="cls-4" d="M146.59,36a20.07,20.07,0,0,0,1-3.6h0c.74.88,2,2.74,2,2.74a12,12,0,0,1,3.18.22A24.23,24.23,0,0,1,151,37.67a21,21,0,0,1,.91,2.92A22.12,22.12,0,0,1,149,39.31c-.79.81-1.84,1.87-2.71,2.62,0-.79.33-3.37.33-3.37A18,18,0,0,1,144,37Z" transform="translate(51.78 -0.29)"/><path class="cls-4" d="M192.59,90a19.7,19.7,0,0,0,.1,3.73h0c-1-.63-2.66-2.06-2.66-2.06a12.21,12.21,0,0,1-3.11.7,24.8,24.8,0,0,1,1-2.76,20.68,20.68,0,0,1-1.7-2.54,22.88,22.88,0,0,1,3.1.42c.52-1,1.22-2.32,1.84-3.3.18.78.66,3.33.66,3.33a18.29,18.29,0,0,1,3,.76Z" transform="translate(51.78 -0.29)"/><path class="cls-4" d="M165.61,67.62a19.9,19.9,0,0,1-2.4,2.86h0c1.15.11,3.36,0,3.36,0a12.07,12.07,0,0,0,2,2.5,24.29,24.29,0,0,0,1-2.76,21.93,21.93,0,0,0,2.92-.91,23,23,0,0,0-2.68-1.62c.22-1.1.49-2.58.62-3.72-.62.49-2.59,2.19-2.59,2.19a18.11,18.11,0,0,0-2.8-1.26Z" transform="translate(51.78 -0.29)"/><path class="cls-4" d="M54.79,79.74a19.8,19.8,0,0,1-.71,3.66h0c1.06-.46,3-1.59,3-1.59A12,12,0,0,0,60,83a24.1,24.1,0,0,0-.49-2.88c0-.19,1.66-1.39,2.11-2.21a23.53,23.53,0,0,0-3.13-.12c-.34-1.07-.82-2.49-1.27-3.55-.3.73-1.2,3.17-1.2,3.17a18.25,18.25,0,0,0-3,.25Z" transform="translate(51.78 -0.29)"/><path class="cls-4" d="M43.17,74.32a20.13,20.13,0,0,1,3.2,1.91h0c-.07-1.15-.5-3.32-.5-3.32A12.62,12.62,0,0,0,48,70.53,25.11,25.11,0,0,0,45.13,70a22.29,22.29,0,0,0-1.38-2.73A20.45,20.45,0,0,0,42.6,70.2c-1.13,0-2.63-.06-3.78,0,.59.53,2.58,2.2,2.58,2.2a17.66,17.66,0,0,0-.79,3Z" transform="translate(51.78 -0.29)"/><path class="cls-4" d="M197.23,150.77a20.14,20.14,0,0,1-1.9-3.21h0c-.48,1.05-1.15,3.16-1.15,3.16a11.84,11.84,0,0,0-3,1.06,24.47,24.47,0,0,0,2.28,1.82,22.49,22.49,0,0,0-.1,3.06,22.24,22.24,0,0,0,2.41-2c1,.57,2.27,1.32,3.31,1.81-.26-.74-1.21-3.16-1.21-3.16a18.57,18.57,0,0,0,2.11-2.22Z" transform="translate(51.78 -0.29)"/><path class="cls-4" d="M54.53,39.69a20.41,20.41,0,0,1-1.31,3.5h0c1.12-.28,3.18-1.08,3.18-1.08a12,12,0,0,0,2.72,1.68,24.82,24.82,0,0,0,0-2.92A20.61,20.61,0,0,0,61.55,39a21.93,21.93,0,0,0-3.07-.61c-.16-1.12-.4-2.6-.67-3.72-.42.67-1.71,2.93-1.71,2.93a17.78,17.78,0,0,0-3.05-.26Z" transform="translate(51.78 -0.29)"/><path class="cls-4" d="M57.83,107.37a19.48,19.48,0,0,0-1,3.6h0c-.75-.88-2-2.73-2-2.73a12.17,12.17,0,0,1-3.19-.23,26,26,0,0,1,1.72-2.36,22,22,0,0,1-.91-2.92A22.9,22.9,0,0,1,55.37,104c.79-.81,1.84-1.87,2.72-2.62-.06.79-.33,3.37-.33,3.37a18.53,18.53,0,0,1,2.62,1.58Z" transform="translate(51.78 -0.29)"/><path class="cls-4" d="M21.86,142a20.64,20.64,0,0,0-.09-3.74h0c1,.63,2.65,2.06,2.65,2.06a12.21,12.21,0,0,1,3.12-.7,23.85,23.85,0,0,1-1,2.76,20.92,20.92,0,0,1,1.71,2.54,21,21,0,0,1-3.1-.42c-.52,1-1.23,2.32-1.84,3.3-.18-.78-.66-3.33-.66-3.33a19.22,19.22,0,0,1-3-.75Z" transform="translate(51.78 -0.29)"/><path class="cls-4" d="M23.23,98.72a19.84,19.84,0,0,1,2.4-2.85h0c-1.15-.12-3.36-.05-3.36-.05a11.84,11.84,0,0,0-2-2.49,23.57,23.57,0,0,0-1,2.75,20.87,20.87,0,0,0-2.92.92,21.62,21.62,0,0,0,2.68,1.61c-.22,1.11-.49,2.58-.62,3.72.62-.49,2.59-2.18,2.59-2.18a18.11,18.11,0,0,0,2.8,1.26Z" transform="translate(51.78 -0.29)"/><path class="cls-4" d="M208.34,114.34a20.72,20.72,0,0,1,.72-3.66h0c-1.06.46-3,1.59-3,1.59a12,12,0,0,0-3-1.21,26,26,0,0,0,.5,2.88c0,.19-1.66,1.39-2.11,2.21a21.82,21.82,0,0,0,3.12.12c.35,1.07.82,2.49,1.27,3.55.31-.73,1.21-3.17,1.21-3.17a17.38,17.38,0,0,0,3.05-.25Z" transform="translate(51.78 -0.29)"/><path class="cls-4" d="M186.56,166.48a20.21,20.21,0,0,1-3.21-1.91h0c.08,1.16.51,3.32.51,3.32a12.28,12.28,0,0,0-2.14,2.38,24.74,24.74,0,0,0,2.88.51,20.29,20.29,0,0,0,1.38,2.73,21.71,21.71,0,0,0,1.15-2.91c1.13,0,2.62.07,3.77,0-.58-.53-2.57-2.2-2.57-2.2a18.68,18.68,0,0,0,.79-3Z" transform="translate(51.78 -0.29)"/></g><g class="cls-5"><path class="cls-4" d="M62.94,53.8a1.69,1.69,0,0,0,.23,3.14c1.84.62,3-2.21,1.42-3.12A1.65,1.65,0,0,0,62.94,53.8Z" transform="translate(51.78 -0.29)"/><path class="cls-4" d="M169.9,49.54A1.69,1.69,0,0,0,168.08,47c-1.89.42-1.44,3.45.4,3.41A1.64,1.64,0,0,0,169.9,49.54Z" transform="translate(51.78 -0.29)"/><path class="cls-4" d="M150,64.14a1.68,1.68,0,0,0-.23-3.13c-1.83-.62-3,2.21-1.41,3.12A1.6,1.6,0,0,0,150,64.14Z" transform="translate(51.78 -0.29)"/><path class="cls-4" d="M159.79,161.28a1.69,1.69,0,0,0,1.81,2.58c1.89-.43,1.45-3.46-.4-3.41A1.64,1.64,0,0,0,159.79,161.28Z" transform="translate(51.78 -0.29)"/><path class="cls-4" d="M161.4,47.71a1.68,1.68,0,0,0-.23-3.14c-1.83-.61-3,2.22-1.41,3.13A1.63,1.63,0,0,0,161.4,47.71Z" transform="translate(51.78 -0.29)"/><path class="cls-4" d="M34.2,93.46A1.69,1.69,0,0,0,36,96c1.89-.42,1.44-3.45-.4-3.4A1.61,1.61,0,0,0,34.2,93.46Z" transform="translate(51.78 -0.29)"/><path class="cls-4" d="M75.23,107.36a1.69,1.69,0,0,0,.23,3.14c1.84.61,3-2.22,1.41-3.13A1.63,1.63,0,0,0,75.23,107.36Z" transform="translate(51.78 -0.29)"/><path class="cls-4" d="M37.48,81.81a1.69,1.69,0,0,0-1.81-2.58c-1.89.42-1.44,3.46.4,3.41A1.64,1.64,0,0,0,37.48,81.81Z" transform="translate(51.78 -0.29)"/><path class="cls-4" d="M208.89,97.52a1.69,1.69,0,0,0,.23,3.14c1.84.61,3-2.22,1.41-3.13A1.63,1.63,0,0,0,208.89,97.52Z" transform="translate(51.78 -0.29)"/><path class="cls-4" d="M82.31,57.61A1.69,1.69,0,0,0,80.5,55c-1.89.43-1.45,3.46.39,3.41A1.61,1.61,0,0,0,82.31,57.61Z" transform="translate(51.78 -0.29)"/><path class="cls-4" d="M143.81,59a1.69,1.69,0,0,0-.23-3.14c-1.84-.61-3,2.22-1.42,3.13A1.65,1.65,0,0,0,143.81,59Z" transform="translate(51.78 -0.29)"/><path class="cls-4" d="M57.43,47.71a1.68,1.68,0,0,0,1.81,2.57c1.89-.42,1.45-3.45-.39-3.4A1.61,1.61,0,0,0,57.43,47.71Z" transform="translate(51.78 -0.29)"/><path class="cls-4" d="M185.91,70.73a1.68,1.68,0,0,0,.23,3.14c1.83.61,3-2.22,1.41-3.12A1.63,1.63,0,0,0,185.91,70.73Z" transform="translate(51.78 -0.29)"/><path class="cls-4" d="M47.78,62.56a1.69,1.69,0,0,0,1.81,2.58c1.89-.43,1.44-3.46-.4-3.41A1.64,1.64,0,0,0,47.78,62.56Z" transform="translate(51.78 -0.29)"/><path class="cls-4" d="M103.33,67.51a1.68,1.68,0,0,0-1.81-2.57c-1.89.42-1.44,3.45.4,3.41A1.63,1.63,0,0,0,103.33,67.51Z" transform="translate(51.78 -0.29)"/><path class="cls-4" d="M150.81,52.86A1.69,1.69,0,0,0,151,56c1.84.61,3-2.22,1.41-3.13A1.63,1.63,0,0,0,150.81,52.86Z" transform="translate(51.78 -0.29)"/><path class="cls-4" d="M201,136.27a1.69,1.69,0,0,0,.23,3.14c1.84.61,3-2.22,1.41-3.13A1.63,1.63,0,0,0,201,136.27Z" transform="translate(51.78 -0.29)"/><path class="cls-4" d="M37.62,51.6a1.69,1.69,0,0,0,1.82,2.57c1.89-.42,1.44-3.45-.4-3.41A1.64,1.64,0,0,0,37.62,51.6Z" transform="translate(51.78 -0.29)"/><path class="cls-4" d="M67.84,117.28a1.68,1.68,0,0,0,1.81,2.57c1.89-.42,1.44-3.45-.4-3.41A1.63,1.63,0,0,0,67.84,117.28Z" transform="translate(51.78 -0.29)"/><path class="cls-4" d="M76.59,84.12a1.68,1.68,0,0,0,.23,3.14c1.83.61,3-2.22,1.41-3.13A1.63,1.63,0,0,0,76.59,84.12Z" transform="translate(51.78 -0.29)"/><path class="cls-4" d="M170.9,167.62a1.68,1.68,0,0,0-1.81-2.57c-1.89.42-1.45,3.45.39,3.4A1.61,1.61,0,0,0,170.9,167.62Z" transform="translate(51.78 -0.29)"/><path class="cls-4" d="M99.53,75.83A1.69,1.69,0,0,0,99.76,79c1.84.61,3-2.22,1.42-3.13A1.65,1.65,0,0,0,99.53,75.83Z" transform="translate(51.78 -0.29)"/><path class="cls-4" d="M20.62,122.33a1.69,1.69,0,0,0-.23-3.14c-1.84-.61-3,2.22-1.42,3.13A1.65,1.65,0,0,0,20.62,122.33Z" transform="translate(51.78 -0.29)"/><path class="cls-4" d="M82.79,89.24A1.69,1.69,0,0,0,83,92.38c1.84.62,3-2.21,1.42-3.12A1.65,1.65,0,0,0,82.79,89.24Z" transform="translate(51.78 -0.29)"/><path class="cls-4" d="M198.61,167.65a1.68,1.68,0,0,0-.23-3.14c-1.83-.61-3,2.22-1.41,3.13A1.63,1.63,0,0,0,198.61,167.65Z" transform="translate(51.78 -0.29)"/><path class="cls-4" d="M38.28,133.7a1.68,1.68,0,0,0,1.81,2.57c1.89-.42,1.45-3.45-.4-3.41A1.64,1.64,0,0,0,38.28,133.7Z" transform="translate(51.78 -0.29)"/><path class="cls-4" d="M75.79,95.4a1.69,1.69,0,0,0-.23-3.14c-1.84-.61-3,2.22-1.41,3.13A1.6,1.6,0,0,0,75.79,95.4Z" transform="translate(51.78 -0.29)"/><path class="cls-4" d="M194,107.23a1.68,1.68,0,0,0-.22-3.14c-1.84-.62-3,2.21-1.42,3.12A1.63,1.63,0,0,0,194,107.23Z" transform="translate(51.78 -0.29)"/><path class="cls-4" d="M198.38,64.68a1.68,1.68,0,0,0-1.81-2.57c-1.89.42-1.44,3.45.4,3.4A1.6,1.6,0,0,0,198.38,64.68Z" transform="translate(51.78 -0.29)"/></g><path class="cls-4" d="M94.06,26.93c2.9.43,3.8,3.47,4.5,5.9.81,2.78,1.85,6.49,5.44,6.33,1.46-.07,2.27-1.14,2.81-2.38a22,22,0,0,0,1.25-4.29,23.73,23.73,0,0,1,.7-2.76,5.18,5.18,0,0,1,1.45-2.46c.09-.07.46-.24.36-.23s.06,0,.1.07.22.12.32.19a4.15,4.15,0,0,1,1,.91,7.29,7.29,0,0,1,1.14,2.26c.53,1.54.8,3.16,1.29,4.71s1.34,3.19,3,3.73a3.56,3.56,0,0,0,4.38-2,19.14,19.14,0,0,0,1.18-3.74,16.64,16.64,0,0,1,1.44-4.06,4.44,4.44,0,0,1,1.13-1.34,3.15,3.15,0,0,1,.67-.37c.1,0,.48-.13.39-.11.22-.05,0,0,0,0s-.12-.06-.06,0-.08-.07.09,0a3,3,0,0,1,.57.6,8.68,8.68,0,0,1,1,2.25c1,3.17,1.33,8.54,5.53,9a5.07,5.07,0,0,0,1.6-.08c.39-.08.38-.35.09-.55a2,2,0,0,0-1.4-.24l-.19,0h-.13c-.18,0-.12,0-.09,0l-.11,0c.18,0,0,0,.09,0a1,1,0,0,1-.26-.14,2,2,0,0,1-.35-.29,5.91,5.91,0,0,1-1.21-2.07C131,34,130.6,32,130,30.17c-.49-1.53-1.18-3.14-2.86-3.61a4,4,0,0,0-2.9.27A5.19,5.19,0,0,0,122,29.6a29,29,0,0,0-1.26,4.1,8.82,8.82,0,0,1-1.56,3.73,2.91,2.91,0,0,1-1.08.79c-.09,0-.16,0-.07,0s-.05-.11-.05-.1c-.08-.15-.33-.3-.45-.44a6.3,6.3,0,0,1-1.11-2.17c-.52-1.51-.77-3.1-1.26-4.62a6.89,6.89,0,0,0-2.82-4,4.24,4.24,0,0,0-2.83-.65,2.79,2.79,0,0,0-1.92,1.49c-1.71,2.83-1.39,6.41-3,9.28-.24.44-.7,1.19-1.26,1.29-.35.06-.86-.61-1.08-.94a14.23,14.23,0,0,1-1.59-3.92c-.75-2.59-1.53-5.36-4.16-6.62a8,8,0,0,0-2.29-.67c-.24,0-1-.13-1.06.24s.72.52.93.55Z" transform="translate(51.78 -0.29)"/><path class="cls-4" d="M93.82,45.89c3,.44,4,3.32,4.7,5.87a21.14,21.14,0,0,0,1.42,4,4.14,4.14,0,0,0,3.85,2.42,3.35,3.35,0,0,0,3-2.34,21.14,21.14,0,0,0,1.25-4.2c.37-1.72.68-4,2.06-5.29.08-.07.17-.12.24-.19s.39-.16.12-.11,0,0,.06.06.23.12.34.19a4.13,4.13,0,0,1,1,.9A7.38,7.38,0,0,1,113,49.37c.56,1.53.82,3.15,1.29,4.71s1.24,3.21,2.83,3.78a3.68,3.68,0,0,0,4.55-2,18.39,18.39,0,0,0,1.2-3.7,17,17,0,0,1,1.42-4.09,4.65,4.65,0,0,1,1.08-1.37,2.82,2.82,0,0,1,.62-.37,3,3,0,0,1,.49-.15c.08,0-.09,0-.13,0s-.11-.07,0,0l.09.05c-.06,0,.19.16.26.22a3,3,0,0,1,.31.38,8.45,8.45,0,0,1,1,2.21c.6,1.88.94,3.84,1.67,5.68s1.78,3.13,3.75,3.33A5.44,5.44,0,0,0,135,58c.27-.06.7-.2.4-.52a1.77,1.77,0,0,0-1.35-.25,2,2,0,0,1-.45.06c.27,0-.16,0,0,0s-.17-.06,0,0c-.17-.06,0,0-.11,0l-.18-.1a2.51,2.51,0,0,1-.39-.32,5.68,5.68,0,0,1-1.22-2C131,53,130.62,51,130,49.17c-.46-1.46-1.09-3.1-2.68-3.59a4.24,4.24,0,0,0-3,.25A5.06,5.06,0,0,0,122,48.54a27.54,27.54,0,0,0-1.27,4.08,9.51,9.51,0,0,1-1.48,3.72,3.81,3.81,0,0,1-1,.87c-.11.06-.22,0-.08,0s-.06-.11-.06-.11-.33-.27-.47-.42a6.19,6.19,0,0,1-1.16-2.12c-.53-1.51-.79-3.1-1.25-4.63a6.94,6.94,0,0,0-2.74-4.08,4.14,4.14,0,0,0-2.82-.67,2.81,2.81,0,0,0-2,1.39c-1.8,2.79-1.47,6.41-3,9.32a3.13,3.13,0,0,1-1.22,1.35c-.11.07.12.07,0,0a2,2,0,0,1-.3-.14,2.64,2.64,0,0,1-.77-.79,13.41,13.41,0,0,1-1.64-3.9c-.73-2.53-1.45-5.39-4-6.65a7.28,7.28,0,0,0-2.23-.67c-.3,0-1.07-.16-1.25.18s.44.51.65.55Z" transform="translate(51.78 -0.29)"/><g class="cls-6"><path class="cls-2" d="M126.21,74.49a16.51,16.51,0,0,1,3.26-7.75c2-2.65,6.46-3.21,9.57-2.67,7.67,1.31,9,6.94,13.81,12.07a19.49,19.49,0,0,0,6.57,5.08c.76.35,2.62-.28,3,2.82.15,1.15-2.42.85-3.32.89a12.67,12.67,0,0,0-4.28,1c-1.53.57-1.72,1.46-2.71,0s-2-3.36-3.07-5a66.9,66.9,0,0,0-4.51-6c-1.77-2-4.16-4.9-7-5.13-3.77-.3-4,2.51-3.88,5.42C133.76,78.87,128.19,76.87,126.21,74.49Z" transform="translate(51.78 -0.29)"/><path class="cls-4" d="M126.69,74.46a19.64,19.64,0,0,1,1.69-5.3A8.72,8.72,0,0,1,132,65.05a12.19,12.19,0,0,1,10.37.39c2.86,1.42,4.74,4,6.57,6.54a31.85,31.85,0,0,0,7.6,8.06,12.06,12.06,0,0,0,2.48,1.38,6.74,6.74,0,0,0,1.09.2,1.88,1.88,0,0,1,1.23.76c.28.4.87,1.68.47,2.12s-1.32.23-1.77.22a12.32,12.32,0,0,0-2.27.15,16.3,16.3,0,0,0-2.92.85,8.93,8.93,0,0,0-1.1.48l-.41.23a1.74,1.74,0,0,0-.19.1c-.12.09.12.07.07,0a7.68,7.68,0,0,1-.71-.79c-.35-.52-.68-1-1-1.58-.6-1-1.18-2-1.82-3-1.13-1.73-2.34-3.42-3.62-5a35.87,35.87,0,0,0-3.69-4.1,8.2,8.2,0,0,0-4.51-2.39A4.39,4.39,0,0,0,134,70.76a5.6,5.6,0,0,0-.9,3.6c0,1,.18,2.64-1.26,2.66a7.07,7.07,0,0,1-3.76-1.4,6.93,6.93,0,0,1-1.43-1.27c-.19-.22-1.12.05-.94.27a8.8,8.8,0,0,0,3.5,2.36,5.15,5.15,0,0,0,3.68.21c1.3-.53,1.19-1.73,1.19-2.93s.07-3.1,1.3-3.9a3.49,3.49,0,0,1,2.78-.15,7.63,7.63,0,0,1,2.65,1.52,29,29,0,0,1,4.09,4.35c1.36,1.68,2.61,3.45,3.8,5.25.71,1.07,1.35,2.2,2,3.3.3.5.61,1,.94,1.47a2.11,2.11,0,0,0,.76.78,1.8,1.8,0,0,0,1.54-.21,15,15,0,0,1,2.84-1.16,9.3,9.3,0,0,1,2.82-.36,9,9,0,0,0,2.07-.13c.45-.1,1.1-.3,1.22-.82a3.17,3.17,0,0,0-.66-2.14c-.64-.85-1.53-.71-2.42-1A10.87,10.87,0,0,1,157,79.38a20.7,20.7,0,0,1-2.35-2,38.62,38.62,0,0,1-3.83-4.44c-2-2.67-3.8-5.58-6.71-7.35A14.25,14.25,0,0,0,133.65,64a8.3,8.3,0,0,0-4.43,2.42,14.89,14.89,0,0,0-2.75,5.05,25.91,25.91,0,0,0-.74,3C125.66,74.82,126.64,74.72,126.69,74.46Z" transform="translate(51.78 -0.29)"/><path class="cls-2" d="M158.87,83.65c10.3-.83,20.28,5.46,24.74,15.15,1.55,3.37,3.46,9.55,4.65,13.06,1.65,4.92,2.7,16.82,2.77,20.09.12,5.56-9.16,17.58-11.55,19.06-1.11.69-12.62,3.37-17.76,3.76-3.67.28-12.36,1.13-16.11.64-3.27-.42-6.77-.27-9.75-1.79-5.52-2.81-12-7.6-14-13.65-2.23-6.67-1.34-13.31-1.8-20.16-.19-2.84-2.77-6.89-5.8-7.54,8.92-15.11,15.09-20,17.82-26.44.62-1.45.47-3.2,1.2-4.54,3.85.08,5.17,5.94,8.8,7,.61.18,1.42.21,1.7-.35.17-.31,3.58-.89,4.11-1.08,1.59-.56,3.12-1.26,4.69-1.85A22.42,22.42,0,0,1,158.87,83.65Z" transform="translate(51.78 -0.29)"/><path class="cls-4" d="M159.18,83.86a24,24,0,0,1,18.17,6.79,26.61,26.61,0,0,1,5.81,8.16,92,92,0,0,1,3.38,9.24,63.45,63.45,0,0,1,2.2,7.64c.56,2.91.93,5.86,1.25,8.81.24,2.32.46,4.64.54,7a12.65,12.65,0,0,1-1.6,5.89,47.15,47.15,0,0,1-4.27,7,43.61,43.61,0,0,1-4.35,5.33,6.23,6.23,0,0,1-1.33,1.14,9.72,9.72,0,0,1-1.89.62c-2.49.7-5,1.26-7.58,1.78a71.13,71.13,0,0,1-7.82,1.26c-2.76.24-5.52.46-8.29.63a50.5,50.5,0,0,1-8.52,0c-2-.22-4-.26-5.92-.66a16.9,16.9,0,0,1-5-2.15,32.67,32.67,0,0,1-8.16-6.54,18.35,18.35,0,0,1-2.83-4.24,22,22,0,0,1-1.64-5.75c-.7-4.19-.53-8.45-.62-12.68a16.72,16.72,0,0,0-.54-5.09,10.48,10.48,0,0,0-2.37-3.86,7.14,7.14,0,0,0-3.47-2.08l.44.31a156.27,156.27,0,0,1,10.06-14.91,91.3,91.3,0,0,0,6.47-9,21.52,21.52,0,0,0,1.18-2.29c.68-1.54.55-3.31,1.32-4.81l-.28.11c1.7.06,2.92,1.74,3.87,3a12.66,12.66,0,0,0,3.58,3.6,4,4,0,0,0,2.42.58,1.36,1.36,0,0,0,.55-.17c.16-.1.22-.26.35-.36a2,2,0,0,1,.66-.25c.78-.21,1.59-.36,2.38-.53a15.16,15.16,0,0,0,2.34-.75c1.55-.61,3.08-1.31,4.67-1.8a23,23,0,0,1,4.86-.94c.23,0,.17-.15.07-.27a.93.93,0,0,0-.69-.16,26.67,26.67,0,0,0-8,2.1,23.36,23.36,0,0,1-3.32,1.26c-.73.18-1.47.31-2.2.48a4.52,4.52,0,0,0-1.62.51c-.12.1-.17.25-.32.34a1.1,1.1,0,0,1-.92,0,4,4,0,0,1-1.14-.62,23.59,23.59,0,0,1-3.46-3.93,6.16,6.16,0,0,0-4.45-2.53.33.33,0,0,0-.29.11c-.72,1.43-.6,3.08-1.2,4.55a19.79,19.79,0,0,1-1,2.07A38.49,38.49,0,0,1,127.84,92c-2.68,3.65-5.52,7.17-8.11,10.89q-3.15,4.55-6,9.3c-.09.15.39.3.44.31a6.79,6.79,0,0,1,3.72,3,9,9,0,0,1,1.65,4.38c.32,4.3,0,8.62.4,12.92.32,3.84,1.12,7.72,3.3,11a27.86,27.86,0,0,0,7.53,7.23,41.23,41.23,0,0,0,4.29,2.57,15.82,15.82,0,0,0,5.39,1.63c1.87.25,3.77.38,5.65.56a32.4,32.4,0,0,0,3.94.09c3.13-.07,6.25-.32,9.37-.57,2.5-.21,5-.44,7.44-.88,2.85-.5,5.7-1.1,8.51-1.79,1-.26,2.07-.52,3.09-.82a5.41,5.41,0,0,0,1.56-.62,19,19,0,0,0,3.75-4,59.72,59.72,0,0,0,4.63-6.75,22.51,22.51,0,0,0,2.94-6.83,22.36,22.36,0,0,0-.16-6c-.47-5.54-1-11.21-2.79-16.51-2.09-6.31-3.83-13-8.19-18.21a26.49,26.49,0,0,0-17-9.27,24.91,24.91,0,0,0-4.73-.08c-.23,0-.17.16-.07.27A.93.93,0,0,0,159.18,83.86Z" transform="translate(51.78 -0.29)"/><g class="cls-7"><path class="cls-4" d="M108.93,126.62a19.09,19.09,0,0,0,14.16,7.31,25.37,25.37,0,0,0,15.25-4.88c5.06-3.56,9-8.63,12.19-13.86s6-10.94,7.08-17a21.66,21.66,0,0,0-.3-10.28A14.47,14.47,0,0,0,155,83.6a7.06,7.06,0,0,0-3.76-2.82c-.25-.06-1.16.26-.66.39A6.48,6.48,0,0,1,154,83.78a14.16,14.16,0,0,1,2.1,3.76,19.51,19.51,0,0,1,.8,8.62c-.61,5.85-3,11.4-5.87,16.49-5.34,9.59-13.76,20-25.6,20.83a17.8,17.8,0,0,1-8.34-1.41,19.34,19.34,0,0,1-7.26-5.7c-.18-.22-1.12,0-.94.25Z" transform="translate(51.78 -0.29)"/><path class="cls-4" d="M112.17,122.19a16.86,16.86,0,0,0,6.4,5.11,16,16,0,0,0,7.36,1.31c5.41-.28,10.42-3,14.23-6.74a50.57,50.57,0,0,0,10.36-15.43,32.31,32.31,0,0,0,3.13-13c0-4.32-1.05-9.54-5.85-10.75-.42-.1-1,.19-.31.36,4,1,5,5.61,5.15,9.16a29.56,29.56,0,0,1-2.07,11.65,54.54,54.54,0,0,1-9,15.33c-3.43,4-7.83,7.43-13.1,8.63a14.76,14.76,0,0,1-8.07-.31,15.74,15.74,0,0,1-7.21-5.31c-.19-.23-1.11-.17-1,0Z" transform="translate(51.78 -0.29)"/><path class="cls-4" d="M117.63,118.22a4.46,4.46,0,0,1,.71.42l1.08.65a6.55,6.55,0,0,0,2.06.76,11.46,11.46,0,0,0,5.33-.39c3.76-1.16,6.55-3.72,9.1-6.61a41.9,41.9,0,0,0,3.92-5.08,44,44,0,0,0,2.88-5.37,49.65,49.65,0,0,0,2.37-5.27,16,16,0,0,0-3-15.07c-.18-.19-1.14-.21-.89.07a14.38,14.38,0,0,1,3.61,8.94,16.38,16.38,0,0,1-.39,4.79,25.34,25.34,0,0,1-1.93,4.74c-.84,1.82-1.67,3.65-2.66,5.39a36.29,36.29,0,0,1-3.46,5c-2.4,2.94-5,5.85-8.54,7.45a10.84,10.84,0,0,1-6.18,1c-1.55-.26-2.66-1.75-4.22-1.87-.12,0-.41,0-.38.19s.47.22.59.23Z" transform="translate(51.78 -0.29)"/><path class="cls-4" d="M188.36,105.07c.26,2.65.63,5.31.65,8a36.61,36.61,0,0,1-.9,7.59,45.2,45.2,0,0,1-5.24,13.69c-4.05,7-8.94,13.58-15.3,18.64a53.37,53.37,0,0,1-11.15,6.73c-.33.15.56.47.81.35a52.85,52.85,0,0,0,18.33-13.63A74.7,74.7,0,0,0,183,136a52.7,52.7,0,0,0,3.29-6.16,43.19,43.19,0,0,0,2.35-7,41.21,41.21,0,0,0,1.32-8.32,67.51,67.51,0,0,0-.63-9.2c0-.32-1-.4-1-.18Z" transform="translate(51.78 -0.29)"/><path class="cls-4" d="M186.79,103.54c.27,2.66.64,5.31.65,8a36.73,36.73,0,0,1-.94,7.74,45.39,45.39,0,0,1-5.22,13.53c-4.07,7-9,13.63-15.4,18.7a53.27,53.27,0,0,1-11.08,6.66c-.19.09.59.55.87.42a52.74,52.74,0,0,0,18.4-13.73,76.12,76.12,0,0,0,7.36-10.38,52.17,52.17,0,0,0,3.35-6.31,43.62,43.62,0,0,0,2.32-7,40.62,40.62,0,0,0,1.27-8.35,71.67,71.67,0,0,0-.63-9c0-.28-1-.52-1-.22Z" transform="translate(51.78 -0.29)"/></g><path class="cls-2" d="M130.44,95.44c-1.8,2.52-4,4.65-5.76,7.18a73.63,73.63,0,0,1-6.71,7.84c-3,3.24-8.45,8.62-13,4.79-1.81-1.54-1.33-4.88-1.16-7,.78-9.42,3.15-20.58,9.65-27.89a27.45,27.45,0,0,1,13.31-8,6.28,6.28,0,0,1,4.68.55C139.44,77.8,134.43,89.86,130.44,95.44Z" transform="translate(51.78 -0.29)"/><path class="cls-4" d="M130,95.39c-1.36,1.89-3,3.58-4.42,5.39s-2.72,3.73-4.26,5.48-2.88,3.18-4.35,4.74a26.51,26.51,0,0,1-4,3.58,7.81,7.81,0,0,1-4.8,1.78,4.21,4.21,0,0,1-3.81-3.24,16.83,16.83,0,0,1,0-5c.16-2,.39-3.9.69-5.83,1.22-7.8,3.64-16,9-22a26.71,26.71,0,0,1,10.77-7.07c2.1-.75,4.36-1.34,6.38,0a8.31,8.31,0,0,1,3,3.33c1.32,2.69,1.09,5.91.4,8.75A29.64,29.64,0,0,1,131,93.81c-.33.54-.68,1.07-1,1.58-.15.21.79.35,1,.11a31.13,31.13,0,0,0,4.22-8.38c1-3,1.57-6.48.54-9.59a7.72,7.72,0,0,0-7.6-5.51,17.83,17.83,0,0,0-6.27,1.91,28.75,28.75,0,0,0-5.74,3.55c-6.8,5.4-10,14-11.57,22.3-.41,2.12-.72,4.25-1,6.39a38.24,38.24,0,0,0-.37,5.55,6.34,6.34,0,0,0,.53,2.5,4.28,4.28,0,0,0,1.9,1.84,6.35,6.35,0,0,0,4.82.42c3.54-1,6.2-4,8.62-6.62,1.71-1.85,3.45-3.67,5-5.66.75-1,1.42-2,2.18-3s1.57-1.89,2.37-2.83,1.6-1.9,2.32-2.9C131.07,95.29,130.13,95.15,130,95.39Z" transform="translate(51.78 -0.29)"/><path class="cls-2" d="M125.76,78.85c-7.6-1.17-14.13,11.53-17.05,18.92-.81,2-2.43,8.9-.86,10.83,2.37,2.91,11.28-9.69,12.43-11.4,2.19-3.26,5.49-8.27,6.9-11.94A6,6,0,0,0,125.76,78.85Z" transform="translate(51.78 -0.29)"/><path class="cls-4" d="M126,78.65c-5.7-.81-10,4.62-12.66,8.88A59.31,59.31,0,0,0,109,95.79a29,29,0,0,0-2.12,7.24,14.19,14.19,0,0,0-.14,4.06,2.41,2.41,0,0,0,1.12,2c1.45.63,3.12-.63,4.16-1.5a37,37,0,0,0,4.79-5.13c1.22-1.51,2.39-3.07,3.51-4.66q2.51-3.58,4.72-7.37c1.7-2.93,4-6.44,2.44-9.9a4.94,4.94,0,0,0-1.29-1.78c-.23-.2-1.12,0-1,.19a5.61,5.61,0,0,1,1.78,4.32,10.87,10.87,0,0,1-1.58,4.65,86.53,86.53,0,0,1-5.32,8.73,67,67,0,0,1-6.9,8.83,23,23,0,0,1-2.2,2.1,5.91,5.91,0,0,1-2,1.21c-1.51.44-1.45-3-1.4-3.91.31-5.2,2.49-10,5-14.52A36.58,36.58,0,0,1,117.72,83c1.63-1.76,3.71-3.57,6.17-3.93a5.93,5.93,0,0,1,1.63,0C125.83,79.09,126.63,78.75,126,78.65Z" transform="translate(51.78 -0.29)"/><path class="cls-4" d="M224.72,227c-2.73-6.39-10.34-9.31-14-15.21-2.84-4.59-2.91-10.35-4.93-15.35-4.32-10.67-16.48-15.84-27.83-17.71-10-1.66-22.45-3-26.31-12.45-4.45-10.87-1.14-16.62-10.12-25.68-5.05-5.09-13-9.06-16.06-15.75-2.58-5.57-5-13-4.7-19.13,0-5.6,1.88-10.51,4.12-15.54s2-7.19-4.41-7.48c-3.15-.15-5,1.27-7.62,2.56-3,1.47-5.78,1.67-9,2.38-5.93,1.33-9.72,7.16-11.75,12.89s-3,12-6.37,17c-5.69,8.59-15.72,10.22-24.25,14.8-9.18,4.94-18.25,10.58-24,19.56-5.27,8.27-4.4,25.91-11.47,31C14.7,191,.13,193.76-9.31,204.68c-7.52,8.7-4,15-6.89,24.43-2.62,8.62-16.94,13.16-23.32,19.45C-48.06,257-55.93,267.88-48.08,279c5.23,7.43,14.36,5.28,23.1,6,33.43,2.58,68,4.13,101.41,0,14.26-1.76,28.76-3.69,43.12-3.82,2.3,0,5,.25,7.71.45l0,1.37a243.29,243.29,0,0,0,34.15-.95c12.19,2.76,25.25-.85,35.57-7.89s18.14-17.25,24.22-28.16C224.49,240.16,227.35,233.11,224.72,227Z" transform="translate(51.78 -0.29)"/><path class="cls-4" d="M225.2,227c-2-4.57-6.3-7.35-9.91-10.58a20.12,20.12,0,0,1-4.92-6.2,42.52,42.52,0,0,1-2.54-8.6c-1.21-5.12-3.27-9.59-7.15-13.23a35.82,35.82,0,0,0-12.21-7.2,76.49,76.49,0,0,0-14.33-3.35c-4.95-.81-10.07-1.67-14.58-4a16.6,16.6,0,0,1-5.36-4.15,19.58,19.58,0,0,1-3.31-7c-1.24-4.15-1.49-8.53-2.81-12.65-1.49-4.63-4.63-8.41-8.28-11.54-4.07-3.5-8.81-6.4-12.07-10.76a29.16,29.16,0,0,1-3.62-7.39,49,49,0,0,1-2.44-9,33.35,33.35,0,0,1,2.4-18.07c.88-2.18,2.24-4.43,2.57-6.8a2.86,2.86,0,0,0-1.11-2.91,9.38,9.38,0,0,0-4.82-1.2c-2.81-.16-5,.9-7.41,2.16-4.94,2.56-11,1.87-15.29,5.65-4,3.52-6,8.68-7.5,13.68-1.72,5.77-3.21,11.77-7.49,16.27-3.66,3.85-8.56,6-13.39,8-10,4.2-20.31,9.52-27.9,17.52a29.52,29.52,0,0,0-7.21,11.87c-1.35,4.44-2.06,9-3.15,13.52-.92,3.76-2,8.15-5,10.88a32.94,32.94,0,0,1-6.5,4.22c-2.36,1.3-4.78,2.49-7.21,3.65-9.36,4.48-20.36,9.27-25.46,18.94-2.3,4.34-2.23,9.09-2.71,13.85A25.75,25.75,0,0,1-17,229.82,14.7,14.7,0,0,1-20.75,235c-3.38,3.16-7.51,5.42-11.44,7.82a62.13,62.13,0,0,0-5.7,3.81,42.31,42.31,0,0,0-5.46,5.33c-3.73,4.18-7.29,9.12-8.22,14.77a16.34,16.34,0,0,0,5.15,14.67c3.32,2.88,7.78,3.5,12,3.65,2.67.09,5.34,0,8,.12,3.24.14,6.49.47,9.73.7,13.83,1,27.68,1.72,41.54,1.9a403.7,403.7,0,0,0,40.86-1.34c14-1.22,27.85-3.51,41.86-4.48,3.52-.24,7-.41,10.56-.47,3.12-.06,6.19.2,9.3.43l-.69-.35,0,1.37c0,.26.49.34.69.35a255,255,0,0,0,27.23-.34c2.17-.15,4.37-.5,6.55-.56a17.15,17.15,0,0,1,2.93.45c.94.14,1.89.24,2.83.31a42.7,42.7,0,0,0,12.3-.89c16.5-3.56,29.28-15.48,38.26-29.25,4.7-7.21,11.21-17,7.6-25.94-.11-.27-1.06-.37-1-.13,3.25,8-1.91,16.62-6,23.29A84.07,84.07,0,0,1,202.92,269a54.69,54.69,0,0,1-21.17,12,43.86,43.86,0,0,1-12.62,1.75,37.47,37.47,0,0,1-6.43-.64,6.77,6.77,0,0,0-2-.23l-3.36.32a245.62,245.62,0,0,1-30.21.57l.69.35,0-1.36c0-.28-.49-.34-.69-.36-3.19-.24-6.35-.49-9.56-.42s-6.47.21-9.7.42c-6.87.45-13.71,1.19-20.54,2-13.57,1.62-27.07,3.17-40.75,3.65s-27.08.25-40.6-.35q-10.17-.45-20.34-1.17c-6-.41-12-.91-18-1-5.2,0-10.82-.31-14.45-4.57a16.52,16.52,0,0,1-2.87-16.33c2-5.68,6.16-10.45,10.37-14.64,3.08-3.06,6.92-5.2,10.6-7.44s7.65-4.59,10.52-7.93c3-3.5,3.58-8.1,3.91-12.55.34-4.7.71-9.2,3.28-13.3,2.92-4.68,7.47-8.28,12.13-11.12s9.61-5,14.47-7.38c2.32-1.13,4.61-2.31,6.84-3.61a23.25,23.25,0,0,0,5.48-3.88c2.53-2.76,3.59-6.71,4.46-10.25,1.08-4.39,1.78-8.87,3.05-13.21a29.49,29.49,0,0,1,7.29-12.26A61.7,61.7,0,0,1,55.82,136a111,111,0,0,1,14.6-7.28c4.5-1.88,9.08-3.89,12.67-7.28,8.42-8,6.82-21,14.44-29.42a13.24,13.24,0,0,1,6.76-4.16c2.87-.67,5.82-1,8.53-2.17s5.07-2.93,8.3-2.73c1.68.1,4.31.28,4.58,2.4.23,1.89-1,3.94-1.67,5.6a49.15,49.15,0,0,0-3,8.49,33.47,33.47,0,0,0,.86,17.11c1.49,5.12,3.45,10.11,7.27,13.93,3.61,3.61,8,6.28,11.66,9.85a24.18,24.18,0,0,1,6.95,12.22c1,4.47,1.52,9,3.23,13.25,3.37,8.46,13,10.75,21.08,12.17,5,.88,10.05,1.53,14.9,3.19a34.6,34.6,0,0,1,13.33,7.8,22.33,22.33,0,0,1,4.37,6,37.05,37.05,0,0,1,2.53,8.13,30.33,30.33,0,0,0,2.69,8,21.39,21.39,0,0,0,4.63,5.45c3.53,3.15,7.7,5.88,9.69,10.34C224.36,227.16,225.3,227.25,225.2,227Z" transform="translate(51.78 -0.29)"/><path class="cls-8" d="M116.89,85.9a17.68,17.68,0,0,0-7,3,14.33,14.33,0,0,0-4.18,5.33,29,29,0,0,0-2.21,7.77,89.51,89.51,0,0,0-1,10.21c-.25,5.78,0,11.71-3.1,16.83-4,6.48-10.85,10.59-17.34,14.21s-13,7.11-18,12.67a20.39,20.39,0,0,0-4.72,8.51,16.86,16.86,0,0,0,.64,9.64c1.1,3.21,2.6,6.35,3.09,9.73a10.06,10.06,0,0,1-.33,4.78,11.07,11.07,0,0,1-2,3.26,30,30,0,0,1-6.63,5.6c-2.65,1.77-5.42,3.35-8.17,5a73.51,73.51,0,0,0-7.32,4.65A53.56,53.56,0,0,0,32,213.43c-4.6,4.94-9.23,11.31-8.93,18.39a15,15,0,0,0,1.06,4.91c.11.27,1.07.31,1,.05-2.77-7.05.56-14.17,4.94-19.73a66.15,66.15,0,0,1,7.18-7.6,42.83,42.83,0,0,1,6.63-4.87c5.19-3.17,10.76-5.9,15.41-9.87a14.77,14.77,0,0,0,4.58-6c1.09-3.08.14-6.48-.88-9.44S60.35,173.23,60,170a16.69,16.69,0,0,1,2.23-9.91c3.6-6.24,10.05-10.46,16.16-13.94C85,142.38,92,139,97.25,133.37a21.63,21.63,0,0,0,4.91-7.73,27.91,27.91,0,0,0,1.23-8c.27-6.33.29-12.77,1.86-19,1.22-4.81,3.71-9,8.37-11.16a19.82,19.82,0,0,1,3.93-1.27c.5-.11-.41-.44-.66-.39Z" transform="translate(51.78 -0.29)"/><path class="cls-8" d="M113,99.29a37.84,37.84,0,0,0,2,32.14,36,36,0,0,0,11.25,12.3c4.45,3,10.25,4.94,12.93,10,1.67,3.11,2,6.9,2.2,10.37.13,3.26,0,6.53.05,9.8.09,4.55.43,9.38,2.4,13.56a13.66,13.66,0,0,0,9.7,7.55c5.27,1.15,10.77-.07,16,1.19,5.73,1.36,9.7,6,13.05,10.56a67.31,67.31,0,0,1,9.1,16.64,38.78,38.78,0,0,1,1.25,4.1c.07.31,1,.25,1,0a56.63,56.63,0,0,0-7.62-16.79,63.93,63.93,0,0,0-5.39-7.38,25.46,25.46,0,0,0-6.43-5.73c-4.49-2.59-9.65-2.43-14.66-2.48a22.52,22.52,0,0,1-8.19-1.19,12.23,12.23,0,0,1-5.15-3.77c-2.77-3.49-3.58-8.14-3.91-12.46-.49-6.3.38-12.71-.8-18.94a15,15,0,0,0-3.84-8.05,29.18,29.18,0,0,0-6.62-4.58,47,47,0,0,1-7-4.61,35.69,35.69,0,0,1-5.91-6.25,37.47,37.47,0,0,1-5.88-31.68,37.91,37.91,0,0,1,1.38-4.14c.12-.3-.86-.39-1-.14Z" transform="translate(51.78 -0.29)"/><path class="cls-8" d="M104.59,135.34c-3.11,8.27-12.39,13.19-13.26,22.46-.38,4.11,1.11,8,2.89,11.66,1.86,3.8,4.09,7.47,5.28,11.56a18.76,18.76,0,0,1-.74,12.64,37.2,37.2,0,0,1-7.35,10.46c-3,3.16-6.14,6.1-9,9.36a32,32,0,0,0-8.7,24.62c.16,3.58.72,7.68,3,10.57a8.07,8.07,0,0,0,1.74,1.61,1,1,0,0,0,.68.11c.1,0,.39-.13.2-.27C76.29,248,75.3,244,74.9,240.48A38.5,38.5,0,0,1,75.31,229a31.84,31.84,0,0,1,6.36-13.29,121.27,121.27,0,0,1,9-9.67c5.82-6,11.7-13.24,10.42-22.16-.6-4.16-2.57-7.93-4.47-11.61s-3.89-7.42-4.3-11.56c-.43-4.46,1.3-8.53,3.91-12s5.83-6.55,8-10.38a19.85,19.85,0,0,0,1.34-2.88c.07-.2-.88-.36-1,0Z" transform="translate(51.78 -0.29)"/><path class="cls-8" d="M114.08,155.5c4.51,6.47,9.78,13.11,11,21.11a29.29,29.29,0,0,1-.72,11.82c-.77,3-1.79,5.95-2.61,8.95a37.74,37.74,0,0,0-1.61,10.05c0,2.83.71,5.78,2.86,7.77,3.09,2.84,7.66,3.2,11.2,5.28a18.83,18.83,0,0,1,5,4.5,27.57,27.57,0,0,1,3.62,5.73A45.54,45.54,0,0,1,146.27,244a101.58,101.58,0,0,1,.82,13.94c0,1.09,0,2.17-.05,3.25,0,.28,1,.29,1,0,.24-9.15-.14-18.7-3-27.47a27.21,27.21,0,0,0-6.93-11.13,17,17,0,0,0-5.28-3.45c-2-.82-4-1.39-6-2.3a9.4,9.4,0,0,1-4-3.16,9.91,9.91,0,0,1-1.47-4.12,27.43,27.43,0,0,1,.9-9.91c.76-3.21,1.79-6.34,2.71-9.51a33,33,0,0,0,1.46-11c-.44-8-5-14.66-9.43-21l-1.92-2.75c-.17-.24-1.12-.12-1,.1Z" transform="translate(51.78 -0.29)"/></g><path class="cls-4" d="M227.69,114.42a113.65,113.65,0,0,1-44.26,90A113,113,0,0,1,51.79,209,114.15,114.15,0,0,1,9.25,156.9a113.73,113.73,0,0,1,8-101.24,114.08,114.08,0,0,1,50.3-44.87,112.71,112.71,0,0,1,33.83-9.36,114.11,114.11,0,0,1,36.12,1.69,112.52,112.52,0,0,1,32.38,12.22,113.59,113.59,0,0,1,56.51,81.72,116,116,0,0,1,1.31,17.36c0,.25,1,.16,1-.15A114,114,0,0,0,118.41.35,115.87,115.87,0,0,0,83.08,4.63,114,114,0,0,0,101.42,227.7,114.42,114.42,0,0,0,197,193.17a113.52,113.52,0,0,0,30.37-61.24,116,116,0,0,0,1.36-17.66C228.68,114,227.69,114.11,227.69,114.42Z" transform="translate(51.78 -0.29)"/></g></g></svg>