<svg xmlns="http://www.w3.org/2000/svg" viewBox="0 0 228.69 228.09"><defs><style>.cls-1{fill:#f79521;}.cls-2{fill:#922160;}.cls-3{fill:#731745;}</style></defs><g id="Layer_2" data-name="Layer 2"><g id="BG"><path class="cls-1" d="M227.69,114.31a114.85,114.85,0,0,1-5.45,34.91A113.33,113.33,0,0,1,1.33,123.15,114.64,114.64,0,0,1,4.17,87.59,112.86,112.86,0,0,1,17.24,55.77,114,114,0,0,1,67.14,11a112.86,112.86,0,0,1,102.52,4.1,114.1,114.1,0,0,1,46.26,48.73A112.92,112.92,0,0,1,226.37,97a116,116,0,0,1,1.32,17.36c0,.29,1,.34,1,.07a115,115,0,0,0-5.56-35.26,113.84,113.84,0,0,0-15.65-31A114.45,114.45,0,0,0,8.55,71a113.28,113.28,0,0,0-8.2,34.43A114.14,114.14,0,0,0,101,227.62a115.93,115.93,0,0,0,36-1.45A114,114,0,0,0,227.32,132a116,116,0,0,0,1.37-17.66C228.69,114.08,227.69,114,227.69,114.31Z" transform="translate(0 -0.3)"/><circle class="cls-2" cx="114.34" cy="114.04" r="103.62"/><path class="cls-1" d="M177.66,59.34a20.54,20.54,0,0,0-3.73.31h0c.58-1,1.91-2.77,1.91-2.77a12.29,12.29,0,0,1-.89-3.06,23.83,23.83,0,0,1,2.82.8,21.08,21.08,0,0,1,2.43-1.86,23,23,0,0,1-.23,3.12c1,.46,2.39,1.09,3.39,1.65-.76.22-3.28.85-3.28.85a18.35,18.35,0,0,1-.58,3Z" transform="translate(0 -0.3)"/><path class="cls-1" d="M57.84,186.79a20.25,20.25,0,0,1,1.9,3.22h0c.49-1,1.16-3.16,1.16-3.16a11.84,11.84,0,0,0,3-1.06A24.4,24.4,0,0,0,61.62,184a20.6,20.6,0,0,0,.11-3.06,22.24,22.24,0,0,0-2.41,2c-1-.58-2.27-1.32-3.31-1.81.26.74,1.21,3.16,1.21,3.16a18.57,18.57,0,0,0-2.11,2.22Z" transform="translate(0 -0.3)"/><path class="cls-1" d="M75.49,45.31a19.44,19.44,0,0,1,3.2,1.93h0c-.07-1.16-.48-3.33-.48-3.33a12.22,12.22,0,0,0,2.15-2.36A23.08,23.08,0,0,0,77.48,41a20.79,20.79,0,0,0-1.36-2.74A22.54,22.54,0,0,0,75,41.19c-1.13,0-2.62-.08-3.78,0,.59.54,2.57,2.22,2.57,2.22a18.72,18.72,0,0,0-.8,2.95Z" transform="translate(0 -0.3)"/><path class="cls-1" d="M94.22,45.89a20.41,20.41,0,0,1,1.31-3.5h0c-1.12.28-3.18,1.09-3.18,1.09a12.36,12.36,0,0,0-2.71-1.69,23.24,23.24,0,0,0,0,2.93,21.41,21.41,0,0,0-2.45,1.84,23.51,23.51,0,0,0,3.07.62c.16,1.12.4,2.59.67,3.72.42-.68,1.71-2.93,1.71-2.93a19,19,0,0,0,3,.25Z" transform="translate(0 -0.3)"/><path class="cls-1" d="M146.59,36a20.07,20.07,0,0,0,1-3.6h0c.74.88,2,2.74,2,2.74a12,12,0,0,1,3.18.22A24.23,24.23,0,0,1,151,37.67a19.72,19.72,0,0,1,.91,2.92A22.12,22.12,0,0,1,149,39.31c-.79.81-1.84,1.87-2.71,2.62,0-.79.33-3.37.33-3.37A18,18,0,0,1,144,37Z" transform="translate(0 -0.3)"/><path class="cls-1" d="M113.74,83.32a19.7,19.7,0,0,0,.1,3.73h0c-1-.63-2.65-2.06-2.65-2.06a12.32,12.32,0,0,1-3.12.7,24.55,24.55,0,0,1,1-2.76,20.13,20.13,0,0,1-1.71-2.54,21.4,21.4,0,0,1,3.1.42c.52-1,1.22-2.32,1.84-3.3.18.78.66,3.33.66,3.33a18.29,18.29,0,0,1,3,.76Z" transform="translate(0 -0.3)"/><path class="cls-1" d="M165.61,67.62a19.9,19.9,0,0,1-2.4,2.86h0c1.15.11,3.36,0,3.36,0a12.07,12.07,0,0,0,2,2.5,24.29,24.29,0,0,0,1-2.76,21.93,21.93,0,0,0,2.92-.91,23,23,0,0,0-2.68-1.62c.22-1.1.49-2.58.62-3.72-.62.49-2.59,2.19-2.59,2.19a17.68,17.68,0,0,0-2.8-1.26Z" transform="translate(0 -0.3)"/><path class="cls-1" d="M65.47,66.83a20.72,20.72,0,0,1-.72,3.66h0c1.06-.46,3-1.59,3-1.59a12,12,0,0,0,3,1.21,24.1,24.1,0,0,0-.49-2.88c0-.19,1.66-1.39,2.11-2.22a21.94,21.94,0,0,0-3.13-.11c-.34-1.07-.82-2.49-1.26-3.55-.31.73-1.21,3.17-1.21,3.17a17.24,17.24,0,0,0-3.05.25Z" transform="translate(0 -0.3)"/><path class="cls-1" d="M39.11,63.26a20.44,20.44,0,0,1,3.2,1.91h0c-.07-1.15-.5-3.32-.5-3.32A12.11,12.11,0,0,0,44,59.48,23.08,23.08,0,0,0,41.07,59a20.29,20.29,0,0,0-1.38-2.73,21.19,21.19,0,0,0-1.15,2.91c-1.13,0-2.63-.07-3.78,0,.59.54,2.58,2.2,2.58,2.2a17.93,17.93,0,0,0-.79,3Z" transform="translate(0 -0.3)"/><path class="cls-1" d="M73.86,193.75a18.87,18.87,0,0,1-1.31,3.5h0c1.13-.28,3.19-1.08,3.19-1.08a12.07,12.07,0,0,0,2.71,1.68,23.1,23.1,0,0,0,0-2.92,20.61,20.61,0,0,0,2.45-1.85,22.22,22.22,0,0,0-3.07-.61c-.16-1.12-.4-2.6-.67-3.72-.42.67-1.71,2.93-1.71,2.93a16.93,16.93,0,0,0-3-.25Z" transform="translate(0 -0.3)"/><path class="cls-1" d="M153.83,175.81a20.08,20.08,0,0,0-1,3.6h0c-.75-.88-2-2.74-2-2.74a12.41,12.41,0,0,1-3.18-.22,23.35,23.35,0,0,1,1.72-2.37,21.51,21.51,0,0,1-.91-2.92,23,23,0,0,1,2.85,1.29c.79-.81,1.84-1.87,2.71-2.63-.05.79-.32,3.38-.32,3.38a17.63,17.63,0,0,1,2.62,1.58Z" transform="translate(0 -0.3)"/><path class="cls-1" d="M141.27,204.76a19.94,19.94,0,0,1,2.41-2.85h0c-1.15-.12-3.36,0-3.36,0a12,12,0,0,0-2-2.49,23.57,23.57,0,0,0-1,2.75,21.73,21.73,0,0,0-2.92.92,22.38,22.38,0,0,0,2.68,1.61c-.22,1.11-.49,2.58-.61,3.72.62-.49,2.59-2.18,2.59-2.18a18,18,0,0,0,2.79,1.26Z" transform="translate(0 -0.3)"/><path class="cls-1" d="M177.31,180.43a20.21,20.21,0,0,1-3.21-1.91h0c.08,1.15.5,3.32.5,3.32a12.29,12.29,0,0,0-2.14,2.38,24.74,24.74,0,0,0,2.88.5,21.59,21.59,0,0,0,1.38,2.73,19.87,19.87,0,0,0,1.15-2.9c1.14,0,2.63.06,3.78,0-.59-.54-2.58-2.2-2.58-2.2a17.66,17.66,0,0,0,.79-3Z" transform="translate(0 -0.3)"/><path class="cls-1" d="M62.94,53.8a1.69,1.69,0,0,0,.23,3.14c1.84.62,3-2.21,1.42-3.12A1.65,1.65,0,0,0,62.94,53.8Z" transform="translate(0 -0.3)"/><path class="cls-1" d="M169.9,49.54A1.69,1.69,0,0,0,168.08,47c-1.89.42-1.44,3.45.4,3.41A1.64,1.64,0,0,0,169.9,49.54Z" transform="translate(0 -0.3)"/><path class="cls-1" d="M147.83,65.46a1.69,1.69,0,0,0-.23-3.14c-1.84-.61-3,2.22-1.41,3.13A1.63,1.63,0,0,0,147.83,65.46Z" transform="translate(0 -0.3)"/><path class="cls-1" d="M185.4,172.31a1.68,1.68,0,0,0,1.81,2.57c1.89-.42,1.45-3.46-.39-3.41A1.64,1.64,0,0,0,185.4,172.31Z" transform="translate(0 -0.3)"/><path class="cls-1" d="M161.4,47.71a1.68,1.68,0,0,0-.23-3.14c-1.83-.61-3,2.22-1.41,3.13A1.63,1.63,0,0,0,161.4,47.71Z" transform="translate(0 -0.3)"/><path class="cls-1" d="M19.81,87.46A1.68,1.68,0,0,0,21.62,90c1.89-.42,1.45-3.45-.39-3.4A1.61,1.61,0,0,0,19.81,87.46Z" transform="translate(0 -0.3)"/><path class="cls-1" d="M73.9,178.7a1.69,1.69,0,0,0,.22,3.14c1.84.61,3-2.22,1.42-3.13A1.6,1.6,0,0,0,73.9,178.7Z" transform="translate(0 -0.3)"/><path class="cls-1" d="M37.48,81.81a1.69,1.69,0,0,0-1.81-2.58c-1.89.42-1.44,3.46.4,3.41A1.64,1.64,0,0,0,37.48,81.81Z" transform="translate(0 -0.3)"/><path class="cls-1" d="M152,192.88a1.68,1.68,0,0,0,.23,3.14c1.83.61,3-2.22,1.41-3.13A1.63,1.63,0,0,0,152,192.88Z" transform="translate(0 -0.3)"/><path class="cls-1" d="M82.31,57.61A1.69,1.69,0,0,0,80.5,55c-1.89.43-1.45,3.46.39,3.41A1.61,1.61,0,0,0,82.31,57.61Z" transform="translate(0 -0.3)"/><path class="cls-1" d="M143.81,59a1.69,1.69,0,0,0-.23-3.14c-1.84-.61-3,2.22-1.42,3.13A1.65,1.65,0,0,0,143.81,59Z" transform="translate(0 -0.3)"/><path class="cls-1" d="M57.43,47.71a1.68,1.68,0,0,0,1.82,2.57c1.88-.42,1.44-3.45-.4-3.4A1.61,1.61,0,0,0,57.43,47.71Z" transform="translate(0 -0.3)"/><path class="cls-1" d="M190.76,63.4a1.69,1.69,0,0,0,.22,3.14c1.84.61,3-2.21,1.42-3.12A1.63,1.63,0,0,0,190.76,63.4Z" transform="translate(0 -0.3)"/><path class="cls-1" d="M47.78,62.56a1.69,1.69,0,0,0,1.81,2.58c1.89-.43,1.44-3.46-.4-3.41A1.64,1.64,0,0,0,47.78,62.56Z" transform="translate(0 -0.3)"/><path class="cls-1" d="M87.51,72.26a1.69,1.69,0,0,0-1.82-2.57c-1.89.42-1.44,3.45.4,3.41A1.64,1.64,0,0,0,87.51,72.26Z" transform="translate(0 -0.3)"/><path class="cls-1" d="M150.81,52.86A1.69,1.69,0,0,0,151,56c1.84.61,3-2.22,1.41-3.13A1.63,1.63,0,0,0,150.81,52.86Z" transform="translate(0 -0.3)"/><path class="cls-1" d="M124.88,51.78a1.69,1.69,0,0,0,.22,3.14c1.84.61,3-2.22,1.42-3.13A1.63,1.63,0,0,0,124.88,51.78Z" transform="translate(0 -0.3)"/><path class="cls-1" d="M99.17,58.48A1.68,1.68,0,0,0,101,61.05c1.89-.42,1.45-3.45-.4-3.4A1.6,1.6,0,0,0,99.17,58.48Z" transform="translate(0 -0.3)"/><path class="cls-1" d="M112.69,17a1.68,1.68,0,0,0,1.81,2.57c1.89-.42,1.44-3.46-.4-3.41A1.63,1.63,0,0,0,112.69,17Z" transform="translate(0 -0.3)"/><path class="cls-1" d="M160.62,197.52a1.69,1.69,0,0,0-.23-3.14c-1.84-.61-3,2.22-1.41,3.13A1.63,1.63,0,0,0,160.62,197.52Z" transform="translate(0 -0.3)"/><path class="cls-1" d="M79.16,175.1a1.68,1.68,0,0,0-1.81-2.57c-1.89.42-1.44,3.45.4,3.41A1.63,1.63,0,0,0,79.16,175.1Z" transform="translate(0 -0.3)"/><path class="cls-1" d="M129.25,76.38a1.68,1.68,0,0,0-.23-3.14c-1.83-.62-3,2.21-1.41,3.12A1.63,1.63,0,0,0,129.25,76.38Z" transform="translate(0 -0.3)"/><path class="cls-1" d="M86.31,186.48a1.69,1.69,0,0,0,1.82,2.57c1.89-.42,1.44-3.46-.4-3.41A1.66,1.66,0,0,0,86.31,186.48Z" transform="translate(0 -0.3)"/><path class="cls-1" d="M42.61,175.67a1.68,1.68,0,0,0-.23-3.14c-1.83-.62-3,2.21-1.41,3.12A1.63,1.63,0,0,0,42.61,175.67Z" transform="translate(0 -0.3)"/><path class="cls-1" d="M199.55,83.64a1.68,1.68,0,0,0,1.81,2.57c1.89-.42,1.45-3.46-.39-3.41A1.64,1.64,0,0,0,199.55,83.64Z" transform="translate(0 -0.3)"/><path class="cls-1" d="M85.17,158.71a1.68,1.68,0,0,0-1.81-2.57c-1.89.42-1.44,3.45.4,3.41A1.63,1.63,0,0,0,85.17,158.71Z" transform="translate(0 -0.3)"/><path class="cls-1" d="M92.65,207a1.69,1.69,0,0,0-1.82-2.58c-1.89.43-1.44,3.46.4,3.41A1.65,1.65,0,0,0,92.65,207Z" transform="translate(0 -0.3)"/><path class="cls-1" d="M112.69,97.84a1.68,1.68,0,0,0,1.81,2.57c1.89-.42,1.44-3.45-.4-3.4A1.6,1.6,0,0,0,112.69,97.84Z" transform="translate(0 -0.3)"/><path class="cls-1" d="M80.31,30.34a1.68,1.68,0,0,0-.23-3.13c-1.84-.62-3,2.21-1.41,3.12A1.6,1.6,0,0,0,80.31,30.34Z" transform="translate(0 -0.3)"/><path class="cls-1" d="M116.14,212.41a1.68,1.68,0,0,0-1.81-2.57c-1.89.42-1.45,3.45.39,3.4A1.61,1.61,0,0,0,116.14,212.41Z" transform="translate(0 -0.3)"/><path class="cls-1" d="M142,181.66a1.69,1.69,0,0,0-1.81-2.58c-1.89.43-1.45,3.46.39,3.41A1.65,1.65,0,0,0,142,181.66Z" transform="translate(0 -0.3)"/><path class="cls-1" d="M97.46,30.26A5.35,5.35,0,0,1,102.24,27a6.67,6.67,0,0,1,4.85,2.32,10.93,10.93,0,0,1,1.78,3,34.38,34.38,0,0,1,1.84,5,68.2,68.2,0,0,1,1.66,8.52c.52,3.85.56,7.75.84,11.62,0,.5,1.87,1,1.9.49.4-5.74.93-11.44,1.82-17.13a29.4,29.4,0,0,1,2-7.82c1.09-2.38,2.78-4.67,5.37-5.49a7.19,7.19,0,0,1,4.18-.17,5.66,5.66,0,0,1,2.7,2.88,1.55,1.55,0,0,0,1.09.64c.11,0,1,.09.81-.26a8.62,8.62,0,0,0-2.48-3.07,7.86,7.86,0,0,0-4.24-1.35,10,10,0,0,0-4.29.69,8.19,8.19,0,0,0-3.33,2.67,19.16,19.16,0,0,0-3.3,8c-.58,2.85-1,5.76-1.33,8.65-.44,3.71-.7,7.44-1,11.17l1.91.49c-.27-3.8-.32-7.64-.81-11.42a61.34,61.34,0,0,0-1.88-9.4,40.16,40.16,0,0,0-2.14-5.42,9,9,0,0,0-2-2.82,10.59,10.59,0,0,0-6.52-2.79,6.23,6.23,0,0,0-6.18,3.6c-.22.46,1.65,1.16,1.91.6Z" transform="translate(0 -0.3)"/><path class="cls-1" d="M117.62,190.67c-.28-.15-.81,0-2.17,0h-2.17c-1.36,0-1.89-.15-2.17,0-1.14,0-2.29-.08-3.42-.21a14.27,14.27,0,0,1-1.84-.25c-.31-.07-.69-.3-1-.25-1.56.25-.7,2.88-.42,3.74a8.59,8.59,0,0,0,3.34,4.05,15.42,15.42,0,0,0,2.45,1.44c.42.19,2.09.48,2.32.79.44.61.39,1.3.72,2a1.45,1.45,0,0,1,.64-.85c.35.38.47.91.84,1.26a3.29,3.29,0,0,1,.62-1.24,4.89,4.89,0,0,1,.44,1c0-1.2.69-1.78,1.6-2.48.46-.34,1.13-.52,1.62-.84s1-.8,1.52-1.13a9.61,9.61,0,0,0,2.6-2.2,8.2,8.2,0,0,0,1.48-3c.16-.57.27-1.15.38-1.74s.28-.72-.2-.85a6.7,6.7,0,0,0-1.86.38c-.63.11-1.27.19-1.9.26S118.29,191,117.62,190.67Z" transform="translate(0 -0.3)"/><path class="cls-3" d="M118,190.52a5.62,5.62,0,0,0-2.24-.06c-1.26,0-2.52,0-3.77-.05a4.73,4.73,0,0,0-.92,0c-.07,0-.14.05-.21.06.19,0,0,0-.16-.06-.45,0-.9,0-1.35-.06-.72,0-1.44-.12-2.15-.2A7,7,0,0,1,106,190a3.56,3.56,0,0,0-.79-.22,1.55,1.55,0,0,0-1.7,1,4.11,4.11,0,0,0,.13,2.17,8.81,8.81,0,0,0,3.68,5,10.38,10.38,0,0,0,3.21,1.68,4.61,4.61,0,0,1,1.38.42c.55.39.56,1.42.82,2,.12.25.88.18,1-.07a1.38,1.38,0,0,1,.53-.74h-.84c.32.4.49.88.84,1.26.16.19.86.13.95-.12a4.5,4.5,0,0,1,.62-1.24l-1,.12a5.42,5.42,0,0,1,.43.95c.11.25,1,.18,1-.13a2.46,2.46,0,0,1,1.06-2,18.56,18.56,0,0,1,2.07-1.2c.76-.5,1.49-1.07,2.24-1.59a9.38,9.38,0,0,0,1.93-1.79,11.41,11.41,0,0,0,2-5.1c.28-1.32-1.83-.59-2.45-.42-.89.24-1.83.26-2.74.41a4.71,4.71,0,0,1-2.32.16.89.89,0,0,0-.68,0c-.1,0-.36.2-.15.29,1.06.47,2.45.05,3.53-.11.82-.13,1.66-.17,2.47-.36.3-.07.6-.18.91-.26.49-.13.53,0,.43.43a10.86,10.86,0,0,1-2.05,5.12,9.07,9.07,0,0,1-2.06,1.75c-.75.47-1.4,1.12-2.19,1.51-1.36.67-2.95,1.53-2.94,3.27l1-.13a7,7,0,0,0-.47-1c-.17-.24-.81-.06-1,.12a4.43,4.43,0,0,0-.62,1.25l1-.12c-.34-.38-.51-.87-.84-1.26-.16-.2-.66-.09-.84,0a1.81,1.81,0,0,0-.76.94l1-.07c-.35-.76-.3-1.89-1.18-2.26-.66-.27-1.39-.34-2-.62a11,11,0,0,1-5.25-4.5,8.54,8.54,0,0,1-.73-2.17c-.11-.53-.33-1.59.15-2,.19-.17.25-.1.49,0a5.22,5.22,0,0,0,.78.19c.61.11,1.24.16,1.85.22a15.74,15.74,0,0,0,3.56.11c-.14,0,.22,0,.24,0l.66,0c.66,0,1.32,0,2,0s1.27,0,1.91,0a3,3,0,0,1,1,0,.92.92,0,0,0,.69,0C118,190.77,118.25,190.61,118,190.52Z" transform="translate(0 -0.3)"/><path class="cls-1" d="M128,170.74a42,42,0,0,1-2.16-23.05c1.15-6.17,3.23-13.94,7.21-18.9a17.16,17.16,0,0,1,7.84-5.17c3.72,8.34.45,17.16-.94,26-1.63,10.48-2.57,21.54-5.61,31.64a21.38,21.38,0,0,1-1.45,3.59c0-.3,0-.61-.06-.91C132.22,179.28,129.71,175.11,128,170.74Z" transform="translate(0 -0.3)"/><path class="cls-3" d="M128.46,170.73a42,42,0,0,1-2.3-22.1,67,67,0,0,1,2.23-9.36,35,35,0,0,1,4-8.89,15.28,15.28,0,0,1,3.73-4,21,21,0,0,1,5.06-2.59l-.82-.17c3.35,7.65.89,15.9-.56,23.68-1.49,8-2.17,16.22-3.69,24.26-.42,2.2-.89,4.4-1.45,6.57a31.63,31.63,0,0,1-2.3,6.64l1,.15c-.28-5.08-3.05-9.56-4.9-14.19-.1-.26-1.08-.26-1,0,1.84,4.59,4.6,9,4.88,14.09,0,.27.86.37,1,.15,1.81-3.55,2.64-7.62,3.43-11.49.84-4.1,1.46-8.23,2-12.37s1.07-8.17,1.75-12.23,1.71-8.08,2.23-12.18a24.59,24.59,0,0,0-1.43-13.1c-.1-.22-.64-.24-.82-.17a17.81,17.81,0,0,0-8.1,5.39,30,30,0,0,0-4.47,8.62,52.51,52.51,0,0,0-3.27,20.86,41.77,41.77,0,0,0,2.79,12.43C127.6,171,128.57,171,128.46,170.73Z" transform="translate(0 -0.3)"/><path class="cls-1" d="M101.07,170.74a42,42,0,0,0,2.15-23.05c-1.15-6.17-3.23-13.94-7.21-18.9a17.16,17.16,0,0,0-7.84-5.17c-3.72,8.34-.45,17.16.94,26,1.64,10.48,2.57,21.54,5.61,31.64a20.6,20.6,0,0,0,1.46,3.59c0-.3,0-.61.06-.91C96.82,179.28,99.33,175.11,101.07,170.74Z" transform="translate(0 -0.3)"/><path class="cls-3" d="M101.56,170.81a42.14,42.14,0,0,0,2.24-22.61,70,70,0,0,0-2.31-9.45,33.38,33.38,0,0,0-4.28-9,17.73,17.73,0,0,0-8.77-6.27c-.18-.07-.66-.17-.77.07-3.36,7.67-.9,15.93.55,23.73,1.51,8.12,2.18,16.38,3.74,24.49.42,2.22.9,4.43,1.47,6.62a31.22,31.22,0,0,0,2.26,6.47c.1.19,1,.38,1,.08.28-5.06,3-9.53,4.89-14.13.09-.22-.87-.44-1-.14-1.84,4.61-4.61,9.07-4.89,14.14l1,.08c-1.82-3.56-2.63-7.67-3.43-11.56-.84-4.11-1.46-8.27-2-12.43s-1-8.09-1.74-12.11-1.67-7.93-2.19-11.95a24.71,24.71,0,0,1,1.4-13.16l-.76.07a16.94,16.94,0,0,1,8.18,5.75,32,32,0,0,1,4.21,8.56,52.07,52.07,0,0,1,3,20.34,41.34,41.34,0,0,1-2.77,12.27C100.49,170.88,101.44,171.11,101.56,170.81Z" transform="translate(0 -0.3)"/><path class="cls-1" d="M140.33,122.46c-4.64-8.78-18.47-7.82-26.82-8.31-8-.47-20.51.19-24.8,8.31-.2.38-.37.77-.54,1.16A17.16,17.16,0,0,1,96,128.79c4,5,6.06,12.73,7.21,18.9a42,42,0,0,1-2.15,23.05c-1.74,4.37-4.25,8.54-4.83,13.22,0,.3,0,.61-.06.91a13.29,13.29,0,0,0,6.6,6.41c2.85,1.23,5.37,2.8,8.19,3.65a6.08,6.08,0,0,0,3.06.63c.17,0,.33,0,.49,0s.32,0,.49,0a6.08,6.08,0,0,0,3.06-.63c2.82-.85,5.34-2.42,8.19-3.65a13.35,13.35,0,0,0,6.61-6.41c0-.3,0-.61-.06-.91-.59-4.68-3.1-8.85-4.83-13.22a42,42,0,0,1-2.16-23.05c1.15-6.17,3.23-13.94,7.21-18.9a17.16,17.16,0,0,1,7.84-5.17C140.7,123.23,140.53,122.84,140.33,122.46Z" transform="translate(0 -0.3)"/><path class="cls-3" d="M140.82,122.47c-3.82-7.11-13.23-7.93-20.4-8.26-1.85-.08-3.71-.12-5.57-.2s-3.63-.19-5.45-.18a39.62,39.62,0,0,0-11.91,1.6,19.19,19.19,0,0,0-5.73,2.84,13,13,0,0,0-4.09,5.28c0,.09.18.19.23.2a17.62,17.62,0,0,1,7.29,4.62,25.55,25.55,0,0,1,4.19,7.24,56.12,56.12,0,0,1,2.55,8.21,54.19,54.19,0,0,1,1.44,9,42,42,0,0,1-3.22,18.92c-1.22,2.89-2.68,5.68-3.62,8.67a20.84,20.84,0,0,0-.58,2.23,6.28,6.28,0,0,0-.26,2.27,3.63,3.63,0,0,0,.45.82c.16.27.32.53.5.79A14.19,14.19,0,0,0,97.8,188a12.82,12.82,0,0,0,3,2.58c1.28.77,2.71,1.31,4.06,2s2.85,1.44,4.33,2a15.86,15.86,0,0,0,3.33,1.1,10.4,10.4,0,0,0,1.93.09,17.49,17.49,0,0,0,2.17-.08,15.94,15.94,0,0,0,3.47-1.17c1.49-.6,2.91-1.34,4.35-2a37.64,37.64,0,0,0,4.07-2,13,13,0,0,0,2.83-2.5,16.11,16.11,0,0,0,1.21-1.64c.16-.26.32-.53.47-.8a1.5,1.5,0,0,0,.27-1c-.2-3.09-1.49-6.07-2.74-8.86a63.57,63.57,0,0,1-3.47-8.82,41.13,41.13,0,0,1-1.5-9.61,53.09,53.09,0,0,1,2.69-17.71c1.67-5.33,4.13-11,9.15-13.94a22.38,22.38,0,0,1,3.82-1.76.11.11,0,0,0,.07-.15c-.17-.39-.35-.78-.54-1.16s-1.1-.26-1,0,.37.76.54,1.15l.07-.14a18.5,18.5,0,0,0-7.12,4.32,23,23,0,0,0-4.19,6.67,50.94,50.94,0,0,0-2.69,8,60.18,60.18,0,0,0-1.6,8.32A42.17,42.17,0,0,0,127,169.46c1.06,2.93,2.51,5.69,3.67,8.58a26.64,26.64,0,0,1,1.38,4.39,5.59,5.59,0,0,1,.25,2.49,7.68,7.68,0,0,1-1.07,1.75,13.34,13.34,0,0,1-2.64,2.82,19.1,19.1,0,0,1-3.91,2.15c-1.46.69-2.89,1.45-4.36,2.11a21.28,21.28,0,0,1-2.17.86,14.92,14.92,0,0,1-1.7.6,18.55,18.55,0,0,1-4.21,0,15.92,15.92,0,0,1-1.63-.6,23,23,0,0,1-2.25-.91c-1.44-.65-2.83-1.4-4.26-2.06a17.1,17.1,0,0,1-3.84-2.17,13.7,13.7,0,0,1-2.67-3,4,4,0,0,1-.91-1.89,9.91,9.91,0,0,1,.37-2.41,47.54,47.54,0,0,1,3.37-8.74,43.59,43.59,0,0,0,4-18.29,55,55,0,0,0-3.18-17.07,34.21,34.21,0,0,0-3.47-7.49,16.29,16.29,0,0,0-5.6-5.41,23.48,23.48,0,0,0-3.75-1.71l.22.21A12.77,12.77,0,0,1,92.12,119,16.92,16.92,0,0,1,97,116.21a34.63,34.63,0,0,1,11.41-1.95c3.47-.09,7,.18,10.42.3a56,56,0,0,1,11.26,1.21c4,1,7.78,2.94,9.79,6.68C140,122.71,140.94,122.7,140.82,122.47Z" transform="translate(0 -0.3)"/><path class="cls-1" d="M76.8,124.78c-1.6-2-5.32-7-8.81-8.12a5.27,5.27,0,0,0-.56.19c-3.74,1.69.24,9.2,1.49,11.52,3.84,7.15,11.57,12,19.86,11.28.35,0,.71-.07,1.06-.13a36.69,36.69,0,0,1-3.21-2.45C82.65,133.59,80.1,128.85,76.8,124.78Z" transform="translate(0 -0.3)"/><path class="cls-3" d="M77.29,124.75c-2.2-2.71-4.4-5.72-7.46-7.52a3.61,3.61,0,0,0-2.08-.76,3,3,0,0,0-1.75,1,4.53,4.53,0,0,0-.49,3.62A25.55,25.55,0,0,0,68.79,129a22.5,22.5,0,0,0,8.35,8.23,20.42,20.42,0,0,0,12.94,2.44c.11,0,.39-.14.2-.27a31.22,31.22,0,0,1-7.2-6.8c-2-2.59-3.75-5.35-5.79-7.89-.19-.23-1.12-.13-1,.06,2.09,2.59,3.87,5.42,5.92,8.05a31.83,31.83,0,0,0,7.16,6.74l.2-.27a19.31,19.31,0,0,1-15.77-5.26,23.1,23.1,0,0,1-4.67-6.18,29,29,0,0,1-2.35-5.47c-.59-2-1-4.85,1.52-5.6h-.6a13.58,13.58,0,0,1,5.08,3.81c1.25,1.33,2.37,2.76,3.51,4.18C76.51,125,77.43,124.93,77.29,124.75Z" transform="translate(0 -0.3)"/><path class="cls-1" d="M93.55,126.94c-4-3.85-7.54-2.64-12.15-4.55-3.5-1.45-8.91-7.12-13.41-5.73,3.49,1.15,7.21,6.14,8.81,8.12,3.3,4.07,5.85,8.81,9.83,12.29a36.69,36.69,0,0,0,3.21,2.45" transform="translate(0 -0.3)"/><path class="cls-3" d="M94,126.85a11.8,11.8,0,0,0-5.29-2.91c-1.9-.48-3.86-.65-5.74-1.24-3.61-1.14-6.34-4-9.79-5.57a8,8,0,0,0-5.53-.62c-.3.08-.07.26.09.31a12.72,12.72,0,0,1,4.6,3.32,51.71,51.71,0,0,1,3.49,4c2.7,3.38,5,7.12,7.81,10.38a30.54,30.54,0,0,0,5.78,5,.89.89,0,0,0,.68.09c.1,0,.38-.13.19-.27a29.23,29.23,0,0,1-5.47-4.7,61.12,61.12,0,0,1-4.27-5.59,73.14,73.14,0,0,0-7.27-9.09,13.32,13.32,0,0,0-5-3.55l.09.31c1.66-.48,3.39.19,4.87.94a44.68,44.68,0,0,1,4.65,2.91,17.86,17.86,0,0,0,4,2.18,39.57,39.57,0,0,0,5.36,1.22,11.5,11.5,0,0,1,5.87,3c.19.19,1.14.1.87-.17Z" transform="translate(0 -0.3)"/><path class="cls-1" d="M152.63,124.78c1.6-2,5.33-7,8.82-8.12a5.27,5.27,0,0,1,.56.19c3.74,1.69-.25,9.2-1.49,11.52-3.85,7.15-11.58,12-19.87,11.28-.35,0-.7-.07-1.05-.13a38.29,38.29,0,0,0,3.21-2.45C146.79,133.59,149.33,128.85,152.63,124.78Z" transform="translate(0 -0.3)"/><path class="cls-3" d="M153.09,124.93c1.18-1.46,2.34-2.94,3.64-4.3a13.53,13.53,0,0,1,5.12-3.78l-.57,0c2.18.66,1.95,3.17,1.5,5a26.41,26.41,0,0,1-2.32,5.67,22.31,22.31,0,0,1-11.38,10.68,18.42,18.42,0,0,1-9.57,1.17l.54.38a31.51,31.51,0,0,0,7.19-6.78c2-2.6,3.78-5.4,5.85-8,.19-.23-.74-.53-.92-.31-2.06,2.57-3.83,5.37-5.85,8a31.41,31.41,0,0,1-7.18,6.77c-.24.16.49.37.54.38,8,1.2,15.94-2.91,20.31-9.56a28.12,28.12,0,0,0,3.71-8,6.43,6.43,0,0,0,.1-3.95c-.45-1.12-1.9-2.14-3.1-1.66a14.47,14.47,0,0,0-4.89,3.72c-1.3,1.36-2.45,2.84-3.64,4.3C152,124.85,152.91,125.16,153.09,124.93Z" transform="translate(0 -0.3)"/><path class="cls-1" d="M135.89,126.94c4-3.85,7.53-2.64,12.14-4.55,3.51-1.45,8.91-7.12,13.42-5.73-3.49,1.15-7.22,6.14-8.82,8.12-3.3,4.07-5.84,8.81-9.82,12.29a38.29,38.29,0,0,1-3.21,2.45" transform="translate(0 -0.3)"/><path class="cls-3" d="M136.33,127a10.92,10.92,0,0,1,5.22-2.8c1.76-.4,3.55-.6,5.28-1.12,3.29-1,5.83-3.39,8.8-5,1.66-.92,3.58-1.75,5.48-1.2l.07-.32a12.6,12.6,0,0,0-4.45,3,43.27,43.27,0,0,0-3.66,4.12c-1.25,1.56-2.47,3.14-3.62,4.77-1.37,1.92-2.71,3.88-4.23,5.68a29.8,29.8,0,0,1-6,5.33c-.44.3.52.34.73.19a29.88,29.88,0,0,0,5.24-4.41,52.42,52.42,0,0,0,4.12-5.26,85.68,85.68,0,0,1,7.27-9.29,13.66,13.66,0,0,1,5.13-3.85c.2-.07.33-.25.06-.33-3.55-1-7.1,1.38-9.89,3.26a22.79,22.79,0,0,1-4.51,2.67,40.57,40.57,0,0,1-6,1.4,12.2,12.2,0,0,0-6,3.09c-.27.25.68.28.88.09Z" transform="translate(0 -0.3)"/><path class="cls-2" d="M93.35,149.22c2.29.31,7.62,2.91,6.5,6.06-.93,2.61-4.12,1.58-5.4.26C92.84,153.9,92.72,151.11,93.35,149.22Z" transform="translate(0 -0.3)"/><path class="cls-2" d="M135.69,149.22c-2.28.31-7.62,2.91-6.5,6.06.93,2.61,4.12,1.58,5.4.26C136.2,153.9,136.32,151.11,135.69,149.22Z" transform="translate(0 -0.3)"/><path class="cls-3" d="M114,184.49v11.09c0,.27,1,.26,1,0V184.46c0-.27-1-.26-1,0Z" transform="translate(0 -0.3)"/><path class="cls-2" d="M122.94,179.9a3.91,3.91,0,0,0-2-1,95,95,0,0,0-12.28-.09,4.43,4.43,0,0,0-2.46,1.08c-1.91,2.12,0,5.61,1.42,7.45a9,9,0,0,0,2,2.1s.08.05.12,0,.06-.06.08-.1a.3.3,0,0,1,.38-.08,1.06,1.06,0,0,1,.34.26,4.52,4.52,0,0,0,4,1.14c.76-.12,1.55,0,2.32-.13a3.22,3.22,0,0,0,2.17-1.39s.05-.08.1-.1a.18.18,0,0,1,.2.09c.25.36.5.3.73,0a7.37,7.37,0,0,1,.64-.74,14,14,0,0,0,1.34-1.73,9.67,9.67,0,0,0,1.66-4.08A3.39,3.39,0,0,0,122.94,179.9Z" transform="translate(0 -0.3)"/><path class="cls-2" d="M107.15,110.12c-.24-10.36-8.28-19-16.06-24.71-9.58-7-23.43-10.08-35.11-8.72-13.71,1.6-26.15,15.22-30.06,28.07-4.82,15.85-6.3,32.55,3.06,46.39,4.94,7.31,14.82,16.73,24.86,18,6.85,1.41,18.33-3.77,20.32-9.67,1.09-3.22,2.4-6.54,2.29-9.94A24.74,24.74,0,0,0,45.09,127c.31-4.87,1.65-9.55,4.84-12.58,3.5-3.31,10.22-5.66,14.92-5.71,5.77-.06,10.48,3.4,14.29,7.5s6.68,9.82,12.61,10.75c4.64.73,7.12-2.31,10.37-5.21A13.7,13.7,0,0,0,107.15,110.12ZM59,140.53c4.65,5,4.74,12.14-1.22,15.28a9.94,9.94,0,0,1-2.41-.34c-5.84-1.6-7.67-9.74-9-14.92a46,46,0,0,1-.94-4.78C50.53,135.57,55.8,137.08,59,140.53Z" transform="translate(0 -0.3)"/><path class="cls-1" d="M107.65,110.07c-.26-9.15-6.39-16.86-13.14-22.47a46.16,46.16,0,0,0-11.3-7A54.32,54.32,0,0,0,70.1,76.83a52.71,52.71,0,0,0-13.57-.4A29.46,29.46,0,0,0,44.87,80.3,44.23,44.23,0,0,0,27.52,99.43a60.74,60.74,0,0,0-4.17,13.23,69.74,69.74,0,0,0-1.73,14.24,45.93,45.93,0,0,0,2,14.13,39.67,39.67,0,0,0,6.27,12.11,51.44,51.44,0,0,0,9.32,9.5,33.15,33.15,0,0,0,11.61,6.15,21.73,21.73,0,0,0,5.49.79,21.17,21.17,0,0,0,5.48-.8,24.58,24.58,0,0,0,9.87-5.13,10.87,10.87,0,0,0,2.84-3.72c.46-1.08.79-2.23,1.16-3.34a32.94,32.94,0,0,0,1-3.78,21.06,21.06,0,0,0-2.34-13.33,25.55,25.55,0,0,0-22.72-13.65,25,25,0,0,0-6.77,1l.76.09a22.57,22.57,0,0,1,2.44-9.4,14.72,14.72,0,0,1,6.49-5.88,25.45,25.45,0,0,1,8.56-2.64A14.74,14.74,0,0,1,72,110.88a27.45,27.45,0,0,1,7,5.82c1.83,2,3.38,4.32,5.27,6.3a13.19,13.19,0,0,0,6.45,4,9.32,9.32,0,0,0,7.67-1.58,39.62,39.62,0,0,0,3.73-3.23,20.94,20.94,0,0,0,3.15-3.37,14.4,14.4,0,0,0,2.38-8.78c0-.27-1-.2-1,.11a14.38,14.38,0,0,1-2,8.11,16,16,0,0,1-2.85,3.3c-1.1,1-2.18,2-3.33,3a10,10,0,0,1-3.51,2,7.63,7.63,0,0,1-4.58-.25c-2.64-.9-4.67-2.91-6.43-5s-3.37-4.31-5.3-6.25a24.2,24.2,0,0,0-7.39-5.31c-5.4-2.33-11.48-1.15-16.65,1.24a16.11,16.11,0,0,0-7.19,5.85,21.74,21.74,0,0,0-2.85,10.16c0,.25.67.12.77.09,9.17-2.7,19.35.93,25.28,8.32a24.13,24.13,0,0,1,5.1,11.61,18,18,0,0,1-.44,7.35c-.33,1.25-.75,2.48-1.17,3.7a15,15,0,0,1-1,2.51c-1.66,3-4.9,5-7.92,6.39-3.22,1.46-7,2.51-10.55,2A28.69,28.69,0,0,1,43,164.49a48.88,48.88,0,0,1-9.8-8.64,42.49,42.49,0,0,1-7-10.78,41.8,41.8,0,0,1-3.32-13.14c-.85-9.28.91-18.77,3.71-27.59a44.1,44.1,0,0,1,14.11-20.4,33.49,33.49,0,0,1,10.89-6.08A35.41,35.41,0,0,1,64,76.65a50.65,50.65,0,0,1,25.26,7.92,50.48,50.48,0,0,1,9.63,8.35,31.53,31.53,0,0,1,6.7,11.09,22.26,22.26,0,0,1,1.07,6.17C106.66,110.44,107.66,110.37,107.65,110.07Z" transform="translate(0 -0.3)"/><path class="cls-1" d="M58.56,140.63a11.67,11.67,0,0,1,3.35,8.13,8.18,8.18,0,0,1-4.47,7l.48-.11c-7-.22-9.21-8-10.63-13.62a63.79,63.79,0,0,1-1.3-6.26l-.61.26c4.74-.17,9.82,1.12,13.18,4.65.2.22,1.12,0,.94-.21-3.53-3.71-8.92-5-13.9-4.85-.1,0-.64,0-.61.26a66.44,66.44,0,0,0,2.17,9.41,21.19,21.19,0,0,0,3.62,7.53,8.88,8.88,0,0,0,3,2.38,8.46,8.46,0,0,0,2,.66,4.57,4.57,0,0,0,2.4.1,8.32,8.32,0,0,0,4.67-6.44,11.54,11.54,0,0,0-3.34-9.05C59.3,140.2,58.38,140.44,58.56,140.63Z" transform="translate(0 -0.3)"/><path class="cls-1" d="M46.78,135.54a19.63,19.63,0,0,0-10.34,2.51,14.25,14.25,0,0,0-6.28,7.58l1-.1c-.72-1.09-.4-2.79-.19-4a17,17,0,0,1,1.24-4.13,19.33,19.33,0,0,1,7.69-7.86,24.87,24.87,0,0,1,6.68-2.71c.66-.16.12-.46-.31-.36a25.05,25.05,0,0,0-10.88,5.65,18.08,18.08,0,0,0-3.75,4.52,15.1,15.1,0,0,0-1.51,4.27c-.32,1.44-.8,3.49.08,4.82.13.2.89.13,1-.11a13.7,13.7,0,0,1,5.67-7.14A17.5,17.5,0,0,1,46.56,136c.42,0,.9-.41.22-.41Z" transform="translate(0 -0.3)"/><path class="cls-1" d="M60.07,155a9.82,9.82,0,0,0,3,4.81A35.81,35.81,0,0,0,67.89,163a1,1,0,0,0,.68.17c.17,0,.25-.16.07-.28A36.6,36.6,0,0,1,64,159.87a9.4,9.4,0,0,1-3-4.71c-.07-.27-1-.4-1-.12Z" transform="translate(0 -0.3)"/><path class="cls-1" d="M62.32,146.22c4.35,2.74,9.34-1.09,11-5.22.1-.25-.84-.59-.95-.31a10.8,10.8,0,0,1-3.73,4.67c-1.69,1.2-3.87,1.86-5.74.69-.14-.09-.51-.26-.67-.15s-.07.22.09.32Z" transform="translate(0 -0.3)"/><path class="cls-1" d="M58.5,129.15c.38,3.18.52,6.71-1.15,9.58-.13.23.82.31,1,.05,1.69-2.9,1.57-6.46,1.18-9.68,0-.29-1-.22-1,.05Z" transform="translate(0 -0.3)"/><path class="cls-1" d="M40.76,129.76A51.71,51.71,0,0,1,41.87,135c.05.28,1,.45,1,.15-.31-1.76-.63-3.51-1.11-5.23-.08-.28-1-.43-1-.15Z" transform="translate(0 -0.3)"/><path class="cls-1" d="M30.31,101.21c0,2.4,1.86,4.37,3.6,5.8a28.61,28.61,0,0,0,8.23,4.52,28.29,28.29,0,0,0,5,1.39c.1,0,.5.09.53-.09s-.33-.28-.45-.3a29.05,29.05,0,0,1-10.48-4.12c-2.34-1.49-5.52-3.88-5.49-7,0-.31-1-.45-1-.21Z" transform="translate(0 -0.3)"/><path class="cls-1" d="M25.51,130.37a15,15,0,0,1,7.29-5.28,40.52,40.52,0,0,1,10.08-2.36c.68-.08.17-.44-.26-.39a42.8,42.8,0,0,0-10.53,2.46c-2.9,1.13-5.79,2.79-7.54,5.45-.16.22.79.36,1,.12Z" transform="translate(0 -0.3)"/><path class="cls-1" d="M47.45,150.47a13.63,13.63,0,0,0-5.26,3.88,12.83,12.83,0,0,0-2.72,4.75c-.08.3.9.26,1,0A12.37,12.37,0,0,1,43,154.54a12.9,12.9,0,0,1,5-3.79c.15-.05.31-.16.15-.29s-.53-.05-.69,0Z" transform="translate(0 -0.3)"/><path class="cls-1" d="M51.22,79.41a27.4,27.4,0,0,0,1.9,22.75,27.05,27.05,0,0,0,3.9,5.32c.18.19,1.14.19.88-.08A27.57,27.57,0,0,1,50.7,86a25.35,25.35,0,0,1,1.51-6.41c.08-.22-.88-.44-1-.14Z" transform="translate(0 -0.3)"/><path class="cls-1" d="M87.25,84.53a21.2,21.2,0,0,0-4.42,2.07A23.19,23.19,0,0,0,78,90.28a40.07,40.07,0,0,0-7.14,10.24A24.65,24.65,0,0,0,68.81,106c-.06.23.92.33,1,0a31.84,31.84,0,0,1,4.72-10,28.58,28.58,0,0,1,8.34-8.69A21.43,21.43,0,0,1,88,84.83c.22-.07.14-.19,0-.28a1,1,0,0,0-.71,0Z" transform="translate(0 -0.3)"/><path class="cls-1" d="M102.36,101.32a28.09,28.09,0,0,1-5.55,7.52,32.51,32.51,0,0,1-8.56,5.57,30.66,30.66,0,0,1-5.44,1.79c-.51.12.37.49.63.43a31.55,31.55,0,0,0,9.36-3.86,27.32,27.32,0,0,0,7.58-6.54,33.07,33.07,0,0,0,3-4.69c.1-.19-.82-.51-1-.22Z" transform="translate(0 -0.3)"/><path class="cls-2" d="M126.57,121.77c3.25,2.9,5.72,5.94,10.36,5.21,5.94-.93,8.86-6.71,12.62-10.75s8.51-7.56,14.29-7.5c4.7,0,11.42,2.4,14.91,5.71,3.19,3,4.54,7.71,4.85,12.58a24.75,24.75,0,0,0-31.37,22.51c-.1,3.4,1.21,6.72,2.29,9.94,2,5.9,13.47,11.08,20.33,9.67,10-1.26,19.91-10.68,24.86-18,9.36-13.84,7.88-30.54,3.06-46.39-3.91-12.85-16.35-26.47-30.07-28.07-11.67-1.36-25.53,1.73-35.1,8.72-7.78,5.68-15.82,14.35-16.07,24.71A13.68,13.68,0,0,0,126.57,121.77Zm56.63,14c-.25,1.72-.58,3.34-.94,4.78-1.3,5.18-3.13,13.32-9,14.92a10,10,0,0,1-2.41.34c-6-3.14-5.87-10.31-1.22-15.28C172.88,137.08,178.16,135.57,183.2,135.77Z" transform="translate(0 -0.3)"/><path class="cls-1" d="M126.13,121.79a29.38,29.38,0,0,0,5.53,4.49,9.16,9.16,0,0,0,6.72.66c4.45-1.22,7.17-5.19,9.93-8.59,3.16-3.89,7.18-7.7,12.18-9a16,16,0,0,1,7.4.05,26.24,26.24,0,0,1,7.27,2.76,14,14,0,0,1,5.77,5.85,22.81,22.81,0,0,1,2.18,8.89l.66-.07a24.69,24.69,0,0,0-14.64.17A25.67,25.67,0,0,0,157,135.39a24.23,24.23,0,0,0-5.16,12.71,19.6,19.6,0,0,0,1,7.89,18.55,18.55,0,0,0,2.42,5.74c2.27,3,5.91,5,9.41,6.32a24.43,24.43,0,0,0,5.84,1.42,19,19,0,0,0,5.43-.25,29.94,29.94,0,0,0,12.56-5.81,51.19,51.19,0,0,0,10-9.82,40,40,0,0,0,6.66-12.72,46.61,46.61,0,0,0,1.89-14.76,72.68,72.68,0,0,0-2.12-15.18,54.48,54.48,0,0,0-4.77-13.44c-4.31-7.93-11.08-15-19.39-18.73a32.49,32.49,0,0,0-12.87-2.59,55,55,0,0,0-14.45,1.69,49.08,49.08,0,0,0-13.38,5.46,49.71,49.71,0,0,0-10.68,8.77A32.22,32.22,0,0,0,122.08,104c-1.31,4.11-1.65,9,.25,13a15.62,15.62,0,0,0,3.8,4.83.91.91,0,0,0,.66.2c.1,0,.4-.08.22-.24a15.1,15.1,0,0,1-3.78-4.87,14.39,14.39,0,0,1-1.21-6.07,24.16,24.16,0,0,1,4-12.88,43.45,43.45,0,0,1,9.1-10.08,46.05,46.05,0,0,1,11.55-7.1,53.52,53.52,0,0,1,13.67-3.69,45.6,45.6,0,0,1,13.75,0c8.74,1.56,16.24,7.72,21.46,14.65a43.11,43.11,0,0,1,6.25,11.48,80.89,80.89,0,0,1,3.49,14.22c1.5,9.55,1.07,19.58-3.11,28.44a43.83,43.83,0,0,1-7.68,11.06,45.83,45.83,0,0,1-10.81,8.75,27.42,27.42,0,0,1-6.26,2.66,19.47,19.47,0,0,1-5.67.8,22.84,22.84,0,0,1-11.09-3.57,16.77,16.77,0,0,1-4.14-3.46,15.34,15.34,0,0,1-2.42-5.27,21,21,0,0,1-1.34-8,23.32,23.32,0,0,1,1.42-6.55,25,25,0,0,1,22-16,22.73,22.73,0,0,1,7.24.93c.07,0,.68.14.66-.08-.34-5.07-1.78-10.36-6-13.6a23.56,23.56,0,0,0-6.57-3.44,25.11,25.11,0,0,0-7-1.52c-5.2-.32-9.8,2.14-13.52,5.6a47.54,47.54,0,0,0-4.82,5.4,29.83,29.83,0,0,1-4.7,5c-2.12,1.66-5,2.82-7.73,2.09s-4.73-3.1-6.76-4.91a1,1,0,0,0-.66-.19C126.25,121.57,126,121.64,126.13,121.79Z" transform="translate(0 -0.3)"/><path class="cls-1" d="M182.71,135.68a64,64,0,0,1-2.36,10c-.9,2.84-2.12,5.84-4.39,7.88a8.05,8.05,0,0,1-5.3,2l.59.14a8.32,8.32,0,0,1-3.87-4.09,8.85,8.85,0,0,1-.37-5.29,13.23,13.23,0,0,1,8.23-9.06,20.09,20.09,0,0,1,8-1.3c.68,0,.25-.42-.19-.43-4.38-.16-9,.8-12.53,3.57-3,2.34-5.13,6.22-4.74,10.08a8.24,8.24,0,0,0,2,4.59,9.49,9.49,0,0,0,2.16,1.78,2.22,2.22,0,0,0,1.13.44,8.33,8.33,0,0,0,1.86-.19c3.61-.72,5.83-3.69,7.24-6.89a39.3,39.3,0,0,0,1.93-5.82,66.51,66.51,0,0,0,1.56-7.26C183.73,135.58,182.75,135.41,182.71,135.68Z" transform="translate(0 -0.3)"/><path class="cls-1" d="M182,136a17.66,17.66,0,0,1,9.76,2.51,13.77,13.77,0,0,1,5.76,7.17c.09.28.83.28,1,.06.76-1.14.46-2.84.23-4.09a17,17,0,0,0-1.27-4.24,19.79,19.79,0,0,0-8.09-8.15,26.28,26.28,0,0,0-6.84-2.72c-.29-.07-1.13.19-.5.34a24.14,24.14,0,0,1,10.57,5.58,17.64,17.64,0,0,1,3.55,4.38,14.84,14.84,0,0,1,1.45,4.15c.29,1.36.77,3.38-.06,4.64l1,.06a14.13,14.13,0,0,0-6.23-7.59,19.53,19.53,0,0,0-10.29-2.5c-.58,0-.6.4,0,.4Z" transform="translate(0 -0.3)"/><path class="cls-1" d="M167.65,155a9.47,9.47,0,0,1-3,4.74,36.25,36.25,0,0,1-4.66,3.1c-.18.1.23.29.28.31a.73.73,0,0,0,.63,0,34.27,34.27,0,0,0,4.74-3.16,9.59,9.59,0,0,0,3-4.77c.07-.26-.9-.5-1-.22Z" transform="translate(0 -0.3)"/><path class="cls-1" d="M165.64,146.05c-3.73,2.35-8-2-9.32-5.28-.1-.25-1.08-.15-1,.15,1.66,4.12,6.79,8,11.15,5.29.2-.12-.09-.24-.19-.26a.9.9,0,0,0-.68.1Z" transform="translate(0 -0.3)"/><path class="cls-1" d="M169.21,129c-.39,3.25-.51,6.81,1.2,9.74.13.23,1.08.39.88.05-1.65-2.84-1.5-6.37-1.12-9.51,0-.31-.93-.53-1-.28Z" transform="translate(0 -0.3)"/><path class="cls-1" d="M187,129.77a51.75,51.75,0,0,0-1.12,5.23c0,.27.95.42,1,.13A51.71,51.71,0,0,1,188,129.9c.06-.24-.91-.43-1-.13Z" transform="translate(0 -0.3)"/><path class="cls-1" d="M197.4,101.21c0,2.34-1.82,4.25-3.52,5.63a27.68,27.68,0,0,1-7.9,4.34,27,27,0,0,1-4.83,1.33c-.5.09.38.47.63.43a30.21,30.21,0,0,0,8.65-3,18.58,18.58,0,0,0,6.72-5.21,5.6,5.6,0,0,0,1.23-3.32c0-.31-1-.45-1-.21Z" transform="translate(0 -0.3)"/><path class="cls-1" d="M204.14,130.26c-1.75-2.65-4.64-4.32-7.54-5.45a42.71,42.71,0,0,0-10.53-2.47c-.42,0-.95.31-.27.39a41,41,0,0,1,10.09,2.35c2.81,1.1,5.59,2.7,7.29,5.27.16.25,1.11.13,1-.09Z" transform="translate(0 -0.3)"/><path class="cls-1" d="M180.55,150.77a13,13,0,0,1,5.07,3.79,12.49,12.49,0,0,1,2.62,4.6c.08.29,1.06.12,1-.12a12.77,12.77,0,0,0-2.67-4.71,13.37,13.37,0,0,0-5.18-3.87,1,1,0,0,0-.69,0c-.09,0-.36.21-.14.3Z" transform="translate(0 -0.3)"/><path class="cls-1" d="M176.49,79.47a27.24,27.24,0,0,1-1.83,22.5,27,27,0,0,1-3.9,5.35c-.18.19.73.46.94.24A27.81,27.81,0,0,0,179,85.87a25.82,25.82,0,0,0-1.51-6.37c-.1-.27-1.07-.31-1,0Z" transform="translate(0 -0.3)"/><path class="cls-1" d="M140.83,84.85a20.05,20.05,0,0,1,4.41,2.1A23.23,23.23,0,0,1,150,90.72a41.57,41.57,0,0,1,6.82,9.9,25.49,25.49,0,0,1,2,5.33c.07.31,1.05.25,1,0a32.27,32.27,0,0,0-4.81-10.14A29.07,29.07,0,0,0,146.44,87a22.21,22.21,0,0,0-5.1-2.46c-.3-.09-1.13.15-.51.34Z" transform="translate(0 -0.3)"/><path class="cls-1" d="M125.35,101.38a28.28,28.28,0,0,0,5.83,7.8,33.41,33.41,0,0,0,8.75,5.61,32.3,32.3,0,0,0,5.59,1.82c.57.14.67-.25.09-.39a31.85,31.85,0,0,1-11.71-5.55,26.84,26.84,0,0,1-7.58-9.18c-.14-.27-1.08-.33-1-.11Z" transform="translate(0 -0.3)"/></g></g></svg>