<svg xmlns="http://www.w3.org/2000/svg" viewBox="0 0 105.13 105.13"><defs><style>.cls-1{fill:#922160;}</style></defs><g id="Layer_2" data-name="Layer 2"><g id="BG"><path class="cls-1" d="M56.64,43.62a.88.88,0,0,0,.81-.54l12-29A.87.87,0,0,0,69,13a.89.89,0,0,0-1.15.48l-12,29a.88.88,0,0,0,.48,1.15A.8.8,0,0,0,56.64,43.62Z"/><path class="cls-1" d="M91.37,69.52a.88.88,0,0,0,.34-1.69l-29-12a.88.88,0,1,0-.67,1.62l29,12A.78.78,0,0,0,91.37,69.52Z"/><path class="cls-1" d="M36.49,92.25a.88.88,0,0,0,.82-.54l12-29a.88.88,0,1,0-1.63-.67l-12,29a.88.88,0,0,0,.48,1.15A1,1,0,0,0,36.49,92.25Z"/><path class="cls-1" d="M42.74,49.38a.88.88,0,0,0,.33-1.7l-29-12a.88.88,0,0,0-.67,1.63l29,12A.8.8,0,0,0,42.74,49.38Z"/><path class="cls-1" d="M62.39,49.38a.8.8,0,0,0,.34-.07l17.21-7.13a.88.88,0,1,0-.67-1.63L62.06,47.68a.88.88,0,0,0,.33,1.7Z"/><path class="cls-1" d="M63.77,80.49a.78.78,0,0,0,.33-.07.89.89,0,0,0,.48-1.15L57.45,62.06a.88.88,0,0,0-1.63.67L63,79.94A.89.89,0,0,0,63.77,80.49Z"/><path class="cls-1" d="M25.53,64.65a.78.78,0,0,0,.33-.07l17.21-7.13a.88.88,0,1,0-.67-1.62L25.19,63a.88.88,0,0,0,.34,1.69Z"/><path class="cls-1" d="M48.49,43.62a.8.8,0,0,0,.34-.07.88.88,0,0,0,.48-1.15L42.18,25.19a.88.88,0,0,0-1.63.68l7.13,17.21A.88.88,0,0,0,48.49,43.62Z"/><path class="cls-1" d="M52.57,40.35a.87.87,0,0,0,.87-.87V.88a.88.88,0,1,0-1.75,0v38.6A.87.87,0,0,0,52.57,40.35Z"/><path class="cls-1" d="M65.66,53.45h38.59a.88.88,0,0,0,0-1.76H65.66a.88.88,0,0,0,0,1.76Z"/><path class="cls-1" d="M52.57,105.13a.87.87,0,0,0,.87-.88V65.66a.88.88,0,1,0-1.75,0v38.59A.87.87,0,0,0,52.57,105.13Z"/><path class="cls-1" d="M.88,53.45h38.6a.88.88,0,0,0,0-1.76H.88a.88.88,0,0,0,0,1.76Z"/><path class="cls-1" d="M61.82,44.19a.87.87,0,0,0,.62-.26L78.65,27.72a.86.86,0,0,0,0-1.24.88.88,0,0,0-1.24,0L61.2,42.69a.88.88,0,0,0,.62,1.5Z"/><path class="cls-1" d="M78,78.91a.86.86,0,0,0,.62-.25.88.88,0,0,0,0-1.25L62.44,61.2a.88.88,0,0,0-1.24,1.24L77.41,78.66A.88.88,0,0,0,78,78.91Z"/><path class="cls-1" d="M27.1,78.91a.88.88,0,0,0,.62-.25L43.93,62.44a.86.86,0,0,0,0-1.24.88.88,0,0,0-1.24,0L26.48,77.41a.88.88,0,0,0,0,1.25A.86.86,0,0,0,27.1,78.91Z"/><path class="cls-1" d="M43.31,44.19a.88.88,0,0,0,.62-1.5L27.72,26.48a.88.88,0,0,0-1.24,0,.86.86,0,0,0,0,1.24L42.69,43.93A.87.87,0,0,0,43.31,44.19Z"/></g></g></svg>