<svg xmlns="http://www.w3.org/2000/svg" viewBox="0 0 228.65 228.15"><defs><style>.cls-1{fill:#f79521;}.cls-2{fill:#922160;}.cls-3{opacity:0.7;}.cls-4{opacity:0.5;}</style></defs><g id="Layer_2" data-name="Layer 2"><g id="BG"><path class="cls-1" d="M227.7,114.21A113.58,113.58,0,0,1,83.59,223.78,112.23,112.23,0,0,1,52,209.32,113.8,113.8,0,0,1,67.1,11.12,113.47,113.47,0,0,1,136.68,2.9,111.69,111.69,0,0,1,169.47,15a113.53,113.53,0,0,1,58.23,99.23c0,.33,1,.49,1,.26a114.93,114.93,0,0,0-5.55-35.25,113.66,113.66,0,0,0-15.51-30.79A114.9,114.9,0,0,0,83.74,4.34a113.85,113.85,0,0,0-83.38,101,114.86,114.86,0,0,0,2.87,35.92,113.42,113.42,0,0,0,13.36,32.24,114.4,114.4,0,0,0,200-7.81,113.57,113.57,0,0,0,10.76-33.5,116.14,116.14,0,0,0,1.36-17.67C228.67,114.15,227.7,114,227.7,114.21Z" transform="translate(-0.02 -0.27)"/><circle class="cls-2" cx="114.33" cy="114.08" r="103.62"/><g class="cls-3"><path class="cls-1" d="M183.85,63.33a22.36,22.36,0,0,0-4.13.35h0c.64-1.11,2.11-3.07,2.11-3.07a13.43,13.43,0,0,1-1-3.39,26.3,26.3,0,0,1,3.12.88c.21,0,1.73-1.66,2.69-2.05a24.69,24.69,0,0,1-.25,3.45c1.14.51,2.64,1.2,3.76,1.83-.85.24-3.64.94-3.64.94a19.68,19.68,0,0,1-.64,3.33Z" transform="translate(-0.02 -0.27)"/><path class="cls-1" d="M113.65,90.34a22.45,22.45,0,0,1,2.11,3.56h0c.53-1.16,1.27-3.5,1.27-3.5a13.32,13.32,0,0,0,3.34-1.17,27.17,27.17,0,0,0-2.53-2c-.1-.19.35-2.37.12-3.39A23.92,23.92,0,0,0,115.29,86c-1.08-.63-2.52-1.45-3.67-2,.29.82,1.34,3.51,1.34,3.51A19.44,19.44,0,0,0,110.62,90Z" transform="translate(-0.02 -0.27)"/><path class="cls-1" d="M70.67,47.79a22,22,0,0,1,3.54,2.14h0c-.07-1.28-.53-3.69-.53-3.69a13.24,13.24,0,0,0,2.38-2.62,27.86,27.86,0,0,0-3.19-.57c-.18-.12-.82-2.26-1.5-3a25.09,25.09,0,0,0-1.3,3.21c-1.25,0-2.91-.08-4.18,0,.64.59,2.84,2.45,2.84,2.45a20,20,0,0,0-.89,3.28Z" transform="translate(-0.02 -0.27)"/><path class="cls-1" d="M86.46,35a21.81,21.81,0,0,1,1.46-3.87h0c-1.25.31-3.53,1.2-3.53,1.2a13.45,13.45,0,0,0-3-1.86,26.27,26.27,0,0,0,0,3.24c-.07.19-2.06,1.21-2.7,2a23.94,23.94,0,0,0,3.39.68c.18,1.24.45,2.88.74,4.12.47-.75,1.9-3.25,1.9-3.25a20.26,20.26,0,0,0,3.38.29Z" transform="translate(-0.02 -0.27)"/><path class="cls-1" d="M149.43,37.42a22.07,22.07,0,0,0,1.08-4h0c.83,1,2.17,3,2.17,3a13.45,13.45,0,0,1,3.52.24,26.94,26.94,0,0,1-1.9,2.62c-.05.21,1,2.2,1,3.24a24.88,24.88,0,0,1-3.15-1.43c-.88.9-2,2.08-3,2.91.06-.88.37-3.74.37-3.74a18.6,18.6,0,0,1-2.91-1.75Z" transform="translate(-0.02 -0.27)"/><path class="cls-1" d="M200.39,97.34a22.39,22.39,0,0,0,.11,4.14h0c-1.08-.7-2.94-2.28-2.94-2.28a13.74,13.74,0,0,1-3.45.77,26.5,26.5,0,0,1,1.07-3.06c0-.21-1.56-1.82-1.89-2.81a24.19,24.19,0,0,1,3.43.46c.58-1.11,1.36-2.57,2-3.65.2.86.73,3.69.73,3.69a19.89,19.89,0,0,1,3.29.84Z" transform="translate(-0.02 -0.27)"/><path class="cls-1" d="M170.51,72.51a23,23,0,0,1-2.67,3.16h0c1.27.13,3.72,0,3.72,0a13.31,13.31,0,0,0,2.21,2.76,25.89,25.89,0,0,0,1.08-3c.13-.16,2.35-.45,3.23-1a25.17,25.17,0,0,0-3-1.79c.24-1.22.55-2.86.68-4.12-.68.54-2.87,2.42-2.87,2.42a20.14,20.14,0,0,0-3.09-1.4Z" transform="translate(-0.02 -0.27)"/><path class="cls-1" d="M55.39,75a21.87,21.87,0,0,1-.8,4.06h0c1.18-.51,3.28-1.77,3.28-1.77a13.4,13.4,0,0,0,3.27,1.34,25.64,25.64,0,0,0-.54-3.19c0-.21,1.84-1.54,2.34-2.45a23.78,23.78,0,0,0-3.47-.12c-.38-1.19-.91-2.76-1.4-3.94-.34.81-1.34,3.51-1.34,3.51a20.53,20.53,0,0,0-3.38.28Z" transform="translate(-0.02 -0.27)"/><path class="cls-1" d="M34.86,79.93A22.21,22.21,0,0,1,38.41,82h0c-.09-1.27-.56-3.68-.56-3.68a13.45,13.45,0,0,0,2.37-2.63A27.5,27.5,0,0,0,37,75.17c-.18-.11-.83-2.25-1.53-3a23.26,23.26,0,0,0-1.27,3.23c-1.26-.05-2.91-.08-4.19,0,.65.6,2.86,2.44,2.86,2.44A19.52,19.52,0,0,0,32,81.08Z" transform="translate(-0.02 -0.27)"/><path class="cls-1" d="M67.08,184.15a22.3,22.3,0,0,0,.11,4.13h0A37,37,0,0,1,64.25,186a13.29,13.29,0,0,1-3.45.77,26.24,26.24,0,0,1,1.07-3.05c0-.22-1.56-1.83-1.89-2.81a22.83,22.83,0,0,1,3.43.46c.58-1.11,1.36-2.57,2-3.66.2.87.73,3.69.73,3.69a19.89,19.89,0,0,1,3.29.84Z" transform="translate(-0.02 -0.27)"/><path class="cls-1" d="M135.43,192.06a23,23,0,0,1-2.67,3.16h0c1.28.13,3.72.05,3.72.05a13.31,13.31,0,0,0,2.21,2.76,26.54,26.54,0,0,0,1.08-3.05c.14-.16,2.35-.46,3.23-1a25.17,25.17,0,0,0-3-1.79c.25-1.23.55-2.86.69-4.13-.69.55-2.88,2.43-2.88,2.43a19.22,19.22,0,0,0-3.09-1.4Z" transform="translate(-0.02 -0.27)"/></g><g class="cls-4"><path class="cls-1" d="M56.77,57.2A1.87,1.87,0,0,0,57,60.68c2,.68,3.34-2.46,1.57-3.46A1.8,1.8,0,0,0,56.77,57.2Z" transform="translate(-0.02 -0.27)"/><path class="cls-1" d="M175.25,52.48a1.87,1.87,0,0,0-2-2.85c-2.09.47-1.6,3.82.44,3.77A1.81,1.81,0,0,0,175.25,52.48Z" transform="translate(-0.02 -0.27)"/><path class="cls-1" d="M153.22,68.66a1.87,1.87,0,0,0-.25-3.48c-2-.68-3.34,2.45-1.57,3.46A1.8,1.8,0,0,0,153.22,68.66Z" transform="translate(-0.02 -0.27)"/><path class="cls-1" d="M190,159.43a1.86,1.86,0,0,0,2,2.85c2.1-.47,1.6-3.83-.44-3.78A1.8,1.8,0,0,0,190,159.43Z" transform="translate(-0.02 -0.27)"/><path class="cls-1" d="M165.84,50.45a1.87,1.87,0,0,0-.25-3.48c-2-.68-3.35,2.46-1.57,3.47A1.82,1.82,0,0,0,165.84,50.45Z" transform="translate(-0.02 -0.27)"/><path class="cls-1" d="M24.93,101.13a1.87,1.87,0,0,0,2,2.85c2.09-.46,1.6-3.82-.44-3.77A1.79,1.79,0,0,0,24.93,101.13Z" transform="translate(-0.02 -0.27)"/><path class="cls-1" d="M39.25,154.47A1.87,1.87,0,0,0,39.5,158c2,.68,3.35-2.46,1.57-3.46A1.8,1.8,0,0,0,39.25,154.47Z" transform="translate(-0.02 -0.27)"/><path class="cls-1" d="M28.56,88.22a1.87,1.87,0,0,0-2-2.85c-2.09.47-1.6,3.83.44,3.78A1.8,1.8,0,0,0,28.56,88.22Z" transform="translate(-0.02 -0.27)"/><path class="cls-1" d="M203.74,140.25a1.86,1.86,0,0,0,.26,3.47c2,.68,3.34-2.45,1.56-3.46A1.82,1.82,0,0,0,203.74,140.25Z" transform="translate(-0.02 -0.27)"/><path class="cls-1" d="M78.22,61.41a1.87,1.87,0,0,0-2-2.85c-2.09.47-1.6,3.83.44,3.78A1.81,1.81,0,0,0,78.22,61.41Z" transform="translate(-0.02 -0.27)"/><path class="cls-1" d="M146.35,63a1.87,1.87,0,0,0-.26-3.48c-2-.68-3.34,2.46-1.56,3.46A1.8,1.8,0,0,0,146.35,63Z" transform="translate(-0.02 -0.27)"/><path class="cls-1" d="M50.66,50.45a1.87,1.87,0,0,0,2,2.85c2.09-.47,1.6-3.83-.44-3.77A1.79,1.79,0,0,0,50.66,50.45Z" transform="translate(-0.02 -0.27)"/><path class="cls-1" d="M193,76a1.87,1.87,0,0,0,.25,3.48c2,.68,3.34-2.45,1.57-3.46A1.8,1.8,0,0,0,193,76Z" transform="translate(-0.02 -0.27)"/><path class="cls-1" d="M40,66.9a1.86,1.86,0,0,0,2,2.85c2.1-.46,1.6-3.82-.44-3.77A1.81,1.81,0,0,0,40,66.9Z" transform="translate(-0.02 -0.27)"/><path class="cls-1" d="M101.51,72.39a1.87,1.87,0,0,0-2-2.85c-2.09.46-1.6,3.82.44,3.77A1.81,1.81,0,0,0,101.51,72.39Z" transform="translate(-0.02 -0.27)"/><path class="cls-1" d="M154.11,56.16a1.86,1.86,0,0,0,.25,3.47c2,.68,3.34-2.45,1.57-3.46A1.77,1.77,0,0,0,154.11,56.16Z" transform="translate(-0.02 -0.27)"/><path class="cls-1" d="M125.14,71.67a1.87,1.87,0,0,0,.25,3.48c2,.68,3.35-2.46,1.57-3.46A1.8,1.8,0,0,0,125.14,71.67Z" transform="translate(-0.02 -0.27)"/><path class="cls-1" d="M96.9,62.38a1.87,1.87,0,0,0,2,2.85c2.09-.46,1.6-3.82-.45-3.77A1.79,1.79,0,0,0,96.9,62.38Z" transform="translate(-0.02 -0.27)"/><path class="cls-1" d="M133.1,22.55a1.87,1.87,0,0,0,2,2.85c2.1-.46,1.6-3.82-.44-3.77A1.83,1.83,0,0,0,133.1,22.55Z" transform="translate(-0.02 -0.27)"/><path class="cls-1" d="M160.11,182.73a1.87,1.87,0,0,0-.25-3.48c-2-.68-3.34,2.46-1.57,3.46A1.8,1.8,0,0,0,160.11,182.73Z" transform="translate(-0.02 -0.27)"/><path class="cls-1" d="M198.79,145.07a1.87,1.87,0,0,0,.25,3.48c2,.68,3.35-2.45,1.57-3.46A1.8,1.8,0,0,0,198.79,145.07Z" transform="translate(-0.02 -0.27)"/><path class="cls-1" d="M22.34,123.63a1.86,1.86,0,0,0-2-2.85c-2.1.47-1.6,3.83.44,3.77A1.78,1.78,0,0,0,22.34,123.63Z" transform="translate(-0.02 -0.27)"/><path class="cls-1" d="M69.38,32.47A1.87,1.87,0,0,0,69.13,29c-2-.68-3.34,2.46-1.57,3.46A1.8,1.8,0,0,0,69.38,32.47Z" transform="translate(-0.02 -0.27)"/><path class="cls-1" d="M33.42,148.49a1.87,1.87,0,0,0,2,2.85c2.09-.47,1.6-3.83-.44-3.77A1.79,1.79,0,0,0,33.42,148.49Z" transform="translate(-0.02 -0.27)"/><path class="cls-1" d="M155.21,200.58a1.86,1.86,0,0,0,2,2.85c2.1-.47,1.6-3.83-.44-3.78A1.79,1.79,0,0,0,155.21,200.58Z" transform="translate(-0.02 -0.27)"/><path class="cls-1" d="M129.15,207.57a1.87,1.87,0,0,0,.25,3.48c2,.68,3.35-2.45,1.57-3.46A1.8,1.8,0,0,0,129.15,207.57Z" transform="translate(-0.02 -0.27)"/><path class="cls-1" d="M166.22,189.48a1.87,1.87,0,0,0-2-2.85c-2.09.47-1.6,3.83.44,3.77A1.81,1.81,0,0,0,166.22,189.48Z" transform="translate(-0.02 -0.27)"/><path class="cls-1" d="M98.8,206.21a1.87,1.87,0,0,0-2-2.85c-2.1.47-1.6,3.83.44,3.78A1.81,1.81,0,0,0,98.8,206.21Z" transform="translate(-0.02 -0.27)"/><path class="cls-1" d="M64.35,195.12a1.87,1.87,0,0,0,2,2.85c2.09-.46,1.59-3.82-.45-3.77A1.79,1.79,0,0,0,64.35,195.12Z" transform="translate(-0.02 -0.27)"/><path class="cls-1" d="M109.2,189.86a1.87,1.87,0,0,0-.25-3.48c-2-.68-3.34,2.46-1.57,3.47A1.82,1.82,0,0,0,109.2,189.86Z" transform="translate(-0.02 -0.27)"/><path class="cls-1" d="M209.61,116.87a1.86,1.86,0,0,0-2-2.84c-2.09.46-1.6,3.82.44,3.77A1.81,1.81,0,0,0,209.61,116.87Z" transform="translate(-0.02 -0.27)"/><path class="cls-1" d="M104,181.38a1.87,1.87,0,0,0-2-2.85c-2.09.47-1.6,3.83.44,3.78A1.81,1.81,0,0,0,104,181.38Z" transform="translate(-0.02 -0.27)"/></g><path class="cls-1" d="M102.58,31.41a17.88,17.88,0,0,1,9.14-4,21,21,0,0,1,9.55,1.29,28.31,28.31,0,0,1,4.38,2.08,21.14,21.14,0,0,1,3.57,2.42,10.13,10.13,0,0,1,3.08,5.17c.81,3.4-.05,7.73-3.24,9.65s-8.25,0-9.37-3.62a5.88,5.88,0,0,1,1-5.36,4.61,4.61,0,0,1,2.15-1.49,3.28,3.28,0,0,1,1.07-.14,5.55,5.55,0,0,1,1.65.32,2,2,0,0,0,1.41-.1c.33-.18.34-.44,0-.57a7.91,7.91,0,0,0-6.94.75,6.16,6.16,0,0,0-2.58,4.84c-.17,5.22,5.92,7.51,10.29,6.79s7-4.81,6.84-9.13a10.76,10.76,0,0,0-2.24-6.16,12.24,12.24,0,0,0-2.86-2.56,34.44,34.44,0,0,0-4.73-2.68c-6.75-3.1-14.91-3.49-21.4.46a29,29,0,0,0-2.52,1.75c-.35.28.17.48.4.52a1.82,1.82,0,0,0,1.35-.24Z" transform="translate(-0.02 -0.27)"/><path class="cls-1" d="M126.14,53A19.06,19.06,0,0,1,117,57.44a20.19,20.19,0,0,1-9.57-.89,26.55,26.55,0,0,1-8.32-4.5A10,10,0,0,1,95.85,47c-.92-3.45-.09-7.86,3.11-9.88s8.24-.32,9.43,3.36a5.85,5.85,0,0,1-1,5.36,4.39,4.39,0,0,1-5,1.45,1.78,1.78,0,0,0-1.38.07c-.35.27.07.48.33.57a7.68,7.68,0,0,0,6.87-.71,6.21,6.21,0,0,0,2.49-4.9c0-5.24-6.25-7.56-10.67-6.73s-6.72,5.05-6.45,9.27A10.76,10.76,0,0,0,96,51a13.93,13.93,0,0,0,3.12,2.6,33.18,33.18,0,0,0,4.83,2.64,25.65,25.65,0,0,0,10.81,2.23,19.8,19.8,0,0,0,10.62-3.17,26.21,26.21,0,0,0,2.49-1.84c.59-.49-1.29-.84-1.7-.5Z" transform="translate(-0.02 -0.27)"/><path class="cls-2" d="M82.27,122.4c.41-1.86-4.29-5-5.83-6.05-1.73-1.21-4.11-3.3-6.09-2.74s-6,3.76-5.76,5.61c.46,3.73,3.55,6,6.37,8.14a29,29,0,0,0,4.86,3,8,8,0,0,0,2.91,1.18C81.05,131.5,82,127.82,82.27,122.4Z" transform="translate(-0.02 -0.27)"/><path class="cls-1" d="M82.76,122.53c.23-1.34-1.31-2.62-2.18-3.39a43,43,0,0,0-3.83-2.88c-1.67-1.18-3.39-2.73-5.52-3-1.62-.17-3.13.92-4.34,1.88-1,.84-2.71,2.2-2.78,3.68a5.92,5.92,0,0,0,.77,2.78,11,11,0,0,0,1.75,2.42,34.44,34.44,0,0,0,8.7,6.27,14.4,14.4,0,0,0,2.79,1.29c1.6.43,2.74-.47,3.39-1.88a19.92,19.92,0,0,0,1.25-7.22c0-.32-1-.5-1-.26a25.82,25.82,0,0,1-.79,5.94c-.31,1.09-.83,2.58-2,3-.83.28-1.67-.32-2.38-.7-1-.52-2-1-2.91-1.58a35.77,35.77,0,0,1-5.07-3.76,10.34,10.34,0,0,1-3.29-4.6,3,3,0,0,1-.09-2.12,5.78,5.78,0,0,1,1.27-1.75,11.85,11.85,0,0,1,3.73-2.7c1.86-.78,3.69.86,5.1,1.89s2.64,1.83,3.89,2.85a12.77,12.77,0,0,1,1.83,1.77,2.33,2.33,0,0,1,.72,1.77C81.74,122.56,82.71,122.79,82.76,122.53Z" transform="translate(-0.02 -0.27)"/><path class="cls-2" d="M64.36,118.75c-1.68-.82-2.63-5-2.89-6.33-.47-2.29-.8-5.09.09-7.33.32-.81.6-2.6,1.87-2.45a2.67,2.67,0,0,1,1.4.85c2,1.87,4.57,3.36,6.74,5.06a2.63,2.63,0,0,1,.61.59,6.44,6.44,0,0,1,.21,3.62c-.38,1.35-1.21,1.36-2.17,2.32a37.81,37.81,0,0,1-3.5,2.94,3.83,3.83,0,0,1-1.57.85A1.33,1.33,0,0,1,64.36,118.75Z" transform="translate(-0.02 -0.27)"/><path class="cls-1" d="M64.78,118.61A4.65,4.65,0,0,1,63,116.09a21.65,21.65,0,0,1-.9-3c-.61-2.66-1-5.48,0-8.1.16-.44.27-.89.46-1.32a2.61,2.61,0,0,1,.32-.56c.31-.38.62-.26,1,0,.6.43,1.12,1,1.7,1.46s1.32,1,2,1.5l1.88,1.31a11.63,11.63,0,0,1,2.15,1.66c.66.77.54,2.25.42,3.18a2.48,2.48,0,0,1-.8,1.67c-.57.49-1.18.89-1.74,1.42s-1.37,1.21-2.09,1.78-1.85,1.8-2.66,1.47c-.24-.1-1.17.14-.69.33,1.66.67,3.13-.79,4.32-1.73.81-.65,1.58-1.32,2.33-2,.5-.48,1.14-.8,1.62-1.3.88-.92.86-2.49.71-3.67a2.2,2.2,0,0,0-.77-1.58c-.7-.6-1.47-1.12-2.22-1.65a45.09,45.09,0,0,1-4.69-3.55c-.86-.79-2.25-1.48-3.25-.48a3.64,3.64,0,0,0-.77,1.5,19.43,19.43,0,0,0-.6,2,14.5,14.5,0,0,0,.16,5.49,25.91,25.91,0,0,0,1,3.78c.41,1.15,1,2.61,2.1,3.22a.92.92,0,0,0,.69,0C64.72,118.86,65,118.72,64.78,118.61Z" transform="translate(-0.02 -0.27)"/><path class="cls-2" d="M64,103.68c-2-2.52,1.69-8,3.39-9.66,1.92-1.84,4-2.74,6.27-4.07,1.47-.87,4.63-4.25,6.4-3.56,1.61.62,2.71,4.69,3.75,6.1,2.28,3.11,4.12,7.61,8.78,7a7.75,7.75,0,0,0,4.75-2.73,6.65,6.65,0,0,1,1.37-1.43,1.56,1.56,0,0,1,1.84,0,1.89,1.89,0,0,1,.51.93,7.8,7.8,0,0,1-1.38,6.43A15.49,15.49,0,0,1,94.46,107a9.67,9.67,0,0,1-4,1.42,22.21,22.21,0,0,1-3.88-.4c-4.59-.5-8.52,4.06-13.25,3.31-2.1-.33-3.09-2.36-4.5-3.64S65.23,105.25,64,103.68Z" transform="translate(-0.02 -0.27)"/><path class="cls-1" d="M64.44,103.63a3.94,3.94,0,0,1-.27-3.6,14.32,14.32,0,0,1,2-4,12.81,12.81,0,0,1,3-3.11c1.58-1.16,3.38-1.92,5-3,1.16-.75,2.15-1.75,3.3-2.53a4.92,4.92,0,0,1,1.8-.9c.56-.1,1,.44,1.27.85a23.14,23.14,0,0,1,2,3.87,27.21,27.21,0,0,0,2.14,3.39C86.23,97,88,99.38,91,99.7a7.59,7.59,0,0,0,4.69-1.09,8.69,8.69,0,0,0,2-1.66c.53-.59,1.71-2.45,2.56-1.41a4.49,4.49,0,0,1,.51,2.91,8,8,0,0,1-.82,2.91,11.9,11.9,0,0,1-4,4.37c-1.68,1.16-3.76,2.49-5.88,2.49-1.13,0-2.24-.31-3.37-.42a9,9,0,0,0-2.26.09c-3.35.58-6.16,3.06-9.58,3.29a3.93,3.93,0,0,1-2.55-.58,9,9,0,0,1-1.71-1.66,22.87,22.87,0,0,0-3.94-3.4,11.8,11.8,0,0,1-2.14-1.91c-.19-.23-1.12-.09-1,.09,1.29,1.56,3.1,2.5,4.62,3.8,1.29,1.09,2.15,2.7,3.68,3.52a7,7,0,0,0,4.83.28,32.79,32.79,0,0,0,5-2,9.61,9.61,0,0,1,5.46-1,16.31,16.31,0,0,0,3.34.33,8.55,8.55,0,0,0,3-.79c3.64-1.65,7.49-4.55,8.17-8.74.26-1.54.21-4.17-1.85-4.27a2.81,2.81,0,0,0-2.2,1A17.4,17.4,0,0,1,95.38,98,5.62,5.62,0,0,1,90,99a8.71,8.71,0,0,1-3.45-3.2c-.47-.66-.9-1.34-1.35-2S84.31,92.6,84,92c-.77-1.35-1.25-2.84-2-4.17a2.82,2.82,0,0,0-2.8-1.69,8.22,8.22,0,0,0-3.78,2.08c-.57.45-1.12.93-1.71,1.35a22.34,22.34,0,0,1-2.32,1.36,18.27,18.27,0,0,0-4.77,3.4,17,17,0,0,0-2.48,3.58,8.21,8.21,0,0,0-1.17,4.22,3,3,0,0,0,.6,1.61C63.66,104,64.6,103.83,64.44,103.63Z" transform="translate(-0.02 -0.27)"/><path class="cls-2" d="M88.68,99.8c-.05,2.53-1.14,6.5-3.76,7.52" transform="translate(-0.02 -0.27)"/><path class="cls-1" d="M88.19,99.74a12.35,12.35,0,0,1-.88,4.24,5.58,5.58,0,0,1-2.8,3.19c-.22.08,0,.25.14.29a1,1,0,0,0,.69,0,5.65,5.65,0,0,0,2.88-3.19,12,12,0,0,0,1-4.42c0-.3-1-.38-1-.12Z" transform="translate(-0.02 -0.27)"/><path class="cls-2" d="M70.92,107c.38-1.52,2.55-2.43,3.79-3.21,2.62-1.64,7.82-2.6,9.7-6" transform="translate(-0.02 -0.27)"/><path class="cls-1" d="M71.41,107.08c.43-1.47,2.12-2.19,3.33-2.9a29,29,0,0,1,3.41-1.66c2.52-1,5.34-2.18,6.75-4.67.11-.18-.81-.48-1-.2-1.47,2.59-4.56,3.65-7.15,4.74a32.58,32.58,0,0,0-3.38,1.73c-1.15.65-2.56,1.4-3,2.76-.08.25.89.49,1,.2Z" transform="translate(-0.02 -0.27)"/><path class="cls-2" d="M79.7,88.69A7.1,7.1,0,0,1,83.54,83a14.46,14.46,0,0,1,8.21-1.66c4.42.15,7,2.24,9.51,6.12.66,1,1.19,3.28.57,4.48-.76,1.48-2.06.39-3.33-.11-2.7-1.06-6-2.54-8.69-1.16a10,10,0,0,0-3.08,2.19c-.86,1-.72,2.8-1.47,3.61C84,97.88,81.7,94.85,81,93.76A8,8,0,0,1,79.7,88.69Z" transform="translate(-0.02 -0.27)"/><path class="cls-1" d="M80.18,88.85a7.09,7.09,0,0,1,2.82-5,12.34,12.34,0,0,1,6.34-2.2,13.58,13.58,0,0,1,6.14.67,10.55,10.55,0,0,1,4.16,3.45c1.18,1.52,2.33,3.38,1.93,5.41a1.8,1.8,0,0,1-.6,1.12c-.48.35-1,0-1.49-.22a31,31,0,0,0-2.93-1.19c-2-.72-4.2-1.38-6.27-.76a9.56,9.56,0,0,0-2.9,1.55A4.34,4.34,0,0,0,85.64,94c-.23.76-.32,2.24-1.21,2.56-.69.25-1.56-.88-1.94-1.32a8.74,8.74,0,0,1-2.31-6.37c0-.32-.93-.56-1-.33a8.88,8.88,0,0,0,2.06,6.22c.82,1,2.37,2.79,3.89,2.28.83-.28,1-1.29,1.22-2a7.14,7.14,0,0,1,.49-1.48A4.61,4.61,0,0,1,88.34,92,7.67,7.67,0,0,1,92,90.38a9.89,9.89,0,0,1,4.09.74c1.18.42,2.32.92,3.46,1.43.72.31,1.73.67,2.39,0a3.21,3.21,0,0,0,.55-2.76,6.61,6.61,0,0,0-1.08-2.73,14.41,14.41,0,0,0-4.23-4.39,11.55,11.55,0,0,0-5.73-1.62,16.14,16.14,0,0,0-8,1.49,7.44,7.44,0,0,0-4.28,5.94C79.2,88.84,80.15,89.08,80.18,88.85Z" transform="translate(-0.02 -0.27)"/><path class="cls-2" d="M93.16,154.23c-2.28,1.09-5.65,3.79-7.89,5.12-2.07,1.24-6.56,2.55-6.39,5.5A4.12,4.12,0,0,0,85,168.27c1.77-.9,7.45-5.32,8.93-6.19s3.28-1.65,3.12-3.4C96.83,156.35,95.85,154.7,93.16,154.23Z" transform="translate(-0.02 -0.27)"/><path class="cls-1" d="M92.74,154.1a40.29,40.29,0,0,0-5.33,3.43,31.81,31.81,0,0,1-4.49,2.67,10,10,0,0,0-4,2.76,3.67,3.67,0,0,0,.41,4.38,4.89,4.89,0,0,0,4.33,1.59,8.46,8.46,0,0,0,3.75-1.81c2.49-1.73,4.84-3.73,7.48-5.23a6.1,6.1,0,0,0,2.3-1.81,3.34,3.34,0,0,0,.11-2.65,4.64,4.64,0,0,0-4-3.38c-.42-.08-1,.24-.29.37a4,4,0,0,1,3.33,3,3.18,3.18,0,0,1-.1,2.46,5,5,0,0,1-1.89,1.55c-2.34,1.35-4.46,3-6.66,4.61a28.12,28.12,0,0,1-3,2A3.57,3.57,0,0,1,80,163a10.17,10.17,0,0,1,3.69-2.49,34.37,34.37,0,0,0,4.56-2.7,40.29,40.29,0,0,1,5.33-3.43c.21-.1-.07-.25-.16-.28A1,1,0,0,0,92.74,154.1Z" transform="translate(-0.02 -0.27)"/><path class="cls-2" d="M79.72,163.36c-3.38-1-7.24,8.22-3,9.56,2.19.69,3.81.67,4.58-.82s2.38-2.5,2.36-4.21C83.64,165.66,83.13,164.41,79.72,163.36Z" transform="translate(-0.02 -0.27)"/><path class="cls-1" d="M80,163.2c-1.76-.5-3.23.69-4.14,2.08a7.87,7.87,0,0,0-1.41,5.41,3,3,0,0,0,1.16,2,4.39,4.39,0,0,0,1.49.59,7.31,7.31,0,0,0,2.13.3,3.46,3.46,0,0,0,1.67-.4,3.23,3.23,0,0,0,1.1-1.3c.71-1.13,1.89-2,2.14-3.42a4.4,4.4,0,0,0-.62-3.21,6.57,6.57,0,0,0-3.52-2c-.17,0-.54-.1-.69,0s0,.24.17.29a6.17,6.17,0,0,1,2.94,1.58,3.63,3.63,0,0,1,.75,2.2,3.48,3.48,0,0,1-.19,1.63,6.45,6.45,0,0,1-1,1.51,11.63,11.63,0,0,0-1,1.41,2.45,2.45,0,0,1-1,1.11,2.65,2.65,0,0,1-1.6.12,5.49,5.49,0,0,1-1.65-.47A2.43,2.43,0,0,1,75.49,171a8,8,0,0,1,2.34-6.84c.42-.38,1.06-.84,1.63-.67.17,0,.54.09.69-.05S80.14,163.25,80,163.2Z" transform="translate(-0.02 -0.27)"/><path class="cls-2" d="M76.22,171a1.31,1.31,0,0,0-.68.16c-.85.5-.12,2.78.2,3.41,1.28,2.49,4.15,5.55,6.8,6.61,1.3.52,6.25,3,5.47-.42-.68-3-4.87-3.89-5.79-6.85a3.51,3.51,0,0,0-.6-1.46,2.36,2.36,0,0,0-1-.58,13.69,13.69,0,0,0-4-.86A2.17,2.17,0,0,0,76.22,171Z" transform="translate(-0.02 -0.27)"/><path class="cls-1" d="M75.92,170.74c-.57,0-1.07.21-1.22.8a3.8,3.8,0,0,0,.14,1.74,9.88,9.88,0,0,0,2,3.53,16.23,16.23,0,0,0,3.8,3.55,17.17,17.17,0,0,0,3,1.45,11.88,11.88,0,0,0,3,.89c.69.08,1.68.09,2-.68.41-1-.33-2.3-1-3a24.2,24.2,0,0,0-3-2.6A6.25,6.25,0,0,1,83,174.63c-.4-.76-.39-1.73-1-2.33a6.42,6.42,0,0,0-2.68-1.11,13.53,13.53,0,0,0-3.23-.45c-.64,0,.09.46.4.46a11,11,0,0,1,2.62.35c.95.24,2.11.46,2.48,1.48a8.85,8.85,0,0,0,.65,1.71,6.36,6.36,0,0,0,1,1.18c1.53,1.49,4,2.57,4.43,4.87.14.77-.07,1.47-1,1.48a6.19,6.19,0,0,1-2.3-.61,19,19,0,0,1-2.27-1,13.52,13.52,0,0,1-3.46-2.79,12.3,12.3,0,0,1-2.5-3.61c-.35-.89-1-3,.45-3.09.23,0,.17-.15.07-.27A1,1,0,0,0,75.92,170.74Z" transform="translate(-0.02 -0.27)"/><path class="cls-2" d="M77.13,132.47c-2.78,0-5.4.27-8.14.16-1.93-.08-7.49-.62-8.14,1.27-2.39,7,9.09,7.53,13.88,8.3,1,.16,3.13.79,4.07.33C81.08,141.41,79,135.54,77.13,132.47Z" transform="translate(-0.02 -0.27)"/><path class="cls-1" d="M77,132.26c-2.84,0-5.67.29-8.5.14a32,32,0,0,0-5.09,0,6.21,6.21,0,0,0-2.2.56,1.93,1.93,0,0,0-1,1.41,4.24,4.24,0,0,0,.65,3.7c1.78,2.31,5.28,3,8,3.49,1.53.27,3.07.47,4.6.68s3.43.87,5.11.65c1.94-.26,1.88-2.47,1.61-4a19.65,19.65,0,0,0-2.54-6.43c-.15-.26-1.1-.24-1,0a21.11,21.11,0,0,1,2.25,5.21c.34,1.22.91,3.42-.17,4.47-.64.62-1.78.3-2.55.14s-1.37-.28-2.07-.38c-1.33-.19-2.67-.34-4-.55-2.61-.41-5.8-.91-7.82-2.79A3.87,3.87,0,0,1,61,135.42a3.1,3.1,0,0,1,.59-1.86,3.21,3.21,0,0,1,1.79-.71,25.39,25.39,0,0,1,5.23,0c2.86.16,5.73-.13,8.59-.13C77.91,132.67,77.45,132.26,77,132.26Z" transform="translate(-0.02 -0.27)"/><path class="cls-2" d="M64,139.65c-.79-2.25-1.71-5.48-2.37-7.71-.38-1.29-.21-3.23-1-4.37s-2.78-1.74-4-2.45-2.51-1.67-4.15-1.79c-1.85-.13-1.55.69-1.1,2.17a32.92,32.92,0,0,0,4.29,9.06,16.4,16.4,0,0,0,2.24,2.7A9.23,9.23,0,0,0,64,139.65Z" transform="translate(-0.02 -0.27)"/><path class="cls-1" d="M64.54,139.58c-.56-1.6-1.06-3.23-1.54-4.86a27.4,27.4,0,0,1-1.12-4.63c-.17-1.45-.44-2.68-1.71-3.54a15.21,15.21,0,0,0-2-1,20.15,20.15,0,0,1-2-1.13,6.89,6.89,0,0,0-4.31-1.25,1.52,1.52,0,0,0-1.14.51,1.59,1.59,0,0,0,0,1.21,32.73,32.73,0,0,0,4.39,9.64,13.19,13.19,0,0,0,3.51,3.78,10,10,0,0,0,5.28,1.58c.44,0,.9-.41.22-.42A8.85,8.85,0,0,1,59.48,138a11.33,11.33,0,0,1-2.78-2.83,31.69,31.69,0,0,1-4.45-8.75c-.13-.4-1.1-2.53-.44-2.84a2.19,2.19,0,0,1,1,0A5.43,5.43,0,0,1,54,124a16.5,16.5,0,0,1,2,1.1c1.1.67,2.34,1.08,3.4,1.8,1.26.86,1.41,2.21,1.58,3.62A25.63,25.63,0,0,0,62,134.86c.48,1.62,1,3.25,1.53,4.85C63.65,140,64.62,139.81,64.54,139.58Z" transform="translate(-0.02 -0.27)"/><path class="cls-2" d="M51.59,123.69A71.53,71.53,0,0,1,49.36,110c-.08-.86-.81-3.73-.29-4.51.65-1,3.07-.82,4.15-.76,3.71.21,4.09,1.17,4.44,4.31.48,4.31,1.75,9.89,2.55,14.36.25,1.38,1.12,4.67-.16,4.31a28.14,28.14,0,0,1-3.37-1.84A21.64,21.64,0,0,0,51.59,123.69Z" transform="translate(-0.02 -0.27)"/><path class="cls-1" d="M52.07,123.76a49.27,49.27,0,0,1-1.56-7.62c-.3-2.25-.38-4.56-.77-6.8a22.77,22.77,0,0,1-.36-2.34c-.05-.75-.05-1.49.73-1.83a5.76,5.76,0,0,1,2.44-.28,15.14,15.14,0,0,1,2.43.22c1.32.28,1.79,1.23,2,2.48.36,2,.53,4,.89,6,.42,2.36.9,4.72,1.36,7.08.33,1.73.76,3.48,1,5.23a3.89,3.89,0,0,1,0,1.13.93.93,0,0,1-.15.39c-.06.1-.06.06,0,.06a3.61,3.61,0,0,1-1.09-.55l-1.26-.74a26.71,26.71,0,0,0-6.09-2.69c-.57-.17-.67.22-.11.39a27.51,27.51,0,0,1,6.14,2.81c.59.35,2.91,2,3.43.84a4,4,0,0,0,0-2.05c-.13-.85-.32-1.69-.48-2.54-.47-2.58-1-5.14-1.49-7.72-.44-2.36-.74-4.73-1.09-7.11a3.55,3.55,0,0,0-1.85-3,11.43,11.43,0,0,0-5-.65,4,4,0,0,0-2.28.57c-.58.44-.52,1.2-.47,1.86.08.94.29,1.85.43,2.78.22,1.49.3,3,.47,4.49a55.53,55.53,0,0,0,1.79,9.49C51.2,123.9,52.15,124,52.07,123.76Z" transform="translate(-0.02 -0.27)"/><path class="cls-2" d="M49.36,105.5c-.07-3.75,1.86-8.2,3.34-11.63.8-1.84,4.59-6.7,4.8-2.22.15,3.18-.65,6.21-.48,9.38a21.15,21.15,0,0,1-.16,4C56.57,107,56.22,106.14,49.36,105.5Z" transform="translate(-0.02 -0.27)"/><path class="cls-1" d="M49.85,105.58c0-3.54,1.36-7,2.72-10.19a16,16,0,0,1,1.65-3.15,6.29,6.29,0,0,1,2.19-2.13c.05,0,.2,0,.23-.09s-.12-.09-.1,0,.24.35.31.53A7.21,7.21,0,0,1,57,93c0,2-.38,4-.48,6s.11,3.73-.11,5.6c-.05.39-.05,1.14-.43,1.41s-1.29,0-1.75-.07c-1.66-.23-3.31-.44-5-.6-.13,0-.42,0-.38.19s.46.22.58.23c1.66.16,3.3.39,4.95.61a5.42,5.42,0,0,0,2.16.07c.49-.14.65-.53.74-1a30.19,30.19,0,0,0,.18-5.46c0-2.27.45-4.52.51-6.78,0-1,.25-3-1-3.43a2.41,2.41,0,0,0-2.51.81,11.32,11.32,0,0,0-2.11,2.8,38.59,38.59,0,0,0-2.27,5.54,19.42,19.42,0,0,0-1.29,6.55C48.87,105.73,49.86,105.83,49.85,105.58Z" transform="translate(-0.02 -0.27)"/><path class="cls-2" d="M87.49,149.17c-5.81,1.71-14.75,5.9-18.45,7.18-2.23.76-1.64.82-.76,3.93,1.21,4.32,4.88,2.08,7.59.85,3.69-1.68,9.53-3.88,13.23-5.48,1.53-.66,4.09-1.8,3.83-3.58C92.64,150.1,90.1,148.32,87.49,149.17Z" transform="translate(-0.02 -0.27)"/><path class="cls-1" d="M87.33,149a132.87,132.87,0,0,0-13.46,5.17c-1.71.72-3.42,1.44-5.18,2.06-.5.18-1.31.38-1.59.9s.05,1.17.2,1.64c.55,1.72.91,3.91,3,4.22,1.76.24,3.51-.64,5-1.37,4.52-2.14,9.25-3.79,13.84-5.77,1.59-.68,4.72-1.88,4.13-4.14-.66-2.55-3.77-3.39-6-2.71-.65.19-.11.47.31.34a3.82,3.82,0,0,1,3.53.73,3.11,3.11,0,0,1,1.28,2.41c-.11,1.82-2.84,2.7-4.23,3.29C84,157.55,79.74,159.1,75.6,161c-1.35.61-2.88,1.6-4.4,1.62-2,0-2.43-2.47-2.91-4-.13-.4-.46-1.09-.24-1.51s1.11-.59,1.55-.75c1.55-.55,3.07-1.2,4.59-1.83a135.38,135.38,0,0,1,13.45-5.21C88.29,149.15,87.75,148.87,87.33,149Z" transform="translate(-0.02 -0.27)"/><path class="cls-2" d="M68.67,156.84c1.74,1.12,3.14,4.31,1.77,5.74-1.68,1.76-4.47,2-6.5,3.07-2.57,1.39-4.73,3.56-7.33,4.9-1.15.59-1.4.94-2.28-.36a8.87,8.87,0,0,1-1-2.93c-.19-1.7.88-2.8,2.16-4.06A22.34,22.34,0,0,1,68.67,156.84Z" transform="translate(-0.02 -0.27)"/><path class="cls-1" d="M68.26,157a5.41,5.41,0,0,1,2.19,3.49,2.7,2.7,0,0,1-.25,1.79,4.5,4.5,0,0,1-1.89,1.44c-1.4.67-3,1-4.35,1.64a26.57,26.57,0,0,0-4.37,2.91c-.76.56-1.52,1.11-2.32,1.61-.36.22-.73.42-1.1.62l-.43.22c-.09,0-.31.12-.26.13-.28-.06-.57-.58-.71-.8a5.94,5.94,0,0,1-.46-1,7.7,7.7,0,0,1-.5-1.94c-.15-1.71,1.15-2.94,2.28-4a23.45,23.45,0,0,1,2.6-2.18,22.41,22.41,0,0,1,10-3.87c.57-.08.55-.48,0-.4a24.37,24.37,0,0,0-10.09,3.65,22.7,22.7,0,0,0-3.09,2.44c-1.13,1.06-2.52,2.28-2.66,3.93a5.74,5.74,0,0,0,.45,2.34,4.51,4.51,0,0,0,1.14,2c1,.89,2.62-.3,3.51-.83,1.82-1.1,3.42-2.51,5.2-3.66a12.37,12.37,0,0,1,2.56-1.31c.87-.32,1.75-.57,2.61-.91,1.46-.58,3.21-1.5,3.21-3.28a5.5,5.5,0,0,0-2.4-4.28C68.87,156.55,67.94,156.78,68.26,157Z" transform="translate(-0.02 -0.27)"/><path class="cls-2" d="M54.22,164.75c-1.51.48-3.61,4-4.28,5.67a13.69,13.69,0,0,0-.79,7.43c.3,1.86.87,8.15,3.65,4.6,1.6-2,1.3-5.71,2.09-8.09.49-1.49,1.89-2.65,2.37-4.12C57.89,168.31,56.73,166.92,54.22,164.75Z" transform="translate(-0.02 -0.27)"/><path class="cls-1" d="M53.84,164.51c-1.2.43-2.06,1.74-2.74,2.76a16,16,0,0,0-2.09,4.3,18.36,18.36,0,0,0,.19,9.25,4.48,4.48,0,0,0,1.2,2.53,1.71,1.71,0,0,0,2.36-.16c2.5-2.37,1.45-6.22,2.77-9.11.76-1.65,2.53-3,2.36-5s-2-3.27-3.29-4.38a.89.89,0,0,0-.67-.23c-.16,0-.27.11-.09.26,1.13,1,2.63,2.14,3,3.68s-.67,2.83-1.49,4a9.09,9.09,0,0,0-1.47,4.22,18.54,18.54,0,0,1-.9,4.43,4.87,4.87,0,0,1-1.17,1.73,2,2,0,0,1-.52.37l-.22.07c-.12,0,0,0,0,0-.64-.44-.86-1.67-1-2.37a18.93,18.93,0,0,1-.39-8.13,14.89,14.89,0,0,1,2-4.63c.67-1.1,1.61-2.71,2.9-3.17C54.94,164.86,54.1,164.42,53.84,164.51Z" transform="translate(-0.02 -0.27)"/><path class="cls-2" d="M59.3,151.22c-1.54-1.71-1.57-4.39-.17-6.83,2.89-.11,13.81-.56,16.57-.69,1.4-.06,7.16-1.6,8.37-.85.81.51,3.32,5.15,3.08,6.15-.38,1.52-11.06,1.76-12.3,1.88C71.26,151.22,69,151.56,59.3,151.22Z" transform="translate(-0.02 -0.27)"/><path class="cls-1" d="M59.74,151.25c-1.67-1.94-1.3-4.63-.13-6.72l-.18.1c4.36-.16,8.72-.35,13.09-.54a34.15,34.15,0,0,0,4.84-.35c1.16-.21,2.32-.45,3.48-.63.51-.07,1-.14,1.53-.19a3.56,3.56,0,0,1,1.38,0s.06,0,0,0,.08.07.12.1a2.44,2.44,0,0,1,.32.4,12.33,12.33,0,0,1,.85,1.32,17.76,17.76,0,0,1,1.43,3c.18.52.45,1.14-.1,1.49a5.79,5.79,0,0,1-2,.59c-3.43.65-6.93.57-10.38.9a110.58,110.58,0,0,1-14.9.29c-.64,0,.07.47.38.48a113.11,113.11,0,0,0,15.07-.29c1.64-.16,3.3-.19,5-.3a33,33,0,0,0,6.72-.88c.44-.13,1.24-.33,1.39-.85a1.92,1.92,0,0,0-.13-1,14.11,14.11,0,0,0-.66-1.62,17.67,17.67,0,0,0-1.8-3.09,2.5,2.5,0,0,0-2-1c-2.41-.12-4.79.69-7.15,1-.8.11-1.62.1-2.42.14l-3.71.15-8.3.34-1.55.06a3.41,3.41,0,0,0-1.11.06c-.29.13-.46.77-.58,1.05a7.21,7.21,0,0,0-.41,1.37,6,6,0,0,0,0,2.49,4.85,4.85,0,0,0,1.09,2.11.89.89,0,0,0,.63.27C59.6,151.46,59.9,151.43,59.74,151.25Z" transform="translate(-0.02 -0.27)"/><path class="cls-2" d="M59.47,151.05a38.59,38.59,0,0,1-11.82-6c-3.25-2.23-7.08-5.13-9.2-8.53-1.94-3.12,3.25-8.56,5.65-6.18,3.3,3.29,13.1,10.53,14.86,14.35C60,147,59.47,149.85,59.47,151.05Z" transform="translate(-0.02 -0.27)"/><path class="cls-1" d="M59.72,150.87c-5.06-1.45-9.53-4.27-13.74-7.37a31.86,31.86,0,0,1-5.9-5.4,5.88,5.88,0,0,1-1.51-2.59,4,4,0,0,1,.36-2.26A5.51,5.51,0,0,1,42.37,130c.7-.14,1.14.31,1.61.76s1.06,1,1.61,1.46c3,2.63,6.15,5.12,9,7.9a20.56,20.56,0,0,1,3.57,4.11c1.24,2.1.8,4.49.77,6.79,0,.28,1,.28,1,0,0-2.23.44-4.53-.65-6.61a16.84,16.84,0,0,0-3.23-3.91c-3-3-6.38-5.64-9.59-8.44-.61-.53-1.2-1.06-1.78-1.62a2.72,2.72,0,0,0-1.81-.86,5.07,5.07,0,0,0-4,2.1c-1,1.24-1.77,3.05-1.06,4.6a12.15,12.15,0,0,0,2.25,3,30.82,30.82,0,0,0,3,2.81,64.12,64.12,0,0,0,7.7,5.4,35.8,35.8,0,0,0,8.45,3.72C59.52,151.31,60.34,151.05,59.72,150.87Z" transform="translate(-0.02 -0.27)"/><path class="cls-2" d="M38.09,135.06c-2.68-.3-4.5-8.08-5-10.12-.89-4-1.57-10.2.31-14.11,1.58-3.31,2.47,3.09,3.12,4.82,1.35,3.57,3.26,6.63,4.79,10.15.56,1.28,2,2.57,2.24,3.92s-.63.53-1.4,1.67S40.22,134.43,38.09,135.06Z" transform="translate(-0.02 -0.27)"/><path class="cls-1" d="M38.32,134.86c-1.23-.17-2-2-2.49-2.93a29.48,29.48,0,0,1-1.63-4.74,36.3,36.3,0,0,1-1.44-10.82,17.41,17.41,0,0,1,.43-3.44,7.83,7.83,0,0,1,1-2.56s.26-.26.26-.3h0c.12-.07,0-.06-.38,0,0,0,.08,0,.09.06a6.19,6.19,0,0,0,.39.55,9.77,9.77,0,0,1,.68,2,35,35,0,0,0,1.39,4.43c1,2.43,2.33,4.73,3.47,7.11.32.67.59,1.36.93,2a16.29,16.29,0,0,0,1.08,1.62,5.67,5.67,0,0,1,1,1.76c0,.21.16.59,0,.79s-.3.15-.44.21c-.87.39-1.26,1.31-1.82,2a6.16,6.16,0,0,1-3,2.27c-.17.06-.28.15-.15.29s.54.05.69,0a6.38,6.38,0,0,0,2.83-1.82,12,12,0,0,0,.89-1.11c.32-.44.6-1.08,1.08-1.35.26-.15.6-.18.8-.41s.15-.82,0-1.18a17.63,17.63,0,0,0-1.93-3.15c-.74-1.28-1.27-2.7-1.94-4s-1.35-2.62-2-4a21.18,21.18,0,0,1-1.3-3.25c-.21-.75-.39-1.51-.59-2.27s-.55-2.82-1.68-3c-1.68-.24-2.19,2.39-2.44,3.54-.92,4.23-.26,8.77.76,12.92a33.63,33.63,0,0,0,1.86,5.73c.59,1.33,1.46,3.14,3.08,3.37C38.16,135.3,39,135,38.32,134.86Z" transform="translate(-0.02 -0.27)"/><path class="cls-2" d="M146.41,122.4c-.4-1.86,4.3-5,5.83-6.05,1.74-1.21,4.11-3.3,6.1-2.74s6,3.76,5.75,5.61c-.45,3.73-3.55,6-6.36,8.14a29.44,29.44,0,0,1-4.86,3,8.05,8.05,0,0,1-2.91,1.18C147.63,131.5,146.66,127.82,146.41,122.4Z" transform="translate(-0.02 -0.27)"/><path class="cls-1" d="M146.91,122.45c-.21-1.2,1.15-2.36,1.94-3.06a33.89,33.89,0,0,1,3.51-2.68c1.46-1,2.93-2.41,4.69-2.88,1.49-.4,3,.89,4.1,1.79s2.42,2,2.45,3.37c0,1.79-1.18,3.61-2.34,4.86a30,30,0,0,1-4.49,3.77,36.74,36.74,0,0,1-5.73,3.31c-.77.37-1.39.56-2-.05a4.66,4.66,0,0,1-1.08-1.83,22.66,22.66,0,0,1-1-6.6c0-.31-1-.36-1-.1a23.54,23.54,0,0,0,1,6.57,3.71,3.71,0,0,0,2.48,2.73,3.75,3.75,0,0,0,2.41-.39c1.05-.49,2.1-1.06,3.11-1.63a36.32,36.32,0,0,0,5.87-4.21,10.68,10.68,0,0,0,3.58-5,3,3,0,0,0,0-2.26,6.85,6.85,0,0,0-1.4-1.85,11.71,11.71,0,0,0-4.16-2.83c-2-.68-3.85.45-5.41,1.55s-3.13,2.17-4.61,3.36a14.1,14.1,0,0,0-2.13,2,2.51,2.51,0,0,0-.73,1.89C146,122.67,147,122.67,146.91,122.45Z" transform="translate(-0.02 -0.27)"/><path class="cls-2" d="M164.33,118.75c1.68-.82,2.63-5,2.89-6.33.47-2.29.8-5.09-.09-7.33-.33-.81-.6-2.6-1.87-2.45a2.74,2.74,0,0,0-1.41.85c-2,1.87-4.57,3.36-6.74,5.06a2.8,2.8,0,0,0-.6.59,6.36,6.36,0,0,0-.21,3.62c.38,1.35,1.2,1.36,2.17,2.32A36.53,36.53,0,0,0,162,118a3.83,3.83,0,0,0,1.57.85A1.34,1.34,0,0,0,164.33,118.75Z" transform="translate(-0.02 -0.27)"/><path class="cls-1" d="M164.78,118.93a5,5,0,0,0,1.9-2.74,21.9,21.9,0,0,0,1-3.39,18.94,18.94,0,0,0,.5-5,9.56,9.56,0,0,0-.54-2.59,16.69,16.69,0,0,0-.58-1.59,2,2,0,0,0-2.74-1,14.89,14.89,0,0,0-2.1,1.72c-.73.59-1.5,1.14-2.27,1.68s-1.61,1.12-2.4,1.7c-.6.44-1.39.88-1.65,1.62A5.79,5.79,0,0,0,156,113a3.67,3.67,0,0,0,1.45,1.5c.82.6,1.52,1.38,2.31,2a26.82,26.82,0,0,0,2.54,2,2.72,2.72,0,0,0,2.47.43c.34-.14-.53-.53-.78-.43-.85.34-1.86-.75-2.49-1.25s-1.38-1.09-2-1.69a17.33,17.33,0,0,0-1.53-1.31,2.49,2.49,0,0,1-1.14-1.48,5.76,5.76,0,0,1,.09-3.24c.24-.6.89-1,1.39-1.34.7-.52,1.41-1,2.13-1.51a37.87,37.87,0,0,0,3.78-2.9c.37-.33,1.14-1.22,1.64-.81a3.41,3.41,0,0,1,.68,1.48,12,12,0,0,1,.74,4.12,21.72,21.72,0,0,1-.54,4,20.19,20.19,0,0,1-.93,3.23,4.8,4.8,0,0,1-1.86,2.72C163.7,118.66,164.51,119.08,164.78,118.93Z" transform="translate(-0.02 -0.27)"/><path class="cls-2" d="M164.73,103.68c2-2.52-1.69-8-3.39-9.66-1.92-1.84-4-2.74-6.28-4.07-1.46-.87-4.62-4.25-6.39-3.56-1.61.62-2.71,4.69-3.75,6.1-2.29,3.11-4.13,7.61-8.78,7a7.75,7.75,0,0,1-4.75-2.73A6.9,6.9,0,0,0,130,95.32a1.58,1.58,0,0,0-1.85,0,1.88,1.88,0,0,0-.5.93,7.8,7.8,0,0,0,1.38,6.43,15.39,15.39,0,0,0,5.18,4.32,9.62,9.62,0,0,0,4,1.42,22,22,0,0,0,3.87-.4c4.59-.5,8.52,4.06,13.25,3.31,2.1-.33,3.1-2.36,4.51-3.64S163.46,105.25,164.73,103.68Z" transform="translate(-0.02 -0.27)"/><path class="cls-1" d="M165.21,103.68a4.1,4.1,0,0,0,.28-3.78,14.78,14.78,0,0,0-2.15-4.13,13.32,13.32,0,0,0-3.19-3.21c-1.63-1.16-3.53-1.9-5.15-3.08a43.17,43.17,0,0,0-3.62-2.71,3.25,3.25,0,0,0-3.42-.3c-1.17.78-1.75,2.39-2.3,3.61a20.25,20.25,0,0,1-1,2c-.36.62-.82,1.2-1.22,1.8-1.72,2.6-3.78,6.06-7.43,5.36a7,7,0,0,1-2.83-1.3,18.45,18.45,0,0,1-2.13-2.2c-1.15-1.2-3.37-1.38-3.9.5-1.21,4.26,2.05,8,5.38,10.15a12,12,0,0,0,5.67,2.24,18.94,18.94,0,0,0,3.44-.36,7.1,7.1,0,0,1,2.9.17c3.43.91,6.39,3.37,10.09,3.16a5.83,5.83,0,0,0,4.2-2.29,16.45,16.45,0,0,1,1.72-1.82c.81-.69,1.7-1.27,2.56-1.9a12,12,0,0,0,2.06-1.9c.14-.16-.77-.24-1,0-1.23,1.49-3,2.41-4.45,3.63-1.21,1-2,2.47-3.34,3.34-1.51,1-3.55.49-5.13-.09s-3.08-1.4-4.66-2a9.88,9.88,0,0,0-4.68-.73,22.86,22.86,0,0,1-3.4.4,7.71,7.71,0,0,1-3.17-1c-3.48-1.76-7.12-4.63-7.44-8.83a4.77,4.77,0,0,1,.46-2.84c.47-.71,1.31-.06,1.71.36s.63.77,1,1.13a8.06,8.06,0,0,0,4.41,2.55,6.72,6.72,0,0,0,4.26-.54,9,9,0,0,0,3-2.74c.89-1.18,1.63-2.45,2.49-3.65a23.87,23.87,0,0,0,1.83-3.6c.39-.82,1.18-2.82,2.35-2.52a10.86,10.86,0,0,1,3.66,2.38c2.6,2.11,6,3.14,8.24,5.7A17.11,17.11,0,0,1,163.64,98a8.21,8.21,0,0,1,1.18,4.05,2.83,2.83,0,0,1-.58,1.63C164.11,103.85,165,103.93,165.21,103.68Z" transform="translate(-0.02 -0.27)"/><path class="cls-2" d="M140,99.8c.06,2.53,1.15,6.5,3.76,7.52" transform="translate(-0.02 -0.27)"/><path class="cls-1" d="M139.51,99.76c.07,2.83,1.1,6.55,4,7.71.17.06.54.12.69,0s0-.23-.15-.29a5.38,5.38,0,0,1-2.66-3.14,12,12,0,0,1-.87-4.18c0-.3-1-.35-1-.09Z" transform="translate(-0.02 -0.27)"/><path class="cls-2" d="M157.77,107c-.39-1.52-2.56-2.43-3.79-3.21-2.62-1.64-7.83-2.6-9.71-6" transform="translate(-0.02 -0.27)"/><path class="cls-1" d="M158.27,106.92c-.4-1.36-1.81-2.11-3-2.76a29.45,29.45,0,0,0-3.45-1.76c-2.6-1.09-5.64-2.16-7.11-4.75-.14-.24-1.1-.06-.95.21,1.41,2.48,4.29,3.61,6.79,4.65a27.13,27.13,0,0,1,3.34,1.63c1.21.71,2.91,1.42,3.34,2.89.09.3,1.07.13,1-.11Z" transform="translate(-0.02 -0.27)"/><path class="cls-2" d="M149,88.69A7.06,7.06,0,0,0,145.15,83a14.51,14.51,0,0,0-8.22-1.66c-4.41.15-7,2.24-9.5,6.12-.66,1-1.19,3.28-.57,4.48.76,1.48,2,.39,3.33-.11,2.7-1.06,6-2.54,8.69-1.16A9.85,9.85,0,0,1,142,92.86c.87,1,.73,2.8,1.47,3.61,1.31,1.41,3.57-1.62,4.27-2.71A8,8,0,0,0,149,88.69Z" transform="translate(-0.02 -0.27)"/><path class="cls-1" d="M149.48,88.63a7.35,7.35,0,0,0-3.24-5.38,13.72,13.72,0,0,0-6.89-2.11,15.08,15.08,0,0,0-6.53.84,11.39,11.39,0,0,0-4.49,3.53c-1.3,1.62-2.57,3.59-2.19,5.78a1.69,1.69,0,0,0,1.66,1.6,7.83,7.83,0,0,0,2.75-1c2.42-1,5.35-2.37,7.91-1.12a7.88,7.88,0,0,1,3.22,2.41c.57.91.51,2.07,1,3,1,1.86,3.3.2,4.23-.84a9.11,9.11,0,0,0,2.54-6.76c0-.27-1-.18-1,.11a8.44,8.44,0,0,1-1.86,5.83,7.61,7.61,0,0,1-1.72,1.77c-.23.16-.48.35-.75.23s-.59-.7-.71-1.07a8.82,8.82,0,0,0-.92-2.61,7.69,7.69,0,0,0-2.49-2,7.05,7.05,0,0,0-3-1,9.94,9.94,0,0,0-3,.34,25.68,25.68,0,0,0-3.3,1.13c-.44.17-.89.34-1.32.54s-1,.62-1.43.52c-.93-.23-.88-1.9-.8-2.6a6.13,6.13,0,0,1,.95-2.63A14.14,14.14,0,0,1,131.93,83a9.85,9.85,0,0,1,5.44-1.51,14.48,14.48,0,0,1,7.45,1.66,7.14,7.14,0,0,1,3.67,5.55C148.52,89,149.51,88.92,149.48,88.63Z" transform="translate(-0.02 -0.27)"/><path class="cls-2" d="M135.52,154.23c2.29,1.09,5.66,3.79,7.89,5.12s6.57,2.55,6.4,5.5a4.12,4.12,0,0,1-6.12,3.42c-1.76-.9-7.44-5.32-8.93-6.19s-3.27-1.65-3.12-3.4C131.85,156.35,132.84,154.7,135.52,154.23Z" transform="translate(-0.02 -0.27)"/><path class="cls-1" d="M135.16,154.33c3.16,1.54,5.72,4.09,8.87,5.64,2.41,1.19,6.31,2.69,5,6.11a3.76,3.76,0,0,1-3.86,2.45,8.21,8.21,0,0,1-3.35-1.79c-2.21-1.54-4.3-3.29-6.6-4.69a14.74,14.74,0,0,1-2.25-1.43,2.52,2.52,0,0,1-.76-2.59,4.17,4.17,0,0,1,3.52-3.6c.64-.12-.15-.46-.46-.4a4.58,4.58,0,0,0-3.74,2.74,4.74,4.74,0,0,0-.36,2.51,3.22,3.22,0,0,0,1.5,1.88c1.16.8,2.39,1.45,3.54,2.28l4.13,3a19.13,19.13,0,0,0,3.37,2.13,5.06,5.06,0,0,0,4.84-.44,4,4,0,0,0,1.59-4.29c-.49-1.45-2-2.35-3.32-3-.8-.42-1.62-.79-2.43-1.2a24.53,24.53,0,0,1-2.57-1.61,46.2,46.2,0,0,0-6-3.86,1,1,0,0,0-.7-.08C135.05,154.13,134.94,154.23,135.16,154.33Z" transform="translate(-0.02 -0.27)"/><path class="cls-2" d="M149,163.36c3.38-1,7.23,8.22,3,9.56-2.19.69-3.82.67-4.59-.82s-2.37-2.5-2.35-4.21C145,165.66,145.56,164.41,149,163.36Z" transform="translate(-0.02 -0.27)"/><path class="cls-1" d="M149.36,163.57c1.23-.35,2.33,1.32,2.84,2.22a7.61,7.61,0,0,1,1.09,4.72,2.51,2.51,0,0,1-2,2.29,6.13,6.13,0,0,1-2,.32c-1.16-.05-1.49-1.17-2.11-2-.74-1-1.67-1.89-1.67-3.19a4.19,4.19,0,0,1,.68-2.61,6.16,6.16,0,0,1,3.18-1.78c.22-.07,0-.26-.11-.31a.9.9,0,0,0-.68-.1,6.72,6.72,0,0,0-3.25,1.78,4.14,4.14,0,0,0-.78,2.62c0,1.43.83,2.41,1.67,3.47.4.51.66,1.14,1.1,1.61a3,3,0,0,0,1.45.82,6.31,6.31,0,0,0,3.9-.46,2.67,2.67,0,0,0,1.47-1.71,7.23,7.23,0,0,0-1-5.41c-.89-1.56-2.58-3.29-4.57-2.72-.22.06,0,.26.11.31A.94.94,0,0,0,149.36,163.57Z" transform="translate(-0.02 -0.27)"/><path class="cls-2" d="M152.46,171a1.35,1.35,0,0,1,.69.16c.85.5.12,2.78-.21,3.41-1.27,2.49-4.14,5.55-6.79,6.61-1.3.52-6.25,3-5.47-.42.68-3,4.87-3.89,5.78-6.85a3.66,3.66,0,0,1,.61-1.46,2.33,2.33,0,0,1,1-.58,13.76,13.76,0,0,1,4.06-.86A2.08,2.08,0,0,1,152.46,171Z" transform="translate(-0.02 -0.27)"/><path class="cls-1" d="M152.45,171.17c1.14.07.41,2.3.18,2.9a11.25,11.25,0,0,1-2,3.12,15.23,15.23,0,0,1-3.46,3.1,16.3,16.3,0,0,1-2.42,1.16c-.86.35-3.63,1.76-3.63-.07,0-2.33,2.53-3.64,4.06-5a6.91,6.91,0,0,0,1.29-1.41,6.33,6.33,0,0,0,.69-1.68c.35-1.13,1.32-1.39,2.36-1.69a11.63,11.63,0,0,1,3.09-.47c.13,0,.42,0,.37-.23s-.48-.18-.61-.18a13.37,13.37,0,0,0-2.81.37,8.22,8.22,0,0,0-2.6.91c-.72.48-.76,1.31-1.06,2.06a4.87,4.87,0,0,1-1.13,1.64c-1,1-2.14,1.68-3.12,2.62a4.13,4.13,0,0,0-1.52,3.16c.22,2,3.48,1,4.59.54a22.38,22.38,0,0,0,2.67-1.15,14.46,14.46,0,0,0,3.93-3.25,11,11,0,0,0,2.5-4,3.71,3.71,0,0,0,.19-2c-.2-.67-.88-.81-1.5-.85-.11,0-.51,0-.51.16S152.34,171.16,152.45,171.17Z" transform="translate(-0.02 -0.27)"/><path class="cls-2" d="M151.56,132.47c2.77,0,5.39.27,8.14.16,1.92-.08,7.49-.62,8.14,1.27,2.39,7-9.09,7.53-13.88,8.3-1,.16-3.14.79-4.07.33C147.6,141.41,149.69,135.54,151.56,132.47Z" transform="translate(-0.02 -0.27)"/><path class="cls-1" d="M151.85,132.72c2.71,0,5.42.28,8.13.16,1.46-.06,2.92-.18,4.37-.11a7.31,7.31,0,0,1,2.23.34c.64.23.82.68,1,1.31a4,4,0,0,1-.64,3.43c-1.63,2.12-4.85,2.76-7.32,3.22-1.4.27-2.81.45-4.21.64s-2.9.58-4.36.71c-.44,0-.91.11-1.22-.26a2.07,2.07,0,0,1-.38-1,7,7,0,0,1,.2-2.72,20.19,20.19,0,0,1,2.41-5.84c.13-.21-.78-.61-.94-.34a20.07,20.07,0,0,0-2.39,5.76c-.32,1.35-.68,3.38.6,4.36,1.45,1.11,3.57.25,5.16,0,1.44-.23,2.89-.38,4.33-.6a31.63,31.63,0,0,0,4.82-1.06,9.57,9.57,0,0,0,3.74-2,4,4,0,0,0,1.26-3.39,3.15,3.15,0,0,0-.66-1.9,3.73,3.73,0,0,0-1.82-.9,19.31,19.31,0,0,0-5.83-.23c-3,.16-6-.11-9-.11-.23,0-.19.13-.1.26A1,1,0,0,0,151.85,132.72Z" transform="translate(-0.02 -0.27)"/><path class="cls-2" d="M164.65,139.65c.79-2.25,1.71-5.48,2.36-7.71.38-1.29.21-3.23,1-4.37s2.78-1.74,4-2.45,2.51-1.67,4.15-1.79c1.85-.13,1.55.69,1.09,2.17a32.6,32.6,0,0,1-4.28,9.06,16.92,16.92,0,0,1-2.24,2.7A9.23,9.23,0,0,1,164.65,139.65Z" transform="translate(-0.02 -0.27)"/><path class="cls-1" d="M165.13,139.79c.5-1.44,1-2.9,1.38-4.36a34.8,34.8,0,0,0,1.13-4c.21-1.25.1-2.82,1-3.86s2.23-1.43,3.36-2a16.88,16.88,0,0,1,3.75-1.88c.41-.1,1.3-.4,1.39.17a4,4,0,0,1-.35,1.51,34.08,34.08,0,0,1-4,8.7,14.15,14.15,0,0,1-3.13,3.59,8.93,8.93,0,0,1-5.14,1.76c-.64,0,.08.48.39.48a10,10,0,0,0,4.69-1.26,10.72,10.72,0,0,0,3.26-3,32.05,32.05,0,0,0,4.86-9.75c.24-.76.83-2-.1-2.49-1.14-.64-2.81-.17-3.9.35-.73.36-1.41.82-2.11,1.23s-1.39.68-2.08,1a4,4,0,0,0-2.48,3c-.16.82-.18,1.66-.35,2.48s-.48,1.71-.73,2.55c-.54,1.86-1.09,3.72-1.73,5.55C164.08,139.77,165,140.07,165.13,139.79Z" transform="translate(-0.02 -0.27)"/><path class="cls-2" d="M177.09,123.69c1.37-4.5,1.76-9.07,2.23-13.72.09-.86.82-3.73.3-4.51-.65-1-3.08-.82-4.15-.76-3.72.21-4.09,1.17-4.44,4.31-.48,4.31-1.76,9.89-2.55,14.36-.25,1.38-1.12,4.67.16,4.31a28.14,28.14,0,0,0,3.37-1.84A21.73,21.73,0,0,1,177.09,123.69Z" transform="translate(-0.02 -0.27)"/><path class="cls-1" d="M177.59,123.73a51,51,0,0,0,1.68-8.56c.29-2.31.47-4.62.84-6.91a6,6,0,0,0,.11-2.53c-.19-.66-.9-.94-1.51-1.09a9.78,9.78,0,0,0-2.7-.17,14.81,14.81,0,0,0-2.66.27,3,3,0,0,0-2.51,2.3,20.44,20.44,0,0,0-.4,2.7c-.16,1.23-.36,2.45-.57,3.67-.47,2.65-1,5.28-1.52,7.92-.19,1-.36,2-.56,2.94a11.65,11.65,0,0,0-.33,2.49c0,.67.27,1.12,1,1.15a4.7,4.7,0,0,0,2.21-.9c.86-.49,1.69-1,2.57-1.49a22.38,22.38,0,0,1,4.2-1.66c.21-.07.14-.18,0-.28a.92.92,0,0,0-.71,0,24,24,0,0,0-5.6,2.43c-.68.41-1.36.82-2.06,1.19-.05,0-.78.35-.78.36l.35,0,0,0s-.06-.09-.07-.13-.07-.29-.08-.45a19.66,19.66,0,0,1,.71-4.62c.44-2.31.91-4.6,1.35-6.91s.78-4.44,1-6.67c.14-1.15.27-2.6,1.35-3.26a5.09,5.09,0,0,1,2.13-.54,16.22,16.22,0,0,1,2.41-.07c.72,0,1.66.15,1.82,1a6.82,6.82,0,0,1-.14,2.25c-.84,5.2-1,10.46-2.54,15.55C176.53,123.88,177.5,124,177.59,123.73Z" transform="translate(-0.02 -0.27)"/><path class="cls-2" d="M179.33,105.5c.07-3.75-1.86-8.2-3.34-11.63-.8-1.84-4.59-6.7-4.8-2.22-.15,3.18.64,6.21.48,9.38a21.15,21.15,0,0,0,.16,4C172.12,107,172.47,106.14,179.33,105.5Z" transform="translate(-0.02 -0.27)"/><path class="cls-1" d="M179.81,105.63c0-4-1.68-7.84-3.23-11.43a11.32,11.32,0,0,0-1.86-2.89,4.34,4.34,0,0,0-2.54-1.72c-1.29-.15-1.45,1.17-1.48,2.17-.08,2.28.32,4.53.46,6.79.13,2.07-.12,4.14.16,6.21a1.83,1.83,0,0,0,.59,1.41,3.42,3.42,0,0,0,2.34.22c1.79-.23,3.58-.49,5.38-.66.23,0,.18-.15.07-.28a1,1,0,0,0-.68-.17c-1.5.14-3,.32-4.49.53-.43.07-.87.13-1.3.18-.22,0-.56,0-.71,0,0,0,.09,0,.08,0l-.09-.13a2.29,2.29,0,0,1-.17-.62,29.73,29.73,0,0,1-.17-5.08c0-1.9-.29-3.77-.43-5.66a17.12,17.12,0,0,1,0-3.12,1.91,1.91,0,0,1,.49-1.31c.23-.2.46,0,.71.25A7.28,7.28,0,0,1,174,91.48a10.63,10.63,0,0,1,1.61,2.58c1.54,3.55,3.27,7.37,3.22,11.32C178.84,105.7,179.81,105.86,179.81,105.63Z" transform="translate(-0.02 -0.27)"/><path class="cls-2" d="M141.2,149.17c5.81,1.71,14.75,5.9,18.45,7.18,2.22.76,1.63.82.76,3.93-1.21,4.32-4.89,2.08-7.59.85-3.7-1.68-9.54-3.88-13.24-5.48-1.52-.66-4.08-1.8-3.82-3.58C136.05,150.1,138.59,148.32,141.2,149.17Z" transform="translate(-0.02 -0.27)"/><path class="cls-1" d="M140.94,149.33a121.48,121.48,0,0,1,12,4.59c1.68.7,3.35,1.42,5.05,2.07.66.26,1.35.47,2,.75.47.2.73.41.65.95A19.55,19.55,0,0,1,160,160a4,4,0,0,1-1.4,2.38c-1.32.81-3.17-.26-4.38-.83-4-1.88-8.11-3.41-12.18-5.09-1-.41-2-.82-3-1.29a5.56,5.56,0,0,1-2.54-1.91,2.44,2.44,0,0,1,.68-2.83,3.74,3.74,0,0,1,3.78-1c.15,0,.56.12.68,0s0-.23-.16-.28c-2.08-.63-4.71-.07-5.83,2s.77,3.44,2.46,4.27c2.13,1.05,4.4,1.88,6.61,2.77,2.42,1,4.84,1.93,7.22,3a19.36,19.36,0,0,0,5.11,2,3.75,3.75,0,0,0,2.31-.33,3.57,3.57,0,0,0,1.52-2.15,19.63,19.63,0,0,0,.81-2.74,1,1,0,0,0-.58-1.08,15.75,15.75,0,0,0-2.1-.82c-.89-.33-1.77-.69-2.64-1.06A153.67,153.67,0,0,0,141.46,149c-.15-.05-.56-.13-.68,0S140.76,149.27,140.94,149.33Z" transform="translate(-0.02 -0.27)"/><path class="cls-2" d="M160,156.84c-1.74,1.12-3.14,4.31-1.76,5.74,1.68,1.76,4.47,2,6.5,3.07,2.57,1.39,4.73,3.56,7.32,4.9,1.15.59,1.41.94,2.29-.36a8.87,8.87,0,0,0,1-2.93c.19-1.7-.88-2.8-2.16-4.06A22.35,22.35,0,0,0,160,156.84Z" transform="translate(-0.02 -0.27)"/><path class="cls-1" d="M159.58,156.76a5.64,5.64,0,0,0-2.32,3.62,2.82,2.82,0,0,0,.26,2,4.59,4.59,0,0,0,1.82,1.47c1.57.82,3.35,1.1,4.91,1.92a49.52,49.52,0,0,1,5.12,3.53,26.09,26.09,0,0,0,2.58,1.57,2.48,2.48,0,0,0,1.64.42c1.34-.25,1.87-2.21,2.14-3.32.45-1.81-.37-3.12-1.61-4.37a25.33,25.33,0,0,0-3-2.61,23.55,23.55,0,0,0-10.89-4.29c-.17,0-.57-.06-.68.1s0,.24.19.26A23.29,23.29,0,0,1,169,160.3a21.71,21.71,0,0,1,2.91,2.22,9.09,9.09,0,0,1,2.8,3.34A5.39,5.39,0,0,1,174,170a2.56,2.56,0,0,1-.68.85s.24.05.09,0a.62.62,0,0,1-.19-.07l-.46-.24a24,24,0,0,1-2.33-1.41c-1.51-1-2.92-2.22-4.48-3.18a23,23,0,0,0-4.38-1.82c-1.45-.52-3.35-1.35-3.35-3.14a5.24,5.24,0,0,1,2.26-4.08c.19-.13-.09-.24-.19-.26A.94.94,0,0,0,159.58,156.76Z" transform="translate(-0.02 -0.27)"/><path class="cls-2" d="M174.47,164.75c1.51.48,3.6,4,4.28,5.67a13.69,13.69,0,0,1,.79,7.43c-.3,1.86-.87,8.15-3.66,4.6-1.59-2-1.29-5.71-2.08-8.09-.5-1.49-1.89-2.65-2.37-4.12C170.8,168.31,172,166.92,174.47,164.75Z" transform="translate(-0.02 -0.27)"/><path class="cls-1" d="M174.41,164.94a3.33,3.33,0,0,1,1.23,1.07,14.15,14.15,0,0,1,1.26,1.73,15.36,15.36,0,0,1,1.83,3.89,18,18,0,0,1-.06,8.56,7.06,7.06,0,0,1-.87,2.57c-.13.2-.43.54-.68.51s-.83-.81-1-1.11c-1.64-2.55-.77-5.92-2.21-8.54-.78-1.44-2.38-2.79-2.13-4.59s1.93-3,3.15-4.08c.21-.18-.66-.6-.88-.41-1.19,1-2.79,2.29-3.17,3.92s.78,3,1.64,4.27a10.8,10.8,0,0,1,1.46,5,9.9,9.9,0,0,0,1.43,4.63c.56.74,1.56,1.68,2.59,1.38.82-.24,1.16-1.34,1.36-2.06a24.77,24.77,0,0,0,.61-3.18,16,16,0,0,0,0-5.53,15.12,15.12,0,0,0-2.21-5.19c-.79-1.23-1.77-2.69-3.21-3.2C174,164.36,173.85,164.74,174.41,164.94Z" transform="translate(-0.02 -0.27)"/><path class="cls-2" d="M169.39,151.22c1.53-1.71,1.57-4.39.17-6.83-2.89-.11-13.81-.56-16.57-.69-1.4-.06-7.17-1.6-8.37-.85-.82.51-3.33,5.15-3.08,6.15.38,1.52,11.06,1.76,12.3,1.88C157.43,151.22,159.65,151.56,169.39,151.22Z" transform="translate(-0.02 -0.27)"/><path class="cls-1" d="M169.87,151.25a5.35,5.35,0,0,0,1-4.74,7.8,7.8,0,0,0-.36-1.13c-.12-.32-.32-1-.65-1.15a3.62,3.62,0,0,0-1.19-.08c-2.54-.09-5.07-.2-7.6-.3l-7.37-.32c-2.18-.09-4.3-.74-6.47-1a5.51,5.51,0,0,0-3,.16,5.35,5.35,0,0,0-1.64,2.14,15.39,15.39,0,0,0-1.52,3.33c-.18.63-.19,1.06.42,1.4a7.87,7.87,0,0,0,2.43.69c1.14.2,2.29.32,3.44.42,2,.18,4,.25,6,.38,1.57.09,3.13.31,4.7.39,2.69.16,5.4.13,8.1.06l3.19-.09c.58,0,.57-.42,0-.4a106.35,106.35,0,0,1-13.83-.18c-3.33-.33-6.68-.34-10-.79a14.15,14.15,0,0,1-2.59-.52c-.42-.13-.92-.28-.92-.78a6.8,6.8,0,0,1,1-2.73,15.89,15.89,0,0,1,1.57-2.63,1.27,1.27,0,0,1,.58-.5,3.45,3.45,0,0,1,1.24,0,32,32,0,0,1,3.51.54c.9.17,1.81.38,2.73.47.72.07,1.45.07,2.18.1,4.86.21,9.72.42,14.58.6l-.35-.12c1.17,2.1,1.49,4.79-.18,6.72C168.76,151.36,169.67,151.48,169.87,151.25Z" transform="translate(-0.02 -0.27)"/><path class="cls-2" d="M169.21,151.05a38.53,38.53,0,0,0,11.83-6c3.25-2.23,7.08-5.13,9.2-8.53,1.94-3.12-3.25-8.56-5.65-6.18-3.3,3.29-13.1,10.53-14.86,14.35C168.7,147,169.21,149.85,169.21,151.05Z" transform="translate(-0.02 -0.27)"/><path class="cls-1" d="M169.55,151.23c5.35-1.54,10.09-4.52,14.5-7.85a29,29,0,0,0,6-5.75,4.44,4.44,0,0,0,1.11-2.47,4.84,4.84,0,0,0-.64-2.37,6.12,6.12,0,0,0-3.69-3.09,3.17,3.17,0,0,0-2.06.12,7.11,7.11,0,0,0-1.63,1.38c-3.12,2.83-6.46,5.41-9.53,8.3a23.58,23.58,0,0,0-4,4.47c-1.35,2.17-.92,4.62-.89,7,0,.3,1,.36,1,.1,0-2.15-.45-4.4.57-6.42a14.67,14.67,0,0,1,2.8-3.53c2.83-2.88,6-5.41,9-8,.63-.54,1.26-1.08,1.87-1.64a8.28,8.28,0,0,1,1.51-1.33c1.36-.67,3,1,3.66,2a4,4,0,0,1,.44,4.52,24.49,24.49,0,0,1-5.31,5.54c-4.58,3.68-9.74,7-15.42,8.63C168.38,151,169.3,151.3,169.55,151.23Z" transform="translate(-0.02 -0.27)"/><path class="cls-2" d="M190.6,135.06c2.68-.3,4.5-8.08,5-10.12.88-4,1.56-10.2-.31-14.11-1.59-3.31-2.48,3.09-3.13,4.82-1.34,3.57-3.25,6.63-4.78,10.15-.56,1.28-2,2.57-2.24,3.92s.63.53,1.39,1.67S188.46,134.43,190.6,135.06Z" transform="translate(-0.02 -0.27)"/><path class="cls-1" d="M190.9,135.29c1.41-.2,2.24-1.73,2.8-2.88a28.42,28.42,0,0,0,1.8-5.16A33.67,33.67,0,0,0,196.8,115a13.38,13.38,0,0,0-.81-3.47,2.8,2.8,0,0,0-1.23-1.72c-1.29-.57-1.75.9-2,1.86-.5,1.57-.78,3.19-1.41,4.72-1.12,2.75-2.6,5.33-3.87,8a17.28,17.28,0,0,1-1,2.07c-.39.61-.85,1.17-1.23,1.79-.47.78-1.07,2,0,2.49a2.55,2.55,0,0,1,1.15,1.08,13.7,13.7,0,0,0,1.09,1.42,6.89,6.89,0,0,0,3.11,2c.56.18.66-.21.1-.38a5.69,5.69,0,0,1-2.69-2,8.94,8.94,0,0,0-1.62-2c-.2-.13-.68-.23-.78-.43-.2-.41.21-1.19.4-1.53.54-1,1.37-1.86,1.86-2.92,1.12-2.42,2.37-4.78,3.52-7.19a28.09,28.09,0,0,0,1.87-5.15,20.85,20.85,0,0,1,.59-2,7.22,7.22,0,0,1,.33-.81c.11-.2.31-.36.41-.55,0,0,.08-.06.08-.05s-.28-.13-.29,0,.2.24.22.27a5.78,5.78,0,0,1,.6,1.34,13.83,13.83,0,0,1,.68,3.06,32.52,32.52,0,0,1-1.08,11.44,35.37,35.37,0,0,1-1.67,5.2c-.49,1.14-1.34,3.24-2.79,3.44C189.78,134.9,190.65,135.32,190.9,135.29Z" transform="translate(-0.02 -0.27)"/><path class="cls-2" d="M130.75,156.84c-6.11-1.2-12.06-1.54-16.41-.43-4.34-1.11-10.29-.77-16.4.43-.81.16-.17,4.35,0,4.92a4.28,4.28,0,0,0,2.56,3.13,21.53,21.53,0,0,0,8.3,2c.3.09,10.87.09,11.17,0a21.57,21.57,0,0,0,8.3-2,4.28,4.28,0,0,0,2.56-3.13C130.91,161.19,131.56,157,130.75,156.84Z" transform="translate(-0.02 -0.27)"/><path class="cls-1" d="M130.78,156.65c-5.41-1.06-11.33-1.79-16.76-.44l.49,0a29.51,29.51,0,0,0-8.94-.64c-1.77.1-3.53.3-5.28.57a17.07,17.07,0,0,0-2.68.47.64.64,0,0,0-.44.45,6.3,6.3,0,0,0,0,2.63,17,17,0,0,0,.28,2c.59,2.77,3.55,3.84,6,4.52,3.66,1,7.2,1,11,1s7.45.09,11.08-.93a12,12,0,0,0,4.36-2,4.37,4.37,0,0,0,1.52-2.79,19.15,19.15,0,0,0,.3-2.92c0-.7.08-1.67-.73-1.92-.41-.12-1,.14-.32.34-.26-.08-.09,0,0,.21a3.19,3.19,0,0,1,.08.61,10.74,10.74,0,0,1,0,1.5,20.7,20.7,0,0,1-.31,2.35,4.38,4.38,0,0,1-2.48,3,17.9,17.9,0,0,1-5.15,1.64,26.71,26.71,0,0,1-5,.41c-1.94,0-3.89,0-5.84,0l-2.33,0c-.2,0-.41,0-.61,0s-.28,0-.06,0-.12,0-.15,0c-.3,0-.59-.05-.89-.08a21.25,21.25,0,0,1-5.4-1.16c-1.33-.5-2.82-1.13-3.54-2.44a7.33,7.33,0,0,1-.66-2.65,9.67,9.67,0,0,1-.08-2.89c.12-.6.44-.52,1-.62,1-.19,2.1-.36,3.15-.5a48.84,48.84,0,0,1,5.53-.43,26.1,26.1,0,0,1,5.44.42,9.83,9.83,0,0,0,1.2.25,5.41,5.41,0,0,0,1.12-.22,22.39,22.39,0,0,1,2.59-.35,46.59,46.59,0,0,1,12.57,1C131.3,157.15,131.36,156.76,130.78,156.65Z" transform="translate(-0.02 -0.27)"/><path class="cls-2" d="M151.71,127a33,33,0,0,0-14.49-14.7c-1.35-.67-2.92-1.37-4.58-2,.06-1.36-1.95-4.09-4.13-2.72a11.69,11.69,0,0,0-1.09.75c-2.1-.73-4.16-1.36-6-1.79-2.24-.56-12-.56-14.26,0-1.78.43-3.84,1.06-5.95,1.79a10.5,10.5,0,0,0-1.09-.75c-2.18-1.37-4.18,1.36-4.12,2.72-1.66.68-3.23,1.38-4.59,2A33,33,0,0,0,77,127c-1.8,3.44-1.12,6.83,0,10.29,2.88,9.26,19,21.78,21.9,24,1.64,1.22,6.83,2.33,11.8,2.72.71.08,1.51.12,2.37.13a29.65,29.65,0,0,0,4.56-.17c5.15-.41,10.68-1.49,12.27-2.68,2.95-2.2,19-14.72,21.91-24C152.83,133.78,153.51,130.39,151.71,127Z" transform="translate(-0.02 -0.27)"/><path class="cls-1" d="M152.18,126.86a35.48,35.48,0,0,0-8.84-11.08,30.91,30.91,0,0,0-5.88-3.76c-1.23-.6-2.47-1.15-3.73-1.68-.37-.16-.52-.15-.61-.5-.05-.15-.07-.3-.12-.45a4,4,0,0,0-.57-1.08,3.34,3.34,0,0,0-2.32-1.4,4.53,4.53,0,0,0-3.13,1.26l.78-.11a40.91,40.91,0,0,0-6.49-1.91,31.05,31.05,0,0,0-4-.29,57.6,57.6,0,0,0-9.38.25,36.4,36.4,0,0,0-6.92,2h.69c-1.27-1-2.66-1.62-4.19-.8a3.65,3.65,0,0,0-2,3l.23-.2a46.07,46.07,0,0,0-8.15,4.1,31.88,31.88,0,0,0-6.23,5.54,37.86,37.86,0,0,0-4.77,7c-1.58,3-1.45,6.11-.58,9.28,1.17,4.28,3.75,7.84,6.64,11.14a95.76,95.76,0,0,0,9.82,9.5q2,1.69,4,3.3a14.25,14.25,0,0,0,2.83,2,28.2,28.2,0,0,0,7.84,1.91,42.37,42.37,0,0,0,9.61.4,66.62,66.62,0,0,0,9.33-1.37,12,12,0,0,0,4.62-1.9c2.68-2,5.28-4.21,7.79-6.47a77.48,77.48,0,0,0,9.58-10,28.64,28.64,0,0,0,3.38-5.34,18.59,18.59,0,0,0,1.81-7.71,10.17,10.17,0,0,0-1.14-4.53c-.12-.25-1.09-.09-1,.19,1.56,3.06,1.18,6.34.24,9.52a20.55,20.55,0,0,1-2.52,5.34,57.72,57.72,0,0,1-8.8,10.13c-2.77,2.64-5.68,5.14-8.68,7.52a16.09,16.09,0,0,1-2.6,1.91,14.56,14.56,0,0,1-3.22,1c-1.47.34-3,.6-4.46.81a47.87,47.87,0,0,1-9.42.51,46.42,46.42,0,0,1-9.16-1.4,12.4,12.4,0,0,1-3-1.12,11.3,11.3,0,0,1-1.13-.83c-1.12-.85-2.21-1.73-3.29-2.62a111,111,0,0,1-9.32-8.55,40,40,0,0,1-7.67-10.19,18.32,18.32,0,0,1-1.83-7.61c0-3.1,1.64-5.76,3.31-8.26a31.78,31.78,0,0,1,12.16-10.88c1.47-.73,3-1.39,4.49-2,.08,0,.23-.08.23-.2a3.24,3.24,0,0,1,2-2.78c.8-.25,1.54.46,2.15.87s1.56-.1,2.26-.33a35.87,35.87,0,0,1,4.76-1.36,22.43,22.43,0,0,1,2.6-.24c2.44-.12,4.9-.12,7.34,0,1,0,1.93.08,2.88.21a25.86,25.86,0,0,1,4,1.07l1.6.52a3.43,3.43,0,0,0,1.29.34c.88-.08,1.38-1.21,2.34-1.11a3.19,3.19,0,0,1,2.36,2.93.13.13,0,0,0,.07.09,41.22,41.22,0,0,1,9.25,4.91,32.62,32.62,0,0,1,6.84,7,39.5,39.5,0,0,1,2.93,4.76C151.36,127.29,152.33,127.13,152.18,126.86Z" transform="translate(-0.02 -0.27)"/><path class="cls-2" d="M91.84,145.55a35.08,35.08,0,0,1,11.53-9.43,30.43,30.43,0,0,1,13.51-2.53c7.39.08,16.25,6.34,20.13,13.29" transform="translate(-0.02 -0.27)"/><path class="cls-1" d="M92.29,145.72a37.26,37.26,0,0,1,8-7.4,25.57,25.57,0,0,1,10.43-4.09,24.56,24.56,0,0,1,10.21.17,25.14,25.14,0,0,1,8.45,4.38,27.06,27.06,0,0,1,7.15,8c.15.27,1.08.34,1,.14a28.41,28.41,0,0,0-15.06-12.5,23.71,23.71,0,0,0-9.91-.95,27.21,27.21,0,0,0-11.11,3.22,35.88,35.88,0,0,0-10,8.66c-.19.24.73.56.91.34Z" transform="translate(-0.02 -0.27)"/><path class="cls-2" d="M86.62,128.59c3.62-4.48,8.87-9.12,14.19-11.61s10.82-3.17,16.63-3.11c9.11.09,20,7.8,24.79,16.35" transform="translate(-0.02 -0.27)"/><path class="cls-1" d="M87.07,128.77A45.92,45.92,0,0,1,97,119.61a31.4,31.4,0,0,1,12.92-5c4.08-.62,8.49-.89,12.51.22a30.8,30.8,0,0,1,10.47,5.4,33.28,33.28,0,0,1,8.86,9.93c.15.26,1.06.35.95.16a33.58,33.58,0,0,0-7.84-9.2,34.57,34.57,0,0,0-10.66-6.16,23.82,23.82,0,0,0-5.47-1.23,38.39,38.39,0,0,0-6.78.1,33.17,33.17,0,0,0-13.64,4.06A43.88,43.88,0,0,0,86.17,128.4c-.19.24.73.59.9.37Z" transform="translate(-0.02 -0.27)"/></g></g></svg>