<svg xmlns="http://www.w3.org/2000/svg" xmlns:xlink="http://www.w3.org/1999/xlink" viewBox="0 0 228.69 228.09"><defs><style>.cls-1{fill:none;}.cls-2{fill:#f79521;}.cls-3{fill:#922160;}.cls-4{opacity:0.7;}.cls-5{opacity:0.5;}.cls-6{clip-path:url(#clip-path);}.cls-7{clip-path:url(#clip-path-2);}.cls-8{fill:#731745;}</style><clipPath id="clip-path" transform="translate(0 -0.3)"><path id="SVGID" class="cls-1" d="M44.71,53.14c2.74-6.27,5.29-7.48,9.68-7.79a20.87,20.87,0,0,1,6-.22h.37l.07.06c7,.9,10,6.18,12.17,9.45C76.41,59.91,96,97,101.15,110c-6,3.73-14.49,6.7-21.29,8.57-3,.84-6.06,2.38-7.83-.39-1.34-2.09-1-6-1.45-8.39-.74-4.08-7.26-26.32-13.8-40.45a35,35,0,0,0-3.68,5.3c-2,3.7-8.23,20.2-9.5,24.39-.71,2.34-5.14,11.58-6.54,8.75C35.85,105.32,40.43,62.94,44.71,53.14Z"/></clipPath><clipPath id="clip-path-2" transform="translate(0 -0.3)"><path id="SVGID-2" data-name="SVGID" class="cls-1" d="M184,53.14c-2.74-6.27-5.29-7.48-9.68-7.79a20.93,20.93,0,0,0-6-.22H168l-.07.06c-7,.9-10,6.18-12.18,9.45-3.42,5.27-23,42.37-28.17,55.35,6,3.73,14.5,6.7,21.3,8.57,3,.84,6.06,2.38,7.83-.39,1.34-2.09,1-6,1.44-8.39.74-4.08,7.27-26.32,13.81-40.45a35,35,0,0,1,3.68,5.3c2,3.7,8.23,20.2,9.5,24.39.71,2.34,5.14,11.58,6.53,8.75C192.84,105.32,188.25,62.94,184,53.14Z"/></clipPath></defs><g id="Layer_2" data-name="Layer 2"><g id="BG"><path class="cls-2" d="M227.69,114.37A113.81,113.81,0,0,1,153.46,221a112.95,112.95,0,0,1-101.66-12A113.87,113.87,0,0,1,4.17,87.53,113.16,113.16,0,0,1,17.24,55.71a113.95,113.95,0,0,1,50.11-44.8,112.51,112.51,0,0,1,33.82-9.45A113.52,113.52,0,0,1,226.37,97a116,116,0,0,1,1.32,17.36c0,.27,1,.24,1-.05A114,114,0,0,0,118.63.37,115.89,115.89,0,0,0,83.28,4.56a114,114,0,0,0,17.93,223.09,115.93,115.93,0,0,0,36-1.54A114,114,0,0,0,227.32,132a116,116,0,0,0,1.37-17.66C228.69,114,227.69,114.08,227.69,114.37Z" transform="translate(0 -0.3)"/><circle class="cls-3" cx="114.34" cy="114.04" r="103.62"/><g class="cls-4"><path class="cls-2" d="M55.71,159.79a21.1,21.1,0,0,1-3.2-1.93h0c.07,1.16.49,3.33.49,3.33a11.9,11.9,0,0,0-2.15,2.36,25,25,0,0,0,2.87.52,22.16,22.16,0,0,0,1.36,2.74,21.77,21.77,0,0,0,1.18-2.9c1.13,0,2.62.08,3.77,0-.58-.53-2.57-2.21-2.57-2.21a17.48,17.48,0,0,0,.81-3Z" transform="translate(0 -0.3)"/><path class="cls-2" d="M36.38,172a18.87,18.87,0,0,1-1.31,3.5h0c1.12-.28,3.18-1.08,3.18-1.08A12.21,12.21,0,0,0,41,176.12a23.1,23.1,0,0,0,0-2.92,20.7,20.7,0,0,0,2.44-1.85,21.8,21.8,0,0,0-3.06-.61c-.17-1.12-.4-2.6-.67-3.72C39.25,167.69,38,170,38,170a17.88,17.88,0,0,0-3.05-.26Z" transform="translate(0 -0.3)"/><path class="cls-2" d="M189,168.36a19.38,19.38,0,0,0-1,3.61h0c-.75-.89-1.95-2.74-1.95-2.74a12.17,12.17,0,0,1-3.19-.23,26,26,0,0,1,1.72-2.36,21.51,21.51,0,0,1-.91-2.92,21,21,0,0,1,2.85,1.29c.79-.81,1.84-1.88,2.72-2.63-.05.79-.33,3.38-.33,3.38a17.63,17.63,0,0,1,2.62,1.58Z" transform="translate(0 -0.3)"/><path class="cls-2" d="M160.77,167.51a19.56,19.56,0,0,0-3.72.32h0c.57-1,1.9-2.77,1.9-2.77a12.41,12.41,0,0,1-.89-3.07,23.83,23.83,0,0,1,2.82.8,21.08,21.08,0,0,1,2.43-1.86,22.91,22.91,0,0,1-.23,3.12c1,.46,2.39,1.09,3.39,1.65-.76.22-3.28.85-3.28.85a18.35,18.35,0,0,1-.58,3Z" transform="translate(0 -0.3)"/><path class="cls-2" d="M114.34,83.72a20.14,20.14,0,0,1,1.9,3.21h0c.48-1.05,1.15-3.16,1.15-3.16a12.1,12.1,0,0,0,3-1,22.1,22.1,0,0,0-2.28-1.83,19.59,19.59,0,0,0,.1-3.06,22.12,22.12,0,0,0-2.4,2c-1-.57-2.28-1.32-3.31-1.81.26.75,1.2,3.17,1.2,3.17a17.66,17.66,0,0,0-2.11,2.21Z" transform="translate(0 -0.3)"/><path class="cls-2" d="M75,40.39a20.16,20.16,0,0,1,3.2,1.93h0c-.07-1.16-.48-3.33-.48-3.33a12.22,12.22,0,0,0,2.15-2.36A25.1,25.1,0,0,0,77,36.11a20.79,20.79,0,0,0-1.36-2.74,22.54,22.54,0,0,0-1.17,2.9c-1.13,0-2.62-.08-3.77,0,.58.53,2.56,2.21,2.56,2.21a18.57,18.57,0,0,0-.8,3Z" transform="translate(0 -0.3)"/><path class="cls-2" d="M89.8,33.79a18.87,18.87,0,0,1,1.31-3.5h0c-1.12.28-3.18,1.08-3.18,1.08a12.21,12.21,0,0,0-2.72-1.68,25.16,25.16,0,0,0,0,2.92,20.7,20.7,0,0,0-2.44,1.85,21.8,21.8,0,0,0,3.06.61c.17,1.12.4,2.6.67,3.72.42-.67,1.71-2.93,1.71-2.93a17.88,17.88,0,0,0,3,.26Z" transform="translate(0 -0.3)"/><path class="cls-2" d="M146.64,36a20.08,20.08,0,0,0,1-3.6h0c.75.88,2,2.74,2,2.74a12,12,0,0,1,3.18.22A24.23,24.23,0,0,1,151,37.67a22.5,22.5,0,0,1,.91,2.92,21.52,21.52,0,0,1-2.85-1.28c-.79.81-1.84,1.87-2.71,2.62.05-.79.32-3.37.32-3.37A18.53,18.53,0,0,1,144.08,37Z" transform="translate(0 -0.3)"/><path class="cls-2" d="M208,107.6a19.8,19.8,0,0,0,.1,3.74h0c-1-.63-2.66-2.06-2.66-2.06a12.21,12.21,0,0,1-3.11.7,24.09,24.09,0,0,1,1-2.76,21.13,21.13,0,0,1-1.7-2.54,22.51,22.51,0,0,1,3.09.41c.52-1,1.23-2.32,1.85-3.29.18.77.66,3.33.66,3.33a19.13,19.13,0,0,1,3,.75Z" transform="translate(0 -0.3)"/><path class="cls-2" d="M159.11,179.62a20.61,20.61,0,0,1-2.41,2.85h0c1.15.12,3.36.05,3.36.05a11.84,11.84,0,0,0,2,2.49,23.57,23.57,0,0,0,1-2.75,20.87,20.87,0,0,0,2.92-.92,21.62,21.62,0,0,0-2.68-1.61c.22-1.11.49-2.58.62-3.72-.62.49-2.59,2.19-2.59,2.19a17,17,0,0,0-2.79-1.27Z" transform="translate(0 -0.3)"/><path class="cls-2" d="M23.42,115.94a19,19,0,0,1-.72,3.67h0c1.06-.46,3-1.59,3-1.59a12.37,12.37,0,0,0,3,1.21,23.47,23.47,0,0,0-.5-2.88c0-.19,1.67-1.4,2.11-2.22a21.8,21.8,0,0,0-3.12-.11c-.35-1.07-.82-2.49-1.27-3.56-.3.74-1.2,3.18-1.2,3.18a17.24,17.24,0,0,0-3.05.25Z" transform="translate(0 -0.3)"/><path class="cls-2" d="M62.29,176.79a21,21,0,0,1,3.21,1.91h0c-.08-1.15-.5-3.32-.5-3.32A12.45,12.45,0,0,0,67.14,173a23.19,23.19,0,0,0-2.89-.51,21.2,21.2,0,0,0-1.37-2.73,20.33,20.33,0,0,0-1.15,2.9c-1.14,0-2.63-.06-3.78,0,.59.54,2.58,2.2,2.58,2.2a17.93,17.93,0,0,0-.79,3Z" transform="translate(0 -0.3)"/></g><g class="cls-5"><path class="cls-2" d="M57.53,102.43a1.69,1.69,0,0,0,.22,3.14c1.84.61,3-2.22,1.42-3.13A1.63,1.63,0,0,0,57.53,102.43Z" transform="translate(0 -0.3)"/><path class="cls-2" d="M200.54,76.31a1.68,1.68,0,0,0-1.81-2.57c-1.89.42-1.45,3.45.39,3.41A1.64,1.64,0,0,0,200.54,76.31Z" transform="translate(0 -0.3)"/><path class="cls-2" d="M175.36,107.1a1.68,1.68,0,0,0-.23-3.13c-1.84-.62-3,2.21-1.41,3.12A1.6,1.6,0,0,0,175.36,107.1Z" transform="translate(0 -0.3)"/><path class="cls-2" d="M167.53,149.32a1.69,1.69,0,0,0,1.82,2.57c1.89-.42,1.44-3.45-.4-3.41A1.64,1.64,0,0,0,167.53,149.32Z" transform="translate(0 -0.3)"/><path class="cls-2" d="M110,95.48a1.69,1.69,0,0,0-.22-3.14c-1.84-.61-3,2.22-1.42,3.13A1.63,1.63,0,0,0,110,95.48Z" transform="translate(0 -0.3)"/><path class="cls-2" d="M25.12,90.16a1.68,1.68,0,0,0,1.81,2.57c1.89-.42,1.44-3.46-.4-3.41A1.63,1.63,0,0,0,25.12,90.16Z" transform="translate(0 -0.3)"/><path class="cls-2" d="M41.16,149.19a1.69,1.69,0,0,0,.23,3.14c1.84.62,3-2.21,1.42-3.12A1.65,1.65,0,0,0,41.16,149.19Z" transform="translate(0 -0.3)"/><path class="cls-2" d="M30.36,78.94a1.69,1.69,0,0,0-1.82-2.57c-1.89.42-1.44,3.45.4,3.41A1.64,1.64,0,0,0,30.36,78.94Z" transform="translate(0 -0.3)"/><path class="cls-2" d="M153.38,193.66a1.69,1.69,0,0,0,.23,3.14c1.84.62,3-2.21,1.42-3.12A1.65,1.65,0,0,0,153.38,193.66Z" transform="translate(0 -0.3)"/><path class="cls-2" d="M82.36,57.61A1.69,1.69,0,0,0,80.54,55c-1.89.43-1.44,3.46.4,3.41A1.61,1.61,0,0,0,82.36,57.61Z" transform="translate(0 -0.3)"/><path class="cls-2" d="M143.85,59a1.68,1.68,0,0,0-.23-3.14c-1.83-.61-3,2.22-1.41,3.13A1.63,1.63,0,0,0,143.85,59Z" transform="translate(0 -0.3)"/><path class="cls-2" d="M75.75,193a1.69,1.69,0,0,0,1.81,2.58c1.89-.43,1.45-3.46-.39-3.41A1.61,1.61,0,0,0,75.75,193Z" transform="translate(0 -0.3)"/><path class="cls-2" d="M199.39,82.49a1.68,1.68,0,0,0,.23,3.14c1.83.62,3-2.21,1.41-3.12A1.63,1.63,0,0,0,199.39,82.49Z" transform="translate(0 -0.3)"/><path class="cls-2" d="M56.57,93.16a1.68,1.68,0,0,0,1.81,2.57c1.89-.42,1.44-3.45-.4-3.41A1.63,1.63,0,0,0,56.57,93.16Z" transform="translate(0 -0.3)"/><path class="cls-2" d="M103.38,67.51a1.68,1.68,0,0,0-1.81-2.57c-1.89.42-1.45,3.45.4,3.41A1.63,1.63,0,0,0,103.38,67.51Z" transform="translate(0 -0.3)"/><path class="cls-2" d="M138.75,45.89A1.68,1.68,0,0,0,139,49c1.83.61,3-2.22,1.41-3.13A1.63,1.63,0,0,0,138.75,45.89Z" transform="translate(0 -0.3)"/><path class="cls-2" d="M127.82,78.67a1.69,1.69,0,0,0,.23,3.14c1.84.61,3-2.22,1.41-3.13A1.63,1.63,0,0,0,127.82,78.67Z" transform="translate(0 -0.3)"/><path class="cls-2" d="M99.22,58.48A1.68,1.68,0,0,0,101,61.05c1.89-.42,1.44-3.45-.4-3.4A1.6,1.6,0,0,0,99.22,58.48Z" transform="translate(0 -0.3)"/><path class="cls-2" d="M131.9,22.53a1.68,1.68,0,0,0,1.81,2.57c1.89-.42,1.45-3.45-.4-3.41A1.64,1.64,0,0,0,131.9,22.53Z" transform="translate(0 -0.3)"/><path class="cls-2" d="M159.51,146.43a1.68,1.68,0,0,0-.23-3.14c-1.83-.62-3,2.21-1.41,3.12A1.63,1.63,0,0,0,159.51,146.43Z" transform="translate(0 -0.3)"/><path class="cls-2" d="M202.35,117.32a1.68,1.68,0,0,0,.23,3.14c1.83.61,3-2.22,1.41-3.13A1.63,1.63,0,0,0,202.35,117.32Z" transform="translate(0 -0.3)"/><path class="cls-2" d="M202.44,146a1.69,1.69,0,0,0,.23,3.14c1.84.61,3-2.22,1.42-3.13A1.65,1.65,0,0,0,202.44,146Z" transform="translate(0 -0.3)"/><path class="cls-2" d="M148.21,203.63a1.68,1.68,0,0,0-1.81-2.57c-1.89.42-1.44,3.45.4,3.41A1.63,1.63,0,0,0,148.21,203.63Z" transform="translate(0 -0.3)"/><path class="cls-2" d="M181.37,113.66a1.69,1.69,0,0,0-.23-3.14c-1.84-.61-3,2.22-1.41,3.13A1.63,1.63,0,0,0,181.37,113.66Z" transform="translate(0 -0.3)"/><path class="cls-2" d="M23.93,82.11a1.68,1.68,0,0,0,1.81,2.57c1.89-.42,1.45-3.45-.4-3.41A1.64,1.64,0,0,0,23.93,82.11Z" transform="translate(0 -0.3)"/><path class="cls-2" d="M51.34,171.56a1.68,1.68,0,0,0,1.81,2.57c1.89-.42,1.45-3.45-.4-3.41A1.64,1.64,0,0,0,51.34,171.56Z" transform="translate(0 -0.3)"/><path class="cls-2" d="M39.09,117.06a1.69,1.69,0,0,0,.23,3.14c1.84.62,3-2.21,1.42-3.12A1.65,1.65,0,0,0,39.09,117.06Z" transform="translate(0 -0.3)"/><path class="cls-2" d="M60.8,192.7A1.68,1.68,0,0,0,59,190.13c-1.89.42-1.45,3.46.4,3.41A1.63,1.63,0,0,0,60.8,192.7Z" transform="translate(0 -0.3)"/><path class="cls-2" d="M22.38,142.6a1.69,1.69,0,0,0,1.82,2.57c1.89-.42,1.44-3.45-.4-3.4A1.61,1.61,0,0,0,22.38,142.6Z" transform="translate(0 -0.3)"/><path class="cls-2" d="M181.37,176.49a1.69,1.69,0,0,0-.23-3.14c-1.84-.61-3,2.21-1.41,3.12A1.63,1.63,0,0,0,181.37,176.49Z" transform="translate(0 -0.3)"/><path class="cls-2" d="M97.46,77.46a1.68,1.68,0,0,0-.23-3.14c-1.83-.61-3,2.22-1.41,3.13A1.6,1.6,0,0,0,97.46,77.46Z" transform="translate(0 -0.3)"/><path class="cls-2" d="M72,151.74a1.68,1.68,0,0,0-1.81-2.57c-1.89.42-1.44,3.45.4,3.4A1.6,1.6,0,0,0,72,151.74Z" transform="translate(0 -0.3)"/><path class="cls-2" d="M84.12,203.79a1.68,1.68,0,0,0-1.81-2.57c-1.89.42-1.45,3.45.39,3.41A1.64,1.64,0,0,0,84.12,203.79Z" transform="translate(0 -0.3)"/></g><path class="cls-2" d="M103.74,31.67c.37-1.23.49-2.6,1.42-3.58.49-.53,1.87-1.53,2.5-.91a4.2,4.2,0,0,1,.78,2.66c.06.89,0,1.78.06,2.67.09,3.73.07,7.46.08,11.19,0,2.38,0,4.77,0,7.15,0,.63,2,.88,2,.39,0-4.82,0-9.63,0-14.45,0-1.63-.05-3.26-.06-4.9,0-2.15,0-4.8-2.42-5.58a4.76,4.76,0,0,0-4.37.87c-1.27,1-1.44,2.64-1.88,4.1-.16.51,1.78,1,2,.39Z" transform="translate(0 -0.3)"/><path class="cls-2" d="M125.1,55.58a4.77,4.77,0,0,0,1.35-5.9,4.82,4.82,0,0,0-4-2.45A5.17,5.17,0,0,0,117.85,49c-1.48,1.9-.85,4.46-1.69,6.58a3.15,3.15,0,0,1-3,1.76,1.15,1.15,0,0,1-1-.27,4.14,4.14,0,0,1-.8-1.56c-.18-.5-2.15-.43-1.93.17A3.29,3.29,0,0,0,111,57.78a6.64,6.64,0,0,0,3.59.21,4.89,4.89,0,0,0,3.07-1.46,5.91,5.91,0,0,0,.94-3.16c.23-1.87.4-4.12,2.29-5.09a3.1,3.1,0,0,1,.78-.26,1.38,1.38,0,0,1,.64,0,3.15,3.15,0,0,1,1.59.93,4.34,4.34,0,0,1-.51,6.17c-.36.26.1.49.34.56a1.81,1.81,0,0,0,1.37-.11Z" transform="translate(0 -0.3)"/><path class="cls-2" d="M117.06,41.52c0,2.25,0,4.5,0,6.75a21.08,21.08,0,0,0,.18,4.35,4.57,4.57,0,0,0,2.4,3.3,5.45,5.45,0,0,0,5.53-.26c.34-.23-.47-.59-.59-.63a1.54,1.54,0,0,0-1.26,0,3,3,0,0,1-2.08.6,2.43,2.43,0,0,1-1.3-.95,5.94,5.94,0,0,1-.93-3.34c-.06-1.3,0-2.61,0-3.9V41.92c0-.63-2-.89-2-.4Z" transform="translate(0 -0.3)"/><path class="cls-2" d="M110.48,35.07a5.88,5.88,0,0,1,1.76-4.32,2.88,2.88,0,0,1,3.47-.3c1.43,1,1.48,3.17,1.43,4.73-.06,2.1-.07,4.19-.07,6.28,0,.65,1.94,1,1.94.52,0-2,0-3.93,0-5.89.07-1.62.08-3.51-.89-4.9-1.53-2.16-5.61-2.94-7.68-1.19a6.15,6.15,0,0,0-1.94,4.55c0,.64,1.92,1,1.93.52Z" transform="translate(0 -0.3)"/><path class="cls-3" d="M44.71,53.14c2.74-6.27,5.29-7.48,9.68-7.79a20.87,20.87,0,0,1,6-.22h.37l.07.06c7,.9,10,6.18,12.17,9.45C76.41,59.91,96,97,101.15,110c-6,3.73-14.49,6.7-21.29,8.57-3,.84-6.06,2.38-7.83-.39-1.34-2.09-1-6-1.45-8.39-.74-4.08-7.26-26.32-13.8-40.45a35,35,0,0,0-3.68,5.3c-2,3.7-8.23,20.2-9.5,24.39-.71,2.34-5.14,11.58-6.54,8.75C35.85,105.32,40.43,62.94,44.71,53.14Z" transform="translate(0 -0.3)"/><path class="cls-2" d="M45.2,53.14c1.17-2.66,2.69-5.65,5.52-6.85a12.28,12.28,0,0,1,3.55-.74c1.07-.11,2.1-.3,3.18-.33s2.12.15,3.18.12l-.37-.1a1.77,1.77,0,0,0,.91.24,14,14,0,0,1,1.55.37,12.16,12.16,0,0,1,2.47,1,14.38,14.38,0,0,1,3.68,2.9,33.59,33.59,0,0,1,3.94,5.45c1.85,3,3.5,6.12,5.17,9.21q4,7.41,7.86,14.89,4.2,8.1,8.21,16.29c2.13,4.36,4.25,8.73,6.11,13.21.17.4.34.81.5,1.22l.13-.16a76.09,76.09,0,0,1-18,7.6c-1.49.46-3,.85-4.47,1.31-1.25.39-2.74,1-4.06.65-2.84-.75-2.78-5-2.93-7.26a45.68,45.68,0,0,0-2.14-9.71c-1.46-5-3.07-10.06-4.78-15C62.28,81.3,60,75.18,57.27,69.27c-.13-.3-.81-.14-1,.06a32.56,32.56,0,0,0-4.15,6.24c-.67,1.4-1.27,2.84-1.86,4.28-1.61,3.89-3.11,7.82-4.57,11.77-.62,1.68-1.24,3.37-1.82,5.06-.38,1.1-.69,2.22-1.12,3.3a36.55,36.55,0,0,1-2.24,4.63,19.22,19.22,0,0,1-1.4,2.18,7.35,7.35,0,0,1-.67.79c-.18.18-.51.33-.65.51s.07-.1.12,0a.94.94,0,0,1-.17-.11,1.17,1.17,0,0,1-.24-.38,2.11,2.11,0,0,1-.1-.61,19.24,19.24,0,0,1-.05-2.28c.05-2.68.27-5.36.5-8,.66-7.67,1.6-15.33,2.76-23,.57-3.71,1.19-7.41,1.95-11.09a63.66,63.66,0,0,1,2.09-8.15c.16-.46.33-.92.53-1.36.11-.26-.86-.26-1,0a41.15,41.15,0,0,0-2.18,7.46c-.8,3.58-1.45,7.19-2,10.82q-1.91,11.85-3,23.84c-.27,2.91-.51,5.84-.61,8.77,0,.88,0,1.78,0,2.66a2.22,2.22,0,0,0,.43,1.51c.86.87,2.18-.13,2.78-.81A20.65,20.65,0,0,0,42.38,103a67.33,67.33,0,0,0,3.13-8.14c1.43-4,2.93-7.94,4.49-11.88a58.06,58.06,0,0,1,4.39-9.67,38.11,38.11,0,0,1,2.87-3.94l-1,.07c2.52,5.45,4.65,11.09,6.64,16.75Q65.66,94,68,101.94a47.62,47.62,0,0,1,2.32,10.19c.17,2.4.07,6.19,2.63,7.45a5.47,5.47,0,0,0,3.51.18c1.45-.31,2.86-.82,4.29-1.23,7.15-2,14.42-4.51,20.77-8.45,0,0,.16-.09.13-.15-2.15-5.4-4.73-10.63-7.29-15.84q-4.92-10-10.11-19.85c-2.79-5.33-5.61-10.65-8.56-15.9-2.41-4.29-5-9.07-9.38-11.6a14.06,14.06,0,0,0-5.46-1.82,34.48,34.48,0,0,0-7.39.31,10.58,10.58,0,0,0-4.29,1.28A10,10,0,0,0,45.83,50a24.26,24.26,0,0,0-1.6,3.13C44.11,53.4,45.08,53.41,45.2,53.14Z" transform="translate(0 -0.3)"/><g class="cls-6"><path class="cls-2" d="M67.84,101.67c5.15-5.23,12-8.64,19.1-10.45a44.77,44.77,0,0,1,5.88-1.09c.58-.07.53-.47-.06-.4a46.39,46.39,0,0,0-21,7.84,33.62,33.62,0,0,0-4.81,4c-.25.26.7.27.89.08Z" transform="translate(0 -0.3)"/><path class="cls-2" d="M61.53,82.76c5.12-4.23,11-7.58,17.65-8.65a31.15,31.15,0,0,1,5.95-.37c.59,0,.61-.38,0-.4a34.1,34.1,0,0,0-19.56,5.57,51.35,51.35,0,0,0-4.92,3.61c-.29.25.65.41.86.24Z" transform="translate(0 -0.3)"/><path class="cls-2" d="M56.09,71.17C61.33,65.73,67.25,60.47,74,57a26.9,26.9,0,0,1,5.67-2.18c.22-.06,0-.26-.1-.32a1,1,0,0,0-.67-.12,32.71,32.71,0,0,0-10,4.72,74.29,74.29,0,0,0-9.4,7.45c-1.5,1.37-2.94,2.79-4.35,4.25-.2.21.7.58.9.37Z" transform="translate(0 -0.3)"/><path class="cls-2" d="M59.19,44.91c-2.88-.23-6.23.07-8.27,2.39-1.8,2.05-2,5-1.52,7.54a21.91,21.91,0,0,0,1.85,5.58c.13.27,1.08.33,1,.1-2.08-4.38-3.93-12,1.81-14.5a11,11,0,0,1,5.34-.67c.68,0,.25-.4-.18-.44Z" transform="translate(0 -0.3)"/><path class="cls-2" d="M39.12,64.71c-.2,3.08,2,5.86,4.21,7.73a15,15,0,0,0,9,3.73,6.91,6.91,0,0,0,4.52-1.4c.19-.15-.69-.47-.93-.28-2.26,1.8-5.31,1.38-7.8.31A14.92,14.92,0,0,1,41.25,69a7.22,7.22,0,0,1-1.15-4.13c0-.3-1-.45-1-.18Z" transform="translate(0 -0.3)"/><path class="cls-2" d="M36.57,84.39c.11,2.23,2.13,3.7,4,4.59A17.41,17.41,0,0,0,48,90.67a7.89,7.89,0,0,0,3.33-.58c.33-.14-.57-.44-.82-.33a7.33,7.33,0,0,1-3.35.47,15.94,15.94,0,0,1-4.27-.79c-2.21-.73-5.18-2.23-5.31-4.9,0-.31-1-.39-1-.15Z" transform="translate(0 -0.3)"/><path class="cls-2" d="M52.14,61.68A63.42,63.42,0,0,1,57,71c.11.24,1.08.12.95-.18a63,63,0,0,0-4.88-9.31c-.16-.24-1.12-.07-1,.18Z" transform="translate(0 -0.3)"/></g><path class="cls-3" d="M184,53.14c-2.74-6.27-5.29-7.48-9.68-7.79a20.93,20.93,0,0,0-6-.22H168l-.07.06c-7,.9-10,6.18-12.18,9.45-3.42,5.27-23,42.37-28.17,55.35,6,3.73,14.5,6.7,21.3,8.57,3,.84,6.06,2.38,7.83-.39,1.34-2.09,1-6,1.44-8.39.74-4.08,7.27-26.32,13.81-40.45a35,35,0,0,1,3.68,5.3c2,3.7,8.23,20.2,9.5,24.39.71,2.34,5.14,11.58,6.53,8.75C192.84,105.32,188.25,62.94,184,53.14Z" transform="translate(0 -0.3)"/><path class="cls-2" d="M184.46,53.2c-1.45-3.29-3.37-6.48-7-7.54a12.48,12.48,0,0,0-2.27-.44c-1.15-.14-2.29-.33-3.44-.4a18.73,18.73,0,0,0-6.67.7c-5.51,1.72-8.64,6.8-11.36,11.53s-5.41,9.82-8,14.78q-5.19,9.83-10.15,19.78c-2.75,5.53-5.5,11.09-7.89,16.78-.21.5-.41,1-.6,1.48,0,.07.07.15.11.17a77.4,77.4,0,0,0,18.49,7.81c1.48.45,3,.85,4.46,1.31a12.36,12.36,0,0,0,4.11.81c3-.13,3.73-3.12,4-5.59a42.46,42.46,0,0,1,.7-5.85c.4-1.67.86-3.32,1.33-5,1.46-5.12,3.08-10.2,4.8-15.23a197,197,0,0,1,7.38-18.89l-.93-.11a31.63,31.63,0,0,1,4.2,6.37c.7,1.48,1.33,3,2,4.52,1.63,4,3.16,8,4.64,12,.61,1.67,1.22,3.34,1.79,5,.39,1.15.73,2.31,1.21,3.42a34.71,34.71,0,0,0,2.53,4.88c.66,1,1.5,2.49,2.77,2.89,1.92.59,1.75-1.73,1.75-2.91,0-2.61-.22-5.21-.43-7.8-.65-7.8-1.59-15.57-2.76-23.31-.57-3.8-1.21-7.59-2-11.35A63.93,63.93,0,0,0,185,54.56c-.16-.46-.33-.91-.52-1.36-.12-.27-1.07-.35-1-.11a40.38,40.38,0,0,1,2.13,7.24c.79,3.47,1.42,7,2,10.5q1.89,11.64,3,23.4c.28,3,.54,5.94.67,8.91,0,1,.07,1.93.05,2.89a4.76,4.76,0,0,1-.16,1.55.86.86,0,0,1-.23.36.9.9,0,0,1-.2.14s.19.08.06,0a4.76,4.76,0,0,1-1.28-1.29,27.44,27.44,0,0,1-2.71-4.7c-1.21-2.56-2-5.29-2.93-7.94q-2.12-5.9-4.44-11.7a54.61,54.61,0,0,0-4.29-9.32,41.28,41.28,0,0,0-2.8-3.8c-.14-.17-.8-.38-.93-.11A234.13,234.13,0,0,0,160,100.79q-.86,2.83-1.62,5.7a32.1,32.1,0,0,0-.82,3.62c-.2,1.4-.2,2.82-.35,4.23a8.15,8.15,0,0,1-1.11,3.83,3.29,3.29,0,0,1-3.66,1.22c-1.39-.29-2.74-.79-4.11-1.17-7-2-14.18-4.43-20.41-8.29l.11.17c2.08-5.22,4.57-10.29,7-15.33,3.18-6.48,6.47-12.91,9.81-19.31,2.79-5.34,5.61-10.66,8.54-15.93.82-1.47,1.64-3,2.53-4.37a26.67,26.67,0,0,1,5.47-6.84A15.53,15.53,0,0,1,174,45.5a14.54,14.54,0,0,1,4.47,1A9.21,9.21,0,0,1,181.94,50a26.6,26.6,0,0,1,1.55,3.06C183.61,53.36,184.56,53.44,184.46,53.2Z" transform="translate(0 -0.3)"/><g class="cls-7"><path class="cls-2" d="M161.73,101.61c-5.33-5.41-12.53-8.92-19.84-10.77a46.62,46.62,0,0,0-6.09-1.13c-.12,0-.41,0-.38.18s.45.24.57.25a44.65,44.65,0,0,1,20.2,7.59,32.91,32.91,0,0,1,4.66,3.92c.18.18,1.14.22.88,0Z" transform="translate(0 -0.3)"/><path class="cls-2" d="M168,82.61c-5.38-4.43-11.58-7.87-18.54-8.93a34.37,34.37,0,0,0-6.17-.35c-.18,0-.3.07-.21.24s.51.18.66.18A30.8,30.8,0,0,1,156.39,76a42.11,42.11,0,0,1,10.75,6.67.93.93,0,0,0,.67.17c.1,0,.4-.09.22-.24Z" transform="translate(0 -0.3)"/><path class="cls-2" d="M173.43,71c-5.36-5.56-11.4-10.9-18.33-14.39a28,28,0,0,0-5.79-2.21c-.12,0-.41-.07-.41.12s.42.31.54.33a32.23,32.23,0,0,1,9.9,4.76,74.5,74.5,0,0,1,9.12,7.31q2.17,2,4.21,4.12c.18.18,1.12.34.76,0Z" transform="translate(0 -0.3)"/><path class="cls-2" d="M169.3,45.34c2.81-.23,6,.17,7.79,2.55,1.6,2.07,1.64,4.94,1.16,7.39a21.82,21.82,0,0,1-1.78,5.21c-.12.24.84.23,1,0,2.22-4.69,3.92-12.62-2.4-15a13,13,0,0,0-5.53-.58c-.14,0-.55,0-.59.23s.26.2.38.19Z" transform="translate(0 -0.3)"/><path class="cls-2" d="M188.6,64.69c.19,2.8-1.7,5.36-3.68,7.13a14.44,14.44,0,0,1-8,3.84,5.71,5.71,0,0,1-4.2-1,.92.92,0,0,0-.67-.23c-.15,0-.27.12-.09.27,2.43,1.93,5.7,1.84,8.5.83a15.68,15.68,0,0,0,7.74-6,7.53,7.53,0,0,0,1.37-4.58c0-.28-1-.53-1-.22Z" transform="translate(0 -0.3)"/><path class="cls-2" d="M191.13,84.55c-.13,2.67-3.11,4.17-5.32,4.89a15.9,15.9,0,0,1-4.2.79,7.38,7.38,0,0,1-3.42-.47c-.24-.11-1.14.19-.82.34,2,.9,4.52.65,6.59.24a13.4,13.4,0,0,0,6.7-3,4.36,4.36,0,0,0,1.46-2.92c0-.23-1-.15-1,.17Z" transform="translate(0 -0.3)"/><path class="cls-2" d="M175.59,61.58a62.58,62.58,0,0,0-4.88,9.32c-.12.26.85.27,1,0a62.58,62.58,0,0,1,4.88-9.32c.14-.2-.8-.26-1,0Z" transform="translate(0 -0.3)"/></g><path class="cls-3" d="M73.42,121.08c-1.45,1.11-3.06,1.93-4.49,3a25,25,0,0,0-3.49,3.41c-3,3.49-12.4,7.15-16.71,8.09s-8.84.62-13.27.28c-3-.24-4.15.51-4.39,2.11a20.56,20.56,0,0,0,1,1.83A10.37,10.37,0,0,0,37.29,144c5,1.86,10.48,2.35,15.37.19,4.41-1.94,9.06-4.41,12.13-8.21a49,49,0,0,0,3-4.42c.74-1.14,1.44-2.9,2.49-3.74,2.22-1.79,5.69-1,7.74-3.33a5.9,5.9,0,0,0,.33-7.13C76.72,118.69,74.89,119.94,73.42,121.08Z" transform="translate(0 -0.3)"/><path class="cls-2" d="M73,120.92c-1.79,1.36-3.79,2.38-5.48,3.88-1.29,1.15-2.3,2.57-3.63,3.67a32.58,32.58,0,0,1-8.71,4.74,34.94,34.94,0,0,1-9.71,2.67,45.93,45.93,0,0,1-7.51,0c-1.79-.12-3.8-.54-5.56,0a2.47,2.47,0,0,0-1.33.88,2,2,0,0,0-.31.6,1,1,0,0,0,.08,1,11.41,11.41,0,0,0,3.48,4.25A16.63,16.63,0,0,0,39.66,145a23.6,23.6,0,0,0,6.2.86,18.22,18.22,0,0,0,6.17-1,40.29,40.29,0,0,0,5.48-2.58,25.12,25.12,0,0,0,9.1-8c.61-.9,1.19-1.81,1.76-2.73s.91-1.71,1.45-2.51c1.08-1.59,2.76-2,4.54-2.42a7.24,7.24,0,0,0,4.29-2.15,5.9,5.9,0,0,0,1.13-4.68,6.22,6.22,0,0,0-1-2.41.83.83,0,0,0-.9-.16c-1.59,1.32-3.29,2.49-4.93,3.75-.19.14.68.5.92.32,1.63-1.26,3.34-2.43,4.93-3.75l-.91-.15a5.9,5.9,0,0,1,.7,5.13,5.11,5.11,0,0,1-3.54,3.32c-1.54.48-3.21.6-4.63,1.42s-2.06,2.4-2.86,3.78a35,35,0,0,1-3.69,5.34,23.22,23.22,0,0,1-4.34,3.76A39.78,39.78,0,0,1,54.45,143a23.3,23.3,0,0,1-5.76,2.11,19.18,19.18,0,0,1-6.28.06,19.81,19.81,0,0,1-6.07-1.82,10.1,10.1,0,0,1-4.1-3.94,3.44,3.44,0,0,1-.66-1.36,1.77,1.77,0,0,1,.26-.76,2.08,2.08,0,0,1,1.25-1,7,7,0,0,1,2.7-.15c1.09.09,2.18.17,3.27.23a45.85,45.85,0,0,0,6.63,0A33.88,33.88,0,0,0,55,134a40.92,40.92,0,0,0,8.53-4.25,16.94,16.94,0,0,0,3-2.76,23.18,23.18,0,0,1,4.7-4c.9-.57,1.79-1.12,2.64-1.76C74.07,121.09,73.2,120.73,73,120.92Z" transform="translate(0 -0.3)"/><path class="cls-2" d="M35.46,135.91c4.43.34,8.9.68,13.27-.28s13.69-4.6,16.71-8.09a25,25,0,0,1,3.49-3.41c1.43-1.12,3-1.94,4.49-3s3.3-2.39,4.93-3.75a5.49,5.49,0,0,0-1.65-1.56c-2.81,3.88-6.09,5.35-11,4.82-3.89-.43-6.68-2.14-10.57-.45-4.75,2.07-8.74,6-13.08,8.79-2.55,1.65-5,3.42-7.71,4.81-1.15.6-3.4,1.09-3.69,2.49a3.26,3.26,0,0,0,.41,1.79C31.31,136.42,32.5,135.67,35.46,135.91Z" transform="translate(0 -0.3)"/><path class="cls-2" d="M35.55,136.12a52.5,52.5,0,0,0,11.82,0A36.46,36.46,0,0,0,55,134a46.7,46.7,0,0,0,7.55-3.61,16.87,16.87,0,0,0,2.88-2.15c1.14-1.1,2.11-2.34,3.32-3.38,1.6-1.37,3.48-2.34,5.16-3.61s3.34-2.42,4.93-3.74c.06,0,0-.12,0-.16a6.47,6.47,0,0,0-1.71-1.63c-.15-.09-.69-.3-.84-.09a10.8,10.8,0,0,1-7.54,4.79,17,17,0,0,1-5.54-.46,19.17,19.17,0,0,0-5.43-.73,12.37,12.37,0,0,0-5.3,1.91,45.05,45.05,0,0,0-4.7,3.18c-1.58,1.18-3.13,2.41-4.75,3.55s-3.44,2.3-5.18,3.42c-1,.69-2.12,1.35-3.23,1.95-.74.41-1.51.7-2.29,1a4.25,4.25,0,0,0-1.81,1.22,2.41,2.41,0,0,0,.12,2.48c.09.19.92.46,1,.17.32-2,2.31-2.13,4-2,.68,0,.26-.4-.18-.43-1.86-.14-4.41-.09-4.78,2.22l1,.16c-.36-.8-.7-1.69,0-2.43a4.78,4.78,0,0,1,1.86-1.12,29.88,29.88,0,0,0,4.57-2.43c3.39-2.14,6.67-4.41,9.86-6.84,1.55-1.17,3.11-2.34,4.76-3.35a12.89,12.89,0,0,1,5.79-2.26,22.38,22.38,0,0,1,5.56.87,18.13,18.13,0,0,0,5.09.35,11.13,11.13,0,0,0,8.16-4.94l-.83-.09a5.51,5.51,0,0,1,1.57,1.51v-.16c-1.41,1.16-2.9,2.21-4.36,3.31s-3,2-4.42,3a22.75,22.75,0,0,0-3.84,3.56,14.31,14.31,0,0,1-2.5,2.23,38,38,0,0,1-7.3,3.79,42.8,42.8,0,0,1-6.94,2.31c-4.32,1-8.78.64-13.16.3C34.7,135.64,35.12,136.09,35.55,136.12Z" transform="translate(0 -0.3)"/><path class="cls-3" d="M155.27,121.08c1.45,1.11,3.06,1.93,4.49,3a25,25,0,0,1,3.49,3.41c3,3.49,12.39,7.15,16.71,8.09s8.83.62,13.26.28c3-.24,4.16.51,4.39,2.11a16.47,16.47,0,0,1-1,1.83,10.28,10.28,0,0,1-5.21,4.12c-4.94,1.86-10.47,2.35-15.37.19-4.4-1.94-9.05-4.41-12.12-8.21a51.31,51.31,0,0,1-3-4.42c-.73-1.14-1.43-2.9-2.48-3.74-2.23-1.79-5.69-1-7.74-3.33a5.9,5.9,0,0,1-.33-7.13C152,118.69,153.8,119.94,155.27,121.08Z" transform="translate(0 -0.3)"/><path class="cls-2" d="M154.83,121.11c1.7,1.29,3.61,2.27,5.24,3.67,1.28,1.12,2.29,2.49,3.56,3.62a29.1,29.1,0,0,0,7.78,4.52,45.8,45.8,0,0,0,8.28,2.86c4.32,1,8.77.72,13.15.38,1.27-.1,3.27-.42,4,1a1.67,1.67,0,0,1,.25.74c0,.5-.53,1.15-.79,1.59a9.92,9.92,0,0,1-1.63,2.07,12.65,12.65,0,0,1-5.18,2.8,22.54,22.54,0,0,1-6.14,1.06,16.53,16.53,0,0,1-6.45-1.09,42.61,42.61,0,0,1-5.23-2.52,28,28,0,0,1-4.88-3.33,22.05,22.05,0,0,1-4-4.73c-.56-.85-1.13-1.7-1.64-2.58s-.82-1.55-1.31-2.27a6.11,6.11,0,0,0-3.75-2.37c-1.59-.42-3.37-.58-4.63-1.73a5.53,5.53,0,0,1-1.58-4.81,6,6,0,0,1,1-2.48l-.91-.09c1.59,1.31,3.29,2.48,4.93,3.74a1,1,0,0,0,.66.18c.1,0,.41-.1.22-.25-1.64-1.25-3.34-2.42-4.93-3.74-.15-.13-.75-.33-.91-.09a5.81,5.81,0,0,0,2.13,8.55c1.56.72,3.33.78,4.9,1.44,1.83.77,2.45,2.59,3.42,4.17a36.09,36.09,0,0,0,3.79,5.37,23.34,23.34,0,0,0,4.47,3.76,41.46,41.46,0,0,0,5.26,2.92,24,24,0,0,0,5.71,2,22.79,22.79,0,0,0,12.35-1.35,10.78,10.78,0,0,0,4.56-3.27,13.21,13.21,0,0,0,1.44-2.32,1,1,0,0,0,.08-1,2.25,2.25,0,0,0-.35-.69c-.79-1-2.31-1.2-3.5-1.21-2.27,0-4.55.33-6.82.38a29.82,29.82,0,0,1-7.36-.61,35.05,35.05,0,0,1-4-1.18,45.33,45.33,0,0,1-9.36-4.37,15.25,15.25,0,0,1-3.27-2.77,23.16,23.16,0,0,0-4.68-4.1c-1-.64-2-1.24-2.94-2a1,1,0,0,0-.66-.17C155,120.88,154.64,121,154.83,121.11Z" transform="translate(0 -0.3)"/><path class="cls-2" d="M193.22,135.91c-4.43.34-8.9.68-13.26-.28s-13.69-4.6-16.71-8.09a25,25,0,0,0-3.49-3.41c-1.43-1.12-3-1.94-4.49-3s-3.31-2.39-4.93-3.75a5.57,5.57,0,0,1,1.64-1.56c2.81,3.88,6.1,5.35,11,4.82,3.88-.43,6.67-2.14,10.56-.45,4.76,2.07,8.75,6,13.08,8.79,2.55,1.65,5,3.42,7.72,4.81,1.15.6,3.4,1.09,3.69,2.49a3.28,3.28,0,0,1-.42,1.79C197.38,136.42,196.19,135.67,193.22,135.91Z" transform="translate(0 -0.3)"/><path class="cls-2" d="M193,135.7a47.16,47.16,0,0,1-11.93-.06,37.66,37.66,0,0,1-7.16-2.18,43.13,43.13,0,0,1-7.31-3.6,14.27,14.27,0,0,1-2.66-2.11,37.4,37.4,0,0,0-3.39-3.39c-1.57-1.29-3.38-2.23-5-3.46s-3.23-2.34-4.77-3.62l0,.16a5.9,5.9,0,0,1,1.59-1.52l-.9-.16a11.64,11.64,0,0,0,7,4.87,15.08,15.08,0,0,0,4.55.18c1.92-.19,3.76-.79,5.67-1.07a8.68,8.68,0,0,1,3.05,0,12,12,0,0,1,2.93,1.19,37.65,37.65,0,0,1,5,3.23c1.56,1.16,3.09,2.37,4.66,3.5s3.25,2.19,4.89,3.27a33.19,33.19,0,0,0,5.63,3.25,7.69,7.69,0,0,1,2.14,1.08c.88.75.58,1.73.17,2.67l1,.11c-.39-2.42-3.14-2.51-5.12-2.37-.18,0-.3.09-.21.26s.52.16.68.15c1.57-.12,3.35,0,3.66,1.85,0,.3.87.39,1,.11a2.47,2.47,0,0,0,.21-2.32,3.39,3.39,0,0,0-1.38-1.13c-.62-.33-1.29-.55-1.93-.83a24.16,24.16,0,0,1-2.54-1.41,113.91,113.91,0,0,1-10.26-7c-1.51-1.15-3-2.3-4.64-3.34a18.75,18.75,0,0,0-5.1-2.5c-3.72-1-7.29.84-11,1a9.91,9.91,0,0,1-5-1,12.09,12.09,0,0,1-4-3.66.85.85,0,0,0-.9-.16,6.25,6.25,0,0,0-1.7,1.62.1.1,0,0,0,0,.15c1.43,1.19,3,2.26,4.44,3.38s3.12,2,4.62,3.15c2.34,1.73,4,4.18,6.38,5.81a40.69,40.69,0,0,0,7.62,3.86,41.33,41.33,0,0,0,7.2,2.3c4.38.89,8.87.57,13.3.23.18,0,.3-.09.21-.25S193.14,135.69,193,135.7Z" transform="translate(0 -0.3)"/><path class="cls-2" d="M114.34,192.28c-3.38-.33-8.55,0-15-.31,1.29,3.22,1.51,7.65,3.69,10.46,1.92,2.48,5.87,2.39,9.28,2.55a12.29,12.29,0,0,0,2,.08,12.42,12.42,0,0,0,2-.08c3.4-.16,7.36-.07,9.28-2.55,2.17-2.81,2.4-7.24,3.68-10.46C122.9,192.3,117.73,192,114.34,192.28Z" transform="translate(0 -0.3)"/><path class="cls-2" d="M114.24,192.07c-2.11-.2-4.23-.16-6.35-.15-2.88,0-5.77,0-8.65-.16-.09,0-.45,0-.38.19,1.17,3,1.37,6.31,2.87,9.17a6.24,6.24,0,0,0,2.84,2.88,12.28,12.28,0,0,0,4.26,1c1.55.14,3.14.24,4.7.27s3.39-.09,5.08-.17c2.78-.13,6.06-.4,7.78-2.9,2.06-3,2.15-6.84,3.45-10.15.09-.23-.62-.29-.72-.28-2.9.14-5.81.15-8.72.15a62.69,62.69,0,0,0-6.28.15c-.64.06.14.45.45.42,2.13-.2,4.28-.16,6.42-.15,2.86,0,5.72,0,8.58-.16l-.72-.28c-1.09,2.79-1.35,5.85-2.59,8.59a6.21,6.21,0,0,1-2.61,3.1,10.45,10.45,0,0,1-4.19,1c-1.46.12-3,.22-4.42.25s-3.11-.09-4.66-.16a16.92,16.92,0,0,1-4.37-.59,5.46,5.46,0,0,1-3.18-2.69c-1.63-2.91-1.8-6.35-3-9.41l-.38.19c2.88.14,5.76.15,8.64.15,2.12,0,4.25-.05,6.36.15.12,0,.41,0,.38-.19S114.36,192.08,114.24,192.07Z" transform="translate(0 -0.3)"/><path class="cls-2" d="M158.9,117.42c-.56-.85-3.1,0-3.8-.54-1.17-.94-.57-2.3,1.25-2-2-.33-6.22-1.95-7.59-3.66-1.8-2.24-.41-2.26-3.6-2.17-1.68,0-3.2.07-4.59-.89-1.11-.76-1.38-2.5-2.49-3.06-2.23-1.11-8.9,1.62-7.79-3.15-.29,3.89-3.86,5.68-7.5,6.41-.62.13-5.36.31-8.45.45-3.08-.14-7.82-.32-8.45-.45-3.64-.73-7.2-2.52-7.49-6.41,1.11,4.77-5.56,2-7.79,3.15-1.11.56-1.39,2.3-2.49,3.06-1.4,1-2.92.94-4.59.89-3.19-.09-1.8-.07-3.6,2.17-1.37,1.71-5.57,3.33-7.6,3.66,1.82-.3,2.43,1.06,1.26,2-.7.57-3.24-.31-3.8.54-.91,1.36,2.62,6.73,3.24,8,3.74,7.88,4.43,15.16,6.28,23.47,1.53,6.86,5.06,12.57,7.16,19.18,1.65,5.18,2.15,10.4,4.27,15.53,1.64,4,3.2,9.22,7,11.8,3.53,2.4,9,2.79,13,1.3a6.42,6.42,0,0,0,3.6-2.95,6.44,6.44,0,0,0,3.61,2.95c4,1.49,9.46,1.1,13-1.3,3.81-2.58,5.37-7.81,7-11.8,2.11-5.13,2.61-10.35,4.26-15.53,2.11-6.61,5.64-12.32,7.17-19.18,1.84-8.31,2.54-15.59,6.28-23.47C156.28,124.15,159.81,118.78,158.9,117.42Z" transform="translate(0 -0.3)"/><path class="cls-2" d="M159.34,117.41c-.67-.87-2.2-.59-3.14-.55-.6,0-1.08-.08-1.2-.79s.8-1.06,1.44-1,.4-.34,0-.41a15.71,15.71,0,0,1-3.56-1.13,10.63,10.63,0,0,1-3.39-2.07,7,7,0,0,1-.95-1.28,6.59,6.59,0,0,0-.49-.86,2.12,2.12,0,0,0-1.68-.55c-1.48,0-3.09.28-4.52-.25a3.25,3.25,0,0,1-1.75-1.51,8.16,8.16,0,0,0-1.06-1.59c-1.21-1.2-3.33-.87-4.86-.8a6,6,0,0,1-2.7-.19c-.92-.43-.85-1.56-.67-2.4l-1-.21c-.24,2.71-2.16,4.51-4.58,5.49a11.22,11.22,0,0,1-3.11.85c-1,.1-2.06.13-3.09.18l-4,.18c-1.36.06-2.72,0-4.08-.1a28.91,28.91,0,0,1-6.19-.58c-2.88-.8-5.54-2.61-5.82-5.81l-1-.16a2.18,2.18,0,0,1-.49,2.31,3.8,3.8,0,0,1-2.27.47c-.92,0-1.83-.09-2.75-.1a5,5,0,0,0-2.2.33c-1.16.58-1.39,2.07-2.3,2.9-1.28,1.16-3.18,1.06-4.79,1-.64,0-1.76-.22-2.32.24a1.61,1.61,0,0,0-.36.52,9.85,9.85,0,0,1-.86,1.34,9.07,9.07,0,0,1-3.52,2.42,17.09,17.09,0,0,1-4,1.33c-.22,0-.18.15-.06.28a1,1,0,0,0,.69.15c.4-.06.81-.07,1,.36a1,1,0,0,1-.16.9c-.42.61-1,.52-1.72.48s-2.38-.28-2.59.82a5.61,5.61,0,0,0,.84,3c.55,1.19,1.2,2.33,1.85,3.46,3.88,6.8,4.92,14.83,6.47,22.38a51.55,51.55,0,0,0,1.59,6.22c.67,2,1.48,4,2.32,5.92a83.16,83.16,0,0,1,4.5,12c1.13,4.38,1.87,8.85,3.58,13.06,1.28,3.14,2.34,6.45,4.4,9.19a12.75,12.75,0,0,0,8.66,4.74,17.34,17.34,0,0,0,5.38-.1,9.94,9.94,0,0,0,4.64-1.92,6.44,6.44,0,0,0,1.43-1.77l-1-.15c1.56,2.73,4.74,3.71,7.69,4a15.3,15.3,0,0,0,9.34-1.83c2.68-1.61,4.29-4.37,5.52-7.15a67.94,67.94,0,0,0,3.67-10c1-4,1.72-8,3.08-11.91,1.28-3.62,3-7.08,4.39-10.64a49.44,49.44,0,0,0,1.88-5.41c.53-1.93.9-3.9,1.29-5.87.73-3.72,1.4-7.46,2.41-11.13a40.54,40.54,0,0,1,3.56-9.23c.58-1,1.16-2,1.68-3.07a9.63,9.63,0,0,0,1.15-3.09,1.52,1.52,0,0,0-.14-.94c-.15-.26-1.08-.3-1-.1.4.66-.06,1.7-.31,2.34a27.2,27.2,0,0,1-1.55,3.16c-.45.79-.93,1.57-1.34,2.38a40.8,40.8,0,0,0-2.07,5.09,81.09,81.09,0,0,0-2.65,10.5,106.75,106.75,0,0,1-2.39,10.92,108.78,108.78,0,0,1-4.06,10.17,65.26,65.26,0,0,0-3.61,10.89A74.72,74.72,0,0,1,137.27,184c-1.13,2.82-2.11,5.75-3.85,8.27a11.55,11.55,0,0,1-7.67,4.87,15.45,15.45,0,0,1-4.94.11,9.17,9.17,0,0,1-4.58-1.73,5.79,5.79,0,0,1-1.4-1.68c-.13-.23-.82-.44-1-.16-1.85,3.25-6.27,3.94-9.69,3.67a13,13,0,0,1-5.32-1.53,11,11,0,0,1-3.76-3.65,27.59,27.59,0,0,1-2.33-4.64c-.68-1.64-1.36-3.3-2-5-1.56-4.23-2.19-8.71-3.41-13a102.81,102.81,0,0,0-4.6-11.77,50.84,50.84,0,0,1-3.68-12.12c-1.47-7.39-2.66-15.06-6.44-21.7a38.18,38.18,0,0,1-1.85-3.53c-.3-.68-1-2.1-.55-2.85.31-.48,1.21-.32,1.69-.3a4.79,4.79,0,0,0,1.77-.06,1.24,1.24,0,0,0,.27-2.29,3.22,3.22,0,0,0-2-.25l.63.43a17.68,17.68,0,0,0,3.56-1.1,13.46,13.46,0,0,0,3.53-2,9,9,0,0,0,1.75-2.36c.39-.63,1.22-.42,1.87-.4a9.35,9.35,0,0,0,4.63-.59,3.73,3.73,0,0,0,1.45-1.31,8.58,8.58,0,0,1,1.16-1.75,3.1,3.1,0,0,1,2.34-.58c1,0,1.91.11,2.86.09a4.26,4.26,0,0,0,2.55-.6,2.37,2.37,0,0,0,.53-2.52c0-.25-1-.38-1-.15.25,2.8,2.23,4.68,4.72,5.73a13.29,13.29,0,0,0,3.54,1c1,.13,2,.14,3,.19,1.5.08,3,.14,4.51.21s3-.06,4.45-.12a27,27,0,0,0,6.72-.75c2.92-.9,5.61-2.8,5.89-6.07,0-.29-.91-.49-1-.21a2.52,2.52,0,0,0,.38,2.36,3.51,3.51,0,0,0,2.15.86,17.7,17.7,0,0,0,2.82,0,6.77,6.77,0,0,1,2.46.08,2.54,2.54,0,0,1,1.19,1.29,5.88,5.88,0,0,0,1.2,1.64,6.61,6.61,0,0,0,4.14,1.21c.75,0,1.49,0,2.24,0a3.32,3.32,0,0,1,.63,0c.13,0,0-.1.08.06a20.81,20.81,0,0,0,1.47,2.18,11.64,11.64,0,0,0,3.71,2.29,18,18,0,0,0,4,1.29l0-.41a2.18,2.18,0,0,0-2.07.5,1.23,1.23,0,0,0,.34,1.62,2.45,2.45,0,0,0,1.74.52c.51,0,1.83-.33,2.18.12C158.62,117.63,159.58,117.71,159.34,117.41Z" transform="translate(0 -0.3)"/><path class="cls-8" d="M79,127.14c5.07.17,10.15,1.65,13.74,5.4,3.15,3.27,4.8,7.65,5.77,12a96.8,96.8,0,0,1,1.72,14.7,100.24,100.24,0,0,0,1.38,13.62c.45,2.23.83,5,3.07,6.09a12.8,12.8,0,0,0,4.53,1,20.19,20.19,0,0,0,5.38-.17,9.65,9.65,0,0,0,2.28-.68c.47-.22-.48-.39-.71-.28a12.23,12.23,0,0,1-5.39.82,14.09,14.09,0,0,1-5-.82c-2.39-1-2.74-4-3.18-6.22a104.49,104.49,0,0,1-1.35-13.56,95.3,95.3,0,0,0-1.7-14.5c-1-4.29-2.55-8.61-5.57-11.88-3.32-3.6-8-5.33-12.76-5.8-.72-.07-1.45-.11-2.18-.13s-.59.38,0,.4Z" transform="translate(0 -0.3)"/><path class="cls-8" d="M85.75,161.14c1.14,2.29,3.27,3.86,5.14,5.53a1,1,0,0,0,.66.19c.11,0,.4-.09.22-.24-1.83-1.64-3.93-3.18-5-5.42-.14-.27-1.09-.3-1-.06Z" transform="translate(0 -0.3)"/><path class="cls-8" d="M96.38,122.68c2.61.64,5.45,2.15,6.85,4.52a.77.77,0,0,0,.56.3c.06,0,.51,0,.4-.15a9.78,9.78,0,0,0-3.28-3.18,15.21,15.21,0,0,0-4.43-1.88c-.11,0-.49-.11-.53.07s.33.29.43.32Z" transform="translate(0 -0.3)"/><path class="cls-8" d="M102.54,120.07c1.95,2.12,4.26,4.09,5.43,6.79.08.19.37.27.55.3s.49,0,.41-.14c-1.19-2.75-3.52-4.75-5.5-6.91a.94.94,0,0,0-.64-.26c-.11,0-.4.05-.25.22Z" transform="translate(0 -0.3)"/><path class="cls-8" d="M112.58,126a40.17,40.17,0,0,0-1.1-9.64c0-.27-1-.42-1-.11a40.33,40.33,0,0,1,1.08,9.53c0,.31,1,.47,1,.22Z" transform="translate(0 -0.3)"/><path class="cls-8" d="M100,177.43c-5.19,1.87-6.58,8.12-4.45,12.81.12.26,1.08.3,1,0-2.08-4.56-.77-10.69,4.3-12.52.21-.08,0-.26-.14-.3a.89.89,0,0,0-.68,0Z" transform="translate(0 -0.3)"/><path class="cls-8" d="M149.44,126.7c-4.95.17-10,1.47-13.69,4.92-3.24,3-5.07,7.15-6.15,11.35a77.58,77.58,0,0,0-1.95,14.4c-.32,4.61-.47,9.25-1.22,13.82-.18,1.11-.41,2.2-.67,3.28a7.27,7.27,0,0,1-1.43,3.36,6.49,6.49,0,0,1-3.9,1.55,20.56,20.56,0,0,1-5.54.1,8.51,8.51,0,0,1-2.48-.66c-.39-.18-1,0-.37.29,3,1.38,6.88,1.2,10.07.56a5.36,5.36,0,0,0,3.36-1.75,8.88,8.88,0,0,0,1.31-3.46,80.09,80.09,0,0,0,1.61-13.54,118.51,118.51,0,0,1,1.53-14.82c.85-4.43,2.27-8.95,5.18-12.47a18.59,18.59,0,0,1,12.65-6.3c.76-.08,1.52-.13,2.29-.15.22,0,.18-.15.08-.27a.93.93,0,0,0-.68-.21Z" transform="translate(0 -0.3)"/><path class="cls-8" d="M142,161.08c-1.14,2.27-3.25,3.83-5.1,5.48-.15.14.27.26.33.27a.79.79,0,0,0,.62-.1c1.85-1.65,4-3.21,5.1-5.48.14-.28-.83-.42-1-.17Z" transform="translate(0 -0.3)"/><path class="cls-8" d="M131.93,122.3a14.46,14.46,0,0,0-4.23,1.78,9.52,9.52,0,0,0-3.2,3.08c-.15.27.8.48.94.24,1.47-2.49,4.42-4.06,7.15-4.73.19,0,.19-.18,0-.28a1,1,0,0,0-.7-.09Z" transform="translate(0 -0.3)"/><path class="cls-8" d="M125.22,120.05c-2,2.14-4.29,4.13-5.47,6.85-.11.27.86.33,1,.07,1.18-2.72,3.5-4.7,5.46-6.84.14-.15-.29-.23-.35-.24a.77.77,0,0,0-.61.16Z" transform="translate(0 -0.3)"/><path class="cls-8" d="M117.43,125.67a40.35,40.35,0,0,1,1.1-9.53c0-.3-.9-.57-1-.32a40.16,40.16,0,0,0-1.09,9.64c0,.27,1,.53.94.21Z" transform="translate(0 -0.3)"/><path class="cls-8" d="M128,177.75c5,1.8,6.17,8,4.15,12.43-.13.29.85.42,1,.17a10.84,10.84,0,0,0,.58-7.48,8.18,8.18,0,0,0-5.17-5.43c-.29-.1-1.13.1-.52.31Z" transform="translate(0 -0.3)"/><path class="cls-8" d="M99.39,196.62a16.92,16.92,0,0,0,8.65,1.07c2.65-.36,5.38-1.32,6.77-3.76l-1-.16c1.48,2.59,4.43,3.58,7.25,3.94a16,16,0,0,0,9.15-1.44c.33-.16-.57-.47-.81-.35a14.67,14.67,0,0,1-8,1.42c-2.59-.25-5.26-1.13-6.61-3.51-.11-.19-.82-.41-1-.17-1.24,2.17-3.5,3.12-5.88,3.53a14.57,14.57,0,0,1-8-.83c-.15-.06-.55-.18-.69,0s0,.23.13.3Z" transform="translate(0 -0.3)"/><path class="cls-3" d="M83.59,141.83c2.62-.19,11,2.25,10.39,6.21-.42,2.7-3.65,3-6,2C84.13,148.53,82.48,145.08,83.59,141.83Z" transform="translate(0 -0.3)"/><path class="cls-3" d="M145.1,141.83c-2.62-.19-11,2.25-10.39,6.21.41,2.7,3.65,3,6,2C144.56,148.53,146.2,145.08,145.1,141.83Z" transform="translate(0 -0.3)"/><path class="cls-3" d="M124.24,177.94a66.87,66.87,0,0,1-9.9.6,67,67,0,0,1-9.9-.6,25.92,25.92,0,0,0,6.32,4.94,22.53,22.53,0,0,0,3.29,5.24c.09-.31.19-.6.29-.88.11.28.2.57.29.88a22.56,22.56,0,0,0,3.3-5.24A25.72,25.72,0,0,0,124.24,177.94Z" transform="translate(0 -0.3)"/></g></g></svg>