<svg xmlns="http://www.w3.org/2000/svg" viewBox="0 0 349.49 203.72"><defs><style>.cls-1{fill:#922160;}</style></defs><g id="Layer_2" data-name="Layer 2"><g id="BG"><path class="cls-1" d="M220.34,108.41a.75.75,0,0,1,.14-1.44,20,20,0,0,1,5-.1,24.67,24.67,0,0,1,8.23,2.42.74.74,0,0,1,.34,1,.75.75,0,0,1-1,.34,23.51,23.51,0,0,0-7.74-2.27,18,18,0,0,0-4.64.09A.74.74,0,0,1,220.34,108.41Z"/><path class="cls-1" d="M205.18,124.43a.74.74,0,0,1-.49-.8,19.82,19.82,0,0,1,7.34-13,.74.74,0,1,1,.92,1.17,18.27,18.27,0,0,0-6.79,12.07.75.75,0,0,1-.84.64Z"/><path class="cls-1" d="M330,145.41a.77.77,0,0,1-.47-.48c-2.19-6.71-9.56-12.39-18.79-14.48a.72.72,0,0,1-.57-.8,39.51,39.51,0,0,0-9.58-29.89.74.74,0,0,1,.07-1.05.74.74,0,0,1,1.05.07,41,41,0,0,1,10,30.37c9.39,2.31,16.94,8.27,19.24,15.32a.75.75,0,0,1-.95.94Z"/><path class="cls-1" d="M255.17,76.36a.75.75,0,0,1-.48-.84,56.89,56.89,0,0,0-79.24-62.68.74.74,0,0,1-1-.37.73.73,0,0,1,.37-1,58.37,58.37,0,0,1,81.3,64.31.73.73,0,0,1-.86.59Z"/><path class="cls-1" d="M249,64.07a.76.76,0,0,1-.49-.73c.79-22.92-16-43.55-39.09-48.05a49,49,0,0,0-18.23-.09.75.75,0,0,1-.87-.6.74.74,0,0,1,.59-.86,50.16,50.16,0,0,1,18.8.1c23.78,4.61,41.1,25.91,40.28,49.55a.75.75,0,0,1-.77.72Z"/><path class="cls-1" d="M86.17,39.68a.74.74,0,0,1-.48-.84,29.74,29.74,0,0,1,34.82-23.53.71.71,0,0,1,.59.87.73.73,0,0,1-.87.58A28.25,28.25,0,0,0,87.14,39.12a.73.73,0,0,1-.87.58Z"/><path class="cls-1" d="M50.05,85.73a.75.75,0,0,1-.49-.58A26.55,26.55,0,0,1,78.92,54.33,39.92,39.92,0,0,1,149.4,21.77,66,66,0,0,1,263.21,78.54a63.8,63.8,0,0,1-1.73,6.93.73.73,0,0,1-.92.5h0a.74.74,0,0,1-.47-.92A64.52,64.52,0,0,0,210.68,2.65a64.8,64.8,0,0,0-60.76,20.77.75.75,0,0,1-.59.26.8.8,0,0,1-.56-.3A38.43,38.43,0,0,0,80.6,55.05a.75.75,0,0,1-.19.67.73.73,0,0,1-.66.22A25.06,25.06,0,0,0,51,84.9a.75.75,0,0,1-1,.83Z"/><path class="cls-1" d="M201.57,122.26a.74.74,0,0,1-.5-.77,22.89,22.89,0,0,1,8.15-15.7,21.34,21.34,0,0,1,15.85-4.58,26.93,26.93,0,0,1,15.64,7.1c6.37-8.92,17.21-18.59,29.18-19.8a.75.75,0,0,1,.81.67A.73.73,0,0,1,270,90c-11.8,1.19-22.53,11.07-28.63,19.92a.73.73,0,0,1-.56.31.71.71,0,0,1-.6-.24c-3.41-3.81-9.42-6.67-15.34-7.3a19.83,19.83,0,0,0-14.75,4.26,21.42,21.42,0,0,0-7.61,14.7.74.74,0,0,1-.81.66A.47.47,0,0,1,201.57,122.26Z"/><path class="cls-1" d="M329.39,175.87a.84.84,0,0,1-.28-.18.74.74,0,0,1,0-1.05,28.15,28.15,0,0,0-13.72-47.36.73.73,0,0,1-.58-.8,39.4,39.4,0,0,0-73.31-23.66.74.74,0,0,1-1.16.15,24.77,24.77,0,0,0-42.13,16.94.74.74,0,1,1-1.48,0,26.24,26.24,0,0,1,44-18.6A40.89,40.89,0,0,1,316.35,126a29.65,29.65,0,0,1,13.81,49.71A.74.74,0,0,1,329.39,175.87Z"/><path class="cls-1" d="M188.63,87.52h0a.74.74,0,0,1-.42-1A14.67,14.67,0,0,0,180,67.47a14.14,14.14,0,0,0-5.83-1,.72.72,0,0,1-.59-.27.74.74,0,0,1-.15-.64,23.58,23.58,0,0,0-14.13-27.15,23,23,0,0,0-17.94.23,23.44,23.44,0,0,0-13.8,25.87.75.75,0,0,1-.59.87.74.74,0,0,1-.87-.59,24.93,24.93,0,1,1,49,.2,16.47,16.47,0,0,1,5.48,1.15,16.18,16.18,0,0,1,9,21A.73.73,0,0,1,188.63,87.52Z"/><path class="cls-1" d="M168.7,60.94a.73.73,0,0,1-.5-.69A17.31,17.31,0,0,0,138,48.86a.74.74,0,0,1-1.05,0,.75.75,0,0,1,0-1,18.79,18.79,0,0,1,32.81,12.37A.73.73,0,0,1,169,61,.69.69,0,0,1,168.7,60.94Z"/><path class="cls-1" d="M6,135.39a.78.78,0,0,1-.35-.25A26.9,26.9,0,0,1,35.8,93.31l.68.25A37.16,37.16,0,0,1,41,89.45a36.07,36.07,0,0,1,56,40.7.76.76,0,0,1-1,.45h0a.74.74,0,0,1-.45-.95,34.59,34.59,0,0,0-53.7-39,35.82,35.82,0,0,0-4.64,4.32.69.69,0,0,1-.83.19,25.41,25.41,0,0,0-29.63,39.1.75.75,0,0,1-.13,1A.78.78,0,0,1,6,135.39Z"/><path class="cls-1" d="M129.54,149.05a.51.51,0,0,1-.15-.07.73.73,0,0,1-.23-1c6.12-9.76,4.52-21.64-4-29.58a25.26,25.26,0,0,0-26.89-4.82.74.74,0,1,1-.57-1.37,26.74,26.74,0,0,1,28.47,5.11c9,8.43,10.76,21.07,4.25,31.45A.74.74,0,0,1,129.54,149.05Z"/><path class="cls-1" d="M122.88,150.48a.6.6,0,0,1-.26-.16.74.74,0,0,1,0-1,19.3,19.3,0,0,0-23.87-29.81.75.75,0,1,1-.75-1.29,20.94,20.94,0,0,1,24.67,2.74,20.8,20.8,0,0,1,1,29.38A.76.76,0,0,1,122.88,150.48Z"/><path class="cls-1" d="M240.16,166.27a.74.74,0,0,1-.49-.84,18.66,18.66,0,0,0-14.74-21.83.74.74,0,0,1,.28-1.46,20.11,20.11,0,0,1,15.92,23.57.75.75,0,0,1-.87.59Z"/><path class="cls-1" d="M214.66,179.4a.75.75,0,0,1-.48-.84.73.73,0,0,1,.87-.59,15.74,15.74,0,1,0-1.46-30.54.72.72,0,0,1-.73-.19.76.76,0,0,1-.2-.73,16.77,16.77,0,0,0,.42-1.73,20.4,20.4,0,0,0-38-13.56.77.77,0,0,1-.55.39.73.73,0,0,1-.64-.23A10.47,10.47,0,0,0,156,136.61a.75.75,0,0,1-.87.59.72.72,0,0,1-.59-.87,11.95,11.95,0,0,1,14-9.46,11.68,11.68,0,0,1,5.67,2.8,21.89,21.89,0,0,1,40.28,15.39c0,.21-.08.42-.13.62A17.23,17.23,0,0,1,235,165.8a17.25,17.25,0,0,1-20.18,13.63Z"/><path class="cls-1" d="M327.86,203.36a.74.74,0,0,1,.38-1.43,16.6,16.6,0,1,0,6.32-32.59.71.71,0,0,1-.59-.87.75.75,0,0,1,.87-.59A18.09,18.09,0,0,1,328,203.39Z"/><path class="cls-1" d="M54.4,84.15a.73.73,0,0,1-.5-.66,22.9,22.9,0,0,1,9-19.24.74.74,0,0,1,.9,1.18,21.42,21.42,0,0,0-8.39,18,.74.74,0,0,1-.7.78A.64.64,0,0,1,54.4,84.15Z"/><path class="cls-1" d="M59.77,83.19a.75.75,0,0,1-.49-.67,15.55,15.55,0,0,1,6.13-13.14.74.74,0,0,1,.9,1.18,14.15,14.15,0,0,0-5.55,11.89.73.73,0,0,1-.71.77A.65.65,0,0,1,59.77,83.19Z"/><path class="cls-1" d="M320.65,176.26a.74.74,0,0,1-.41-.35.75.75,0,0,1,.3-1c5.94-3.18,9.1-11.13,9.13-11.21a.79.79,0,0,1,1-.42.74.74,0,0,1,.42,1c-.14.35-3.39,8.54-9.8,12A.79.79,0,0,1,320.65,176.26Z"/><path class="cls-1" d="M342,181.59a.73.73,0,0,1-.46-.45c-1.7-4.86-7.23-7.91-9.58-7.72a.74.74,0,1,1-.12-1.48c3.08-.26,9.24,3.38,11.1,8.7a.74.74,0,0,1-.45,1A.75.75,0,0,1,342,181.59Z"/><path class="cls-1" d="M7.87,124.56a.75.75,0,0,1-.43-.39c-1.7-3.73-3.94-16.06,7.72-23.52a21.48,21.48,0,0,1,22.27-.81A30.31,30.31,0,0,1,66.82,87.53c19.23,2.61,25.42,19.1,25.4,26.67a.74.74,0,0,1-.74.74.76.76,0,0,1-.75-.74c0-7.15-5.86-22.71-24.11-25.2a28.79,28.79,0,0,0-28.33,12.22.74.74,0,0,1-1.06.24A19.61,19.61,0,0,0,16,101.9a17.62,17.62,0,0,0-7.17,21.65.74.74,0,0,1-.92,1Z"/><path class="cls-1" d="M176.47,136.52h0a.74.74,0,0,1-.42-1c4.84-12.24,15.63-11.14,15.74-11.12a.74.74,0,0,1,.65.82.75.75,0,0,1-.82.65c-.4,0-9.78-1-14.19,10.2A.73.73,0,0,1,176.47,136.52Z"/><path class="cls-1" d="M97,96.09a.74.74,0,0,1-.41-.35,36.46,36.46,0,0,0-8.21-9.68A25,25,0,0,0,76.8,80.81a.75.75,0,0,1-.64-.83.74.74,0,0,1,.82-.65,26.17,26.17,0,0,1,12.31,5.58A37.18,37.18,0,0,1,97.86,95a.74.74,0,0,1-.9,1Z"/></g></g></svg>