<svg xmlns="http://www.w3.org/2000/svg" viewBox="0 0 215.57 240.03"><defs><style>.cls-1{fill:#922160;}</style></defs><g id="Layer_2" data-name="Layer 2"><g id="BG"><path class="cls-1" d="M64.53,225l.19,0L170.51,176.5a.77.77,0,0,0,.45-.62.79.79,0,0,0-.3-.7L129,143.2a.77.77,0,0,0-1.08.14.78.78,0,0,0,.14,1.09l40.62,31.2L64.08,223.52a.77.77,0,0,0,.45,1.46Z"/><polygon class="cls-1" points="184.65 73.34 181.47 95.13 178.63 73.29 167.87 81.31 176.06 70.67 154.27 67.48 176.11 64.65 168.09 53.88 178.72 62.08 181.91 40.29 184.74 62.13 195.51 54.11 187.32 64.74 209.11 67.93 187.27 70.76 195.29 81.53 184.65 73.34"/><path class="cls-1" d="M181.46,95.9a.77.77,0,0,1-.76-.67L178,74.7l-9.7,7.23a.79.79,0,0,1-1-.08.78.78,0,0,1-.06-1l7.39-9.6-20.48-3a.78.78,0,0,1-.67-.77.8.8,0,0,1,.68-.77l20.53-2.66-7.23-9.7a.78.78,0,0,1,.08-1,.76.76,0,0,1,1-.06l9.59,7.39,3-20.48a.79.79,0,0,1,.78-.67.77.77,0,0,1,.76.68l2.66,20.53,9.71-7.24a.76.76,0,0,1,1,.08.78.78,0,0,1,.06,1l-7.38,9.59,20.48,3a.78.78,0,0,1,.67.77.83.83,0,0,1-.68.77l-20.53,2.66,7.23,9.71a.77.77,0,0,1-1.09,1.07l-9.59-7.38-3,20.48a.76.76,0,0,1-.63.65Zm3.66-23.18,6.2,4.77-4.68-6.27a.8.8,0,0,1-.09-.76.75.75,0,0,1,.62-.47l16.27-2.11-16.23-2.37a.76.76,0,0,1-.61-.48.77.77,0,0,1,.1-.76l4.77-6.19-6.26,4.67a.79.79,0,0,1-.77.09.8.8,0,0,1-.47-.61L181.86,46l-2.37,16.24a.78.78,0,0,1-1.24.5l-6.18-4.76,4.66,6.26a.75.75,0,0,1,.09.76.74.74,0,0,1-.61.47l-16.27,2.11,16.23,2.37a.79.79,0,0,1,.61.48.77.77,0,0,1-.11.76l-4.77,6.2,6.27-4.68a.81.81,0,0,1,.77-.09.77.77,0,0,1,.46.62l2.11,16.27,2.37-16.23a.78.78,0,0,1,.48-.61l.16-.05A.8.8,0,0,1,185.12,72.72Z"/><path class="cls-1" d="M64.53,225a.76.76,0,0,0,.49-.29L182.31,68.17a.77.77,0,0,0,0-.94.75.75,0,0,0-.91-.23L75.82,113.67,50.94,129.28a.7.7,0,0,0-.16.14l-32,35.36a.76.76,0,0,0,.05,1.09.77.77,0,0,0,1.09-.05l32-35.28L76.54,115,179.29,69.61,63.78,223.75a.77.77,0,0,0,.75,1.23Z"/><path class="cls-1" d="M51.49,130.7a.75.75,0,0,0,.39-.19.78.78,0,0,0,0-1.1L14.82,89.22a.77.77,0,1,0-1.14,1l37.11,40.2A.73.73,0,0,0,51.49,130.7Z"/><path class="cls-1" d="M181.82,68.47a.75.75,0,0,0,.57-.44L210.08,6.51a.77.77,0,1,0-1.41-.63L181,67.39a.77.77,0,0,0,.39,1A.71.71,0,0,0,181.82,68.47Z"/><polygon class="cls-1" points="15.86 92.27 14.13 104.09 12.6 92.24 0.77 90.51 12.62 88.98 14.35 77.16 15.89 89 27.71 90.73 15.86 92.27"/><path class="cls-1" d="M14.13,104.86a.78.78,0,0,1-.77-.67L11.9,92.92.66,91.28A.78.78,0,0,1,0,90.51a.86.86,0,0,1,.68-.77l11.26-1.46L13.58,77a.79.79,0,0,1,.77-.66.78.78,0,0,1,.77.68l1.46,11.26L27.82,90a.79.79,0,0,1,.66.78.74.74,0,0,1-.68.76L16.54,93,14.9,104.2a.79.79,0,0,1-.64.65ZM15.76,91.5,22,90.68l-6.26-.91a.76.76,0,0,1-.65-.67l-.82-6.28-.91,6.27a.82.82,0,0,1-.67.66l-6.28.81,6.27.91a.8.8,0,0,1,.66.67l.81,6.27.91-6.26a.79.79,0,0,1,.63-.65Z"/><polygon class="cls-1" points="65.03 225.91 63.08 239.25 61.34 225.88 48 223.93 61.37 222.19 63.32 208.85 65.06 222.22 78.4 224.17 65.03 225.91"/><path class="cls-1" d="M63.07,240a.77.77,0,0,1-.76-.68l-1.66-12.79L47.89,224.7a.79.79,0,0,1-.67-.78.76.76,0,0,1,.68-.76l12.79-1.66,1.86-12.76a.78.78,0,0,1,.78-.67.79.79,0,0,1,.76.68l1.66,12.79,12.76,1.87a.77.77,0,0,1,.66.77.74.74,0,0,1-.67.76L65.71,226.6l-1.87,12.76a.76.76,0,0,1-.63.65Zm1.86-14.89,7.8-1L65,223a.76.76,0,0,1-.66-.67l-1-7.8-1.14,7.78a.81.81,0,0,1-.67.66l-7.8,1,7.78,1.14a.78.78,0,0,1,.66.67l1,7.8,1.14-7.78a.78.78,0,0,1,.63-.66Z"/><path class="cls-1" d="M51.31,136.13a6.19,6.19,0,1,0-6.15-6.24A6.19,6.19,0,0,0,51.31,136.13Z"/><path class="cls-1" d="M170.14,182a6.2,6.2,0,1,0-6.14-6.24A6.19,6.19,0,0,0,170.14,182Z"/><path class="cls-1" d="M209.33,12.39a6.2,6.2,0,1,0-6.15-6.25A6.2,6.2,0,0,0,209.33,12.39Z"/><path class="cls-1" d="M19.27,169.49a4.63,4.63,0,1,0-4.59-4.67A4.63,4.63,0,0,0,19.27,169.49Z"/><path class="cls-1" d="M75,119.52a4.63,4.63,0,1,0-4.59-4.67A4.63,4.63,0,0,0,75,119.52Z"/><path class="cls-1" d="M126.47,146.71a4.63,4.63,0,1,0-4.6-4.67A4.63,4.63,0,0,0,126.47,146.71Z"/></g></g></svg>