<svg xmlns="http://www.w3.org/2000/svg" viewBox="0 0 180.53 187.95"><defs><style>.cls-1{fill:#922160;}</style></defs><g id="Layer_2" data-name="Layer 2"><g id="BG"><path class="cls-1" d="M126.54,181.56a90.85,90.85,0,0,0,31.14-22.26.57.57,0,1,1,.85.77A91.67,91.67,0,0,1,127,182.62a.44.44,0,0,1-.22,0,.56.56,0,0,1-.53-.35A.58.58,0,0,1,126.54,181.56Z"/><path class="cls-1" d="M25.62,160.59A89.47,89.47,0,0,0,72,186.81a.58.58,0,0,1-.13,1.14h-.12a90.51,90.51,0,0,1-46.95-26.56.57.57,0,1,1,.83-.79Z"/><path class="cls-1" d="M40.23,23.38a.58.58,0,0,1,.8.15.57.57,0,0,1-.16.8A89.89,89.89,0,0,0,1.15,98.94a.57.57,0,0,1-.57.58A.58.58,0,0,1,0,98.94,91,91,0,0,1,40.23,23.38Z"/><path class="cls-1" d="M170.56,55.71a.59.59,0,0,1-.79-.23,89.86,89.86,0,0,0-49.88-41.72.58.58,0,1,1,.37-1.09,91,91,0,0,1,50.52,42.25A.58.58,0,0,1,170.56,55.71Z"/><path class="cls-1" d="M1.66,149.14a.6.6,0,0,0,0,.58.61.61,0,0,0,.51.3H28.25a81.38,81.38,0,0,0,34.19,24.69c0,.11,0,.22,0,.34a3.38,3.38,0,0,0,6.28,1.74A81,81,0,0,0,153.86,150H180a.58.58,0,0,0,.5-.3.6.6,0,0,0,0-.58L167.11,126.8a81,81,0,0,0-64.51-108L91.55.26a.6.6,0,0,0-1,0l-11,18.51a79.9,79.9,0,0,0-14.69,3.54A6.19,6.19,0,0,0,53.06,25a6.35,6.35,0,0,0,.4,2.19A81,81,0,0,0,15,126.8ZM78.74,20.05l-7,11.81a70.11,70.11,0,0,0-39.75,30,4.39,4.39,0,0,0-4.17,7.63,70,70,0,0,0-4.95,44.23l-7,11.81A79.84,79.84,0,0,1,54,28.25,6.19,6.19,0,0,0,65.45,25a6.28,6.28,0,0,0-.22-1.63A79.16,79.16,0,0,1,78.74,20.05Zm40,140.17a5.26,5.26,0,0,0,.21,1.43A68.58,68.58,0,0,1,45.23,150h91.65a69.22,69.22,0,0,1-9.29,7,5,5,0,0,0-8.81,3.18Zm36.31-86a4.59,4.59,0,0,1-1.45.23,4.72,4.72,0,0,1-2.53-8.71,4.6,4.6,0,0,1,1-.5,4.55,4.55,0,0,1,1.48-.24,4.72,4.72,0,0,1,2.5,8.73A4.2,4.2,0,0,1,155.09,74.19Zm.41,1.08a68.66,68.66,0,0,1,2.91,37L136.12,74.9c-.26-.47-.52-.94-.79-1.41a.36.36,0,0,0,0-.09.31.31,0,0,0-.07-.09c-.49-.85-1-1.68-1.55-2.5L111.29,33.33A69,69,0,0,1,150.54,64.7a5.88,5.88,0,0,0,3.1,10.88A5.71,5.71,0,0,0,155.5,75.27ZM109.66,32.85l18.57,31.09-1-1a.64.64,0,0,0-.1-.13l-.13-.1a51.13,51.13,0,0,0-10.36-7.95.31.31,0,0,0-.09-.07l-.1-.05a51,51,0,0,0-50.87,0l-.11.05-.09.07a51.34,51.34,0,0,0-10.35,7.95l-.13.1a.45.45,0,0,0-.1.14q-.5.48-1,1l18.57-31.1a68.89,68.89,0,0,1,37.21,0ZM91.05,29.13A69.76,69.76,0,0,0,73.3,31.42l6.92-11.58a79.69,79.69,0,0,1,21.67,0l6.92,11.58A69.78,69.78,0,0,0,91.05,29.13ZM33.64,66a3.25,3.25,0,0,1-4.37,3,3.42,3.42,0,0,1-1-.59,3.25,3.25,0,0,1,2.12-5.7,3.52,3.52,0,0,1,.92.13,3.57,3.57,0,0,1,1,.52A3.28,3.28,0,0,1,33.64,66ZM33,62.39A69,69,0,0,1,70.81,33.33L48.42,70.84c-.54.81-1.05,1.63-1.54,2.47l-.06.09a.36.36,0,0,0,0,.09c-.27.46-.52.91-.77,1.37L23.7,112.24a68.63,68.63,0,0,1,5.08-42.19A4.4,4.4,0,0,0,33,62.39ZM47,75.44l.55-.94,10.21,5.9c-1,.78-1.93,1.56-2.81,2.33-1.8,1.55-3.47,3.11-5,4.61l-7-1.88A49.2,49.2,0,0,1,47,75.44Zm9.16,59.19L67,123.82a61.86,61.86,0,0,0,7,3.52L65.6,141.87A50,50,0,0,1,56.18,134.63Zm60.33,7.24-8.39-14.53a61.86,61.86,0,0,0,7-3.52l10.81,10.81A50.32,50.32,0,0,1,116.51,141.87Zm10.24-8.06-10.61-10.6a80.27,80.27,0,0,0,7.2-5L134,124.39A50,50,0,0,1,126.75,133.81Zm-.82-70.56L115.12,74.06a61.91,61.91,0,0,0-7-3.53L116.51,56A50.37,50.37,0,0,1,125.93,63.25ZM90.48,49v17.8a39.22,39.22,0,0,0-7.22.8L78.69,50.56A49.79,49.79,0,0,1,90.48,49ZM65.6,56,74,70.53a61.91,61.91,0,0,0-7,3.53L56.18,63.25A50,50,0,0,1,65.6,56ZM55.36,64.06,66,74.67a76.5,76.5,0,0,0-7.21,5L48.17,73.51l1.23-2.06A50.47,50.47,0,0,1,55.36,64.06ZM42.21,98.36A95.72,95.72,0,0,1,55.42,90L57,89.2a93,93,0,0,1,9.12-4c.46-.18.94-.35,1.41-.52,2.08-.74,4.24-1.42,6.47-2,.43-.12.86-.23,1.3-.33,1.61-.4,3.26-.75,4.94-1l1.22-.2c.56-.09,1.13-.16,1.69-.24-.48.22-1,.45-1.42.7s-.68.38-1,.58a19.94,19.94,0,0,0-3.18,2.45c-.28.26-.55.53-.82.81a19.31,19.31,0,0,0-2.44,3.18c-.21.33-.4.66-.58,1a19.21,19.21,0,0,0-1.54,3.71c-.11.36-.21.74-.3,1.11a19.36,19.36,0,0,0-.52,4c0,.19,0,.39,0,.58s0,.38,0,.58a19.45,19.45,0,0,0,.52,4q.14.56.3,1.11a19.48,19.48,0,0,0,1.54,3.71c.18.34.37.67.58,1a19.24,19.24,0,0,0,2.44,3.17c.27.28.54.56.82.82a19.94,19.94,0,0,0,3.18,2.45c.32.2.66.39,1,.58s.94.48,1.42.69l-1.69-.23-1.22-.2c-1.68-.29-3.33-.64-4.94-1l-1.3-.33c-2.23-.59-4.39-1.27-6.47-2l-1.41-.52a92.93,92.93,0,0,1-9.12-4l-1.53-.78a95.72,95.72,0,0,1-13.21-8.37l-.74-.58C41.66,98.78,41.91,98.59,42.21,98.36Zm97.69,1.16a95.37,95.37,0,0,1-13.22,8.37l-1.52.78a90.61,90.61,0,0,1-9.12,4l-1.41.52c-2.08.74-4.24,1.42-6.47,2l-1.3.33c-1.62.4-3.26.75-4.94,1l-1.22.2L99,117c.49-.21,1-.44,1.43-.69l1-.58a19.94,19.94,0,0,0,3.18-2.45c.28-.26.55-.54.82-.82a20,20,0,0,0,2.44-3.18c.2-.32.4-.66.58-1a20.14,20.14,0,0,0,1.54-3.71q.17-.56.3-1.11a20.17,20.17,0,0,0,.52-4c0-.2,0-.39,0-.58s0-.39,0-.58a20.07,20.07,0,0,0-.52-4c-.09-.37-.19-.75-.3-1.11a19.86,19.86,0,0,0-1.54-3.71c-.18-.34-.38-.67-.58-1a20.48,20.48,0,0,0-2.44-3.18c-.27-.28-.54-.55-.82-.81a19.94,19.94,0,0,0-3.18-2.45c-.33-.2-.66-.4-1-.58s-.94-.48-1.43-.7l1.7.24,1.21.2c1.69.29,3.33.64,5,1,.44.1.87.21,1.3.33,2.23.59,4.39,1.27,6.47,2l1.41.52a93,93,0,0,1,9.12,4c.52.26,1,.53,1.52.79a95.37,95.37,0,0,1,13.22,8.37c.3.23.55.42.74.58ZM91.05,80.33h.58a17.91,17.91,0,0,1,3.68.48c.38.09.75.19,1.12.3a18.68,18.68,0,0,1,3.42,1.42c.34.18.68.38,1,.58a19.13,19.13,0,0,1,2.94,2.26c.28.27.56.54.82.82a18,18,0,0,1,2.26,2.94c.2.33.4.66.58,1a17.83,17.83,0,0,1,1.42,3.43,10.06,10.06,0,0,1,.3,1.11,18.63,18.63,0,0,1,.49,3.68c0,.19,0,.39,0,.58s0,.38,0,.58a18.63,18.63,0,0,1-.49,3.68,11.42,11.42,0,0,1-.3,1.11,17.83,17.83,0,0,1-1.42,3.43c-.18.34-.38.67-.58,1a18.38,18.38,0,0,1-2.26,2.94c-.26.28-.54.55-.82.81a18.58,18.58,0,0,1-2.94,2.27c-.32.2-.66.39-1,.58a18.68,18.68,0,0,1-3.42,1.42c-.37.11-.74.21-1.12.3a18.63,18.63,0,0,1-3.68.48H90.48a18.63,18.63,0,0,1-3.69-.48q-.56-.14-1.11-.3a18.77,18.77,0,0,1-3.43-1.42l-1-.58a19,19,0,0,1-2.94-2.27q-.42-.39-.81-.81a18.38,18.38,0,0,1-2.26-2.94c-.21-.33-.4-.66-.58-1a17.86,17.86,0,0,1-1.43-3.43q-.17-.56-.3-1.11a18.63,18.63,0,0,1-.48-3.68c0-.2,0-.39,0-.58s0-.39,0-.58a18.63,18.63,0,0,1,.48-3.68q.13-.57.3-1.11a17.86,17.86,0,0,1,1.43-3.43c.18-.34.37-.67.58-1A18,18,0,0,1,77.5,86.2c.26-.28.53-.55.81-.82a19.62,19.62,0,0,1,2.94-2.26c.33-.2.66-.4,1-.58a18.77,18.77,0,0,1,3.43-1.42q.55-.16,1.11-.3a17.92,17.92,0,0,1,3.69-.48Zm47.27,21.78c-1.59,1.9-3.8,4.41-6.54,7.14l-.95.94c-1.37,1.34-2.87,2.72-4.46,4.1-1,.84-2,1.7-3.12,2.57-.32.25-.65.51-1,.76a74.94,74.94,0,0,1-7,4.75c-.34.2-.68.41-1,.6a58.69,58.69,0,0,1-6.73,3.37l-1.08.44a47.62,47.62,0,0,1-6.78,2.12c-.38.09-.75.17-1.13.24a38.78,38.78,0,0,1-6.92.76H90.48a38.68,38.68,0,0,1-6.92-.76c-.38-.07-.76-.15-1.13-.24a47.22,47.22,0,0,1-6.78-2.12l-1.08-.44A59.67,59.67,0,0,1,67.83,123l-1-.6a74.94,74.94,0,0,1-7-4.75c-.34-.25-.67-.51-1-.76-1.1-.87-2.14-1.73-3.12-2.57-1.6-1.38-3.09-2.76-4.46-4.1-.33-.31-.64-.63-1-.94-2.74-2.73-4.95-5.24-6.54-7.14a100.05,100.05,0,0,0,10,6.21l1.49.8a96.55,96.55,0,0,0,9.5,4.32l1.39.53c2.18.8,4.47,1.55,6.83,2.2l1.29.34c1.72.44,3.48.83,5.28,1.15l1.21.21c1.46.23,2.94.42,4.44.56l1.17.1c1.35.1,2.71.16,4.08.17h1.15c1.37,0,2.73-.07,4.08-.17l1.16-.1c1.5-.14,3-.33,4.44-.56l1.22-.21c1.8-.32,3.56-.71,5.28-1.15l1.29-.34c2.36-.65,4.65-1.4,6.83-2.2l1.39-.53a97.63,97.63,0,0,0,9.5-4.32l1.49-.8A100.05,100.05,0,0,0,138.32,102.11ZM43.79,95.77c1.59-1.9,3.8-4.41,6.54-7.15l1-.94c1.37-1.34,2.86-2.72,4.46-4.09,1-.85,2-1.71,3.12-2.57.32-.26.65-.51,1-.77a76.9,76.9,0,0,1,7-4.74c.33-.21.68-.41,1-.61a59.61,59.61,0,0,1,6.74-3.36l1.08-.44A46,46,0,0,1,82.43,69l1.13-.25A37.78,37.78,0,0,1,90.48,68h1.15a37.88,37.88,0,0,1,6.92.75l1.13.25a46,46,0,0,1,6.78,2.12l1.08.44a58.64,58.64,0,0,1,6.73,3.36l1,.61a76.9,76.9,0,0,1,7,4.74c.34.26.67.51,1,.77,1.1.86,2.14,1.72,3.12,2.57,1.59,1.37,3.09,2.75,4.46,4.09l.95.94c2.74,2.74,4.95,5.25,6.54,7.15a98.69,98.69,0,0,0-10-6.22c-.49-.26-1-.53-1.49-.79a95.3,95.3,0,0,0-9.5-4.32l-1.39-.53c-2.18-.81-4.47-1.55-6.83-2.2l-1.29-.34c-1.72-.44-3.48-.83-5.28-1.15L101.31,80c-1.46-.23-2.94-.42-4.44-.56l-1.16-.1q-2-.15-4.08-.18H90.48q-2.06,0-4.08.18l-1.17.1c-1.5.14-3,.33-4.44.56l-1.21.21c-1.8.32-3.56.71-5.28,1.15L73,81.71c-2.36.65-4.65,1.39-6.83,2.2l-1.39.53a94.28,94.28,0,0,0-9.5,4.32c-.51.26-1,.53-1.49.79A98.69,98.69,0,0,0,43.79,95.77ZM66.6,55.42a50.06,50.06,0,0,1,11-4.56l4.55,17a48.42,48.42,0,0,0-7.07,2.23Zm25-6.4a49.86,49.86,0,0,1,11.79,1.54L98.85,67.62a39.22,39.22,0,0,0-7.22-.8Zm23.88,6.4L107,70.09A48.29,48.29,0,0,0,100,67.86l4.55-17A50.06,50.06,0,0,1,115.51,55.42Zm17.18,16,1.25,2.09-10.6,6.12a76.9,76.9,0,0,0-7.2-5l10.61-10.61A50.75,50.75,0,0,1,132.69,71.42Zm6.44,14-7,1.88c-1.52-1.5-3.19-3.06-5-4.61-.89-.77-1.83-1.55-2.81-2.33l10.2-5.9.58,1A49.7,49.7,0,0,1,139.13,85.46ZM141,97.18a108.44,108.44,0,0,0-7.88-8.9l6.36-1.71A50.19,50.19,0,0,1,141,97.18Zm0,3.51a50.1,50.1,0,0,1-1.52,10.61l-6.36-1.7A106.49,106.49,0,0,0,141,100.69Zm-1.82,11.73a50.19,50.19,0,0,1-4.56,11l-10.25-5.91c1-.79,1.93-1.57,2.82-2.33,1.8-1.55,3.47-3.11,5-4.61Zm-23.62,30a49.11,49.11,0,0,1-11,4.56L100,130a47.08,47.08,0,0,0,7.06-2.22Zm-12.09,4.86a49.86,49.86,0,0,1-11.79,1.55V131.05a39.21,39.21,0,0,0,7.22-.79Zm-12.94,1.55a49.79,49.79,0,0,1-11.79-1.55l4.57-17.05a39.21,39.21,0,0,0,7.22.79ZM66.6,142.45l8.46-14.66A47.2,47.2,0,0,0,82.13,130l-4.55,17A49.11,49.11,0,0,1,66.6,142.45ZM48.12,124.39l10.64-6.14a80.46,80.46,0,0,0,7.21,5l-10.61,10.6A50,50,0,0,1,48.12,124.39Zm-5.14-12,7-1.88c1.52,1.5,3.19,3.06,5,4.61.89.76,1.83,1.54,2.81,2.33l-10.24,5.91A49.7,49.7,0,0,1,43,112.42Zm-1.82-11.73A106.49,106.49,0,0,0,49,109.6l-6.36,1.7A50.1,50.1,0,0,1,41.16,100.69Zm0-3.51a50.19,50.19,0,0,1,1.52-10.61L49,88.28A108.44,108.44,0,0,0,41.16,97.18Zm97,51.68H101.88a50.52,50.52,0,0,0,14.62-5.65l.09,0,.09-.06a51.49,51.49,0,0,0,10.36-8l.13-.1a.45.45,0,0,0,.1-.14,51.76,51.76,0,0,0,8-10.35l.06-.09s0-.07.05-.1a51.09,51.09,0,0,0,4.22-41.45l18.5,31A68.61,68.61,0,0,1,138.13,148.86Zm20.79-33.52,6.91,11.58a79.57,79.57,0,0,1-12.52,21.94H139.8A69.78,69.78,0,0,0,158.92,115.34ZM44,148.86a68.59,68.59,0,0,1-19.92-35l18.5-31a51.11,51.11,0,0,0,4.22,41.46s0,.07,0,.1l.06.08a51.49,51.49,0,0,0,7.95,10.36.67.67,0,0,0,.11.14.71.71,0,0,0,.14.1,51.37,51.37,0,0,0,10.34,8l.09.06.1.05a50.79,50.79,0,0,0,14.62,5.64Zm-1.66,0H28.79a79.79,79.79,0,0,1-12.51-21.94l6.91-11.58A69.78,69.78,0,0,0,42.31,148.86ZM101.14,18.57a82.33,82.33,0,0,0-20.17,0L91.05,1.68Zm65.2,107-7.05-11.81a70,70,0,0,0-2.73-38.91,5.88,5.88,0,0,0-5-10.61,70.13,70.13,0,0,0-41.16-32.33l-7.06-11.81a79.86,79.86,0,0,1,63,105.47Zm-11.55,23.34a80.85,80.85,0,0,0,11.79-20.68l12.35,20.68ZM63.58,175.13v-.08a2.18,2.18,0,0,1,.26-1.05A2.23,2.23,0,0,1,68,175.05c0,.11,0,.22,0,.33a2.23,2.23,0,0,1-2.21,1.9A2.23,2.23,0,0,1,63.58,175.13ZM29.74,150H43.52a69.71,69.71,0,0,0,75.93,12.69,5,5,0,0,0,9.3-2.49,4.88,4.88,0,0,0-.53-2.22,69.39,69.39,0,0,0,10.37-8h13.78a79.78,79.78,0,0,1-83.25,25.69,3.51,3.51,0,0,0,.07-.66,3.39,3.39,0,0,0-6.44-1.46A80.24,80.24,0,0,1,29.74,150ZM3.17,148.86l12.35-20.68a81.18,81.18,0,0,0,11.8,20.68Z"/><path class="cls-1" d="M93,89.32a10.88,10.88,0,0,1,1.12.3,9.93,9.93,0,0,1,1.3.55,7.65,7.65,0,0,1,1,.58,9.25,9.25,0,0,1,1.12.86,9,9,0,0,1,.82.81,10.39,10.39,0,0,1,.86,1.12c.21.32.4.66.58,1a10.11,10.11,0,0,1,.84,2.42,10.71,10.71,0,0,1,.18,1.4c0,.19,0,.38,0,.58s0,.38,0,.58a10.94,10.94,0,0,1-.18,1.4,10.11,10.11,0,0,1-.84,2.42c-.18.34-.37.67-.58,1a10.28,10.28,0,0,1-.86,1.11,10.57,10.57,0,0,1-.82.82,10.39,10.39,0,0,1-1.12.86,9,9,0,0,1-1,.58,9.88,9.88,0,0,1-1.3.54,10.88,10.88,0,0,1-1.12.3,9.08,9.08,0,0,1-1.4.19H90.48a9.38,9.38,0,0,1-1.41-.19,10.7,10.7,0,0,1-1.11-.3,9.88,9.88,0,0,1-1.3-.54,9,9,0,0,1-1-.58,9.49,9.49,0,0,1-1.12-.86,10.57,10.57,0,0,1-.82-.82,10.28,10.28,0,0,1-.86-1.11c-.21-.33-.4-.66-.58-1a10.11,10.11,0,0,1-.84-2.42,9.41,9.41,0,0,1-.18-1.4c0-.2,0-.39,0-.58s0-.39,0-.58a9.24,9.24,0,0,1,.18-1.4,10.11,10.11,0,0,1,.84-2.42c.18-.34.37-.68.58-1a10.39,10.39,0,0,1,.86-1.12,9,9,0,0,1,.82-.81,8.53,8.53,0,0,1,1.12-.86,7.65,7.65,0,0,1,1-.58,9.93,9.93,0,0,1,1.3-.55,10.7,10.7,0,0,1,1.11-.3,10.87,10.87,0,0,1,1.41-.18l.57,0,.58,0A10.5,10.5,0,0,1,93,89.32Z"/></g></g></svg>