<svg xmlns="http://www.w3.org/2000/svg" xmlns:xlink="http://www.w3.org/1999/xlink" viewBox="0 0 228.69 228.09"><defs><style>.cls-1,.cls-2{fill:none;}.cls-2{clip-path:url(#clip-path);}.cls-3{fill:#922160;}.cls-4{fill:#f79521;}.cls-5{clip-path:url(#clip-path-2);}.cls-6{fill:#731745;}</style><clipPath id="clip-path"><circle class="cls-1" cx="114.34" cy="114.34" r="103.62"/></clipPath><clipPath id="clip-path-2" transform="translate(0 -0.3)"><circle class="cls-2" cx="114.34" cy="114.34" r="113.84"/></clipPath></defs><g id="Layer_2" data-name="Layer 2"><g id="BG"><circle class="cls-3" cx="114.34" cy="114.04" r="103.62"/><path class="cls-4" d="M227.69,114.31a114.9,114.9,0,0,1-5.45,34.91A113.13,113.13,0,0,1,51.81,209.13,114.1,114.1,0,0,1,9.35,157.24a113.42,113.42,0,0,1-8-34.09A114.66,114.66,0,0,1,4.17,87.59,113.33,113.33,0,0,1,226.37,97a115.93,115.93,0,0,1,1.32,17.36c0,.29,1,.34,1,.07a114.9,114.9,0,0,0-5.56-35.25A114.22,114.22,0,0,0,118.84.39,115.26,115.26,0,0,0,83.49,4.47,113.65,113.65,0,0,0,52,18.69,114.45,114.45,0,0,0,8.6,70.83,113.37,113.37,0,0,0,.35,105.38,114.14,114.14,0,0,0,101,227.62a115.87,115.87,0,0,0,36-1.45,114,114,0,0,0,90.33-94.12,116.25,116.25,0,0,0,1.37-17.67C228.69,114.09,227.69,114,227.69,114.31Z" transform="translate(0 -0.3)"/><path class="cls-4" d="M160.25,61.47a22.35,22.35,0,0,0-4.2.36h0c.64-1.14,2.14-3.13,2.14-3.13a13.72,13.72,0,0,1-1-3.46,27,27,0,0,1,3.17.9c.22,0,1.76-1.69,2.74-2.09a24.11,24.11,0,0,1-.25,3.52c1.16.52,2.69,1.23,3.83,1.86-.86.25-3.71,1-3.71,1a20.57,20.57,0,0,1-.65,3.39Z" transform="translate(0 -0.3)"/><path class="cls-4" d="M16.92,113.14a22.15,22.15,0,0,1,2.15,3.63h0c.55-1.19,1.3-3.57,1.3-3.57a13.65,13.65,0,0,0,3.4-1.19,25.47,25.47,0,0,0-2.58-2.07c-.1-.18.36-2.41.12-3.45a25.87,25.87,0,0,0-2.72,2.26c-1.1-.65-2.56-1.49-3.74-2,.3.85,1.37,3.58,1.37,3.58a20.27,20.27,0,0,0-2.39,2.5Z" transform="translate(0 -0.3)"/><path class="cls-4" d="M30.31,93.24a22.08,22.08,0,0,1,3.62,2.17h0c-.08-1.31-.55-3.76-.55-3.76A13.61,13.61,0,0,0,35.81,89a27.47,27.47,0,0,0-3.25-.59c-.18-.12-.84-2.3-1.54-3.09a25.41,25.41,0,0,0-1.32,3.27c-1.28,0-3-.09-4.26,0,.66.61,2.9,2.5,2.9,2.5a20,20,0,0,0-.91,3.34Z" transform="translate(0 -0.3)"/><path class="cls-4" d="M86.45,31.22a21.78,21.78,0,0,1,1.48-3.94h0c-1.27.31-3.6,1.22-3.6,1.22a14,14,0,0,0-3.06-1.9,27.25,27.25,0,0,0,0,3.3c-.08.2-2.11,1.24-2.76,2.08a24.67,24.67,0,0,0,3.46.7c.19,1.26.45,2.93.75,4.19.48-.76,1.94-3.3,1.94-3.3a20,20,0,0,0,3.44.28Z" transform="translate(0 -0.3)"/><path class="cls-4" d="M150.61,33.67a22.14,22.14,0,0,0,1.1-4.07h0c.85,1,2.21,3.09,2.21,3.09a13.68,13.68,0,0,1,3.59.25,26.7,26.7,0,0,1-1.94,2.67c0,.21,1,2.24,1,3.3a25.28,25.28,0,0,1-3.22-1.45c-.89.91-2.08,2.11-3.06,3,.05-.89.37-3.81.37-3.81a20.28,20.28,0,0,1-3-1.78Z" transform="translate(0 -0.3)"/><path class="cls-4" d="M182.56,57a22.89,22.89,0,0,0-2.12-3.63h0c1.3.09,3.74.59,3.74.59a13.84,13.84,0,0,1,2.7-2.39,26.25,26.25,0,0,1,.55,3.26c.11.18,2.28.87,3.07,1.57a24.57,24.57,0,0,1-3.29,1.28c0,1.28,0,3,0,4.26-.6-.66-2.46-2.93-2.46-2.93a20.54,20.54,0,0,1-3.35.87Z" transform="translate(0 -0.3)"/><path class="cls-4" d="M204.22,105.91a21.49,21.49,0,0,0,.11,4.21h0c-1.1-.71-3-2.33-3-2.33a13.47,13.47,0,0,1-3.52.79,28.64,28.64,0,0,1,1.09-3.11c0-.22-1.58-1.86-1.92-2.87a27,27,0,0,1,3.5.47c.58-1.13,1.38-2.62,2.08-3.72.2.88.74,3.76.74,3.76a20.8,20.8,0,0,1,3.35.85Z" transform="translate(0 -0.3)"/><path class="cls-4" d="M201,148.89a21.94,21.94,0,0,1-2.72,3.22h0c1.3.13,3.79.06,3.79.06a13.81,13.81,0,0,0,2.26,2.81,27.21,27.21,0,0,0,1.09-3.11c.14-.17,2.4-.46,3.3-1a24.81,24.81,0,0,0-3-1.82c.25-1.25.56-2.92.7-4.21-.7.56-2.93,2.47-2.93,2.47a21,21,0,0,0-3.15-1.42Z" transform="translate(0 -0.3)"/><path class="cls-4" d="M67.47,54.21a22.71,22.71,0,0,1-.81,4.14h0c1.2-.52,3.34-1.8,3.34-1.8a14,14,0,0,0,3.34,1.37,27.88,27.88,0,0,0-.56-3.26c0-.21,1.88-1.57,2.39-2.5A24.65,24.65,0,0,0,71.64,52c-.39-1.21-.93-2.81-1.43-4-.35.83-1.37,3.59-1.37,3.59a20.2,20.2,0,0,0-3.44.28Z" transform="translate(0 -0.3)"/><path class="cls-4" d="M51,52.32a23.08,23.08,0,0,1,3.62,2.15h0c-.09-1.3-.57-3.75-.57-3.75A14,14,0,0,0,56.46,48a27.23,27.23,0,0,0-3.26-.57c-.18-.11-.85-2.29-1.55-3.08a22.82,22.82,0,0,0-1.3,3.28c-1.28-.05-3-.08-4.27,0,.67.6,2.91,2.48,2.91,2.48a21,21,0,0,0-.89,3.34Z" transform="translate(0 -0.3)"/><path class="cls-4" d="M49.72,82.32A1.9,1.9,0,0,0,50,85.86c2.07.69,3.41-2.5,1.6-3.53A1.84,1.84,0,0,0,49.72,82.32Z" transform="translate(0 -0.3)"/><path class="cls-4" d="M92.1,54.42a1.9,1.9,0,0,0-2-2.9c-2.13.48-1.63,3.9.45,3.85A1.85,1.85,0,0,0,92.1,54.42Z" transform="translate(0 -0.3)"/><path class="cls-4" d="M139.67,24.85a1.91,1.91,0,0,0-.26-3.55c-2.08-.69-3.41,2.5-1.6,3.53A1.87,1.87,0,0,0,139.67,24.85Z" transform="translate(0 -0.3)"/><path class="cls-4" d="M200.29,162a1.91,1.91,0,0,0,2.05,2.91c2.13-.48,1.63-3.9-.45-3.85A1.86,1.86,0,0,0,200.29,162Z" transform="translate(0 -0.3)"/><path class="cls-4" d="M167.33,46.94a1.9,1.9,0,0,0-.26-3.54c-2.07-.69-3.4,2.5-1.59,3.53A1.83,1.83,0,0,0,167.33,46.94Z" transform="translate(0 -0.3)"/><path class="cls-4" d="M31.6,103.22a1.9,1.9,0,0,0,2,2.9c2.14-.48,1.63-3.9-.44-3.85A1.84,1.84,0,0,0,31.6,103.22Z" transform="translate(0 -0.3)"/><path class="cls-4" d="M20.11,125.68a1.91,1.91,0,0,0,.26,3.55c2.07.69,3.41-2.51,1.6-3.53A1.85,1.85,0,0,0,20.11,125.68Z" transform="translate(0 -0.3)"/><path class="cls-4" d="M43.26,98.08a1.9,1.9,0,0,0-2-2.9c-2.13.47-1.63,3.9.45,3.85A1.86,1.86,0,0,0,43.26,98.08Z" transform="translate(0 -0.3)"/><path class="cls-4" d="M198.93,115.5a1.9,1.9,0,0,0,.26,3.54c2.07.69,3.4-2.5,1.59-3.53A1.83,1.83,0,0,0,198.93,115.5Z" transform="translate(0 -0.3)"/><path class="cls-4" d="M101.49,22.39a1.91,1.91,0,0,0-2-2.91c-2.13.48-1.63,3.9.45,3.85A1.84,1.84,0,0,0,101.49,22.39Z" transform="translate(0 -0.3)"/><path class="cls-4" d="M147.47,59.71a1.91,1.91,0,0,0-.26-3.55c-2.07-.69-3.41,2.51-1.6,3.53A1.85,1.85,0,0,0,147.47,59.71Z" transform="translate(0 -0.3)"/><path class="cls-4" d="M26.06,160.76a1.9,1.9,0,0,0,2,2.91c2.14-.48,1.63-3.9-.45-3.85A1.82,1.82,0,0,0,26.06,160.76Z" transform="translate(0 -0.3)"/><path class="cls-4" d="M195,72.93a1.9,1.9,0,0,0,.25,3.54c2.08.7,3.41-2.5,1.6-3.52A1.83,1.83,0,0,0,195,72.93Z" transform="translate(0 -0.3)"/><path class="cls-4" d="M34.58,67.45a1.9,1.9,0,0,0,2,2.9c2.14-.47,1.63-3.9-.45-3.85A1.83,1.83,0,0,0,34.58,67.45Z" transform="translate(0 -0.3)"/><path class="cls-4" d="M50.46,67.6a1.9,1.9,0,0,0-.26-3.54c-2.07-.69-3.4,2.5-1.59,3.53A1.83,1.83,0,0,0,50.46,67.6Z" transform="translate(0 -0.3)"/><path class="cls-4" d="M82.19,48a1.91,1.91,0,0,0,2,2.91c2.13-.48,1.63-3.9-.45-3.85A1.85,1.85,0,0,0,82.19,48Z" transform="translate(0 -0.3)"/><path class="cls-4" d="M65.06,35.75a1.9,1.9,0,0,0,.26,3.54c2.07.7,3.4-2.5,1.59-3.52A1.8,1.8,0,0,0,65.06,35.75Z" transform="translate(0 -0.3)"/><path class="cls-4" d="M176.28,73a1.9,1.9,0,0,0,2.05,2.9c2.13-.47,1.63-3.9-.45-3.84A1.83,1.83,0,0,0,176.28,73Z" transform="translate(0 -0.3)"/><path class="cls-4" d="M184.46,99.49A1.9,1.9,0,0,0,184.2,96c-2.07-.69-3.4,2.5-1.6,3.53A1.84,1.84,0,0,0,184.46,99.49Z" transform="translate(0 -0.3)"/><path class="cls-4" d="M22.56,142.34a1.9,1.9,0,0,0,2,2.9c2.14-.47,1.63-3.9-.45-3.85A1.83,1.83,0,0,0,22.56,142.34Z" transform="translate(0 -0.3)"/><path class="cls-4" d="M205,134.13a1.9,1.9,0,0,0,.26,3.54c2.07.7,3.4-2.5,1.6-3.52A1.82,1.82,0,0,0,205,134.13Z" transform="translate(0 -0.3)"/><path class="cls-4" d="M191.66,83.68a1.9,1.9,0,0,0-2-2.9c-2.13.48-1.63,3.9.45,3.85A1.85,1.85,0,0,0,191.66,83.68Z" transform="translate(0 -0.3)"/><path class="cls-4" d="M115.29,42.51a16.8,16.8,0,0,0-1.61-2.83,6.36,6.36,0,0,0-3-2,8.28,8.28,0,0,0-7.51,1.45c-2.61,1.84-3.05,5.26-2,8.12a6.72,6.72,0,0,0,7.2,4.59c3.79-.45,7.61-3.9,7.23-7.91-.2-2.12-1.41-3.77-2.24-5.66A17,17,0,0,1,112,33.35c-.38-3.11.21-6.7,3-8.53a7.18,7.18,0,0,1,5.22-1.06,6.41,6.41,0,0,1,4.26,4.35c1.94,5.53-3,10-5.76,14.21a11.35,11.35,0,0,0-2.21,6.86A5.62,5.62,0,0,0,119.46,54a6.76,6.76,0,0,0,5.59.43,5.48,5.48,0,0,0,2.84-3.17,5.37,5.37,0,0,0-.2-3.17c-.16-.51-2.13-.5-1.94.11a4.82,4.82,0,0,1,.1,3.07,4.91,4.91,0,0,1-1,1.55,2.81,2.81,0,0,1-3.47.91,4.88,4.88,0,0,1-2.81-4.43,10.87,10.87,0,0,1,2.12-6.65c2.58-3.94,6.91-7.85,6.18-13a8.08,8.08,0,0,0-3.1-5.36,8.78,8.78,0,0,0-5.87-1.37c-3.34.3-6.34,2-7.46,5.27-1,3-.46,6.35.61,9.22.64,1.7,1.74,3.2,2.28,4.93a6.17,6.17,0,0,1-.7,5.41A8.27,8.27,0,0,1,108,51a3.2,3.2,0,0,1-3-.85,7.69,7.69,0,0,1-2.22-7.56,5.85,5.85,0,0,1,3-3.56A5,5,0,0,1,109,38.1,4.72,4.72,0,0,1,111.9,40a19.75,19.75,0,0,1,1.45,2.63c.27.51,2.2.39,1.94-.11Z" transform="translate(0 -0.3)"/><g class="cls-5"><path class="cls-3" d="M189.36,119.93c-4.59-5.28-10.37-7.49-12.23-15a18,18,0,0,0,10.44,6.2c-5.48-1-8.63-6.85-10-12.26s-1.79-11.3-5.1-15.78a14.93,14.93,0,0,0-13.63-5.78,4.11,4.11,0,0,1-2.67-.17,4.15,4.15,0,0,1-1.39-2.3,14.69,14.69,0,0,0-9.12-8.8c-3.68-1.2-7-.32-10.7-.35-3.22,0-6.58-.72-9.82-1a89.66,89.66,0,0,0-21.28.45c-5.42.87-10.6-.91-16.07-.16-6,.83-11.77,3.9-13.94,9.84a4.11,4.11,0,0,1-1.4,2.3,4.08,4.08,0,0,1-2.66.17,14.91,14.91,0,0,0-13.63,5.78c-3.32,4.48-3.75,10.37-5.1,15.78s-4.5,11.22-10,12.26a18.09,18.09,0,0,0,10.44-6.2c-1.86,7.54-7.64,9.75-12.24,15-4.27,4.91-7.52,10.72-6.58,17.45.75,5.35,6.18,9.56,5.66,14.94-.21,2.15-1.37,4.07-2.23,6.05s-1.44,4.31-.48,6.24c1.14,2.31,4.09,3.31,5.14,5.65.86,1.9.23,4.1.09,6.18s.67,4.66,2.73,5a5,5,0,0,1,2.69-6.68c-.27,2.63-.38,7.53,1.44,9.44,1.28,1.34,5,4.83,6.74,3.75,1.36-.87.92-5.43,1.4-6.93-.68,12,13.27,18.83,23.08,21l-.94-4c.4,1.7,7.22,4.81,8.9,5.87,3.34,2.1,7.15,2.51,10.91,3.48a27,27,0,0,1,11.47,6.22c.63-.84,1.32-1.71,1.83-2.45s1.23-1.38,1.3-1a7.08,7.08,0,0,0,1.51,2.8c2.2-1.45,3.9-2.76,6.51-3.1a7.16,7.16,0,0,0,.23,2.81c.53,1,10.5-6.33,11.35-6.73,4.46-2.14,10.43-3,15.28-3.86,4-.74,8.12-1.27,11.88-2.87,7.2-3.06,11.61-10.92,13.5-18.15.74.82.47,6.35,1.44,7,1.69,1.08,5.46-2.41,6.73-3.75,1.83-1.91,1.72-6.81,1.45-9.44a5,5,0,0,1,2.69,6.68c2.06-.34,2.87-2.91,2.73-5s-.78-4.28.08-6.18c1.06-2.34,4-3.34,5.15-5.65,1-1.93.38-4.27-.48-6.24s-2-3.9-2.23-6.05c-.52-5.38,4.91-9.59,5.66-14.94C196.89,130.65,193.64,124.84,189.36,119.93Z" transform="translate(0 -0.3)"/><path class="cls-4" d="M189.85,119.87c-2.14-2.44-4.73-4.37-7.07-6.6a17.46,17.46,0,0,1-5.15-8.38l-1,.07a18.63,18.63,0,0,0,10.67,6.31c.3.06,1.13-.22.5-.35-6.09-1.23-8.82-8-10-13.39-1.39-6.19-2.14-13.11-7.52-17.29a15.67,15.67,0,0,0-8.08-3.19,35,35,0,0,0-4.58.17c-1.9,0-2.2-2.37-2.84-3.7a14.93,14.93,0,0,0-6-6.44,16.49,16.49,0,0,0-9.59-1.82,43.82,43.82,0,0,1-5.73.14c-1.91-.13-3.8-.42-5.7-.65a96.92,96.92,0,0,0-11.8-.68,75.35,75.35,0,0,0-11.72.79c-3.93.6-7.76,0-11.7-.23-5.78-.29-12.06,1.14-16.2,5.45a13.33,13.33,0,0,0-2.47,3.57c-.31.65-.52,1.33-.79,2a2.13,2.13,0,0,1-2.37,1.54,22.4,22.4,0,0,0-4.33-.12,16.08,16.08,0,0,0-4.15,1,14.86,14.86,0,0,0-7,5.57,26,26,0,0,0-3.31,8.9c-1.27,5.83-2.17,12.66-7.23,16.59a9.18,9.18,0,0,1-3.85,1.78c-.63.13.22.39.51.34A18.61,18.61,0,0,0,52,104.94l-1,0a16.74,16.74,0,0,1-4.1,7.33c-1.85,2-4,3.58-6,5.43-4.24,4-8,9.32-8.77,15.23a14.45,14.45,0,0,0,1.39,8.53c1.28,2.54,3.09,4.88,3.92,7.62a8.3,8.3,0,0,1,.24,4.11,23.58,23.58,0,0,1-2,4.9c-1.24,2.77-1.75,5.85.58,8.18a34.83,34.83,0,0,1,3.35,3.07c1.24,1.59,1.1,3.52.87,5.42-.3,2.49-.36,6.25,2.8,6.88.13,0,.86,0,.73-.23a4.91,4.91,0,0,1,2.57-6.48l-.86-.13a22.84,22.84,0,0,0,.09,6.18,8,8,0,0,0,.87,2.64,7.77,7.77,0,0,0,1.52,1.67c1.45,1.34,6.24,5.29,7.38,1.59.58-1.89.16-3.95.72-5.84l-1,0c-.48,9.63,8.31,15.85,16.33,19a46.38,46.38,0,0,0,7,2.15c.1,0,.81.06.75-.18l-.94-4h-1c.35,1.25,2.11,2.13,3.12,2.74,1.61,1,3.3,1.82,5,2.72.79.44,1.56.93,2.37,1.33a21.88,21.88,0,0,0,4,1.42,77.39,77.39,0,0,1,8.64,2.3,27,27,0,0,1,8.26,5.17.83.83,0,0,0,.92-.07c.84-1.12,1.69-2.24,2.59-3.32.3-.2.17-.18-.39.07,0,.1.06.2.1.3a2.07,2.07,0,0,0,.28.67,15.69,15.69,0,0,0,1.09,1.61c.15.23.71.16.91,0,2-1.29,3.84-2.65,6.22-3l-.64-.18c-.08.74-.24,2.23.25,2.86.21.27.66.25,1,.21a9.4,9.4,0,0,0,3.26-1.58c2.66-1.62,5.13-3.56,7.79-5.18a25.25,25.25,0,0,1,7.16-2.38c3-.67,6-1.15,9-1.69,5.78-1,11.72-1.95,16.26-6s7.12-9.45,8.6-15.07l-1,.07a3.74,3.74,0,0,1,.45,1.84c.11.91.17,1.82.27,2.73.16,1.31.26,2.69,1.86,2.74s3.38-1.25,4.65-2.31a8.2,8.2,0,0,0,3-4,19.91,19.91,0,0,0,.34-7.3l-.85.16a4.93,4.93,0,0,1,2.56,6.48c-.14.29.62.24.73.22,1.8-.37,2.69-2,2.93-3.72.35-2.48-.91-5,.06-7.45.79-2,2.87-3,4.25-4.45,1.67-1.79,1.71-4.12,1-6.36-.81-2.47-2.46-4.67-2.72-7.32a10.84,10.84,0,0,1,1.6-6.11c1-1.89,2.21-3.66,3.08-5.62a13.84,13.84,0,0,0,1.11-6.54c-.32-5.41-3.27-10.18-6.73-14.17-.2-.23-1.13-.07-1,.12,3.05,3.52,5.71,7.6,6.5,12.27a14.78,14.78,0,0,1-.34,6.87,30,30,0,0,1-2.82,5.56,17.3,17.3,0,0,0-2.33,5.43c-.43,2.32.34,4.43,1.31,6.51s2.32,4.72,1.59,7.22c-.62,2.09-2.65,3.16-4.11,4.6a5.47,5.47,0,0,0-1.63,2.75,12.91,12.91,0,0,0,.12,4.25c.23,2,.11,5.31-2.39,5.82l.74.21a5.17,5.17,0,0,0-2.82-6.86c-.13-.06-.88-.13-.85.15a25,25,0,0,1,0,5.54,7,7,0,0,1-2.08,4.5,13,13,0,0,1-4.14,3c-.71.26-1.13.16-1.36-.56a10.4,10.4,0,0,1-.34-2.07c-.09-.87-.15-1.75-.27-2.61a3.45,3.45,0,0,0-.45-1.64c-.16-.2-.9-.22-1,.07a31.75,31.75,0,0,1-6.82,13.24,19.25,19.25,0,0,1-6,4.53,36.45,36.45,0,0,1-9.11,2.51c-5.41,1-11,1.65-16.21,3.48a15.47,15.47,0,0,0-3.65,1.79c-1.23.84-2.46,1.69-3.7,2.52-1.48,1-3,2-4.53,2.84-.11.06-1.34.62-1.34.59-.06-.66.29.13.34.07s-.1-.27-.11-.31a4,4,0,0,1-.13-.83,8.17,8.17,0,0,1,0-1.64c0-.21-.55-.19-.64-.18-2.61.38-4.65,1.77-6.81,3.19l.92,0a8.66,8.66,0,0,1-1.43-2.48c-.13-.49-.38-.65-.93-.52s-1.07.78-1.42,1.26c-.6.82-1.21,1.63-1.82,2.44l.91-.06a27.51,27.51,0,0,0-6.66-4.48,36.73,36.73,0,0,0-8-2.5,26.45,26.45,0,0,1-8-2.84c-1.46-.86-3-1.59-4.47-2.43a27,27,0,0,1-2.61-1.62c-.55-.39-1.35-.91-1.55-1.6-.09-.3-1.06-.22-1,0l.94,4,.75-.18a42.78,42.78,0,0,1-12.2-4.69c-3.72-2.16-7.22-5.08-9.17-9A14.25,14.25,0,0,1,56.42,181c0-.28-.92-.25-1,0a25.45,25.45,0,0,0-.43,4.28,5.42,5.42,0,0,1-.52,2.1c-.41.7-1,.56-1.66.27a14.52,14.52,0,0,1-4-3,6.68,6.68,0,0,1-1.92-4.07,23.45,23.45,0,0,1,0-5.86c0-.28-.73-.17-.86-.12a5.18,5.18,0,0,0-2.81,6.87l.73-.24c-1.39-.28-2.1-1.68-2.36-2.95a15.18,15.18,0,0,1,.16-4.46,6.4,6.4,0,0,0-.76-4.31A12.72,12.72,0,0,0,38.29,167a6.31,6.31,0,0,1-2.51-3.61,8.53,8.53,0,0,1,.82-4.81c1.2-2.83,2.83-5.45,2.15-8.65-.55-2.61-2.11-4.86-3.4-7.14a19.24,19.24,0,0,1-1.76-3.83,13.6,13.6,0,0,1-.5-4.49c.22-6.14,3.91-11.78,8.16-16,2.07-2,4.42-3.79,6.45-5.88a16.89,16.89,0,0,0,4.36-7.67c.07-.28-.87-.18-1,0a17.86,17.86,0,0,1-10.21,6.08l.51.34c5.57-1.13,8.61-6.62,10-11.67,1.74-6.22,1.84-13.55,6.86-18.28a14.59,14.59,0,0,1,8.51-3.89,12.43,12.43,0,0,1,2.44,0,13.43,13.43,0,0,0,2.37.17,2.86,2.86,0,0,0,2.55-2.09,14.83,14.83,0,0,1,5.08-7,19,19,0,0,1,8.18-3.27c3.85-.63,7.67.09,11.52.28s7.53-.66,11.33-.9a95.46,95.46,0,0,1,12,.05c3.83.23,7.62.94,11.46,1.14s7.72-.84,11.43.26a14.39,14.39,0,0,1,7.57,5.57,18.13,18.13,0,0,1,1.92,3.87,2.86,2.86,0,0,0,2.8,2.1,19.17,19.17,0,0,0,2.13-.2,12.78,12.78,0,0,1,2.55,0,14.46,14.46,0,0,1,11.35,7.9,37.49,37.49,0,0,1,2.84,9.58c1.11,5.44,2.63,11.78,7.67,15a9.8,9.8,0,0,0,3.41,1.36l.5-.35a17.91,17.91,0,0,1-10.21-6.08c-.12-.15-1.05-.21-1,.07a17.54,17.54,0,0,0,5,8.34c2.38,2.29,5,4.25,7.22,6.74C189.08,120.21,190,120.05,189.85,119.87Z" transform="translate(0 -0.3)"/><path class="cls-4" d="M126,98.58a36.4,36.4,0,0,1,2-9.07,4.71,4.71,0,0,1,1.9-2.42,13.41,13.41,0,0,1,2.47-.87c1.93-.62,4.22-1.67,4.51-3.91a13,13,0,0,1,.39-2.84,4.35,4.35,0,0,1,2.35-2.57c2.28-1,4.93-.52,6.95-2.22.17-.14-.71-.42-.94-.22-1.84,1.54-4.35,1.2-6.49,2s-3.06,2.77-3.2,5a3.78,3.78,0,0,1-.83,2.53,7.73,7.73,0,0,1-3.41,1.9,15.82,15.82,0,0,0-2.43.83,4.33,4.33,0,0,0-1.87,1.87,17.52,17.52,0,0,0-1.53,4.74c-.37,1.71-.61,3.44-.85,5.16,0,.28,1,.42,1,.13Z" transform="translate(0 -0.3)"/><path class="cls-4" d="M156.06,110.16a37.37,37.37,0,0,0,6.71,6.59,16.6,16.6,0,0,0,4.29,2.1,24.19,24.19,0,0,0,4.49.74,8,8,0,0,1,4.43,1.57,5.55,5.55,0,0,1,1.86,3c.45,2.22-.51,4.49-1.34,6.51s-1.8,4-1.63,6.18c.19,2.4,2.27,4,4,5.47,2,1.65,4.39,3.42,4.92,6.14s-1.3,4.54-2.85,6.42a7.76,7.76,0,0,0-1.63,2.73,3.75,3.75,0,0,0,.51,2.93c1.15,1.88,3.33,3,4,5.12a5.34,5.34,0,0,1,.23,2.06c0,.28,1,.31,1,0a5.37,5.37,0,0,0-.89-3.42,17.91,17.91,0,0,0-2.29-2.48,5.5,5.5,0,0,1-1.67-2.71,4.08,4.08,0,0,1,.84-3.06c1.29-1.89,3.34-3.46,3.74-5.84.45-2.61-1.33-4.85-3.15-6.47-1-.92-2.13-1.74-3.15-2.65a8.85,8.85,0,0,1-2.34-2.86c-.87-2,0-4.35.78-6.26.82-2.06,1.88-4.18,2-6.43a5.9,5.9,0,0,0-3.57-5.53,14.65,14.65,0,0,0-4.39-.93,15.92,15.92,0,0,1-4.81-1.13,22.53,22.53,0,0,1-7.49-6c-.56-.62-1.11-1.26-1.66-1.89-.2-.23-1.12-.08-1,.09Z" transform="translate(0 -0.3)"/><path class="cls-4" d="M164.29,109.78c1.81,2.41,5.36,2.54,8.1,2.68a32.23,32.23,0,0,1,4.91.44,7.93,7.93,0,0,1,4.37,2.74,14.89,14.89,0,0,1,2.74,4.94,14.08,14.08,0,0,1,.45,6.09c-.19,1.9-.57,4,0,5.85a5.31,5.31,0,0,0,2,2.42,14.83,14.83,0,0,1,2.95,2.4,3.83,3.83,0,0,1,.22,4.14c-.12.29.85.39,1,.13a4.31,4.31,0,0,0,.22-3.66,6.81,6.81,0,0,0-2.31-2.34,10.45,10.45,0,0,1-2.63-2.23c-1-1.38-.82-3.35-.68-4.95.19-2.09.59-4.25.15-6.33a15.64,15.64,0,0,0-2.15-5.14,10.44,10.44,0,0,0-3.92-3.72,11.56,11.56,0,0,0-4.34-1c-1.86-.15-3.74-.14-5.59-.39a6.51,6.51,0,0,1-4.57-2.15c-.18-.24-1.12-.12-1,.08Z" transform="translate(0 -0.3)"/><path class="cls-4" d="M155.54,76.36A14.67,14.67,0,0,0,149,80.49c-1.48,1.77-2.22,4.1-3.93,5.68-2.06,1.89-4.71,1.84-7.3,2.27a8.77,8.77,0,0,0-3.45,1.2A13.69,13.69,0,0,0,131.81,92c-1.87,2.09-3.58,4.17-6.29,5.19-.21.08-.13.19,0,.28a.9.9,0,0,0,.7,0,13.89,13.89,0,0,0,5.55-4.23,31.91,31.91,0,0,1,2.38-2.55,7.2,7.2,0,0,1,3.68-1.79c2.43-.44,4.93-.37,7.09-1.74,2-1.26,2.87-3.36,4.09-5.25a13.46,13.46,0,0,1,7.23-5.23c.22-.07.13-.19,0-.28a1,1,0,0,0-.71,0Z" transform="translate(0 -0.3)"/><path class="cls-4" d="M138.67,104a61.61,61.61,0,0,1,8.9,6,92.59,92.59,0,0,1,9,8,11.53,11.53,0,0,1,3,4.57,13.23,13.23,0,0,1,.5,4.81c-.16,3.27-1,6.55-.63,9.83s2.35,5.57,4.6,7.7c1.88,1.78,4.1,3.38,5.53,5.57a5.85,5.85,0,0,1,1,3.28,8.06,8.06,0,0,1-1.41,4.07,54.17,54.17,0,0,1-3.32,4.38,33.72,33.72,0,0,0-3.18,4.76,13.41,13.41,0,0,0-1.59,5.07,25.3,25.3,0,0,0,.4,5.49c.47,3.29.85,6.5-.65,9.61a15.7,15.7,0,0,1-1.6,2.59c-.13.19.79.25,1,0a13.65,13.65,0,0,0,2.47-5.06,14.37,14.37,0,0,0,.16-4.58c-.38-3.62-1.39-7.29-.17-10.86s3.79-6.53,6.08-9.47c1.72-2.21,3.53-5,2.56-7.88-.78-2.38-2.9-4.1-4.7-5.71-2.2-2-4.66-4.1-5.67-7-1.11-3.16-.42-6.57-.05-9.81s.36-6.74-1.65-9.6a28.21,28.21,0,0,0-4-4.22q-2.25-2.1-4.64-4.06a78.47,78.47,0,0,0-9.17-6.62c-.64-.38-1.29-.76-2-1.11-.23-.12-1.15.13-.83.3Z" transform="translate(0 -0.3)"/><path class="cls-4" d="M155.8,139.38a62.22,62.22,0,0,0,.47,8.41,31.65,31.65,0,0,1,.09,7.9c-.72,4.43-3.37,8.38-6.35,11.64-2.46,2.69-5.45,5-7.37,8.17a10.14,10.14,0,0,0-1.53,4.75c-.12,2.17.69,4.15,1,6.26a14.14,14.14,0,0,1-.33,6.84,9.41,9.41,0,0,1-4.21,5.15c-.2.11-.11.21,0,.28a.91.91,0,0,0,.7-.12,9.86,9.86,0,0,0,3.94-4.15,12.25,12.25,0,0,0,1.1-5.76,18.76,18.76,0,0,0-.41-3.25c-.23-1.09-.6-2.15-.77-3.26a9.62,9.62,0,0,1,.68-5.43c1.52-3.44,4.65-5.91,7.2-8.56,3-3.1,5.77-6.81,6.9-11a24.25,24.25,0,0,0,.37-8.41,77.05,77.05,0,0,1-.57-9.6c0-.24-1-.15-1,.16Z" transform="translate(0 -0.3)"/><path class="cls-4" d="M115.37,109.88c-1.07-3.12-3.43-5.63-4.93-8.53a10.21,10.21,0,0,1-1.25-4.76,30.44,30.44,0,0,1,.7-5.28c.54-2.94,1-6.38-1.28-8.75-1.6-1.68-4.49-2.81-4.92-5.33-.3-1.74,1.26-3.24.58-5s-2.21-2.6-3.12-4c-.16-.25-1.1-.23-1,0,.82,1.27,2.11,2.17,2.87,3.49a2.86,2.86,0,0,1,.32,2.23,16.89,16.89,0,0,0-.7,2.43c-.25,2.58,2.47,4.06,4.15,5.46A6.3,6.3,0,0,1,109,85a12.55,12.55,0,0,1,0,5.32c-.54,3.33-1.47,6.68-.11,9.94,1.42,3.43,4.24,6.13,5.45,9.65.09.26,1.07.3,1,0Z" transform="translate(0 -0.3)"/><path class="cls-4" d="M116.07,102.59c1.6-2,3.11-4.24,3.33-6.89a11.28,11.28,0,0,0-.42-3.92,22.11,22.11,0,0,1-.77-3.19,3.61,3.61,0,0,1,1-3.08,9.2,9.2,0,0,1,3.2-1.83,10.29,10.29,0,0,0,2.8-1.43,4.23,4.23,0,0,0,1.46-2.87,15.67,15.67,0,0,0-.1-2.37,6.56,6.56,0,0,1,.36-2.6c.56-1.66,1.54-3.14,2.14-4.79.09-.26-.85-.6-1-.33-.52,1.45-1.34,2.77-1.92,4.2a7.8,7.8,0,0,0-.56,2,11.89,11.89,0,0,0,0,2.15,4.87,4.87,0,0,1-1,3.79A7,7,0,0,1,122,83.06c-2,.78-4.47,1.76-4.77,4.14a7.82,7.82,0,0,0,.4,3,19.71,19.71,0,0,1,.8,3.64c.26,3.22-1.35,5.87-3.26,8.31-.2.25.71.62.87.41Z" transform="translate(0 -0.3)"/><path class="cls-4" d="M144.22,152.92a17.52,17.52,0,0,1,6.85,4.4.73.73,0,0,0,.62.13c.07,0,.49-.1.35-.25a18.1,18.1,0,0,0-7.12-4.57.94.94,0,0,0-.7,0c-.17.07-.19.21,0,.28Z" transform="translate(0 -0.3)"/><path class="cls-4" d="M144.65,156.9a15.45,15.45,0,0,1,3,2.3,7.56,7.56,0,0,1,2.11,3.09c.09.3,1.07.15,1-.07a7.84,7.84,0,0,0-2.16-3.2,16.11,16.11,0,0,0-3.16-2.39.89.89,0,0,0-.68,0c-.12,0-.36.17-.16.29Z" transform="translate(0 -0.3)"/><path class="cls-4" d="M148.5,151.52a27.64,27.64,0,0,1,4.74,1.19c.11,0,.48.15.54,0s-.31-.32-.41-.35a30.64,30.64,0,0,0-5.24-1.3c-.14,0-.36,0-.26.2s.44.27.63.29Z" transform="translate(0 -0.3)"/><path class="cls-4" d="M186.74,147a7.4,7.4,0,0,1,.25,4.93c-.09.23.87.48,1,.19a7.6,7.6,0,0,0-.26-5c-.1-.28-1.06-.35-1-.08Z" transform="translate(0 -0.3)"/><path class="cls-4" d="M141.86,159.64a7.81,7.81,0,0,1,1.42,4.3c.13,1.54.05,3.08.05,4.63,0,.25,1,.15,1-.16,0-2.94.45-6.56-1.53-9-.17-.22-1.11,0-.93.26Z" transform="translate(0 -0.3)"/><path class="cls-4" d="M144.84,110.91c3.72,5.88,6.55,12.43,11.47,17.46.21.22,1.12.07,1-.09-4.93-5-7.76-11.57-11.48-17.46-.15-.25-1.11-.14-1,.09Z" transform="translate(0 -0.3)"/><path class="cls-4" d="M103.56,98.59a36.4,36.4,0,0,0-2-9.07,5.32,5.32,0,0,0-1.8-2.45,8,8,0,0,0-2.3-1c-2.09-.61-4.55-1.49-4.8-3.95a9.8,9.8,0,0,0-.48-3,4.87,4.87,0,0,0-2.13-2.37c-2.24-1.23-5.17-.61-7.19-2.3-.19-.17-1.15-.25-.75.08,1.78,1.51,4.06,1.43,6.19,2a4.11,4.11,0,0,1,2.78,2.17,7.15,7.15,0,0,1,.6,2.88,3.73,3.73,0,0,0,.88,2.4,7.8,7.8,0,0,0,3,1.87c.87.34,1.78.53,2.65.86a3.79,3.79,0,0,1,2,1.82,17.83,17.83,0,0,1,1.55,4.9c.34,1.64.57,3.3.8,5,0,.27,1,.46,1,.15Z" transform="translate(0 -0.3)"/><path class="cls-4" d="M71.58,109.92c-2.11,2.4-4.2,4.91-6.89,6.69a14.61,14.61,0,0,1-4.59,2.06c-1.54.36-3.15.38-4.7.65-2.54.44-5,1.91-5.62,4.58-.5,2.16.37,4.38,1.17,6.36s1.93,4.18,1.77,6.39c-.17,2.51-2.42,4.17-4.21,5.64-2,1.61-4.21,3.39-4.73,6s1.11,4.45,2.64,6.27a8.37,8.37,0,0,1,1.83,2.87,3.62,3.62,0,0,1-.57,3c-1.24,1.85-3.41,3-4,5.23a5.78,5.78,0,0,0-.16,1.9c0,.27,1,.51,1,.2a5.25,5.25,0,0,1,1-3.55,27.65,27.65,0,0,1,2.3-2.42,5.32,5.32,0,0,0,1.51-2.65,4,4,0,0,0-.69-2.84c-1.23-2-3.39-3.52-3.88-5.91-.56-2.75,1.47-5.06,3.39-6.72s4.28-3.05,5.23-5.34c.81-1.95.07-4.14-.65-6-.81-2.11-1.92-4.23-2.08-6.52a5.67,5.67,0,0,1,3.89-5.72,23.19,23.19,0,0,1,4.69-.77,14.42,14.42,0,0,0,4.46-1.31,23.48,23.48,0,0,0,7.15-5.89c.56-.63,1.11-1.26,1.66-1.9.2-.23-.7-.6-.88-.39Z" transform="translate(0 -0.3)"/><path class="cls-4" d="M63.31,109.67c-2,2.59-6,2.32-8.89,2.48a18.29,18.29,0,0,0-4.54.64,8.86,8.86,0,0,0-4.13,2.95,15.23,15.23,0,0,0-2.63,5,14.34,14.34,0,0,0-.4,6.08c.19,1.86.62,4.09-.11,5.88a6.1,6.1,0,0,1-2.29,2.41,10.11,10.11,0,0,0-2.82,2.46,4.11,4.11,0,0,0,0,4.06c.11.26,1.09.21,1-.07a4,4,0,0,1-.05-3.77,8.55,8.55,0,0,1,2.5-2.25,8.33,8.33,0,0,0,2.44-2.25c.86-1.42.67-3.33.53-4.91-.18-2.05-.57-4.18-.13-6.23A15.23,15.23,0,0,1,46,116.83a9.18,9.18,0,0,1,4.26-3.63,15.71,15.71,0,0,1,4.58-.66c3.06-.17,7.36,0,9.43-2.73.16-.21-.78-.38-1-.14Z" transform="translate(0 -0.3)"/><path class="cls-4" d="M72.39,76.63a13.41,13.41,0,0,1,6.77,4.59c1.29,1.81,2.08,4,3.88,5.41,2,1.58,4.43,1.77,6.86,2.09a7.61,7.61,0,0,1,4,1.4,19.08,19.08,0,0,1,2.41,2.43c1.78,2,3.55,3.9,6.14,4.87.15,0,.55.17.69,0s0-.23-.14-.3c-2.4-.9-4-2.66-5.69-4.54a21.19,21.19,0,0,0-2.39-2.44,7.59,7.59,0,0,0-3.3-1.57c-2.51-.57-5.26-.3-7.45-1.87C82.19,85.33,81.4,83,80,81.12a14.41,14.41,0,0,0-7.09-4.76c-.15,0-.55-.17-.69,0s0,.24.14.3Z" transform="translate(0 -0.3)"/><path class="cls-4" d="M89.07,103.72a60.49,60.49,0,0,0-8.77,5.84,91.91,91.91,0,0,0-9.15,8,12.53,12.53,0,0,0-3.08,4.4,12.82,12.82,0,0,0-.66,4.88c.13,3.31,1,6.6.68,9.93a9.93,9.93,0,0,1-1.72,4.63,22.16,22.16,0,0,1-3,3.31c-1.89,1.78-4.14,3.39-5.52,5.62s-1.07,4.82.28,7.1a41.81,41.81,0,0,0,3.25,4.36,36.78,36.78,0,0,1,3.3,4.83,13.47,13.47,0,0,1,1.72,5.41,27.35,27.35,0,0,1-.46,5.56c-.46,3.24-.76,6.41.71,9.46a16.41,16.41,0,0,0,1.6,2.59c.18.25,1.1.22,1,0a13.57,13.57,0,0,1-2.45-5,14.81,14.81,0,0,1-.13-4.79c.39-3.52,1.32-7.08.19-10.55S63.26,163,61,160.12c-1.78-2.27-3.83-5.05-2.85-8.1.76-2.4,3-4.13,4.77-5.75,2.15-1.92,4.48-4,5.53-6.75,2.42-6.33-2.43-13.49,1.68-19.47a27.2,27.2,0,0,1,3.94-4.16c1.47-1.38,3-2.71,4.54-4a78.59,78.59,0,0,1,9.3-6.74c.64-.39,1.3-.76,2-1.11.33-.17-.58-.46-.82-.33Z" transform="translate(0 -0.3)"/><path class="cls-4" d="M71.77,139.33a64,64,0,0,1-.48,8.53,30.73,30.73,0,0,0-.06,7.9c.74,4.39,3.35,8.31,6.29,11.55,2.48,2.75,5.55,5.1,7.48,8.31a9.81,9.81,0,0,1,1.48,5.13c0,2.22-.89,4.28-1.17,6.46A13.47,13.47,0,0,0,86,193.9a9.8,9.8,0,0,0,4.2,4.81c.23.13,1.16-.07.85-.25a9.44,9.44,0,0,1-3.94-4.37,12.6,12.6,0,0,1-.86-6,19,19,0,0,1,.52-3.19,23.41,23.41,0,0,0,.7-3.2,9.79,9.79,0,0,0-.89-5.14c-1.54-3.31-4.54-5.72-7-8.3-3-3.09-5.81-6.8-7-11a24.09,24.09,0,0,1-.35-8.47,76.94,76.94,0,0,0,.56-9.48c0-.28-1-.23-1,.06Z" transform="translate(0 -0.3)"/><path class="cls-4" d="M83.63,152.65a18.16,18.16,0,0,0-7.11,4.58c-.14.15.3.23.36.23a.77.77,0,0,0,.61-.16,17.52,17.52,0,0,1,6.86-4.4c.19-.07.15-.21,0-.28a1,1,0,0,0-.71,0Z" transform="translate(0 -0.3)"/><path class="cls-4" d="M83.08,156.6A15.92,15.92,0,0,0,79.92,159a7.74,7.74,0,0,0-2.16,3.19c-.07.24.9.44,1,.15a7.56,7.56,0,0,1,2.11-3.09,15.31,15.31,0,0,1,3-2.31c.18-.11,0-.25-.14-.3a.92.92,0,0,0-.69,0Z" transform="translate(0 -0.3)"/><path class="cls-4" d="M80,151a29.7,29.7,0,0,0-5.08,1.26c-.21.07,0,.26.09.32a.89.89,0,0,0,.67.14,28.81,28.81,0,0,1,4.9-1.23c.19,0,.23-.14.09-.27A1,1,0,0,0,80,151Z" transform="translate(0 -0.3)"/><path class="cls-4" d="M40.84,147a7.47,7.47,0,0,0-.24,5c.1.26,1.08.24,1-.05a7.43,7.43,0,0,1,.27-4.94c.07-.2-.89-.36-1-.05Z" transform="translate(0 -0.3)"/><path class="cls-4" d="M85.75,159.49c-2,2.46-1.51,6.1-1.51,9,0,.26,1,.22,1-.08,0-2.9-.46-6.49,1.48-8.92.13-.16-.3-.22-.36-.22a.77.77,0,0,0-.61.18Z" transform="translate(0 -0.3)"/><path class="cls-4" d="M82.77,110.77c-3.72,5.88-6.55,12.42-11.48,17.46-.17.17.74.41.95.19,4.93-5,7.76-11.57,11.48-17.46.16-.25-.8-.43-1-.19Z" transform="translate(0 -0.3)"/><path class="cls-4" d="M116.75,171.1c0-.24-.08-.48-.14-.71a4.4,4.4,0,0,0-2.27.18,4.39,4.39,0,0,0-2.27-.18c0,.23-.09.47-.13.71-3.09.31-7,.23-13.4-.78a15,15,0,0,0,1.19,6.5c1.1,2.39,3.24,3.2,5.56,4.15s15.8.95,18.11,0,4.46-1.76,5.56-4.15a15.18,15.18,0,0,0,1.19-6.5C123.73,171.33,119.84,171.41,116.75,171.1Z" transform="translate(0 -0.3)"/><path class="cls-4" d="M117.24,171.17c0-.26-.09-.51-.14-.77,0-.1-.25-.16-.33-.18a5.51,5.51,0,0,0-2.76.17h.49a5.75,5.75,0,0,0-2.76-.2c-.06,0-.15.05-.16.12,0,.24-.1.48-.14.71l.27-.14a52.19,52.19,0,0,1-13.14-.77c-.1,0-.53,0-.53.14a15.44,15.44,0,0,0,1.2,6.55,7.38,7.38,0,0,0,3.75,3.43,12.73,12.73,0,0,0,3.26,1.18,27.67,27.67,0,0,0,3.27.34,85.07,85.07,0,0,0,8.6.06,18.09,18.09,0,0,0,6.21-.9c1.8-.74,3.67-1.59,4.74-3.31a13.66,13.66,0,0,0,1.57-7.22c0-.25-.56-.3-.72-.27a52.66,52.66,0,0,1-13.14.78c-.59-.06-.65.34-.06.4a54.9,54.9,0,0,0,13.66-.77l-.73-.27a15.69,15.69,0,0,1-1.05,6.18,7,7,0,0,1-3.76,3.59,11.28,11.28,0,0,1-2.9,1,28.92,28.92,0,0,1-3.08.3c-2.65.15-5.32.16-8,.06a17.33,17.33,0,0,1-5.67-.72c-1.83-.75-3.71-1.57-4.74-3.36a13.87,13.87,0,0,1-1.45-7l-.52.13a54.4,54.4,0,0,0,13.66.78c.08,0,.25,0,.26-.13s.09-.48.14-.71l-.17.12c.75-.18,1.34.19,2,.2s1.29-.38,2-.22l-.33-.18c.05.22.09.43.12.65S117.28,171.38,117.24,171.17Z" transform="translate(0 -0.3)"/><path class="cls-4" d="M140.1,153.79l2-.06c-.3-.71-.61-1.41-.92-2.11a7.16,7.16,0,0,0,2.52-.24c-.25-1.1-.49-2.21-.74-3.31a7.77,7.77,0,0,0,5.73-3.55,26.62,26.62,0,0,0,4.6-16c-.3-6.49-3.85-11.91-6.64-17.54-2.3-4.63-4.53-8.6-9.5-10.81-8.07-3.57-9.88-4.57-12.07-5.85-.13,3.89-6.77,8.5-10.69,11-3.91-2.48-10.55-7.09-10.68-11-2.2,1.28-4,2.28-12.07,5.85-5,2.21-7.21,6.18-9.5,10.81-2.79,5.63-6.35,11-6.64,17.54a26.56,26.56,0,0,0,4.6,16,7.75,7.75,0,0,0,5.73,3.55c-.25,1.1-.5,2.21-.74,3.31a7.14,7.14,0,0,0,2.52.24l-.93,2.11,2,.06c-1.18,0,1.8,7.58,2,8.19.71,1.75,1.61,3.43,2.19,5.19a11.54,11.54,0,0,0,4.22,5.9,11.27,11.27,0,0,0,8.38,1.88,20.82,20.82,0,0,0,5.12-1.81c1.32-.62,3.28-2.15,4.79-1.61a16.59,16.59,0,0,1,2.12,1.48,17.28,17.28,0,0,0,2.58,1.2,12.11,12.11,0,0,0,11-1c3.91-2.51,5.35-7,7-11.1C138.26,161.47,141.27,153.75,140.1,153.79Z" transform="translate(0 -0.3)"/><path class="cls-4" d="M140.39,154l2-.06c.06,0,.23,0,.18-.15l-.93-2.11-.28.15a8.52,8.52,0,0,0,2.71-.25.12.12,0,0,0,.09-.14c-.24-1.1-.49-2.2-.73-3.31l-.19.15a8,8,0,0,0,5.86-3.56,25.09,25.09,0,0,0,3.55-7.39,26.83,26.83,0,0,0,1.12-8.06,23.26,23.26,0,0,0-1.63-7.9,71,71,0,0,0-3.57-7.47c-1.15-2.2-2.2-4.47-3.47-6.61a18.79,18.79,0,0,0-4.32-5.19,31.41,31.41,0,0,0-6.89-3.61,90.49,90.49,0,0,1-8.53-4.27c-.08,0-.76-.3-.77-.06-.12,2.45-2.24,4.5-4,6a50,50,0,0,1-6.7,4.9l.74.11a49.16,49.16,0,0,1-6.61-4.84c-1.69-1.51-3.77-3.54-3.9-6,0-.29-.73-.4-.91-.29-2.3,1.34-4.69,2.5-7.11,3.61l-3.59,1.63a23.94,23.94,0,0,0-3.47,1.74,16.48,16.48,0,0,0-4.71,4.81,65.5,65.5,0,0,0-3.5,6.43c-1.28,2.48-2.64,4.94-3.74,7.51A25.13,25.13,0,0,0,75,128a25.58,25.58,0,0,0,.75,7.94,26.14,26.14,0,0,0,3.68,8.35A8.78,8.78,0,0,0,86,148.31l-.67-.39c-.25,1.1-.49,2.21-.74,3.31,0,.17.31.31.42.34a8.69,8.69,0,0,0,2.87.29l-.77-.4c-.31.71-.62,1.41-.92,2.12-.1.22.54.39.66.39l2,.06-.48-.48c-1.15,0,.09,3.33.25,3.82.51,1.63,1.08,3.26,1.74,4.84.4.95.84,1.87,1.25,2.8s.69,1.81,1,2.71a11.71,11.71,0,0,0,11.71,7.62,15.37,15.37,0,0,0,5.39-1.41,21.68,21.68,0,0,0,2.17-1.05,11,11,0,0,1,2.24-1.08,1.77,1.77,0,0,1,1.28,0,6.27,6.27,0,0,1,1,.77,9.83,9.83,0,0,0,2.05,1.22,16,16,0,0,0,5.11,1.48,12.05,12.05,0,0,0,9.61-3.2c2.3-2.22,3.54-5.25,4.69-8.17.68-1.72,1.36-3.43,1.95-5.19a30.85,30.85,0,0,0,.88-3c.1-.48.37-1.32.06-1.78a1.11,1.11,0,0,0-.82-.37c-.65,0,.06.47.37.48-1,0-.36-.38-.41,0,0,.11,0,.25,0,.37a5.25,5.25,0,0,1-.17,1,26,26,0,0,1-.79,2.74c-.49,1.46-1,2.89-1.59,4.31-1.1,2.77-2.13,5.68-4,8a11.43,11.43,0,0,1-8.49,4.32,12.28,12.28,0,0,1-5.21-1,9.62,9.62,0,0,1-2.33-1.23,8.42,8.42,0,0,0-1.63-1.15,4.05,4.05,0,0,0-3.57.43,41.71,41.71,0,0,1-4.42,2.12,10.89,10.89,0,0,1-10.24-1,10.54,10.54,0,0,1-3.2-3.63c-.8-1.47-1.24-3.11-1.92-4.64-.89-2-1.71-4-2.41-6-.13-.38-1.48-4.7-1-4.72s-.28-.47-.49-.48l-2-.06.67.39.93-2.11c.11-.26-.64-.41-.78-.4a6.29,6.29,0,0,1-2.16-.18l.42.34c.24-1.1.49-2.21.73-3.31.06-.25-.51-.38-.66-.39-2.71-.18-4.57-2.31-5.89-4.47a26.42,26.42,0,0,1-3-7.38A25.31,25.31,0,0,1,76,128a24.89,24.89,0,0,1,2-7.76c1-2.42,2.27-4.72,3.48-7,1.12-2.14,2.13-4.35,3.41-6.4a17.15,17.15,0,0,1,4.43-4.9,39.7,39.7,0,0,1,6.91-3.43c2.67-1.22,5.31-2.48,7.85-4l-.92-.29c.13,2.45,2.25,4.53,4,6.08a50.54,50.54,0,0,0,6.91,5.08.85.85,0,0,0,.74.11,50.83,50.83,0,0,0,6.83-5c1.68-1.53,3.76-3.59,3.88-6l-.76-.06c2.12,1.24,4.31,2.33,6.53,3.36,1,.49,2.09,1,3.13,1.43,1.27.57,2.58,1.07,3.78,1.76a15.19,15.19,0,0,1,4.9,4.57,46.41,46.41,0,0,1,3.42,6.12c1.22,2.4,2.54,4.75,3.66,7.2a28.58,28.58,0,0,1,2.42,7.64,23.91,23.91,0,0,1-.32,8.09,26.41,26.41,0,0,1-3.1,8.22c-1.44,2.45-3.51,4.81-6.54,5-.09,0-.21,0-.19.14.25,1.11.5,2.21.74,3.32l.1-.14a6.8,6.8,0,0,1-2.33.22c-.07,0-.35,0-.29.15l.93,2.11.18-.14-2,.06c-.23,0-.18.14-.08.27A.93.93,0,0,0,140.39,154Z" transform="translate(0 -0.3)"/><path class="cls-6" d="M94,171.59a13.53,13.53,0,0,0,6.23,3.59,15.43,15.43,0,0,0,8.07-.79,22.83,22.83,0,0,0,3.63-1.65c1.07-.6,2.45-1.59,3.62-.76.47.33.87.74,1.35,1.05a12.75,12.75,0,0,0,1.88.95,15.83,15.83,0,0,0,4,1.16,12.9,12.9,0,0,0,8.65-1.85c.19-.13-.08-.25-.18-.28a.92.92,0,0,0-.69.08,11.1,11.1,0,0,1-8,1.58,15.25,15.25,0,0,1-4-1.39,8.13,8.13,0,0,1-1.45-.93,5.85,5.85,0,0,0-1.3-.91c-2-.86-3.95.75-5.63,1.56a16.71,16.71,0,0,1-8.17,2,8.62,8.62,0,0,1-4.33-1.38,25.32,25.32,0,0,1-2.84-2.23c-.2-.17-1.16,0-.87.21Z" transform="translate(0 -0.3)"/><path class="cls-3" d="M84.27,128.54c5.86,1.83,13,4.39,14.18,5.6,1.84,1.86.63,3.92-1.92,4.26C91.44,139.08,86.47,135.44,84.27,128.54Z" transform="translate(0 -0.3)"/><path class="cls-3" d="M144.41,128.54c-5.85,1.83-13,4.39-14.18,5.6-1.83,1.86-.62,3.92,1.93,4.26C137.24,139.08,142.21,135.44,144.41,128.54Z" transform="translate(0 -0.3)"/><path class="cls-3" d="M117.07,159.44c-3.84.12-14.65-.05-15.79-5.48,1.56,7.47,3.84,9.95,6.77,12.43,4.49,3.81,8.2,3.73,12.59,0,2.93-2.48,5.21-5,6.77-12.43C126.15,156.93,121.3,159.32,117.07,159.44Z" transform="translate(0 -0.3)"/><path class="cls-6" d="M101.78,153.4c.41-1.76.79-3.52,1.26-5.26a21.61,21.61,0,0,0,.84-4.51c.23-3.52-.09-7-.08-10.57a19.19,19.19,0,0,0-1.64-8.72,12.61,12.61,0,0,0-5.52-5.62,22.1,22.1,0,0,0-10.54-2.08c-.59,0-.59.4,0,.4a20.67,20.67,0,0,1,9.38,1.75,12.32,12.32,0,0,1,5.56,5.38,18.09,18.09,0,0,1,1.76,8.51c0,3.34.24,6.69.12,10a20.67,20.67,0,0,1-.77,5c-.53,1.88-.93,3.8-1.38,5.7,0,.22.93.29,1,0Z" transform="translate(0 -0.3)"/><path class="cls-6" d="M127.9,153.37c-.39-1.66-.74-3.34-1.18-5a32.75,32.75,0,0,1-1-4.49,76.1,76.1,0,0,1-.36-10.46c.09-5.61,2.06-11.33,7.19-14.23a19.49,19.49,0,0,1,9.93-2.16c.42,0,.91-.4.23-.41-5.82-.07-12,1.48-15.49,6.56a17.42,17.42,0,0,0-2.73,8.09,46.19,46.19,0,0,0-.13,5c0,1.92,0,3.85.18,5.76a27,27,0,0,0,1,5.65c.54,1.91.94,3.85,1.4,5.77.07.3,1,.17,1-.08Z" transform="translate(0 -0.3)"/><path class="cls-3" d="M83.67,117c2.06-2.56,7-2.7,9.81-1.52a15.5,15.5,0,0,1,8.46,9.56c-3.16-1.7-4.94-3.1-7.34-4.38A35,35,0,0,0,83.67,117Z" transform="translate(0 -0.3)"/><path class="cls-6" d="M84.12,117.19c2.17-2.6,6.7-2.72,9.58-1.36a15.07,15.07,0,0,1,7.76,9.16l.77,0c-2.88-1.55-5.52-3.52-8.47-5a37.16,37.16,0,0,0-10.17-3.2c-.13,0-.42,0-.4.15s.44.27.56.29a35,35,0,0,1,10,3.25c2.73,1.39,5.21,3.21,7.9,4.67.1.06.86.26.77,0a15.87,15.87,0,0,0-6.26-8.43,11.93,11.93,0,0,0-8.66-2,6.84,6.84,0,0,0-4.29,2.15C83,117.08,83.94,117.41,84.12,117.19Z" transform="translate(0 -0.3)"/><path class="cls-3" d="M144.9,117c-2.07-2.56-7-2.7-9.81-1.52a15.47,15.47,0,0,0-8.46,9.56c3.15-1.7,4.93-3.1,7.34-4.38A34.87,34.87,0,0,1,144.9,117Z" transform="translate(0 -0.3)"/><path class="cls-6" d="M145.38,117c-1.88-2.26-5.38-2.63-8.12-2.26a13.48,13.48,0,0,0-8.29,5,15.41,15.41,0,0,0-2.84,5.31c-.09.29.83.15.93.1,2.73-1.48,5.24-3.34,8-4.73a35.36,35.36,0,0,1,10-3.22c.66-.11.16-.46-.27-.38a37.09,37.09,0,0,0-10.22,3.22c-2.9,1.44-5.51,3.37-8.35,4.91l.93.1a15.24,15.24,0,0,1,7.72-9.16c2.86-1.37,7.36-1.47,9.57,1.17C144.61,117.3,145.54,117.15,145.38,117Z" transform="translate(0 -0.3)"/><path class="cls-4" d="M69.83,111.53c-2.56-5.12-11.24-24.13-1.37-27,6.33-1.82,13.91.59,19,4.64,1.31,1,2.89,2.31,2.08,4-.67,1.43-3.27,3-4.35,4.07C81.24,101.16,76.78,105,69.83,111.53Z" transform="translate(0 -0.3)"/><path class="cls-4" d="M70.31,111.56a72.18,72.18,0,0,1-4.42-10.87,33,33,0,0,1-1.47-7,11.88,11.88,0,0,1,.68-5.79,6,6,0,0,1,4.42-3.38,18.82,18.82,0,0,1,10.19.73,24.38,24.38,0,0,1,4.75,2.2,17.75,17.75,0,0,1,3.91,3,2.53,2.53,0,0,1,.83,2,3.18,3.18,0,0,1-1.08,1.81c-1,1-2.3,1.81-3.36,2.81-4.35,4.09-8.77,8.1-13.14,12.17l-2.26,2.13c-.18.18.72.47.94.26,4.83-4.57,9.86-8.93,14.64-13.57,1.06-1,2.22-1.89,3.34-2.84s2.25-2,1.84-3.47-2-2.43-3.08-3.24a25.58,25.58,0,0,0-4.53-2.63,23.47,23.47,0,0,0-10.13-2.17c-2.4.05-5.28.42-7,2.22a7.91,7.91,0,0,0-1.95,5.22,24.19,24.19,0,0,0,.83,6.93,65,65,0,0,0,4.68,12.49l.45.91C69.48,111.77,70.43,111.79,70.31,111.56Z" transform="translate(0 -0.3)"/><path class="cls-6" d="M67.89,91.27c1.71-2.06,4.36-2.38,6.87-2.08a23.64,23.64,0,0,1,7.92,2.59A19,19,0,0,1,86,93.92c.23.19,1.12-.1.94-.25A23.19,23.19,0,0,0,79.6,89.8,16.21,16.21,0,0,0,70.73,89,6.8,6.8,0,0,0,67,91.2c-.24.29.71.28.88.07Z" transform="translate(0 -0.3)"/><path class="cls-4" d="M158.86,111.53c2.56-5.12,11.24-24.13,1.37-27-6.33-1.82-13.91.59-18.95,4.64-1.31,1-2.89,2.31-2.08,4,.67,1.43,3.27,3,4.35,4.07C147.45,101.16,151.91,105,158.86,111.53Z" transform="translate(0 -0.3)"/><path class="cls-4" d="M159.33,111.64A70.2,70.2,0,0,0,164,100.06a30.74,30.74,0,0,0,1.33-7.17,10.25,10.25,0,0,0-1.14-5.79C163,85.21,161,84.42,158.9,84a20.91,20.91,0,0,0-10.2.83,24.34,24.34,0,0,0-8.86,5c-1.11,1-1.84,2.36-.89,3.75a16,16,0,0,0,3.34,3c1,.83,2,1.81,2.91,2.72s2.06,1.92,3.1,2.87c2.6,2.37,5.2,4.73,7.77,7.13.79.73,1.57,1.47,2.35,2.21.19.18,1.15.14.88-.11-4.64-4.39-9.46-8.6-14.07-13-.95-.91-1.89-1.78-2.93-2.6s-2.69-1.88-2.82-3.34,1.6-2.72,2.69-3.54a23.62,23.62,0,0,1,4.25-2.58,21.58,21.58,0,0,1,10.06-2.24c2.32.09,5,.54,6.44,2.53a8.93,8.93,0,0,1,1.42,5.36,27.17,27.17,0,0,1-1,6.7,65.79,65.79,0,0,1-4.5,11.8c-.15.3-.29.59-.44.88S159.21,111.88,159.33,111.64Z" transform="translate(0 -0.3)"/><path class="cls-6" d="M161.72,91.21c-1.79-2.17-4.7-2.69-7.39-2.5a23.49,23.49,0,0,0-8.83,2.62,19.28,19.28,0,0,0-3.71,2.33c-.29.25.65.43.85.26a22.23,22.23,0,0,1,6.52-3.55,15.57,15.57,0,0,1,8-1.14,5.91,5.91,0,0,1,3.57,2c.19.23,1.12.13,1-.05Z" transform="translate(0 -0.3)"/></g></g></g></svg>