<svg xmlns="http://www.w3.org/2000/svg" viewBox="0 0 228.68 228.11"><defs><style>.cls-1,.cls-6{fill:#f79521;}.cls-2,.cls-5{fill:#922160;}.cls-3{opacity:0.7;}.cls-4{opacity:0.5;}.cls-5,.cls-6,.cls-7{stroke:#f79521;stroke-miterlimit:10;}.cls-7{fill:none;}</style></defs><g id="Layer_2" data-name="Layer 2"><g id="BG"><path class="cls-1" d="M227.69,114.27a113.78,113.78,0,0,1-73.81,106.54A113.34,113.34,0,0,1,1.33,123.19,114.68,114.68,0,0,1,4.16,87.63,113,113,0,0,1,17.23,55.81,114.09,114.09,0,0,1,67.12,11.08a112.56,112.56,0,0,1,33.81-9.56,114.17,114.17,0,0,1,35.95,1.41,112.07,112.07,0,0,1,32.77,12.18,113.64,113.64,0,0,1,56.73,81.8,115.92,115.92,0,0,1,1.31,17.36c0,.3,1,.4,1,.15a114.64,114.64,0,0,0-5.56-35.25,113.24,113.24,0,0,0-15.64-31A114.43,114.43,0,0,0,8.6,70.79,113.67,113.67,0,0,0,.35,105.34a115.16,115.16,0,0,0,2.87,35.92,113.87,113.87,0,0,0,35.4,58.52A114.2,114.2,0,0,0,101,227.61a116.17,116.17,0,0,0,35.79-1.37,114,114,0,0,0,90.54-94.15,116.24,116.24,0,0,0,1.36-17.67C228.68,114.11,227.69,114,227.69,114.27Z" transform="translate(-0.01 -0.29)"/><circle class="cls-2" cx="114.34" cy="114.06" r="103.62"/><path class="cls-1" d="M96.5,57.72c1.3.11,2.64.08,4,.09h7.49q9.42,0,18.84-.13c2.72,0,5.44-.07,8.16-.14.24,0,1,0,1-.41s-.8-.4-1-.39c-5.41.14-10.83.17-16.24.21-5.78,0-11.56.08-17.34,0q-1.5,0-3,0l-1,0h-.1l-.24,0c-.29,0-1.08,0-1.23.3s.49.46.71.48Z" transform="translate(-0.01 -0.29)"/><path class="cls-1" d="M134.71,50H121.58l1.18.61a26.64,26.64,0,0,0,4.85-7.21,13.88,13.88,0,0,0,1.53-6.15,12.11,12.11,0,0,0-2.27-6.35,11.67,11.67,0,0,0-6-4.13,14.23,14.23,0,0,0-8.21-.63,12.71,12.71,0,0,0-9,8.13,14.09,14.09,0,0,0,.17,8.38A13,13,0,0,0,106,46.92c1,1.18,2.19,2.15,3.14,3.35l.74-.42-11,.16-1.58,0c-.24,0-.87.06-.74.43s.93.39,1.2.39l11-.16,1.58,0c.12,0,1-.1.74-.42-.77-1-1.69-1.79-2.54-2.68a11.66,11.66,0,0,1-2.19-3.43,14.5,14.5,0,0,1-1.14-7.38A11.37,11.37,0,0,1,112,27.64a9.91,9.91,0,0,1,3.19-1,10.63,10.63,0,0,1,3.59.39,10.84,10.84,0,0,1,5.94,3.54,12,12,0,0,1,2.45,6A12.57,12.57,0,0,1,126,42.48a26.79,26.79,0,0,1-3.2,5.44,23.55,23.55,0,0,1-1.9,2.33c-.4.41,1,.6,1.18.6h13.13c.23,0,.86-.06.74-.43S135,50,134.71,50Z" transform="translate(-0.01 -0.29)"/><g class="cls-3"><path class="cls-1" d="M185.43,62.61a22,22,0,0,0-4.11.34h0c.63-1.11,2.09-3.06,2.09-3.06a13.43,13.43,0,0,1-1-3.38,26.05,26.05,0,0,1,3.11.88c.21,0,1.72-1.65,2.68-2a24.58,24.58,0,0,1-.25,3.45c1.13.5,2.63,1.19,3.75,1.82-.85.24-3.63.93-3.63.93a19.86,19.86,0,0,1-.64,3.33Z" transform="translate(-0.01 -0.29)"/><path class="cls-1" d="M37.7,85.32a22.31,22.31,0,0,1,2.1,3.55h0c.53-1.16,1.27-3.49,1.27-3.49a13.13,13.13,0,0,0,3.32-1.17,25.64,25.64,0,0,0-2.52-2c-.1-.19.35-2.37.12-3.38A24.75,24.75,0,0,0,39.33,81c-1.08-.64-2.51-1.46-3.66-2,.29.82,1.34,3.5,1.34,3.5A19.29,19.29,0,0,0,34.67,85Z" transform="translate(-0.01 -0.29)"/><path class="cls-1" d="M72.62,47.12a21.72,21.72,0,0,1,3.53,2.12h0c-.07-1.27-.53-3.67-.53-3.67A13.45,13.45,0,0,0,78,43a27.27,27.27,0,0,0-3.17-.57c-.18-.12-.83-2.25-1.51-3A26.42,26.42,0,0,0,72,42.56c-1.25,0-2.9-.08-4.17,0,.64.59,2.84,2.44,2.84,2.44a19.2,19.2,0,0,0-.89,3.27Z" transform="translate(-0.01 -0.29)"/><path class="cls-1" d="M88.36,34.39a22.45,22.45,0,0,1,1.45-3.86h0c-1.24.31-3.51,1.2-3.51,1.2a13.45,13.45,0,0,0-3-1.86,27.9,27.9,0,0,0,0,3.23c-.08.19-2.06,1.21-2.7,2a23.53,23.53,0,0,0,3.38.68c.19,1.24.45,2.87.74,4.11.46-.75,1.89-3.24,1.89-3.24A19.23,19.23,0,0,0,90,37Z" transform="translate(-0.01 -0.29)"/><path class="cls-1" d="M151.12,36.78a22,22,0,0,0,1.08-4h0c.83,1,2.16,3,2.16,3a13.38,13.38,0,0,1,3.51.24,26.61,26.61,0,0,1-1.9,2.61c-.05.21,1,2.19,1,3.23a25.62,25.62,0,0,1-3.15-1.42c-.87.89-2,2.07-3,2.9.06-.88.37-3.73.37-3.73a19.71,19.71,0,0,1-2.9-1.74Z" transform="translate(-0.01 -0.29)"/><path class="cls-1" d="M188.57,137.08a21.72,21.72,0,0,0-2.08-3.56h0c1.27.1,3.66.58,3.66.58a13.2,13.2,0,0,1,2.64-2.33,26.68,26.68,0,0,1,.54,3.18c.11.18,2.23.85,3,1.54a25,25,0,0,1-3.22,1.26c0,1.24,0,2.89,0,4.16-.58-.65-2.4-2.87-2.4-2.87a19.71,19.71,0,0,1-3.28.85Z" transform="translate(-0.01 -0.29)"/><path class="cls-1" d="M201.92,96.51a22.16,22.16,0,0,0,.1,4.12h0c-1.07-.7-2.93-2.28-2.93-2.28a13.18,13.18,0,0,1-3.44.77,28,28,0,0,1,1.07-3c0-.22-1.55-1.82-1.89-2.81a25.73,25.73,0,0,1,3.43.46c.57-1.1,1.35-2.56,2-3.64.2.86.73,3.68.73,3.68a19.48,19.48,0,0,1,3.27.84Z" transform="translate(-0.01 -0.29)"/><path class="cls-1" d="M161.31,69.05a22.14,22.14,0,0,1-2.66,3.15h0c1.27.13,3.71,0,3.71,0a13.54,13.54,0,0,0,2.2,2.75,25.83,25.83,0,0,0,1.08-3c.13-.16,2.34-.45,3.22-1a25,25,0,0,0-3-1.78c.24-1.22.54-2.85.68-4.11-.69.54-2.86,2.42-2.86,2.42a19.91,19.91,0,0,0-3.08-1.4Z" transform="translate(-0.01 -0.29)"/><path class="cls-1" d="M81.37,73.53a22.56,22.56,0,0,1-.79,4h0c1.17-.51,3.27-1.76,3.27-1.76a13.27,13.27,0,0,0,3.26,1.34A27.06,27.06,0,0,0,86.57,74c0-.21,1.83-1.54,2.33-2.45a23.64,23.64,0,0,0-3.46-.12c-.38-1.19-.9-2.75-1.4-3.93-.33.81-1.33,3.5-1.33,3.5a20.23,20.23,0,0,0-3.36.28Z" transform="translate(-0.01 -0.29)"/><path class="cls-1" d="M30.07,140.73a22.9,22.9,0,0,1,3.54,2.11h0c-.09-1.27-.56-3.66-.56-3.66a13.51,13.51,0,0,0,2.36-2.63,27.39,27.39,0,0,0-3.18-.56c-.18-.11-.83-2.24-1.52-3a23,23,0,0,0-1.27,3.21c-1.25-.05-2.9-.08-4.17,0,.65.58,2.85,2.42,2.85,2.42a20.28,20.28,0,0,0-.88,3.27Z" transform="translate(-0.01 -0.29)"/><path class="cls-1" d="M179.6,114.17a22.31,22.31,0,0,1-2.1-3.55h0c-.53,1.16-1.27,3.49-1.27,3.49a13.13,13.13,0,0,0-3.32,1.17,25.64,25.64,0,0,0,2.52,2c.1.19-.35,2.37-.12,3.38a24.75,24.75,0,0,0,2.66-2.21c1.08.64,2.51,1.46,3.65,2-.28-.82-1.33-3.49-1.33-3.49a19.45,19.45,0,0,0,2.33-2.45Z" transform="translate(-0.01 -0.29)"/><path class="cls-1" d="M155.82,195.37a21.38,21.38,0,0,1-3.53-2.13h0c.07,1.28.53,3.68.53,3.68a13.14,13.14,0,0,0-2.37,2.61,27.27,27.27,0,0,0,3.17.57c.18.11.82,2.25,1.5,3a24.38,24.38,0,0,0,1.3-3.2c1.25.05,2.89.09,4.17,0-.65-.59-2.84-2.45-2.84-2.45a20,20,0,0,0,.89-3.26Z" transform="translate(-0.01 -0.29)"/><path class="cls-1" d="M29.22,94.49a22.79,22.79,0,0,0,2.08,3.56h0c-1.27-.09-3.66-.58-3.66-.58A13.47,13.47,0,0,1,25,99.81a26.79,26.79,0,0,1-.54-3.19c-.11-.18-2.23-.85-3-1.54a24.88,24.88,0,0,1,3.22-1.25c0-1.25-.05-2.9,0-4.17.59.65,2.4,2.87,2.4,2.87a20,20,0,0,1,3.28-.85Z" transform="translate(-0.01 -0.29)"/><path class="cls-1" d="M69.91,191.89a22.9,22.9,0,0,1-3.54-2.11h0c.08,1.27.55,3.67.55,3.67a13.67,13.67,0,0,0-2.36,2.62,27.39,27.39,0,0,0,3.18.56c.18.11.83,2.24,1.52,3a23.58,23.58,0,0,0,1.28-3.21c1.25,0,2.89.07,4.17,0-.65-.59-2.85-2.43-2.85-2.43a19.38,19.38,0,0,0,.87-3.27Z" transform="translate(-0.01 -0.29)"/></g><g class="cls-4"><path class="cls-1" d="M58.76,56.49A1.86,1.86,0,0,0,59,60c2,.68,3.33-2.45,1.56-3.45A1.78,1.78,0,0,0,58.76,56.49Z" transform="translate(-0.01 -0.29)"/><path class="cls-1" d="M176.86,51.79a1.86,1.86,0,0,0-2-2.84c-2.09.46-1.6,3.81.44,3.76A1.82,1.82,0,0,0,176.86,51.79Z" transform="translate(-0.01 -0.29)"/><path class="cls-1" d="M135.75,30.27a1.86,1.86,0,0,0-.25-3.46c-2-.68-3.34,2.44-1.57,3.45A1.82,1.82,0,0,0,135.75,30.27Z" transform="translate(-0.01 -0.29)"/><path class="cls-1" d="M176.57,94.15a1.86,1.86,0,0,0,2,2.84c2.08-.47,1.59-3.82-.44-3.76A1.79,1.79,0,0,0,176.57,94.15Z" transform="translate(-0.01 -0.29)"/><path class="cls-1" d="M167.48,49.77a1.86,1.86,0,0,0-.26-3.47c-2-.68-3.33,2.45-1.56,3.45A1.82,1.82,0,0,0,167.48,49.77Z" transform="translate(-0.01 -0.29)"/><path class="cls-1" d="M34.71,104.81a1.86,1.86,0,0,0,2,2.84c2.08-.47,1.59-3.82-.44-3.76A1.79,1.79,0,0,0,34.71,104.81Z" transform="translate(-0.01 -0.29)"/><path class="cls-1" d="M36.7,161.86a1.86,1.86,0,0,0,.25,3.47c2,.67,3.33-2.45,1.56-3.45A1.78,1.78,0,0,0,36.7,161.86Z" transform="translate(-0.01 -0.29)"/><path class="cls-1" d="M46.12,99.79a1.86,1.86,0,0,0-2-2.84c-2.08.46-1.59,3.81.44,3.76A1.83,1.83,0,0,0,46.12,99.79Z" transform="translate(-0.01 -0.29)"/><path class="cls-1" d="M198.38,116.82a1.86,1.86,0,0,0,.26,3.47c2,.67,3.33-2.45,1.56-3.46A1.82,1.82,0,0,0,198.38,116.82Z" transform="translate(-0.01 -0.29)"/><path class="cls-1" d="M87.94,56.33a1.86,1.86,0,0,0-2-2.84c-2.08.46-1.59,3.81.44,3.76A1.83,1.83,0,0,0,87.94,56.33Z" transform="translate(-0.01 -0.29)"/><path class="cls-1" d="M148.05,62.25a1.86,1.86,0,0,0-.25-3.46c-2-.68-3.34,2.44-1.57,3.45A1.82,1.82,0,0,0,148.05,62.25Z" transform="translate(-0.01 -0.29)"/><path class="cls-1" d="M52.68,49.77a1.86,1.86,0,0,0,2,2.84c2.08-.47,1.59-3.82-.44-3.77A1.79,1.79,0,0,0,52.68,49.77Z" transform="translate(-0.01 -0.29)"/><path class="cls-1" d="M194.54,75.19a1.85,1.85,0,0,0,.25,3.46c2,.68,3.33-2.45,1.56-3.45A1.8,1.8,0,0,0,194.54,75.19Z" transform="translate(-0.01 -0.29)"/><path class="cls-1" d="M42,66.17A1.86,1.86,0,0,0,44,69c2.08-.47,1.59-3.82-.44-3.77A1.79,1.79,0,0,0,42,66.17Z" transform="translate(-0.01 -0.29)"/><path class="cls-1" d="M143.09,66.1a1.87,1.87,0,0,0,.25,3.47c2,.67,3.34-2.45,1.57-3.46A1.82,1.82,0,0,0,143.09,66.1Z" transform="translate(-0.01 -0.29)"/><path class="cls-1" d="M45.91,129.44a1.87,1.87,0,0,0,2,2.85c2.09-.47,1.6-3.82-.44-3.77A1.82,1.82,0,0,0,45.91,129.44Z" transform="translate(-0.01 -0.29)"/><path class="cls-1" d="M194.52,114.22a1.86,1.86,0,0,0-.25-3.46c-2-.68-3.33,2.45-1.57,3.45A1.82,1.82,0,0,0,194.52,114.22Z" transform="translate(-0.01 -0.29)"/><path class="cls-1" d="M193.87,156a1.86,1.86,0,0,0,2,2.84c2.09-.47,1.6-3.82-.44-3.77A1.8,1.8,0,0,0,193.87,156Z" transform="translate(-0.01 -0.29)"/><path class="cls-1" d="M92.39,119.38a1.86,1.86,0,0,0,.26,3.47c2,.67,3.33-2.45,1.56-3.45A1.8,1.8,0,0,0,92.39,119.38Z" transform="translate(-0.01 -0.29)"/><path class="cls-1" d="M89.43,104a1.86,1.86,0,0,0-2-2.84c-2.09.47-1.59,3.82.44,3.77A1.8,1.8,0,0,0,89.43,104Z" transform="translate(-0.01 -0.29)"/><path class="cls-1" d="M98.15,114.9a1.86,1.86,0,0,0-2-2.84c-2.09.46-1.6,3.81.44,3.76A1.79,1.79,0,0,0,98.15,114.9Z" transform="translate(-0.01 -0.29)"/><path class="cls-1" d="M62,76.36a1.86,1.86,0,0,0-.25-3.46c-2-.68-3.34,2.45-1.57,3.45A1.82,1.82,0,0,0,62,76.36Z" transform="translate(-0.01 -0.29)"/><path class="cls-1" d="M127.36,146.23a1.86,1.86,0,0,0,2,2.84c2.09-.47,1.6-3.82-.44-3.77A1.81,1.81,0,0,0,127.36,146.23Z" transform="translate(-0.01 -0.29)"/><path class="cls-1" d="M142.46,102.72a1.86,1.86,0,0,0,2,2.84c2.08-.47,1.59-3.82-.44-3.77A1.79,1.79,0,0,0,142.46,102.72Z" transform="translate(-0.01 -0.29)"/><path class="cls-1" d="M128.1,137.46a1.86,1.86,0,0,0,2,2.84c2.09-.47,1.6-3.82-.44-3.76A1.78,1.78,0,0,0,128.1,137.46Z" transform="translate(-0.01 -0.29)"/><path class="cls-1" d="M86.63,202.22a1.86,1.86,0,0,0-.25-3.47c-2-.67-3.33,2.45-1.56,3.46A1.8,1.8,0,0,0,86.63,202.22Z" transform="translate(-0.01 -0.29)"/><path class="cls-1" d="M133.48,79.41a1.86,1.86,0,0,0-2-2.85c-2.09.47-1.59,3.82.44,3.77A1.81,1.81,0,0,0,133.48,79.41Z" transform="translate(-0.01 -0.29)"/><path class="cls-1" d="M200.85,152.21a1.86,1.86,0,0,0-.25-3.47c-2-.67-3.33,2.45-1.56,3.46A1.8,1.8,0,0,0,200.85,152.21Z" transform="translate(-0.01 -0.29)"/><path class="cls-1" d="M171.76,187.23a1.86,1.86,0,0,0,2,2.84c2.09-.46,1.6-3.81-.44-3.76A1.81,1.81,0,0,0,171.76,187.23Z" transform="translate(-0.01 -0.29)"/><path class="cls-1" d="M18.77,119.53a1.86,1.86,0,0,0,2,2.84c2.08-.47,1.59-3.82-.44-3.77A1.81,1.81,0,0,0,18.77,119.53Z" transform="translate(-0.01 -0.29)"/><path class="cls-1" d="M89.09,194.35a1.86,1.86,0,0,0-2-2.84c-2.09.46-1.59,3.81.44,3.76A1.79,1.79,0,0,0,89.09,194.35Z" transform="translate(-0.01 -0.29)"/><path class="cls-1" d="M104.38,154.39a1.86,1.86,0,0,0-2-2.84c-2.08.47-1.59,3.82.44,3.77A1.81,1.81,0,0,0,104.38,154.39Z" transform="translate(-0.01 -0.29)"/><path class="cls-1" d="M131.63,208.73a1.86,1.86,0,0,0-2-2.84c-2.09.47-1.6,3.81.44,3.76A1.79,1.79,0,0,0,131.63,208.73Z" transform="translate(-0.01 -0.29)"/><path class="cls-1" d="M103.84,207a1.86,1.86,0,0,0-.25-3.47c-2-.67-3.34,2.45-1.57,3.45A1.8,1.8,0,0,0,103.84,207Z" transform="translate(-0.01 -0.29)"/><path class="cls-1" d="M163.33,188.07a1.86,1.86,0,0,0,2,2.84c2.08-.47,1.59-3.82-.44-3.77A1.81,1.81,0,0,0,163.33,188.07Z" transform="translate(-0.01 -0.29)"/><path class="cls-1" d="M48,181.86a1.86,1.86,0,0,0,.25,3.46c2,.68,3.33-2.44,1.56-3.45A1.8,1.8,0,0,0,48,181.86Z" transform="translate(-0.01 -0.29)"/></g><path class="cls-2" d="M130.92,183.74c-1.38-1-3-1.66-4.3-2.75s-2.18-2.45-3.55-3.44c-.86-.63-2-1.85-3.28-1.66l-2-.28a9.58,9.58,0,0,1-2.41-.25l-.1-.28-.47.13-.47-.13-.1.28a9.58,9.58,0,0,1-2.41.25l-2,.28c-1.29-.19-2.41,1-3.28,1.66-1.36,1-2.25,2.36-3.54,3.44s-2.92,1.78-4.31,2.75c-1,.73-2.3,1.34-2.1,2.61.41,2.54,5.25,3.45,7.77,4.08a41.65,41.65,0,0,0,6,.88c.38,0,1.11.1,2,.15a18,18,0,0,0,2.44.09,17.76,17.76,0,0,0,2.43-.09c.86-.05,1.59-.11,2-.15a41.59,41.59,0,0,0,6-.88c2.51-.63,7.36-1.54,7.77-4.08C133.23,185.08,132,184.47,130.92,183.74Z" transform="translate(-0.01 -0.29)"/><path class="cls-1" d="M131.3,183.69c-1.61-1.11-3.44-1.88-4.85-3.26-.69-.66-1.3-1.41-2-2.07s-1.22-1-1.84-1.53a5.51,5.51,0,0,0-1.92-1.07,8.48,8.48,0,0,0-1.34-.14l-1.47-.21c-.82-.1-1.61-.07-2.42-.24l.43.25c0-.09-.07-.19-.1-.28-.09-.27-.65-.34-.88-.27l-.47.14h.45l-.47-.14c-.12,0-.48-.09-.54.08s-.06.19-.1.28l.18-.1c-1,.22-2,.19-3,.34l-1,.14c-.32,0-.46,0-.82,0a6,6,0,0,0-2.73,1.58,28,28,0,0,0-2.82,2.73c-1.87,1.92-4.43,2.82-6.48,4.49-1.62,1.32-.62,3,.82,3.95a18,18,0,0,0,5.38,1.94,51,51,0,0,0,7.67,1.21,48.42,48.42,0,0,0,15.41-1.09c2-.49,4.27-.93,6-2.21a2.69,2.69,0,0,0,1.24-2.17c-.08-1.18-1.38-1.81-2.23-2.4a1,1,0,0,0-.69-.17c-.15.06-.26.14-.06.28.78.54,2.07,1.13,2,2.26a2.61,2.61,0,0,1-1.18,1.86,13.6,13.6,0,0,1-5,2A47.3,47.3,0,0,1,112,191.21a43.11,43.11,0,0,1-7.67-1,24.55,24.55,0,0,1-5.09-1.56,4,4,0,0,1-1.85-1.56,1.79,1.79,0,0,1,.72-2.37c1.91-1.47,4.24-2.36,6-4a36.32,36.32,0,0,1,2.93-2.89c.45-.34.87-.72,1.34-1.05a3.07,3.07,0,0,1,1.82-.62c.62,0,1.23-.19,1.84-.25s.94,0,1.41-.08a7.93,7.93,0,0,0,1.07-.17c.29-.08.28-.12.39-.41l-.54.07a1.93,1.93,0,0,0,1.38,0l-.87-.27c.11.33.19.44.53.54a7.66,7.66,0,0,0,1.42.24c.55.05,1.09,0,1.63.11s.94.16,1.42.2a2.7,2.7,0,0,1,1,.15,5.38,5.38,0,0,1,1,.69,21.4,21.4,0,0,1,2,1.7c.65.66,1.24,1.37,1.92,2,1.41,1.31,3.18,2.07,4.76,3.16a.93.93,0,0,0,.68.17C131.39,183.91,131.49,183.83,131.3,183.69Z" transform="translate(-0.01 -0.29)"/><path class="cls-5" d="M108.53,173.82c0-.38,2.89-.69,6.44-.69s6.17.31,6.17.69c0,.1,0,2.4,0,2.46,0,.38-2.88.69-6.43.69s-6.22-.31-6.22-.69C108.52,176.22,108.53,173.88,108.53,173.82Z" transform="translate(-0.01 -0.29)"/><path class="cls-2" d="M160.71,94.41a3.79,3.79,0,0,0-.34-1.41c-.85-1.62-2.05-2-3.77-2.2a44.05,44.05,0,0,0-6.19-.35c-4.23,0-8.46.23-12.68.42-.54,0-1.08,0-1.61,0-4.36,0-8.43,0-12.76.22a53,53,0,0,1-7.35,0,4.5,4.5,0,0,0-1.16,0,4.59,4.59,0,0,0-1.17,0,52.9,52.9,0,0,1-7.34,0c-4.33-.2-8.41-.22-12.76-.22-.53,0-1.07,0-1.61,0-4.23-.19-8.45-.44-12.69-.42a44,44,0,0,0-6.18.35c-1.72.25-2.92.58-3.77,2.2A3.79,3.79,0,0,0,69,94.41a11,11,0,0,0,0,2.86,4,4,0,0,0,1.33,2.47,4.79,4.79,0,0,0,2.69.87,5.18,5.18,0,0,0,2.18-.23,2.4,2.4,0,0,0,1.51-1.5A1.59,1.59,0,0,0,75.9,97a.55.55,0,0,0-.4,0c-.28.11-.26.5-.34.79a1.17,1.17,0,0,1-1.65.64c-1.86-1,.28-2.6,1.35-3,.76-.31,1.42-.83,2.18-1.15,1.94-.83,4.74-.43,6.83-.37,6.93.22,13.25,1.79,19.92,3.34,2.31.54,5.24,1.75,7.65,1.61a10,10,0,0,0,3.41-.81,10,10,0,0,0,3.41.81c2.4.14,5.34-1.07,7.65-1.61,6.67-1.55,13-3.12,19.92-3.34,2.08-.06,4.89-.46,6.83.37.76.32,1.42.84,2.18,1.15,1.06.42,3.21,2,1.35,3a1.18,1.18,0,0,1-1.66-.64c-.07-.29-.06-.68-.33-.79a.59.59,0,0,0-.41,0,1.6,1.6,0,0,0-.76,1.88,2.4,2.4,0,0,0,1.51,1.5,5.18,5.18,0,0,0,2.18.23,4.81,4.81,0,0,0,2.69-.87,3.9,3.9,0,0,0,1.32-2.47A10.54,10.54,0,0,0,160.71,94.41Z" transform="translate(-0.01 -0.29)"/><path class="cls-1" d="M161.21,94.39a3.85,3.85,0,0,0-1.54-2.86,6.26,6.26,0,0,0-2.73-.9,54.86,54.86,0,0,0-9.15-.36c-3.27.06-6.55.24-9.82.39-3.1.14-6.22,0-9.32.11-2.64.06-5.27.2-7.91.28-1.14,0-2.29.07-3.44,0a20.81,20.81,0,0,0-3.53-.12,41.49,41.49,0,0,1-6.5,0c-2.87-.12-5.74-.21-8.62-.24-3.18,0-6.35-.06-9.54-.21s-6.47-.29-9.71-.28c-1.55,0-3.1,0-4.65.16A15,15,0,0,0,71.1,91,3.9,3.9,0,0,0,69,92.64a4,4,0,0,0-.52,1.68,13,13,0,0,0-.1,2.49,4.31,4.31,0,0,0,1.46,3,6,6,0,0,0,3.57,1,4.25,4.25,0,0,0,3.21-1.06,1.84,1.84,0,0,0,0-2.67,1.48,1.48,0,0,0-1.09-.35c-.54,0-.73.27-.85.78-.17.73-.86,1-1.31.3a1,1,0,0,1,.21-1.18A8.13,8.13,0,0,1,76.21,95,7.69,7.69,0,0,1,78,94.15a8.68,8.68,0,0,1,2-.25c1.33,0,2.66.11,4,.16,1.51,0,3,.17,4.51.34A92.51,92.51,0,0,1,97.68,96c2.86.63,5.72,1.28,8.54,2.1a14.38,14.38,0,0,0,6.66.7,6.52,6.52,0,0,0,2.4-.74l-.86,0a5.88,5.88,0,0,0,2.14.67,10.59,10.59,0,0,0,2.17.23,25.68,25.68,0,0,0,6.52-1.42c2.42-.67,4.9-1.18,7.35-1.71s5.18-1,7.8-1.39,5-.41,7.5-.54a13.72,13.72,0,0,1,3.39.11,14.11,14.11,0,0,1,3,1.38,4.13,4.13,0,0,1,1.94,1.45.86.86,0,0,1,0,1,.67.67,0,0,1-1.27-.21c-.1-.32-.08-.66-.43-.82a1.52,1.52,0,0,0-1.15,0,1.74,1.74,0,0,0-.91,2c.64,2.3,4.09,2.15,5.87,1.64a3.74,3.74,0,0,0,2.5-2.13,8,8,0,0,0,.31-4c0-.29-1-.24-1,0,.24,2.39.1,5.37-2.81,5.9-1.22.22-2.73.21-3.56-.86a1.73,1.73,0,0,1-.36-1.3,1.51,1.51,0,0,1,.23-.61s.21-.31.25-.3,0,.38,0,.36c.34,1.43,2.61,1.47,3.29.27s-1.26-2.28-2.1-2.66a20.4,20.4,0,0,0-2.86-1.39,10.82,10.82,0,0,0-2.84-.33c-2.21,0-4.47.14-6.67.33a102.07,102.07,0,0,0-14.51,2.58c-1.26.29-2.52.55-3.77.9s-2.38.73-3.59,1a8.7,8.7,0,0,1-3.17.23,6.31,6.31,0,0,1-2.5-.66.93.93,0,0,0-.87,0,4.7,4.7,0,0,1-1.81.54,8.29,8.29,0,0,1-1.79.17,23,23,0,0,1-5.28-1.2c-1.82-.53-3.68-.92-5.53-1.34s-4-.88-5.94-1.25-3.85-.65-5.78-.86-3.84-.27-5.76-.38a17.06,17.06,0,0,0-4.89.19,7.65,7.65,0,0,0-2,.89c-.61.36-1.29.61-1.89,1-.92.58-2.12,1.82-.86,2.71a2.15,2.15,0,0,0,1.91.24,1.38,1.38,0,0,0,.73-.5c.1-.13.27-1,.35-1l-.49,0A1.46,1.46,0,0,1,76.13,99a2.55,2.55,0,0,1-2.49,1.41c-2,0-3.61-.79-4.1-2.8a8.52,8.52,0,0,1-.1-2.76,4.51,4.51,0,0,1,.74-2.43c.94-1.27,2.55-1.41,4-1.57a79.44,79.44,0,0,1,11.95-.07l6.18.29c1.87.07,3.76,0,5.64,0,3.51,0,7,.18,10.52.31,1.38,0,2.76.08,4.14,0,.7,0,1.4-.15,2.11-.14s1.39.09,2.1.13c2.9.18,5.83-.08,8.73-.18,3.9-.14,7.82,0,11.72-.17,4.46-.19,8.92-.47,13.39-.44a35.9,35.9,0,0,1,6.38.44,3.59,3.59,0,0,1,3.17,3.33C160.24,94.72,161.24,94.66,161.21,94.39Z" transform="translate(-0.01 -0.29)"/><path class="cls-6" d="M121.91,95.89H107.79a1.47,1.47,0,0,1-1.47-1.47h0A1.47,1.47,0,0,1,107.79,93h14.12a1.48,1.48,0,0,1,1.47,1.47h0A1.48,1.48,0,0,1,121.91,95.89Z" transform="translate(-0.01 -0.29)"/><path class="cls-5" d="M118.64,88.32h-7.58V174c0,.36,1.7.65,3.79.65s3.79-.29,3.79-.65V88.32Z" transform="translate(-0.01 -0.29)"/><circle class="cls-6" cx="114.84" cy="94.26" r="0.91"/><path class="cls-5" d="M121.16,86.67c0-.45-2.88-.81-6.43-.81s-6.17.36-6.17.81c0,.12,0,2.85,0,2.91,0,.45,2.89.82,6.44.82s6.21-.37,6.21-.82C121.17,89.52,121.16,86.74,121.16,86.67Z" transform="translate(-0.01 -0.29)"/><path class="cls-5" d="M118.18,86.88l-1.29.05-1,0c-.32,0-2.33,0-3,0l-1.37-.05a1,1,0,0,1-1-1V84.7a1,1,0,0,1,1-1h6.66a1,1,0,0,1,1,1v1.14A1,1,0,0,1,118.18,86.88Z" transform="translate(-0.01 -0.29)"/><path class="cls-2" d="M116,84.75v0a8.06,8.06,0,0,1-1.12.06C115.2,84.77,115.57,84.76,116,84.75Z" transform="translate(-0.01 -0.29)"/><path class="cls-1" d="M116.47,84.79v0c0-.12-.15-.17-.24-.2a1.2,1.2,0,0,0-.5,0l-.25,0c.17,0,0,0,0,0h-.7a.63.63,0,0,0-.3.07c-.05,0-.1.09-.07.15a.52.52,0,0,0,.22.14,1.74,1.74,0,0,0,.39,0l1.12,0a.63.63,0,0,0,.3-.07s.1-.09.07-.15a.52.52,0,0,0-.22-.14,1.74,1.74,0,0,0-.39,0c-.37,0-.74,0-1.12,0L115,85a10.43,10.43,0,0,0,1.24-.07l-.74-.24v0a.23.23,0,0,0,.14.16.81.81,0,0,0,.34.08.87.87,0,0,0,.36,0S116.47,84.86,116.47,84.79Z" transform="translate(-0.01 -0.29)"/><path class="cls-2" d="M113.73,84.75c.4,0,.77,0,1.12,0a8,8,0,0,1-1.12-.06Z" transform="translate(-0.01 -0.29)"/><path class="cls-1" d="M113.83,85c.38,0,.75,0,1.12,0a.65.65,0,0,0,.31,0s.11-.08.07-.14a.36.36,0,0,0-.21-.15,1,1,0,0,0-.38-.07l-.56,0H114s-.12,0,0,0,0,0,0,0h-.19a.73.73,0,0,0-.36,0c-.06,0-.16,0-.17.12v0c0,.07.07.12.13.16a.83.83,0,0,0,.34.1.73.73,0,0,0,.36,0c.06,0,.16,0,.16-.12v0l-.53.13A8.81,8.81,0,0,0,115,85l-.21-.41-1.12,0a.57.57,0,0,0-.31,0,.11.11,0,0,0-.07.14.39.39,0,0,0,.21.15A1,1,0,0,0,113.83,85Z" transform="translate(-0.01 -0.29)"/><path class="cls-2" d="M119.35,78a41.91,41.91,0,0,0-3.25-4.27,16.25,16.25,0,0,1-1.25-1.81,17.72,17.72,0,0,1-1.25,1.81A42,42,0,0,0,110.34,78c-1.18,2-.86,3.33.56,5.08a4.06,4.06,0,0,0,2.83,1.63,8,8,0,0,0,1.12.06A8.06,8.06,0,0,0,116,84.7a4.06,4.06,0,0,0,2.83-1.63C120.21,81.32,120.54,80,119.35,78Z" transform="translate(-0.01 -0.29)"/><path class="cls-1" d="M119.83,77.91c-1.3-2.17-3.2-3.9-4.5-6.07-.14-.23-.84-.16-1,0-1.17,2-2.83,3.55-4.1,5.44a6,6,0,0,0-1.12,2.6,3.68,3.68,0,0,0,.67,2.38A5.17,5.17,0,0,0,114,84.94c1.82.12,3.64-.11,4.94-1.5a5.88,5.88,0,0,0,1.53-2.6,4.2,4.2,0,0,0-.68-2.93c-.14-.24-1.1-.11-1,.16a3.93,3.93,0,0,1,.61,2.9,5.77,5.77,0,0,1-1.83,2.74,4.64,4.64,0,0,1-6-.4,5.28,5.28,0,0,1-1.51-2.71,4.45,4.45,0,0,1,.9-2.95c1.28-2,3.06-3.66,4.28-5.71l-1,0c1.3,2.17,3.2,3.9,4.51,6.08C119,78.31,120,78.16,119.83,77.91Z" transform="translate(-0.01 -0.29)"/><path class="cls-6" d="M96.18,166.1l-17.11-1.48v-1l-6,.51-6-.51.8,1L50,166.1s-1.53,8.42,18.92,9.84L79,175.89C97.53,174.11,96.18,166.1,96.18,166.1Z" transform="translate(-0.01 -0.29)"/><path class="cls-5" d="M96.18,166.1c0,4.13-10.35,7.48-23.11,7.48S50,170.23,50,166.1s10.35-7.49,23.11-7.49S96.18,162,96.18,166.1Z" transform="translate(-0.01 -0.29)"/><ellipse class="cls-5" cx="73.31" cy="171.04" rx="9.1" ry="2.1"/><polyline class="cls-7" points="49.81 165.74 73.1 97.58 96.34 165.81"/><line class="cls-7" x1="73.08" y1="158.74" x2="73.08" y2="97.51"/><path class="cls-6" d="M178.71,166.1l-17.11-1.48v-1l-6,.51-6-.51.79,1-17.9,1.55s-1.53,8.42,18.92,9.84l10.08-.05C180.05,174.11,178.71,166.1,178.71,166.1Z" transform="translate(-0.01 -0.29)"/><path class="cls-5" d="M178.71,166.1c0,4.13-10.35,7.48-23.11,7.48s-23.12-3.35-23.12-7.48,10.35-7.49,23.12-7.49S178.71,162,178.71,166.1Z" transform="translate(-0.01 -0.29)"/><ellipse class="cls-5" cx="155.83" cy="171.04" rx="9.1" ry="2.1"/><polyline class="cls-7" points="132.34 165.74 155.62 97.58 178.86 165.81"/><line class="cls-7" x1="155.6" y1="158.74" x2="155.6" y2="97.51"/></g></g></svg>