<svg xmlns="http://www.w3.org/2000/svg" viewBox="0 0 116.34 160.69"><defs><style>.cls-1{fill:#922160;}</style></defs><g id="Layer_2" data-name="Layer 2"><g id="BG"><path class="cls-1" d="M12.24,128.52l-1.35-9.78-9.78-1.35a1.29,1.29,0,0,1,0-2.55l9.78-1.35,1.35-9.78a1.29,1.29,0,0,1,2.55,0l1.35,9.78,9.78,1.35a1.29,1.29,0,0,1,0,2.55l-9.78,1.35-1.35,9.78a1.28,1.28,0,0,1-1.28,1.1h0A1.28,1.28,0,0,1,12.24,128.52Zm2.58-12.61a1.29,1.29,0,0,1-1.1-1.1l-.21-1.5-.2,1.5a1.29,1.29,0,0,1-1.1,1.1l-1.51.2,1.51.21a1.29,1.29,0,0,1,1.1,1.1l.2,1.5.21-1.5a1.29,1.29,0,0,1,1.1-1.1l1.51-.21Z"/><path class="cls-1" d="M4,69.63a1,1,0,1,0,1-1A1,1,0,0,0,4,69.63Z"/><path class="cls-1" d="M71.87,103.89a1,1,0,1,0,1-1A1,1,0,0,0,71.87,103.89Z"/><circle class="cls-1" cx="20.68" cy="44.92" r="1.87"/><path class="cls-1" d="M22.75,160.29a1.29,1.29,0,0,1,0-2.56c42.27-4,74.15-37.26,74.15-77.38S65,7,22.75,3a1.29,1.29,0,0,1,0-2.56C25.56.13,28.44,0,31.3,0c46.89,0,85,36,85,80.35s-38.15,80.34-85,80.34C28.46,160.69,25.58,160.56,22.75,160.29ZM99.47,80.35c0,37-26.23,68.4-62.9,77.61,43-2.57,77.2-36.4,77.2-77.61S79.6,5.31,36.59,2.73C73.25,12,99.47,43.32,99.47,80.35Z"/><path class="cls-1" d="M47.11,108.09c-.66-32.31-1-32.33-21.43-33.28a1.29,1.29,0,0,1,0-2.57c20.39-1,20.77-1,21.43-33.29a1.28,1.28,0,0,1,1.28-1.26A1.29,1.29,0,0,1,49.68,39c.65,32.32,1,32.33,21.42,33.29a1.29,1.29,0,0,1,0,2.57c-20.39,1-20.77,1-21.42,33.28a1.29,1.29,0,0,1-1.29,1.26h0A1.28,1.28,0,0,1,47.11,108.09Zm1.28-46.51c-1.25,7.54-3.86,10.55-9.75,11.94,5.89,1.39,8.5,4.41,9.75,11.94,1.25-7.53,3.86-10.55,9.75-11.94C52.25,72.13,49.64,69.12,48.39,61.58Z"/></g></g></svg>