<svg xmlns="http://www.w3.org/2000/svg" viewBox="0 0 228.65 228.16"><defs><style>.cls-1{fill:#f79521;}.cls-2{fill:#922160;}.cls-3{opacity:0.7;}.cls-4{opacity:0.5;}.cls-5{fill:#731745;}</style></defs><g id="Layer_2" data-name="Layer 2"><g id="BG"><path class="cls-1" d="M227.71,114.21a114.61,114.61,0,0,1-5.46,34.91A113.27,113.27,0,0,1,207,179.72a114.12,114.12,0,0,1-53.08,41.05A113.27,113.27,0,0,1,1.34,123.51,113.88,113.88,0,0,1,67.1,11.13a112.8,112.8,0,0,1,33.6-9.55,114.06,114.06,0,0,1,36,1.32A112.05,112.05,0,0,1,169.47,15,113.55,113.55,0,0,1,226.35,96.6a116.55,116.55,0,0,1,1.36,17.61c0,.32,1,.49,1,.27A114.62,114.62,0,0,0,83.74,4.34,113.83,113.83,0,0,0,.36,105.28,114.86,114.86,0,0,0,3.23,141.2a113.2,113.2,0,0,0,13.24,32,114.8,114.8,0,0,0,120.28,53,113.92,113.92,0,0,0,60-32.73,113.77,113.77,0,0,0,30.55-61.4,116,116,0,0,0,1.36-17.66C228.67,114.16,227.71,114,227.71,114.21Z" transform="translate(-0.02 -0.26)"/><circle class="cls-2" cx="114.33" cy="114.08" r="103.62"/><g class="cls-3"><path class="cls-1" d="M177.66,59.34a20.54,20.54,0,0,0-3.73.31h0c.58-1,1.91-2.77,1.91-2.77a12.29,12.29,0,0,1-.89-3.06,23.83,23.83,0,0,1,2.82.8,21.08,21.08,0,0,1,2.43-1.86,23,23,0,0,1-.23,3.12c1,.46,2.39,1.09,3.39,1.65-.76.22-3.28.85-3.28.85a18.35,18.35,0,0,1-.58,3Z" transform="translate(-0.02 -0.26)"/><path class="cls-1" d="M22.51,119.05a20.14,20.14,0,0,1,1.9,3.21h0c.48-1.05,1.15-3.16,1.15-3.16a12.1,12.1,0,0,0,3-1,22.1,22.1,0,0,0-2.28-1.83,19.59,19.59,0,0,0,.1-3.06,23.13,23.13,0,0,0-2.4,2c-1-.57-2.28-1.32-3.31-1.81.26.75,1.2,3.17,1.2,3.17a18.41,18.41,0,0,0-2.11,2.21Z" transform="translate(-0.02 -0.26)"/><path class="cls-1" d="M75.49,45.31a19.44,19.44,0,0,1,3.2,1.93h0c-.07-1.16-.48-3.33-.48-3.33a12.22,12.22,0,0,0,2.15-2.36A23.08,23.08,0,0,0,77.48,41a20.79,20.79,0,0,0-1.36-2.74A22.54,22.54,0,0,0,75,41.19c-1.13,0-2.62-.08-3.78,0,.59.54,2.57,2.22,2.57,2.22a17.69,17.69,0,0,0-.8,2.95Z" transform="translate(-0.02 -0.26)"/><path class="cls-1" d="M89.75,33.79a20.41,20.41,0,0,1,1.31-3.5h0c-1.12.28-3.18,1.08-3.18,1.08a12.21,12.21,0,0,0-2.72-1.68,25.16,25.16,0,0,0,0,2.92,20.7,20.7,0,0,0-2.44,1.85,22.09,22.09,0,0,0,3.06.61c.17,1.12.41,2.6.67,3.72.42-.67,1.71-2.93,1.71-2.93a17.88,17.88,0,0,0,3,.26Z" transform="translate(-0.02 -0.26)"/><path class="cls-1" d="M146.59,36a20.94,20.94,0,0,0,1-3.6h0c.74.88,2,2.74,2,2.74a12,12,0,0,1,3.18.22A24.23,24.23,0,0,1,151,37.67a21,21,0,0,1,.91,2.92A22.12,22.12,0,0,1,149,39.31c-.79.81-1.84,1.87-2.71,2.62,0-.79.33-3.37.33-3.37A18,18,0,0,1,144,37Z" transform="translate(-0.02 -0.26)"/><path class="cls-1" d="M200.6,89.31a20.57,20.57,0,0,0,.1,3.73h0A33.18,33.18,0,0,1,198.05,91a12.21,12.21,0,0,1-3.12.7,24.55,24.55,0,0,1,1-2.76,19.84,19.84,0,0,1-1.71-2.53,22.45,22.45,0,0,1,3.1.41c.52-1,1.23-2.32,1.84-3.29.18.77.66,3.33.66,3.33a18.13,18.13,0,0,1,3,.75Z" transform="translate(-0.02 -0.26)"/><path class="cls-1" d="M165.61,67.62a19.9,19.9,0,0,1-2.4,2.86h0c1.15.11,3.36,0,3.36,0a12.07,12.07,0,0,0,2,2.5,24.29,24.29,0,0,0,1-2.76,21.93,21.93,0,0,0,2.92-.91,23,23,0,0,0-2.68-1.62c.22-1.1.49-2.58.62-3.72-.62.49-2.59,2.19-2.59,2.19a18.11,18.11,0,0,0-2.8-1.26Z" transform="translate(-0.02 -0.26)"/><path class="cls-1" d="M43.49,77.84a20.65,20.65,0,0,1-.72,3.67h0c1.06-.46,3-1.59,3-1.59a12,12,0,0,0,3,1.21,23.75,23.75,0,0,0-.49-2.88c0-.19,1.66-1.39,2.11-2.22a21.8,21.8,0,0,0-3.12-.11c-.35-1.07-.83-2.49-1.27-3.55-.31.73-1.21,3.17-1.21,3.17a17.38,17.38,0,0,0-3.05.25Z" transform="translate(-0.02 -0.26)"/><path class="cls-1" d="M41.16,65.27a21,21,0,0,1,3.21,1.91h0c-.08-1.15-.5-3.32-.5-3.32A12.17,12.17,0,0,0,46,61.49,24.74,24.74,0,0,0,43.12,61a20.29,20.29,0,0,0-1.38-2.73,22.55,22.55,0,0,0-1.15,2.91c-1.13,0-2.62-.07-3.77,0,.58.53,2.57,2.2,2.57,2.2a17.6,17.6,0,0,0-.78,3Z" transform="translate(-0.02 -0.26)"/><path class="cls-1" d="M202.8,131.59a19.58,19.58,0,0,0,3.72-.31h0c-.57,1-1.9,2.77-1.9,2.77a12,12,0,0,1,.88,3.06,22,22,0,0,1-2.81-.79,21.28,21.28,0,0,1-2.43,1.85,23,23,0,0,1,.23-3.12c-1-.46-2.39-1.08-3.4-1.65.77-.21,3.29-.84,3.29-.84a17.17,17.17,0,0,1,.58-3Z" transform="translate(-0.02 -0.26)"/><path class="cls-1" d="M31.92,156.65a20.25,20.25,0,0,1-1.9-3.22h0c-.48,1-1.15,3.16-1.15,3.16a11.84,11.84,0,0,0-3,1.06,23.22,23.22,0,0,0,2.28,1.82,20.94,20.94,0,0,0-.1,3.06,22.12,22.12,0,0,0,2.4-2c1,.58,2.28,1.32,3.31,1.81-.26-.74-1.2-3.16-1.2-3.16A18.57,18.57,0,0,0,34.66,157Z" transform="translate(-0.02 -0.26)"/><path class="cls-1" d="M121.87,126.42a19.58,19.58,0,0,1-3.2-1.93h0c.07,1.16.49,3.33.49,3.33a12.22,12.22,0,0,0-2.15,2.36,23,23,0,0,0,2.87.52,21.87,21.87,0,0,0,1.37,2.74,22.54,22.54,0,0,0,1.17-2.9c1.13.05,2.62.08,3.77,0-.58-.54-2.57-2.22-2.57-2.22a17.6,17.6,0,0,0,.81-2.95Z" transform="translate(-0.02 -0.26)"/><path class="cls-1" d="M107.62,138a20.32,20.32,0,0,1-1.31,3.49h0c1.12-.28,3.18-1.08,3.18-1.08a12,12,0,0,0,2.72,1.68,24.82,24.82,0,0,0,0-2.92,21.41,21.41,0,0,0,2.45-1.84,20.62,20.62,0,0,0-3.07-.62c-.16-1.12-.4-2.6-.67-3.72-.42.67-1.71,2.93-1.71,2.93a17.9,17.9,0,0,0-3-.25Z" transform="translate(-0.02 -0.26)"/><path class="cls-1" d="M118.45,206.87a20.18,20.18,0,0,0-1,3.61h0c-.75-.88-2-2.74-2-2.74a12.1,12.1,0,0,1-3.18-.23,24.39,24.39,0,0,1,1.71-2.36,21.51,21.51,0,0,1-.91-2.92,21,21,0,0,1,2.85,1.29c.79-.81,1.85-1.88,2.72-2.63,0,.79-.33,3.38-.33,3.38a18.18,18.18,0,0,1,2.63,1.58Z" transform="translate(-0.02 -0.26)"/><path class="cls-1" d="M29.83,144.77a20.53,20.53,0,0,0-.09-3.73h0c1,.63,2.65,2.06,2.65,2.06a12.21,12.21,0,0,1,3.11-.7,22.9,22.9,0,0,1-1,2.76,20.13,20.13,0,0,1,1.71,2.54,21,21,0,0,1-3.1-.42c-.52,1-1.23,2.32-1.85,3.3-.17-.78-.65-3.33-.65-3.33a18,18,0,0,1-3-.76Z" transform="translate(-0.02 -0.26)"/><path class="cls-1" d="M188.72,165.34a20.67,20.67,0,0,1,2.41-2.86h0c-1.15-.11-3.36,0-3.36,0a12.17,12.17,0,0,0-2-2.5,24.29,24.29,0,0,0-1,2.76,20.5,20.5,0,0,0-2.92.91,23,23,0,0,0,2.68,1.62c-.22,1.1-.5,2.58-.62,3.72.62-.49,2.59-2.19,2.59-2.19a18,18,0,0,0,2.79,1.26Z" transform="translate(-0.02 -0.26)"/><path class="cls-1" d="M208.44,100.88a19.15,19.15,0,0,1,.72-3.67h0c-1.07.46-3,1.59-3,1.59a12.25,12.25,0,0,0-3-1.2,24.1,24.1,0,0,0,.49,2.88c0,.18-1.66,1.39-2.11,2.21a21.94,21.94,0,0,0,3.13.11c.35,1.08.82,2.49,1.27,3.56.3-.74,1.2-3.18,1.2-3.18a17.24,17.24,0,0,0,3.05-.25Z" transform="translate(-0.02 -0.26)"/><path class="cls-1" d="M179,176.31a19.7,19.7,0,0,1-3.2-1.91h0c.07,1.15.5,3.32.5,3.32a12.29,12.29,0,0,0-2.14,2.38,24.74,24.74,0,0,0,2.88.5,20.29,20.29,0,0,0,1.38,2.73,21.58,21.58,0,0,0,1.15-2.9c1.13,0,2.63.06,3.78,0-.59-.54-2.58-2.2-2.58-2.2a17.66,17.66,0,0,0,.79-3Z" transform="translate(-0.02 -0.26)"/></g><g class="cls-4"><path class="cls-1" d="M62.94,53.8a1.69,1.69,0,0,0,.23,3.14c1.84.62,3-2.21,1.42-3.12A1.65,1.65,0,0,0,62.94,53.8Z" transform="translate(-0.02 -0.26)"/><path class="cls-1" d="M169.9,49.54A1.69,1.69,0,0,0,168.08,47c-1.89.42-1.44,3.45.4,3.41A1.64,1.64,0,0,0,169.9,49.54Z" transform="translate(-0.02 -0.26)"/><path class="cls-1" d="M45.12,115.13a1.68,1.68,0,0,0-.23-3.13c-1.84-.62-3,2.21-1.42,3.12A1.62,1.62,0,0,0,45.12,115.13Z" transform="translate(-0.02 -0.26)"/><path class="cls-1" d="M183.22,146.08a1.68,1.68,0,0,0,1.81,2.57c1.89-.42,1.44-3.45-.4-3.4A1.6,1.6,0,0,0,183.22,146.08Z" transform="translate(-0.02 -0.26)"/><path class="cls-1" d="M161.4,47.71a1.68,1.68,0,0,0-.23-3.14c-1.83-.61-3,2.22-1.41,3.13A1.63,1.63,0,0,0,161.4,47.71Z" transform="translate(-0.02 -0.26)"/><path class="cls-1" d="M34.2,93.46A1.69,1.69,0,0,0,36,96c1.89-.42,1.44-3.45-.4-3.4A1.61,1.61,0,0,0,34.2,93.46Z" transform="translate(-0.02 -0.26)"/><path class="cls-1" d="M41.12,149.19a1.68,1.68,0,0,0,.23,3.14c1.83.62,3-2.21,1.41-3.12A1.63,1.63,0,0,0,41.12,149.19Z" transform="translate(-0.02 -0.26)"/><path class="cls-1" d="M37.48,81.81a1.69,1.69,0,0,0-1.81-2.58c-1.89.42-1.44,3.46.4,3.41A1.64,1.64,0,0,0,37.48,81.81Z" transform="translate(-0.02 -0.26)"/><path class="cls-1" d="M189.39,108.44a1.69,1.69,0,0,0,.23,3.14c1.84.61,3-2.22,1.42-3.13A1.65,1.65,0,0,0,189.39,108.44Z" transform="translate(-0.02 -0.26)"/><path class="cls-1" d="M82.31,57.61A1.69,1.69,0,0,0,80.5,55c-1.89.43-1.45,3.46.39,3.41A1.61,1.61,0,0,0,82.31,57.61Z" transform="translate(-0.02 -0.26)"/><path class="cls-1" d="M132.63,48.42a1.69,1.69,0,0,0-.22-3.14c-1.84-.61-3,2.22-1.42,3.13A1.6,1.6,0,0,0,132.63,48.42Z" transform="translate(-0.02 -0.26)"/><path class="cls-1" d="M57.43,47.71a1.68,1.68,0,0,0,1.81,2.57c1.89-.42,1.45-3.45-.39-3.4A1.61,1.61,0,0,0,57.43,47.71Z" transform="translate(-0.02 -0.26)"/><path class="cls-1" d="M185.91,70.73a1.68,1.68,0,0,0,.23,3.14c1.83.61,3-2.22,1.41-3.12A1.63,1.63,0,0,0,185.91,70.73Z" transform="translate(-0.02 -0.26)"/><path class="cls-1" d="M47.78,62.56a1.69,1.69,0,0,0,1.81,2.58c1.89-.43,1.44-3.46-.4-3.41A1.64,1.64,0,0,0,47.78,62.56Z" transform="translate(-0.02 -0.26)"/><path class="cls-1" d="M94.59,64.6A1.69,1.69,0,0,0,92.78,62c-1.89.43-1.44,3.46.4,3.41A1.62,1.62,0,0,0,94.59,64.6Z" transform="translate(-0.02 -0.26)"/><path class="cls-1" d="M143.89,50a1.68,1.68,0,0,0,.23,3.13c1.84.62,3-2.21,1.41-3.12A1.6,1.6,0,0,0,143.89,50Z" transform="translate(-0.02 -0.26)"/><path class="cls-1" d="M132.77,60.58a1.68,1.68,0,0,0,.23,3.14c1.83.61,3-2.22,1.41-3.13A1.63,1.63,0,0,0,132.77,60.58Z" transform="translate(-0.02 -0.26)"/><path class="cls-1" d="M99.17,58.48A1.68,1.68,0,0,0,101,61.05c1.89-.42,1.45-3.45-.4-3.4A1.6,1.6,0,0,0,99.17,58.48Z" transform="translate(-0.02 -0.26)"/><path class="cls-1" d="M131.85,22.53a1.69,1.69,0,0,0,1.82,2.57c1.88-.42,1.44-3.45-.4-3.41A1.64,1.64,0,0,0,131.85,22.53Z" transform="translate(-0.02 -0.26)"/><path class="cls-1" d="M66,80a1.69,1.69,0,0,0-.23-3.14c-1.84-.62-3,2.21-1.42,3.12A1.65,1.65,0,0,0,66,80Z" transform="translate(-0.02 -0.26)"/><path class="cls-1" d="M68.26,29.61a1.68,1.68,0,0,0,1.81,2.57c1.89-.42,1.44-3.45-.4-3.41A1.63,1.63,0,0,0,68.26,29.61Z" transform="translate(-0.02 -0.26)"/><path class="cls-1" d="M21.68,96.27a1.69,1.69,0,0,0,.23,3.14c1.84.62,3-2.21,1.42-3.12A1.65,1.65,0,0,0,21.68,96.27Z" transform="translate(-0.02 -0.26)"/><path class="cls-1" d="M148.54,202.22a1.68,1.68,0,0,0-1.81-2.57c-1.89.42-1.45,3.45.39,3.41A1.64,1.64,0,0,0,148.54,202.22Z" transform="translate(-0.02 -0.26)"/><path class="cls-1" d="M48.27,93.36a1.69,1.69,0,0,0,.23,3.14c1.84.61,3-2.22,1.41-3.13A1.63,1.63,0,0,0,48.27,93.36Z" transform="translate(-0.02 -0.26)"/><path class="cls-1" d="M42.63,144.1a1.68,1.68,0,0,0-1.81-2.57c-1.89.42-1.45,3.46.4,3.41A1.64,1.64,0,0,0,42.63,144.1Z" transform="translate(-0.02 -0.26)"/><path class="cls-1" d="M98.7,210a1.69,1.69,0,0,0-.23-3.14c-1.84-.61-3,2.22-1.42,3.13A1.62,1.62,0,0,0,98.7,210Z" transform="translate(-0.02 -0.26)"/><path class="cls-1" d="M17.47,131.37A1.69,1.69,0,0,0,19.28,134c1.89-.43,1.45-3.46-.4-3.41A1.6,1.6,0,0,0,17.47,131.37Z" transform="translate(-0.02 -0.26)"/><path class="cls-1" d="M200.64,153.54a1.68,1.68,0,0,0-.23-3.13c-1.84-.62-3,2.21-1.42,3.12A1.62,1.62,0,0,0,200.64,153.54Z" transform="translate(-0.02 -0.26)"/><path class="cls-1" d="M107.77,119.15a1.68,1.68,0,0,0,1.81,2.57c1.89-.42,1.44-3.45-.4-3.41A1.63,1.63,0,0,0,107.77,119.15Z" transform="translate(-0.02 -0.26)"/><path class="cls-1" d="M192.2,172a1.69,1.69,0,0,0,.23,3.14c1.84.61,3-2.22,1.42-3.13A1.65,1.65,0,0,0,192.2,172Z" transform="translate(-0.02 -0.26)"/><path class="cls-1" d="M50.7,181.13a1.69,1.69,0,0,0-1.82-2.57c-1.89.42-1.44,3.45.4,3.4A1.61,1.61,0,0,0,50.7,181.13Z" transform="translate(-0.02 -0.26)"/><path class="cls-1" d="M160.42,33.18a1.69,1.69,0,0,0-.23-3.14c-1.84-.61-3,2.22-1.42,3.13A1.65,1.65,0,0,0,160.42,33.18Z" transform="translate(-0.02 -0.26)"/><path class="cls-1" d="M48.7,173.92a1.69,1.69,0,0,0-1.82-2.57c-1.89.42-1.44,3.46.4,3.41A1.64,1.64,0,0,0,48.7,173.92Z" transform="translate(-0.02 -0.26)"/><path class="cls-1" d="M157.76,198.84a1.69,1.69,0,0,0,1.82,2.58c1.89-.43,1.44-3.46-.4-3.41A1.65,1.65,0,0,0,157.76,198.84Z" transform="translate(-0.02 -0.26)"/><path class="cls-1" d="M182,80.19a1.69,1.69,0,0,0-.23-3.14c-1.84-.61-3,2.22-1.42,3.13A1.65,1.65,0,0,0,182,80.19Z" transform="translate(-0.02 -0.26)"/><path class="cls-1" d="M187,141.31a1.69,1.69,0,0,0-.23-3.14c-1.84-.61-3,2.21-1.42,3.12A1.65,1.65,0,0,0,187,141.31Z" transform="translate(-0.02 -0.26)"/><path class="cls-1" d="M162.5,194.11a1.68,1.68,0,0,0-1.81-2.57c-1.89.42-1.45,3.45.39,3.4A1.61,1.61,0,0,0,162.5,194.11Z" transform="translate(-0.02 -0.26)"/><path class="cls-1" d="M209,121.81a1.68,1.68,0,0,0-1.81-2.57c-1.89.42-1.45,3.45.39,3.41A1.64,1.64,0,0,0,209,121.81Z" transform="translate(-0.02 -0.26)"/></g><path class="cls-1" d="M105.11,23.61h0l-1.57-.08c-.13-.13.08.14.12.2s.21.31.32.47.34.52.53.78a24.47,24.47,0,0,1,2.16,3.63,24,24,0,0,1,2.2,7.28,28.14,28.14,0,0,1-1.26,13.29A10.16,10.16,0,0,1,104,54.3c-.38.25.14.49.36.55a1.86,1.86,0,0,0,1.37-.14c3.53-2.31,4.72-7.16,5.19-11.09A27.4,27.4,0,0,0,109,29.38,23.15,23.15,0,0,0,106.61,25a13.32,13.32,0,0,0-1.34-1.88A1.91,1.91,0,0,0,103.7,23h0c-.37.15-.32.42,0,.57a2,2,0,0,0,1.42,0Z" transform="translate(-0.02 -0.26)"/><path class="cls-1" d="M125.4,23h0a1.84,1.84,0,0,0-1.57.09,9.28,9.28,0,0,0-1,1.49,27.62,27.62,0,0,0-2.23,3.69,24.64,24.64,0,0,0-2.3,7.44,28.42,28.42,0,0,0,1.33,13.72,10.62,10.62,0,0,0,3.82,5.25,1.86,1.86,0,0,0,1.37.13c.23-.06.74-.3.36-.55-3.42-2.24-4.52-7.07-4.94-10.85a27.18,27.18,0,0,1,1.75-13.77,23.92,23.92,0,0,1,2.32-4.24c.25-.35.5-.7.74-1.06l.38-.57c0-.08.3-.4.18-.29l-1.57.09h0a2,2,0,0,0,1.41,0c.34-.15.38-.42,0-.56Z" transform="translate(-0.02 -0.26)"/><path class="cls-1" d="M102.53,39.9c8,0,16,.13,24.06,0,.23,0,.86,0,.75-.4s-.92-.44-1.18-.43c-8,.12-16,0-24.06,0-.23,0-.87,0-.75.39s.92.44,1.18.44Z" transform="translate(-0.02 -0.26)"/><path class="cls-1" d="M55.2,120.67v-.07c.93-4.59,1.15-9.17,2.62-13.62A42,42,0,0,1,64,95,71.7,71.7,0,0,1,79.12,79.69a55,55,0,0,1,13-6.8c1.24-.45,6.91-2.81,6.83-.44,0,1.23-1.13,1.43-.42,2.93.39.83,1.2,1.38,1.46,2.29.71,2.55-2.87,3.15-1.29,5.83,1.32,2.24.62,1.74-.93,3.52-1.07,1.23-.4,2.86-1.44,4.14-.9,1.11-2.41,1.58-3.65,2.11-1.82.79-4.72,1.78-6.44,2.76C82.88,98,81,98.78,76.8,101.57c1.42-.45,6.84-2.37,9.45-2.86,3.89-.72,8-2.19,12-.87,2.3.77,2.38,1.47,1.78,3.73-.29,1.1-1,2.48-.54,3.62s.11,2.33.83,3.39c.52.76,1.21,1.6.94,2.48a3,3,0,0,1-.57.93,7.65,7.65,0,0,0-1.53,5.16c0,.61.12,1.33-.34,1.73a1.25,1.25,0,0,1-1.45,0,5,5,0,0,1-1.06-1.13c-2.36-2.94-6.2-4.23-9.9-5a28.15,28.15,0,0,0-10.62-.42,15.62,15.62,0,0,0-7.34,3.35c-1.9,1.61-4,3.13-5.19,5.36-1,1.8-2,3.77-3.89,4.64a3.52,3.52,0,0,1-3.67-.84C54.65,123.76,54.93,122,55.2,120.67Z" transform="translate(-0.02 -0.26)"/><path class="cls-1" d="M55.67,120.83c.93-4.63,1.19-9.4,2.71-13.9A42,42,0,0,1,64.31,95.3c5.27-7.13,11.75-13.69,19.48-18.12A62.66,62.66,0,0,1,94,72.57a12.17,12.17,0,0,1,3.7-.91c.43,0,.7,0,.78.47.1.66-.37,1.15-.57,1.74-.59,1.72,1.78,2.75,1.7,4.43-.06,1.18-1.12,1.9-1.58,2.91A2.1,2.1,0,0,0,98,82.84c.24.68.93,1.32,1,2.07,0,.54-.61.91-1,1.24a3.91,3.91,0,0,0-1.33,2.23,5,5,0,0,1-.87,2.72,6.4,6.4,0,0,1-2.46,1.52c-1.76.73-3.54,1.41-5.29,2.15a51.15,51.15,0,0,0-4.65,2.41c-1.45.79-2.9,1.58-4.32,2.44-.92.57-1.82,1.15-2.72,1.75-.26.17.65.49.82.43,2.23-.71,4.43-1.5,6.68-2.16,1.28-.37,2.57-.64,3.87-.92a54.35,54.35,0,0,1,5.8-1.09,9.9,9.9,0,0,1,5.56.77c1,.58.78,1.71.54,2.68-.18.75-.49,1.47-.66,2.23a4,4,0,0,0-.11,1,7.8,7.8,0,0,0,.32,1.35,11.39,11.39,0,0,0,.44,2.41c.36.78,1.13,1.4,1.21,2.3s-.69,1.45-1.08,2.11a7.45,7.45,0,0,0-1,2.46,8.48,8.48,0,0,0-.11,2.25,2.45,2.45,0,0,1-.09,1.11.8.8,0,0,1-.46.49c-.47.16-.79-.29-1-.58a13.94,13.94,0,0,0-3.36-3,19,19,0,0,0-4.28-1.87,34.22,34.22,0,0,0-10.68-1.54,17.57,17.57,0,0,0-10,3.07,30.76,30.76,0,0,0-4.31,3.74,30.14,30.14,0,0,0-3,4.44c-1,1.45-2.61,3.23-4.53,2.45s-1.67-3-1.34-4.65c.06-.3-.9-.57-1-.32-.28,1.42-.55,3.14.52,4.31a4.53,4.53,0,0,0,3.94,1.29c1.53-.31,2.67-1.76,3.46-3,.46-.73.84-1.51,1.29-2.25a12.1,12.1,0,0,1,1.81-2.23A33.18,33.18,0,0,1,70,115.07a15.58,15.58,0,0,1,5.39-2.32,27.59,27.59,0,0,1,12.64.58,18.44,18.44,0,0,1,5,1.93,11.53,11.53,0,0,1,2.09,1.59c.62.6,1.06,1.39,1.73,1.93a2.44,2.44,0,0,0,1.92.54c.72-.16.92-.8.92-1.47a11.2,11.2,0,0,1,.13-2.77,7.79,7.79,0,0,1,1.07-2.52c.45-.69,1.08-1.24.89-2.14s-1-1.54-1.29-2.41-.22-1.83-.51-2.72a4.54,4.54,0,0,1,.32-2.83c.31-1,.89-2.43.33-3.4s-2.25-1.45-3.33-1.7c-3.87-.89-7.86.4-11.63,1.17a66.26,66.26,0,0,0-8,2.41l-1.22.4.82.43c3.14-2.09,6.44-3.92,9.76-5.7,1.8-1,3.75-1.6,5.62-2.37,1.59-.66,3.8-1.26,4.57-3,.4-.87.28-1.86.61-2.75s1.12-1.39,1.74-2c1-1.07-.6-2.28-.73-3.4s1.08-2.07,1.56-3.1a2.4,2.4,0,0,0,.06-1.84c-.34-.9-1.19-1.49-1.51-2.39s.15-1.26.42-2a1.47,1.47,0,0,0-.12-1.41c-.67-.8-2-.71-2.92-.56a19.78,19.78,0,0,0-3.76,1.11c-1.72.65-3.43,1.32-5.11,2.08C79,78.31,72,84.36,66.12,91.46a47.72,47.72,0,0,0-7.29,11.48,38.07,38.07,0,0,0-2.24,6.66c-.57,2.44-.88,4.93-1.26,7.4-.18,1.18-.37,2.35-.61,3.51C54.66,120.81,55.62,121.08,55.67,120.83Z" transform="translate(-0.02 -0.26)"/><path class="cls-5" d="M97.17,75.46a58.27,58.27,0,0,0-20.73,10A52.21,52.21,0,0,0,60.7,105.61a62.67,62.67,0,0,0-4.64,16.5c0,.23.95.23,1-.09A58.12,58.12,0,0,1,67.48,95.63,52.36,52.36,0,0,1,85.76,80.28a58.66,58.66,0,0,1,11.71-4.47c.66-.17.13-.47-.3-.35Z" transform="translate(-0.02 -0.26)"/><path class="cls-5" d="M95.51,86.35A55.31,55.31,0,0,0,71,101.05a49.06,49.06,0,0,0-5.13,6.45c-.15.22.8.36,1,.11A51.58,51.58,0,0,1,88.45,89.52,56.77,56.77,0,0,1,96,86.7c.62-.18-.2-.43-.5-.35Z" transform="translate(-0.02 -0.26)"/><path class="cls-5" d="M97.68,80.21a14.7,14.7,0,0,0-6.13,1.7c-1.91.89-3.76,1.92-5.64,2.89a67.67,67.67,0,0,0-12,7.61,32.26,32.26,0,0,0-5.47,5.67c-.13.18.79.21,1,0C74.64,90.93,83,86.83,90.64,82.9c2.09-1.07,4.43-2.28,6.84-2.27.43,0,.88-.42.2-.42Z" transform="translate(-0.02 -0.26)"/><path class="cls-5" d="M57.33,122.23A31,31,0,0,1,68.84,110.7a51.14,51.14,0,0,1,8.13-4,68.76,68.76,0,0,1,8.54-2.57c3.3-.82,6.76-1.58,10.17-1.17.16,0,.57,0,.67-.13s0-.24-.2-.26a27.1,27.1,0,0,0-9,.74,80,80,0,0,0-9,2.46,46.92,46.92,0,0,0-15.76,8.92,27.49,27.49,0,0,0-6,7.52c-.13.24.83.29,1,0Z" transform="translate(-0.02 -0.26)"/><path class="cls-5" d="M65.71,114.38A46.46,46.46,0,0,1,75.84,110a33.09,33.09,0,0,1,12.07-.37c2.45.29,4.89.71,7.32,1.13.67.12.29-.37-.14-.44a79.48,79.48,0,0,0-13.31-1.54,27.72,27.72,0,0,0-11.1,2.29c-2,.86-3.94,1.87-5.86,2.89-.19.1.62.52.89.38Z" transform="translate(-0.02 -0.26)"/><path class="cls-5" d="M91.36,107a41,41,0,0,1,6.26.44c.15,0,.54,0,.62-.13s-.24-.24-.34-.26a45.6,45.6,0,0,0-6.8-.44c-.12,0-.43.06-.36.24s.48.16.62.15Z" transform="translate(-0.02 -0.26)"/><path class="cls-1" d="M95.8,159.36c-2.38-1.65-3.08-6-3.34-8.64-.43-4.4.39-9.41.54-13.84.11-3.23,1.22-6.44,1.26-9.65,0-4.38-1.7-2.66-4.09-1.25-2.6,1.54-5,0-6.19,3.2-.76,2-.16,1.81-2.47,2.4a7.46,7.46,0,0,0-3.78,1.65c-1.69,1.69-.39,3.08-1,4.6-.44,1.08-2.68,1.74-3.42,2.81-1.74,2.55-.78,6.31.87,8.67C78.46,155.44,85.39,157.86,95.8,159.36Z" transform="translate(-0.02 -0.26)"/><path class="cls-1" d="M96.27,159.23a7.44,7.44,0,0,1-2.49-4,22.92,22.92,0,0,1-.84-4.65c-.41-4.44.34-8.87.54-13.3a60.84,60.84,0,0,1,1-7,20.62,20.62,0,0,0,.31-3.33,5,5,0,0,0-.31-2.07c-.4-.83-1.38-.71-2.11-.42-1.21.48-2.18,1.44-3.41,1.86s-2.65.3-3.84.94-1.57,2-2,3.25a.82.82,0,0,1-.61.63c-.78.25-1.59.39-2.37.61-1.6.45-3.49,1.4-3.74,3.24-.1.75.12,1.49,0,2.24A2.38,2.38,0,0,1,75,139a10.72,10.72,0,0,0-1.86,1.27,4.38,4.38,0,0,0-1.09,2.06c-.85,3.35,1,6.67,3.18,9.06,4.41,4.8,11,6.61,17.22,7.7q1.48.27,3,.48a.88.88,0,0,0,.69-.12c.11-.1.19-.24,0-.27-6.31-.92-13.2-2.2-18.23-6.42-2.33-2-4.39-4.54-4.91-7.6-.27-1.59-.16-3.72,1.12-4.89.94-.86,2.71-1.29,3.15-2.62a5.24,5.24,0,0,0,.06-2,2.94,2.94,0,0,1,1-2.47c1.3-1.17,3.14-1.19,4.71-1.74.88-.31,1-.9,1.26-1.72a4.15,4.15,0,0,1,1.14-2,3.4,3.4,0,0,1,1.75-.6A9.78,9.78,0,0,0,91,125.78c.49-.31,1-.63,1.48-.9.28-.15.53-.34.8-.1a2.37,2.37,0,0,1,.45,1.56,15.21,15.21,0,0,1-.13,3.09c-.27,2.16-.82,4.29-1,6.47s-.26,4.25-.44,6.37-.33,4.29-.29,6.44c.05,3,.41,6.57,2.06,9.22a5.33,5.33,0,0,0,1.42,1.57C95.58,159.67,96.45,159.36,96.27,159.23Z" transform="translate(-0.02 -0.26)"/><path class="cls-5" d="M85.38,129.64c.45,7.66,1.24,15.4,3.76,22.7a46.13,46.13,0,0,0,2.58,6.06c.14.26,1.09.29,1,.06-3.53-6.86-5.07-14.48-5.83-22.1-.21-2.18-.37-4.36-.5-6.55,0-.32-1-.41-1-.17Z" transform="translate(-0.02 -0.26)"/><path class="cls-5" d="M80.29,133.1a69.69,69.69,0,0,0,5.5,18.43,72.22,72.22,0,0,0,3.66,6.76.74.74,0,0,0,.55.29c.06,0,.51,0,.41-.14a65.78,65.78,0,0,1-8.35-20.8c-.3-1.46-.56-2.92-.81-4.39,0-.27-1-.45-1-.15Z" transform="translate(-0.02 -0.26)"/><path class="cls-5" d="M72.94,141.5a33.46,33.46,0,0,0,4.6,7.65,50.89,50.89,0,0,0,7,7.61c.2.18,1.15.07.87-.19a49,49,0,0,1-7-7.68,33.24,33.24,0,0,1-4.49-7.48c-.1-.25-1.08-.2-1,.09Z" transform="translate(-0.02 -0.26)"/><path class="cls-5" d="M76.28,138.86a38.39,38.39,0,0,0,2.41,5.86,38.07,38.07,0,0,0,2.1,4c1.46,2.24,3.07,4.4,4.68,6.54a21.31,21.31,0,0,0,2,2.48c.21.21,1.12,0,1-.19a18.66,18.66,0,0,1-1.64-2q-1.31-1.71-2.55-3.45c-.75-1-1.5-2.09-2.21-3.15a28.84,28.84,0,0,1-1.8-3.27,41.19,41.19,0,0,1-2.92-6.88c-.09-.3-1.07-.15-1,.09Z" transform="translate(-0.02 -0.26)"/><path class="cls-1" d="M105.57,187.25c-2.69-1.1-6.68.63-9.08,1.87-3.93,2-7.7,5.42-11.35,7.95-2.65,1.84-4.75,4.52-7.43,6.29-3.65,2.41-3.15,0-3.26-2.77-.12-3-2.68-4.22-.66-6.94,1.3-1.75,1.44-1.11.68-3.37a7.45,7.45,0,0,1-.66-4.08c.51-2.33,2.37-2,3.32-3.33.67-1,0-3.2.52-4.4,1.19-2.84,4.88-4.07,7.75-4C92.88,174.79,98.66,179.31,105.57,187.25Z" transform="translate(-0.02 -0.26)"/><path class="cls-1" d="M106,187.09c-3-1.15-6.43.26-9.1,1.56A57.94,57.94,0,0,0,87.42,195c-1.54,1.17-3.17,2.23-4.62,3.51s-2.81,2.7-4.34,3.91A10.57,10.57,0,0,1,76,204c-.42.18-.67.15-.86-.3-.42-1-.17-2.31-.25-3.37-.1-1.43-.91-2.56-1.29-3.9-.44-1.55.52-2.64,1.42-3.77.73-.91.06-2-.28-3-.53-1.58-1.1-3.81.4-5.08.83-.7,2.13-.92,2.58-2,.56-1.35-.18-2.92.44-4.27,1.34-3,5.06-3.78,8-3.51,6.88.62,12.31,5.39,16.81,10.24.71.77,1.41,1.56,2.1,2.35.19.22,1.12,0,.93-.25-4.58-5.27-10-10.87-17.07-12.41a12.94,12.94,0,0,0-9,.84,5.76,5.76,0,0,0-2.93,3.19,7.9,7.9,0,0,0-.11,2.17,3,3,0,0,1-.44,2.12c-.79.92-2.13,1.06-2.8,2.16-1.07,1.73-.19,3.81.39,5.54.14.43.45,1,.29,1.5a6.41,6.41,0,0,1-1,1.36,3.49,3.49,0,0,0-.38,3.87,14,14,0,0,1,.78,2,9.32,9.32,0,0,1,.21,2.23c0,.78-.16,2.21.62,2.71,1,.62,2.49-.31,3.29-.82a32.38,32.38,0,0,0,4.54-3.81A50.37,50.37,0,0,1,87.07,196c1.74-1.29,3.43-2.65,5.19-3.92A35.73,35.73,0,0,1,97.35,189a17.15,17.15,0,0,1,5.17-1.78,5.39,5.39,0,0,1,2.64.25.89.89,0,0,0,.68,0C105.93,187.34,106.2,187.17,106,187.09Z" transform="translate(-0.02 -0.26)"/><path class="cls-5" d="M75.64,195.05c6.58-3.71,13.42-7.2,20.79-9a46.7,46.7,0,0,1,6.43-1.1c.58-.05.54-.45,0-.4-7.75.76-15.08,3.6-22,7.11-2,1-4,2.1-5.93,3.21-.45.25.51.33.74.2Z" transform="translate(-0.02 -0.26)"/><path class="cls-5" d="M75.81,189a69.34,69.34,0,0,1,18.26-5.32,73.31,73.31,0,0,1,7.68-.59c.65,0-.11-.44-.42-.43a66.29,66.29,0,0,0-22.11,4.24c-1.42.54-2.82,1.13-4.21,1.73-.33.14.56.47.8.37Z" transform="translate(-0.02 -0.26)"/><path class="cls-5" d="M78.72,178.33a32.08,32.08,0,0,1,8.59-.26,48.71,48.71,0,0,1,10,1.69c.41.12,1-.15.32-.34a51.62,51.62,0,0,0-10.48-1.78,34.64,34.64,0,0,0-9,.29c-.22,0-.16.17,0,.28a1,1,0,0,0,.7.12Z" transform="translate(-0.02 -0.26)"/><path class="cls-5" d="M78.26,182.53a36.9,36.9,0,0,1,6.35-1.13,34.44,34.44,0,0,1,4.06-.35c2.6,0,5.21.19,7.8.38a22.65,22.65,0,0,1,3,.31.94.94,0,0,0,.7-.08c.12-.1.2-.23,0-.28a19.58,19.58,0,0,0-2.76-.3c-1.47-.12-2.94-.21-4.41-.29-1.3-.06-2.6-.13-3.91-.15A33.61,33.61,0,0,0,85,181a41.52,41.52,0,0,0-7.26,1.29c-.17,0-.28.15-.15.29s.54.05.69,0Z" transform="translate(-0.02 -0.26)"/><path class="cls-2" d="M121.77,184.41c-2.49,3.06-5.46,6.34-9,7.36-5.07,1.55-10.54,1.45-15.78,1.42-4.14,0-11.8-2.28-15.57-3.84-11.18-4.62-17.73-10.15-24.72-20.17-4.75-6.81-5.8-14.83-6.61-22.89-.7-6.87,0-14.57,3.14-20.94a25,25,0,0,1,2.23-3.68c1.85-2.53,1.47-.94,2,1.22,1.24-1,4.61-4.13,4,.11a1.74,1.74,0,0,1,2-1.07c.45.29,0,3.4.1,4,.39,3.46.25,6.94,1,10.34,3.05,13.65,9.84,16.57,19.75,20.48a29.65,29.65,0,0,0,7.23,1.88q5.91,1.08,11.9,1.75c4,.45,8.21,1,12,2.75a18.82,18.82,0,0,1,5.09,3.38c.79.75,1.35,1.71,2.1,2.46.61.6,1.49,1,2.11,1.65a2.19,2.19,0,0,1,.48,1.25,23.59,23.59,0,0,1,.07,6.66,6.2,6.2,0,0,1-.5,1.9,7.3,7.3,0,0,1-.88,1.26C123.26,182.54,122.53,183.47,121.77,184.41Z" transform="translate(-0.02 -0.26)"/><path class="cls-1" d="M121.31,184.25a34.4,34.4,0,0,1-4.57,4.85,13.93,13.93,0,0,1-6,2.93,39.69,39.69,0,0,1-7.45.89c-2.31.09-4.66.14-7,0a42.39,42.39,0,0,1-11-2.45A58.78,58.78,0,0,1,74.94,186a46,46,0,0,1-8.88-6.37A58.87,58.87,0,0,1,58.5,171a32.48,32.48,0,0,1-5.92-12.16,77,77,0,0,1-2.08-13.61,43,43,0,0,1,1-13.56,30.14,30.14,0,0,1,2.36-6.44,24.38,24.38,0,0,1,2-3.25,8.92,8.92,0,0,1,.95-1.18s.31-.25.31-.24-.57,0-.55-.09.07.14.07.18a14.77,14.77,0,0,0,.44,2.16c.06.26.75.37.94.21a14.76,14.76,0,0,1,2.23-1.7c.18-.1.38-.16.56-.25s.16,0,.23,0c-.51.18-.09-.17-.13,0s.18.58.19.7a6.08,6.08,0,0,1-.08,1.13c0,.28.91.5,1,.22a1.26,1.26,0,0,1,.53-.71,2.15,2.15,0,0,1,.52-.27,1,1,0,0,0,.25-.06c.08-.08-.08-.06-.1,0a3.87,3.87,0,0,0,.09.66c0,.31,0,.62,0,.92,0,.58-.08,1.16-.1,1.75a21.53,21.53,0,0,0,.18,2.39c.15,2.11.2,4.22.47,6.32a32.73,32.73,0,0,0,1.3,5.62,25.42,25.42,0,0,0,3.74,7.58,20.5,20.5,0,0,0,5.3,4.87,40.55,40.55,0,0,0,6.67,3.38,42.57,42.57,0,0,0,8.54,2.9c4.17.79,8.36,1.46,12.56,2s8.43.88,12.38,2.46a18.68,18.68,0,0,1,5.13,3,15.49,15.49,0,0,1,2.13,2.3,9.13,9.13,0,0,0,1.89,1.73,3.22,3.22,0,0,1,1.1,1,4.25,4.25,0,0,1,.34,1.53,22.79,22.79,0,0,1,.18,3.4,19.65,19.65,0,0,1-.29,3.16,6,6,0,0,1-1.47,2.82c-.66.82-1.3,1.64-2,2.45-.19.24.73.55.91.32.71-.86,1.4-1.75,2.11-2.61a5.91,5.91,0,0,0,1.35-2.54,21,21,0,0,0,.18-6.53,3.49,3.49,0,0,0-1-2.54,18.61,18.61,0,0,1-2.22-1.83,22.72,22.72,0,0,0-2-2.28,19.24,19.24,0,0,0-2.34-1.78,28.67,28.67,0,0,0-11.49-3.85c-4.54-.67-9.11-1.1-13.65-1.88-1.83-.31-3.7-.59-5.5-1A39.31,39.31,0,0,1,83,156a51,51,0,0,1-7.33-3.44A20.83,20.83,0,0,1,70,147.61a24.69,24.69,0,0,1-4-8.14,32.35,32.35,0,0,1-1.28-6c-.25-2.32-.27-4.66-.51-7-.12-1.21.12-2.42.06-3.64a1.15,1.15,0,0,0-.36-1,1.94,1.94,0,0,0-1.65-.11A1.8,1.8,0,0,0,61,122.89l1,.22c.09-.62.26-1.58-.24-2.1a1.66,1.66,0,0,0-1.53-.35,8.21,8.21,0,0,0-3.12,2.07L58,123c-.21-.84-.15-3.22-1.66-2.77-.74.22-1.29,1.3-1.7,1.88a27.24,27.24,0,0,0-1.86,3.18,35.15,35.15,0,0,0-3.35,14.16,70.58,70.58,0,0,0,1.14,14.28,39,39,0,0,0,4.51,13.61,51.31,51.31,0,0,0,3.87,5.5,58.49,58.49,0,0,0,4,4.63,46.42,46.42,0,0,0,8.74,7.19,59.69,59.69,0,0,0,22.22,8.48,36.29,36.29,0,0,0,6,.34,68.9,68.9,0,0,0,7.6-.33,22.55,22.55,0,0,0,7.15-1.68,18.09,18.09,0,0,0,5.29-4.16c.81-.87,1.57-1.77,2.31-2.69C122.41,184.34,121.49,184,121.31,184.25Z" transform="translate(-0.02 -0.26)"/><path class="cls-1" d="M103.88,177c-.76.81-2.45,1.68-1.93,3.05.45,1.16,2.2,1.53,3.28,1.69l-.39-.36a2.61,2.61,0,0,0-1.36,1.91c-.08.95.76,1.44,1.59,1.62.14,0,.53.1.62-.06s-.2-.27-.31-.29a1,1,0,0,1-.87-1.34,2.35,2.35,0,0,1,1.16-1.52c.29-.17-.29-.34-.39-.36-.87-.12-2.32-.48-2.42-1.55s1.28-1.84,2-2.56c.18-.19-.74-.45-.94-.23Z" transform="translate(-0.02 -0.26)"/><path class="cls-1" d="M105.7,190.23a3.11,3.11,0,0,0-1.09.26,1.25,1.25,0,0,0-.58.48,1,1,0,0,0,.29,1.18,3.51,3.51,0,0,0,1,.66,1,1,0,0,0,.71,0c.06,0,.15-.07.15-.14s-.1-.12-.15-.14l-.06,0h0a.31.31,0,0,0-.1-.05l-.18-.12a1.59,1.59,0,0,1-.33-.25h0l0,0-.06-.06-.1-.13a1.35,1.35,0,0,1-.15-.26s0,0,0,0,0,0,0-.06a.51.51,0,0,1,0-.13v-.12s0,0,0-.06,0-.06,0,0a.8.8,0,0,1,.13-.22l0,0s0,0,0,0l.12-.09,0,0s-.06,0,0,0l.09,0,.1,0s.07,0,0,0h0l.24-.05h0s.07,0,.09,0l.16,0c.09,0,.45-.08.34-.25s-.46-.15-.61-.13Z" transform="translate(-0.02 -0.26)"/><path class="cls-1" d="M90.16,162.62c-1.28.09-3.58.84-3.41,2.49.15,1.48,2,2.06,3.15,2.62l-.08-.24c-.81.46-1.79.6-2.64,1-.64.29-1.44.75-1.37,1.57s.86,1.43,1.46,1.86a11,11,0,0,0,2.34,1.26l-.13-.19c-.61.75-1.58,1.08-2.19,1.84-.16.18.77.33,1,.09.62-.75,1.58-1.08,2.19-1.84.07-.09-.07-.17-.13-.19a10.73,10.73,0,0,1-2.06-1.1c-.59-.41-1.45-1-1.44-1.85s1-1.19,1.68-1.43a15.31,15.31,0,0,0,2.2-.83c.15-.09,0-.2-.08-.25-1-.47-2.44-.92-2.8-2.05-.47-1.49,1.46-2.3,2.62-2.38.13,0,.42-.08.35-.25s-.5-.14-.62-.13Z" transform="translate(-0.02 -0.26)"/><path class="cls-1" d="M78.56,163.18a6.5,6.5,0,0,1-2.37.19,6.29,6.29,0,0,0-2.55.4c-1.8.85.43,3,1.25,3.75l.61-.27a5.68,5.68,0,0,0-3.34.44c-1.37.85-.1,2.41.49,3.31l.6-.27a3.61,3.61,0,0,0-3,1.14,1.78,1.78,0,0,0,.42,2.74c.21.16,1.16,0,.85-.24a1.56,1.56,0,0,1-.52-2.13,2.32,2.32,0,0,1,2-1.12c.1,0,.76,0,.6-.27-.46-.71-1.66-2.06-.75-2.88.57-.51,1.7-.37,2.4-.32,0,0,.81-.09.6-.27-.69-.62-3.11-3-1.14-3.48,1.47-.35,3.16.17,4.57-.47.19-.09.14-.2,0-.29a1,1,0,0,0-.7,0Z" transform="translate(-0.02 -0.26)"/><path class="cls-1" d="M80.7,168.37a15,15,0,0,1-1.78.31,11.7,11.7,0,0,0-2.27.53,1.88,1.88,0,0,0-1.3,1.1,1.26,1.26,0,0,0,.79,1.44c.61.33,1.3.44,1.92.72l-.08-.24a10.43,10.43,0,0,1-2.13.78,3.2,3.2,0,0,0-1.38,1,1.79,1.79,0,0,0-.49,1.23c.08.54.65.75,1.12.84.18,0,.54.08.69-.07s0-.25-.18-.28c-1.11-.2-.49-1.31,0-1.83.86-.9,2.22-.79,3.22-1.46.13-.1,0-.2-.08-.25-.75-.34-2.55-.48-2.47-1.63,0-.59.55-.88,1.06-1.07a10.63,10.63,0,0,1,2-.45,15.38,15.38,0,0,0,1.9-.32c.15,0,.32-.12.18-.27s-.52-.12-.69-.08Z" transform="translate(-0.02 -0.26)"/><path class="cls-1" d="M55.44,161.86a2.36,2.36,0,0,1,0-1.79l-.86-.08a9.45,9.45,0,0,1,2.37,2.74,1,1,0,0,0,.65.24c.14,0,.36-.05.24-.22a6.65,6.65,0,0,1-1-2.29.92.92,0,0,1,.34-1s.07,0,0,0,0,0,0,0h-.1c.11,0-.14,0-.08,0h0l.09,0c.05,0,0,0,0,0l0,0,.11.09.28.22a3.39,3.39,0,0,0,1.35.86c.12,0,.48.1.54-.07s-.34-.3-.44-.32h0c-.08,0,0,0,0,0s-.14-.08-.08,0l-.28-.22c-.19-.16-.37-.33-.57-.48a2,2,0,0,0-1.55-.55,1,1,0,0,0-.75.95,4,4,0,0,0,.4,1.47,10,10,0,0,0,.72,1.32l.89,0a9.7,9.7,0,0,0-2.51-2.86,1,1,0,0,0-.52-.17c-.1,0-.28,0-.34.1a2.55,2.55,0,0,0,0,1.9c.09.28,1,.4,1,.14Z" transform="translate(-0.02 -0.26)"/><path class="cls-1" d="M65,171.13a3,3,0,0,1-.44-.9,1.19,1.19,0,0,1,0-1l.07-.09,0,0s.09,0,0,0h0c.08,0-.1,0,0,0h0s-.13,0-.06,0h0l.13,0,.06,0h0l.12,0,.27.1.53.21a3.21,3.21,0,0,0,1.43.28c.12,0,.38-.09.22-.25a.93.93,0,0,0-.67-.17c-.12,0,.1,0,0,0s.13,0,0,0,.08,0,0,0l-.14,0-.07,0c-.07,0,0,0,0,0s-.1,0-.12,0l-.29-.11a9.34,9.34,0,0,0-1.16-.4,1.33,1.33,0,0,0-1.27.15,1.1,1.1,0,0,0-.17,1.05,2.84,2.84,0,0,0,.49,1.11.78.78,0,0,0,.59.23c.06,0,.49,0,.38-.2Z" transform="translate(-0.02 -0.26)"/><path class="cls-1" d="M67.63,154.15a14.08,14.08,0,0,1-.63-1.43,1.52,1.52,0,0,1,0-1.36l-.9-.15c.64.55,1.28,1.11,2,1.65a1,1,0,0,0,.58.16c.09,0,.32,0,.27-.17a10.7,10.7,0,0,1-.39-1.4,1.92,1.92,0,0,1,0-1,.61.61,0,0,1,.19-.29.31.31,0,0,1,.13-.08l.11,0H69c.11,0,0,0,.06,0a.38.38,0,0,1,.15,0c-.11,0,.06,0,.08,0l.1,0a5.54,5.54,0,0,1,.8.21c.15.05.51.15.63,0s-.19-.29-.29-.32a5.67,5.67,0,0,0-1.58-.36,1.69,1.69,0,0,0-1.08.19c-.51.33-.43,1-.34,1.56a10.86,10.86,0,0,0,.39,1.38h.86c-.62-.5-1.21-1-1.82-1.54a1,1,0,0,0-.46-.2c-.1,0-.36-.06-.44,0a1.62,1.62,0,0,0-.06,1.47,14.7,14.7,0,0,0,.66,1.53c.09.18.39.25.57.27s.48,0,.4-.16Z" transform="translate(-0.02 -0.26)"/><path class="cls-1" d="M51.72,145a3.16,3.16,0,0,1,.38-1.45l.09-.11c.06-.05,0,0,0,0H52c-.09,0,0,0,0,0s.1.05.11.06c.64.39,1.14,1,1.76,1.46.14.1.92.29.94,0a2.92,2.92,0,0,1,.6-1.92l.13-.1s.06,0,.05,0-.21,0-.2,0l.1.06a2.71,2.71,0,0,1,.82,1c.15.26,1.11.21,1,0a3,3,0,0,0-1.08-1.24,1.68,1.68,0,0,0-1.35-.11c-.84.32-1,1.52-1,2.28l.94,0c-.42-.3-.78-.65-1.16-1a3.36,3.36,0,0,0-1.07-.72,1.27,1.27,0,0,0-1.3.17,2.94,2.94,0,0,0-.5,1.64c0,.27,1,.37,1,.08Z" transform="translate(-0.02 -0.26)"/><path class="cls-1" d="M59.25,154.17a3,3,0,0,1,.19-1.93.93.93,0,0,1,.21-.23l.11,0s.13,0,0,0h.06l.19.05a3.82,3.82,0,0,1,.54.26c.12.07.94.26.85-.08a5.82,5.82,0,0,1,0-2.72,1.85,1.85,0,0,1,.56-1l.17-.09c.11,0,.05,0,.11,0h0l.12,0a2,2,0,0,1,.36.19,1,1,0,0,0,.7.1c.19-.06.21-.18,0-.28a2.59,2.59,0,0,0-2-.41,1.46,1.46,0,0,0-.94,1,5.45,5.45,0,0,0-.08,3.2l.86-.07c-.71-.4-1.89-.88-2.63-.29s-.52,1.56-.44,2.25c0,.32,1,.37,1,.14Z" transform="translate(-0.02 -0.26)"/><path class="cls-1" d="M56.09,137c.24-.67.23-1.51.75-2.05l-.62-.06c.81.42,1.23,1.46,1.77,2.16.09.12.86.49.91.19.1-.57.32-1.49,1-1.68,0,0,.1,0,.15,0s-.1,0,0,0c0,0-.07,0,0,0l.18.12a3.44,3.44,0,0,1,.76,1c.13.22,1.08.41.88.08A2.88,2.88,0,0,0,59.45,135c-1,.05-1.36,1.07-1.5,1.89l.92.2c-.34-.45-.63-.95-1-1.4a3.85,3.85,0,0,0-1.31-1.13c-.13-.06-.5-.19-.63-.06-.57.59-.56,1.42-.82,2.15-.1.26.85.59,1,.31Z" transform="translate(-0.02 -0.26)"/><path class="cls-1" d="M51.85,131.72a2.29,2.29,0,0,0,.31-.09c-.16.14-.15-.14-.08,0a.43.43,0,0,0,.1.09,2.3,2.3,0,0,1,.37.69,4.35,4.35,0,0,1,.29,1.51c0,.24.89.52.94.27.15-.67.12-1.69.66-2.18l.18-.11-.25-.08.08.08c.09.19.21.35.29.54.14.37.22.75.34,1.12.07.22.8.54,1,.27a4.21,4.21,0,0,1,1.28-1.61,1,1,0,0,1,.62-.26h0a.58.58,0,0,1,.14.13,2.28,2.28,0,0,1,.33.5.79.79,0,0,0,.54.34s.5.05.41-.12a2.11,2.11,0,0,0-2.26-1.31c-.94.21-1.59,1.21-2,2l1,.27c-.33-1-.58-2.43-2-2.37-1.08.05-1.08,1.7-1.24,2.46l.94.27a3.9,3.9,0,0,0-.62-2.18,1.75,1.75,0,0,0-2.19-.62c-.18.09.2.32.25.35a.78.78,0,0,0,.63.06Z" transform="translate(-0.02 -0.26)"/><path class="cls-1" d="M57.54,128.47a2.7,2.7,0,0,1,1.62-1.09c-.1,0,0,0,.05.05a1.2,1.2,0,0,1,.26.29,3.57,3.57,0,0,1,.47,1.3c0,.23.93.43,1,.16A4.59,4.59,0,0,1,62,126.6l-.84-.1A6.17,6.17,0,0,1,62.9,128c.16.21,1.12.29.89,0A6.67,6.67,0,0,0,62,126.38c-.17-.11-.65-.29-.83-.1A4.89,4.89,0,0,0,59.93,129l1,.16c-.21-1.06-.71-2-1.88-2.18a2.79,2.79,0,0,0-2.4,1.21c-.19.21.73.53.92.31Z" transform="translate(-0.02 -0.26)"/><path class="cls-1" d="M51.7,154.66c.06-.36.07-.72.13-1.08a2.34,2.34,0,0,1,.44-1.2l-.84,0c.68.4,1,1.2,1.49,1.8.12.15,1,.29.93,0a3.27,3.27,0,0,1-.2-1.07,2.16,2.16,0,0,1,.19-1.18s.28-.34.31-.28-.21-.08-.08,0l.26.15a12.9,12.9,0,0,1,1,.92,1,1,0,0,0,.67.18c.1,0,.39-.09.22-.24a11,11,0,0,0-1.34-1.12,1.33,1.33,0,0,0-2.26,1.22,3.55,3.55,0,0,0,.22,1.37h.93a6.79,6.79,0,0,0-1.63-1.9c-.19-.11-.66-.24-.84,0-.57.62-.49,1.61-.62,2.38,0,.27.93.44,1,.16Z" transform="translate(-0.02 -0.26)"/><path class="cls-1" d="M64.26,163.75a4.65,4.65,0,0,1-.53-1,1,1,0,0,1,.06-1.08.8.8,0,0,1,.85-.14,10.31,10.31,0,0,0,1.17.34c.08,0,.48,0,.4-.14a3,3,0,0,1-.32-1.45.42.42,0,0,1,.16-.26.59.59,0,0,1,.26-.07l.41,0,.66.1a9.21,9.21,0,0,0,1.57.11c.14,0,.37,0,.25-.21a.89.89,0,0,0-.64-.25,9.16,9.16,0,0,1-1.57-.13,5.72,5.72,0,0,0-1.37-.1.72.72,0,0,0-.69.51,3,3,0,0,0,.33,1.57l.4-.15-.08,0-.14,0-.28-.09a6,6,0,0,0-.83-.23,1.62,1.62,0,0,0-1.39.22c-.73.64,0,1.82.44,2.43A.9.9,0,0,0,64,164c.13,0,.37,0,.24-.22Z" transform="translate(-0.02 -0.26)"/><path class="cls-1" d="M79.26,155.1a1.89,1.89,0,0,0-1.3.36,1,1,0,0,0-.26.92,3.67,3.67,0,0,0,1.3,2.06l-.06-.22c-.6.3-1.55.31-1.93.94a1.13,1.13,0,0,0,.11,1.16,2,2,0,0,0,1.27.82c.11,0,.43.06.41-.13s-.42-.29-.55-.32c.09,0,0,0,0-.05a1.07,1.07,0,0,1-.14-.16,1,1,0,0,1-.21-.48.73.73,0,0,1,.34-.75c.49-.32,1.11-.37,1.62-.64.11-.06,0-.19-.06-.23a3.25,3.25,0,0,1-1.09-1.72.88.88,0,0,1,.14-.77,1.33,1.33,0,0,1,1-.31c.2,0,.21-.15.08-.27a1,1,0,0,0-.67-.21Z" transform="translate(-0.02 -0.26)"/><path class="cls-1" d="M97.68,160.76c-1.26,0-3.69.34-4.07,1.82-.21.81.43,1.61.94,2.15.67.72,1.48,1.28,2.16,2l0-.16a2.49,2.49,0,0,1-1.45.5,3.55,3.55,0,0,0-1.49.49,1.46,1.46,0,0,0-.15,2.2,6,6,0,0,0,2.54,1.55,9.81,9.81,0,0,0,2.67.63c.13,0,.42,0,.38-.2s-.47-.21-.59-.22a7.62,7.62,0,0,1-2.07-.54,4.35,4.35,0,0,1-2.16-1.46,1.25,1.25,0,0,1,.77-1.91c.81-.25,1.85-.15,2.48-.79.06-.06,0-.12,0-.16-.55-.57-1.18-1-1.75-1.57a3.29,3.29,0,0,1-1.29-2c0-1.41,2.26-1.86,3.33-1.84.13,0,.42,0,.38-.19s-.47-.22-.59-.23Z" transform="translate(-0.02 -0.26)"/><path class="cls-1" d="M112,169.8c-2.48-2.92-6.36-1.57-8.59.86.19,1.4,2.55,2.27,3.92,2.27A5.22,5.22,0,0,0,112,169.8Z" transform="translate(-0.02 -0.26)"/><path class="cls-1" d="M113.33,184c-9.83,3-20,1.64-29.83-1.18a57.94,57.94,0,0,1-17-8.62,28.73,28.73,0,0,1-7.22-7.16c-.6.66-.33,1.76-.79,2.63s-1.17,1.22-1.68,1.87c-1.33,1.66-.75,2.87.91,4,1,.66,1.34.57,1.36,1.59s-.49,1.21-.21,2.24c.76,2.78,4.08,2.92,6.29,3.77s2.2,2.19,3.91,3.39c2.89,2,6.63.32,8.74,3.63,3.48,5.45,11.53,2.93,16.66,1.95C101.22,190.85,107.36,189.11,113.33,184Z" transform="translate(-0.02 -0.26)"/><path class="cls-5" d="M113,183.86c-7.76,2.33-15.93,1.93-23.77.22a58.67,58.67,0,0,1-10.94-3.37,62.31,62.31,0,0,1-9.7-5.43,30.51,30.51,0,0,1-8.82-8.23.78.78,0,0,0-1-.07,3.23,3.23,0,0,0-.51,1.64,3.35,3.35,0,0,1-1.15,2c-.85.81-1.89,1.9-1.46,3.19s1.56,1.67,2.48,2.32a1.27,1.27,0,0,1,.4,1.32,4.38,4.38,0,0,0-.18,1.87c.57,2.27,3,2.93,5,3.48a6.25,6.25,0,0,1,3.37,1.84A8.94,8.94,0,0,0,69.29,187a10.55,10.55,0,0,0,3.5.93A7.23,7.23,0,0,1,76.25,189c1,.75,1.49,1.95,2.43,2.76a7.64,7.64,0,0,0,2.87,1.52c4.47,1.32,9.33-.22,13.75-1.09a52.41,52.41,0,0,0,9.6-2.68,32.94,32.94,0,0,0,8.9-5.41c.17-.14-.72-.38-1-.18a36.29,36.29,0,0,1-16.07,7.48c-2.31.51-4.63,1-7,1.42a19.34,19.34,0,0,1-6.86.36A7.36,7.36,0,0,1,80,192a6.23,6.23,0,0,1-1.26-1.2c-.38-.47-.66-1-1.08-1.43-1.63-1.73-4.05-1.57-6.18-2.06a5.86,5.86,0,0,1-3.22-2,7.09,7.09,0,0,0-2.47-2.18c-1.9-.85-4.56-.84-5.9-2.63a2.77,2.77,0,0,1-.62-1.91,5.48,5.48,0,0,0,.25-1.8,1.18,1.18,0,0,0-.65-.88,7.93,7.93,0,0,1-1.72-1.26c-1.15-1.26-.37-2.65.7-3.65a4,4,0,0,0,1.28-1.72c.21-.72.1-1.54.6-2.16l-1-.08a29.25,29.25,0,0,0,8,7.72,68.79,68.79,0,0,0,9.86,5.73,58.24,58.24,0,0,0,11.22,3.68,62.91,62.91,0,0,0,12.29,1.69,43.21,43.21,0,0,0,13.52-1.7c.21-.07.15-.18,0-.28A1,1,0,0,0,113,183.86Z" transform="translate(-0.02 -0.26)"/><path class="cls-5" d="M104.39,185.73a64.52,64.52,0,0,1-15.82,4.15c-.64.09.15.45.46.41A65.77,65.77,0,0,0,105.22,186c.21-.08,0-.25-.15-.29a.89.89,0,0,0-.68,0Z" transform="translate(-0.02 -0.26)"/><path class="cls-5" d="M91.09,184.62c-5.26,1.11-10.65,1.07-16,1.72-.11,0-.5.11-.46.28s.41.13.52.11c5.32-.64,10.71-.61,16-1.72.11,0,.5-.1.46-.28s-.41-.14-.52-.11Z" transform="translate(-0.02 -0.26)"/><path class="cls-5" d="M78.19,181.2a29.06,29.06,0,0,1-15.09.64c-.13,0-.54-.12-.63,0s.19.27.31.3A31.15,31.15,0,0,0,79,181.54c.22-.07-.05-.26-.14-.3a.94.94,0,0,0-.68,0Z" transform="translate(-0.02 -0.26)"/><path class="cls-5" d="M68.78,175.78c-3,.59-6.42,1.71-9.34.41a1,1,0,0,0-.69,0c-.08,0-.38.19-.16.28,3.33,1.48,7.1.38,10.48-.29.12,0,.41-.09.33-.27s-.51-.12-.62-.1Z" transform="translate(-0.02 -0.26)"/><path class="cls-2" d="M173.49,144.43v.08c-.93,4.59-1.15,9.17-2.63,13.62a41.84,41.84,0,0,1-6.13,12,71.74,71.74,0,0,1-15.16,15.27,54.63,54.63,0,0,1-13,6.8c-1.23.46-6.9,2.82-6.83.44,0-1.23,1.14-1.43.43-2.93-.39-.83-1.2-1.38-1.46-2.29-.71-2.54,2.86-3.15,1.28-5.83-1.31-2.23-.62-1.73.94-3.52,1.07-1.22.39-2.86,1.43-4.14.91-1.11,2.42-1.57,3.66-2.11,1.82-.78,4.71-1.77,6.43-2.75,3.4-1.94,5.3-2.76,9.48-5.55-1.43.45-6.85,2.38-9.45,2.86-3.9.72-8,2.19-12,.87-2.3-.76-2.38-1.46-1.78-3.73.29-1.1,1-2.48.54-3.62s-.11-2.32-.84-3.39c-.51-.76-1.2-1.6-.93-2.48a3,3,0,0,1,.57-.92,7.75,7.75,0,0,0,1.53-5.17c0-.61-.12-1.32.34-1.73a1.23,1.23,0,0,1,1.44,0,4.8,4.8,0,0,1,1.07,1.13c2.36,2.94,6.2,4.22,9.89,5a28.41,28.41,0,0,0,10.63.41,15.55,15.55,0,0,0,7.34-3.34c1.89-1.62,4-3.13,5.19-5.37,1-1.8,2-3.76,3.89-4.64a3.5,3.5,0,0,1,3.67.85C174,141.34,173.76,143.09,173.49,144.43Z" transform="translate(-0.02 -0.26)"/><path class="cls-1" d="M173,144.48c-.94,4.68-1.21,9.5-2.76,14.05a41.93,41.93,0,0,1-6,11.6c-5.31,7.11-11.77,13.66-19.55,18.06a62.58,62.58,0,0,1-10.07,4.49,9,9,0,0,1-3.6.81.79.79,0,0,1-.8-.7c-.09-.68.39-1.15.58-1.75.53-1.68-1.72-2.69-1.72-4.31,0-1.22,1.11-1.95,1.58-3a2.1,2.1,0,0,0,.07-1.63c-.24-.69-.91-1.32-1-2.07,0-.54.58-.9.92-1.23a3.91,3.91,0,0,0,1.32-2.11,6,6,0,0,1,.81-2.76,6.16,6.16,0,0,1,2.52-1.59c1.76-.73,3.55-1.4,5.3-2.15a52.74,52.74,0,0,0,4.72-2.45c1.46-.8,2.92-1.6,4.34-2.47.89-.55,1.77-1.11,2.64-1.69.32-.22-.61-.25-.71-.22-2.23.71-4.43,1.51-6.68,2.16-1.35.4-2.72.67-4.09,1a41.94,41.94,0,0,1-5.76,1.05,9.63,9.63,0,0,1-5.42-.93c-1-.59-.87-1.61-.64-2.61.2-.81.52-1.58.7-2.39a4.08,4.08,0,0,0,.12-1.1,8.81,8.81,0,0,0-.32-1.25,11.06,11.06,0,0,0-.45-2.44c-.36-.77-1.11-1.38-1.2-2.27s.73-1.52,1.12-2.2a8,8,0,0,0,.87-2.22,9.05,9.05,0,0,0,.15-2.49,2.13,2.13,0,0,1,.11-1.09c.32-.66,1-.06,1.29.29a19.51,19.51,0,0,0,1.67,1.84,12.3,12.3,0,0,0,1.8,1.33,18.77,18.77,0,0,0,4.33,1.83c6.6,1.94,14.79,2.52,20.65-1.73a36.05,36.05,0,0,0,3.88-3.31,17.18,17.18,0,0,0,2.81-3.91c.74-1.28,1.88-3.18,3.47-3.49a3,3,0,0,1,2.38.82,2.87,2.87,0,0,1,.83,2.06,9,9,0,0,1-.25,2.19c0,.21.94.23,1-.09.28-1.44.56-3.23-.63-4.35a4.21,4.21,0,0,0-4-.9,6.75,6.75,0,0,0-3.38,3.08c-.46.74-.84,1.52-1.3,2.26a11.64,11.64,0,0,1-1.82,2.2,31,31,0,0,1-4.22,3.55,15.16,15.16,0,0,1-5.48,2.26,27.81,27.81,0,0,1-12.62-.8,18.51,18.51,0,0,1-4.9-2,11.45,11.45,0,0,1-2.16-1.71,13.11,13.11,0,0,0-1.67-1.82,2.18,2.18,0,0,0-1.92-.25,1.39,1.39,0,0,0-.89,1.49,12.75,12.75,0,0,1-.1,2.62,7.61,7.61,0,0,1-1.09,2.67c-.45.68-1.09,1.25-.9,2.14s1,1.54,1.28,2.41.23,1.83.51,2.72a4.32,4.32,0,0,1-.27,2.74c-.32,1-.93,2.45-.41,3.44s2.36,1.44,3.43,1.64c3.82.74,7.82-.49,11.54-1.29a75.42,75.42,0,0,0,7.93-2.4l1.22-.41-.7-.21a103.78,103.78,0,0,1-9.84,5.73c-1.78.93-3.69,1.56-5.53,2.33-1.59.65-3.82,1.27-4.6,3-.39.87-.28,1.86-.6,2.75a6.16,6.16,0,0,1-1.73,2c-1.06,1.09.6,2.31.7,3.47s-1.11,2-1.56,3.09a2.41,2.41,0,0,0,0,1.88c.36.88,1.22,1.46,1.51,2.39s-.22,1.24-.46,2a1.35,1.35,0,0,0,.14,1.36c.69.75,2.2.46,3.07.29a23.56,23.56,0,0,0,3.64-1.13c1.74-.66,3.48-1.34,5.17-2.12,8.4-3.86,15.41-9.94,21.27-17A47.19,47.19,0,0,0,170,161.82a39.51,39.51,0,0,0,2.18-6.51c.56-2.45.88-4.93,1.25-7.41.18-1.17.37-2.34.61-3.51C174,144.18,173.06,144.16,173,144.48Z" transform="translate(-0.02 -0.26)"/><path class="cls-1" d="M131.7,189.64a57.94,57.94,0,0,0,20.65-10,52.11,52.11,0,0,0,15.7-20.18,63.07,63.07,0,0,0,4.58-16.34c0-.27-.95-.37-1-.08a57.93,57.93,0,0,1-10.51,26.52,52.47,52.47,0,0,1-18.32,15.31A59,59,0,0,1,131,189.3c-.22.06-.14.18,0,.28a.9.9,0,0,0,.7.06Z" transform="translate(-0.02 -0.26)"/><path class="cls-1" d="M133.18,178.75a55.22,55.22,0,0,0,24.51-14.7,48.32,48.32,0,0,0,5.14-6.45c.15-.22-.8-.35-1-.1a51.52,51.52,0,0,1-21.63,18.09,59.69,59.69,0,0,1-7.56,2.82c-.62.18.21.43.51.34Z" transform="translate(-0.02 -0.26)"/><path class="cls-1" d="M131.1,184.88a14.45,14.45,0,0,0,6-1.62c1.91-.89,3.75-1.92,5.63-2.89a67.16,67.16,0,0,0,12.1-7.66,31.46,31.46,0,0,0,5.4-5.6c.16-.21-.78-.38-1-.14-5.26,7.15-13.6,11.26-21.3,15.21-2.08,1.07-4.47,2.31-6.88,2.3-.58,0-.61.4,0,.4Z" transform="translate(-0.02 -0.26)"/><path class="cls-1" d="M171.38,142.76a31.19,31.19,0,0,1-11.58,11.59,52,52,0,0,1-8,4A70.48,70.48,0,0,1,143,161c-3.3.81-6.78,1.58-10.2,1.17-.58-.07-.65.33-.06.4a27.26,27.26,0,0,0,9-.73,80.79,80.79,0,0,0,8.87-2.42,46.86,46.86,0,0,0,15.75-8.91,27.43,27.43,0,0,0,6-7.47c.15-.29-.81-.49-.93-.26Z" transform="translate(-0.02 -0.26)"/><path class="cls-1" d="M163,150.71a46.38,46.38,0,0,1-10.12,4.34,33.1,33.1,0,0,1-12.07.38c-2.46-.29-4.89-.71-7.33-1.13-.67-.11-.3.38.13.45a82.16,82.16,0,0,0,13.17,1.54A27.66,27.66,0,0,0,158,154c2-.86,3.94-1.87,5.86-2.89.2-.11-.61-.55-.88-.41Z" transform="translate(-0.02 -0.26)"/><path class="cls-1" d="M137.46,158.06a42.84,42.84,0,0,1-6.4-.43c-.15,0-.54,0-.62.14s.25.23.36.24a43.67,43.67,0,0,0,6.66.45c.12,0,.5,0,.5-.2s-.4-.2-.5-.2Z" transform="translate(-0.02 -0.26)"/><path class="cls-2" d="M132.89,105.74c2.38,1.66,3.08,6,3.34,8.65.43,4.39-.39,9.4-.54,13.84-.12,3.22-1.23,6.44-1.27,9.65,0,4.38,1.7,2.65,4.09,1.25,2.61-1.54,5,0,6.19-3.21.77-2,.17-1.81,2.48-2.4a7.46,7.46,0,0,0,3.78-1.65c1.69-1.68.39-3.07,1-4.59.44-1.09,2.68-1.75,3.42-2.82,1.74-2.54.77-6.3-.87-8.66C150.23,109.67,143.3,107.24,132.89,105.74Z" transform="translate(-0.02 -0.26)"/><path class="cls-1" d="M132.51,105.82A7.55,7.55,0,0,1,135,110a24.29,24.29,0,0,1,.81,4.87c.33,4.43-.4,8.87-.59,13.3a67.47,67.47,0,0,1-1,6.94,18.48,18.48,0,0,0-.23,3.32,4,4,0,0,0,.34,1.8,1.76,1.76,0,0,0,2.24.48c1.18-.47,2.13-1.4,3.33-1.83s2.77-.29,4-1,1.35-2.08,1.87-3.28a1,1,0,0,1,.77-.58c.8-.25,1.62-.4,2.42-.63,1.65-.48,3.46-1.53,3.5-3.47a9.78,9.78,0,0,1,0-2.23c.19-.78.91-1.2,1.55-1.59a8.05,8.05,0,0,0,1.78-1.28,4.72,4.72,0,0,0,1-2.26c.64-3.37-1.26-6.58-3.49-8.93-4.47-4.72-11.08-6.5-17.28-7.59q-1.5-.26-3-.48c-.58-.08-.66.31-.07.4,6.29.91,13.16,2.19,18.13,6.46,2.36,2,4.47,4.76,4.8,7.95.15,1.56-.11,3.49-1.4,4.53-1,.82-2.72,1.29-3,2.71a11,11,0,0,0,0,2.15,3.06,3.06,0,0,1-1.28,2.35c-1.35,1-3.09,1-4.63,1.62-.83.3-.88,1.07-1.15,1.83a3.67,3.67,0,0,1-1.24,1.91,3.94,3.94,0,0,1-1.73.57,9.79,9.79,0,0,0-3.89,1.33c-.47.29-.94.61-1.44.86-.19.09-.38.14-.57.23s-.19,0-.08,0-.06-.1-.07-.13a4.11,4.11,0,0,1-.38-1.77,19.06,19.06,0,0,1,.22-3.2c.32-2.2.88-4.36,1-6.59s.26-4.24.43-6.36a55.38,55.38,0,0,0,.24-6.31,28,28,0,0,0-.56-4.74,12,12,0,0,0-1.64-4.3,5.74,5.74,0,0,0-1.37-1.41C133.05,105.51,132.09,105.52,132.51,105.82Z" transform="translate(-0.02 -0.26)"/><path class="cls-1" d="M143.3,135.49c-.44-7.66-1.24-15.41-3.75-22.7a45.62,45.62,0,0,0-2.59-6.06c-.13-.27-1.07-.33-1-.11,3.53,6.86,5.07,14.49,5.83,22.11.21,2.17.37,4.36.5,6.54,0,.32,1,.44,1,.22Z" transform="translate(-0.02 -0.26)"/><path class="cls-1" d="M148.42,131.94A70.22,70.22,0,0,0,143,113.55a74.16,74.16,0,0,0-3.71-6.85c-.15-.25-1.11-.15-1,.09a65.69,65.69,0,0,1,8.33,20.74c.3,1.46.56,2.92.81,4.39.05.31,1,.26,1,0Z" transform="translate(-0.02 -0.26)"/><path class="cls-1" d="M155.76,123.58a33.34,33.34,0,0,0-4.51-7.54,50.17,50.17,0,0,0-7.05-7.73c-.22-.19-1.12.09-.94.25a49.75,49.75,0,0,1,6.93,7.57,33,33,0,0,1,4.58,7.59c.12.3,1.08.07,1-.14Z" transform="translate(-0.02 -0.26)"/><path class="cls-1" d="M152.39,126.28a38.39,38.39,0,0,0-2.48-6,35.78,35.78,0,0,0-2-3.87c-1.47-2.26-3.09-4.43-4.71-6.58a21.61,21.61,0,0,0-2-2.43c-.18-.18-1.14-.13-.87.14a19.74,19.74,0,0,1,1.67,2.08c.86,1.14,1.71,2.3,2.55,3.46s1.48,2.06,2.18,3.11a32.42,32.42,0,0,1,1.84,3.38,41.25,41.25,0,0,1,2.85,6.75c.08.26,1.06.27,1,0Z" transform="translate(-0.02 -0.26)"/><path class="cls-2" d="M123.12,77.85c2.68,1.11,6.67-.62,9.08-1.86,3.93-2,7.7-5.42,11.34-8,2.65-1.84,4.75-4.51,7.43-6.28,3.66-2.41,3.16,0,3.27,2.76.12,3,2.68,4.22.65,6.94-1.3,1.75-1.43,1.12-.67,3.38a7.4,7.4,0,0,1,.65,4.07c-.5,2.33-2.37,2-3.31,3.34-.68,1,0,3.2-.52,4.4-1.19,2.84-4.88,4.06-7.75,4C135.81,90.31,130,85.8,123.12,77.85Z" transform="translate(-0.02 -0.26)"/><path class="cls-1" d="M123.05,78c3,1.15,6.34-.24,9-1.55,3.51-1.73,6.53-4.24,9.64-6.58,1.54-1.17,3.13-2.23,4.57-3.53s2.75-2.65,4.28-3.81a9.12,9.12,0,0,1,2.31-1.41,1.39,1.39,0,0,1,.63-.15c-.19,0-.07-.07,0,.06a2.69,2.69,0,0,0,.13.32c.33,1.14.06,2.39.22,3.55.2,1.37,1.05,2.48,1.32,3.81.32,1.51-.77,2.52-1.59,3.64a1.1,1.1,0,0,0-.23.94,17.56,17.56,0,0,0,.72,2.23c.53,1.59.88,3.74-.66,4.89-.84.63-2.11.9-2.47,2-.45,1.37.21,2.88-.43,4.22-1.37,2.86-5.05,3.82-8,3.62-6.9-.47-12.29-5.16-16.8-10-.73-.79-1.44-1.59-2.15-2.4a1,1,0,0,0-.62-.29c-.1,0-.42,0-.26.19,4.61,5.29,10,10.82,17,12.52,3,.72,6.27.86,9-.65a5.44,5.44,0,0,0,2.88-3.27c.29-1.35-.44-3.23.66-4.3.88-.85,2.18-1,2.77-2.2.92-1.82,0-3.84-.59-5.6-.13-.42-.36-.91-.15-1.34a13.88,13.88,0,0,1,1.17-1.51,3.58,3.58,0,0,0,.1-3.82,10,10,0,0,1-.77-2.12,11.26,11.26,0,0,1-.14-2.17c0-.87.07-2.08-.79-2.58-1.13-.66-2.41.15-3.35.78A37.09,37.09,0,0,0,146,65.45a57.51,57.51,0,0,1-4.77,3.76c-1.73,1.3-3.43,2.65-5.19,3.91a32.94,32.94,0,0,1-5,3,17,17,0,0,1-5.31,1.77,5.33,5.33,0,0,1-2.54-.23C122.64,77.45,122.5,77.83,123.05,78Z" transform="translate(-0.02 -0.26)"/><path class="cls-1" d="M153,70c-6.62,3.74-13.5,7.23-20.92,9a44.15,44.15,0,0,1-6.45,1.11c-.18,0-.3.09-.21.25s.53.15.68.14c7.7-.75,15-3.58,21.82-7.07,2-1,4-2.1,5.93-3.2.31-.18-.61-.42-.85-.28Z" transform="translate(-0.02 -0.26)"/><path class="cls-1" d="M152.92,76.19a69.09,69.09,0,0,1-18.13,5.27,72.53,72.53,0,0,1-7.65.59c-.59,0-.58.42,0,.4a67.06,67.06,0,0,0,22.28-4.28c1.41-.54,2.81-1.13,4.2-1.73.21-.09.13-.19,0-.28a.9.9,0,0,0-.7,0Z" transform="translate(-0.02 -0.26)"/><path class="cls-1" d="M149.91,86.75a32.38,32.38,0,0,1-8.63.26,48,48,0,0,1-10-1.69c-.57-.16-.69.22-.12.39a52.23,52.23,0,0,0,10.47,1.78,34,34,0,0,0,9-.29c.23,0,0-.26-.1-.31a.93.93,0,0,0-.67-.14Z" transform="translate(-0.02 -0.26)"/><path class="cls-1" d="M150.31,82.5A37.46,37.46,0,0,1,144,83.65a34.34,34.34,0,0,1-4.3.38c-2.61,0-5.24-.2-7.84-.39a20,20,0,0,1-3.1-.32c-.13,0-.42,0-.4.15s.43.27.55.3a20.56,20.56,0,0,0,2.72.29c1.47.12,2.94.21,4.41.28,1.28.07,2.56.13,3.84.15a33.47,33.47,0,0,0,4-.29,41.59,41.59,0,0,0,7.2-1.27c.23-.06,0-.25-.09-.31a1,1,0,0,0-.68-.12Z" transform="translate(-0.02 -0.26)"/><path class="cls-1" d="M106.92,80.69c2.49-3.06,5.45-6.34,9-7.35,5.07-1.55,10.53-1.45,15.77-1.43,4.15,0,11.81,2.28,15.58,3.84C158.42,80.38,165,85.91,172,95.93c4.75,6.81,5.8,14.83,6.61,22.88.69,6.87,0,14.58-3.14,20.95a25,25,0,0,1-2.23,3.68c-1.85,2.52-1.48.93-2-1.23-1.24,1-4.61,4.13-4-.1-.12.75-1.52,1.41-2,1.06s0-3.39-.1-4c-.4-3.47-.26-6.95-1-10.35-3.06-13.64-9.84-16.56-19.75-20.47a28.77,28.77,0,0,0-7.23-1.88q-5.93-1.08-11.9-1.75c-4.05-.45-8.22-1-12-2.75a18.7,18.7,0,0,1-5.09-3.39c-.79-.74-1.36-1.71-2.11-2.45-.6-.61-1.48-1-2.1-1.65a2.25,2.25,0,0,1-.49-1.25,24,24,0,0,1-.06-6.67,6.2,6.2,0,0,1,.5-1.9,7.3,7.3,0,0,1,.88-1.26C105.43,82.56,106.15,81.64,106.92,80.69Z" transform="translate(-0.02 -0.26)"/><path class="cls-1" d="M107.4,80.72a34,34,0,0,1,4.68-4.92A13.39,13.39,0,0,1,114.83,74a15.42,15.42,0,0,1,3.32-1,39.73,39.73,0,0,1,7.54-.82c2.23-.07,4.51-.15,6.74,0a45.86,45.86,0,0,1,11,2.5,58.44,58.44,0,0,1,10.3,4.55,46.07,46.07,0,0,1,8.84,6.35,58.28,58.28,0,0,1,7.56,8.59,37.68,37.68,0,0,1,3.52,5.58,34.84,34.84,0,0,1,2.39,6.49,78.25,78.25,0,0,1,2.09,13.45,43.21,43.21,0,0,1-.89,13.56,30,30,0,0,1-2.37,6.61,24.15,24.15,0,0,1-1.78,3,12.13,12.13,0,0,1-1,1.34,4.32,4.32,0,0,1-.38.37c0,.06.5-.05.49,0s-.08-.14-.09-.18a17.94,17.94,0,0,0-.43-2.16c-.07-.29-.77-.2-.94-.06a14.43,14.43,0,0,1-2.26,1.71,1.19,1.19,0,0,1-.53.23c-.1,0,.1.05,0,0a.5.5,0,0,1-.14-.15,2.9,2.9,0,0,1-.09-1.82c0-.25-.93-.26-1,0a1.28,1.28,0,0,1-.64.75c-.27.15-.44.28-.56,0a4.68,4.68,0,0,1,0-1.67c0-.57.08-1.13.09-1.7,0-.8-.13-1.62-.18-2.42-.16-2.21-.21-4.43-.53-6.62a33.59,33.59,0,0,0-1.35-5.49,24.78,24.78,0,0,0-3.78-7.44,21,21,0,0,0-5.27-4.76,44.05,44.05,0,0,0-6.7-3.34,42.53,42.53,0,0,0-8.63-2.83c-4.23-.77-8.47-1.46-12.74-2s-8.33-.94-12.22-2.57a18.82,18.82,0,0,1-5.12-3.17,17.52,17.52,0,0,1-2-2.22,9.62,9.62,0,0,0-2-1.72,2.53,2.53,0,0,1-1-1,6.41,6.41,0,0,1-.29-1.56,24.79,24.79,0,0,1-.15-3.22,19.88,19.88,0,0,1,.3-3.27,6.2,6.2,0,0,1,1.47-2.71c.66-.81,1.31-1.63,2-2.45.15-.18-.77-.3-1-.06-.71.87-1.4,1.75-2.1,2.62A5.75,5.75,0,0,0,103,85.81a20.76,20.76,0,0,0-.16,6.72,3.16,3.16,0,0,0,1,2.38,15.23,15.23,0,0,1,2.26,1.91,17.94,17.94,0,0,0,2,2.25,18.75,18.75,0,0,0,2.34,1.75,29.07,29.07,0,0,0,11.7,3.73c4.58.64,9.16,1.11,13.71,1.92,1.75.31,3.55.56,5.26,1a44.12,44.12,0,0,1,4.7,1.73,49,49,0,0,1,7.28,3.46,20.6,20.6,0,0,1,5.67,5,25.27,25.27,0,0,1,4,8.22,32,32,0,0,1,1.24,6c.24,2.29.26,4.59.5,6.88.12,1.18-.12,2.36-.07,3.54,0,.38,0,.82.41,1a2.22,2.22,0,0,0,1.71-.12,1.81,1.81,0,0,0,1.14-1.15l-1,0c-.09.6-.26,1.57.24,2.06a1.61,1.61,0,0,0,1.53.19,8.93,8.93,0,0,0,3.11-2.09l-.93-.06a18.52,18.52,0,0,0,.46,2.24.84.84,0,0,0,1.13.4c.74-.23,1.27-1.18,1.68-1.77a25,25,0,0,0,2-3.31,35.12,35.12,0,0,0,3.36-14,70.7,70.7,0,0,0-1.12-14.44,39.5,39.5,0,0,0-4.43-13.47,49.57,49.57,0,0,0-3.94-5.64,60.34,60.34,0,0,0-4-4.63A46.51,46.51,0,0,0,157,80.39a57.77,57.77,0,0,0-10.72-5.3A58.59,58.59,0,0,0,134.73,72a40.87,40.87,0,0,0-6.06-.28,64.62,64.62,0,0,0-7.74.39,21.64,21.64,0,0,0-7,1.75A18.62,18.62,0,0,0,108.75,78c-.81.87-1.57,1.77-2.31,2.69C106.29,80.84,107.21,81,107.4,80.72Z" transform="translate(-0.02 -0.26)"/><path class="cls-5" d="M124.78,88.07c.74-.79,2.43-1.66,2-3-.38-1.16-2-1.52-3.09-1.68l.13.31a2.73,2.73,0,0,0,1.4-1.9c.12-1-.68-1.43-1.5-1.6a.86.86,0,0,0-.68.12c-.13.17,0,.23.21.26,1.65.36.89,2.29-.16,2.89-.24.14-.08.28.13.31.89.13,2.4.47,2.61,1.52.24,1.2-1.23,1.92-1.91,2.64-.26.28.69.33.88.13Z" transform="translate(-0.02 -0.26)"/><path class="cls-5" d="M123.08,74.89a3.11,3.11,0,0,0,1-.25,1.09,1.09,0,0,0,.52-.45,1.06,1.06,0,0,0-.32-1.22,3.64,3.64,0,0,0-1-.66.87.87,0,0,0-.69,0c-.2.1,0,.24.14.3-.08,0,0,0,0,0l.1.05.19.12.09,0s0,0,0,0l0,0,.15.13.12.13,0,0s0,0,0,0l0,0a2.15,2.15,0,0,1,.14.26l0,.12s0,0,0,0v.07a.66.66,0,0,1,0,.24l0,.06s0,0,0,0v0a1,1,0,0,0-.08.11l-.11.09s0,0,0,0l0,0-.18.09-.1,0s.06,0,0,0l-.06,0-.24.06h0c-.1,0,.06,0,0,0l-.16,0c-.12,0-.37.08-.22.24a.93.93,0,0,0,.67.17Z" transform="translate(-0.02 -0.26)"/><path class="cls-5" d="M138.6,102.52c1.3-.1,3.56-.84,3.32-2.52-.21-1.45-2.09-2-3.21-2.6l.13.31c1-.6,4.21-.88,4-2.61a3.1,3.1,0,0,0-1.44-1.84A11,11,0,0,0,139,92l.18.27c.61-.76,1.57-1.09,2.19-1.84.19-.23-.74-.52-.92-.29-.62.75-1.59,1.08-2.2,1.84-.09.11.1.23.19.26a9.75,9.75,0,0,1,2,1.09c.57.39,1.43,1,1.4,1.83s-1,1.15-1.61,1.39a16,16,0,0,0-2.25.84c-.19.11,0,.24.12.31.95.47,2.45.91,2.76,2.06.4,1.48-1.59,2.29-2.74,2.37-.64,0,.12.46.43.44Z" transform="translate(-0.02 -0.26)"/><path class="cls-5" d="M150.16,102a6.26,6.26,0,0,1,2.44-.24,6.16,6.16,0,0,0,2.52-.37c1.72-.86-.66-3.11-1.43-3.79l-.18.27a5,5,0,0,0,3.13-.43c1.21-.88-.08-2.41-.64-3.26l-.24.22a3.23,3.23,0,0,0,2.84-1.23,1.83,1.83,0,0,0-.59-2.62,1,1,0,0,0-.68-.19c-.17,0-.25.14-.08.27,1.77,1.36-.13,3.44-1.88,3.3-.14,0-.37,0-.25.21.48.74,1.71,2.16.62,2.94a4.26,4.26,0,0,1-2.62.32c-.22,0-.39.09-.18.27.79.71,3,2.92,1,3.45a11,11,0,0,1-2.43.18,5.45,5.45,0,0,0-2.09.27c-.34.15.53.54.78.43Z" transform="translate(-0.02 -0.26)"/><path class="cls-5" d="M148.12,96.77a16.06,16.06,0,0,1,1.82-.3,10.38,10.38,0,0,0,2.2-.53c.54-.21,1.11-.53,1.21-1.16a1.43,1.43,0,0,0-.94-1.42c-.63-.34-1.36-.47-2-.74l.27.33a12,12,0,0,1,2.26-.82,3.13,3.13,0,0,0,1.3-1,1.54,1.54,0,0,0,.39-1.24c-.16-.58-.9-.79-1.41-.88-.12,0-.43,0-.41.14s.43.28.56.3c.87.16-.14,1.5-.42,1.77-.88.83-2.19.74-3.17,1.4-.17.12.22.31.27.33.72.33,2.52.47,2.29,1.63-.11.57-.65.84-1.16,1a10.63,10.63,0,0,1-2,.45,14.94,14.94,0,0,0-1.87.33c-.22.06,0,.25.1.31a1,1,0,0,0,.68.11Z" transform="translate(-0.02 -0.26)"/><path class="cls-5" d="M173.25,103.34a2.4,2.4,0,0,1,0,1.75h.92a9.57,9.57,0,0,1-2.4-2.74c-.11-.17-.42-.18-.6-.17s-.48.06-.36.23.38.64.55,1a5.64,5.64,0,0,1,.48,1.32,1,1,0,0,1-.26,1s-.06,0-.08,0a1,1,0,0,0,.17,0l.12,0h0l-.13-.07a3.13,3.13,0,0,1-.45-.34,3.28,3.28,0,0,0-1.23-.82.91.91,0,0,0-.69,0c-.18.13,0,.25.16.28l.07,0c-.07,0,0,0,0,0l.09,0a1.94,1.94,0,0,1,.29.21c.19.15.37.32.56.48a1.89,1.89,0,0,0,1.57.5,1,1,0,0,0,.84-1,3.64,3.64,0,0,0-.39-1.45,7.88,7.88,0,0,0-.71-1.31l-1,.06a9.68,9.68,0,0,0,2.49,2.84.77.77,0,0,0,.49.12c.1,0,.37,0,.42-.12a2.56,2.56,0,0,0,0-2c-.08-.25-1.06-.24-1,.06Z" transform="translate(-0.02 -0.26)"/><path class="cls-5" d="M163.68,94.1a2.86,2.86,0,0,1,.42.86,1.24,1.24,0,0,1,0,1l0,0s0,0,0,0-.1.07,0,0,.09,0,.12,0,.08,0,.07,0h.06s-.13,0,0,0a.94.94,0,0,1-.24-.06l-.23-.08-.12,0-.09,0-.57-.22a2.84,2.84,0,0,0-1.31-.23c-.12,0-.5.07-.48.25s.42.16.52.14-.12,0-.05,0,.07,0,0,0,0,0,.06,0h.06c-.11,0,0,0,0,0l.14,0,.25.08.15,0s-.05,0,0,0l.09,0a6.61,6.61,0,0,0,1.13.4,1.55,1.55,0,0,0,1.4-.24,1.13,1.13,0,0,0,.21-1.07,3.17,3.17,0,0,0-.51-1.14c-.17-.23-1.12,0-.95.22Z" transform="translate(-0.02 -0.26)"/><path class="cls-5" d="M161.07,111.11a14.88,14.88,0,0,1,.62,1.42,1.55,1.55,0,0,1,0,1.36l1-.09c-.62-.53-1.24-1.07-1.88-1.59a.72.72,0,0,0-.56-.09c-.08,0-.46.09-.41.23a11.65,11.65,0,0,1,.39,1.4,2.16,2.16,0,0,1,0,1,.76.76,0,0,1-.09.18c0,.08,0,.06-.09.11s-.1.08,0,0l-.07,0c.11,0,0,0,0,0,.17-.06-.12,0,.07,0,0,0-.18,0,0,0h-.24l-.18,0a6.42,6.42,0,0,1-.83-.23,1,1,0,0,0-.7.06c-.17.09-.16.22,0,.28a3.44,3.44,0,0,0,2.74.1c.57-.33.55-1,.44-1.59a8.84,8.84,0,0,0-.39-1.4l-1,.14c.64.52,1.26,1.06,1.88,1.6a.81.81,0,0,0,1-.09,1.65,1.65,0,0,0,0-1.47c-.18-.52-.44-1-.67-1.52,0-.07-.19-.09-.24-.1a1.27,1.27,0,0,0-.39,0c-.13,0-.41.1-.32.28Z" transform="translate(-0.02 -0.26)"/><path class="cls-5" d="M177,120.09a3,3,0,0,1-.38,1.44.81.81,0,0,1-.12.14c-.05,0-.06,0,0,0h.2s-.07,0-.12-.06c-.66-.41-1.17-1-1.8-1.49-.12-.08-.86-.25-.87,0a2.94,2.94,0,0,1-.6,1.93l-.23.15s.29,0,.19,0,0,0-.07,0a2.9,2.9,0,0,1-.8-1c-.1-.18-.4-.22-.59-.23s-.47,0-.38.2a3.17,3.17,0,0,0,1.08,1.24,1.7,1.7,0,0,0,1.39.15c.81-.34,1-1.52,1-2.27l-.86,0c.72.52,1.31,1.35,2.16,1.66a1.22,1.22,0,0,0,1.29-.13,2.83,2.83,0,0,0,.5-1.63c0-.29-1-.42-1-.14Z" transform="translate(-0.02 -0.26)"/><path class="cls-5" d="M169.44,110.92a3.07,3.07,0,0,1-.19,1.94.62.62,0,0,1-.44.3h-.05l-.12,0a2.69,2.69,0,0,1-.54-.26c-.12-.06-.94-.27-.86.06a5.57,5.57,0,0,1,0,2.72,1.74,1.74,0,0,1-.55,1,1,1,0,0,1-.17.09l0,0s-.14,0-.06,0h0l-.08,0a2.58,2.58,0,0,1-.37-.19,1,1,0,0,0-.69-.11c-.18,0-.22.17,0,.28a2.64,2.64,0,0,0,2,.43,1.45,1.45,0,0,0,.94-1,5.49,5.49,0,0,0,.08-3.21l-.85.06c.7.4,1.88.89,2.63.3s.52-1.56.44-2.25c0-.32-1-.38-1-.16Z" transform="translate(-0.02 -0.26)"/><path class="cls-5" d="M172.59,128.23c-.24.66-.23,1.52-.74,2.05l.86,0c-.93-.49-1.36-1.5-2-2.3-.15-.2-.93-.19-1,.1a3.33,3.33,0,0,1-.39,1.15,1.34,1.34,0,0,1-.26.31l-.14.1,0,0c-.05,0,0,0,.06,0l-.15-.05a1.56,1.56,0,0,1-.34-.23,3.75,3.75,0,0,1-.78-1c-.14-.24-1.1-.1-1,.16a2.46,2.46,0,0,0,2.41,1.49c1-.15,1.43-1.07,1.59-2l-1,.1c.64.85,1.1,1.88,2.08,2.39a.88.88,0,0,0,.86,0c.58-.6.57-1.41.84-2.15.11-.29-.87-.32-1-.06Z" transform="translate(-0.02 -0.26)"/><path class="cls-5" d="M177,133.46s-.19.06-.12.06,0,0,0,0a2.2,2.2,0,0,1-.25-.17,1.94,1.94,0,0,1-.45-.72,4.33,4.33,0,0,1-.31-1.59c0-.25-.93-.13-1,.11s-.11.7-.19,1.05a3.91,3.91,0,0,1-.17.61,1.69,1.69,0,0,1-.12.27,2.21,2.21,0,0,0-.17.23c0,.05.28,0,.29,0l-.09,0-.18-.18a2.22,2.22,0,0,1-.29-.55c-.14-.37-.22-.75-.34-1.12s-.87-.11-1,.1a4.15,4.15,0,0,1-1.27,1.6c-.21.13-.22.14-.38.06a1.64,1.64,0,0,1-.68-.79c-.15-.29-1.09,0-1,.15a2,2,0,0,0,.91,1,2,2,0,0,0,1.3,0,3.89,3.89,0,0,0,2.08-2.08l-1,.1c.31.94.5,2.36,1.83,2.12s1.18-1.63,1.39-2.58l-1,.1a4.14,4.14,0,0,0,.58,2.11,1.56,1.56,0,0,0,2.09.43c.14-.07.3-.17.13-.3s-.53,0-.68,0Z" transform="translate(-0.02 -0.26)"/><path class="cls-5" d="M171.17,136.58a2.71,2.71,0,0,1-1.67,1.12h-.08c.07,0,.08.07,0,0s-.17-.16-.24-.25a3.5,3.5,0,0,1-.47-1.3c0-.22-.91-.54-.94-.28a4.65,4.65,0,0,1-1.13,2.59l.73.14a5.91,5.91,0,0,1-1.62-1.45.9.9,0,0,0-.62-.3c-.11,0-.4,0-.26.2a7,7,0,0,0,1.91,1.7c.13.08.58.3.73.14a4.8,4.8,0,0,0,1.2-2.68l-.94-.28a2.47,2.47,0,0,0,1.91,2.26,2.72,2.72,0,0,0,2.34-1.17c.2-.24-.7-.64-.88-.43Z" transform="translate(-0.02 -0.26)"/><path class="cls-5" d="M177,110.5c-.06.35-.07.72-.13,1.07a2.2,2.2,0,0,1-.45,1.2l.84,0c-.65-.38-1-1.17-1.43-1.75-.14-.18-1.1-.27-1,0a3.32,3.32,0,0,1,.19,1.08,2.17,2.17,0,0,1-.19,1.18.58.58,0,0,1-.16.19.41.41,0,0,1-.1.06c-.06,0,.16,0,.17,0l-.1,0a1.2,1.2,0,0,1-.27-.16c-.39-.28-.71-.63-1.07-.94a.89.89,0,0,0-.68-.11c-.12,0-.37.12-.19.26a8.88,8.88,0,0,0,1.34,1.11,1.67,1.67,0,0,0,1.83,0,1.75,1.75,0,0,0,.43-1.32,3.79,3.79,0,0,0-.23-1.37l-1,0a6.55,6.55,0,0,0,1.68,1.94.84.84,0,0,0,.84,0,2.47,2.47,0,0,0,.48-1.25c.06-.38.07-.76.14-1.13s-.95-.36-1-.06Z" transform="translate(-0.02 -0.26)"/><path class="cls-5" d="M164.43,101.33a3.86,3.86,0,0,1,.53,1,1,1,0,0,1-.05,1.07.86.86,0,0,1-.92.16,10.68,10.68,0,0,0-1.1-.33c-.07,0-.48-.08-.41.11a2.83,2.83,0,0,1,.32,1.45c-.05.28-.25.33-.46.34a.6.6,0,0,1-.19,0l-.29,0-.65-.1a10.27,10.27,0,0,0-1.57-.11c-.2,0-.22.15-.09.27a1,1,0,0,0,.67.23,9.37,9.37,0,0,1,1.58.14,4.91,4.91,0,0,0,1.27.09.69.69,0,0,0,.68-.51,3,3,0,0,0-.33-1.55l-.41.12c.77.14,2,.86,2.73.18a1,1,0,0,0,.21-1.19,4.37,4.37,0,0,0-.64-1.23.87.87,0,0,0-.62-.29c-.12,0-.4,0-.26.2Z" transform="translate(-0.02 -0.26)"/><path class="cls-5" d="M149.42,110a1.87,1.87,0,0,0,1.3-.36,1,1,0,0,0,.26-.92,3.65,3.65,0,0,0-1.29-2.06l.06.22c.59-.3,1.54-.32,1.92-.94a1.15,1.15,0,0,0-.1-1.16,2,2,0,0,0-1.27-.83c-.11,0-.42-.08-.41.11s.41.31.54.34h0l0,0a2,2,0,0,0,.14.16,1,1,0,0,1,.21.48.71.71,0,0,1-.34.75c-.49.32-1.1.37-1.62.64-.1.06,0,.19.06.23a3.29,3.29,0,0,1,1.09,1.72.88.88,0,0,1-.13.77,1.34,1.34,0,0,1-1,.32c-.2,0-.22.14-.1.26a1,1,0,0,0,.67.24Z" transform="translate(-0.02 -0.26)"/><path class="cls-5" d="M131.19,104.38c1.2,0,3.69-.4,3.89-1.91a2.87,2.87,0,0,0-1.05-2.13c-.67-.69-1.45-1.24-2.12-1.93l.06.23c.75-.78,2.13-.38,3-1a1.47,1.47,0,0,0,.1-2.19,6.18,6.18,0,0,0-2.56-1.6,9.38,9.38,0,0,0-2.7-.67c-.65,0,0,.47.36.49a7.61,7.61,0,0,1,2.1.52,4.08,4.08,0,0,1,2.08,1.38,1.26,1.26,0,0,1-.79,1.91c-.78.25-1.85.14-2.46.77-.08.09,0,.16.06.23.54.56,1.18,1,1.74,1.56s1.34,1.29,1.25,2.13c-.16,1.38-2.45,1.77-3.53,1.74-.21,0-.19.15-.09.27a1,1,0,0,0,.67.23Z" transform="translate(-0.02 -0.26)"/><path class="cls-2" d="M116.68,95.3c2.48,2.93,6.36,1.57,8.58-.85-.18-1.41-2.54-2.28-3.91-2.28A5.21,5.21,0,0,0,116.68,95.3Z" transform="translate(-0.02 -0.26)"/><path class="cls-2" d="M115.36,81.07c9.83-3,20-1.63,29.83,1.19a57.46,57.46,0,0,1,17,8.62A28.56,28.56,0,0,1,169.42,98c.6-.66.33-1.76.79-2.64s1.17-1.22,1.68-1.86c1.33-1.67.75-2.88-.91-4-1-.66-1.35-.57-1.37-1.6s.49-1.21.21-2.24c-.76-2.77-4.07-2.92-6.28-3.77s-2.21-2.18-3.91-3.39c-2.89-2-6.64-.32-8.75-3.63-3.47-5.45-11.53-2.93-16.66-2C127.47,74.26,121.32,76,115.36,81.07Z" transform="translate(-0.02 -0.26)"/><path class="cls-1" d="M115.71,81.23c7.79-2.34,16-1.91,23.89-.17a57.67,57.67,0,0,1,10.82,3.35,63.08,63.08,0,0,1,9.7,5.42,30.51,30.51,0,0,1,8.81,8.24.81.81,0,0,0,1,0,3.23,3.23,0,0,0,.51-1.64,3.36,3.36,0,0,1,1.14-2c.84-.8,1.87-1.87,1.49-3.13s-1.57-1.7-2.5-2.38a1.3,1.3,0,0,1-.41-1.33,4.36,4.36,0,0,0,.19-1.86c-.57-2.28-3-2.93-5-3.48A6.38,6.38,0,0,1,162,80.53a9.67,9.67,0,0,0-2.64-2.46,10.21,10.21,0,0,0-3.43-.92,7.39,7.39,0,0,1-3.47-1c-1-.75-1.54-2-2.5-2.81a7.65,7.65,0,0,0-2.72-1.47c-4.44-1.39-9.31.17-13.7,1A54.41,54.41,0,0,0,124,75.51a33,33,0,0,0-9,5.44c-.29.25.65.42.86.25a32.29,32.29,0,0,1,7.77-4.91,43.94,43.94,0,0,1,8.16-2.57c2.31-.52,4.65-1,7-1.43a20.07,20.07,0,0,1,6.86-.41,7.3,7.3,0,0,1,3.09,1.22,6.31,6.31,0,0,1,1.17,1.08c.4.48.7,1,1.13,1.5,1.59,1.72,4,1.61,6.08,2.06a5.92,5.92,0,0,1,3.36,2,7.28,7.28,0,0,0,2.39,2.13c1.9.91,4.54.84,5.94,2.62a2.81,2.81,0,0,1,.67,1.89,7.92,7.92,0,0,0-.27,1.82,1.22,1.22,0,0,0,.63.92,9.32,9.32,0,0,1,1.67,1.18c1.25,1.27.5,2.7-.62,3.75a4,4,0,0,0-1.27,1.72c-.21.72-.11,1.54-.6,2.16l1,.05a29.07,29.07,0,0,0-8-7.72A67.38,67.38,0,0,0,152,84.57a57.18,57.18,0,0,0-11.34-3.7,62.43,62.43,0,0,0-12.17-1.66A42.54,42.54,0,0,0,115,80.92c-.22.06-.15.18,0,.28A.92.92,0,0,0,115.71,81.23Z" transform="translate(-0.02 -0.26)"/><path class="cls-1" d="M124.16,79.36a63.61,63.61,0,0,1,15.76-4.14c.58-.08.52-.48-.07-.4a66.5,66.5,0,0,0-16.24,4.27c-.6.25.27.38.55.27Z" transform="translate(-0.02 -0.26)"/><path class="cls-1" d="M137.6,80.49c5.26-1.11,10.65-1.08,16-1.73.11,0,.5-.1.46-.28s-.41-.12-.53-.11c-5.31.65-10.7.61-16,1.73-.57.12-.51.51.07.39Z" transform="translate(-0.02 -0.26)"/><path class="cls-1" d="M150.36,83.88a28.9,28.9,0,0,1,15-.61.94.94,0,0,0,.7-.07c.12-.1.2-.23,0-.28a31.17,31.17,0,0,0-16.26.67c-.17,0-.28.14-.15.29s.55.05.69,0Z" transform="translate(-0.02 -0.26)"/><path class="cls-1" d="M159.92,89.31c3-.59,6.4-1.67,9.34-.36a.89.89,0,0,0,.68,0c.1,0,.36-.2.14-.29-3.31-1.48-7.11-.33-10.47.34-.13,0-.4.13-.32.29s.51.08.63,0Z" transform="translate(-0.02 -0.26)"/></g></g></svg>