<svg xmlns="http://www.w3.org/2000/svg" viewBox="0 0 228.68 228.1"><defs><style>.cls-1{fill:#f79521;}.cls-2{fill:#922160;}.cls-3{opacity:0.7;}.cls-4{opacity:0.5;}.cls-5{fill:#731745;}</style></defs><g id="Layer_2" data-name="Layer 2"><g id="BG"><path class="cls-1" d="M227.69,114.4a113.65,113.65,0,0,1-44.26,90,112.92,112.92,0,0,1-131.64,4.61A113.76,113.76,0,0,1,67.35,10.89a112.53,112.53,0,0,1,34-9.46A113.61,113.61,0,0,1,226.38,97a117.35,117.35,0,0,1,1.31,17.36c0,.26,1,.19,1-.11A114,114,0,0,0,118.62.37,115.51,115.51,0,0,0,83.09,4.62a114,114,0,0,0,18.33,223.07,116.21,116.21,0,0,0,35.79-1.59,113.94,113.94,0,0,0,91.47-111.81C228.68,114,227.69,114.09,227.69,114.4Z" transform="translate(0 -0.29)"/><circle class="cls-2" cx="114.34" cy="114.05" r="103.62"/><g class="cls-3"><path class="cls-1" d="M183.85,63.33a22.36,22.36,0,0,0-4.13.35h0c.64-1.11,2.11-3.07,2.11-3.07a13.43,13.43,0,0,1-1-3.39,26.3,26.3,0,0,1,3.12.88c.21,0,1.73-1.66,2.69-2.05a24.69,24.69,0,0,1-.25,3.45c1.14.51,2.64,1.2,3.76,1.83-.85.24-3.64.94-3.64.94a19.68,19.68,0,0,1-.64,3.33Z" transform="translate(0 -0.29)"/><path class="cls-1" d="M126.55,74.86a22.45,22.45,0,0,1,2.11,3.56h0c.54-1.16,1.28-3.5,1.28-3.5a13.29,13.29,0,0,0,3.33-1.17,25.59,25.59,0,0,0-2.53-2c-.1-.19.35-2.38.12-3.39a23.92,23.92,0,0,0-2.67,2.21c-1.08-.63-2.52-1.46-3.67-2,.29.82,1.34,3.5,1.34,3.5a19.61,19.61,0,0,0-2.34,2.46Z" transform="translate(0 -0.29)"/><path class="cls-1" d="M70.67,47.79a22,22,0,0,1,3.54,2.14h0c-.07-1.28-.53-3.69-.53-3.69a13.24,13.24,0,0,0,2.38-2.62,27.86,27.86,0,0,0-3.19-.57c-.18-.12-.82-2.26-1.5-3a25.09,25.09,0,0,0-1.3,3.21c-1.25,0-2.91-.08-4.18,0,.64.59,2.84,2.45,2.84,2.45a20,20,0,0,0-.89,3.28Z" transform="translate(0 -0.29)"/><path class="cls-1" d="M86.46,35a21.81,21.81,0,0,1,1.46-3.87h0c-1.25.31-3.53,1.2-3.53,1.2a13.45,13.45,0,0,0-3-1.86,26.27,26.27,0,0,0,0,3.24c-.07.19-2.06,1.21-2.7,2a23.94,23.94,0,0,0,3.39.68c.18,1.24.45,2.88.74,4.12.47-.75,1.9-3.25,1.9-3.25a20.26,20.26,0,0,0,3.38.29Z" transform="translate(0 -0.29)"/><path class="cls-1" d="M149.43,37.42a22.07,22.07,0,0,0,1.08-4h0c.83,1,2.17,3,2.17,3a13.45,13.45,0,0,1,3.52.24,26.94,26.94,0,0,1-1.9,2.62c-.05.21,1,2.2,1,3.24a24.88,24.88,0,0,1-3.15-1.43c-.88.9-2,2.08-3,2.91.06-.88.37-3.74.37-3.74a18.6,18.6,0,0,1-2.91-1.75Z" transform="translate(0 -0.29)"/><path class="cls-1" d="M197.81,102.51a22.3,22.3,0,0,0,.11,4.13h0c-1.08-.7-2.94-2.28-2.94-2.28a13.74,13.74,0,0,1-3.45.77,26.5,26.5,0,0,1,1.07-3.06c0-.21-1.56-1.82-1.89-2.81a24.2,24.2,0,0,1,3.43.47c.58-1.12,1.36-2.58,2-3.66.2.86.73,3.69.73,3.69a19.89,19.89,0,0,1,3.29.84Z" transform="translate(0 -0.29)"/><path class="cls-1" d="M169.75,76a22.77,22.77,0,0,1-2.66,3.16h0c1.27.12,3.72,0,3.72,0A13.31,13.31,0,0,0,173,82,26.19,26.19,0,0,0,174.09,79c.14-.17,2.36-.46,3.24-1a23.89,23.89,0,0,0-3-1.79c.24-1.23.54-2.86.68-4.13-.69.55-2.87,2.43-2.87,2.43a20.07,20.07,0,0,0-3.09-1.4Z" transform="translate(0 -0.29)"/><path class="cls-1" d="M44.35,88.94a21.87,21.87,0,0,1-.8,4.06h0c1.18-.51,3.28-1.76,3.28-1.76a13.51,13.51,0,0,0,3.27,1.33,25.64,25.64,0,0,0-.54-3.19c0-.2,1.84-1.54,2.34-2.45a23.78,23.78,0,0,0-3.47-.12c-.38-1.19-.91-2.76-1.4-3.94-.34.81-1.34,3.51-1.34,3.51a20.53,20.53,0,0,0-3.38.28Z" transform="translate(0 -0.29)"/><path class="cls-1" d="M39.81,68.73a22.28,22.28,0,0,1,3.56,2.11h0c-.09-1.27-.56-3.68-.56-3.68a13.45,13.45,0,0,0,2.37-2.63A27.5,27.5,0,0,0,42,64c-.18-.11-.83-2.25-1.53-3a23.26,23.26,0,0,0-1.27,3.23c-1.26,0-2.91-.08-4.19,0,.65.59,2.86,2.44,2.86,2.44A20.43,20.43,0,0,0,37,69.88Z" transform="translate(0 -0.29)"/><path class="cls-1" d="M59.89,174.81a22.26,22.26,0,0,0,.1,4.13h0c-1.07-.69-2.93-2.28-2.93-2.28a13.29,13.29,0,0,1-3.46.77,28.27,28.27,0,0,1,1.07-3.05c0-.22-1.56-1.83-1.89-2.81a23.13,23.13,0,0,1,3.44.46c.57-1.11,1.35-2.57,2-3.66.2.86.73,3.69.73,3.69a20.06,20.06,0,0,1,3.28.84Z" transform="translate(0 -0.29)"/><path class="cls-1" d="M135.43,192.06a23,23,0,0,1-2.67,3.16h0c1.28.13,3.72.05,3.72.05a13.31,13.31,0,0,0,2.21,2.76,26.54,26.54,0,0,0,1.08-3.05c.14-.16,2.35-.46,3.23-1a25.17,25.17,0,0,0-3-1.79c.25-1.23.55-2.86.69-4.13-.69.55-2.88,2.43-2.88,2.43a19.22,19.22,0,0,0-3.09-1.4Z" transform="translate(0 -0.29)"/><path class="cls-1" d="M173.83,156.63a22.3,22.3,0,0,0-.11-4.13h0a37,37,0,0,1,2.94,2.28,13.6,13.6,0,0,1,3.45-.78,25.83,25.83,0,0,1-1.07,3.06c0,.21,1.56,1.82,1.89,2.81a24.39,24.39,0,0,1-3.43-.46c-.57,1.11-1.36,2.57-2,3.65-.2-.86-.73-3.69-.73-3.69a19.89,19.89,0,0,1-3.29-.84Z" transform="translate(0 -0.29)"/><path class="cls-1" d="M182.87,170.82a22.2,22.2,0,0,1,2.66-3.16h0c-1.27-.13-3.72,0-3.72,0a13.19,13.19,0,0,0-2.21-2.77,26.24,26.24,0,0,0-1.07,3.06c-.14.16-2.36.45-3.24,1a25.17,25.17,0,0,0,3,1.79c-.24,1.22-.54,2.86-.68,4.12.69-.54,2.87-2.42,2.87-2.42a21.07,21.07,0,0,0,3.09,1.4Z" transform="translate(0 -0.29)"/><path class="cls-1" d="M26.67,134.52a22.26,22.26,0,0,0,.1,4.13h0c-1.07-.7-2.93-2.28-2.93-2.28a13.29,13.29,0,0,1-3.46.77,28.27,28.27,0,0,1,1.07-3c0-.22-1.55-1.83-1.89-2.82a24.54,24.54,0,0,1,3.44.47c.57-1.12,1.36-2.57,2-3.66.2.86.73,3.69.73,3.69a20.06,20.06,0,0,1,3.28.84Z" transform="translate(0 -0.29)"/><path class="cls-1" d="M58.59,75.18a23,23,0,0,1-2.67,3.16h0c1.27.13,3.72,0,3.72,0a13.31,13.31,0,0,0,2.21,2.76,25.89,25.89,0,0,0,1.08-3.05c.13-.16,2.35-.45,3.23-1a25.17,25.17,0,0,0-3-1.79c.24-1.23.55-2.86.68-4.12C63.18,71.72,61,73.6,61,73.6a20.07,20.07,0,0,0-3.09-1.4Z" transform="translate(0 -0.29)"/></g><g class="cls-4"><path class="cls-1" d="M56.77,57.2A1.87,1.87,0,0,0,57,60.68c2,.68,3.34-2.46,1.57-3.46A1.8,1.8,0,0,0,56.77,57.2Z" transform="translate(0 -0.29)"/><path class="cls-1" d="M175.25,52.48a1.87,1.87,0,0,0-2-2.85c-2.09.47-1.6,3.82.44,3.77A1.81,1.81,0,0,0,175.25,52.48Z" transform="translate(0 -0.29)"/><path class="cls-1" d="M153.22,68.66a1.87,1.87,0,0,0-.25-3.48c-2-.68-3.34,2.45-1.57,3.46A1.8,1.8,0,0,0,153.22,68.66Z" transform="translate(0 -0.29)"/><path class="cls-1" d="M190,159.43a1.86,1.86,0,0,0,2,2.85c2.1-.47,1.6-3.83-.44-3.78A1.8,1.8,0,0,0,190,159.43Z" transform="translate(0 -0.29)"/><path class="cls-1" d="M165.84,50.45a1.87,1.87,0,0,0-.25-3.48c-2-.68-3.35,2.46-1.57,3.47A1.82,1.82,0,0,0,165.84,50.45Z" transform="translate(0 -0.29)"/><path class="cls-1" d="M24.93,101.13a1.87,1.87,0,0,0,2,2.85c2.09-.46,1.6-3.82-.44-3.77A1.79,1.79,0,0,0,24.93,101.13Z" transform="translate(0 -0.29)"/><path class="cls-1" d="M39.25,154.47A1.87,1.87,0,0,0,39.5,158c2,.68,3.35-2.46,1.57-3.46A1.8,1.8,0,0,0,39.25,154.47Z" transform="translate(0 -0.29)"/><path class="cls-1" d="M28.56,88.22a1.87,1.87,0,0,0-2-2.85c-2.09.47-1.6,3.83.45,3.78A1.8,1.8,0,0,0,28.56,88.22Z" transform="translate(0 -0.29)"/><path class="cls-1" d="M203.74,140.25a1.86,1.86,0,0,0,.26,3.47c2,.68,3.34-2.45,1.56-3.46A1.82,1.82,0,0,0,203.74,140.25Z" transform="translate(0 -0.29)"/><path class="cls-1" d="M78.22,61.41a1.87,1.87,0,0,0-2-2.85c-2.09.47-1.6,3.83.44,3.78A1.81,1.81,0,0,0,78.22,61.41Z" transform="translate(0 -0.29)"/><path class="cls-1" d="M146.35,63a1.87,1.87,0,0,0-.26-3.48c-2-.68-3.34,2.46-1.56,3.46A1.8,1.8,0,0,0,146.35,63Z" transform="translate(0 -0.29)"/><path class="cls-1" d="M50.66,50.45a1.87,1.87,0,0,0,2,2.85c2.09-.47,1.6-3.83-.44-3.77A1.79,1.79,0,0,0,50.66,50.45Z" transform="translate(0 -0.29)"/><path class="cls-1" d="M193,76a1.87,1.87,0,0,0,.25,3.48c2,.68,3.34-2.45,1.57-3.46A1.8,1.8,0,0,0,193,76Z" transform="translate(0 -0.29)"/><path class="cls-1" d="M60.09,105.09a1.87,1.87,0,0,0,2,2.85c2.1-.46,1.6-3.82-.44-3.77A1.83,1.83,0,0,0,60.09,105.09Z" transform="translate(0 -0.29)"/><path class="cls-1" d="M65.9,97.16a1.87,1.87,0,0,0-2-2.85c-2.09.46-1.6,3.82.44,3.77A1.79,1.79,0,0,0,65.9,97.16Z" transform="translate(0 -0.29)"/><path class="cls-1" d="M154.11,56.16a1.86,1.86,0,0,0,.25,3.47c2,.68,3.34-2.45,1.57-3.46A1.77,1.77,0,0,0,154.11,56.16Z" transform="translate(0 -0.29)"/><path class="cls-1" d="M168,94.38a1.87,1.87,0,0,0,.25,3.48c2,.68,3.34-2.46,1.57-3.47A1.82,1.82,0,0,0,168,94.38Z" transform="translate(0 -0.29)"/><path class="cls-1" d="M187.73,115.54a1.87,1.87,0,0,0,2,2.85c2.09-.47,1.6-3.83-.44-3.78A1.8,1.8,0,0,0,187.73,115.54Z" transform="translate(0 -0.29)"/><path class="cls-1" d="M140.83,88.83a1.87,1.87,0,0,0,2,2.85c2.1-.47,1.6-3.83-.44-3.78A1.81,1.81,0,0,0,140.83,88.83Z" transform="translate(0 -0.29)"/><path class="cls-1" d="M160.11,182.73a1.87,1.87,0,0,0-.25-3.48c-2-.68-3.34,2.46-1.57,3.46A1.8,1.8,0,0,0,160.11,182.73Z" transform="translate(0 -0.29)"/><path class="cls-1" d="M198.79,145.07a1.87,1.87,0,0,0,.25,3.48c2,.68,3.35-2.45,1.57-3.46A1.8,1.8,0,0,0,198.79,145.07Z" transform="translate(0 -0.29)"/><path class="cls-1" d="M22.34,123.63a1.86,1.86,0,0,0-2-2.85c-2.1.47-1.6,3.83.44,3.77A1.78,1.78,0,0,0,22.34,123.63Z" transform="translate(0 -0.29)"/><path class="cls-1" d="M69.38,32.47A1.87,1.87,0,0,0,69.13,29c-2-.68-3.34,2.46-1.57,3.46A1.8,1.8,0,0,0,69.38,32.47Z" transform="translate(0 -0.29)"/><path class="cls-1" d="M33.42,148.49a1.87,1.87,0,0,0,2,2.85c2.09-.47,1.6-3.83-.44-3.77A1.79,1.79,0,0,0,33.42,148.49Z" transform="translate(0 -0.29)"/><path class="cls-1" d="M155.21,200.58a1.86,1.86,0,0,0,2,2.85c2.1-.47,1.6-3.83-.44-3.78A1.79,1.79,0,0,0,155.21,200.58Z" transform="translate(0 -0.29)"/><path class="cls-1" d="M129.15,207.57a1.87,1.87,0,0,0,.25,3.48c2,.68,3.35-2.45,1.57-3.46A1.8,1.8,0,0,0,129.15,207.57Z" transform="translate(0 -0.29)"/><path class="cls-1" d="M166.22,189.48a1.87,1.87,0,0,0-2-2.85c-2.09.47-1.6,3.83.44,3.77A1.81,1.81,0,0,0,166.22,189.48Z" transform="translate(0 -0.29)"/><path class="cls-1" d="M111.46,160.26a1.87,1.87,0,0,0-2-2.85c-2.1.47-1.6,3.83.44,3.78A1.81,1.81,0,0,0,111.46,160.26Z" transform="translate(0 -0.29)"/><path class="cls-1" d="M64.35,195.12a1.87,1.87,0,0,0,2,2.85c2.09-.46,1.59-3.82-.45-3.77A1.79,1.79,0,0,0,64.35,195.12Z" transform="translate(0 -0.29)"/><path class="cls-1" d="M74,167.91a1.86,1.86,0,0,0-.25-3.47c-2-.68-3.34,2.45-1.57,3.46A1.82,1.82,0,0,0,74,167.91Z" transform="translate(0 -0.29)"/><path class="cls-1" d="M209.61,116.87a1.86,1.86,0,0,0-2-2.84c-2.09.46-1.6,3.82.44,3.77A1.81,1.81,0,0,0,209.61,116.87Z" transform="translate(0 -0.29)"/><path class="cls-1" d="M82,167.65a1.86,1.86,0,0,0-2-2.85c-2.1.47-1.6,3.83.44,3.78A1.8,1.8,0,0,0,82,167.65Z" transform="translate(0 -0.29)"/><path class="cls-1" d="M43.87,112.36a1.87,1.87,0,0,0,2,2.85c2.09-.47,1.6-3.83-.44-3.78A1.81,1.81,0,0,0,43.87,112.36Z" transform="translate(0 -0.29)"/><path class="cls-1" d="M73.25,194.22a1.87,1.87,0,0,0,.25,3.48c2,.67,3.34-2.46,1.57-3.47A1.82,1.82,0,0,0,73.25,194.22Z" transform="translate(0 -0.29)"/><path class="cls-1" d="M102.75,26.25a1.87,1.87,0,0,0-.26-3.48c-2-.68-3.34,2.46-1.57,3.47A1.84,1.84,0,0,0,102.75,26.25Z" transform="translate(0 -0.29)"/><path class="cls-1" d="M87,204.64a1.87,1.87,0,0,0,2,2.85c2.09-.47,1.6-3.83-.44-3.78A1.81,1.81,0,0,0,87,204.64Z" transform="translate(0 -0.29)"/><path class="cls-1" d="M40.22,171.51a1.87,1.87,0,0,0,2,2.85c2.09-.47,1.6-3.83-.45-3.78A1.8,1.8,0,0,0,40.22,171.51Z" transform="translate(0 -0.29)"/><path class="cls-1" d="M126.65,121.44a1.86,1.86,0,0,0,.25,3.47c2,.68,3.34-2.45,1.57-3.46A1.79,1.79,0,0,0,126.65,121.44Z" transform="translate(0 -0.29)"/><path class="cls-1" d="M127.94,118.16a1.86,1.86,0,0,0-2-2.85c-2.1.46-1.6,3.82.44,3.77A1.8,1.8,0,0,0,127.94,118.16Z" transform="translate(0 -0.29)"/><path class="cls-1" d="M166.84,101.86a1.87,1.87,0,0,0-2-2.85c-2.1.46-1.6,3.82.44,3.77A1.81,1.81,0,0,0,166.84,101.86Z" transform="translate(0 -0.29)"/><path class="cls-1" d="M104.19,122.38a1.87,1.87,0,0,0,2,2.85c2.09-.47,1.6-3.83-.44-3.78A1.81,1.81,0,0,0,104.19,122.38Z" transform="translate(0 -0.29)"/><path class="cls-1" d="M77.05,104.33a1.87,1.87,0,0,0-.25-3.48c-2-.68-3.35,2.46-1.57,3.47A1.82,1.82,0,0,0,77.05,104.33Z" transform="translate(0 -0.29)"/><path class="cls-1" d="M104.67,154.75a1.87,1.87,0,0,0-2-2.85c-2.09.47-1.6,3.83.44,3.77A1.77,1.77,0,0,0,104.67,154.75Z" transform="translate(0 -0.29)"/></g><path class="cls-1" d="M118.64,27.76a32.47,32.47,0,0,0,12.87-.47l-1-.35a38.48,38.48,0,0,0-.21,13.58c.07.55,2,.27,2-.31a38.19,38.19,0,0,1,.16-13.36c.11-.45-.79-.4-1-.35A28.79,28.79,0,0,1,120,27a2,2,0,0,0-1.4.22c-.3.2-.32.48.09.56Z" transform="translate(0 -0.29)"/><path class="cls-1" d="M102.42,58.36q11.79-12.47,23.71-24.81c2.08-2.13,4.15-4.26,6.24-6.37.38-.38-1.43-1-1.85-.56-8.06,8.15-16,16.45-23.87,24.76l-6.09,6.42c-.37.39,1.45,1,1.86.56Z" transform="translate(0 -0.29)"/><path class="cls-1" d="M106.17,43.06l.29.28,1.75-.29-.1-.09-1.75.29c3.38,3.09,6.85,6.09,10.18,9.23a1.77,1.77,0,0,0,1.35.23c.27-.05.71-.22.4-.52C115,49,111.49,46.05,108.11,43a1.77,1.77,0,0,0-1.35-.24c-.28.05-.71.22-.4.53l.1.09a1.74,1.74,0,0,0,1.36.23c.28,0,.7-.22.39-.52l-.29-.29a1.81,1.81,0,0,0-1.35-.23c-.29,0-.7.22-.4.53Z" transform="translate(0 -0.29)"/><path class="cls-1" d="M106.79,88.92l-3.44,4.92-8.2,11.72L85.4,119.5l-8.08,11.56-2.45,3.49c-.28.4-.81.91-.85,1.41s0,1,0,1.44a4,4,0,0,0,0,1.25,1.3,1.3,0,0,0,.23.33L76,141.49l7.26,10.42,9.63,13.81,8.79,12.61,4.87,7,.23.33c.16.24,1.11.08,1-.14l-3.41-4.88L96.24,169l-9.69-13.9-8.13-11.66-2.49-3.57a6.91,6.91,0,0,1-.92-1.33,6.11,6.11,0,0,1,0-1.28,5.54,5.54,0,0,1,0-1.41,1.75,1.75,0,0,1,.22-.34L77,133l7.22-10.33,9.62-13.75,8.83-12.62,4.86-7,.23-.33c.14-.21-.8-.32-1-.07Z" transform="translate(0 -0.29)"/><path class="cls-1" d="M157.61,135.27c-.46-10.15-3-16.83-6.48-22.62-4-6.73-10.9-14.61-18.15-17.45a89.86,89.86,0,0,0-10.88-3.8,85.6,85.6,0,0,1-9-2.25c-5.66-2.07-11.06-4.84-10.88-10.88,4,2.24,9.67-2.59,6.49-7.14-5.32-7.57-16.31,1.55-12.83,9.37,3.83,8.61,14.14,11,22,13.62,9.26,3.1,18.7,11.24,22.66,19.57,3,6.42,4.25,13.83,4.32,21.28h-.08c0,.74,0,1.49.07,2.24s0,1.5-.07,2.25h.08c-.07,7.44-1.28,14.86-4.32,21.28-4,8.32-13.4,16.46-22.66,19.57-7.9,2.64-18.21,5-22,13.61-3.48,7.82,7.51,17,12.83,9.37,3.18-4.54-2.52-9.38-6.49-7.13-.18-6,5.22-8.81,10.88-10.89a85.55,85.55,0,0,1,9-2.24,91.61,91.61,0,0,0,10.88-3.8c7.25-2.84,14.14-10.72,18.15-17.46,3.41-5.73,5.74-13.1,6.39-22.58.17,0,.17-.14.17-.45q0-1.22,0-2.37c0-.23,0-.45,0-.69S157.7,135.31,157.61,135.27Z" transform="translate(0 -0.29)"/><path class="cls-1" d="M158.11,135.23a49.32,49.32,0,0,0-3.51-16.75A51.14,51.14,0,0,0,146.12,105a44.55,44.55,0,0,0-6.45-6.21,29.08,29.08,0,0,0-7.36-4.11,80.16,80.16,0,0,0-9.23-3.24c-3.06-.81-6.22-1.24-9.22-2.27a25.68,25.68,0,0,1-7.69-3.84,8.6,8.6,0,0,1-3.44-7.05l-.93.15a5.9,5.9,0,0,0,8-2.71c1.35-3.06-1.18-6.47-4.14-7.33C99.78,66.66,93.89,73,94.82,78.65c.57,3.46,3.3,6.51,6,8.54a36.62,36.62,0,0,0,10,4.9c3.82,1.33,7.75,2.32,11.36,4.17a43.73,43.73,0,0,1,11.49,8.58,34.43,34.43,0,0,1,7.45,11.44,50.21,50.21,0,0,1,3.08,14.84c.08,1.29.13,2.59.14,3.88l.62-.23H145c-.11,0-.63,0-.62.23.07,1.5.07,3,0,4.49,0,.18.43.17.52.17h.07l-.51-.17c-.11,9.8-2.12,19.89-8.45,27.65a43.56,43.56,0,0,1-10.68,9.35,37.92,37.92,0,0,1-6.26,3.17c-1.78.69-3.64,1.23-5.46,1.82-6.89,2.22-14.69,5.08-18,12.09a8.6,8.6,0,0,0,.89,8.7,9.06,9.06,0,0,0,7.13,4.06c3,0,6.16-2.2,6.54-5.3.41-3.3-2.93-5.81-6-5.63a5.36,5.36,0,0,0-2.25.64l.86.09a8.37,8.37,0,0,1,2.69-6.39,20.46,20.46,0,0,1,6.46-3.74,55.6,55.6,0,0,1,8.88-2.45,62.48,62.48,0,0,0,8.76-2.71,41.94,41.94,0,0,0,7.86-3.59,37.69,37.69,0,0,0,6.79-5.69,49.69,49.69,0,0,0,9.35-13.4,54.4,54.4,0,0,0,4.5-19l-.24.18c.68-.19.41-1.17.41-1.71s0-1,0-1.52c0-.25.13-.72-.08-.93s-1.13,0-1,.17.06.52.05.71c0,.35,0,.69,0,1s0,1.94.08,1.93-.23.08-.24.19a55.3,55.3,0,0,1-3.87,17.53,48.26,48.26,0,0,1-8.86,13.59,40.58,40.58,0,0,1-6.75,6.08,36.46,36.46,0,0,1-7.86,3.84,62.34,62.34,0,0,1-9.21,2.92,59.77,59.77,0,0,0-8.61,2.31,22.34,22.34,0,0,0-7.13,3.94,8.67,8.67,0,0,0-3,6.76c0,.28.72.16.86.09,3-1.61,6.71,1.29,6.55,4.5a5.68,5.68,0,0,1-6.35,5.06,9.15,9.15,0,0,1-6.25-5.21,8.38,8.38,0,0,1-.79-4.27,10,10,0,0,1,1.83-4.62c4-6.08,11.5-8.35,18.06-10.45,1.75-.56,3.49-1.11,5.18-1.83a40.74,40.74,0,0,0,5.61-3,44.54,44.54,0,0,0,9.88-8.54,33.81,33.81,0,0,0,6.34-11,51.74,51.74,0,0,0,2.63-13.83c.08-1.21.11-2.42.13-3.63,0-.18-.42-.18-.51-.17h-.08l.51.17c.07-1.5.07-3,0-4.49l-.62.23h.08c.12,0,.62,0,.62-.23-.1-9-1.76-18.54-7.13-26A42,42,0,0,0,118,93.85c-6.5-2.15-13.88-3.89-18.72-9.1-2.21-2.37-4-5.49-3.4-8.83a9.65,9.65,0,0,1,5-6.71,5.76,5.76,0,0,1,3.73-.61,6,6,0,0,1,3.55,2.48,4.55,4.55,0,0,1,.55,4.76A5.14,5.14,0,0,1,105,78.59a3.76,3.76,0,0,1-2.39-.45c-.16-.09-.92-.15-.92.16a8.48,8.48,0,0,0,2.48,6.25,18.71,18.71,0,0,0,6.09,3.8,46.71,46.71,0,0,0,8.52,2.56,65.91,65.91,0,0,1,9.33,2.71,43.88,43.88,0,0,1,8.28,3.7,37.23,37.23,0,0,1,7,5.86,52.17,52.17,0,0,1,9.39,13.55,48.19,48.19,0,0,1,4.32,18.57C157.13,135.57,158.12,135.52,158.11,135.23Z" transform="translate(0 -0.29)"/><path class="cls-5" d="M105.64,72A4.11,4.11,0,0,0,103,71a4.16,4.16,0,0,0-2.8.8,3.51,3.51,0,0,0-1,2.66,4.21,4.21,0,0,0,1.08,2.64,5.13,5.13,0,0,0,3,1.66.84.84,0,0,0,.68-.1c.15-.15,0-.24-.19-.26a4.41,4.41,0,0,1-3.48-3.3,3.62,3.62,0,0,1,.34-2.46,2.27,2.27,0,0,1,1.79-1.22,3.07,3.07,0,0,1,2.37.66.71.71,0,0,0,.62.11c.06,0,.48-.12.33-.26Z" transform="translate(0 -0.29)"/><path class="cls-5" d="M104.73,202.27c-1,.94-3.12,1.07-4-.18a3.79,3.79,0,0,1,.43-4.7,4.32,4.32,0,0,1,2.5-1.41c.16,0,.32-.12.18-.27s-.51-.11-.68-.08a4.87,4.87,0,0,0-4,3.91,3.72,3.72,0,0,0,.76,2.8,3.54,3.54,0,0,0,2.53,1,4.39,4.39,0,0,0,3.16-.89c.29-.26-.66-.4-.86-.22Z" transform="translate(0 -0.29)"/><path class="cls-2" d="M172.75,138.63H48.39A1.42,1.42,0,0,1,47,137.21h0a1.42,1.42,0,0,1,1.41-1.41H172.75a1.42,1.42,0,0,1,1.42,1.41h0A1.43,1.43,0,0,1,172.75,138.63Z" transform="translate(0 -0.29)"/><path class="cls-1" d="M172.46,138.39H49.53a7.72,7.72,0,0,1-1.36,0H48.1c-.55-.14-.71-.91-.6-1.37a1.27,1.27,0,0,1,1.19-1H172.52a3.38,3.38,0,0,1,.45,0h.08c.48.12.68.77.63,1.2a1.3,1.3,0,0,1-1.22,1.15c-.23,0-.19.14-.09.27a1,1,0,0,0,.68.21,1.57,1.57,0,0,0,1.56-1.83,2.09,2.09,0,0,0-2.05-1.48H47.92a1.55,1.55,0,0,0-1.32,2.06,2.21,2.21,0,0,0,2.09,1.24H173.05c.23,0,.18-.15.08-.27A1,1,0,0,0,172.46,138.39Z" transform="translate(0 -0.29)"/><path class="cls-1" d="M49.4,135.63l-5-6.64H62.84l5,6.6s-8-.05-13.47,0C51.55,135.55,49.4,135.57,49.4,135.63Z" transform="translate(0 -0.29)"/><path class="cls-1" d="M49.87,135.51l-5-6.64-.57.33H62.73l-.36-.09,5,6.6.58-.33c-5.2,0-10.4-.07-15.6,0-.77,0-1.55,0-2.32,0a1.78,1.78,0,0,0-1.09.21c-.26.23.68.25.89.08-.2.17-.57.15-.15.13l.74,0,2.24,0h4.84l8.43,0h1.81c.1,0,.74-.11.57-.33l-3.53-4.65-.94-1.23a4.31,4.31,0,0,0-.51-.68c-.23-.2-.66-.13-1-.13H44.46c-.11,0-.75.1-.58.33l5,6.64C49.1,136,50,135.74,49.87,135.51Z" transform="translate(0 -0.29)"/><path class="cls-5" d="M50,129.07l4.4,5.8.64.84c.18.23,1.12,0,.95-.21l-4.41-5.81-.64-.84c-.17-.23-1.12,0-.94.22Z" transform="translate(0 -0.29)"/><path class="cls-5" d="M56.15,128.92l4.4,5.8.64.84a1,1,0,0,0,.63.29c.11,0,.39,0,.25-.21l-4.4-5.8L57,129a.9.9,0,0,0-.63-.28c-.11,0-.39,0-.25.2Z" transform="translate(0 -0.29)"/><path class="cls-1" d="M49.4,138.9l-5,6.64H62.84l5-6.6s-8,.05-13.47,0C51.55,139,49.4,139,49.4,138.9Z" transform="translate(0 -0.29)"/><path class="cls-1" d="M48.92,138.82l-5.05,6.64c-.15.2.4.28.47.28H61.88a9.73,9.73,0,0,0,1.08,0c.58-.08,1-1,1.31-1.39L68.33,139c.15-.19-.4-.27-.47-.27q-7.15,0-14.3,0l-2.73,0-.88,0a1,1,0,0,0-.3,0c-.22,0,0-.09.18.08-.2-.17-1.15-.08-.87.17a1.46,1.46,0,0,0,.83.15c.62,0,1.25,0,1.88,0,1.73,0,3.46,0,5.2,0l9,0h2l-.47-.28-5,6.6.48-.12H44.36l.47.27L49.88,139C50,138.76,49.1,138.58,48.92,138.82Z" transform="translate(0 -0.29)"/><path class="cls-5" d="M50.94,145.58l4.41-5.81.64-.84c.12-.16-.3-.21-.37-.21a.73.73,0,0,0-.6.19l-4.41,5.8-.64.84c-.12.16.31.22.37.22a.78.78,0,0,0,.6-.19Z" transform="translate(0 -0.29)"/><path class="cls-5" d="M57.06,145.68l4.41-5.81.63-.83c.18-.23-.76-.46-.94-.23l-4.41,5.8-.63.84c-.18.23.76.46.94.23Z" transform="translate(0 -0.29)"/><path class="cls-1" d="M188.53,137.28c.26-3.38-23.29-10.75-23.25-8.51a82,82,0,0,0,4.06,8.47,81.92,81.92,0,0,0-4.06,8.41c0,2.24,23.51-4.91,23.25-8.29C188.61,137.36,188.61,137.4,188.53,137.28Z" transform="translate(0 -0.29)"/><path class="cls-1" d="M189,137.34a1.9,1.9,0,0,0-.78-1.36,11.57,11.57,0,0,0-2.26-1.54,49,49,0,0,0-7.25-3.15,74.19,74.19,0,0,0-7.95-2.41,29,29,0,0,0-3.19-.63,6.53,6.53,0,0,0-2.16,0c-.79.18-.65.55-.38,1.22.84,2.07,1.86,4.08,2.89,6.06l.38.75a3.82,3.82,0,0,1,.44.82c.1.47-.54,1.29-.76,1.71-.56,1.08-1.11,2.16-1.64,3.25-.43.89-.86,1.79-1.24,2.7-.13.32-.48.8-.24,1.13s1.12.43,1.58.43A14,14,0,0,0,169,146a59.21,59.21,0,0,0,7.51-2,63.86,63.86,0,0,0,7.8-3,22.82,22.82,0,0,0,2.92-1.58,4.93,4.93,0,0,0,1.57-1.44,1.16,1.16,0,0,0,.18-.63l-.52.14h.05c.1,0,.53,0,.53-.13s0-.09-.07-.14c-.18-.25-1.11-.2-1,0l0,0,.52-.14h0c-.09,0-.53,0-.52.14,0,.51-.41.93-.76,1.24a10.78,10.78,0,0,1-2.13,1.41,47.66,47.66,0,0,1-6.83,2.91,75.37,75.37,0,0,1-7.47,2.24c-1,.25-2,.47-3,.62a9.75,9.75,0,0,1-1.88.13c-.07,0-.12,0-.12,0a4,4,0,0,1,.49-1.38c.87-2,1.87-4,2.89-5.89a4.41,4.41,0,0,0,.64-1.26c0-.16-.22-.42-.29-.56l-.49-.92c-.52-1-1-2-1.51-3s-.88-1.84-1.29-2.77c-.12-.3-.56-1-.44-1.3,0-.08.22-.11.28-.12a4.38,4.38,0,0,1,.73,0,19.08,19.08,0,0,1,2.48.39,65.43,65.43,0,0,1,7.12,2,63.14,63.14,0,0,1,7.27,2.88,22.32,22.32,0,0,1,2.67,1.47,4.74,4.74,0,0,1,1.5,1.35.93.93,0,0,1,.17.56C188,137.51,189,137.61,189,137.34Z" transform="translate(0 -0.29)"/><path class="cls-5" d="M170.3,137.43h16.49c.16,0,.57,0,.66-.19s0-.24-.22-.24c-4.58,0-9.15,0-13.72,0h-2.78c-.16,0-.57,0-.66.19s0,.24.23.24Z" transform="translate(0 -0.29)"/></g></g></svg>