<svg xmlns="http://www.w3.org/2000/svg" viewBox="0 0 228.68 228.1"><defs><style>.cls-1{fill:#f79521;}.cls-2{fill:#922160;}.cls-3{opacity:0.7;}.cls-4{opacity:0.5;}</style></defs><g id="Layer_2" data-name="Layer 2"><g id="BG"><path class="cls-1" d="M227.69,114.41a113.65,113.65,0,0,1-44.26,90,113.41,113.41,0,0,1-182.1-81.4,114.69,114.69,0,0,1,2.9-35.8,113.28,113.28,0,0,1,13-31.58,114.14,114.14,0,0,1,50.2-44.83,112.47,112.47,0,0,1,33.92-9.41,114.08,114.08,0,0,1,36.12,1.68,112.85,112.85,0,0,1,32.39,12.21A114.14,114.14,0,0,1,215.93,64a113.12,113.12,0,0,1,10.45,33.08,115.92,115.92,0,0,1,1.31,17.36c0,.25,1,.18,1-.13A114,114,0,0,0,118.62.37,114.4,114.4,0,0,0,8.5,71.16,113.41,113.41,0,0,0,.35,105.48a114.87,114.87,0,0,0,2.93,36.16,114,114,0,0,0,98.14,86.05,116.28,116.28,0,0,0,35.8-1.6A114,114,0,0,0,227.32,132a116.24,116.24,0,0,0,1.36-17.67C228.68,114,227.69,114.1,227.69,114.41Z" transform="translate(0 -0.29)"/><circle class="cls-2" cx="114.34" cy="114.34" r="103.62" transform="translate(-47.37 114.05) rotate(-45)"/><g class="cls-3"><path class="cls-1" d="M177.66,59.34a20.54,20.54,0,0,0-3.73.31h0c.58-1,1.91-2.77,1.91-2.77a12.29,12.29,0,0,1-.89-3.06,23.83,23.83,0,0,1,2.82.8,21.08,21.08,0,0,1,2.43-1.86,23,23,0,0,1-.23,3.12c1,.46,2.39,1.09,3.39,1.65-.76.22-3.28.85-3.28.85a18.35,18.35,0,0,1-.58,3Z" transform="translate(0 -0.29)"/><path class="cls-1" d="M114.29,74a19.7,19.7,0,0,1,1.9,3.21h0c.49-1,1.16-3.16,1.16-3.16a11.82,11.82,0,0,0,3-1.06,23.22,23.22,0,0,0-2.28-1.82,20.6,20.6,0,0,0,.11-3.06,22.24,22.24,0,0,0-2.41,2c-1-.58-2.27-1.32-3.31-1.81.26.74,1.21,3.16,1.21,3.16a18.56,18.56,0,0,0-2.12,2.22Z" transform="translate(0 -0.29)"/><path class="cls-1" d="M69.78,46.3A20.31,20.31,0,0,1,73,48.23h0c-.07-1.16-.49-3.33-.49-3.33a12.22,12.22,0,0,0,2.15-2.36A23,23,0,0,0,71.77,42a22.58,22.58,0,0,0-1.37-2.74,22.54,22.54,0,0,0-1.17,2.9c-1.13,0-2.62-.08-3.77,0C66,42.69,68,44.37,68,44.37a17.6,17.6,0,0,0-.81,3Z" transform="translate(0 -0.29)"/><path class="cls-1" d="M80.77,31.25a18.87,18.87,0,0,1,1.31-3.5h0C81,28,78.9,28.83,78.9,28.83a12.21,12.21,0,0,0-2.72-1.68,23.1,23.1,0,0,0,0,2.92,19.9,19.9,0,0,0-2.44,1.85,21.8,21.8,0,0,0,3.06.61c.17,1.12.4,2.6.67,3.72.42-.67,1.71-2.93,1.71-2.93a17,17,0,0,0,3,.25Z" transform="translate(0 -0.29)"/><path class="cls-1" d="M141.83,34.48a20.18,20.18,0,0,0,1-3.61h0c.75.89,1.95,2.74,1.95,2.74a12.1,12.1,0,0,1,3.18.23,24.39,24.39,0,0,1-1.71,2.36,20.86,20.86,0,0,1,.9,2.92,22.76,22.76,0,0,1-2.84-1.28c-.8.8-1.85,1.87-2.72,2.62.05-.79.33-3.38.33-3.38a18.38,18.38,0,0,1-2.63-1.57Z" transform="translate(0 -0.29)"/><path class="cls-1" d="M192.59,90a19.7,19.7,0,0,0,.1,3.73h0c-1-.63-2.66-2.06-2.66-2.06a12.21,12.21,0,0,1-3.11.7,24.8,24.8,0,0,1,1-2.76,20.68,20.68,0,0,1-1.7-2.54,22.88,22.88,0,0,1,3.1.42c.52-1,1.22-2.32,1.84-3.3.18.78.66,3.33.66,3.33a18.29,18.29,0,0,1,3,.76Z" transform="translate(0 -0.29)"/><path class="cls-1" d="M168.27,67.25a20.56,20.56,0,0,1-2.41,2.86h0c1.15.11,3.36,0,3.36,0a12,12,0,0,0,2,2.49,23.57,23.57,0,0,0,1-2.75,22.87,22.87,0,0,0,2.92-.91,21.22,21.22,0,0,0-2.68-1.62c.22-1.11.49-2.58.61-3.72-.62.49-2.59,2.19-2.59,2.19a18.86,18.86,0,0,0-2.79-1.27Z" transform="translate(0 -0.29)"/><path class="cls-1" d="M52.41,92a20.82,20.82,0,0,1-.72,3.67h0c1.06-.46,3-1.59,3-1.59a12.12,12.12,0,0,0,3,1.2,23.89,23.89,0,0,0-.49-2.87c0-.19,1.66-1.4,2.11-2.22A21.8,21.8,0,0,0,56.1,90c-.35-1.08-.82-2.49-1.27-3.56-.31.74-1.21,3.18-1.21,3.18a17.38,17.38,0,0,0-3,.25Z" transform="translate(0 -0.29)"/><path class="cls-1" d="M41.84,78.74A20.44,20.44,0,0,1,45,80.65h0c-.07-1.15-.5-3.32-.5-3.32A12.11,12.11,0,0,0,46.68,75a22.77,22.77,0,0,0-2.88-.51,20.29,20.29,0,0,0-1.38-2.73,21.19,21.19,0,0,0-1.15,2.91c-1.13,0-2.63-.07-3.78,0,.59.54,2.58,2.2,2.58,2.2a17.93,17.93,0,0,0-.79,3Z" transform="translate(0 -0.29)"/><path class="cls-1" d="M52.69,175.38a20.41,20.41,0,0,0,3.72-.32h0c-.57,1-1.9,2.77-1.9,2.77a12,12,0,0,1,.88,3.07,24.16,24.16,0,0,1-2.81-.8A20.16,20.16,0,0,1,50.15,182a22.88,22.88,0,0,1,.23-3.11c-1-.47-2.39-1.09-3.39-1.65.76-.22,3.28-.85,3.28-.85a18.16,18.16,0,0,1,.58-3Z" transform="translate(0 -0.29)"/><path class="cls-1" d="M175.29,179.6a20.16,20.16,0,0,1-1.91-3.21h0c-.48,1.05-1.15,3.15-1.15,3.15a12.27,12.27,0,0,0-3,1.06,23.23,23.23,0,0,0,2.28,1.83,22.42,22.42,0,0,0-.1,3.06,22.24,22.24,0,0,0,2.41-2c1,.57,2.27,1.31,3.31,1.81-.26-.75-1.21-3.17-1.21-3.17a17.15,17.15,0,0,0,2.11-2.22Z" transform="translate(0 -0.29)"/><path class="cls-1" d="M165.55,189.78a21.1,21.1,0,0,1-3.2-1.93h0c.07,1.16.49,3.33.49,3.33a11.9,11.9,0,0,0-2.15,2.36,25,25,0,0,0,2.87.52,23.72,23.72,0,0,0,1.36,2.74,21.77,21.77,0,0,0,1.18-2.9c1.13,0,2.62.08,3.77,0-.58-.53-2.57-2.21-2.57-2.21a17.48,17.48,0,0,0,.81-3Z" transform="translate(0 -0.29)"/><path class="cls-1" d="M139.31,177.72a19.81,19.81,0,0,1-1.31,3.49h0c1.12-.28,3.18-1.08,3.18-1.08a12.21,12.21,0,0,0,2.72,1.68,25.16,25.16,0,0,0,0-2.92,21.51,21.51,0,0,0,2.44-1.84,20.49,20.49,0,0,0-3.06-.62c-.17-1.12-.4-2.6-.67-3.72-.42.67-1.71,2.93-1.71,2.93a18,18,0,0,0-3-.25Z" transform="translate(0 -0.29)"/><path class="cls-1" d="M66.3,188.64a21.19,21.19,0,0,0-1,3.6h0c-.74-.88-1.95-2.73-1.95-2.73a12.1,12.1,0,0,1-3.18-.23,24.23,24.23,0,0,1,1.72-2.36A20.58,20.58,0,0,1,61,184a22.9,22.9,0,0,1,2.85,1.28c.79-.81,1.84-1.87,2.71-2.62,0,.79-.33,3.37-.33,3.37a18,18,0,0,1,2.63,1.58Z" transform="translate(0 -0.29)"/><path class="cls-1" d="M18.24,124.3a20.57,20.57,0,0,0-.1-3.73h0c1,.63,2.65,2.06,2.65,2.06a12.21,12.21,0,0,1,3.12-.7,24.55,24.55,0,0,1-1,2.76,20.13,20.13,0,0,1,1.71,2.54,21,21,0,0,1-3.1-.42c-.52,1-1.23,2.32-1.84,3.3-.18-.78-.66-3.33-.66-3.33a18.29,18.29,0,0,1-3-.76Z" transform="translate(0 -0.29)"/><path class="cls-1" d="M59.55,137.24A20.61,20.61,0,0,1,62,134.39h0c-1.15-.12-3.36,0-3.36,0a12.2,12.2,0,0,0-2-2.49,23.57,23.57,0,0,0-1,2.75,20.87,20.87,0,0,0-2.92.92,21.62,21.62,0,0,0,2.68,1.61c-.22,1.11-.49,2.58-.62,3.73.62-.5,2.59-2.19,2.59-2.19a18,18,0,0,0,2.79,1.26Z" transform="translate(0 -0.29)"/><path class="cls-1" d="M170,140.53a19.8,19.8,0,0,1,.71-3.66h0c-1.06.46-3,1.59-3,1.59a12,12,0,0,0-2.95-1.21,24.1,24.1,0,0,0,.49,2.88c0,.19-1.66,1.39-2.11,2.21a22,22,0,0,0,3.13.12c.34,1.07.82,2.49,1.27,3.55.3-.73,1.2-3.17,1.2-3.17a17.24,17.24,0,0,0,3.05-.25Z" transform="translate(0 -0.29)"/><path class="cls-1" d="M205.23,118.72a21,21,0,0,1-3.21-1.91h0c.08,1.15.5,3.32.5,3.32a12.45,12.45,0,0,0-2.14,2.37,23.19,23.19,0,0,0,2.89.51,19.94,19.94,0,0,0,1.37,2.73,20,20,0,0,0,1.15-2.91c1.14,0,2.63.07,3.78,0-.59-.54-2.58-2.2-2.58-2.2a17.93,17.93,0,0,0,.79-3Z" transform="translate(0 -0.29)"/></g><g class="cls-4"><path class="cls-1" d="M59.59,53.92a1.69,1.69,0,0,0,.23,3.14c1.84.61,3-2.22,1.42-3.13A1.65,1.65,0,0,0,59.59,53.92Z" transform="translate(0 -0.29)"/><path class="cls-1" d="M169.9,49.54A1.69,1.69,0,0,0,168.08,47c-1.89.42-1.44,3.45.4,3.41A1.64,1.64,0,0,0,169.9,49.54Z" transform="translate(0 -0.29)"/><path class="cls-1" d="M163.28,175.18a1.68,1.68,0,0,0-.23-3.13c-1.83-.62-3,2.21-1.41,3.12A1.6,1.6,0,0,0,163.28,175.18Z" transform="translate(0 -0.29)"/><path class="cls-1" d="M183.22,146.08a1.68,1.68,0,0,0,1.81,2.57c1.89-.42,1.44-3.45-.4-3.4A1.6,1.6,0,0,0,183.22,146.08Z" transform="translate(0 -0.29)"/><path class="cls-1" d="M161.4,47.71a1.68,1.68,0,0,0-.23-3.14c-1.83-.61-3,2.22-1.41,3.13A1.63,1.63,0,0,0,161.4,47.71Z" transform="translate(0 -0.29)"/><path class="cls-1" d="M34.2,93.46A1.69,1.69,0,0,0,36,96c1.89-.42,1.44-3.45-.4-3.4A1.61,1.61,0,0,0,34.2,93.46Z" transform="translate(0 -0.29)"/><path class="cls-1" d="M41.12,149.2a1.68,1.68,0,0,0,.23,3.13c1.83.62,3-2.21,1.41-3.12A1.6,1.6,0,0,0,41.12,149.2Z" transform="translate(0 -0.29)"/><path class="cls-1" d="M31.73,90.21a1.68,1.68,0,0,0-1.81-2.57c-1.89.42-1.44,3.45.4,3.41A1.63,1.63,0,0,0,31.73,90.21Z" transform="translate(0 -0.29)"/><path class="cls-1" d="M189.39,108.44a1.69,1.69,0,0,0,.23,3.14c1.84.61,3-2.22,1.42-3.13A1.65,1.65,0,0,0,189.39,108.44Z" transform="translate(0 -0.29)"/><path class="cls-1" d="M91.67,45.11a1.68,1.68,0,0,0-1.81-2.57C88,43,88.42,46,90.26,46A1.63,1.63,0,0,0,91.67,45.11Z" transform="translate(0 -0.29)"/><path class="cls-1" d="M113.72,21.42a1.68,1.68,0,0,0-.23-3.14c-1.83-.62-3,2.21-1.41,3.12A1.63,1.63,0,0,0,113.72,21.42Z" transform="translate(0 -0.29)"/><path class="cls-1" d="M57.43,47.71a1.68,1.68,0,0,0,1.81,2.57c1.89-.42,1.45-3.45-.39-3.4A1.61,1.61,0,0,0,57.43,47.71Z" transform="translate(0 -0.29)"/><path class="cls-1" d="M185.91,70.73a1.68,1.68,0,0,0,.23,3.14c1.83.61,3-2.22,1.41-3.12A1.63,1.63,0,0,0,185.91,70.73Z" transform="translate(0 -0.29)"/><path class="cls-1" d="M45.57,58.14a1.68,1.68,0,0,0,1.81,2.57c1.89-.42,1.44-3.45-.4-3.41A1.63,1.63,0,0,0,45.57,58.14Z" transform="translate(0 -0.29)"/><path class="cls-1" d="M99.19,80.51a1.69,1.69,0,0,0-1.81-2.58c-1.89.42-1.44,3.46.4,3.41A1.64,1.64,0,0,0,99.19,80.51Z" transform="translate(0 -0.29)"/><path class="cls-1" d="M150.81,52.86A1.69,1.69,0,0,0,151,56c1.84.61,3-2.22,1.41-3.13A1.63,1.63,0,0,0,150.81,52.86Z" transform="translate(0 -0.29)"/><path class="cls-1" d="M128.65,71.29a1.69,1.69,0,0,0,.22,3.14c1.84.61,3-2.22,1.42-3.13A1.63,1.63,0,0,0,128.65,71.29Z" transform="translate(0 -0.29)"/><path class="cls-1" d="M43.87,106.26a1.68,1.68,0,0,0,1.81,2.57c1.89-.42,1.45-3.45-.4-3.41A1.64,1.64,0,0,0,43.87,106.26Z" transform="translate(0 -0.29)"/><path class="cls-1" d="M131.85,22.53a1.69,1.69,0,0,0,1.82,2.57c1.88-.42,1.44-3.45-.4-3.41A1.64,1.64,0,0,0,131.85,22.53Z" transform="translate(0 -0.29)"/><path class="cls-1" d="M64.69,84.49a1.69,1.69,0,0,0-.23-3.14c-1.84-.61-3,2.21-1.42,3.12A1.65,1.65,0,0,0,64.69,84.49Z" transform="translate(0 -0.29)"/><path class="cls-1" d="M65.63,70.42A1.69,1.69,0,0,0,67.44,73c1.89-.43,1.44-3.46-.4-3.41A1.64,1.64,0,0,0,65.63,70.42Z" transform="translate(0 -0.29)"/><path class="cls-1" d="M171.52,88a1.68,1.68,0,0,0,.23,3.14c1.83.62,3-2.21,1.41-3.12A1.63,1.63,0,0,0,171.52,88Z" transform="translate(0 -0.29)"/><path class="cls-1" d="M131.94,210.12a1.69,1.69,0,0,0-1.82-2.57c-1.89.42-1.44,3.45.4,3.4A1.61,1.61,0,0,0,131.94,210.12Z" transform="translate(0 -0.29)"/><path class="cls-1" d="M35.7,121.16a1.69,1.69,0,0,0,.23,3.14c1.84.62,3-2.21,1.42-3.12A1.65,1.65,0,0,0,35.7,121.16Z" transform="translate(0 -0.29)"/><path class="cls-1" d="M25.76,146a1.69,1.69,0,0,0-1.82-2.57c-1.89.42-1.44,3.45.4,3.4A1.61,1.61,0,0,0,25.76,146Z" transform="translate(0 -0.29)"/><path class="cls-1" d="M207.68,100.39a1.69,1.69,0,0,0-.23-3.14c-1.84-.61-3,2.22-1.42,3.13A1.65,1.65,0,0,0,207.68,100.39Z" transform="translate(0 -0.29)"/><path class="cls-1" d="M28.23,149.23A1.68,1.68,0,0,0,30,151.8c1.89-.42,1.44-3.45-.4-3.41A1.63,1.63,0,0,0,28.23,149.23Z" transform="translate(0 -0.29)"/><path class="cls-1" d="M190.2,169.88a1.69,1.69,0,0,0-.23-3.14c-1.83-.61-3,2.22-1.41,3.13A1.63,1.63,0,0,0,190.2,169.88Z" transform="translate(0 -0.29)"/><path class="cls-1" d="M70.41,199.6a1.69,1.69,0,0,0,1.82,2.58c1.89-.43,1.44-3.46-.4-3.41A1.65,1.65,0,0,0,70.41,199.6Z" transform="translate(0 -0.29)"/><path class="cls-1" d="M75.35,172.87a1.68,1.68,0,0,0,.23,3.14c1.83.61,3-2.22,1.41-3.13A1.63,1.63,0,0,0,75.35,172.87Z" transform="translate(0 -0.29)"/><path class="cls-1" d="M138.57,169.43a1.69,1.69,0,0,0-1.82-2.58c-1.89.43-1.44,3.46.4,3.41A1.65,1.65,0,0,0,138.57,169.43Z" transform="translate(0 -0.29)"/><path class="cls-1" d="M202.24,147.44a1.68,1.68,0,0,0-.23-3.14c-1.83-.61-3,2.22-1.41,3.13A1.63,1.63,0,0,0,202.24,147.44Z" transform="translate(0 -0.29)"/><path class="cls-1" d="M100.12,168a1.69,1.69,0,0,0-1.81-2.58c-1.89.43-1.44,3.46.4,3.41A1.62,1.62,0,0,0,100.12,168Z" transform="translate(0 -0.29)"/><path class="cls-1" d="M81.92,178.37a1.68,1.68,0,0,0,1.81,2.57c1.89-.42,1.44-3.45-.4-3.41A1.63,1.63,0,0,0,81.92,178.37Z" transform="translate(0 -0.29)"/><path class="cls-1" d="M136.58,205.3a1.68,1.68,0,0,0-.23-3.14c-1.83-.61-3,2.22-1.41,3.13A1.63,1.63,0,0,0,136.58,205.3Z" transform="translate(0 -0.29)"/><path class="cls-1" d="M14.25,107.05a1.69,1.69,0,0,0-.22-3.14c-1.84-.61-3,2.22-1.42,3.13A1.63,1.63,0,0,0,14.25,107.05Z" transform="translate(0 -0.29)"/><path class="cls-1" d="M187.67,116.78a1.68,1.68,0,0,0-1.81-2.57c-1.89.42-1.44,3.45.4,3.41A1.63,1.63,0,0,0,187.67,116.78Z" transform="translate(0 -0.29)"/><path class="cls-1" d="M40,170.36a1.68,1.68,0,0,0-1.81-2.57c-1.89.42-1.45,3.45.4,3.41A1.63,1.63,0,0,0,40,170.36Z" transform="translate(0 -0.29)"/></g><path class="cls-1" d="M124.07,52.71c1.21-1.05,2.24-2.31,3.4-3.42a3.71,3.71,0,0,1,.29-.27l.12-.11c.09-.07-.13.07,0,0a12.39,12.39,0,0,1-1.48.14c0-.07,0,0,0,0l.27.23c.61.53,1.21,1.09,1.81,1.65l2,1.93c.29.28.91.18,1.26.08.16,0,.9-.31.61-.59-1.27-1.25-2.56-2.5-3.92-3.66a1.59,1.59,0,0,0-.63-.39,2.1,2.1,0,0,0-1.72.43,18.07,18.07,0,0,0-1.71,1.68c-.69.72-1.36,1.47-2.12,2.13-.34.29.22.46.44.48a1.91,1.91,0,0,0,1.33-.35Z" transform="translate(0 -0.29)"/><path class="cls-1" d="M98.19,31.53c.44-1.49.6-3.2,2-4.14a1.47,1.47,0,0,1,1.6-.26,2.14,2.14,0,0,1,.93,1.38,14.68,14.68,0,0,1,.3,3.8c0,.69,0,1.37,0,2.06.06,4.64.07,9.28.06,13.91,0,2,0,4-.08,6,0,.49,2,.37,2-.26.18-4.62.09-9.26.07-13.88,0-2.19,0-4.39,0-6.58,0-.92,0-1.83,0-2.75,0-1.24,0-2.82-.89-3.81-1.22-1.41-3.65-1-5.09-.19a4.58,4.58,0,0,0-1.92,1.93,16.17,16.17,0,0,0-.86,2.8c-.17.59,1.78.51,1.94,0Z" transform="translate(0 -0.29)"/><path class="cls-1" d="M105.09,34.51a4.5,4.5,0,0,1,2.45-4.19c.48-.21,1.23-.51,1.73-.22a3.84,3.84,0,0,1,1.32,2.32,21.9,21.9,0,0,1,.63,6.2c0,2.43,0,4.87-.06,7.3,0,2.74-.14,5.47-.15,8.21,0,.64,1.93,1,1.94.5,0-2.77.12-5.55.14-8.33s.1-5.52.06-8.28c0-2.21-.1-4.82-1.21-6.8a4.6,4.6,0,0,0-5.12-2A4.82,4.82,0,0,0,103.16,34c0,.64,1.92,1,1.93.5Z" transform="translate(0 -0.29)"/><path class="cls-1" d="M113,35.87a13.63,13.63,0,0,1,1.14-4.21,4.62,4.62,0,0,1,1.34-1.72,1.91,1.91,0,0,1,1.45-.47c.55.18.82,1.14,1,1.62a12.84,12.84,0,0,1,.29,2.23c.22,2.56.31,5.11.3,7.68,0,2.41,0,4.81,0,7.22l0,3.44a15.39,15.39,0,0,0,.11,2.88A4.44,4.44,0,0,0,122.09,58a5.77,5.77,0,0,0,4.8-.82c2.18-1.81,1.14-5.37,1.18-7.79,0-.6-2-.8-2-.28,0,1.21.16,2.42.17,3.64a5.54,5.54,0,0,1-.8,3.48A2.73,2.73,0,0,1,122,57c-1.6-1.15-1.45-3.19-1.46-4.92,0-4.88.06-9.78-.1-14.65a35.35,35.35,0,0,0-.52-5.9,3.85,3.85,0,0,0-.87-1.91,3.61,3.61,0,0,0-2.42-1,4.28,4.28,0,0,0-4.17,2.23,13.22,13.22,0,0,0-1.41,4.73c-.08.56,1.9.85,2,.29Z" transform="translate(0 -0.29)"/><path class="cls-2" d="M85.7,197.42a.7.7,0,0,0,0,.41,1.9,1.9,0,0,1-.16,1.51,1.38,1.38,0,0,1-1.41.63,2.12,2.12,0,0,1-.79-.44,2.76,2.76,0,0,1-1.23-1.86c0-.24,0-.47,0-.7-.1-.65-.56-1.19-.48-1.9a6.38,6.38,0,0,1,.78-2.68,8.07,8.07,0,0,1,5.18-3.85c2.19-.46,4.43-.31,6.41-1.47,1.63-1,3.14-2.17,2.84-4.1a11.29,11.29,0,0,1,.48,2.31,6.5,6.5,0,0,1-1.08,3.39c-1.32,2.09-3.21,3.23-5.31,4.59a16.29,16.29,0,0,0-2.13,1.64,18.34,18.34,0,0,1-1.66,1.52C86.67,196.76,85.87,196.93,85.7,197.42Z" transform="translate(0 -0.29)"/><path class="cls-1" d="M85.21,197.45c-.07.42.11.81.07,1.24a1.39,1.39,0,0,1-.33.79c-.42.46-.76.22-1.16-.09a3.66,3.66,0,0,1-.93-1c-.33-.53-.17-1-.28-1.6-.07-.41-.29-.77-.39-1.17a3.55,3.55,0,0,1,.09-1.65,6.29,6.29,0,0,1,1.43-2.74,7.59,7.59,0,0,1,5-2.69c2-.28,4-.4,5.77-1.45,1.56-.92,3.14-2.21,2.89-4.21l-1,.17a9,9,0,0,1,.46,2.62,6.27,6.27,0,0,1-.78,2.54,10.89,10.89,0,0,1-3.45,3.63,42.48,42.48,0,0,0-4.06,2.87,13.75,13.75,0,0,1-1.88,1.7c-.5.31-1.16.45-1.43,1-.11.24.84.22,1,0s.56-.48.88-.64a4.39,4.39,0,0,0,.84-.56c.65-.54,1.2-1.17,1.85-1.71,1.33-1.12,2.88-1.93,4.27-3a10.45,10.45,0,0,0,3.12-3.62,6.44,6.44,0,0,0,.65-2.26,8.84,8.84,0,0,0-.45-2.74c-.07-.28-1-.12-1,.17.29,2.26-2.07,3.88-4,4.48-2.18.68-4.56.42-6.67,1.41a8.33,8.33,0,0,0-4.1,4.15,4.47,4.47,0,0,0-.25,3.11,4.12,4.12,0,0,1,.24.67,6.27,6.27,0,0,1,0,.87,2.26,2.26,0,0,0,.67,1.38,2.49,2.49,0,0,0,2.72.94,1.9,1.9,0,0,0,1-.76,1.78,1.78,0,0,0,.24-.79c0-.37-.14-.76-.08-1.12S85.26,197.19,85.21,197.45Z" transform="translate(0 -0.29)"/><path class="cls-1" d="M82.51,197.13a6.71,6.71,0,0,1,2.44.39,1,1,0,0,0,.71,0c.17-.09.15-.22,0-.29a8.33,8.33,0,0,0-2.89-.46c-.16,0-.51,0-.6.18s.28.22.36.22Z" transform="translate(0 -0.29)"/><path class="cls-2" d="M84.76,199.66c1.18-.56.5-1.32,1.26-1.7a4.81,4.81,0,0,1,1.76-.32c1.2-.09,3.84-.38,5-.35s2.82-.83,8.16.05c1.26.21,3.54.93,4.25,1.14a2.42,2.42,0,0,1,1.21,1,4,4,0,0,1,.94,2.08c0,1.29-1.94,1.74-3,2a31.74,31.74,0,0,1-9.18.08,44,44,0,0,1-6.89-1.2C86.74,201.92,82.51,200.41,84.76,199.66Z" transform="translate(0 -0.29)"/><path class="cls-1" d="M85.19,199.78A1.56,1.56,0,0,0,86,199c.1-.24.09-.56.26-.77.33-.43,1.1-.38,1.59-.41l1.14-.1c1.45-.13,2.91-.16,4.36-.28.87-.07,1.72-.26,2.6-.31a20.53,20.53,0,0,1,5.47.47c.83.19,1.66.43,2.48.68a3.59,3.59,0,0,1,2,1.09c.51.63,1.26,1.69.89,2.54-.31.7-1.21,1-1.88,1.17-3.77,1-7.9.49-11.71,0a28.71,28.71,0,0,1-6.07-1.38,8.54,8.54,0,0,1-2-.95c-.51-.35-.67-.71,0-1,.21-.07.14-.18,0-.28a1,1,0,0,0-.71,0c-.38.14-1,.4-.74.89s.92.78,1.36,1A21,21,0,0,0,90.11,203a55.66,55.66,0,0,0,6.91.93,30.53,30.53,0,0,0,6.89-.17c1.22-.18,3.78-.52,4-2.11a3.85,3.85,0,0,0-1.29-2.67,4.16,4.16,0,0,0-2-1A24.57,24.57,0,0,0,93.84,197c-1.49.22-3,.19-4.55.33a16.57,16.57,0,0,0-3.24.36,1.27,1.27,0,0,0-.91.7c-.2.55-.23.88-.81,1.19-.21.11.07.24.17.28A1,1,0,0,0,85.19,199.78Z" transform="translate(0 -0.29)"/><path class="cls-2" d="M112.29,189.39c-1.13,0-1,.15-1.71.91a17.63,17.63,0,0,0-2.65,3.78c-.57,1-2.42,3.93-2.46,4.27s.42.58.66.94c.38.59.67,1.23,1,1.84s.53,1.54,1.38,1.18c1-.42,1-.68,1.74-1.41a39.86,39.86,0,0,0,3.54-4.57,17.84,17.84,0,0,0,1.32-2c.34-.67.65-1.07,1-1.71a3.07,3.07,0,0,0,.25-1.42C116.37,190.22,114.27,189.86,112.29,189.39Z" transform="translate(0 -0.29)"/><path class="cls-1" d="M112.08,189.16a2.06,2.06,0,0,0-1.27.26,8.22,8.22,0,0,0-1.21,1.29,23.21,23.21,0,0,0-2.3,3.5c-.55.95-1.13,1.88-1.69,2.82a6.2,6.2,0,0,0-.57,1c-.15.45.14.66.43,1a8.54,8.54,0,0,1,1.24,2.13,2.63,2.63,0,0,0,.79,1.19c.94.61,2.06,0,2.71-.76a44.15,44.15,0,0,0,2.84-3.43,34.74,34.74,0,0,0,2.55-3.74,10.53,10.53,0,0,0,1.2-2.14,1.8,1.8,0,0,0-.16-1.57,3.45,3.45,0,0,0-1.56-.84c-.9-.3-1.83-.48-2.75-.7-.1,0-.5-.09-.53.08s.33.29.44.31c.66.16,1.32.3,2,.47.49.13,1.28.28,1.58.73a1.92,1.92,0,0,1,0,1.45,9.63,9.63,0,0,1-1,1.6,38.19,38.19,0,0,1-4.56,6.38c-.34.4-.7.79-1.06,1.17a2.93,2.93,0,0,1-.41.38,3.3,3.3,0,0,1-.41.23c-.16.08-.25.15-.28.13-.29-.17-.56-1.05-.71-1.34a7.58,7.58,0,0,0-1-1.73c-.27-.29-.44-.43-.32-.81a5.52,5.52,0,0,1,.51-.92L108,195a36,36,0,0,1,2-3.29c.41-.56.89-1,1.35-1.56a1.26,1.26,0,0,1,1.13-.5C113.14,189.61,112.39,189.16,112.08,189.16Z" transform="translate(0 -0.29)"/><path class="cls-2" d="M114,179.38c-.62,0-3.07,9.27-2.68,9.69.92,1,1.94,2.27,3.51,1.84a5.61,5.61,0,0,0,2.43-.82,5.47,5.47,0,0,0,1-1.43c.33-.75.62-1.53.88-2.3a14.15,14.15,0,0,0,1.14-4.67,3.52,3.52,0,0,0-.26-1.28c-.14-.25-.26-.28-.57-.35C118.43,179.83,116.76,179.7,114,179.38Z" transform="translate(0 -0.29)"/><path class="cls-1" d="M114.09,179.17c-.64,0-.85.47-1.07,1-.34.83-.6,1.7-.86,2.57a39.05,39.05,0,0,0-1.34,5.63,1.85,1.85,0,0,0,0,.66c.1.39.63.79.92,1.06a3.73,3.73,0,0,0,1.67,1,4.9,4.9,0,0,0,2.18-.18,4.44,4.44,0,0,0,2.08-.78,4.53,4.53,0,0,0,1.12-1.64c.42-.94.74-1.92,1.08-2.9a17.17,17.17,0,0,0,.78-2.65,4.48,4.48,0,0,0-.09-2.54c-.23-.54-.79-.59-1.31-.68-1.66-.28-3.34-.4-5-.59-.31,0-1.09.35-.45.42,1.38.16,2.75.28,4.12.46a8.25,8.25,0,0,1,1.21.2c.61.17.64,1,.66,1.52a13.28,13.28,0,0,1-1.13,4.61,19.86,19.86,0,0,1-.93,2.4,3.11,3.11,0,0,1-1.28,1.53,4.56,4.56,0,0,1-1.1.28,3.71,3.71,0,0,1-1.09.18,3,3,0,0,1-1.7-1c-.24-.24-.69-.61-.75-.86a1.51,1.51,0,0,1,0-.56,31.77,31.77,0,0,1,1.08-4.73c.25-.93.52-1.84.84-2.75.11-.31.23-.62.36-.92,0-.11.13-.22.17-.33.1-.27.36,0-.37,0,.14,0,.56-.05.59-.23S114.21,179.16,114.09,179.17Z" transform="translate(0 -0.29)"/><path class="cls-2" d="M116.34,169.72c-.43.07-1.6.15-1.86.43a2.54,2.54,0,0,0-.3,1.1c-.08.41-.16.83-.27,1.24a16,16,0,0,0-.49,2.9c-.07.84-.52,1.89-.24,2.71a6.71,6.71,0,0,0,1.65,2.23c.74.75,1.14.72,2.18.61a6.71,6.71,0,0,0,2.66-.64c.92-.48.93-1.1,1.16-2,.41-1.68.79-3.37,1.09-5.06a5,5,0,0,0,.13-2.13C121.79,170.18,120.47,169.87,116.34,169.72Z" transform="translate(0 -0.29)"/><path class="cls-1" d="M116.1,169.54c-.75.11-2,0-2.28.92-.18.57-.22,1.22-.36,1.81a22.59,22.59,0,0,0-.5,2.58c-.14,1.33-.71,2.7.05,3.93a8.77,8.77,0,0,0,1.33,1.58,2.53,2.53,0,0,0,1.33.79,5.17,5.17,0,0,0,1.47,0,10.43,10.43,0,0,0,2-.34,3.62,3.62,0,0,0,1.49-.78,2.73,2.73,0,0,0,.62-1.43c.36-1.56.75-3.13,1-4.71.18-.91.7-2.39,0-3.21a3,3,0,0,0-1.78-.79,26.63,26.63,0,0,0-4.19-.36c-.11,0-.51,0-.51.18s.38.21.5.22c1.1,0,2.21.08,3.31.23a3.41,3.41,0,0,1,1.56.46c.55.42.44,1.24.35,1.83-.2,1.33-.49,2.64-.78,3.94-.15.66-.31,1.31-.47,2a3.76,3.76,0,0,1-.43,1.3c-.67,1-2.26,1-3.32,1.13a1.22,1.22,0,0,1-1.06-.32,8.12,8.12,0,0,1-1.31-1.44,2.59,2.59,0,0,1-.6-1.56,13,13,0,0,1,.29-1.73c.11-.73.15-1.46.29-2.19s.38-1.51.51-2.28c.07-.47,0-1,.59-1.16s.88-.13,1.32-.2c.18,0,.29-.12.19-.27S116.25,169.51,116.1,169.54Z" transform="translate(0 -0.29)"/><path class="cls-2" d="M114.08,161.46a2.67,2.67,0,0,0-.76,2.47c.14,1.36.29,2.72.41,4.08a4.47,4.47,0,0,0,.57,2.19,7.69,7.69,0,0,0,2,1.43c1.33.76,2.82,0,4-.6.55-.25,1.46-.42,1.72-1a4.08,4.08,0,0,0,.11-.93c0-.45.16-.92.24-1.38.27-1.6.51-3.15.63-4.77,0-.48.22-1.06-.17-1.41a2.36,2.36,0,0,0-1.18-.44C120.53,160.92,119.25,160.93,114.08,161.46Z" transform="translate(0 -0.29)"/><path class="cls-1" d="M113.6,161.39c-1.07,1.09-.79,2.46-.64,3.85.09.89.19,1.77.27,2.66a7.27,7.27,0,0,0,.28,1.73,2.7,2.7,0,0,0,1.16,1.36,7.69,7.69,0,0,0,1.7.95,5,5,0,0,0,3.88-.55c.53-.24,1.1-.42,1.62-.68a1.26,1.26,0,0,0,.79-1.19,20.6,20.6,0,0,1,.38-2.46c.13-.82.25-1.65.35-2.48s.21-1.53.23-2.28a1.17,1.17,0,0,0-.94-1.17,6.88,6.88,0,0,0-1.92-.31,43.2,43.2,0,0,0-6.81.44c-.12,0-.41.05-.35.24s.49.16.61.15c1.91-.19,3.83-.43,5.75-.45a11.71,11.71,0,0,1,1.22.05,4,4,0,0,1,.84.17c.77.26.59.89.53,1.53-.14,1.4-.3,2.79-.53,4.18a19.51,19.51,0,0,0-.35,2.12,1.72,1.72,0,0,1-.14.84,1.45,1.45,0,0,1-.69.47c-.43.18-.86.34-1.29.53a5.2,5.2,0,0,1-2,.65,3.53,3.53,0,0,1-1.76-.75,3.11,3.11,0,0,1-1.23-1.18,5.42,5.42,0,0,1-.35-1.79c-.07-.82-.15-1.63-.24-2.45-.15-1.42-.54-2.92.57-4C114.72,161.36,113.82,161.17,113.6,161.39Z" transform="translate(0 -0.29)"/><path class="cls-2" d="M75.49,103.42c-1.22-.93-5.67-3.48-4.5-3.82A23.26,23.26,0,0,1,77.13,103C76.71,103.47,76.58,103.33,75.49,103.42Z" transform="translate(0 -0.29)"/><path class="cls-1" d="M75.91,103.27c-1-.72-2-1.32-3-2a9,9,0,0,1-1.32-1.05,1.13,1.13,0,0,1-.29-.37s0-.12,0-.1,0,0,0,0-.1,0,0,0l-.6,0a13.22,13.22,0,0,1,3.12,1.45c1,.59,2,1.25,2.94,1.94l0-.2a1.71,1.71,0,0,1-.2.18s-.1.08,0,0,.12,0,0,0l-1,.06c-.12,0-.49.07-.48.25s.42.15.52.14c.73,0,1.51,0,2.06-.54.08-.08.07-.13,0-.2a34.43,34.43,0,0,0-3.23-2.11,16.63,16.63,0,0,0-1.79-.9,2.81,2.81,0,0,0-1.81-.41c-.21.07-.46.2-.42.45a1.24,1.24,0,0,0,.41.58A15.39,15.39,0,0,0,72.76,102c.77.51,1.57,1,2.31,1.55C75.28,103.72,76.22,103.51,75.91,103.27Z" transform="translate(0 -0.29)"/><path class="cls-2" d="M77.11,102.89c-1,.11-1.61.36-1.58.55.09.74.17,2.24.3,3,.33,1.84,1.16,8.69,1.57,10.19a.86.86,0,0,0,1.09.59c.44-.14.61-.83.71-1.18.27-.89.22-1.32.47-2.21a4.63,4.63,0,0,0-.52-3.53C78.76,109.82,77.4,103.5,77.11,102.89Z" transform="translate(0 -0.29)"/><path class="cls-1" d="M76.81,102.66c-.42,0-1.42.09-1.7.51s0,1.14.06,1.5c.09,1,.26,2.07.41,3.1.35,2.42.64,4.84,1,7.26.14.85.15,1.89,1.06,2.28a1.32,1.32,0,0,0,1.59-.2,4.49,4.49,0,0,0,.62-1.9c.24-1.4.64-2.79.1-4.19-.13-.35-.37-.61-.51-1a10.33,10.33,0,0,1-.33-1.08c-.33-1.18-.61-2.38-.91-3.57a15.81,15.81,0,0,0-.66-2.45c-.12-.28-1-.39-1-.16a12.64,12.64,0,0,1,.48,1.73l.72,2.93c.2.77.38,1.54.64,2.29a2.27,2.27,0,0,0,.23.5,4.09,4.09,0,0,1,.61,2,7.07,7.07,0,0,1-.24,1.78,20.15,20.15,0,0,1-.43,2c-.07.21-.17.62-.38.75s-.36-.09-.44-.37-.13-.66-.19-1c-.38-2.18-.65-4.38-1-6.57-.13-.9-.28-1.81-.41-2.72-.1-.72-.14-1.44-.21-2.17,0-.22-.11-.47.06-.63s.95-.28,1.3-.32C77.93,103.06,77.07,102.62,76.81,102.66Z" transform="translate(0 -0.29)"/><path class="cls-1" d="M77,110.08l.08,0c.06,0-.13,0,0,0h.14l.23,0c-.15,0,0,0,0,0l.12,0,.46.1s.08,0,0,0,0,0,0,0l.1,0,.18.06a1,1,0,0,0,.71,0c.06,0,.14-.08.14-.15s-.1-.12-.15-.14a7.49,7.49,0,0,0-1-.25,3.67,3.67,0,0,0-1.28,0c-.09,0-.45.09-.33.26a.34.34,0,0,0,.23.11,1.27,1.27,0,0,0,.39,0Z" transform="translate(0 -0.29)"/><path class="cls-2" d="M78.18,117.36c.67-1.24,1-2.09,1.47-2,1.4.22,7.59.7,8.6.86s2.21.22,3.35.34,1.69,1.82,1.67,2.83C89.33,119.86,78.12,117.94,78.18,117.36Z" transform="translate(0 -0.29)"/><path class="cls-1" d="M78.66,117.5c.26-.48.7-1.83,1.26-1.91a7.75,7.75,0,0,1,1.5.17c1.39.14,2.78.26,4.17.39,1.08.09,2.15.2,3.22.34.51.07,1,.12,1.55.16s1.33-.05,1.73.4a3.39,3.39,0,0,1,.7,2.18l.18-.1a33.38,33.38,0,0,1-8.46-.53c-1.39-.2-2.77-.43-4.14-.73-.46-.1-.92-.2-1.37-.33a1.65,1.65,0,0,0-.37-.13c-.1,0,0-.06,0,.09,0-.33-1-.5-1-.28,0,.43.92.62,1.22.71a28.29,28.29,0,0,0,2.87.64,70,70,0,0,0,8,1,20.42,20.42,0,0,0,3.75,0s.18,0,.18-.09a3.13,3.13,0,0,0-1.7-3.06,11.28,11.28,0,0,0-2.79-.34c-.58,0-1.16-.15-1.74-.21-2.4-.27-4.81-.43-7.22-.69a2.65,2.65,0,0,0-1.28,0c-.66.3-1,1.47-1.32,2C77.59,117.43,78.51,117.78,78.66,117.5Z" transform="translate(0 -0.29)"/><path class="cls-2" d="M91.9,116.7c.84-2.4,6.89-10.4,7.74-10.31a3,3,0,0,1,1.68,1.29c.08.55-6.15,9.47-6.77,10.4a2.65,2.65,0,0,1-.83,1C92.93,119.59,92.91,119,91.9,116.7Z" transform="translate(0 -0.29)"/><path class="cls-1" d="M92.38,116.68a12.9,12.9,0,0,1,1.29-2.4c.69-1.08,1.43-2.14,2.19-3.17s1.53-2,2.35-3c.31-.35.62-.7,1-1,.09-.09.63-.46.65-.56,0,.13-.52-.11-.34.09a1.93,1.93,0,0,0,.38.19,2.86,2.86,0,0,1,.88.75c.15.21.07.29,0,.53a22.13,22.13,0,0,1-1.26,2.08c-1.28,2-2.61,3.92-3.94,5.87-.46.65-.92,1.31-1.36,2a4.39,4.39,0,0,1-.56.84s-.22.13-.25.19l-.08,0,.33,0s-.13-.13-.13-.14c-.3-.77-.71-1.54-1-2.3-.13-.29-1.08-.05-1,.16a19.87,19.87,0,0,0,1,2.26.91.91,0,0,0,1.09.4c1-.21,1.41-1.2,1.94-2,1.42-2.07,2.85-4.13,4.23-6.23.62-.93,1.24-1.86,1.8-2.83a2.31,2.31,0,0,0,.33-.69c.06-.47-.6-.89-.93-1.11a1.67,1.67,0,0,0-2.3.15,21.2,21.2,0,0,0-2.27,2.56c-1,1.32-2,2.68-3,4.08a15.92,15.92,0,0,0-1.9,3.33C91.32,117,92.28,117,92.38,116.68Z" transform="translate(0 -0.29)"/><path class="cls-2" d="M99.3,106.49a12.9,12.9,0,0,1,2.11-3.2c.78-1,3.1-1.49,4.37-1.21s.89,1.6.61,2.62c-.14.51-1.9.76-2.74,1.26a23.4,23.4,0,0,0-2.05,1.82C101.2,108.05,100.79,107.36,99.3,106.49Z" transform="translate(0 -0.29)"/><path class="cls-1" d="M99.8,106.53a6.57,6.57,0,0,1,1.12-1.91A7.18,7.18,0,0,1,102.3,103a4.86,4.86,0,0,1,1.91-.71c.45-.08,1.27-.24,1.65.1s.29,1.18.18,1.68a1.56,1.56,0,0,1-.22.69,1.87,1.87,0,0,1-.75.36,9.7,9.7,0,0,0-1.84.7,8.38,8.38,0,0,0-1.25,1.05l-.63.61c0,.06-.16.12-.2.19s0,0,0,0c0-.17.51.11.39,0a5.06,5.06,0,0,0-.65-.46,13.57,13.57,0,0,0-1.22-.81.92.92,0,0,0-.71,0c-.19.06-.19.18,0,.28a10.72,10.72,0,0,1,1.21.82,4.76,4.76,0,0,0,.7.47,1.19,1.19,0,0,0,1.4-.19c.48-.45,1-.93,1.46-1.35a5.68,5.68,0,0,1,2-.87,3.77,3.77,0,0,0,.92-.4,1,1,0,0,0,.39-.68,2.36,2.36,0,0,0-.12-2,2.77,2.77,0,0,0-2.13-.58,7.23,7.23,0,0,0-2.47.52,3.86,3.86,0,0,0-1,.6,6.65,6.65,0,0,0-.88,1,8.33,8.33,0,0,0-1.54,2.51C98.74,106.68,99.71,106.84,99.8,106.53Z" transform="translate(0 -0.29)"/><path class="cls-1" d="M103.55,102.35a13.39,13.39,0,0,1,.49,2.26c0,.32,1,.42,1,.2a13.8,13.8,0,0,0-.51-2.36c0-.08-.14-.14-.2-.17a1.2,1.2,0,0,0-.37-.1c-.11,0-.45,0-.39.17Z" transform="translate(0 -0.29)"/><path class="cls-2" d="M66.24,115.67a10.88,10.88,0,0,0-2.64-.84,8.85,8.85,0,0,0-2.76-.43c-.33,1,5,2.5,5.88,2.79C66.89,116.81,66.86,116.39,66.24,115.67Z" transform="translate(0 -0.29)"/><path class="cls-1" d="M66.54,115.59a9.55,9.55,0,0,0-2.76-.92,11.85,11.85,0,0,0-3.23-.52s-.16,0-.18.08c-.09.32.19.6.41.79a6.13,6.13,0,0,0,1.31.76A29.41,29.41,0,0,0,65.45,117l1.21.37c.11,0,.46.15.53,0a1.6,1.6,0,0,0-.51-1.64.94.94,0,0,0-.62-.3c-.1,0-.41,0-.26.2.34.4.68.87.45,1.4h.54c-.77-.26-1.55-.48-2.32-.74-.52-.18-1-.37-1.57-.58a8.46,8.46,0,0,1-1.17-.57c-.2-.13-.49-.3-.42-.55l-.19.09a9.53,9.53,0,0,1,2.7.44,7.83,7.83,0,0,1,2.13.64.83.83,0,0,0,.66.17C66.81,115.83,66.66,115.67,66.54,115.59Z" transform="translate(0 -0.29)"/><path class="cls-2" d="M66,117.13c.08-.64.17-1.26.47-1.37,0-.22.93.81,1.22,1.27a15.06,15.06,0,0,0,1.25,1.61c.93,1.11,1.78,2.29,2.68,3.42a25.14,25.14,0,0,1,3.3,6.12,5,5,0,0,1,.54,1.53,6.19,6.19,0,0,1-.49,1.57c-.89.24-2.84-2-3.24-2.68A22.7,22.7,0,0,1,70.47,126C69.5,123.79,68.4,121.7,66,117.13Z" transform="translate(0 -0.29)"/><path class="cls-1" d="M66.47,117.14a4.13,4.13,0,0,1,.17-.93c.07-.2.19-.25.3-.42l-.35.14h0l-.48,0c.29.12.57.57.75.81.38.49.7,1,1.1,1.48.92,1.12,1.8,2.26,2.69,3.41A23,23,0,0,1,73,125.05c.62,1.2,1.11,2.44,1.66,3.67a2,2,0,0,1,.13,1.72,2.9,2.9,0,0,0-.16.41l0,.08c-.14.2,0,.26.29.17a3.09,3.09,0,0,1-.53-.28,8.36,8.36,0,0,1-1.9-1.9,15.05,15.05,0,0,1-1.52-3.06c-.31-.69-.63-1.38-1-2-1.11-2.27-2.31-4.5-3.5-6.73-.13-.25-1.1-.16-1,.1,1.27,2.37,2.56,4.74,3.72,7.17.51,1.06,1,2.15,1.45,3.22a8.81,8.81,0,0,0,1.94,2.7,3.23,3.23,0,0,0,2.4,1.22c.56-.07.63-.63.79-1.1a2.28,2.28,0,0,0-.22-1.85c-.7-1.53-1.3-3.08-2.15-4.54a39.62,39.62,0,0,0-3-4.16c-.61-.78-1.27-1.51-1.86-2.29a15.81,15.81,0,0,0-1.23-1.6,1.09,1.09,0,0,0-1.1-.39c-.64.18-.67,1-.74,1.56C65.43,117.38,66.43,117.44,66.47,117.14Z" transform="translate(0 -0.29)"/><path class="cls-1" d="M70.42,123.55s0,0,0,0h0l.08-.06.09,0s.08,0,.08-.05-.06,0,0,0l0,0,.1,0h0l.11,0,.1,0h0c-.07,0,0,0,0,0h.52a1.12,1.12,0,0,0,.36,0s.14-.07.15-.14-.39-.21-.5-.21a2.79,2.79,0,0,0-2.13.58s0,.12.05.15a.59.59,0,0,0,.29.1.75.75,0,0,0,.62-.12Z" transform="translate(0 -0.29)"/><path class="cls-2" d="M74.68,131.3c.53-.88.08-2.77.61-3.07.77-.43,4.48.06,5.65.29,2,.4,2.82.41,4.88.66.91.11,1.84.21,2.77.29.53.05,1.32-.05,1.73.29s.65,1.55.75,2.13c.07.42.08.55-.37.76a4.1,4.1,0,0,1-1.44.17C88,132.91,74.65,131.62,74.68,131.3Z" transform="translate(0 -0.29)"/><path class="cls-1" d="M75.16,131.3a4.36,4.36,0,0,0,.32-2,1.92,1.92,0,0,1,.14-.92c.11-.15.27-.13.46-.14a18.32,18.32,0,0,1,4,.33c1.53.25,3,.49,4.59.66,1.06.12,2.12.25,3.18.36.38,0,.76.06,1.15.07a1.08,1.08,0,0,1,1.18.72,4.68,4.68,0,0,1,.27,1c.05.26.22.77,0,1s-1.08.17-1.24.17h-.23c-.71,0-1.42-.08-2.14-.13-2.31-.18-4.62-.41-6.92-.65-1.13-.12-2.25-.25-3.38-.4-.38-.06-.76-.11-1.14-.18a1.09,1.09,0,0,0-.26,0c-.16,0,0-.07,0,0-.05-.29-1-.17-1,.1s1.15.36,1.37.4c1.07.16,2.16.28,3.24.4q4,.45,8,.75c.76.06,1.53.14,2.3.13a4.63,4.63,0,0,0,2.09-.31c.7-.37.41-1.12.27-1.76s-.45-1.41-1.27-1.59a6.94,6.94,0,0,0-1.29-.09c-.67,0-1.33-.13-2-.21-2-.22-4-.45-5.94-.8a19,19,0,0,0-5-.38c-.55,0-1.19.13-1.36.74-.24.87.07,1.83-.38,2.66C74.07,131.53,75,131.57,75.16,131.3Z" transform="translate(0 -0.29)"/><path class="cls-2" d="M90.5,130.47c-.16-1-.47-.51,0-1.4.71-1.33,5.58-9.16,7.2-11.13.64-.8,1-1.4,2-.69a6.65,6.65,0,0,1,1.24.86c.23.4-.07.77-.23,1.17a38.39,38.39,0,0,1-3.49,7c-1.08,1.56-4.19,5.78-4.87,6.17C91.34,133,90.77,132.89,90.5,130.47Z" transform="translate(0 -0.29)"/><path class="cls-1" d="M91,130.43c0-.23-.18-.47-.22-.69a1.06,1.06,0,0,1,.23-.69c.13-.25.28-.5.43-.75q.78-1.32,1.59-2.61c1.31-2.1,2.63-4.19,4-6.22.26-.38.52-.75.79-1.11s.73-1.15,1-1.2.67.39.87.5.77.39.79.79a4.23,4.23,0,0,1-.54,1.4l-.55,1.29a30.21,30.21,0,0,1-2.64,5c-.66,1-1.36,1.92-2.07,2.86a28.87,28.87,0,0,1-2.47,3.05,1.81,1.81,0,0,1-.33.29,1.17,1.17,0,0,1-.32.15c-.07,0,.12.08,0,0a3.54,3.54,0,0,1-.63-2c0-.29-1-.19-1,.08.14,1.11.31,2.59,1.76,2.37a3.56,3.56,0,0,0,2.15-1.58,42.14,42.14,0,0,0,5.53-8.05c.48-1,.91-2,1.34-3,.19-.46.4-.91.6-1.37a.86.86,0,0,0-.11-1,4.94,4.94,0,0,0-.9-.58,3,3,0,0,0-1-.51,1.68,1.68,0,0,0-1.65.59,49.4,49.4,0,0,0-4.49,6.5c-.81,1.28-1.62,2.57-2.4,3.87-.24.39-.47.79-.69,1.19a2,2,0,0,0-.34.71,4,4,0,0,0,.24.88C90.06,130.81,91.05,130.69,91,130.43Z" transform="translate(0 -0.29)"/><path class="cls-2" d="M100.85,118.34c-.36-.74-3.08-1.23-2.54-2.22.39-.73.86-1.46,1.3-2.15a19.63,19.63,0,0,0,1.12-2.07,5.07,5.07,0,0,1,.57-1.05c.44-.5.6-.26,1.16-.4,1.14-.28,1.41-1.73,2.58-2.09,1-.32.89,1,.94,1.77.12,1.88.76,4-1.43,4.92C102.93,115.7,101.6,119,100.85,118.34Z" transform="translate(0 -0.29)"/><path class="cls-1" d="M101.32,118.22c-.29-.52-1.08-.76-1.58-1a3,3,0,0,1-.85-.55c-.27-.31-.11-.55.08-.86.65-1.15,1.41-2.23,2-3.42a6.45,6.45,0,0,1,.81-1.51c.07-.08.35-.24,0-.15a1.51,1.51,0,0,1,.3,0,3.32,3.32,0,0,0,.75-.15c.87-.32,1.24-1.13,1.89-1.72a2.76,2.76,0,0,1,.42-.31c.12,0,.18.28.21.39a5.27,5.27,0,0,1,.1,1.19c.08,1.63.74,3.88-1.12,4.76a5.64,5.64,0,0,0-2,1.72c-.29.36-.55.73-.85,1.09-.11.13-.23.27-.35.39-.37.35-.07,0,.17.15a.77.77,0,0,0-.63-.06c-.06,0-.47.17-.31.29.59.44,1.36,0,1.79-.44.67-.72,1.17-1.58,1.88-2.27s1.81-.87,2.3-1.84a5.27,5.27,0,0,0,.21-2.92c0-.5-.08-1-.1-1.5a1.88,1.88,0,0,0-.29-1.13c-.67-.74-2,.08-2.52.62a6.89,6.89,0,0,1-1.06,1.16c-.41.28-.93.12-1.37.38a2.91,2.91,0,0,0-1,1.4,18.36,18.36,0,0,1-1.16,2.14l-.67,1.07a6.15,6.15,0,0,0-.62,1.08.73.73,0,0,0,.34.85,6.18,6.18,0,0,0,1.2.68,2.36,2.36,0,0,1,1,.72C100.51,118.69,101.47,118.49,101.32,118.22Z" transform="translate(0 -0.29)"/><path class="cls-1" d="M102.75,110.81a25.84,25.84,0,0,0,.7,3.23c0,.07.15.14.2.16a1.18,1.18,0,0,0,.38.09c.12,0,.42,0,.38-.17a24.45,24.45,0,0,1-.67-3.12c0-.32-1-.42-1-.19Z" transform="translate(0 -0.29)"/><path class="cls-2" d="M64.36,155.11a6.56,6.56,0,0,0-3.24-.13,9.58,9.58,0,0,0-3.36.72c-1.21.66.89.58,1.45.53a26.75,26.75,0,0,1,3.23.11c.86,0,1.72.19,2.58.27a2.74,2.74,0,0,0,.14-.84C65.05,155.34,64.84,155.46,64.36,155.11Z" transform="translate(0 -0.29)"/><path class="cls-1" d="M64.7,155a6.5,6.5,0,0,0-3.42-.2,12.45,12.45,0,0,0-3.53.66c-.21.08-.84.3-.85.61s.39.33.56.37a12,12,0,0,0,2.4,0,50.31,50.31,0,0,1,5,.4c.16,0,.57,0,.62-.21s.24-.69.07-1-.54-.39-.81-.57a.85.85,0,0,0-.68-.05c-.12,0-.36.15-.17.28s.61.24.71.5a1.71,1.71,0,0,1-.12.89l.63-.21c-.63-.06-1.24-.15-1.87-.22s-1.18-.07-1.77-.11c-.95-.07-1.87,0-2.82,0a4.15,4.15,0,0,1-.71,0s-.1,0-.08,0,0,0,0,0,.11-.11.17-.15a6.64,6.64,0,0,1,2.82-.67,6.14,6.14,0,0,1,3.13.07.92.92,0,0,0,.71,0C64.9,155.15,64.88,155,64.7,155Z" transform="translate(0 -0.29)"/><path class="cls-2" d="M64.24,155c-.16.22.19,1.24.45,1.53a6.27,6.27,0,0,0,1.86.46c1.26.3,2.56.49,3.84.75a51.76,51.76,0,0,1,7.19,1.68,11.25,11.25,0,0,0,3.94.93c1,0,1.48-.2,1.14-1.13-.26-.74-.76-2.18-1.53-2.6s-2.28-.3-3.15-.5a24.39,24.39,0,0,0-5-.42C72.19,155.66,67.59,155.38,64.24,155Z" transform="translate(0 -0.29)"/><path class="cls-1" d="M63.76,155a1.75,1.75,0,0,0,.27,1.34,1.27,1.27,0,0,0,1,.63c1.52.35,3.08.59,4.62.88,1.86.36,3.74.68,5.58,1.15a44.05,44.05,0,0,0,5.12,1.5c.67.09,2.69.37,2.89-.65a3,3,0,0,0-.42-1.5,4.15,4.15,0,0,0-1-1.64c-.94-.8-2.49-.55-3.61-.76a32.38,32.38,0,0,0-5.2-.43c-2.85-.08-5.72-.35-8.54-.69-.16,0-.57-.05-.68.12s0,.24.2.26c2.46.3,4.94.5,7.42.64.86,0,1.71.07,2.57.09s1.58.06,2.37.15,1.4.28,2.12.34a10.94,10.94,0,0,1,1.89.21,2.13,2.13,0,0,1,1.2,1.19,9.47,9.47,0,0,1,.59,1.44,1,1,0,0,1,.09.68c-.12.29-.59.23-.84.22-1.67-.06-3.22-.86-4.81-1.32-1.44-.41-2.91-.69-4.38-1l-5.43-1.06a4.9,4.9,0,0,1-1.53-.31,1.69,1.69,0,0,1-.54-1.47C64.84,154.72,63.87,154.69,63.76,155Z" transform="translate(0 -0.29)"/><path class="cls-1" d="M74,157.72a7.42,7.42,0,0,1,.58-1.53c0-.06,0-.12-.07-.14a.64.64,0,0,0-.31-.06,1.29,1.29,0,0,0-.38.08.43.43,0,0,0-.21.15,7.56,7.56,0,0,0-.58,1.52c0,.19.26.21.38.2a1,1,0,0,0,.38-.07c.07,0,.19-.07.21-.15Z" transform="translate(0 -0.29)"/><path class="cls-2" d="M82,158c-.3-.79-.88-1.29,0-1.73,2.62-1.33,10.29-6.1,11.51-6.73,1-.51,2.06-1.36,3.28-1.27.62,0,2.45.54,2.68,1.06.5,1.16-1.72,2.63-2.5,3.08-2,1.21-8.85,5.6-10.4,6.45a13.9,13.9,0,0,1-3.24,1.37C82.75,160.27,82.87,160.31,82,158Z" transform="translate(0 -0.29)"/><path class="cls-1" d="M82.47,158c-.13-.32-.46-.74-.46-1.1s.4-.5.68-.65c.53-.28,1-.57,1.57-.87,1.33-.75,2.63-1.53,3.94-2.32,2.2-1.32,4.41-2.63,6.64-3.9a3.43,3.43,0,0,1,2.73-.58c.66.18,1.67.41,1.41,1.29-.36,1.24-2,2-3,2.65-2.55,1.55-5,3.18-7.59,4.75a34.56,34.56,0,0,1-3.35,1.92,12.39,12.39,0,0,1-1.45.62c-.21.07-.45.09-.65.18h-.1a.7.7,0,0,1,.45.12,3.36,3.36,0,0,0-.26-.55c-.2-.52-.39-1.05-.58-1.57-.1-.27-1.06-.34-1-.08.39,1,.56,2.69,2,2.5a11.8,11.8,0,0,0,4.16-1.82c2.85-1.71,5.63-3.54,8.46-5.29a11.75,11.75,0,0,0,3.47-2.56c.39-.53.65-1.25.07-1.73a5.45,5.45,0,0,0-2.31-.9c-1.78-.39-3.2.59-4.69,1.44-1.21.68-2.39,1.41-3.57,2.12-1.76,1.06-3.51,2.11-5.29,3.14-.66.38-1.32.75-2,1.11-.29.15-.69.31-.76.67s.31.94.46,1.32S82.57,158.25,82.47,158Z" transform="translate(0 -0.29)"/><path class="cls-2" d="M96,148.31c.17-5.31.33-9.33.84-15.87.08-1.08.22-1.46,1.5-1.35s1.7.13,1.86,1.15c.5,3.22-.06,7.24-.33,10.49-.14,1.7-.22,4.87-.28,6.56C99.54,150.35,99.27,149.51,96,148.31Z" transform="translate(0 -0.29)"/><path class="cls-1" d="M96.49,148.33c.09-2.84.19-5.68.35-8.52.08-1.51.17-3,.28-4.53.06-.85.12-1.71.19-2.57,0-.38,0-1.15.38-1.37a2.37,2.37,0,0,1,1.55.08c.57.27.52,1.29.57,1.8a30.51,30.51,0,0,1,0,4.78c-.21,2.89-.51,5.75-.61,8.65,0,.68,0,1.37-.07,2.06a5.47,5.47,0,0,1,0,.7c0,.25-.13.25.21.22s.15-.07-.07-.18l-.6-.3c-.73-.36-1.49-.68-2.26-1a.9.9,0,0,0-.7,0c-.13.08-.24.2,0,.28.77.29,1.53.61,2.26,1a5.85,5.85,0,0,0,1.11.51,1.08,1.08,0,0,0,.93-.06c.18-.18.15-.5.16-.73.12-3.23.28-6.42.57-9.63a38.75,38.75,0,0,0,.19-5.7,4.85,4.85,0,0,0-.38-2.2,1.67,1.67,0,0,0-1.2-.6c-.8-.13-2.42-.43-2.8.57a8.56,8.56,0,0,0-.26,2.42c-.07,1-.14,1.92-.2,2.88-.25,3.8-.39,7.61-.52,11.42C95.48,148.57,96.48,148.61,96.49,148.33Z" transform="translate(0 -0.29)"/><path class="cls-2" d="M97.19,131.46c-.77-.43,1.06-3.22,1.55-4.23s2.74-5,3.19-5.87a5.35,5.35,0,0,1,2.65-2.28c.9-.43,2-1.09,1.94.27,0,1-.29,2-.31,2.93a3.57,3.57,0,0,1-.51,2.34c-.4.52-.85.83-1.23,1.37-.64.93-1.36,1.32-1.82,2.34a26.69,26.69,0,0,1-2,3.84C99.92,133.08,99.17,132.55,97.19,131.46Z" transform="translate(0 -0.29)"/><path class="cls-1" d="M97.66,131.33c-.57-.39.33-1.84.54-2.25.38-.72.79-1.42,1.16-2.14.87-1.7,1.84-3.36,2.75-5a5.64,5.64,0,0,1,2.16-2.38c.29-.17.6-.31.91-.46s.53-.33.72-.3c-.12,0,0,0,0,.07a.8.8,0,0,1,.12.43,6.44,6.44,0,0,1-.11,1.31,17.86,17.86,0,0,0-.21,2.18,3,3,0,0,1-.73,2.17c-.48.53-.93,1.09-1.41,1.63a8.64,8.64,0,0,0-1.25,1.52c-.64,1.15-1.1,2.38-1.78,3.51a4.14,4.14,0,0,1-.48.7c-.21.21-.13.17-.42.07a11.91,11.91,0,0,1-2-1.05c-.23-.13-1.15.15-.82.34,1,.55,2.23,1.5,3.45,1.13,1-.31,1.56-1.7,2-2.58.3-.6.59-1.21.88-1.82a10.41,10.41,0,0,1,1.6-2.07,17.73,17.73,0,0,0,1.63-2,4.65,4.65,0,0,0,.36-2.25c0-.94.3-1.87.31-2.82,0-.53-.18-.89-.74-.94a3.15,3.15,0,0,0-1.58.43,11.15,11.15,0,0,0-1.88,1,7.67,7.67,0,0,0-2,2.74c-.6,1.1-1.21,2.18-1.8,3.28s-1,1.9-1.53,2.85c-.28.5-1.51,2.39-.76,2.91a.77.77,0,0,0,.63,0C97.41,131.61,97.82,131.44,97.66,131.33Z" transform="translate(0 -0.29)"/><path class="cls-1" d="M102,121.47a11.14,11.14,0,0,1,1.82,4.1c.08.28,1,.45,1,.18a11.83,11.83,0,0,0-1.89-4.22.91.91,0,0,0-.64-.27c-.12,0-.38,0-.25.21Z" transform="translate(0 -0.29)"/><path class="cls-2" d="M81.9,96.85C81.11,96.51,76.17,95,76,96c.73.74,2.15,1,3.12,1.28.81.26,1.63.55,2.42.86A2,2,0,0,0,81.9,96.85Z" transform="translate(0 -0.29)"/><path class="cls-1" d="M82.09,96.72a13.41,13.41,0,0,0-1.82-.61c-.82-.23-1.65-.43-2.49-.58a4,4,0,0,0-2,0c-.27.1-.41.3-.17.53a4.34,4.34,0,0,0,1.53.85c.6.22,1.24.35,1.86.55.81.26,1.62.54,2.41.86.09,0,.41.13.5,0A2.18,2.18,0,0,0,82.37,97c0-.32-.93-.56-.94-.34a2.18,2.18,0,0,1-.34,1.2l.51,0a30.26,30.26,0,0,0-3-1,4.91,4.91,0,0,1-2.19-.92l.09.18c.06-.25.48-.22.76-.2a9.74,9.74,0,0,1,1.65.26c.62.14,1.23.3,1.84.48l.62.2.28.09.09,0c.14.06.5.22.63.08S82.19,96.76,82.09,96.72Z" transform="translate(0 -0.29)"/><path class="cls-2" d="M88.7,107.9c.33-.06.81-1.93.7-2.35-.19-.75-1-1.09-1.44-1.72a10,10,0,0,1-.75-1.09c-.2-.34-.32-.95-.63-1.22s-.57-.23-.92-.69-.53-.74-.83-1.1c-.63-.75-1.38-1.4-2-2.14-.39-.45-1.11-1.31-1.5-.33-.28.72.46,1.91.81,2.54.69,1.26,1.61,2.41,2.41,3.6s1.6,2.19,2.4,3.25C87.19,107,88.11,108.9,88.7,107.9Z" transform="translate(0 -0.29)"/><path class="cls-1" d="M89.08,108.11c.56-.19.72-1.41.79-1.89.14-1-.56-1.42-1.18-2a5.92,5.92,0,0,1-1.06-1.47,3.15,3.15,0,0,0-.79-1.33c-.15-.11-.34-.17-.49-.28a3.86,3.86,0,0,1-.71-.89A15.63,15.63,0,0,0,84.2,98.6c-.43-.43-.83-.89-1.26-1.33a2.24,2.24,0,0,0-1-.64c-1.1-.27-1.31.81-1,1.65a14.27,14.27,0,0,0,1.81,3.17c.83,1.2,1.66,2.4,2.54,3.58.42.56.89,1.11,1.28,1.69a8.29,8.29,0,0,0,.71,1c.47.54,1.43,1,1.93.27.11-.18-.79-.54-1-.27.06-.08-.15.19-.15.18l.28.07a.47.47,0,0,1-.1-.1c-.07-.11-.19-.21-.27-.32s-.33-.49-.49-.74c-.54-.85-1.22-1.63-1.82-2.44A38.27,38.27,0,0,1,82.11,99a3,3,0,0,1-.39-1.24,1.37,1.37,0,0,1,.13-.5c0-.1.24-.17,0-.19.07,0,.23.22.28.27.7.74,1.45,1.46,2.12,2.23.36.42.65.9,1,1.32s.61.39.88.65.38.77.58,1.14a7.71,7.71,0,0,0,.88,1.26c.5.61,1.41,1,1.31,1.92a7,7,0,0,1-.25,1.1c-.06.16-.17.67-.36.73s0,.25.1.32A.92.92,0,0,0,89.08,108.11Z" transform="translate(0 -0.29)"/><path class="cls-1" d="M85.32,101.59l0,.06,0-.05c-.35.36-.79.62-1.16,1,0,0-.08.09,0,.15a.34.34,0,0,0,.23.11,1.28,1.28,0,0,0,.39,0,.61.61,0,0,0,.29-.11,16,16,0,0,0,1.26-1.06s0-.13-.06-.15a.54.54,0,0,0-.3-.08.78.78,0,0,0-.61.16Z" transform="translate(0 -0.29)"/><path class="cls-2" d="M97.45,102.26c-1.79.3-3.3,1-5,1.45-1.16.29-3.68.86-3.87,1.48a7,7,0,0,0-.16,2.87c0,.43,9.44-3.12,10.41-3.51C100.23,104,99.6,103.85,97.45,102.26Z" transform="translate(0 -0.29)"/><path class="cls-1" d="M97.42,102.06c-1.74.31-3.36,1-5.06,1.45a20.13,20.13,0,0,0-3.42,1,1.67,1.67,0,0,0-.87.67,4,4,0,0,0-.22,1.46,10,10,0,0,0,0,1.09c0,.19,0,.38.13.49s.49.06.66,0a25.23,25.23,0,0,0,4.4-1.38c1.74-.61,3.46-1.24,5.18-1.9a4.33,4.33,0,0,0,1.7-.81c.21-.26.06-.48-.16-.69a20.84,20.84,0,0,0-1.87-1.37.73.73,0,0,0-.63,0c-.06,0-.47.18-.31.3.51.37,1,.73,1.54,1.11.14.1.62.38.55.61s-.9.45-1.14.54c-1.39.53-2.79,1-4.18,1.55s-2.94,1.08-4.44,1.51l-.37.1-.2,0-.12,0c-.1,0,0,0,0,0s.09,0,.12,0a.15.15,0,0,1,.13.09l0-.38a8.78,8.78,0,0,1,0-1.7c0-.33.07-.75.37-1a5.37,5.37,0,0,1,1.56-.6c.56-.16,1.12-.3,1.68-.44,1.68-.43,3.28-1.14,5-1.45.12,0,.49-.09.46-.27S97.52,102,97.42,102.06Z" transform="translate(0 -0.29)"/><path class="cls-2" d="M107.33,95.49a4.83,4.83,0,0,0-1.77-.84c-1.15-.23-1.63-.11-2.12.8a4.73,4.73,0,0,1-1.54,1.64,26.81,26.81,0,0,0-1.88,2.1c-.77.78-2.29,2.26-2.63,3.33-.11.35,1,1.83,1.42,1.82,1.11,0,2.58-2.08,3.16-2.76.81-1,1.76-1.78,2.59-2.73.49-.56.46-.89,1.29-1,.26,0,.82.12,1.05,0C107.43,97.64,107.66,96.59,107.33,95.49Z" transform="translate(0 -0.29)"/><path class="cls-1" d="M107.62,95.39a5.52,5.52,0,0,0-3.25-1.07c-1.11.06-1.26,1-1.92,1.72-.37.41-.85.71-1.25,1.09s-.93,1.1-1.41,1.64a30.19,30.19,0,0,0-2.27,2.52,2.77,2.77,0,0,0-.62,1.14,1.63,1.63,0,0,0,.43.94,2.12,2.12,0,0,0,2,1.17,4.34,4.34,0,0,0,2.22-1.68c.75-.86,1.45-1.73,2.26-2.54a16.11,16.11,0,0,0,1.53-1.67c.39-.52.73-.52,1.35-.48,1.44.09,1.44-1.57,1.16-2.61-.07-.28-1-.42-1-.15a3,3,0,0,1,.06,1.66,1,1,0,0,1-.31.54c-.21.16-.49.07-.74,0a1.83,1.83,0,0,0-1,.19,3.15,3.15,0,0,0-.72.82c-.81,1-1.78,1.76-2.59,2.73-.5.59-1,1.21-1.52,1.76a4.38,4.38,0,0,1-.92.75l-.49.19c.19-.4.43.3.22,0-.06-.09-.18-.17-.25-.26A3.31,3.31,0,0,1,98,103c-.15-.34,0-.62.21-.92a13.29,13.29,0,0,1,1.91-2.26c.75-.77,1.36-1.68,2.16-2.39.37-.34.79-.62,1.13-1s.52-.87.86-1.26c.77-.87,2.07,0,2.82.45C107.31,95.75,108.17,95.73,107.62,95.39Z" transform="translate(0 -0.29)"/><path class="cls-1" d="M105.52,97.46a8.27,8.27,0,0,0-1.44-1.57.62.62,0,0,0-.29-.12,1.27,1.27,0,0,0-.39,0c-.12,0-.37.11-.2.26a8.27,8.27,0,0,1,.74.71l0,0,0,0,0,0,0,0,.16.18c.11.14.21.28.31.43a.38.38,0,0,0,.22.13,1,1,0,0,0,.38,0,.64.64,0,0,0,.31-.06c.05,0,.11-.09.06-.15Z" transform="translate(0 -0.29)"/><path class="cls-2" d="M86.64,72.09c.58-.74.86-2.22,1.51-2.92s1.81-.57,2.58-.82c1.11-.37,1.42-1.34,1.85-2.24.31-.66.47-1,1.23-1,.51,0,1.08.11,1.45-.32.21-.25.16-.72.28-1a26.34,26.34,0,0,1,2.13-2.36,13.47,13.47,0,0,1-.84,3.26A14.13,14.13,0,0,1,95,68.06a21.51,21.51,0,0,1-2.91,3.68A38,38,0,0,1,87,75.23a10.9,10.9,0,0,1-3.17.87C82.81,75.85,85.57,72.85,86.64,72.09Z" transform="translate(0 -0.29)"/><path class="cls-1" d="M87.12,72.1a11.87,11.87,0,0,0,1-2.13,2.14,2.14,0,0,1,.74-1,3.32,3.32,0,0,1,1.07-.28,3.94,3.94,0,0,0,2-.75A5.25,5.25,0,0,0,93,66.19c.12-.27.27-.72.56-.85s.87,0,1.23-.08A1.24,1.24,0,0,0,96,64.08a3,3,0,0,1,.94-1.32c.4-.43.82-.85,1.22-1.29h-.94A14.67,14.67,0,0,1,95,67.35a19.56,19.56,0,0,1-4,4.86,26.76,26.76,0,0,1-4.33,2.89,9.12,9.12,0,0,1-1.71.6c-.19.06-.68.27-.88.2,0,0,0,0,0-.06s0-.19,0-.3a5.68,5.68,0,0,1,1.31-1.84,10.85,10.85,0,0,1,1.63-1.55c.19-.14-.1-.24-.2-.25a.87.87,0,0,0-.67.14,10.24,10.24,0,0,0-1.69,1.6,6.41,6.41,0,0,0-1.33,1.85c-.56,1.44,2.09.57,2.63.4a16.33,16.33,0,0,0,4.51-2.45,22.41,22.41,0,0,0,2.33-1.78,17,17,0,0,0,2.28-2.86A20.16,20.16,0,0,0,97.2,65a16.05,16.05,0,0,0,1-3.61c0-.28-.84-.13-.94,0-.4.44-.82.85-1.22,1.28a5.18,5.18,0,0,0-1,1.13c-.19.42,0,1-.61,1.13-.36.06-.74,0-1.11.07a1.66,1.66,0,0,0-1.2,1,4.87,4.87,0,0,1-1.21,2c-.66.48-1.64.4-2.4.67C87,69.17,87,71,86.15,72.09,86,72.27,86.94,72.34,87.12,72.1Z" transform="translate(0 -0.29)"/><path class="cls-2" d="M82.38,79.08A4.28,4.28,0,0,1,82,77c1.36.58,3.38-1.28,4.24-2.08,1.43-1.34,1.12-2.38,1.11-4.13,0-1.48.06-3.37,1.27-4.52.57-.54,1.63-.75,1.78-1.6.08-.43-.31-1-.16-1.4s.75-.49,1.37-.72.94-.33,1.15-.95.17-.61.87-1.06c1.3-.81,1.67-2.52,3.39-2.9a5.9,5.9,0,0,0-2.1-.1,18.16,18.16,0,0,0-3.42.75,19.19,19.19,0,0,0-6.19,2.88c-2.87,2.19-5.67,4.9-6,8.54a25.5,25.5,0,0,0,.3,6.06C79.83,77,79.26,79.83,82.38,79.08Z" transform="translate(0 -0.29)"/><path class="cls-1" d="M82.86,79.14a4,4,0,0,1-.35-2l-.66,0c1.75.64,3.38-.72,4.6-1.83a3.87,3.87,0,0,0,1.38-2.14,17.3,17.3,0,0,0,0-2.88,6.7,6.7,0,0,1,.63-3.06,3.06,3.06,0,0,1,1.08-1.15,4.13,4.13,0,0,0,1.08-.76,1.16,1.16,0,0,0,.23-1c-.16-.74-.24-1.18.58-1.4s1.52-.41,1.85-1.27a1.25,1.25,0,0,1,.6-.8,4.9,4.9,0,0,0,1.14-1c.71-.84,1.26-1.73,2.4-2,.29-.07-.17-.33-.23-.36A6.58,6.58,0,0,0,94,57.44a25,25,0,0,0-4.18,1.1,19.75,19.75,0,0,0-7.44,4.65,10.58,10.58,0,0,0-3.58,6.88,24.9,24.9,0,0,0,.1,3.86c.08.9.27,1.79.32,2.69a3.3,3.3,0,0,0,.62,2.13,3,3,0,0,0,2.88.55c.51-.12-.37-.5-.63-.44a1.77,1.77,0,0,1-1.22,0,1.38,1.38,0,0,1-.5-.8,8.17,8.17,0,0,1-.21-1.78c-.08-.91-.27-1.81-.34-2.72a23.94,23.94,0,0,1-.05-3.28,10,10,0,0,1,3-6.23,19.19,19.19,0,0,1,6.15-4.46,27.92,27.92,0,0,1,4.28-1.43,13.65,13.65,0,0,1,2.12-.39,4,4,0,0,1,1.61,0l-.23-.36a3.72,3.72,0,0,0-2,1.44,8.3,8.3,0,0,1-1.82,1.73c-.55.39-.44,1.18-1,1.52s-1.86.27-2,1.11c-.1.48.27.92.16,1.39a1.67,1.67,0,0,1-.88.91,3.77,3.77,0,0,0-1.76,2,8.22,8.22,0,0,0-.4,3,11.27,11.27,0,0,1-.06,2.66,4.76,4.76,0,0,1-1.76,2.26,9.52,9.52,0,0,1-1.26.93c-.41.25-1.11.67-1.6.49-.07,0-.66-.17-.67,0a4.43,4.43,0,0,0,.36,2.1C82,79.28,83,79.34,82.86,79.14Z" transform="translate(0 -0.29)"/><path class="cls-2" d="M79.55,77.35c.33-.22,2,.13,2.42.15a3.39,3.39,0,0,1,1.4.3c.81.58.73,2,1.13,2.83a11,11,0,0,0,1.14,1.88,18.71,18.71,0,0,1,1.63,1.95A11,11,0,0,1,89,88.63c.3,2.52,1.13,5,.29,7.49C88,100,82.71,93.28,82,92a31.8,31.8,0,0,1-2-3.61c-.42-1-.72-2.11-1.06-3.16C78.27,83.23,78.52,77.37,79.55,77.35Z" transform="translate(0 -0.29)"/><path class="cls-1" d="M80,77.49a2.13,2.13,0,0,1,.9.06l.94.14a2.88,2.88,0,0,1,1.14.19,1.71,1.71,0,0,1,.61,1,10.37,10.37,0,0,0,.77,2.3,15.31,15.31,0,0,0,2,2.6A11.41,11.41,0,0,1,88,86.69a14.73,14.73,0,0,1,.76,3.42,20.77,20.77,0,0,1,.42,3.51,5.67,5.67,0,0,1-.58,2.93c-.57.93-1.37.41-2.06-.1a15.45,15.45,0,0,1-2.68-2.62,18.78,18.78,0,0,1-1.69-2.39,26.63,26.63,0,0,1-1.57-2.87,31.61,31.61,0,0,1-1.08-3.15,13.06,13.06,0,0,1-.38-4.54,14.28,14.28,0,0,1,.24-2.16,4.55,4.55,0,0,1,.23-.8c0-.09.1-.17.15-.26s.17-.12.07-.11c.18,0,.3-.09.21-.26s-.53-.15-.68-.14c-1,.1-1.08,2-1.15,2.71a16.36,16.36,0,0,0,.13,4.79,20.6,20.6,0,0,0,2.64,6.42,21.34,21.34,0,0,0,2.14,3,13.31,13.31,0,0,0,3,2.78c.83.51,2.1,1,3,.33a3.12,3.12,0,0,0,.93-2,12.22,12.22,0,0,0-.14-4.09,26.06,26.06,0,0,0-.68-3.75,11.31,11.31,0,0,0-1.8-3.46A16.14,16.14,0,0,1,85,80.57c-.37-.85-.28-1.94-.94-2.64s-1.68-.56-2.5-.69a4.42,4.42,0,0,0-2.39,0c-.21.11.05.25.15.29A.85.85,0,0,0,80,77.49Z" transform="translate(0 -0.29)"/><path class="cls-2" d="M89.92,92.15c-.86.35-1.72,5.12-1.48,5.46.42.6,1.16.21,1.76,0,1.5-.48,6.9-3.21,8.16-3.89a37.12,37.12,0,0,0,3.51-2.16c.84-.59,1.65-1.23,2.54-1.78s1.27-.91,1-1.81-.7-2.21-1.72-2.23a7.92,7.92,0,0,0-2.41.51C98.21,87.35,95.32,89.49,89.92,92.15Z" transform="translate(0 -0.29)"/><path class="cls-1" d="M89.56,92c-.86.42-1.09,2-1.28,2.82A17,17,0,0,0,88,96.72a1.77,1.77,0,0,0,0,1c.35.68,1.49.44,2,.26s1.07-.38,1.59-.6c1.39-.6,2.76-1.27,4.11-1.95,1.15-.57,2.31-1.14,3.43-1.76,2-1.14,3.85-2.56,5.8-3.81.67-.43,1.2-.94,1-1.79a5,5,0,0,0-.86-1.88c-1-1.22-3.2-.38-4.43.09A34.33,34.33,0,0,0,96,88.54c-2.13,1.21-4.27,2.4-6.47,3.49-.46.23.49.35.72.24,3-1.51,5.92-3.3,8.94-4.84A13.06,13.06,0,0,1,103.13,86c.87-.12,1.25.66,1.52,1.37s.54,1.33,0,1.88a5.25,5.25,0,0,1-1,.67c-.43.28-.85.58-1.27.89-.82.59-1.65,1.18-2.52,1.71-1.12.7-2.29,1.32-3.47,1.92a53.43,53.43,0,0,1-6.5,3c-.28.1-.85.42-1,0a1.09,1.09,0,0,1,0-.44,12.94,12.94,0,0,1,.23-1.64,15.23,15.23,0,0,1,.53-2c.11-.31.28-1,.61-1.15S89.79,91.92,89.56,92Z" transform="translate(0 -0.29)"/><path class="cls-2" d="M111.27,90.58c-1.23-.06-1.37-2.15-1.61-3a3.33,3.33,0,0,0-3.07-2.43c-1.41-.09-2.67.08-2.66,1.57s.32,3.19,1.67,4.1C107.33,92,109,92.31,111.27,90.58Z" transform="translate(0 -0.29)"/><path class="cls-1" d="M111.39,90.38c-.54,0-.81-1-.92-1.41a13.59,13.59,0,0,0-.47-1.8c-.71-1.67-2.4-2.23-4.09-2.19a3.1,3.1,0,0,0-2,.59,2.29,2.29,0,0,0-.44,2,5.58,5.58,0,0,0,.68,2.39,4.4,4.4,0,0,0,1.93,1.61,4.85,4.85,0,0,0,2.7.45,6.18,6.18,0,0,0,2.94-1.31c.18-.14-.08-.24-.19-.26a.94.94,0,0,0-.68.11,4.79,4.79,0,0,1-2.32,1.09,3.43,3.43,0,0,1-1.87-.47A3.85,3.85,0,0,1,105,89.56a5.53,5.53,0,0,1-.54-2.11c0-.61-.14-1.41.42-1.82a2.43,2.43,0,0,1,1.59-.23,3.17,3.17,0,0,1,2.77,2.6c.26,1.16.46,2.67,1.91,2.79.15,0,.55,0,.61-.18S111.5,90.39,111.39,90.38Z" transform="translate(0 -0.29)"/><path class="cls-2" d="M157.74,102c1.18-1,5.53-3.66,4.34-4a23.4,23.4,0,0,0-6,3.63C156.52,102.07,156.64,101.93,157.74,102Z" transform="translate(0 -0.29)"/><path class="cls-1" d="M158.21,102.08c1.31-1.07,2.82-1.89,4-3.06.28-.27.83-.81.26-1.1a2,2,0,0,0-1.67.25,16,16,0,0,0-1.69.88,32.23,32.23,0,0,0-3.55,2.48c-.06,0,0,.12,0,.16.61.58,1.44.46,2.21.49.12,0,.43,0,.37-.21s-.46-.2-.59-.2l-.92,0s0,0,0,0l-.22-.18,0,.15a33.19,33.19,0,0,1,2.84-2,13.4,13.4,0,0,1,3-1.53l-.6,0c.1,0,0,0,0,0s0,0,0,0a.43.43,0,0,1,0,.12,1.35,1.35,0,0,1-.27.37,9.78,9.78,0,0,1-1.3,1.11c-1,.73-2,1.38-2.94,2.14-.15.13.27.27.33.28A.75.75,0,0,0,158.21,102.08Z" transform="translate(0 -0.29)"/><path class="cls-2" d="M156.09,101.5c1,.08,1.63.31,1.61.5-.06.74-.08,2.25-.18,3-.25,1.85-.81,8.72-1.15,10.24a.87.87,0,0,1-1.07.63c-.44-.13-.64-.81-.76-1.16-.3-.88-.27-1.32-.55-2.2a4.57,4.57,0,0,1,.37-3.54C154.73,108.49,155.84,102.12,156.09,101.5Z" transform="translate(0 -0.29)"/><path class="cls-1" d="M156,101.69c.28,0,.92,0,1.15.22s.08.27.07.48c0,.67-.06,1.35-.11,2s-.17,1.57-.25,2.36c-.22,2.18-.41,4.37-.67,6.55,0,.27-.17,2.47-.7,2.25-.15-.07-.29-.54-.34-.68a7.56,7.56,0,0,1-.3-1c-.14-.63-.34-1.26-.44-1.9a5.17,5.17,0,0,1,0-1.84,5.42,5.42,0,0,1,.53-1.26,10.22,10.22,0,0,0,.5-1.9c.23-1.07.45-2.15.67-3.23a13.58,13.58,0,0,1,.48-2.17c.12-.29-.86-.39-1-.13a11.73,11.73,0,0,0-.47,2c-.23,1.1-.45,2.19-.68,3.29a8.52,8.52,0,0,1-.57,2.12,5,5,0,0,0-.31,3.92c.27,1,.31,3,1.58,3.24a1.51,1.51,0,0,0,1.58-.48,2.81,2.81,0,0,0,.26-1.08c.35-2.39.53-4.8.77-7.21.11-1.13.28-2.27.34-3.41,0-.43,0-.86.06-1.29,0-.2.09-.51,0-.69-.29-.49-1.45-.52-1.92-.56-.13,0-.55-.06-.62.12S155.83,101.68,156,101.69Z" transform="translate(0 -0.29)"/><path class="cls-1" d="M156.7,108.3a3.5,3.5,0,0,0-1.25.06,6.85,6.85,0,0,0-1,.28.11.11,0,0,0-.07.15.39.39,0,0,0,.21.15,1,1,0,0,0,.69,0l.08,0c.06,0,0,0,0,0s0,0,0,0l.2-.06.47-.12.12,0h.05s.1,0,0,0,0,0,0,0h.34c-.14,0-.08,0,0,0h.08a1.09,1.09,0,0,0,.36,0c.05,0,.15,0,.16-.12s-.36-.26-.46-.27Z" transform="translate(0 -0.29)"/><path class="cls-2" d="M155.62,116c-.72-1.21-1.07-2-1.55-2-1.39.26-7.56,1-8.56,1.16s-2.21.29-3.34.46-1.61,1.87-1.55,2.88C144.58,118.89,155.71,116.58,155.62,116Z" transform="translate(0 -0.29)"/><path class="cls-1" d="M156.1,116.07c-.6-1-1.08-2.43-2.5-2.23-1.08.16-2.15.31-3.24.45-2.55.32-5.1.72-7.65,1-.83.1-1.52.16-2,.89a3.7,3.7,0,0,0-.56,2.2c0,.28.48.34.68.36a29.91,29.91,0,0,0,7-.56,57.64,57.64,0,0,0,6.91-1.44c.22-.07,1.38-.3,1.37-.64s-1-.48-1-.25-.92.4-1.1.45c-.94.28-1.89.49-2.85.7a67.88,67.88,0,0,1-7.36,1.17,19.3,19.3,0,0,1-3.4.11l.69.35a3.58,3.58,0,0,1,.61-2.27c.63-.79,2-.65,2.9-.78,1.19-.15,2.36-.36,3.55-.52l4.26-.54c.54-.07,1.07-.14,1.6-.23a1.26,1.26,0,0,0,.28,0c.15,0,.08,0-.2,0a1.56,1.56,0,0,1,.16.2c.33.46.58,1,.87,1.47C155.29,116.19,156.21,116.26,156.1,116.07Z" transform="translate(0 -0.29)"/><path class="cls-2" d="M141.88,115.83c-.93-2.37-7.3-10.16-8.15-10-.49.07-1.58.94-1.62,1.34s6.52,9.24,7.18,10.15a2.72,2.72,0,0,0,.87,1C141,118.75,141,118.15,141.88,115.83Z" transform="translate(0 -0.29)"/><path class="cls-1" d="M142.36,115.94a14.29,14.29,0,0,0-1.68-2.78c-.86-1.22-1.78-2.41-2.74-3.56a34.79,34.79,0,0,0-2.63-2.93c-.47-.47-1.14-1.17-1.86-1.13a2.75,2.75,0,0,0-1.63,1.09.54.54,0,0,0,0,.74,21.33,21.33,0,0,0,1.54,2.33c1.51,2.15,3.09,4.25,4.66,6.36.6.8,1.2,2,2.11,2.43.4.19.93.34,1.25,0a2.54,2.54,0,0,0,.39-.79c.22-.55.42-1.11.64-1.67.1-.25-.84-.6-1-.33-.28.71-.49,1.47-.84,2.16a1.61,1.61,0,0,1-.27.36c.12-.14.19.21-.05-.11s-.29-.38-.43-.59c-.35-.52-.74-1-1.12-1.51-1.37-1.85-2.75-3.7-4.09-5.58-.56-.78-1.12-1.56-1.63-2.37a2.42,2.42,0,0,1-.37-.64c-.07-.39.48-.76.76-1a3,3,0,0,1,.37-.25c.24-.12.33-.08,0-.17s0,0,.08.09a9,9,0,0,1,.86.78c.82.83,1.59,1.73,2.33,2.63q1.4,1.68,2.67,3.46a13.85,13.85,0,0,1,1.68,2.76C141.53,116,142.45,116.16,142.36,115.94Z" transform="translate(0 -0.29)"/><path class="cls-2" d="M134.07,105.88a12.84,12.84,0,0,0-2.24-3.12c-.81-1-3.15-1.38-4.42-1.06s-.82,1.63-.5,2.64c.17.51,1.94.69,2.79,1.16a24.4,24.4,0,0,1,2.12,1.75C132.23,107.51,132.62,106.8,134.07,105.88Z" transform="translate(0 -0.29)"/><path class="cls-1" d="M134.55,105.84a7.51,7.51,0,0,0-1.45-2.2,5.32,5.32,0,0,0-1.75-1.62,6.84,6.84,0,0,0-2.43-.6,3.88,3.88,0,0,0-2.29.32,1.61,1.61,0,0,0-.44,1.8,2.71,2.71,0,0,0,.29.94,1.48,1.48,0,0,0,.72.43,13.05,13.05,0,0,1,2.13.73,10,10,0,0,1,1.56,1.27c.46.41.84.74,1.52.54a2.29,2.29,0,0,0,.75-.48,14.37,14.37,0,0,1,1.34-1c.19-.12-.07-.25-.18-.28a.94.94,0,0,0-.68.07c-.6.38-1.12.88-1.72,1.27l-.09.06,0,0a.42.42,0,0,1,.25,0c.15,0,.24.09.15,0a5.87,5.87,0,0,0-.46-.41,16.29,16.29,0,0,0-1.36-1.13,5.48,5.48,0,0,0-1.66-.68c-.44-.12-1.19-.2-1.35-.7a3.06,3.06,0,0,1-.2-1.79c.2-.61.89-.61,1.43-.59a5.33,5.33,0,0,1,1.93.44,5,5,0,0,1,1.69,1.58,7.33,7.33,0,0,1,1.38,2.11C133.67,106.18,134.66,106.14,134.55,105.84Z" transform="translate(0 -0.29)"/><path class="cls-1" d="M128.68,101.92a12.11,12.11,0,0,0-.4,2.32c0,.19.36.24.48.25a1.34,1.34,0,0,0,.35,0c.06,0,.16-.06.16-.13a13.23,13.23,0,0,1,.41-2.33c0-.07-.1-.13-.14-.15a.82.82,0,0,0-.34-.09c-.14,0-.48,0-.52.16Z" transform="translate(0 -0.29)"/><path class="cls-2" d="M167.48,113.89a10.67,10.67,0,0,1,2.6-.92,8.6,8.6,0,0,1,2.75-.53c.37,1-4.91,2.67-5.77,3C166.88,115.06,166.89,114.64,167.48,113.89Z" transform="translate(0 -0.29)"/><path class="cls-1" d="M167.89,114.05a8.12,8.12,0,0,1,2.3-.83,10.37,10.37,0,0,1,2.74-.57l-.59-.22c.07.21-.21.45-.38.58a6.15,6.15,0,0,1-1.19.69c-1,.46-2,.83-3,1.19-.37.13-.74.25-1.1.39l.89.17A1.41,1.41,0,0,1,168,114c.17-.22-.76-.46-.94-.23a1.58,1.58,0,0,0-.44,1.64c.13.27.68.26.9.17l.07,0h0l.24-.08.58-.21c.52-.18,1-.36,1.56-.56a11.35,11.35,0,0,0,2.92-1.44c.25-.19.56-.47.44-.82-.05-.17-.45-.22-.59-.22a11.12,11.12,0,0,0-3.12.6,8.7,8.7,0,0,0-2.53.91C166.75,114,167.67,114.2,167.89,114.05Z" transform="translate(0 -0.29)"/><path class="cls-2" d="M167.81,115.35c-.1-.64-.22-1.26-.53-1.36-.06-.22-.89.85-1.17,1.32a15.54,15.54,0,0,1-1.18,1.65c-.88,1.14-1.68,2.35-2.53,3.51a25.06,25.06,0,0,0-3.06,6.23,4.94,4.94,0,0,0-.47,1.55,6.15,6.15,0,0,0,.56,1.55c.9.21,2.75-2.1,3.13-2.79a23.26,23.26,0,0,0,1.11-2.63C164.56,122.13,165.57,120,167.81,115.35Z" transform="translate(0 -0.29)"/><path class="cls-1" d="M168.3,115.37c-.09-.52-.19-1.18-.59-1.43a.92.92,0,0,0-1.05,0,4.09,4.09,0,0,0-.89,1.09c-.47.7-.94,1.36-1.45,2a52.07,52.07,0,0,0-3.11,4.4,26,26,0,0,0-2.06,4.4,8.65,8.65,0,0,0-.77,2.19,3.09,3.09,0,0,0,.56,1.76c.56.69,1.7,0,2.19-.4a8.59,8.59,0,0,0,1.89-2.23,30.13,30.13,0,0,0,1.54-3.66c1.14-2.74,2.46-5.39,3.75-8,.09-.2-.85-.46-1-.17-1.28,2.65-2.59,5.29-3.72,8a22.06,22.06,0,0,1-1.72,3.95,9.48,9.48,0,0,1-1.11,1.35,6.76,6.76,0,0,1-.68.63,3,3,0,0,1-.63.41l.45.22a3.13,3.13,0,0,1-.49-1.91,18.29,18.29,0,0,1,.75-2,24.7,24.7,0,0,1,2.21-4.57c.93-1.45,2-2.86,3-4.22.46-.6.88-1.21,1.3-1.84a7.9,7.9,0,0,1,.5-.68,2.27,2.27,0,0,0,.26-.28c.09-.17.31-.1-.09-.11l-.59-.24c.11.16.25.24.33.42a3.94,3.94,0,0,1,.22,1C167.37,115.58,168.35,115.69,168.3,115.37Z" transform="translate(0 -0.29)"/><path class="cls-1" d="M164.54,121.83a3.06,3.06,0,0,0-2.31-.61c-.07,0-.19,0-.25.07s0,.11,0,.16a.81.81,0,0,0,.27.16,1.21,1.21,0,0,0,.38.06h.51l.2,0h0l.1,0c-.16,0-.08,0,0,0s.13.07,0,0l.09,0,0,0h0l.08.06,0,0h0a.93.93,0,0,0,.65.22.37.37,0,0,0,.25-.07c.05,0,0-.11,0-.16Z" transform="translate(0 -0.29)"/><path class="cls-2" d="M159.69,129.81c-.57-.86-.19-2.77-.74-3-.79-.4-4.48.21-5.64.48-2,.47-2.8.51-4.84.83-.91.14-1.84.28-2.76.39-.52.07-1.32,0-1.72.35s-.58,1.57-.66,2.15c-.05.42-.05.56.4.75a4.16,4.16,0,0,0,1.45.12C146.44,131.88,159.73,130.13,159.69,129.81Z" transform="translate(0 -0.29)"/><path class="cls-1" d="M160.16,129.7a7.53,7.53,0,0,1-.43-2.46c-.12-.54-.43-.71-1-.78a15.68,15.68,0,0,0-4.52.4c-1.75.31-3.48.67-5.25.94-1.21.18-2.43.42-3.65.5-.71,0-1.58.07-2,.73a4.32,4.32,0,0,0-.52,2.27c.06.76,1.26.75,1.81.75.76,0,1.52-.06,2.28-.14,2.6-.27,5.18-.62,7.76-1,1.28-.18,2.56-.37,3.82-.6.3,0,1.65-.15,1.7-.57,0-.23-1-.21-1,.11,0-.19.2-.08.06-.11.07,0-.13,0-.22.05q-.47.1-.93.18c-.95.17-1.91.32-2.87.46-2.32.33-4.64.64-7,.91-.82.1-1.64.19-2.46.26l-.51,0c-.4,0-1.06.13-1.36-.17s-.09-.66-.05-1a4.47,4.47,0,0,1,.25-1.14c.23-.57.59-.63,1.16-.67,1-.06,2-.24,3-.39,1.75-.26,3.49-.5,5.21-.88a21.45,21.45,0,0,1,4.22-.59,1.94,1.94,0,0,1,.8.06c.25.14.26.53.29.78a5.44,5.44,0,0,0,.43,2.23C159.35,130.15,160.32,130,160.16,129.7Z" transform="translate(0 -0.29)"/><path class="cls-2" d="M143.84,129.54c.12-1,.45-.53-.06-1.4-.76-1.31-5.95-9-7.64-10.88-.68-.77-1-1.36-2-.61-.25.2-1.06.63-1.2.9s.09.77.27,1.16a39.05,39.05,0,0,0,3.78,6.84c1.13,1.51,4.41,5.62,5.11,6C143.1,132.09,143.67,132,143.84,129.54Z" transform="translate(0 -0.29)"/><path class="cls-1" d="M144.33,129.63c0-.25.19-.52.21-.76a1.37,1.37,0,0,0-.28-.71c-.18-.31-.38-.61-.58-.91-.69-1.06-1.4-2.12-2.12-3.17-1.53-2.23-3-4.53-4.78-6.6a3.76,3.76,0,0,0-1.37-1.26,1.88,1.88,0,0,0-1.89.38c-.61.4-1.41.73-1.07,1.58s.94,2,1.41,2.92a41.82,41.82,0,0,0,5.86,8.47,6.89,6.89,0,0,0,2.55,2.31,1.53,1.53,0,0,0,1.44-.06c.57-.47.57-1.53.62-2.19,0-.3-1-.45-1-.19a4,4,0,0,1-.43,1.95c-.21.27-.31.21-.59,0a12.67,12.67,0,0,1-2.06-2.26,40.16,40.16,0,0,1-5.09-7.26c-.44-.84-.84-1.69-1.24-2.55a10,10,0,0,1-.56-1.14c-.14-.47.14-.68.48-.92l.86-.56c.07,0,.26-.18.36-.17-.08,0-.16,0,0,0a3.25,3.25,0,0,1,.41.42q.45.51.87,1c1.52,1.94,2.91,4,4.3,6q1,1.51,2,3c.2.31.4.62.59.93s.31.43.31.63a5.82,5.82,0,0,1-.22.79C143.31,129.73,144.29,129.91,144.33,129.63Z" transform="translate(0 -0.29)"/><path class="cls-2" d="M133,117.77c.33-.75,3-1.33,2.45-2.3-.43-.71-.92-1.43-1.4-2.11a19.45,19.45,0,0,1-1.19-2,5.32,5.32,0,0,0-.62-1c-.46-.48-.61-.24-1.18-.36-1.14-.24-1.48-1.68-2.66-2-1-.28-.85,1.07-.87,1.8,0,1.88-.59,4.06,1.64,4.87C130.82,115.21,132.28,118.43,133,117.77Z" transform="translate(0 -0.29)"/><path class="cls-1" d="M133.48,117.88a1.91,1.91,0,0,1,.84-.67,10.27,10.27,0,0,0,1.16-.67,1.1,1.1,0,0,0,.55-.7.79.79,0,0,0-.13-.45c-.21-.37-.45-.72-.69-1.06-.43-.65-.9-1.28-1.29-2s-.63-1.32-1-1.9a1.61,1.61,0,0,0-1.28-.68,1.61,1.61,0,0,1-1.2-.64c-.68-.75-1.47-1.63-2.61-1.42-.94.17-.72,1.38-.74,2.09a11.45,11.45,0,0,0,0,3,2.39,2.39,0,0,0,.68,1.22,5.4,5.4,0,0,0,1.36.78,10.29,10.29,0,0,1,2.32,2.38c.47.53,1.33,1.2,2,.64.16-.13-.26-.27-.32-.29a.81.81,0,0,0-.63.08c.27-.21.51.2.24-.08-.09-.1-.2-.19-.29-.29-.3-.31-.57-.65-.85-1a6.92,6.92,0,0,0-1.74-1.63,6.6,6.6,0,0,1-1.17-.63,2.11,2.11,0,0,1-.63-1,8,8,0,0,1-.07-2.67c0-.35-.18-2.07.27-2.21.17,0,.71.56.87.73a5.51,5.51,0,0,0,.94.93,2.59,2.59,0,0,0,1.2.4h.24c.24,0,.14.07,0,0a3.2,3.2,0,0,1,.6.77,36.17,36.17,0,0,0,2,3.32c.2.3.4.6.59.91.11.16.28.35.26.56s-.43.55-.67.7c-.56.34-1.52.62-1.84,1.24C132.39,118,133.36,118.12,133.48,117.88Z" transform="translate(0 -0.29)"/><path class="cls-1" d="M129.81,110.38a23.29,23.29,0,0,1-.56,3.2c0,.27,1,.39,1,.09a24.76,24.76,0,0,0,.56-3.19c0-.3-1-.37-1-.1Z" transform="translate(0 -0.29)"/><path class="cls-2" d="M171,153.25a6.48,6.48,0,0,1,3.22-.25,9.64,9.64,0,0,1,3.39.6c1.24.61-.86.62-1.42.59a25,25,0,0,0-3.23.22c-.85.06-1.7.24-2.56.35a2.46,2.46,0,0,1-.17-.83C170.29,153.5,170.51,153.61,171,153.25Z" transform="translate(0 -0.29)"/><path class="cls-1" d="M171.4,153.37a5.21,5.21,0,0,1,2.69-.18,9.45,9.45,0,0,1,2.94.45,1,1,0,0,1,.41.22l0,0c-.05.09-.54.07-.64.08-.84,0-1.7,0-2.55.07-.67.07-1.35.12-2,.2s-1.42.22-2.14.31l.75.22a1.81,1.81,0,0,1-.16-.88c.08-.27.48-.38.69-.54s-.64-.41-.86-.25-.64.3-.78.59,0,.69.11,1,.54.24.74.22c1.49-.2,3-.43,4.47-.54.89-.07,1.79.06,2.68-.08.19,0,.62-.09.69-.33s-.42-.48-.6-.56a10.22,10.22,0,0,0-3.59-.64,7.11,7.11,0,0,0-3.72.32c-.2.11.07.25.17.29A1,1,0,0,0,171.4,153.37Z" transform="translate(0 -0.29)"/><path class="cls-2" d="M171.08,153.1c.17.21-.14,1.25-.39,1.54s-1.47.43-1.84.53c-1.25.34-2.54.57-3.8.88a49.1,49.1,0,0,0-7.11,1.94,11.64,11.64,0,0,1-3.91,1.06c-1.05,0-1.48-.15-1.19-1.09.24-.75.68-2.21,1.43-2.65s2.26-.38,3.13-.61a24.24,24.24,0,0,1,5-.6C163.17,154.06,167.75,153.63,171.08,153.1Z" transform="translate(0 -0.29)"/><path class="cls-1" d="M170.6,153.16a1.78,1.78,0,0,1-.33,1.35c-.28.34-1,.34-1.38.43-1.41.29-2.81.63-4.21,1s-3.08.69-4.6,1.11-3,1.14-4.51,1.58a7.31,7.31,0,0,1-1.22.24c-.23,0-.74.11-.95,0-.37-.26,0-1.07.12-1.38a6.32,6.32,0,0,1,.64-1.43,2,2,0,0,1,1.68-.86c1.41-.17,2.78-.52,4.19-.66,1.05-.11,2.11-.13,3.16-.21,2.68-.23,5.37-.54,8-1,.67-.11.16-.45-.27-.38-2.73.42-5.47.75-8.22,1-1.35.11-2.9.14-4.32.38-.71.12-1.4.32-2.11.4a8,8,0,0,0-2.12.39c-1.1.44-1.48,1.76-1.8,2.8-.13.41-.24.86.16,1.15a2.47,2.47,0,0,0,1.49.25,16,16,0,0,0,4.91-1.37,46.33,46.33,0,0,1,5.47-1.45c1.79-.42,3.58-.86,5.38-1.23.47-.1,1.14-.17,1.44-.59a1.94,1.94,0,0,0,.33-1.57C171.44,152.79,170.47,152.88,170.6,153.16Z" transform="translate(0 -0.29)"/><path class="cls-1" d="M162.41,156.28a7.45,7.45,0,0,0-.68-1.56.76.76,0,0,0-.25-.19,1.2,1.2,0,0,0-.37-.1c-.14,0-.37,0-.26.21a2.38,2.38,0,0,1,.17.31c.06.12.12.25.17.37s.19.51.27.76a.37.37,0,0,0,.18.19,1.42,1.42,0,0,0,.36.14c.08,0,.47.06.41-.13Z" transform="translate(0 -0.29)"/><path class="cls-2" d="M153.47,156.7c.26-.8.83-1.33-.06-1.73-2.68-1.23-10.53-5.74-11.78-6.32-1-.48-2.11-1.29-3.33-1.16-.62.06-2.43.63-2.63,1.16-.46,1.17,1.82,2.56,2.62,3,2.1,1.13,9.07,5.29,10.66,6.08a13.56,13.56,0,0,0,3.29,1.25C152.8,159.05,152.68,159.09,153.47,156.7Z" transform="translate(0 -0.29)"/><path class="cls-1" d="M154,156.67c.28-.79.78-1.41-.17-1.89l-1.72-.86c-1.59-.83-3.16-1.7-4.74-2.57-1.39-.76-2.78-1.54-4.18-2.3-.39-.21-.79-.42-1.19-.61a7.61,7.61,0,0,0-3.23-1.18,6.32,6.32,0,0,0-2.38.59c-.57.25-1.3.58-1.22,1.32s.88,1.39,1.45,1.81a14.11,14.11,0,0,0,1.67,1c2.94,1.63,5.81,3.37,8.74,5a17.15,17.15,0,0,0,4.67,2.08,1.64,1.64,0,0,0,1.45-.16,1.43,1.43,0,0,0,.29-.56c.2-.57.37-1.15.56-1.73.09-.28-.88-.22-1,.06l-.45,1.4a4.85,4.85,0,0,0-.26.69s0,0,0,.06h0c-.12.12,0,.08.43-.11l-.15,0c-.46-.14-.93-.24-1.38-.42a26.16,26.16,0,0,1-3.27-1.62c-2.64-1.49-5.25-3-7.89-4.54a15.38,15.38,0,0,1-3.09-2c-.42-.39-1.15-1.23-.55-1.76a3.66,3.66,0,0,1,2.16-.74,7.71,7.71,0,0,1,2.81,1.17c.35.17.69.35,1,.54,1.2.65,2.39,1.31,3.58,2,1.57.86,3.13,1.72,4.7,2.56l1.91,1c.26.12.72.25.84.52s-.24.94-.37,1.3S153.85,156.94,154,156.67Z" transform="translate(0 -0.29)"/><path class="cls-2" d="M139.08,147.55c-.39-5.29-.7-9.31-1.48-15.82-.13-1.08-.28-1.45-1.55-1.3s-1.7.18-1.82,1.21c-.37,3.24.36,7.24.76,10.47.21,1.7.41,4.87.55,6.55C135.62,149.72,135.85,148.87,139.08,147.55Z" transform="translate(0 -0.29)"/><path class="cls-1" d="M139.58,147.61c-.25-3.32-.5-6.65-.84-10q-.28-2.92-.64-5.85a1.85,1.85,0,0,0-.48-1.28,2.23,2.23,0,0,0-1.54-.3,4.42,4.42,0,0,0-1.76.34,1.52,1.52,0,0,0-.61,1.33,27.27,27.27,0,0,0,.2,5.71c.2,1.73.49,3.45.66,5.18.16,1.57.27,3.14.39,4.72,0,.81-.13,2,1,1.85a3.11,3.11,0,0,0,1.05-.47,24.9,24.9,0,0,1,2.45-1.16c.21-.09-.06-.26-.15-.3a1,1,0,0,0-.69,0c-.67.28-1.33.58-2,.91a6.89,6.89,0,0,0-1.07.58c-.27.22.41.3.45.12a.86.86,0,0,0,0-.28c-.06-.6-.09-1.21-.13-1.81-.21-2.79-.54-5.55-.89-8.33a41,41,0,0,1-.38-4.82,15.86,15.86,0,0,1,.1-2.07c.1-.68.38-.9,1-1,.49-.08,1-.28,1.22.29a11.56,11.56,0,0,1,.32,2.35c.18,1.56.35,3.12.5,4.68.31,3.15.55,6.31.78,9.47C138.61,147.81,139.59,147.86,139.58,147.61Z" transform="translate(0 -0.29)"/><path class="cls-2" d="M137.2,130.76c.75-.46-1.2-3.18-1.72-4.17s-2.95-4.9-3.43-5.76a5.44,5.44,0,0,0-2.74-2.19c-.92-.39-2-1-1.93.35.07,1,.37,1.94.43,2.92a3.53,3.53,0,0,0,.61,2.31c.42.5.87.8,1.28,1.33.68.9,1.41,1.27,1.91,2.27a25.82,25.82,0,0,0,2.2,3.76C134.53,132.47,135.26,131.92,137.2,130.76Z" transform="translate(0 -0.29)"/><path class="cls-1" d="M137.62,130.89c.69-.51-.2-1.84-.49-2.35-.49-.88-1-1.74-1.53-2.6-.61-1-1.24-2.09-1.87-3.13a18.87,18.87,0,0,0-1.68-2.68,7.74,7.74,0,0,0-3.55-2.07,1.67,1.67,0,0,0-1.35,0c-.54.4-.21,1.44-.11,2,.16.91.22,1.81.33,2.73a3.09,3.09,0,0,0,1,1.93c.63.61,1.18,1.29,1.81,1.91a7.43,7.43,0,0,1,1.28,1.91c.38.74.78,1.47,1.22,2.17a3.32,3.32,0,0,0,1.12,1.31c1.29.66,2.75-.53,3.78-1.15.31-.19-.62-.4-.85-.26a17.65,17.65,0,0,1-1.79,1,1.53,1.53,0,0,1-.27.11c-.06,0-.23,0-.15,0-.2-.06-.38-.39-.5-.55a23.56,23.56,0,0,1-1.73-3,14.16,14.16,0,0,0-2.47-3.1,5.28,5.28,0,0,1-1.35-1.63,11.45,11.45,0,0,1-.28-2.26,14.28,14.28,0,0,1-.36-2.42,1.27,1.27,0,0,1,0-.28c0-.09.23-.28,0-.22.18,0,.62.23.77.3a5.78,5.78,0,0,1,2.93,2.3c.94,1.61,1.93,3.18,2.87,4.78.43.74.86,1.48,1.3,2.21.22.37,1.54,2.27,1,2.69C136.47,130.85,137.4,131.05,137.62,130.89Z" transform="translate(0 -0.29)"/><path class="cls-2" d="M131.53,121a10.85,10.85,0,0,0-1.68,4.22" transform="translate(0 -0.29)"/><path class="cls-1" d="M131.07,120.84a11.52,11.52,0,0,0-1.71,4.27c-.06.27.91.48,1,.2a11.25,11.25,0,0,1,1.65-4.17c.18-.25-.76-.53-.92-.3Z" transform="translate(0 -0.29)"/><path class="cls-2" d="M151.07,95.64c.77-.37,5.64-2,5.87-1.11-.7.77-2.12,1-3.07,1.39s-1.61.6-2.38,1A2,2,0,0,1,151.07,95.64Z" transform="translate(0 -0.29)"/><path class="cls-1" d="M151.48,95.8a17,17,0,0,1,2.85-1A12.07,12.07,0,0,1,156,94.5l.2,0s.19,0,.1,0a.48.48,0,0,1,.12,0c.14,0,0,0,.05,0h0l-.07,0c-.07,0,0,0,0,0s0,.07,0,.08v-.11a5.19,5.19,0,0,1-2.35,1.12c-1,.33-2.05.74-3.05,1.17l.86.13a2,2,0,0,1-.36-1.12c0-.32-1-.36-1-.14a2.26,2.26,0,0,0,.47,1.33.89.89,0,0,0,.85.13A29.43,29.43,0,0,1,155,95.84a5.29,5.29,0,0,0,2.39-1.19.08.08,0,0,0,0-.1c-.1-.35-.63-.44-.93-.47a5.32,5.32,0,0,0-1.49.09,21.91,21.91,0,0,0-3.2.87,11.19,11.19,0,0,0-1.14.44c-.21.1,0,.25.14.3A.89.89,0,0,0,151.48,95.8Z" transform="translate(0 -0.29)"/><path class="cls-2" d="M144.73,106.91c-.34,0-.9-1.89-.81-2.31.16-.77,1-1.12,1.37-1.77a10.07,10.07,0,0,0,.71-1.12c.18-.35.28-1,.58-1.24s.56-.25.89-.73.5-.75.78-1.12c.6-.77,1.32-1.45,1.94-2.21.38-.46,1.07-1.35,1.49-.38.32.7-.38,1.92-.71,2.57-.63,1.28-1.5,2.46-2.26,3.68s-1.5,2.24-2.26,3.33C146.2,106,145.35,107.9,144.73,106.91Z" transform="translate(0 -0.29)"/><path class="cls-1" d="M144.79,106.72c.33.11.19.1.08-.14a2.72,2.72,0,0,1-.19-.47,5.54,5.54,0,0,1-.26-1c-.13-.81.62-1.25,1.09-1.79a7.15,7.15,0,0,0,.78-1.11c.25-.4.33-.84.54-1.25s.49-.45.79-.68a4.8,4.8,0,0,0,.87-1.18c.66-.92,1.49-1.7,2.21-2.56a3.79,3.79,0,0,1,.38-.42l.19-.16,0,0c.17-.08.18-.09,0,0l-.12,0a.84.84,0,0,1,0,.17,2.38,2.38,0,0,1,0,.38,2.75,2.75,0,0,1-.15.63,27,27,0,0,1-3.1,5.35c-.66,1-1.42,2-2.07,3-.17.26-.31.54-.48.8a2.54,2.54,0,0,1-.35.46s-.13.09-.14.12l-.07,0c.32.19.4.2.26,0s-1.1-.37-.89-.07a1.15,1.15,0,0,0,1.82.17,5.42,5.42,0,0,0,.6-.9c.26-.45.56-.86.86-1.29.86-1.23,1.66-2.49,2.48-3.75a22.4,22.4,0,0,0,1.89-3.34c.36-.83.55-2-.52-2.33s-1.59.72-2.17,1.36-.94,1-1.37,1.54a6.58,6.58,0,0,1-1.23,1.58,1.8,1.8,0,0,0-.84.92,7.62,7.62,0,0,1-.88,1.67c-.59.85-1.65,1.38-1.43,2.55.14.71.38,1.8,1.17,2,.11,0,.5.15.54,0S144.9,106.76,144.79,106.72Z" transform="translate(0 -0.29)"/><path class="cls-1" d="M146.88,100.66a10.51,10.51,0,0,0,1.13.86l-.06,0,.18.14a.43.43,0,0,0,.25.1,1.22,1.22,0,0,0,.38,0,.58.58,0,0,0,.29-.12s.09-.11,0-.16c-.29-.24-.62-.45-.92-.68l.06,0a4.32,4.32,0,0,1-.39-.34.42.42,0,0,0-.24-.09,1,1,0,0,0-.39,0,.6.6,0,0,0-.28.13s-.09.1,0,.16Z" transform="translate(0 -0.29)"/><path class="cls-2" d="M135.75,101.59c1.79.24,3.33.89,5.08,1.27,1.16.25,3.71.73,3.92,1.35a6.92,6.92,0,0,1,.28,2.86c0,.43-9.56-2.79-10.55-3.15C133,103.39,133.66,103.25,135.75,101.59Z" transform="translate(0 -0.29)"/><path class="cls-1" d="M135.72,101.78c1.57.23,3.05.8,4.58,1.17,1,.24,2.06.4,3.06.74.31.1.74.2.91.5a3.49,3.49,0,0,1,.27,1.47c0,.32,0,.64,0,1a1.82,1.82,0,0,0,0,.34l.18-.06c.05,0,.14,0,0,0l-.24,0c-1.43-.31-2.84-.79-4.23-1.23s-3-1-4.55-1.49a5.26,5.26,0,0,1-1.42-.53c-.25-.21,0-.4.22-.58.53-.47,1.12-.87,1.68-1.31.17-.14-.7-.43-.94-.24-.56.44-1.15.85-1.68,1.31-.19.17-.47.4-.37.68.17.46,1,.62,1.47.77q2.46.84,4.93,1.63a41.38,41.38,0,0,0,4.86,1.39,2.57,2.57,0,0,0,.68.06c.38,0,.36-.19.37-.56,0-.82.14-2.36-.65-2.89a10.2,10.2,0,0,0-3.6-1.11c-1.86-.4-3.63-1.09-5.52-1.36-.11,0-.49,0-.52.13S135.62,101.77,135.72,101.78Z" transform="translate(0 -0.29)"/><path class="cls-2" d="M125.6,95.17a4.86,4.86,0,0,1,1.73-.91c1.15-.26,1.63-.16,2.15.74a5,5,0,0,0,1.61,1.58,25.19,25.19,0,0,1,2,2c.8.76,2.37,2.18,2.76,3.23.12.35-.93,1.87-1.35,1.87-1.1,0-2.66-2-3.27-2.65-.85-.93-1.82-1.71-2.69-2.63-.52-.55-.51-.87-1.34-.92-.25,0-.81.16-1,0C125.58,97.32,125.31,96.29,125.6,95.17Z" transform="translate(0 -0.29)"/><path class="cls-1" d="M126.05,95.35a5.64,5.64,0,0,1,1.5-.83c.36-.1.87-.3,1.17,0s.46.72.74,1a8.1,8.1,0,0,0,1,.89,29,29,0,0,1,2.35,2.35,17.19,17.19,0,0,1,1.95,2.05c.19.25.53.63.53,1a1.87,1.87,0,0,1-.44.89c-.16.22-.4.62-.67.72-.07,0,0,0-.17,0a3,3,0,0,1-.55-.38,13.64,13.64,0,0,1-1.71-1.77c-.76-.86-1.64-1.6-2.45-2.41-.36-.35-.66-.82-1-1.14a2.21,2.21,0,0,0-1.17-.42,2.84,2.84,0,0,0-.65,0,2.43,2.43,0,0,1-.33,0q.31.15.12,0l-.09-.13a2.76,2.76,0,0,1-.1-1.9c.06-.28-.9-.54-1-.27-.23,1-.19,2.36,1,2.72a1.67,1.67,0,0,0,.67.07c.2,0,.59-.15.78,0s.2.24.28.34a7.75,7.75,0,0,0,.79.83c.93.91,1.87,1.78,2.73,2.75a8,8,0,0,0,2.2,1.94,2.27,2.27,0,0,0,1.24.31,1.34,1.34,0,0,0,.83-.59,4.35,4.35,0,0,0,.6-.93.91.91,0,0,0-.14-1,11.81,11.81,0,0,0-2.23-2.51,36.59,36.59,0,0,0-2.74-2.69,4.84,4.84,0,0,1-1.24-1.35,2.05,2.05,0,0,0-1.16-.9,4.3,4.3,0,0,0-3.54,1C125,95.12,125.79,95.52,126.05,95.35Z" transform="translate(0 -0.29)"/><path class="cls-1" d="M128.44,97.18a8.37,8.37,0,0,1,1.34-1.57c.05,0,0-.12,0-.16a.7.7,0,0,0-.28-.12,1,1,0,0,0-.39,0,.42.42,0,0,0-.24.09A8.64,8.64,0,0,0,127.5,97c-.11.16.21.26.32.28a1,1,0,0,0,.38,0c.07,0,.2,0,.24-.09Z" transform="translate(0 -0.29)"/><path class="cls-2" d="M145.33,71.06c-.62-.71-1-2.19-1.64-2.86s-1.83-.51-2.61-.73c-1.12-.33-1.47-1.29-1.94-2.18-.34-.64-.51-.94-1.27-1-.51,0-1.07.15-1.46-.28-.22-.23-.19-.7-.32-1a27.35,27.35,0,0,0-2.23-2.29,14.68,14.68,0,0,0,3,6.55,21.57,21.57,0,0,0,3,3.57,37.92,37.92,0,0,0,5.24,3.31,10.67,10.67,0,0,0,3.21.76C149.3,74.68,146.42,71.78,145.33,71.06Z" transform="translate(0 -0.29)"/><path class="cls-1" d="M145.77,71c-.92-1.15-1-2.88-2.57-3.37-.78-.24-1.79-.12-2.45-.63a5.9,5.9,0,0,1-1.24-1.94,1.72,1.72,0,0,0-1.27-.93c-.36-.07-.76,0-1.11,0-.53-.12-.37-.67-.56-1a4.68,4.68,0,0,0-1-1.1c-.42-.41-.86-.81-1.27-1.23-.13-.14-1-.35-.93,0a15.24,15.24,0,0,0,3,6.6,31.18,31.18,0,0,0,2.45,3,15.53,15.53,0,0,0,2.34,1.78,18.08,18.08,0,0,0,4.63,2.51c.45.14,3.42,1.16,3.19,0a4.6,4.6,0,0,0-1.33-1.88,11.38,11.38,0,0,0-2-1.76c-.22-.14-1.18-.13-.75.16a10.07,10.07,0,0,1,2.86,2.92c.2.34.42.76-.09.68a11.42,11.42,0,0,1-2.06-.56,10.83,10.83,0,0,1-1.81-1c-.79-.47-1.58-1-2.34-1.5A11.58,11.58,0,0,1,139.44,70c-.77-.83-1.4-1.76-2.1-2.65a15,15,0,0,1-3-6.57h-.93l1.27,1.24a3,3,0,0,1,1,1.26c.17.69.39,1,1.12,1.2a6.89,6.89,0,0,0,1.11,0c.47,0,.62.5.81.87a5,5,0,0,0,1.2,1.73,3.88,3.88,0,0,0,1.9.67,3.37,3.37,0,0,1,1.26.29,2.43,2.43,0,0,1,.73,1,10.82,10.82,0,0,0,1.06,2C145.05,71.3,146,71.34,145.77,71Z" transform="translate(0 -0.29)"/><path class="cls-2" d="M149.87,77.89a4.37,4.37,0,0,0,.27-2c-1.34.62-3.43-1.16-4.32-1.93-1.49-1.29-1.22-2.35-1.28-4.09,0-1.48-.2-3.37-1.45-4.47-.6-.52-1.66-.7-1.85-1.54-.1-.43.27-1,.11-1.4s-.78-.47-1.4-.67-.95-.3-1.19-.91-.19-.61-.91-1c-1.34-.77-1.78-2.47-3.51-2.78a5.63,5.63,0,0,1,2.09-.17,17.7,17.7,0,0,1,3.46.63,19.12,19.12,0,0,1,6.29,2.65c3,2.09,5.87,4.7,6.39,8.33a25.57,25.57,0,0,1-.06,6.06C152.33,75.7,153,78.54,149.87,77.89Z" transform="translate(0 -0.29)"/><path class="cls-1" d="M150.36,78a4.21,4.21,0,0,0,.27-2c0-.31-.68-.38-.89-.3-.88.36-1.93-.51-2.59-1a5.31,5.31,0,0,1-1.87-2,7.88,7.88,0,0,1-.25-2.7,10,10,0,0,0-.37-2.77A3.8,3.8,0,0,0,143.11,65a5.81,5.81,0,0,1-1.12-.69c-.47-.48-.14-.94-.12-1.49,0-1-.94-1.07-1.65-1.26a1.24,1.24,0,0,1-1-.8,1.7,1.7,0,0,0-.42-.71c-.33-.29-.77-.45-1.1-.75a13.43,13.43,0,0,1-.95-1.05,4.24,4.24,0,0,0-2.36-1.47l.36.39a6.27,6.27,0,0,1,3.3,0,26.92,26.92,0,0,1,3.85,1,18.88,18.88,0,0,1,6.64,4.09,10.49,10.49,0,0,1,3.56,6,27.62,27.62,0,0,1-.09,6.23,11.27,11.27,0,0,1-.15,2c-.25,1-1,1.22-1.94,1-.58-.11-.67.28-.08.39a2.85,2.85,0,0,0,2.54-.37,2.78,2.78,0,0,0,.58-2,55.29,55.29,0,0,0,.19-6.44,10.41,10.41,0,0,0-3.45-6.72,20.22,20.22,0,0,0-7.15-4.54,27.58,27.58,0,0,0-4.8-1.26,7.31,7.31,0,0,0-3.8,0c-.32.14.26.36.36.38,1,.21,1.54,1.13,2.19,1.83a4.05,4.05,0,0,0,.92.78c.34.22.59.3.75.68a2.14,2.14,0,0,0,.57.93,3.35,3.35,0,0,0,1.13.49c.57.17,1.12.12,1,.91-.07.51-.24.89.08,1.35.51.73,1.5.87,2.06,1.56a5.58,5.58,0,0,1,1,3.15c.07.93,0,1.88.11,2.82a3.48,3.48,0,0,0,1.3,2.24c1.27,1.11,3.3,2.81,5.12,2.08l-.89-.29a4.21,4.21,0,0,1-.27,2.05C149.28,78,150.21,78.29,150.36,78Z" transform="translate(0 -0.29)"/><path class="cls-2" d="M152.62,76.07c-.33-.21-2,.2-2.41.24a3.35,3.35,0,0,0-1.39.34c-.79.61-.65,2.06-1,2.87a9.74,9.74,0,0,1-1.06,1.92,21.5,21.5,0,0,0-1.55,2,11.16,11.16,0,0,0-1.54,4.22c-.19,2.53-.92,5,0,7.5,1.46,3.83,6.43-3.07,7.13-4.39a31.37,31.37,0,0,0,1.83-3.67c.38-1,.63-2.14.93-3.2C154.14,81.9,153.65,76.05,152.62,76.07Z" transform="translate(0 -0.29)"/><path class="cls-1" d="M153,75.9a4,4,0,0,0-2.13.08,8.92,8.92,0,0,0-2.25.47c-.85.41-.95,1.4-1.11,2.23A7.18,7.18,0,0,1,146,81.83a13.43,13.43,0,0,0-1.95,3,10.77,10.77,0,0,0-.91,3.51c-.24,2.33-1,5.15.26,7.33a2,2,0,0,0,2.69.62,8.93,8.93,0,0,0,3.06-2.54,18.66,18.66,0,0,0,2.07-2.79c.53-.9,1-1.84,1.48-2.78a22.2,22.2,0,0,0,1.26-3.82,14.15,14.15,0,0,0,.26-5.19,10.39,10.39,0,0,0-.47-2.41c-.16-.43-.37-.85-.87-.88-.16,0-.58,0-.67.18s0,.23.22.24c-.09,0,.11.15.17.25a2.57,2.57,0,0,1,.25.65,10.48,10.48,0,0,1,.35,1.84,17.63,17.63,0,0,1,.06,4.17,19.06,19.06,0,0,1-.64,2.58,16.49,16.49,0,0,1-1.24,3.12,24.14,24.14,0,0,1-1.86,3.19,18.22,18.22,0,0,1-2.36,2.75c-.48.45-1.53,1.56-2.27,1.18-.55-.29-.76-1.05-.91-1.59a10,10,0,0,1-.19-3.4c.1-1.14.27-2.28.39-3.43a9.48,9.48,0,0,1,1-3.22c1-2.07,2.95-3.54,3.37-5.9a5.34,5.34,0,0,1,.32-1.25c.26-.59.73-.63,1.31-.71.31,0,.62-.1.93-.16s.84-.24,1.1-.11S153.36,76.05,153,75.9Z" transform="translate(0 -0.29)"/><path class="cls-2" d="M142.86,91.22c.88.32,1.93,5.06,1.7,5.41-.4.61-1.15.25-1.75.08-1.53-.43-7-3-8.32-3.61a34.15,34.15,0,0,1-3.59-2c-.87-.56-1.71-1.17-2.62-1.69s-1.3-.86-1-1.78c.22-.76.61-2.22,1.63-2.28a7.71,7.71,0,0,1,2.43.42C134.38,86.71,137.36,88.75,142.86,91.22Z" transform="translate(0 -0.29)"/><path class="cls-1" d="M142.49,91.33c.3.13.47.63.59.9a12.82,12.82,0,0,1,.54,1.62,14.36,14.36,0,0,1,.38,1.7c0,.24.2.73.08,1-.28.6-2.65-.56-3.11-.75-1.24-.52-2.47-1.07-3.7-1.64-1-.44-2-.89-2.92-1.39-1.83-.93-3.48-2.1-5.22-3.17-.68-.42-1.6-.77-1.43-1.74a4.62,4.62,0,0,1,.72-1.83c.55-.75,1.48-.43,2.25-.22a14.15,14.15,0,0,1,1.76.62c1.47.6,2.88,1.37,4.3,2.1,1.9,1,3.81,2,5.76,2.83a.9.9,0,0,0,.7.07c.14-.07.25-.18,0-.28-3.46-1.56-6.74-3.57-10.25-5a17.15,17.15,0,0,0-2.16-.73,5,5,0,0,0-2.54-.19,2.13,2.13,0,0,0-1.22,1.42c-.25.62-.58,1.44-.17,2.06s1.49,1.07,2.17,1.52c1,.66,2,1.34,3,1.94,1.31.75,2.68,1.4,4.05,2s2.84,1.29,4.28,1.9a9.41,9.41,0,0,0,3.72,1.11c.57,0,1-.31.93-.89a11,11,0,0,0-.32-1.79,14.15,14.15,0,0,0-.69-2.21c-.18-.41-.4-1-.85-1.16a1,1,0,0,0-.7-.08C142.39,91.12,142.27,91.23,142.49,91.33Z" transform="translate(0 -0.29)"/><path class="cls-2" d="M121.46,90.41c1.23-.11,1.29-2.2,1.5-3a3.3,3.3,0,0,1,3-2.53c1.4-.14,2.67,0,2.72,1.48s-.19,3.19-1.5,4.16C125.46,91.72,123.77,92.05,121.46,90.41Z" transform="translate(0 -0.29)"/><path class="cls-1" d="M121.59,90.6c1.27-.15,1.54-1.38,1.73-2.46a4.55,4.55,0,0,1,.52-1.65,3,3,0,0,1,1.62-1.31,3.29,3.29,0,0,1,1.89-.08c.64.2.79.83.79,1.44a4.46,4.46,0,0,1-1.64,4,3.91,3.91,0,0,1-2,.79,4.51,4.51,0,0,1-2.56-1,.9.9,0,0,0-.68-.08c-.12,0-.37.14-.19.27a5.44,5.44,0,0,0,5.07.93,5.22,5.22,0,0,0,2-1.34,4.28,4.28,0,0,0,1-2.32,3.72,3.72,0,0,0-.18-2.31,2.18,2.18,0,0,0-1.79-.82,4.33,4.33,0,0,0-4.28,1.81,6.4,6.4,0,0,0-.58,2.06,4.8,4.8,0,0,1-.33,1.1c-.11.22-.32.57-.59.6s-.43.06-.36.24S121.46,90.62,121.59,90.6Z" transform="translate(0 -0.29)"/><path class="cls-2" d="M128.52,111.9c-.76-2.66-1.66-3.21-4.58-3.09-3.26,0-5.57-.06-7.2,0s-3.93.16-7.19.27c-2.93,0-3.81.56-4.46,3.25-.51,2.14,0,33.33.78,38.44.29,1.75.35,2.38.61,4.13.21,1.31,2.73,4.37,5.56,6.7a7.27,7.27,0,0,0,5.68,2.95H118a7.18,7.18,0,0,0,5.55-3.15c2.74-2.43,5.13-5.58,5.28-6.9.2-1.75.23-2.39.45-4.14C129.94,145.2,129.13,114,128.52,111.9Z" transform="translate(0 -0.29)"/><path class="cls-1" d="M129,111.89A4.23,4.23,0,0,0,127.2,109c-1.24-.63-2.76-.43-4.1-.43-3.18,0-6.35,0-9.53.09-1.83.08-3.71,0-5.53.23a3.42,3.42,0,0,0-2.7,1.39,7.14,7.14,0,0,0-.88,3.71c-.16,4-.09,8,0,12.08.06,5.19.17,10.37.37,15.56.07,2,.16,4,.3,6.05.11,1.69.35,3.34.59,5a17.37,17.37,0,0,0,.37,2.4,5.67,5.67,0,0,0,.78,1.48,23.29,23.29,0,0,0,3.76,4.18,18.23,18.23,0,0,0,3.68,3.11,7.77,7.77,0,0,0,4.93.69,7.39,7.39,0,0,0,4-2.14c.61-.62,1.18-1.26,1.81-1.87s1.36-1.39,2-2.13a11,11,0,0,0,2.34-3.65,13.86,13.86,0,0,0,.28-2.33c.08-.76.17-1.52.25-2.28a92.77,92.77,0,0,0,.2-10.68q-.06-7.78-.32-15.58c-.12-3.7-.17-7.43-.55-11.11a5.75,5.75,0,0,0-.14-.94c-.08-.31-1.06-.2-1,0a13.67,13.67,0,0,1,.28,2.64c.11,1.77.19,3.56.27,5.34q.28,7.31.4,14.63c.07,4.32.14,8.64,0,12.95,0,1.61-.21,3.18-.37,4.79a21.49,21.49,0,0,1-.27,2.4,5,5,0,0,1-.74,1.55,22.59,22.59,0,0,1-3.49,4.19c-.59.58-1.13,1.15-1.69,1.75a7.14,7.14,0,0,1-1.77,1.42,5.91,5.91,0,0,1-5.38.2,7.13,7.13,0,0,1-2-1.44c-.59-.58-1.15-1.13-1.76-1.69a23.14,23.14,0,0,1-3.64-4A5.2,5.2,0,0,1,107,155a19.8,19.8,0,0,1-.35-2.31c-.13-.94-.31-1.88-.41-2.83-.17-1.52-.25-3.06-.32-4.59-.24-4.7-.36-9.42-.45-14.13s-.14-9.18-.1-13.78c0-1.38,0-2.77.1-4.15s.48-3.19,1.89-3.73a5.59,5.59,0,0,1,2-.25c1,0,2-.07,3-.11,1.47-.06,2.93-.13,4.4-.16s3,0,4.42,0c1,0,2,0,3,0a5.34,5.34,0,0,1,1.91.18c1.16.4,1.59,1.66,1.9,2.73C128.11,112.22,129.08,112.11,129,111.89Z" transform="translate(0 -0.29)"/><path class="cls-1" d="M106.9,117.27c6.81-.46,13.61-.37,20.43-.18.43,0,.9-.39.22-.41-6.9-.2-13.79-.28-20.69.19-.59,0-.55.44,0,.4Z" transform="translate(0 -0.29)"/><path class="cls-1" d="M107,123.28c6.82-.12,13.62-.29,20.44-.18.68,0,.23-.41-.2-.42-5.6-.09-11.2-.05-16.79.09l-3.89.09c-.19,0-.31.08-.22.25s.51.17.66.17Z" transform="translate(0 -0.29)"/><path class="cls-1" d="M107.6,131.64c6.47-.27,12.94-.5,19.41-.16.68,0,.23-.4-.2-.42-6.55-.34-13.1-.12-19.65.16-.18,0-.31.07-.22.24s.51.19.66.18Z" transform="translate(0 -0.29)"/><path class="cls-1" d="M107.75,140.21c6.62-.12,13.22-.83,19.83,0,.67.09.28-.39-.16-.44-6.69-.84-13.35-.15-20.06,0-.65,0,.08.48.39.47Z" transform="translate(0 -0.29)"/><path class="cls-1" d="M108.81,150.54c3.24-.06,6.47-.32,9.71-.35s6.19.13,9.29.2c.67,0,.24-.42-.2-.43-3.13-.07-6.26-.22-9.39-.2-3.29,0-6.56.29-9.85.35-.18,0-.31.07-.22.24s.51.19.66.19Z" transform="translate(0 -0.29)"/><path class="cls-2" d="M126.24,94.06a10.52,10.52,0,0,0-1-3.53,3.61,3.61,0,0,0-2.53-2.36h0c-.78-.36-1.93-1.48-2.85-1a1.21,1.21,0,0,0-.48.42l-.53,0a17.66,17.66,0,0,0-2.52.22,18.51,18.51,0,0,0-2.52-.13l-.54,0a1.12,1.12,0,0,0-.49-.41c-.94-.49-2.05.67-2.8,1h0a3.59,3.59,0,0,0-2.44,2.45,10.33,10.33,0,0,0-.87,3.57c0,1.15-1.3,13.32-1.26,14.66,0,1.14.17,2,1.66,1.88,5.27-.39,8-.09,9.73-.41,1.74.26,4.45-.14,9.73.07,1.5,0,1.59-.8,1.58-1.94C128.08,107.33,126.27,95.22,126.24,94.06Z" transform="translate(0 -0.29)"/><path class="cls-1" d="M126.74,94.06a11,11,0,0,0-1.24-4A4.11,4.11,0,0,0,123,88l.13.2h0c.08-.09-.08-.17-.13-.2a8.58,8.58,0,0,0-2.23-1.1,1.91,1.91,0,0,0-1.93.67l.48-.15c-.52,0-1,.08-1.55.1l-.85,0-.41,0s-.46.06-.24.06-.12,0-.15,0a2.58,2.58,0,0,0-.39,0c-.29,0-.57,0-.86,0-.55,0-1.1,0-1.66,0l.49.14a2,2,0,0,0-2-.6,9.72,9.72,0,0,0-2.19,1.2s-.09.11,0,.16h0l.13-.2A4.16,4.16,0,0,0,107,90.9a15.81,15.81,0,0,0-.77,2.51,11.53,11.53,0,0,0-.09,1.31c-.09,1.69-.29,3.37-.45,5.06-.21,2.23-.43,4.45-.63,6.68-.06.72-.13,1.44-.16,2.17a2.67,2.67,0,0,0,.49,2.12,2.24,2.24,0,0,0,1.47.41c1,0,1.93-.12,2.9-.16,1.41-.06,2.83-.07,4.24-.09a17.35,17.35,0,0,0,2.79-.16c.3,0-.05,0,0,0a1,1,0,0,0,.26,0l.64,0q.72,0,1.44,0c1.33,0,2.66-.07,4-.07.93,0,1.86,0,2.8,0a3.89,3.89,0,0,0,2-.24c1.23-.66.62-3,.48-4.09-.49-4-1.14-7.9-1.58-11.86a4.9,4.9,0,0,1,0-.54c0-.29-1-.27-1,0,.05,1.32.31,2.65.49,4,.28,2.1.58,4.21.86,6.31.19,1.4.44,2.82.5,4.24a3.44,3.44,0,0,1-.08,1.15c-.26.89-1.22.67-2,.65-1.54,0-3.08,0-4.63,0-1,0-2,.07-3,0-.36,0-.73-.09-1.1-.08s-.75.1-1.12.12c-2.51.17-5,.07-7.55.22-.66,0-1.66.34-2-.41a3,3,0,0,1-.19-1.3c0-.55.06-1.1.1-1.65.16-2,.36-4,.55-6s.41-4.07.56-6.11a12.33,12.33,0,0,1,.46-3.07,10.09,10.09,0,0,1,.91-2.26,3.78,3.78,0,0,1,1.84-1.35c.06,0,.2-.11.13-.2h0l0,.16c.42-.23.78-.53,1.19-.77s.65-.35,1-.09c.16.12.2.23.39.29a5.87,5.87,0,0,0,1.51.07c.36,0,.73,0,1.09,0a5.16,5.16,0,0,0,.78.08c.61,0,1.21-.14,1.83-.17a4.45,4.45,0,0,0,1.46-.13c.19-.08.25-.25.43-.36.36-.23.68,0,1,.16s.8.51,1.22.72l-.13-.19h0c-.08.08.08.17.13.19a3.68,3.68,0,0,1,2.28,2,10.77,10.77,0,0,1,1.13,3.8C125.75,94.36,126.75,94.34,126.74,94.06Z" transform="translate(0 -0.29)"/></g></g></svg>