<svg xmlns="http://www.w3.org/2000/svg" viewBox="0 0 38.03 38.02"><defs><style>.cls-1{fill:#922160;}</style></defs><g id="Layer_2" data-name="Layer 2"><g id="BG"><polygon class="cls-1" points="21.01 22.81 18.86 37.5 16.95 22.77 9.69 28.18 15.22 21.01 0.52 18.86 15.25 16.95 9.84 9.69 17.01 15.22 19.16 0.52 21.07 15.25 28.33 9.84 22.81 17.01 37.5 19.16 22.77 21.07 28.18 28.33 21.01 22.81"/><path class="cls-1" d="M18.86,38a.53.53,0,0,1-.52-.45L16.55,23.73,10,28.6a.52.52,0,0,1-.68-.05.53.53,0,0,1,0-.69l5-6.46-13.81-2A.53.53,0,0,1,0,18.86a.54.54,0,0,1,.46-.52L14.3,16.55,9.42,10a.52.52,0,0,1,.74-.72l6.47,5,2-13.81a.52.52,0,0,1,1,0l1.8,13.84L28,9.42a.52.52,0,0,1,.68.05.53.53,0,0,1,.05.69l-5,6.46,13.81,2a.53.53,0,0,1,.45.52.57.57,0,0,1-.46.52L23.73,21.47,28.6,28a.51.51,0,0,1-.05.68.54.54,0,0,1-.69.05l-6.46-5-2,13.81A.51.51,0,0,1,19,38Zm2.47-15.63,4.17,3.22-3.15-4.23a.52.52,0,0,1-.06-.51.51.51,0,0,1,.42-.32l11-1.42-10.95-1.6a.52.52,0,0,1-.34-.84l3.22-4.17-4.23,3.15a.52.52,0,0,1-.51.06.54.54,0,0,1-.32-.41l-1.42-11-1.6,11a.52.52,0,0,1-.84.34l-4.17-3.21,3.15,4.22a.52.52,0,0,1,.06.51.5.5,0,0,1-.41.32l-11,1.42,10.94,1.6a.52.52,0,0,1,.41.32.54.54,0,0,1-.07.52L12.41,25.5l4.23-3.15a.57.57,0,0,1,.52-.06.52.52,0,0,1,.31.42l1.42,11,1.6-10.95a.54.54,0,0,1,.32-.41l.11,0A.55.55,0,0,1,21.33,22.39Z"/></g></g></svg>