<svg xmlns="http://www.w3.org/2000/svg" viewBox="0 0 1040.34 768.22"><defs><style>.cls-1{fill:#922160;}</style></defs><g id="Layer_2" data-name="Layer 2"><g id="BG"><path class="cls-1" d="M59.3,31.12c6.49,0,8.23,1.73,8.23,8.14,0-6.41,1.75-8.14,8.24-8.14-6.49,0-8.24-1.73-8.24-8.15C67.53,29.39,65.79,31.12,59.3,31.12Z"/><path class="cls-1" d="M66.42,39.26c0-5.79-1.27-7-7.12-7a1.1,1.1,0,1,1,0-2.2c5.85,0,7.12-1.26,7.12-7a1.12,1.12,0,0,1,2.23,0c0,5.79,1.26,7.05,7.12,7.05a1.1,1.1,0,1,1,0,2.2c-5.86,0-7.12,1.25-7.12,7a1.12,1.12,0,0,1-2.23,0ZM67.53,29a5.17,5.17,0,0,1-2.12,2.1,5.17,5.17,0,0,1,2.12,2.1,5.23,5.23,0,0,1,2.12-2.1A5.23,5.23,0,0,1,67.53,29Z"/><path class="cls-1" d="M80.56,377.5c11.28,0,14.31,3,14.31,14.32,0-11.28,3-14.32,14.32-14.32-11.28,0-14.32-3-14.32-14.31C94.87,374.47,91.84,377.5,80.56,377.5Z"/><path class="cls-1" d="M94.07,391.82c0-10.87-2.65-13.52-13.51-13.52a.8.8,0,1,1,0-1.6c10.86,0,13.51-2.65,13.51-13.52a.8.8,0,0,1,1.6,0c0,10.87,2.65,13.52,13.52,13.52a.8.8,0,0,1,0,1.6c-10.87,0-13.52,2.65-13.52,13.52a.8.8,0,1,1-1.6,0Zm.8-21a8.73,8.73,0,0,1-6.69,6.69,8.75,8.75,0,0,1,6.69,6.69,8.78,8.78,0,0,1,6.69-6.69A8.76,8.76,0,0,1,94.87,370.81Z"/><polygon class="cls-1" points="781.45 176.32 772.01 175.02 781.45 173.72 782.75 164.27 784.06 173.72 793.5 175.02 784.06 176.32 782.75 185.76 781.45 176.32"/><path class="cls-1" d="M782,185.87,780.75,177l-8.85-1.22a.8.8,0,0,1,0-1.58l8.85-1.22,1.21-8.85a.81.81,0,0,1,.79-.69h0a.82.82,0,0,1,.8.69l1.21,8.85,8.85,1.22a.8.8,0,0,1,0,1.58L784.76,177l-1.21,8.84a.81.81,0,0,1-.8.69A.8.8,0,0,1,782,185.87Zm2-11.36a.8.8,0,0,1-.68-.69l-.52-3.7-.5,3.7a.81.81,0,0,1-.69.69l-3.71.51,3.71.51a.81.81,0,0,1,.69.68l.5,3.71.52-3.71a.8.8,0,0,1,.68-.68l3.71-.51Z"/><polygon class="cls-1" points="680.52 12.85 671.08 11.54 680.52 10.24 681.83 0.8 683.13 10.24 692.57 11.54 683.13 12.85 681.83 22.29 680.52 12.85"/><path class="cls-1" d="M681,22.4l-1.21-8.84L671,12.34a.8.8,0,0,1,0-1.59l8.85-1.22L681,.69a.8.8,0,0,1,.79-.69h0a.81.81,0,0,1,.8.69l1.22,8.84,8.84,1.22a.8.8,0,0,1,0,1.59l-8.84,1.22-1.22,8.84a.8.8,0,0,1-1.59,0ZM683,11a.79.79,0,0,1-.68-.68l-.52-3.71-.5,3.71a.8.8,0,0,1-.69.68l-3.71.51,3.71.52a.8.8,0,0,1,.69.68l.5,3.71.52-3.71a.79.79,0,0,1,.68-.68l3.72-.52Z"/><circle class="cls-1" cx="641.44" cy="162.12" r="4.38"/><circle class="cls-1" cx="857.39" cy="669.02" r="4.38"/><circle class="cls-1" cx="128.93" cy="763.84" r="4.38"/><circle class="cls-1" cx="833.38" cy="96.5" r="4.38"/><circle class="cls-1" cx="4.38" cy="324.92" r="4.38"/><path class="cls-1" d="M446,179.47a3.95,3.95,0,1,0,3.95-3.95A4,4,0,0,0,446,179.47Z"/><path class="cls-1" d="M1032.44,695.73a4,4,0,1,0,4-4A4,4,0,0,0,1032.44,695.73Z"/><path class="cls-1" d="M599.76,502.87a4,4,0,1,0,4-3.95A4,4,0,0,0,599.76,502.87Z"/><path class="cls-1" d="M151.67,190.36a3.28,3.28,0,1,0,3.28-3.24A3.26,3.26,0,0,0,151.67,190.36Z"/><path class="cls-1" d="M294.17,359.65a1.46,1.46,0,1,0,1.56,1.36A1.45,1.45,0,0,0,294.17,359.65Z"/><path class="cls-1" d="M663.54,100a1.46,1.46,0,1,0,1.55,1.36A1.45,1.45,0,0,0,663.54,100Z"/><path class="cls-1" d="M837.66,49.64A1.46,1.46,0,1,0,839.22,51,1.47,1.47,0,0,0,837.66,49.64Z"/><path class="cls-1" d="M628.15,326.08a1.46,1.46,0,0,0,.2,2.91,1.46,1.46,0,1,0-.2-2.91Z"/><path class="cls-1" d="M231.31,146.65a1.44,1.44,0,1,0,1.55,1.34A1.45,1.45,0,0,0,231.31,146.65Z"/></g></g></svg>