<svg xmlns="http://www.w3.org/2000/svg" viewBox="0 0 228.14 228.14"><defs><style>.cls-1{fill:#922160;}</style></defs><g id="Layer_2" data-name="Layer 2"><g id="BG"><path class="cls-1" d="M51.61,114.07a62.46,62.46,0,1,1,62.46,62.45A62.53,62.53,0,0,1,51.61,114.07Zm1,0A61.47,61.47,0,1,0,114.07,52.6,61.54,61.54,0,0,0,52.6,114.07Z"/><path class="cls-1" d="M47.44,114.07a66.63,66.63,0,1,1,66.63,66.63A66.71,66.71,0,0,1,47.44,114.07Zm1,0a65.64,65.64,0,1,0,65.64-65.64A65.71,65.71,0,0,0,48.43,114.07Z"/><path class="cls-1" d="M113.76,93.61A30.63,30.63,0,0,0,112,83.73a.65.65,0,0,0-.37-.36.53.53,0,0,0-.41,0,9.68,9.68,0,0,0-2.78,2.05h0a.49.49,0,0,1-.7-.7h0a9.94,9.94,0,0,0,2-2.81.52.52,0,0,0,0-.41.67.67,0,0,0-.37-.37,29.91,29.91,0,0,0-9.92-1.47h0a.49.49,0,0,1-.49-.49.48.48,0,0,1,.48-.5c2.38,0,7.14-.42,9.92-1.68a.67.67,0,0,0,.35-.37.53.53,0,0,0,0-.41,9.77,9.77,0,0,0-2.07-2.83h0a.49.49,0,0,1,0-.7.5.5,0,0,1,.7,0h0a9.69,9.69,0,0,0,2.84,2,.5.5,0,0,0,.4,0,.66.66,0,0,0,.38-.37c1.13-2.61,1.49-6.84,1.46-9.92h0a.5.5,0,0,1,.49-.51h0a.51.51,0,0,1,.5.49h0c0,3.28.48,7.62,1.59,9.94a.65.65,0,0,0,.88.3,9.76,9.76,0,0,0,2.8-2h0a.5.5,0,1,1,.71.69h0A10,10,0,0,0,118.44,76a.51.51,0,0,0,0,.42.61.61,0,0,0,.3.33,27.56,27.56,0,0,0,10,1.59h0a.5.5,0,0,1,0,1h0c-2.42,0-7,.53-9.86,1.76a.72.72,0,0,0-.36.37.54.54,0,0,0,0,.41,9.82,9.82,0,0,0,2,2.75h0a.5.5,0,0,1,0,.7.49.49,0,0,1-.7,0,9.55,9.55,0,0,0-2.91-2,.61.61,0,0,0-.77.36c-1.37,3.12-1.42,8.41-1.4,10h0a.49.49,0,0,1-.49.5h0A.51.51,0,0,1,113.76,93.61Zm3.56-11.24.43.2c0-.11-.11-.21-.16-.32a1.53,1.53,0,0,1,0-1.19,1.63,1.63,0,0,1,.89-.93A20.45,20.45,0,0,1,123,78.85a20.65,20.65,0,0,1-4.67-1.24,1.6,1.6,0,0,1-.85-.88,1.54,1.54,0,0,1,0-1.19l.12-.25-.39.2a1.65,1.65,0,0,1-2.19-.77,15.69,15.69,0,0,1-1.15-4,17.63,17.63,0,0,1-1.09,4,1.71,1.71,0,0,1-.93.9,1.5,1.5,0,0,1-1.16,0h0l-.36-.17c.07.13.14.27.2.41a1.53,1.53,0,0,1,0,1.17,1.67,1.67,0,0,1-.88.93,18.4,18.4,0,0,1-4.36,1.21,20.35,20.35,0,0,1,4.35,1.1,1.66,1.66,0,0,1,.92.92,1.47,1.47,0,0,1,0,1.18c0,.12-.11.24-.16.35l.34-.17a1.54,1.54,0,0,1,1.19,0,1.66,1.66,0,0,1,.93.89,21.07,21.07,0,0,1,1.19,4.2,16.86,16.86,0,0,1,1.12-4.29,1.63,1.63,0,0,1,1.48-1A1.36,1.36,0,0,1,117.32,82.37Zm-6.38-7.26h0Z"/><path class="cls-1" d="M155.85,125.59a8,8,0,0,0,.7-3.07,3.86,3.86,0,0,0-3.73-4.11,8,8,0,0,0-3.13.4,16.43,16.43,0,0,0-9.27,8.44,8.08,8.08,0,0,0-.7,3.08,4.44,4.44,0,0,0,1,2.84,4.38,4.38,0,0,0,2.73,1.26,8.17,8.17,0,0,0,3.13-.41,16.58,16.58,0,0,0,9.26-8.43Zm-9,9.34a9.24,9.24,0,0,1-3.48.27,5.18,5.18,0,0,1-3.16-1.56,5.12,5.12,0,0,1-1.24-3.3,9.2,9.2,0,0,1,.6-3.42,15.08,15.08,0,0,1,9.87-9,9.21,9.21,0,0,1,3.47-.27,5.13,5.13,0,0,1,3.17,1.54,5.21,5.21,0,0,1,1.25,3.3,9.14,9.14,0,0,1-.6,3.44,15,15,0,0,1-9.88,9Z"/><path class="cls-1" d="M71.4,125.94a9.33,9.33,0,0,1-.59-3.44,5.21,5.21,0,0,1,1.25-3.3,5.11,5.11,0,0,1,3.17-1.54,9.21,9.21,0,0,1,3.47.27,15.08,15.08,0,0,1,9.87,9,9.2,9.2,0,0,1,.6,3.42,5.12,5.12,0,0,1-1.24,3.3,5.18,5.18,0,0,1-3.17,1.56,9.21,9.21,0,0,1-3.47-.27,15.06,15.06,0,0,1-9.89-9ZM81.55,134a8.14,8.14,0,0,0,3.13.41,3.88,3.88,0,0,0,3.74-4.1,8.28,8.28,0,0,0-.7-3.08,16.41,16.41,0,0,0-9.28-8.44,8,8,0,0,0-3.13-.4,3.86,3.86,0,0,0-3.72,4.11,8,8,0,0,0,.7,3.07,15.16,15.16,0,0,0,3.8,5.12A15.35,15.35,0,0,0,81.55,134Z"/><path class="cls-1" d="M125.92,148.35a17.83,17.83,0,0,1-2.72,1.72,24.71,24.71,0,0,1-2.93,1.31,20.44,20.44,0,0,1-6.2,1.31h0a.49.49,0,0,0-.46.53.48.48,0,0,0,.48.46,15.34,15.34,0,0,0,3.38-.28,18.84,18.84,0,0,0,3.22-1,15.31,15.31,0,0,0,5.5-3.8.17.17,0,0,0,0-.24.18.18,0,0,0-.22,0Z"/><path class="cls-1" d="M129.82,144.36a15.75,15.75,0,0,1-7.9-1.06c-1.27-.49-2.34-1.2-3.67-1.85a3.09,3.09,0,0,0-2.36-.2,6,6,0,0,1-1.82.54.49.49,0,0,0-.5.49.5.5,0,0,0,.48.5h0a6.44,6.44,0,0,0,2.13-.54,2.08,2.08,0,0,1,1.64.15c1.14.55,2.4,1.34,3.71,1.83,2.7,1,5.58.94,8.32.79a.33.33,0,1,0,0-.65Z"/><path class="cls-1" d="M129.72,144.38a30.89,30.89,0,0,1-7.72,1.75,21.61,21.61,0,0,1-3.94,0,9.26,9.26,0,0,1-1.89-.35,6.57,6.57,0,0,0-2.1-.37h0a.52.52,0,0,0-.49.51.5.5,0,0,0,.51.48,5.4,5.4,0,0,1,1.84.29A9.32,9.32,0,0,0,118,147a23.39,23.39,0,0,0,4.1-.06,31.75,31.75,0,0,0,7.9-2,.34.34,0,0,0,.18-.44.33.33,0,0,0-.42-.19Z"/><path class="cls-1" d="M129.33,143.87a6.51,6.51,0,0,1,.4.89c.15.31.22.66.43,1.05v0a.24.24,0,0,0,.32.11.22.22,0,0,0,.12-.13,1.72,1.72,0,0,0,.14-.68,2.45,2.45,0,0,0-.12-.7,1.54,1.54,0,0,0-1.08-1,.24.24,0,0,0-.28.34Z"/><path class="cls-1" d="M120.57,126.8a4.1,4.1,0,0,1,1.58,3.27,3,3,0,0,1-2.13,2.69h0a.22.22,0,0,0,.1.43,3.43,3.43,0,0,0,2.11-.9,3.2,3.2,0,0,0,1-2.19,4,4,0,0,0-.63-2.26,4.14,4.14,0,0,0-1.72-1.47.23.23,0,0,0-.32.11.23.23,0,0,0,.06.28Z"/><path class="cls-1" d="M115.73,136.34a8.86,8.86,0,0,0,.62,4.21.45.45,0,0,0,.83-.35.08.08,0,0,0,0,0,10.25,10.25,0,0,1-1.06-3.81h0a.19.19,0,0,0-.2-.17A.17.17,0,0,0,115.73,136.34Z"/><path class="cls-1" d="M120.65,158a6.23,6.23,0,0,0-1.29-1.37,7.54,7.54,0,0,0-1.6-1,8.56,8.56,0,0,0-3.69-.81.49.49,0,0,0-.49.49.51.51,0,0,0,.49.5,9.38,9.38,0,0,1,6.27,2.43v0a.19.19,0,0,0,.28,0A.18.18,0,0,0,120.65,158Z"/><path class="cls-1" d="M116.9,126.1a3,3,0,0,1,0,1.3,2.13,2.13,0,0,1-.55,1,3.57,3.57,0,0,1-2.3.85h0a.5.5,0,0,0,0,1,3.84,3.84,0,0,0,3-1.2,2.66,2.66,0,0,0,.12-3.13.16.16,0,0,0-.23,0A.16.16,0,0,0,116.9,126.1Z"/><path class="cls-1" d="M119.6,130a9.84,9.84,0,0,0-1.76.79,4.47,4.47,0,0,0-1.27,1.21,3.29,3.29,0,0,1-2.5,1,.5.5,0,0,0-.45.54.49.49,0,0,0,.45.45,4,4,0,0,0,1.79-.25,2.92,2.92,0,0,0,1.4-1.28,2.49,2.49,0,0,1,.88-1.19,1.29,1.29,0,0,1,1.38.11.83.83,0,0,0,1.15-.17.82.82,0,0,0-.17-1.15.79.79,0,0,0-.78-.11Z"/><path class="cls-1" d="M120.81,98.73a16.07,16.07,0,0,0-2.36,5.06,41.71,41.71,0,0,0-1.21,5.35,48.42,48.42,0,0,0-.58,10.88.16.16,0,0,0,.17.15A.17.17,0,0,0,117,120a100.06,100.06,0,0,1,1.35-10.69c.32-1.76.75-3.5,1.23-5.21a17.86,17.86,0,0,1,2-4.79l0,0a.49.49,0,0,0-.13-.68A.5.5,0,0,0,120.81,98.73Z"/><path class="cls-1" d="M155.38,97.68a43.33,43.33,0,0,0-8.67-4.26,29,29,0,0,0-9.52-1.85,25,25,0,0,0-9.44,2.26,22.68,22.68,0,0,0-4.17,2.52,18.82,18.82,0,0,0-1.87,1.58l-.43.42-.21.2-.06.06v0c-.09.07.17-.21.53.09.19.33.08.27.11.29a.34.34,0,0,1,0,.1,7.08,7.08,0,0,1,.56-.87c3.73-5,9.81-8.42,16.09-8s12.06,3.8,16.58,8.07l0,0a.41.41,0,0,0,.57,0,.4.4,0,0,0,0-.56,31.32,31.32,0,0,0-7.8-5.74,22.94,22.94,0,0,0-9.31-2.68c-6.64-.41-13,3.2-16.87,8.38a6.07,6.07,0,0,0-.71,1.15,1.11,1.11,0,0,0,0,.17s-.08,0,.12.32c.37.3.65,0,.56.09l.11-.07a1.27,1.27,0,0,0,.16-.15l.23-.21.42-.41a20,20,0,0,1,1.79-1.52,22,22,0,0,1,4-2.41,24,24,0,0,1,9.06-2.18,28.17,28.17,0,0,1,9.2,1.81,43.14,43.14,0,0,1,8.54,4.06.4.4,0,1,0,.44-.67Z"/><path class="cls-1" d="M102,148.58a15.31,15.31,0,0,0,5.5,3.8,18.84,18.84,0,0,0,3.22,1,15.34,15.34,0,0,0,3.38.28.48.48,0,0,0,.48-.5.5.5,0,0,0-.46-.49h0a20.32,20.32,0,0,1-6.2-1.31,24.71,24.71,0,0,1-2.93-1.31,17.35,17.35,0,0,1-2.72-1.72h0a.17.17,0,0,0-.24,0A.18.18,0,0,0,102,148.58Z"/><path class="cls-1" d="M98.26,145c2.75.15,5.63.25,8.33-.79,1.31-.49,2.57-1.28,3.71-1.83a2.05,2.05,0,0,1,1.63-.15,6.5,6.5,0,0,0,2.14.54h0a.5.5,0,0,0,.48-.51.49.49,0,0,0-.5-.48,5.89,5.89,0,0,1-1.82-.54,3.09,3.09,0,0,0-2.36.2c-1.33.65-2.4,1.36-3.67,1.85a15.79,15.79,0,0,1-7.91,1.06.33.33,0,0,0-.35.29.33.33,0,0,0,.29.36Z"/><path class="cls-1" d="M98.16,145a31.53,31.53,0,0,0,7.9,2,23.29,23.29,0,0,0,4.09.06,9.13,9.13,0,0,0,2.07-.34,5.49,5.49,0,0,1,1.85-.29.48.48,0,0,0,.5-.48.5.5,0,0,0-.48-.51h0a6.68,6.68,0,0,0-2.11.37,9,9,0,0,1-1.88.35,21.61,21.61,0,0,1-3.94,0,30.89,30.89,0,0,1-7.72-1.75h0a.34.34,0,0,0-.43.2A.34.34,0,0,0,98.16,145Z"/><path class="cls-1" d="M98.59,143.4a1.54,1.54,0,0,0-1.08,1,2.15,2.15,0,0,0-.12.7,1.72,1.72,0,0,0,.14.68.24.24,0,0,0,.32.14.34.34,0,0,0,.12-.12v0c.2-.39.28-.74.42-1.05a6.56,6.56,0,0,1,.41-.89l.06-.13a.24.24,0,0,0-.28-.34Z"/><path class="cls-1" d="M107.33,126.38a4.08,4.08,0,0,0-1.72,1.47,4,4,0,0,0-.63,2.26,3.2,3.2,0,0,0,1,2.19,3.43,3.43,0,0,0,2.1.9.23.23,0,0,0,.25-.2.21.21,0,0,0-.14-.23h0a3,3,0,0,1-2.14-2.69,4.14,4.14,0,0,1,1.59-3.27l0,0a.23.23,0,0,0,0-.33A.22.22,0,0,0,107.33,126.38Z"/><path class="cls-1" d="M112,136.35a10.44,10.44,0,0,1-1.06,3.81.45.45,0,0,0,.79.43l0,0a8.86,8.86,0,0,0,.62-4.21.2.2,0,0,0-.2-.17.19.19,0,0,0-.17.17Z"/><path class="cls-1" d="M107.8,158.19a9.36,9.36,0,0,1,6.27-2.43.5.5,0,0,0,.49-.5.49.49,0,0,0-.49-.49,8.56,8.56,0,0,0-3.69.81,7.3,7.3,0,0,0-1.6,1,6.27,6.27,0,0,0-1.3,1.37.21.21,0,0,0,.06.28.19.19,0,0,0,.24,0Z"/><path class="cls-1" d="M110.94,126a2.65,2.65,0,0,0,.14,3.12,3.85,3.85,0,0,0,3,1.19.5.5,0,0,0,0-1h0a3.57,3.57,0,0,1-2.29-.84,2.15,2.15,0,0,1-.56-1,3,3,0,0,1,0-1.31.16.16,0,0,0-.12-.2A.16.16,0,0,0,110.94,126Z"/><path class="cls-1" d="M108.62,131.35a1.29,1.29,0,0,1,1.38-.11,2.55,2.55,0,0,1,.88,1.19,2.94,2.94,0,0,0,1.39,1.28,4.06,4.06,0,0,0,1.8.25.5.5,0,0,0,0-1,3.29,3.29,0,0,1-2.5-1,4.38,4.38,0,0,0-1.28-1.21,9.43,9.43,0,0,0-1.75-.79l-.12,0a.82.82,0,1,0-.59,1.53A.82.82,0,0,0,108.62,131.35Z"/><path class="cls-1" d="M106.54,99.33a17.83,17.83,0,0,1,2,4.79c.49,1.71.92,3.45,1.24,5.21A100.06,100.06,0,0,1,111.17,120a.16.16,0,0,0,.16.15.17.17,0,0,0,.15-.15,49,49,0,0,0-.58-10.88,41.71,41.71,0,0,0-1.21-5.35,16.1,16.1,0,0,0-2.37-5.06.49.49,0,0,0-.8.57Z"/><path class="cls-1" d="M73.2,98.35a43.14,43.14,0,0,1,8.54-4.06,28.11,28.11,0,0,1,9.19-1.81A24,24,0,0,1,100,94.66a22,22,0,0,1,4,2.41,20,20,0,0,1,1.79,1.52l.42.41.22.21.17.15.11.07c-.09-.06.19.21.56-.09.2-.33.09-.28.12-.32a.55.55,0,0,0,0-.17,5.61,5.61,0,0,0-.7-1.15c-3.89-5.18-10.23-8.79-16.87-8.38A22.9,22.9,0,0,0,80.49,92a31.14,31.14,0,0,0-7.8,5.74.41.41,0,0,0,0,.57.42.42,0,0,0,.57,0l0,0c4.51-4.27,10.31-7.7,16.58-8.07s12.36,3.06,16.08,8a7.35,7.35,0,0,1,.57.87.34.34,0,0,1,0-.1s-.07,0,.12-.29c.35-.3.62,0,.52-.09v0l-.06-.06-.21-.2-.44-.42a18.7,18.7,0,0,0-1.86-1.58,22.43,22.43,0,0,0-4.18-2.52,25,25,0,0,0-9.44-2.26,29,29,0,0,0-9.51,1.85,43.33,43.33,0,0,0-8.67,4.26.39.39,0,0,0-.12.55A.4.4,0,0,0,73.2,98.35Z"/><path class="cls-1" d="M150.65,106.79a4.33,4.33,0,0,0-3.37,0c-1.05.41-2,.9-3,1.34a13.16,13.16,0,0,1-6.07,1.38,41.91,41.91,0,0,1-6.34-1,8,8,0,0,0-3.42,0,5.26,5.26,0,0,0-2.62,2.15.17.17,0,0,0,0,.23.17.17,0,0,0,.22,0h0a5.29,5.29,0,0,1,2.56-1.62,7.31,7.31,0,0,1,3,.16,37.89,37.89,0,0,0,6.49,1.06,13.59,13.59,0,0,0,6.49-1.48c2-.91,3.76-2.33,5.85-1.88a.17.17,0,0,0,.21-.14A.17.17,0,0,0,150.65,106.79Z"/><path class="cls-1" d="M152.1,111.13a11.69,11.69,0,0,1-4.33-.4,10.63,10.63,0,0,1-2-.79,4.66,4.66,0,0,1-1.59-1.2l0,0a.51.51,0,0,0-.7-.11.5.5,0,0,0-.11.69l0,0a5.47,5.47,0,0,0,2,1.34,11,11,0,0,0,2.21.67,12.06,12.06,0,0,0,4.52.07.14.14,0,0,0,.12-.16A.16.16,0,0,0,152.1,111.13Z"/><path class="cls-1" d="M156.31,108.33a8.86,8.86,0,0,1-2.55.65,14.45,14.45,0,0,1-2.63.06,10.4,10.4,0,0,1-4.89-1.55.48.48,0,0,0-.66.14.47.47,0,0,0,.14.65l0,0a11.27,11.27,0,0,0,5.35,1.4,12.6,12.6,0,0,0,2.74-.26,9.67,9.67,0,0,0,2.59-.88.13.13,0,0,0,0-.18.13.13,0,0,0-.16,0Z"/><path class="cls-1" d="M154.49,107.78a10.39,10.39,0,0,1-3.63.29,9.11,9.11,0,0,1-3.39-1.16.41.41,0,1,0-.4.72l0,0a10,10,0,0,0,3.72.94,10.61,10.61,0,0,0,3.73-.6.11.11,0,0,0,.07-.14A.11.11,0,0,0,154.49,107.78Z"/><path class="cls-1" d="M142.16,109.69a7.09,7.09,0,0,0,3.34,2,11.35,11.35,0,0,0,3.74.55.11.11,0,0,0,.11-.11.11.11,0,0,0-.1-.11,11.49,11.49,0,0,1-3.57-.84,6.64,6.64,0,0,1-2.83-2h0a.43.43,0,0,0-.61-.1.44.44,0,0,0-.1.61Z"/><path class="cls-1" d="M140.6,110a7.19,7.19,0,0,0,2.49,2.19,6.59,6.59,0,0,0,3.07,1,.09.09,0,0,0,.1-.09.1.1,0,0,0-.09-.1,6.33,6.33,0,0,1-2.8-1.21,6.47,6.47,0,0,1-2-2.15v0a.42.42,0,0,0-.56-.19.43.43,0,0,0-.19.57S140.59,110,140.6,110Z"/><path class="cls-1" d="M138.73,110.25a9.26,9.26,0,0,0,1.55,1.89,8.9,8.9,0,0,0,1.93,1.42.17.17,0,0,0,.22-.07.16.16,0,0,0-.05-.2,9.33,9.33,0,0,1-2.85-3.45v0a.46.46,0,0,0-.6-.22.45.45,0,0,0-.22.6Z"/><path class="cls-1" d="M137.76,110.16a5.87,5.87,0,0,0,.89,1.55,6.08,6.08,0,0,0,1.21,1.22.11.11,0,0,0,.16,0,.14.14,0,0,0,0-.15,6.09,6.09,0,0,1-1.42-2.79v0a.43.43,0,0,0-.5-.34.44.44,0,0,0-.34.5S137.75,110.14,137.76,110.16Z"/><path class="cls-1" d="M135.49,110a6,6,0,0,0,2.23,2.75.18.18,0,0,0,.24-.06.19.19,0,0,0-.05-.23,5.58,5.58,0,0,1-1.69-2.7v0a.38.38,0,1,0-.73.23S135.49,110,135.49,110Z"/><path class="cls-1" d="M134.39,109.76a4,4,0,0,0,.55,1.32,4.52,4.52,0,0,0,.88,1.06.16.16,0,0,0,.22,0,.15.15,0,0,0,0-.2,4.38,4.38,0,0,1-.65-1.07,3.65,3.65,0,0,1-.29-1.17h0a.36.36,0,1,0-.71,0Z"/><path class="cls-1" d="M132.55,109.2a3,3,0,0,0,.42,1.2,2.49,2.49,0,0,0,.82.92.15.15,0,0,0,.21,0,.17.17,0,0,0,0-.2h0a2.75,2.75,0,0,1-.72-1.86v0a.35.35,0,0,0-.33-.36.36.36,0,0,0-.36.34Z"/><path class="cls-1" d="M150.39,110a11.7,11.7,0,0,1-2.83-.53,4.82,4.82,0,0,1-2.28-1.39h0a.44.44,0,0,0-.7.54l0,0a5.48,5.48,0,0,0,2.81,1.34,11.9,11.9,0,0,0,3,.21.09.09,0,0,0,.09-.1A.1.1,0,0,0,150.39,110Z"/><path class="cls-1" d="M146.65,103.55a11.38,11.38,0,0,0-3.82-1.89,12.43,12.43,0,0,0-4.3-.43,11.32,11.32,0,0,0-4.16,1.19A11.85,11.85,0,0,0,131,105a.11.11,0,0,0,0,.13.11.11,0,0,0,.12,0,20.47,20.47,0,0,1,3.63-1.93,11.92,11.92,0,0,1,3.89-.9,13.87,13.87,0,0,1,4,.2,19.24,19.24,0,0,1,3.92,1.2.11.11,0,0,0,.13,0A.11.11,0,0,0,146.65,103.55Z"/><path class="cls-1" d="M77.6,107.12c2.08-.45,3.87,1,5.85,1.88a13.59,13.59,0,0,0,6.49,1.48,37.78,37.78,0,0,0,6.48-1.06,7.36,7.36,0,0,1,3-.16,5.29,5.29,0,0,1,2.56,1.62h0a.17.17,0,0,0,.23,0,.16.16,0,0,0,0-.22,5.22,5.22,0,0,0-2.62-2.15,8,8,0,0,0-3.41,0,42.11,42.11,0,0,1-6.34,1,13.16,13.16,0,0,1-6.07-1.38c-1-.44-1.94-.93-3-1.34a4.36,4.36,0,0,0-3.38,0,.18.18,0,0,0-.08.23A.19.19,0,0,0,77.6,107.12Z"/><path class="cls-1" d="M76,111.41a12.11,12.11,0,0,0,4.53-.07,11,11,0,0,0,2.21-.67,5.44,5.44,0,0,0,2-1.34.49.49,0,0,0,0-.7.5.5,0,0,0-.7,0l0,0,0,0a4.76,4.76,0,0,1-1.59,1.2,10.63,10.63,0,0,1-2,.79,11.72,11.72,0,0,1-4.34.4.15.15,0,0,0-.15.13A.13.13,0,0,0,76,111.41Z"/><path class="cls-1" d="M71.7,108.56a9.74,9.74,0,0,0,2.6.88,12.54,12.54,0,0,0,2.74.26,11.27,11.27,0,0,0,5.35-1.4.47.47,0,0,0,.18-.64.48.48,0,0,0-.64-.19l0,0A10.48,10.48,0,0,1,77,109a14.45,14.45,0,0,1-2.63-.06,8.78,8.78,0,0,1-2.55-.65h0a.13.13,0,0,0-.17.06A.14.14,0,0,0,71.7,108.56Z"/><path class="cls-1" d="M73.59,108a10.61,10.61,0,0,0,3.73.6,10.06,10.06,0,0,0,3.72-.94.41.41,0,0,0,.2-.55.4.4,0,0,0-.54-.2h0a9.11,9.11,0,0,1-3.39,1.16,10.37,10.37,0,0,1-3.63-.29.12.12,0,0,0-.14.08A.11.11,0,0,0,73.59,108Z"/><path class="cls-1" d="M85.29,109.16a6.61,6.61,0,0,1-2.84,2,11.36,11.36,0,0,1-3.56.84.1.1,0,0,0-.1.11.11.11,0,0,0,.11.11,11.38,11.38,0,0,0,3.74-.55,7.13,7.13,0,0,0,3.34-2,.44.44,0,0,0,0-.62.43.43,0,0,0-.62.05l0,0Z"/><path class="cls-1" d="M86.8,109.59a6.57,6.57,0,0,1-2,2.15A6.36,6.36,0,0,1,82,113a.1.1,0,0,0-.09.1.11.11,0,0,0,.1.09,6.59,6.59,0,0,0,3.08-1A7.08,7.08,0,0,0,87.53,110a.42.42,0,1,0-.7-.46.05.05,0,0,0,0,0Z"/><path class="cls-1" d="M88.61,109.84a9.33,9.33,0,0,1-2.85,3.45.16.16,0,0,0,.17.27,8.9,8.9,0,0,0,1.93-1.42,9.26,9.26,0,0,0,1.55-1.89.45.45,0,0,0-.14-.62.46.46,0,0,0-.63.14s0,0,0,0Z"/><path class="cls-1" d="M89.55,110a6.09,6.09,0,0,1-1.42,2.79.12.12,0,0,0,0,.17.12.12,0,0,0,.15,0,6.08,6.08,0,0,0,1.21-1.22,6.16,6.16,0,0,0,.89-1.55.43.43,0,1,0-.81-.29s0,0,0,.06Z"/><path class="cls-1" d="M91.92,109.73a5.58,5.58,0,0,1-1.69,2.7.16.16,0,0,0,0,.24.17.17,0,0,0,.23,0A6,6,0,0,0,92.65,110a.39.39,0,0,0-.2-.51.38.38,0,0,0-.51.2s0,0,0,0Z"/><path class="cls-1" d="M93,109.68a3.91,3.91,0,0,1-.28,1.17,4.38,4.38,0,0,1-.65,1.07.16.16,0,0,0,0,.22.16.16,0,0,0,.2,0,4.33,4.33,0,0,0,.89-1.06,4.21,4.21,0,0,0,.54-1.32.36.36,0,0,0-.27-.43.37.37,0,0,0-.43.28.43.43,0,0,1,0,0Z"/><path class="cls-1" d="M94.89,109.2a2.74,2.74,0,0,1-.71,1.86h0a.17.17,0,0,0,0,.23.17.17,0,0,0,.2,0,2.49,2.49,0,0,0,.82-.92,3.16,3.16,0,0,0,.42-1.2.35.35,0,0,0-.31-.38.36.36,0,0,0-.39.31v.07Z"/><path class="cls-1" d="M77.75,110.23a11.82,11.82,0,0,0,3-.21,5.4,5.4,0,0,0,2.81-1.34.43.43,0,0,0,0-.62.44.44,0,0,0-.62,0s0,0,0,0h0a4.86,4.86,0,0,1-2.29,1.39,11.62,11.62,0,0,1-2.82.53.1.1,0,0,0-.1.11A.11.11,0,0,0,77.75,110.23Z"/><path class="cls-1" d="M81.59,103.72a19.05,19.05,0,0,1,3.92-1.2,13.87,13.87,0,0,1,4-.2,12,12,0,0,1,3.89.9A20.47,20.47,0,0,1,97,105.15a.09.09,0,0,0,.13,0,.13.13,0,0,0,0-.12,12,12,0,0,0-3.39-2.59,11.32,11.32,0,0,0-4.16-1.19,12.43,12.43,0,0,0-4.3.43,11.53,11.53,0,0,0-3.83,1.89.1.1,0,0,0,0,.14S81.55,103.73,81.59,103.72Z"/><path class="cls-1" d="M102.59,49.24a.52.52,0,0,0,.38-.17,15.84,15.84,0,0,0,3.74-11.17c-.11-3.36-1.42-6.1-2.68-8.75-1.39-2.91-2.82-5.92-2.8-9.88,0-7.82,4.71-13.24,8-16.07A19.5,19.5,0,0,0,105.58,13c-.25,5.29,1.9,8.38,4.4,12,.92,1.31,1.86,2.66,2.79,4.24,3.43,5.91,6,11,5,18.68a.5.5,0,0,0,.43.56.5.5,0,0,0,.55-.43c1-8-1.59-13.23-5.12-19.31-.94-1.61-1.9-3-2.83-4.31C108.3,20.81,106.33,18,106.57,13,106.88,6.4,112.31.9,112.36.85a.49.49,0,0,0,0-.65.47.47,0,0,0-.63-.13c-.12.06-11.47,6.69-11.53,19.2,0,4.18,1.46,7.29,2.9,10.3,1.27,2.68,2.48,5.21,2.58,8.36a14.75,14.75,0,0,1-3.5,10.48.5.5,0,0,0,0,.7A.5.5,0,0,0,102.59,49.24Z"/><path class="cls-1" d="M128.26,50h0a.51.51,0,0,0,.49-.5l-.45-30.68a.51.51,0,0,0-.43-.48.49.49,0,0,0-.54.35L118.44,48a.5.5,0,0,0,1,.28l8-26.27.41,27.49A.49.49,0,0,0,128.26,50Z"/><path class="cls-1" d="M123.91,49a.5.5,0,0,0,.49-.43l3.9-29.75a.49.49,0,0,0-.42-.56.51.51,0,0,0-.56.43l-3.9,29.75a.5.5,0,0,0,.42.56Z"/><path class="cls-1" d="M143.24,55.06a.51.51,0,0,0,.43-.24c4-7,3.6-12.84,2.66-19.8-.25-1.85-.62-3.49-1-5.07-.94-4.25-1.68-7.6.43-12.09,2.84-6,9.95-9,10-9a.5.5,0,0,0,.29-.59.49.49,0,0,0-.54-.36c-.13,0-13.15,1.81-18,13.33-1.62,3.86-1.44,7.3-1.27,10.63.16,3,.3,5.76-.81,8.71a15,15,0,0,1-7.24,8.35.49.49,0,0,0-.23.66.5.5,0,0,0,.66.23,16,16,0,0,0,7.74-8.89c1.18-3.14,1-6.18.87-9.11-.17-3.22-.34-6.54,1.19-10.2,3-7.19,9.42-10.42,13.5-11.79a19.5,19.5,0,0,0-7.08,7.66c-2.25,4.79-1.44,8.47-.5,12.72.34,1.57.7,3.18.94,5,.92,6.78,1.31,12.49-2.53,19.17A.5.5,0,0,0,143,55,.54.54,0,0,0,143.24,55.06Z"/><path class="cls-1" d="M151.9,60.31a.48.48,0,0,0,.46-.32l11.32-28.51a.5.5,0,0,0-.2-.61.52.52,0,0,0-.64.12L143.41,54.67a.49.49,0,0,0,.07.7.49.49,0,0,0,.69-.07l17.42-21.23L151.44,59.63a.5.5,0,0,0,.28.64A.58.58,0,0,0,151.9,60.31Z"/><path class="cls-1" d="M148.23,57.79a.51.51,0,0,0,.43-.24l15-26a.49.49,0,0,0-.18-.68.51.51,0,0,0-.68.18l-15,26a.49.49,0,0,0,.43.74Z"/><path class="cls-1" d="M163.79,70.76a.48.48,0,0,0,.3-.11c6.35-4.89,8.23-10.47,10-17.27.48-1.8.77-3.45,1-5.05.76-4.29,1.36-7.67,5-11,4.93-4.48,12.64-4.53,12.72-4.53h0a.49.49,0,0,0,.49-.43.48.48,0,0,0-.36-.54c-.12,0-12.84-3.37-21.72,5.42-3,3-4.13,6.2-5.24,9.34-1,2.8-1.93,5.44-4.09,7.74a15,15,0,0,1-9.88,4.94.49.49,0,0,0-.47.52.51.51,0,0,0,.53.47A15.83,15.83,0,0,0,162.73,55C165,52.55,166,49.69,167,46.92c1.07-3,2.19-6.18,5-9,5.55-5.49,12.69-6,17-5.73a19.59,19.59,0,0,0-9.47,4.37c-3.91,3.55-4.57,7.26-5.33,11.56-.28,1.57-.57,3.2-1,5-1.75,6.61-3.57,12-9.67,16.74a.5.5,0,0,0,.3.89Z"/><path class="cls-1" d="M169.79,78.92a.44.44,0,0,0,.35-.16l21.37-22a.49.49,0,0,0,0-.64.48.48,0,0,0-.63-.14l-27,14.44a.49.49,0,0,0,.47.87l24.22-12.94L169.43,78.08a.5.5,0,0,0,0,.7A.52.52,0,0,0,169.79,78.92Z"/><path class="cls-1" d="M167.36,75.19a.49.49,0,0,0,.3-.1l23.8-18.28a.51.51,0,0,0,.09-.7.5.5,0,0,0-.7-.09L167.06,74.3A.49.49,0,0,0,167,75,.47.47,0,0,0,167.36,75.19Z"/><path class="cls-1" d="M176.77,93.12l.13,0C184.64,91,188.51,86.57,192.77,81c1.14-1.49,2-2.9,2.91-4.26,2.34-3.67,4.19-6.57,8.86-8.24,6.27-2.26,13.41.65,13.48.68a.49.49,0,0,0,.62-.21.5.5,0,0,0-.13-.64c-.1-.08-10.58-8-22.15-3.3-3.87,1.59-6.18,4.15-8.41,6.62-2,2.21-3.86,4.29-6.74,5.59a15,15,0,0,1-11,.78.5.5,0,0,0-.63.3.51.51,0,0,0,.31.64,16,16,0,0,0,11.75-.82c3.07-1.39,5.1-3.64,7.06-5.83,2.16-2.39,4.39-4.86,8.06-6.36,7.22-3,14-.72,17.88,1.2a19.62,19.62,0,0,0-10.42.41c-5,1.79-7,5-9.35,8.64-.87,1.35-1.76,2.75-2.87,4.2-4.14,5.44-7.9,9.76-15.34,11.76a.5.5,0,0,0,.13,1Z"/><path class="cls-1" d="M179.19,103a.43.43,0,0,0,.19,0l28.17-12.15a.5.5,0,0,0,.28-.58.49.49,0,0,0-.53-.37l-30.49,3a.5.5,0,0,0,.1,1l27.33-2.69L179,102a.5.5,0,0,0,.2,1Z"/><path class="cls-1" d="M178.37,98.58l.13,0,29-7.78a.49.49,0,1,0-.26-1l-29,7.78a.49.49,0,0,0-.35.6A.5.5,0,0,0,178.37,98.58Z"/><path class="cls-1" d="M183.55,119c6.14,0,10.73-2.35,15.89-5.35,1.62-.94,3-1.9,4.33-2.83,3.56-2.49,6.36-4.46,11.33-4.22,6.64.31,12.14,5.74,12.19,5.79a.49.49,0,0,0,.65,0,.48.48,0,0,0,.13-.64c-.06-.11-6.7-11.46-19.2-11.52h-.09c-4.14,0-7.23,1.47-10.21,2.89-2.68,1.28-5.21,2.49-8.37,2.59a15,15,0,0,1-10.48-3.5.5.5,0,0,0-.7,0,.49.49,0,0,0,0,.7,16.08,16.08,0,0,0,11.17,3.75c3.36-.11,6.1-1.42,8.75-2.68,2.89-1.38,5.87-2.8,9.79-2.8h.09c7.8,0,13.22,4.71,16.06,8a19.41,19.41,0,0,0-9.79-3.61c-5.28-.27-8.37,1.9-11.94,4.4-1.31.92-2.67,1.86-4.26,2.78-5.9,3.44-11,6-18.67,5a.49.49,0,1,0-.13,1A27.25,27.25,0,0,0,183.55,119Z"/><path class="cls-1" d="M178.68,128.76h0l30.67-.45a.51.51,0,0,0,.49-.43.5.5,0,0,0-.35-.54l-29.32-8.9a.51.51,0,0,0-.62.33.5.5,0,0,0,.33.62l26.28,8-27.49.41a.49.49,0,0,0-.49.5A.49.49,0,0,0,178.68,128.76Z"/><path class="cls-1" d="M209.34,128.31a.51.51,0,0,0,.5-.44.5.5,0,0,0-.43-.55l-29.75-3.9a.51.51,0,0,0-.56.42.5.5,0,0,0,.43.56l29.75,3.9Z"/><path class="cls-1" d="M219.79,156.12h.12a.51.51,0,0,0,.37-.54c0-.14-1.81-13.16-13.33-18-3.86-1.62-7.3-1.44-10.63-1.27-3,.15-5.76.3-8.72-.81a15,15,0,0,1-8.34-7.24.49.49,0,0,0-.89.43,15.8,15.8,0,0,0,8.88,7.74c3.15,1.18,6.18,1,9.12.87,3.21-.17,6.54-.34,10.19,1.19,7.21,3,10.43,9.43,11.8,13.51a19.52,19.52,0,0,0-7.66-7.09c-4.79-2.25-8.47-1.44-12.72-.5-1.57.34-3.18.7-5,.94-6.78.92-12.49,1.31-19.16-2.53a.5.5,0,0,0-.5.86c7,4,12.83,3.59,19.79,2.66,1.86-.26,3.5-.62,5.08-1,4.25-.93,7.6-1.68,12.09.44,6,2.83,9,9.95,9.05,10A.49.49,0,0,0,219.79,156.12Z"/><path class="cls-1" d="M196.83,163.72a.51.51,0,0,0,.43-.24.49.49,0,0,0-.11-.64L173.46,143.4a.49.49,0,0,0-.69.07.49.49,0,0,0,.07.7l21.22,17.42-25.55-10.15a.51.51,0,0,0-.64.28.48.48,0,0,0,.27.64l28.51,11.33A.57.57,0,0,0,196.83,163.72Z"/><path class="cls-1" d="M196.83,163.72a.5.5,0,0,0,.43-.25.48.48,0,0,0-.18-.67l-26-15a.5.5,0,0,0-.68.18.48.48,0,0,0,.18.67l26,15A.42.42,0,0,0,196.83,163.72Z"/><path class="cls-1" d="M195.83,193.42a.5.5,0,0,0,.48-.37c0-.13,3.37-12.84-5.43-21.73-2.94-3-6.19-4.12-9.33-5.24-2.8-1-5.44-1.92-7.74-4.08a15,15,0,0,1-4.94-9.88.49.49,0,0,0-.52-.47.5.5,0,0,0-.47.53,16,16,0,0,0,5.25,10.54c2.45,2.3,5.32,3.32,8.09,4.3,3,1.07,6.17,2.19,9,5,5.49,5.55,6,12.68,5.73,17a19.59,19.59,0,0,0-4.37-9.47C188,175.62,184.28,175,180,174.2c-1.57-.28-3.2-.57-5-1-6.61-1.75-12-3.57-16.74-9.67a.5.5,0,0,0-.7-.09.5.5,0,0,0-.09.69c4.9,6.35,10.48,8.23,17.28,10,1.8.48,3.45.77,5.05,1,4.29.76,7.67,1.36,11,5,4.47,4.92,4.53,12.64,4.53,12.72a.49.49,0,0,0,.43.49Z"/><path class="cls-1" d="M171.72,191.65a.47.47,0,0,0,.3-.1.5.5,0,0,0,.14-.63l-14.44-27a.5.5,0,0,0-.67-.2.5.5,0,0,0-.21.67l12.95,24.22-19.73-19.16a.5.5,0,0,0-.7,0,.49.49,0,0,0,0,.7l22,21.37A.49.49,0,0,0,171.72,191.65Z"/><path class="cls-1" d="M171.72,191.65a.47.47,0,0,0,.3-.1.51.51,0,0,0,.1-.7l-18.28-23.79a.5.5,0,0,0-.79.6l18.28,23.8A.51.51,0,0,0,171.72,191.65Z"/><path class="cls-1" d="M159.43,218.7a.47.47,0,0,0,.39-.19c.08-.1,8-10.57,3.3-22.15-1.58-3.88-4.14-6.18-6.61-8.41-2.21-2-4.29-3.86-5.59-6.74a15,15,0,0,1-.78-11,.5.5,0,1,0-.94-.32,16,16,0,0,0,.82,11.75c1.38,3.06,3.64,5.1,5.82,7.06,2.4,2.16,4.87,4.39,6.37,8.06,2.95,7.24.71,14-1.21,17.89a19.56,19.56,0,0,0-.41-10.43c-1.79-5-5-7-8.63-9.35-1.35-.87-2.75-1.76-4.21-2.87-5.43-4.14-9.75-7.9-11.76-15.34a.49.49,0,1,0-1,.26c2.09,7.74,6.53,11.61,12.11,15.87,1.49,1.14,2.91,2,4.27,2.91,3.67,2.34,6.57,4.19,8.24,8.85C161.91,210.79,159,218,159,218a.49.49,0,0,0,.21.62A.5.5,0,0,0,159.43,218.7Z"/><path class="cls-1" d="M137.83,207.85l.13,0a.51.51,0,0,0,.37-.53l-3-30.49a.49.49,0,0,0-.55-.44.49.49,0,0,0-.44.54L137,204.24,126.13,179a.49.49,0,1,0-.9.39l12.15,28.17A.5.5,0,0,0,137.83,207.85Z"/><path class="cls-1" d="M137.83,207.85l.13,0a.49.49,0,0,0,.35-.61l-7.78-29a.5.5,0,0,0-.6-.35.48.48,0,0,0-.35.61l7.78,29A.49.49,0,0,0,137.83,207.85Z"/><path class="cls-1" d="M116.13,228.14a.42.42,0,0,0,.24-.07c.12-.06,11.46-6.7,11.53-19.2,0-4.19-1.46-7.3-2.9-10.3-1.27-2.68-2.48-5.21-2.58-8.37a15,15,0,0,1,3.49-10.48.47.47,0,0,0,0-.69.48.48,0,0,0-.7,0,16,16,0,0,0-3.74,11.16c.11,3.37,1.41,6.11,2.68,8.76,1.39,2.91,2.82,5.92,2.8,9.88,0,7.8-4.71,13.22-8,16a19.52,19.52,0,0,0,3.61-9.78c.25-5.29-1.9-8.37-4.4-11.95-.92-1.31-1.87-2.67-2.79-4.25-3.43-5.91-6-11-5-18.67a.49.49,0,1,0-1-.13c-1,8,1.58,13.23,5.12,19.3.94,1.62,1.9,3,2.83,4.32,2.49,3.57,4.46,6.38,4.22,11.33-.31,6.65-5.74,12.15-5.79,12.2a.49.49,0,0,0,0,.65A.51.51,0,0,0,116.13,228.14Z"/><path class="cls-1" d="M100.33,209.84a.49.49,0,0,0,.47-.35l8.9-29.32a.5.5,0,0,0-1-.29l-8,26.28-.41-27.49a.49.49,0,0,0-.49-.49h0a.5.5,0,0,0-.49.5l.45,30.67a.5.5,0,0,0,.43.49Z"/><path class="cls-1" d="M100.33,209.84a.5.5,0,0,0,.49-.43l3.9-29.75a.51.51,0,0,0-.43-.56.5.5,0,0,0-.55.43l-3.91,29.75a.51.51,0,0,0,.43.56Z"/><path class="cls-1" d="M72.51,220.28h.06c.13,0,13.15-1.8,18-13.32,1.62-3.86,1.44-7.3,1.27-10.63-.16-3-.31-5.76.81-8.72a15,15,0,0,1,7.24-8.34.5.5,0,0,0,.23-.66.48.48,0,0,0-.66-.23,15.92,15.92,0,0,0-7.74,8.88c-1.19,3.15-1,6.18-.87,9.12.16,3.22.34,6.54-1.2,10.19-3,7.2-9.41,10.42-13.49,11.79a19.61,19.61,0,0,0,7.08-7.65c2.25-4.79,1.44-8.47.5-12.72-.34-1.57-.7-3.18-.95-5-.91-6.77-1.31-12.49,2.54-19.16a.51.51,0,0,0-.18-.68.49.49,0,0,0-.68.18c-4,7-3.6,12.83-2.66,19.79.25,1.86.61,3.5,1,5.08.94,4.25,1.68,7.6-.43,12.09-2.83,6-10,9-10,9.05a.49.49,0,0,0-.29.58A.5.5,0,0,0,72.51,220.28Z"/><path class="cls-1" d="M64.91,197.33a.48.48,0,0,0,.38-.18l19.44-23.69a.49.49,0,1,0-.76-.62L66.54,194.06l10.15-25.55a.49.49,0,0,0-.27-.65.52.52,0,0,0-.65.28L64.45,196.65a.5.5,0,0,0,.21.61A.55.55,0,0,0,64.91,197.33Z"/><path class="cls-1" d="M64.91,197.33a.5.5,0,0,0,.43-.25l15-26a.49.49,0,0,0-.18-.68.51.51,0,0,0-.68.18l-15,26a.5.5,0,0,0,.18.67A.47.47,0,0,0,64.91,197.33Z"/><path class="cls-1" d="M41,197a22.07,22.07,0,0,0,15.82-6.08c3-2.94,4.13-6.19,5.24-9.33,1-2.8,1.93-5.44,4.09-7.74A15,15,0,0,1,76,168.87a.51.51,0,0,0,.47-.52.53.53,0,0,0-.53-.47,15.83,15.83,0,0,0-10.55,5.25c-2.3,2.45-3.31,5.32-4.29,8.09-1.08,3-2.19,6.17-5,9-5.55,5.49-12.69,6-17,5.73a19.55,19.55,0,0,0,9.47-4.37c3.92-3.56,4.58-7.26,5.34-11.55.28-1.58.57-3.21,1-5,1.75-6.61,3.57-12,9.68-16.74a.5.5,0,0,0,.09-.7.48.48,0,0,0-.69-.09c-6.36,4.9-8.24,10.48-10,17.27-.48,1.81-.77,3.47-1.06,5.06-.76,4.28-1.36,7.67-5,11-4.92,4.47-12.65,4.53-12.72,4.53a.49.49,0,0,0-.13,1A24.7,24.7,0,0,0,41,197Z"/><path class="cls-1" d="M37,172.22a.53.53,0,0,0,.24-.06l27-14.44a.49.49,0,0,0,.2-.67.51.51,0,0,0-.67-.21L39.55,169.79l19.16-19.73a.49.49,0,0,0,0-.7.5.5,0,0,0-.7,0l-21.36,22a.5.5,0,0,0-.05.64A.51.51,0,0,0,37,172.22Z"/><path class="cls-1" d="M37,172.22a.48.48,0,0,0,.3-.11l23.8-18.28a.49.49,0,1,0-.6-.78l-23.8,18.28a.5.5,0,0,0,.3.89Z"/><path class="cls-1" d="M24.11,164.62a20,20,0,0,0,7.67-1.5c3.87-1.58,6.18-4.14,8.41-6.62,2-2.2,3.86-4.28,6.73-5.58a15,15,0,0,1,11-.78.5.5,0,0,0,.33-.94,16.05,16.05,0,0,0-11.76.81c-3.06,1.39-5.09,3.65-7.06,5.83-2.15,2.4-4.38,4.87-8.05,6.37-7.24,2.95-14,.71-17.89-1.21a19.56,19.56,0,0,0,10.43-.41c5-1.79,7-5,9.35-8.64.86-1.35,1.76-2.74,2.86-4.2C40.3,142.32,44.06,138,51.5,136a.49.49,0,1,0-.26-1c-7.74,2.08-11.61,6.52-15.88,12.11-1.13,1.49-2,2.9-2.9,4.27-2.34,3.67-4.19,6.56-8.86,8.24-6.25,2.25-13.41-.65-13.48-.69a.5.5,0,0,0-.62.22.48.48,0,0,0,.12.63A26.27,26.27,0,0,0,24.11,164.62Z"/><path class="cls-1" d="M20.79,138.33h0l30.49-3a.49.49,0,1,0-.09-1L23.9,137l25.25-10.9a.49.49,0,1,0-.4-.9L20.59,137.38a.5.5,0,0,0-.28.58A.48.48,0,0,0,20.79,138.33Z"/><path class="cls-1" d="M20.79,138.33l.12,0,29-7.78a.48.48,0,0,0,.35-.61.51.51,0,0,0-.6-.35l-29,7.78a.5.5,0,0,0,.13,1Z"/><path class="cls-1" d="M19.36,127.9c4.14,0,7.23-1.47,10.21-2.9,2.68-1.27,5.21-2.48,8.36-2.58a14.93,14.93,0,0,1,10.48,3.49.49.49,0,1,0,.66-.73,16,16,0,0,0-11.17-3.75c-3.36.11-6.1,1.41-8.75,2.68-2.89,1.37-5.87,2.8-9.79,2.8h-.09c-7.8,0-13.23-4.71-16.06-8A19.59,19.59,0,0,0,13,122.56c5.28.26,8.37-1.91,11.94-4.4,1.31-.92,2.67-1.87,4.25-2.79,5.92-3.44,11.05-6,18.68-5a.53.53,0,0,0,.56-.43.49.49,0,0,0-.43-.55c-8-1-13.23,1.58-19.31,5.12-1.61.94-3,1.9-4.31,2.82-3.57,2.5-6.38,4.46-11.34,4.23C6.4,121.25.9,115.83.85,115.78a.48.48,0,0,0-.65,0,.47.47,0,0,0-.13.63c.06.12,6.69,11.46,19.2,11.53Z"/><path class="cls-1" d="M48.11,109.71a.49.49,0,0,0,.14-1l-26.27-8,27.49-.41a.5.5,0,0,0,.49-.5.51.51,0,0,0-.5-.49h0l-30.67.45a.51.51,0,0,0-.49.43.5.5,0,0,0,.35.54L48,109.69A.32.32,0,0,0,48.11,109.71Z"/><path class="cls-1" d="M48.55,104.72a.5.5,0,0,0,.49-.43.49.49,0,0,0-.43-.55l-29.75-3.9a.49.49,0,1,0-.13,1l29.75,3.9Z"/><path class="cls-1" d="M49.32,100.17a.54.54,0,0,0,.22,0,.5.5,0,0,0,.23-.67,15.79,15.79,0,0,0-8.89-7.73c-3.14-1.18-6.18-1-9.11-.87-3.21.16-6.54.34-10.19-1.2-7.2-3-10.42-9.41-11.8-13.49a19.64,19.64,0,0,0,7.66,7.08c4.79,2.25,8.47,1.44,12.72.5,1.57-.35,3.18-.7,5-.95,6.78-.91,12.49-1.3,19.17,2.54a.5.5,0,0,0,.5-.86c-7-4-12.84-3.6-19.8-2.66-1.85.25-3.49.61-5.07,1-4.25.94-7.6,1.68-12.09-.43-6-2.84-9-10-9-10A.49.49,0,0,0,8.23,72a.49.49,0,0,0-.37.54c0,.13,1.81,13.15,13.33,18,3.86,1.62,7.3,1.44,10.63,1.26,3-.15,5.77-.3,8.72.82a15,15,0,0,1,8.34,7.24A.5.5,0,0,0,49.32,100.17Z"/><path class="cls-1" d="M55,84.84a.49.49,0,0,0,.38-.18.5.5,0,0,0-.07-.7L34.07,66.54,59.63,76.69a.49.49,0,1,0,.36-.92L31.49,64.45a.5.5,0,0,0-.5.85L54.67,84.73A.48.48,0,0,0,55,84.84Z"/><path class="cls-1" d="M57.3,80.4a.5.5,0,0,0,.25-.93l-26-15a.52.52,0,0,0-.68.18.51.51,0,0,0,.19.68l26,15A.45.45,0,0,0,57.3,80.4Z"/><path class="cls-1" d="M59.76,76.48h0a.49.49,0,0,0,.47-.52A16,16,0,0,0,55,65.41c-2.46-2.29-5.32-3.31-8.09-4.29-3-1.08-6.18-2.19-9-5-5.49-5.55-6-12.69-5.73-17a19.52,19.52,0,0,0,4.36,9.47c3.57,3.92,7.27,4.58,11.57,5.34,1.57.28,3.2.57,5,1,6.61,1.75,12,3.58,16.74,9.68a.49.49,0,1,0,.78-.6c-4.89-6.36-10.47-8.24-17.27-10-1.8-.48-3.45-.77-5.05-1.06-4.29-.76-7.67-1.36-11-5C32.85,43,32.8,35.29,32.8,35.22a.49.49,0,0,0-1-.13c0,.12-3.37,12.84,5.42,21.72,3,3,6.2,4.13,9.34,5.24,2.8,1,5.44,1.93,7.74,4.09A15,15,0,0,1,59.27,76,.49.49,0,0,0,59.76,76.48Z"/><path class="cls-1" d="M70.86,64.5a.5.5,0,0,0,.43-.73L58.35,39.55,78.08,58.71a.5.5,0,1,0,.68-.72l-22-21.37a.51.51,0,0,0-.64,0,.49.49,0,0,0-.14.63l14.44,27A.51.51,0,0,0,70.86,64.5Z"/><path class="cls-1" d="M74.69,61.27a.49.49,0,0,0,.4-.79L56.81,36.68a.5.5,0,0,0-.7-.09.5.5,0,0,0-.09.69L74.3,61.08A.49.49,0,0,0,74.69,61.27Z"/><path class="cls-1" d="M78.47,58.6a.49.49,0,0,0,.46-.33,15.75,15.75,0,0,0-.81-11.76c-1.38-3.06-3.64-5.09-5.83-7.06-2.39-2.15-4.86-4.38-6.36-8.05-3-7.24-.71-14,1.21-17.89a19.55,19.55,0,0,0,.4,10.43c1.8,5,5,7,8.64,9.35,1.35.86,2.75,1.75,4.2,2.86,5.44,4.15,9.76,7.91,11.77,15.35a.48.48,0,0,0,.6.35.5.5,0,0,0,.35-.61C91,43.5,86.57,39.63,81,35.36c-1.48-1.13-2.9-2-4.26-2.9-3.67-2.35-6.57-4.19-8.24-8.86-2.25-6.26.65-13.41.68-13.48A.49.49,0,0,0,69,9.5a.5.5,0,0,0-.64.12c-.08.11-8,10.58-3.3,22.16,1.58,3.87,4.15,6.18,6.62,8.41,2.21,2,4.29,3.86,5.59,6.73A15,15,0,0,1,78,58a.48.48,0,0,0,.31.62A.41.41,0,0,0,78.47,58.6Z"/><path class="cls-1" d="M93.31,51.77h0a.49.49,0,0,0,.45-.54L91.11,23.9,102,49.14a.49.49,0,0,0,.65.26.5.5,0,0,0,.26-.65L90.76,20.59a.5.5,0,0,0-1,.24l3,30.49A.5.5,0,0,0,93.31,51.77Z"/><path class="cls-1" d="M98.08,50.26a.27.27,0,0,0,.13,0,.48.48,0,0,0,.35-.6l-7.78-29a.49.49,0,0,0-.6-.35.48.48,0,0,0-.35.6l7.78,29A.48.48,0,0,0,98.08,50.26Z"/><path class="cls-1" d="M111.07,48.55a.49.49,0,0,0,.46-.32c3-7.43-.19-13.36-3.23-19.1a43.63,43.63,0,0,1-3.49-7.78C101.35,9.49,112.2,1,112.31.93a.49.49,0,0,0,.09-.69.48.48,0,0,0-.69-.09c-.12.08-11.5,9-7.85,21.48a43.5,43.5,0,0,0,3.57,8c2.93,5.54,6,11.26,3.18,18.28a.49.49,0,0,0,.28.64A.53.53,0,0,0,111.07,48.55Z"/><path class="cls-1" d="M158.66,65.77a.43.43,0,0,0,.19,0c7.35-3.17,9.32-9.58,11.23-15.78a42.2,42.2,0,0,1,3-8c5.92-10.83,19.6-9.15,19.73-9.13a.5.5,0,0,0,.56-.43.48.48,0,0,0-.42-.55c-.15,0-14.49-1.79-20.74,9.64a43.51,43.51,0,0,0-3.11,8.16c-1.85,6-3.75,12.17-10.68,15.16a.5.5,0,0,0-.26.65A.51.51,0,0,0,158.66,65.77Z"/><path class="cls-1" d="M185.84,112.87c4.8,0,9-2.23,13.12-4.4a43,43,0,0,1,7.78-3.5c11.87-3.47,20.34,7.39,20.42,7.5a.5.5,0,0,0,.7.09.5.5,0,0,0,.09-.69c-.09-.11-9-11.5-21.48-7.85a43.59,43.59,0,0,0-8,3.57c-5.53,2.93-11.26,6-18.28,3.18a.49.49,0,0,0-.36.92A16,16,0,0,0,185.84,112.87Z"/><path class="cls-1" d="M195.69,193.48a.5.5,0,0,0,.49-.43c0-.14,1.78-14.49-9.64-20.74a44.49,44.49,0,0,0-8.16-3.11c-6-1.84-12.18-3.74-15.17-10.67a.48.48,0,0,0-.65-.26.5.5,0,0,0-.26.65c3.17,7.35,9.59,9.32,15.79,11.23a42.78,42.78,0,0,1,8,3c10.82,5.92,9.15,19.6,9.14,19.74a.5.5,0,0,0,.42.56Z"/><path class="cls-1" d="M116,228.09a.49.49,0,0,0,.3-.1c.12-.09,11.5-9,7.85-21.48a43.9,43.9,0,0,0-3.57-8c-2.93-5.53-6-11.26-3.18-18.27a.49.49,0,0,0-.28-.64.5.5,0,0,0-.64.27c-2.95,7.44.19,13.37,3.23,19.11a43.31,43.31,0,0,1,3.49,7.78c3.46,11.85-7.39,20.33-7.5,20.42a.48.48,0,0,0-.09.69A.47.47,0,0,0,116,228.09Z"/><path class="cls-1" d="M37.36,196.33c4.3,0,13.75-1.06,18.51-9.75A44.49,44.49,0,0,0,59,178.42c1.84-6,3.75-12.18,10.67-15.16a.5.5,0,0,0,.26-.65.49.49,0,0,0-.65-.26c-7.35,3.17-9.32,9.58-11.23,15.78a42.51,42.51,0,0,1-3,8c-5.93,10.83-19.6,9.16-19.74,9.14a.49.49,0,1,0-.13,1A17.83,17.83,0,0,0,37.36,196.33Z"/><path class="cls-1" d="M16.71,124.92a17.4,17.4,0,0,0,5-.72,43.9,43.9,0,0,0,8-3.57c5.53-2.93,11.25-6,18.27-3.18a.5.5,0,1,0,.37-.92c-7.44-3-13.37.19-19.11,3.23a42,42,0,0,1-7.78,3.49C9.54,126.72,1.06,115.86,1,115.75a.49.49,0,0,0-.69-.09.49.49,0,0,0-.09.69C.26,116.45,6.88,124.92,16.71,124.92Z"/><path class="cls-1" d="M65.29,70.11a.48.48,0,0,0,.2,0,.5.5,0,0,0,.26-.65C62.58,62.07,56.16,60.1,50,58.19a42.78,42.78,0,0,1-8-3c-10.82-5.92-9.16-19.6-9.14-19.74a.5.5,0,0,0-.42-.56.51.51,0,0,0-.56.43c0,.14-1.78,14.49,9.64,20.74a44.49,44.49,0,0,0,8.16,3.11c6,1.84,12.18,3.74,15.17,10.67A.49.49,0,0,0,65.29,70.11Z"/><path class="cls-1" d="M136.56,52.42a.51.51,0,0,0,.36-.15c5.57-5.74,4.94-12.42,4.33-18.88a42.37,42.37,0,0,1-.25-8.52c1.33-12.27,14.61-16,14.74-16a.5.5,0,0,0,.35-.61.51.51,0,0,0-.61-.35c-.14,0-14.06,3.9-15.47,16.85a44,44,0,0,0,.25,8.72c.59,6.24,1.2,12.69-4.06,18.1a.49.49,0,0,0,0,.7A.45.45,0,0,0,136.56,52.42Z"/><path class="cls-1" d="M173.94,86.55h0c8-.12,12.27-5.29,16.41-10.29a42.36,42.36,0,0,1,5.85-6.2c9.63-7.74,21.61-1,21.74-.89a.48.48,0,0,0,.67-.18.5.5,0,0,0-.18-.68c-.13-.07-12.7-7.18-22.85,1a44,44,0,0,0-6,6.34c-4,4.83-8.12,9.82-15.66,9.93a.5.5,0,0,0-.49.5A.51.51,0,0,0,173.94,86.55Z"/><path class="cls-1" d="M219.64,156.24l.13,0a.49.49,0,0,0,.35-.6c0-.14-3.9-14.07-16.84-15.48a44.84,44.84,0,0,0-8.73.25c-6.23.6-12.68,1.21-18.1-4a.49.49,0,0,0-.7,0,.5.5,0,0,0,0,.7c5.74,5.57,12.42,4.94,18.89,4.33a42.37,42.37,0,0,1,8.52-.25c12.26,1.33,16,14.61,16,14.74A.5.5,0,0,0,219.64,156.24Z"/><path class="cls-1" d="M159.27,218.71a.5.5,0,0,0,.43-.25c.08-.13,7.19-12.7-1-22.85a44,44,0,0,0-6.34-6c-4.83-4-9.82-8.13-9.93-15.67a.51.51,0,0,0-.5-.49h0a.49.49,0,0,0-.48.51c.11,8,5.28,12.27,10.28,16.41a41.94,41.94,0,0,1,6.21,5.85c7.73,9.62.95,21.62.88,21.74a.5.5,0,0,0,.19.67A.42.42,0,0,0,159.27,218.71Z"/><path class="cls-1" d="M72.42,220.19h.12c.14,0,14.07-3.9,15.48-16.85a44.74,44.74,0,0,0-.25-8.72c-.59-6.24-1.2-12.69,4-18.1a.5.5,0,1,0-.71-.69c-5.57,5.74-4.94,12.42-4.33,18.88a42.37,42.37,0,0,1,.25,8.52c-1.33,12.27-14.61,16-14.74,16a.49.49,0,0,0,.13,1Z"/><path class="cls-1" d="M21.23,162.7a17.62,17.62,0,0,0,11.32-3.91,43.51,43.51,0,0,0,6-6.35c4-4.82,8.13-9.82,15.67-9.93a.49.49,0,0,0,.49-.5.51.51,0,0,0-.5-.49h0c-8,.12-12.27,5.29-16.41,10.29A42.44,42.44,0,0,1,31.93,158c-9.63,7.74-21.62.95-21.74.88a.49.49,0,0,0-.49.86A25.73,25.73,0,0,0,21.23,162.7Z"/><path class="cls-1" d="M52,92a.49.49,0,0,0,.35-.15.49.49,0,0,0,0-.7c-5.74-5.57-12.42-5-18.88-4.33a43.1,43.1,0,0,1-8.52.25c-12.27-1.34-16-14.61-16-14.75A.51.51,0,0,0,8.33,72,.5.5,0,0,0,8,72.6c0,.14,3.9,14.07,16.85,15.47a43.23,43.23,0,0,0,8.72-.25c6.24-.58,12.69-1.2,18.1,4.06A.52.52,0,0,0,52,92Z"/><path class="cls-1" d="M86,54.83h0a.49.49,0,0,0,.49-.5c-.12-8-5.29-12.28-10.29-16.42A41.86,41.86,0,0,1,70,32.06c-7.74-9.62-1-21.61-.89-21.73a.5.5,0,0,0-.86-.5c-.07.13-7.18,12.7,1,22.85a44.65,44.65,0,0,0,6.35,6c4.83,4,9.82,8.12,9.93,15.66A.49.49,0,0,0,86,54.83Z"/></g></g></svg>