<svg xmlns="http://www.w3.org/2000/svg" xmlns:xlink="http://www.w3.org/1999/xlink" viewBox="0 0 228.69 228.09"><defs><style>.cls-1,.cls-2{fill:none;}.cls-2{stroke:#f79521;stroke-miterlimit:10;}.cls-3{fill:#922160;}.cls-4{fill:#f79521;}.cls-5{opacity:0.7;}.cls-6{opacity:0.5;}.cls-7{clip-path:url(#clip-path);}.cls-8{clip-path:url(#clip-path-2);}</style><clipPath id="clip-path" transform="translate(0 -0.3)"><path id="SVGID" class="cls-1" d="M180.51,45a4.61,4.61,0,0,1,2.76,2.8c.63,1.34,9.32,40.43,8.78,43.36-1.2,6.49-43,23.44-48.08,25.72-.37-2.68-.9-8.11-1-10.85-.13-3-1.91-8.94-.43-11.64.73-1.31,27.37-10.12,30.06-11.41a7.64,7.64,0,0,0,3-2.53c.25-.59,1.3-17.42,1.7-32A3.29,3.29,0,0,1,180.51,45Z"/></clipPath><clipPath id="clip-path-2" transform="translate(0 -0.3)"><path id="SVGID-2" data-name="SVGID" class="cls-2" d="M48.32,45a4.61,4.61,0,0,0-2.76,2.8c-.63,1.34-9.32,40.43-8.78,43.36,1.2,6.49,43,23.44,48.08,25.72.37-2.68.9-8.11,1-10.85.13-3,1.91-8.94.43-11.64C85.58,93.07,58.94,84.26,56.25,83a7.64,7.64,0,0,1-3-2.53c-.26-.59-1.31-17.42-1.7-32A3.29,3.29,0,0,0,48.32,45Z"/></clipPath></defs><g id="Layer_2" data-name="Layer 2"><g id="BG"><circle class="cls-3" cx="114.34" cy="114.04" r="103.62"/><path class="cls-4" d="M227.69,114.32a114.85,114.85,0,0,1-5.45,34.91A113.34,113.34,0,0,1,1.33,123.13,115,115,0,0,1,4.17,87.57,113.34,113.34,0,0,1,226.37,97a115.89,115.89,0,0,1,1.32,17.35c0,.29,1,.32,1,0a114.61,114.61,0,0,0-5.57-35.25,113.24,113.24,0,0,0-15.64-31A114.31,114.31,0,0,0,3.28,141.56a114.16,114.16,0,0,0,97.92,86.08,116,116,0,0,0,35.8-1.48,113.94,113.94,0,0,0,91.69-111.8C228.69,114.07,227.69,114.05,227.69,114.32Z" transform="translate(0 -0.3)"/><path class="cls-4" d="M93.78,28a5.55,5.55,0,0,1,4-4.23,4.78,4.78,0,0,1,2.57.14,6,6,0,0,1,2.12,1.73c2.43,2.75,3.78,6.29,6.18,9.07a9.09,9.09,0,0,0,4.19,2.91,6.57,6.57,0,0,0,5.6-.45,14.87,14.87,0,0,0,4.19-5.12c1-1.89,1.77-3.95,3.19-5.6a7,7,0,0,1,4.63-2.68c2-.1,3.57,1.8,4.52,3.35a1.53,1.53,0,0,0,1.15.53c.12,0,1,0,.78-.34a8.89,8.89,0,0,0-4.75-4.06,7.1,7.1,0,0,0-5.39.38,10.12,10.12,0,0,0-4,3.95c-1.22,2.06-2,4.31-3.46,6.24-1.2,1.61-2.8,3.52-5,3.28a6.41,6.41,0,0,1-4.09-2.72c-2.47-3-3.84-6.92-6.72-9.6a8.07,8.07,0,0,0-6.8-1.88,6.15,6.15,0,0,0-4.79,4.69c-.1.57,1.86,1,2,.41Z" transform="translate(0 -0.3)"/><path class="cls-4" d="M107.39,48.42a8.44,8.44,0,0,1,3.82-9.14,6.13,6.13,0,0,1,4.58-1,6.55,6.55,0,0,1,4.2,2.49,10,10,0,0,1,1.29,7.94c-.64,2.55-2.5,4.93-5.24,5.29a8.43,8.43,0,0,1-5.11-1,7.78,7.78,0,0,1-3.57-4.62c-.16-.5-2.13-.49-1.94.13,1.27,4.15,5.25,6.19,9.38,6.37a8.88,8.88,0,0,0,5.2-1.19,7.42,7.42,0,0,0,2.8-3.41,10.44,10.44,0,0,0-.53-9,6.11,6.11,0,0,0-1.52-1.87,11,11,0,0,0-9.14-1.51c-4.22,1.39-7.48,6.07-6.22,10.54C105.57,49,107.5,48.83,107.39,48.42Z" transform="translate(0 -0.3)"/><g class="cls-5"><path class="cls-4" d="M157.84,60.9a21.13,21.13,0,0,0-4.09.35h0a36.72,36.72,0,0,1,2.09-3,13,13,0,0,1-1-3.37,26.13,26.13,0,0,1,3.09.88,23.28,23.28,0,0,1,2.67-2.05,23.12,23.12,0,0,1-.25,3.44c1.14.5,2.63,1.19,3.74,1.81-.84.24-3.61.93-3.61.93a20.54,20.54,0,0,1-.64,3.31Z" transform="translate(0 -0.3)"/><path class="cls-4" d="M25.37,125.67a21,21,0,0,1,2.09,3.54h0c.54-1.16,1.27-3.48,1.27-3.48A13.37,13.37,0,0,0,32,124.57a24.26,24.26,0,0,0-2.51-2c-.1-.19.35-2.36.12-3.37a23.61,23.61,0,0,0-2.65,2.2c-1.08-.63-2.5-1.45-3.65-2,.29.82,1.33,3.48,1.33,3.48a20,20,0,0,0-2.32,2.44Z" transform="translate(0 -0.3)"/><path class="cls-4" d="M27.3,91.86A22.84,22.84,0,0,1,30.82,94h0c-.08-1.27-.54-3.66-.54-3.66a13.29,13.29,0,0,0,2.37-2.6,27.27,27.27,0,0,0-3.17-.57,22.14,22.14,0,0,0-1.49-3,23.4,23.4,0,0,0-1.29,3.19c-1.25,0-2.89-.08-4.16,0,.65.59,2.83,2.43,2.83,2.43A20,20,0,0,0,24.48,93Z" transform="translate(0 -0.3)"/><path class="cls-4" d="M90,62.73a22.29,22.29,0,0,1,1.44-3.85h0c-1.23.31-3.5,1.2-3.5,1.2a13.11,13.11,0,0,0-3-1.85,27.57,27.57,0,0,0,0,3.21c-.08.2-2.06,1.21-2.69,2a23.4,23.4,0,0,0,3.37.68c.18,1.23.44,2.85.73,4.09C86.88,67.5,88.3,65,88.3,65a20.22,20.22,0,0,0,3.35.27Z" transform="translate(0 -0.3)"/><path class="cls-4" d="M149,30.72a22.07,22.07,0,0,0,1.08-4h0c.82,1,2.15,3,2.15,3a13.3,13.3,0,0,1,3.5.24,26.45,26.45,0,0,1-1.89,2.6c-.05.21,1,2.18,1,3.22a25.34,25.34,0,0,1-3.13-1.42c-.87.89-2,2.06-3,2.89.06-.87.36-3.71.36-3.71a20.6,20.6,0,0,1-2.89-1.74Z" transform="translate(0 -0.3)"/><path class="cls-4" d="M161.78,180.3a21.79,21.79,0,0,0-2.07-3.54h0c1.27.09,3.65.58,3.65.58A13,13,0,0,1,166,175a26.23,26.23,0,0,1,.53,3.17c.11.18,2.23.85,3,1.54a24.08,24.08,0,0,1-3.2,1.25c0,1.24,0,2.88,0,4.15-.59-.65-2.4-2.86-2.4-2.86a20.73,20.73,0,0,1-3.26.85Z" transform="translate(0 -0.3)"/><path class="cls-4" d="M200.7,104.21a22.05,22.05,0,0,0,.1,4.11h0c-1.06-.69-2.91-2.27-2.91-2.27a13.63,13.63,0,0,1-3.43.77,26.22,26.22,0,0,1,1.06-3c0-.21-1.55-1.81-1.88-2.79a23.91,23.91,0,0,1,3.41.46c.57-1.1,1.35-2.55,2-3.63.2.86.72,3.67.72,3.67a19.57,19.57,0,0,1,3.27.83Z" transform="translate(0 -0.3)"/><path class="cls-4" d="M186.21,152.5a22,22,0,0,1-2.65,3.14h0c1.27.13,3.7.05,3.7.05a13.13,13.13,0,0,0,2.19,2.74,25.45,25.45,0,0,0,1.07-3c.14-.16,2.34-.45,3.21-1a24.73,24.73,0,0,0-2.94-1.78c.24-1.22.54-2.84.67-4.1-.68.55-2.85,2.41-2.85,2.41a20.34,20.34,0,0,0-3.07-1.39Z" transform="translate(0 -0.3)"/><path class="cls-4" d="M60.73,55.49a21.53,21.53,0,0,1-.79,4h0c1.17-.5,3.26-1.75,3.26-1.75a13.43,13.43,0,0,0,3.25,1.33,27.21,27.21,0,0,0-.54-3.17c0-.2,1.83-1.53,2.32-2.43a24.85,24.85,0,0,0-3.44-.13c-.38-1.18-.9-2.74-1.39-3.91-.34.81-1.33,3.49-1.33,3.49a20.31,20.31,0,0,0-3.36.28Z" transform="translate(0 -0.3)"/><path class="cls-4" d="M54.42,150.42a21.9,21.9,0,0,1,3.52,2.1h0c-.08-1.27-.55-3.66-.55-3.66a13.51,13.51,0,0,0,2.36-2.61,27.39,27.39,0,0,0-3.18-.56c-.17-.11-.82-2.23-1.51-3a22.42,22.42,0,0,0-1.27,3.2c-1.25,0-2.89-.08-4.16,0,.65.59,2.84,2.42,2.84,2.42a20.23,20.23,0,0,0-.87,3.26Z" transform="translate(0 -0.3)"/><path class="cls-4" d="M114.4,78.54A22.83,22.83,0,0,1,112.31,75h0c-.53,1.15-1.27,3.47-1.27,3.47a13.24,13.24,0,0,0-3.31,1.17,26.59,26.59,0,0,0,2.51,2c.11.19-.34,2.36-.11,3.37a24.55,24.55,0,0,0,2.65-2.2c1.07.63,2.5,1.45,3.64,2-.29-.82-1.33-3.48-1.33-3.48a19.29,19.29,0,0,0,2.33-2.44Z" transform="translate(0 -0.3)"/><path class="cls-4" d="M46.57,179.08a22.36,22.36,0,0,1-1.45,3.85h0c1.24-.31,3.51-1.2,3.51-1.2a13.11,13.11,0,0,0,3,1.85,27.57,27.57,0,0,0,0-3.21c.08-.2,2-1.21,2.69-2a23.4,23.4,0,0,0-3.37-.68c-.18-1.23-.44-2.86-.74-4.09-.46.74-1.88,3.22-1.88,3.22a20.22,20.22,0,0,0-3.35-.27Z" transform="translate(0 -0.3)"/><path class="cls-4" d="M143.27,46.82a22,22,0,0,0-1.08,4h0c-.82-1-2.15-3-2.15-3a13.46,13.46,0,0,1-3.5-.25,26.45,26.45,0,0,1,1.89-2.6c0-.2-1-2.18-1-3.21a23.89,23.89,0,0,1,3.13,1.41c.87-.89,2-2.06,3-2.89-.06.87-.36,3.72-.36,3.72a19.51,19.51,0,0,1,2.89,1.73Z" transform="translate(0 -0.3)"/><path class="cls-4" d="M45.62,151.7a22.36,22.36,0,0,1,.79-4h0c-1.17.5-3.26,1.75-3.26,1.75a13.25,13.25,0,0,0-3.25-1.33,26.92,26.92,0,0,0,.55,3.17c-.05.21-1.83,1.53-2.33,2.43a24.91,24.91,0,0,0,3.44.13c.38,1.18.91,2.74,1.4,3.91.33-.81,1.32-3.49,1.32-3.49a20.23,20.23,0,0,0,3.36-.28Z" transform="translate(0 -0.3)"/></g><g class="cls-6"><path class="cls-4" d="M63.68,68.9a1.85,1.85,0,0,0,.25,3.45c2,.67,3.32-2.44,1.55-3.44A1.78,1.78,0,0,0,63.68,68.9Z" transform="translate(0 -0.3)"/><path class="cls-4" d="M120.07,69.72a1.86,1.86,0,0,0-2-2.83c-2.08.47-1.59,3.81.44,3.75A1.79,1.79,0,0,0,120.07,69.72Z" transform="translate(0 -0.3)"/><path class="cls-4" d="M139.32,74.52a1.85,1.85,0,0,0-.25-3.45c-2-.68-3.32,2.44-1.56,3.44A1.8,1.8,0,0,0,139.32,74.52Z" transform="translate(0 -0.3)"/><path class="cls-4" d="M171.09,151.44a1.85,1.85,0,0,0,2,2.83c2.08-.47,1.59-3.81-.44-3.75A1.77,1.77,0,0,0,171.09,151.44Z" transform="translate(0 -0.3)"/><path class="cls-4" d="M164.74,46.74a1.86,1.86,0,0,0-.25-3.46c-2-.67-3.32,2.44-1.55,3.44A1.76,1.76,0,0,0,164.74,46.74Z" transform="translate(0 -0.3)"/><path class="cls-4" d="M32.44,101.59a1.86,1.86,0,0,0,2,2.83c2.08-.46,1.59-3.8-.44-3.75A1.79,1.79,0,0,0,32.44,101.59Z" transform="translate(0 -0.3)"/><path class="cls-4" d="M25.2,135.29a1.85,1.85,0,0,0,.25,3.45c2,.67,3.32-2.44,1.56-3.44A1.8,1.8,0,0,0,25.2,135.29Z" transform="translate(0 -0.3)"/><path class="cls-4" d="M24.08,105.68a1.86,1.86,0,0,0-2-2.83c-2.08.46-1.58,3.8.44,3.75A1.79,1.79,0,0,0,24.08,105.68Z" transform="translate(0 -0.3)"/><path class="cls-4" d="M195.54,113.56a1.85,1.85,0,0,0,.25,3.45c2,.68,3.33-2.44,1.56-3.44A1.8,1.8,0,0,0,195.54,113.56Z" transform="translate(0 -0.3)"/><path class="cls-4" d="M75.82,76.19a1.85,1.85,0,0,0-2-2.83c-2.08.47-1.59,3.8.44,3.75A1.77,1.77,0,0,0,75.82,76.19Z" transform="translate(0 -0.3)"/><path class="cls-4" d="M145.38,59.18a1.85,1.85,0,0,0-.25-3.45c-2-.68-3.32,2.43-1.56,3.44A1.8,1.8,0,0,0,145.38,59.18Z" transform="translate(0 -0.3)"/><path class="cls-4" d="M41.26,164.41a1.86,1.86,0,0,0,2,2.83c2.08-.47,1.58-3.8-.44-3.75A1.79,1.79,0,0,0,41.26,164.41Z" transform="translate(0 -0.3)"/><path class="cls-4" d="M191.71,72.07a1.85,1.85,0,0,0,.25,3.45c2,.68,3.32-2.44,1.56-3.44A1.8,1.8,0,0,0,191.71,72.07Z" transform="translate(0 -0.3)"/><path class="cls-4" d="M35.35,66.72a1.85,1.85,0,0,0,2,2.83c2.08-.46,1.59-3.8-.44-3.75A1.79,1.79,0,0,0,35.35,66.72Z" transform="translate(0 -0.3)"/><path class="cls-4" d="M36.25,160.83a1.85,1.85,0,0,0-.26-3.45c-2-.68-3.32,2.44-1.55,3.44A1.8,1.8,0,0,0,36.25,160.83Z" transform="translate(0 -0.3)"/><path class="cls-4" d="M88,37.15A1.86,1.86,0,0,0,90,40c2.07-.47,1.58-3.8-.44-3.75A1.79,1.79,0,0,0,88,37.15Z" transform="translate(0 -0.3)"/><path class="cls-4" d="M65.06,35.83a1.85,1.85,0,0,0,.25,3.45c2,.68,3.32-2.44,1.56-3.44A1.8,1.8,0,0,0,65.06,35.83Z" transform="translate(0 -0.3)"/><path class="cls-4" d="M183.63,171.76a1.85,1.85,0,0,0,2,2.83c2.08-.46,1.59-3.8-.44-3.75A1.79,1.79,0,0,0,183.63,171.76Z" transform="translate(0 -0.3)"/><path class="cls-4" d="M131.39,85.72a1.86,1.86,0,0,0-.25-3.46c-2-.67-3.32,2.44-1.56,3.44A1.78,1.78,0,0,0,131.39,85.72Z" transform="translate(0 -0.3)"/><path class="cls-4" d="M89.2,80a1.86,1.86,0,0,0,2,2.83c2.08-.46,1.58-3.8-.44-3.75A1.79,1.79,0,0,0,89.2,80Z" transform="translate(0 -0.3)"/><path class="cls-4" d="M201.42,131.72a1.86,1.86,0,0,0,.25,3.46c2,.67,3.32-2.44,1.56-3.44A1.78,1.78,0,0,0,201.42,131.72Z" transform="translate(0 -0.3)"/><path class="cls-4" d="M175.2,145.51a1.86,1.86,0,0,0-2-2.83c-2.08.46-1.59,3.8.44,3.75A1.79,1.79,0,0,0,175.2,145.51Z" transform="translate(0 -0.3)"/><path class="cls-4" d="M151.42,199.78a1.85,1.85,0,0,0-.25-3.45c-2-.68-3.32,2.44-1.56,3.44A1.8,1.8,0,0,0,151.42,199.78Z" transform="translate(0 -0.3)"/><path class="cls-4" d="M64.93,185.2a1.86,1.86,0,0,0-2-2.83c-2.08.46-1.59,3.8.44,3.75A1.81,1.81,0,0,0,64.93,185.2Z" transform="translate(0 -0.3)"/><path class="cls-4" d="M67.82,192.24a1.86,1.86,0,0,0,2,2.83c2.08-.46,1.59-3.8-.44-3.75A1.79,1.79,0,0,0,67.82,192.24Z" transform="translate(0 -0.3)"/><path class="cls-4" d="M72.16,184.09a1.85,1.85,0,0,0-2-2.83c-2.08.46-1.59,3.8.43,3.75A1.81,1.81,0,0,0,72.16,184.09Z" transform="translate(0 -0.3)"/><path class="cls-4" d="M159.28,202.5a1.85,1.85,0,0,0-2-2.83c-2.08.46-1.59,3.8.44,3.74A1.77,1.77,0,0,0,159.28,202.5Z" transform="translate(0 -0.3)"/><path class="cls-4" d="M160.21,159.06a1.85,1.85,0,0,0-.25-3.45c-2-.68-3.32,2.44-1.56,3.44A1.8,1.8,0,0,0,160.21,159.06Z" transform="translate(0 -0.3)"/><path class="cls-4" d="M69.58,148.45a1.85,1.85,0,0,0-2-2.83c-2.08.47-1.59,3.8.43,3.75A1.79,1.79,0,0,0,69.58,148.45Z" transform="translate(0 -0.3)"/><path class="cls-4" d="M156.75,76.43a1.86,1.86,0,0,0-2.84,2c.46,2.08,3.8,1.59,3.76-.43A1.79,1.79,0,0,0,156.75,76.43Z" transform="translate(0 -0.3)"/><path class="cls-4" d="M80,26.07a1.85,1.85,0,0,0-3.45.24c-.68,2,2.43,3.33,3.43,1.57A1.78,1.78,0,0,0,80,26.07Z" transform="translate(0 -0.3)"/><path class="cls-4" d="M98.31,71.69a1.85,1.85,0,0,0-2.83,2c.45,2.08,3.79,1.6,3.75-.43A1.8,1.8,0,0,0,98.31,71.69Z" transform="translate(0 -0.3)"/><path class="cls-4" d="M140.62,207.87a1.86,1.86,0,0,0-3.46.24c-.68,2,2.43,3.33,3.44,1.57A1.83,1.83,0,0,0,140.62,207.87Z" transform="translate(0 -0.3)"/><path class="cls-4" d="M80,41.65a1.86,1.86,0,0,0,2.84-2c-.46-2.08-3.8-1.6-3.76.43A1.82,1.82,0,0,0,80,41.65Z" transform="translate(0 -0.3)"/><path class="cls-4" d="M81.75,202.41a1.86,1.86,0,0,0,3.46-.24c.68-2-2.43-3.33-3.44-1.57A1.8,1.8,0,0,0,81.75,202.41Z" transform="translate(0 -0.3)"/><path class="cls-4" d="M96.29,209.64a1.86,1.86,0,0,0,3.46-.24c.68-2-2.43-3.33-3.44-1.57A1.83,1.83,0,0,0,96.29,209.64Z" transform="translate(0 -0.3)"/></g><path class="cls-3" d="M180.51,45a4.61,4.61,0,0,1,2.76,2.8c.63,1.34,9.32,40.43,8.78,43.36-1.2,6.49-43,23.44-48.08,25.72-.37-2.68-.9-8.11-1-10.85-.13-3-1.91-8.94-.43-11.64.73-1.31,27.37-10.12,30.06-11.41a7.64,7.64,0,0,0,3-2.53c.25-.59,1.3-17.42,1.7-32A3.29,3.29,0,0,1,180.51,45Z" transform="translate(0 -0.3)"/><path class="cls-4" d="M180.17,45.17c2.6.73,3,4,3.53,6.25.82,3.42,1.59,6.85,2.34,10.28q1.41,6.38,2.72,12.79c.77,3.74,1.52,7.5,2.16,11.27.21,1.25.42,2.5.56,3.76a4.58,4.58,0,0,1,0,1.88,5.49,5.49,0,0,1-1.63,2.16,27.44,27.44,0,0,1-3.33,2.55A101.77,101.77,0,0,1,176.23,102c-4.1,2.1-8.27,4.08-12.47,6q-5.74,2.63-11.54,5.11l-7.63,3.26-1,.43.86,0c-.27-2-.47-4-.65-6s-.23-3.75-.42-5.62-.64-3.94-.84-5.93a14.24,14.24,0,0,1-.07-3,4.64,4.64,0,0,1,.53-1.95,4.22,4.22,0,0,1,1.26-.7c.86-.39,1.74-.74,2.62-1.09,2.6-1,5.24-2,7.88-2.94,5.29-1.91,10.63-3.71,15.91-5.67.64-.24,1.29-.47,1.92-.74a9.69,9.69,0,0,0,1.51-.84,5.13,5.13,0,0,0,2-2,7,7,0,0,0,.21-1.71c.12-1.35.21-2.71.3-4.06q.42-6.53.71-13,.18-3.91.32-7.81c0-1.28.09-2.56.13-3.84a6.79,6.79,0,0,1,.56-3.46,2.62,2.62,0,0,1,2.09-1.33c.43,0,.9-.4.22-.41a3.7,3.7,0,0,0-3.7,2.8,18.36,18.36,0,0,0-.2,3.71c-.05,1.32-.09,2.64-.14,4q-.29,7.48-.71,14.94c-.17,3.1-.33,6.21-.63,9.29a5.16,5.16,0,0,1-.11.88A3.46,3.46,0,0,1,174,81.71a9.08,9.08,0,0,1-2.7,1.54c-5,1.94-10.12,3.62-15.18,5.43-2.83,1-5.66,2-8.47,3.11A32.8,32.8,0,0,0,142.57,94a2.66,2.66,0,0,0-1,2.16,21.42,21.42,0,0,0,.43,6.13c.63,4,.76,8,1.19,12,.1.9.21,1.8.33,2.69,0,.29.72.12.86,0,2.06-.91,4.22-1.8,6.33-2.7,3.71-1.59,7.4-3.19,11.08-4.84,4.27-1.92,8.53-3.9,12.72-6,3.77-1.87,7.51-3.82,11.09-6a42.61,42.61,0,0,0,4-2.71A11.87,11.87,0,0,0,192,92.32c1-1.38.5-3.12.26-4.69-.52-3.49-1.21-6.95-1.9-10.41q-1.31-6.51-2.72-13c-.82-3.77-1.65-7.54-2.53-11.3-.28-1.21-.56-2.41-.87-3.61a10.22,10.22,0,0,0-.46-1.64,4.78,4.78,0,0,0-2.9-2.88,1,1,0,0,0-.71.07C180,45,180,45.1,180.17,45.17Z" transform="translate(0 -0.3)"/><g class="cls-7"><path class="cls-4" d="M149.37,79.14a95.11,95.11,0,0,0,6.45,20,42.24,42.24,0,0,0,12.11,15.56,38.47,38.47,0,0,0,10.6,5.69c.4.15,1-.08.35-.31a36.6,36.6,0,0,1-16.57-11.82,56.11,56.11,0,0,1-8.94-17.69c-1.21-3.71-2.18-7.5-3-11.3-.06-.28-1-.42-1-.13Z" transform="translate(0 -0.3)"/><path class="cls-4" d="M162.18,73.52a100.43,100.43,0,0,0,8.73,17.86,72.39,72.39,0,0,0,12.48,15.05,69.29,69.29,0,0,0,9,6.92c.22.15,1.14-.13.81-.34A69.11,69.11,0,0,1,178.3,99.94a80.75,80.75,0,0,1-10.64-16.28,110.77,110.77,0,0,1-4.49-10.31c-.11-.29-1.08-.06-1,.17Z" transform="translate(0 -0.3)"/><path class="cls-4" d="M167.43,73.48c9.18,7.83,20,13.19,31.37,17,3.3,1.11,6.63,2.1,10,3,.57.16.68-.23.1-.38C197.5,90,186.25,86,176.31,79.48a79,79,0,0,1-8.13-6.09c-.2-.17-1.15-.25-.75.09Z" transform="translate(0 -0.3)"/><path class="cls-4" d="M159.73,66.54c8.53,0,17.06.58,25.6.31a95.07,95.07,0,0,0,12.49-1.16,121,121,0,0,0,12.47-2.87c4.62-1.27,9.2-2.68,13.8-4,.62-.18-.2-.44-.5-.35-8.07,2.31-16.09,4.93-24.34,6.53S182.44,66.63,174,66.44c-4.76-.11-9.52-.29-14.28-.3-.58,0-.6.4,0,.4Z" transform="translate(0 -0.3)"/><path class="cls-4" d="M168.05,51.18c12.72-2.12,25.55-4.28,37.62-9a88.44,88.44,0,0,0,10-4.57c.21-.11-.07-.25-.17-.28a.89.89,0,0,0-.68.05C203.44,43.5,190.88,46.65,178.27,49c-3.57.65-7.14,1.25-10.71,1.84-.18,0-.3.11-.19.27s.53.12.68.1Z" transform="translate(0 -0.3)"/></g><path class="cls-3" d="M48.32,45a4.61,4.61,0,0,0-2.76,2.8c-.63,1.34-9.32,40.43-8.78,43.36,1.2,6.49,43,23.44,48.08,25.72.37-2.68.9-8.11,1-10.85.13-3,1.91-8.94.43-11.64C85.58,93.07,58.94,84.26,56.25,83a7.64,7.64,0,0,1-3-2.53c-.26-.59-1.31-17.42-1.7-32A3.29,3.29,0,0,0,48.32,45Z" transform="translate(0 -0.3)"/><path class="cls-4" d="M48,44.74c-2.71.77-3.17,3.85-3.72,6.16-.82,3.42-1.59,6.84-2.34,10.27-1,4.32-1.88,8.64-2.76,13-.78,3.81-1.55,7.62-2.19,11.45-.22,1.24-.42,2.49-.56,3.74a4.92,4.92,0,0,0,0,2A5.62,5.62,0,0,0,38,93.48a24.85,24.85,0,0,0,3.29,2.57A97.29,97.29,0,0,0,51.57,102c4.14,2.13,8.34,4.13,12.57,6.06q5.85,2.68,11.76,5.21c2.61,1.13,5.23,2.23,7.83,3.35l.94.41c.06,0,.63.24.66,0,.28-2,.48-4.09.67-6.14.17-1.88.21-3.77.42-5.64.24-2.09.7-4.15.88-6.25a12.66,12.66,0,0,0,0-2.82,3.9,3.9,0,0,0-.57-1.8,3.64,3.64,0,0,0-1.38-.85c-.84-.4-1.7-.75-2.57-1.1-2.6-1-5.23-2-7.87-3-5.43-2-10.91-3.82-16.33-5.82l-1.16-.44L57,83.05l-.29-.12a8.2,8.2,0,0,1-2-1.29,2.68,2.68,0,0,1-1-1.26,15.65,15.65,0,0,1-.24-2.46c-.13-1.6-.23-3.21-.33-4.81q-.43-7-.73-14.1-.16-4-.29-8c-.07-2.09.16-4.4-1.86-5.66A4.11,4.11,0,0,0,48,44.73c-.22,0-.19.14-.09.27a.93.93,0,0,0,.66.24,2.43,2.43,0,0,1,2.12,1.51,9,9,0,0,1,.4,3.5q.12,3.89.28,7.78.29,7,.71,14c.15,2.6.25,5.24.58,7.82.14,1.11,1.25,1.87,2.1,2.46a11,11,0,0,0,2.42,1.23C62.07,85.47,67,87.1,72,88.85c2.81,1,5.62,2,8.41,3.08a40.68,40.68,0,0,1,5.19,2.18,1.9,1.9,0,0,1,.33.22s0,0,0,0a4.93,4.93,0,0,1,.22.53,5.85,5.85,0,0,1,.28,1.32,23.42,23.42,0,0,1-.51,6.19c-.63,3.88-.72,7.82-1.15,11.72-.1.87-.2,1.74-.32,2.61l.66,0c-2.07-.92-4.16-1.78-6.24-2.66-3.63-1.56-7.26-3.13-10.86-4.75-4.21-1.89-8.4-3.83-12.54-5.87-3.77-1.86-7.52-3.79-11.11-6a43,43,0,0,1-4-2.69,12.47,12.47,0,0,1-2.47-2.34,2.58,2.58,0,0,1-.6-1.72,23.71,23.71,0,0,1,.34-2.89c.52-3.43,1.19-6.85,1.87-10.25q1.29-6.45,2.69-12.86,1.21-5.62,2.51-11.24c.29-1.24.58-2.47.89-3.7A13.06,13.06,0,0,1,46,48a4.48,4.48,0,0,1,2.68-2.78C49,45.13,48.21,44.67,48,44.74Z" transform="translate(0 -0.3)"/><g class="cls-8"><path class="cls-4" d="M78.48,79.19a95.67,95.67,0,0,1-6.29,19.64,42.17,42.17,0,0,1-11.9,15.55,37.46,37.46,0,0,1-10.51,5.7c-.21.08-.14.19,0,.29a1,1,0,0,0,.71,0,37.61,37.61,0,0,0,16.76-11.8,56,56,0,0,0,9.12-17.82C77.6,87,78.6,83.11,79.48,79.22c0-.23-.93-.34-1,0Z" transform="translate(0 -0.3)"/><path class="cls-4" d="M65.65,73.41a99.88,99.88,0,0,1-8.72,17.84,72.39,72.39,0,0,1-12.3,14.84,68.33,68.33,0,0,1-9,7c-.31.2.62.39.85.25a69.47,69.47,0,0,0,15-13.09,80.44,80.44,0,0,0,10.73-16.4,111.83,111.83,0,0,0,4.51-10.36c.08-.2-.88-.36-1,0Z" transform="translate(0 -0.3)"/><path class="cls-4" d="M60.6,73.31c-9.11,7.77-19.8,13.08-31.1,16.86-3.25,1.09-6.54,2.07-9.85,3-.22.06-.14.19,0,.28a1,1,0,0,0,.71,0c11.5-3.17,22.85-7.22,32.9-13.76a80.53,80.53,0,0,0,8.21-6.15c.3-.25-.65-.42-.85-.25Z" transform="translate(0 -0.3)"/><path class="cls-4" d="M69.21,66.13c-8.41,0-16.82.57-25.24.32a91.91,91.91,0,0,1-12.6-1.15A125,125,0,0,1,19,62.43c-4.58-1.26-9.12-2.66-13.69-4-.24-.07-1.16.21-.67.35,8.15,2.33,16.24,5,24.57,6.57S46.12,67,54.59,66.85c4.8-.11,9.6-.29,14.4-.31.42,0,.9-.41.22-.41Z" transform="translate(0 -0.3)"/><path class="cls-4" d="M61.05,50.8C48.53,48.71,35.89,46.59,24,42a86.38,86.38,0,0,1-10-4.57.91.91,0,0,0-.7-.09c-.14.07-.24.16,0,.28C24.69,43.76,37.34,47,50.07,49.31,53.7,50,57.35,50.59,61,51.2c.58.09.64-.3,0-.4Z" transform="translate(0 -0.3)"/></g><path id="SVGID-3" data-name="SVGID" class="cls-2" d="M48.32,45a4.61,4.61,0,0,0-2.76,2.8c-.63,1.34-9.32,40.43-8.78,43.36,1.2,6.49,43,23.44,48.08,25.72.37-2.68.9-8.11,1-10.85.13-3,1.91-8.94.43-11.64C85.58,93.07,58.94,84.26,56.25,83a7.64,7.64,0,0,1-3-2.53c-.26-.59-1.31-17.42-1.7-32A3.29,3.29,0,0,0,48.32,45Z" transform="translate(0 -0.3)"/><path class="cls-4" d="M56.72,128.43c6.32,2.3,10.14,1.86,13.93-3.87,2.56-3.86,4.95-7.84,7.71-11.56.66-.9,1.42-1.77,2.2-2.64-1.86.87-3.63,2.27-5.56,3.14a34.17,34.17,0,0,1-12.18,3c-4.26.22-19.94-2.6-22.2,2.28,1.6,0,3.09.78,5,2.4C49,123.93,52.56,126.91,56.72,128.43Z" transform="translate(0 -0.3)"/><path class="cls-4" d="M56.45,128.56c3.28,1.19,7.15,2.18,10.41.4a12.13,12.13,0,0,0,4-3.88c1.59-2.29,3-4.69,4.56-7A65.18,65.18,0,0,1,81,110.48c.23-.26-.75-.34-.88-.27-1.83.86-3.44,2.12-5.26,3a31.07,31.07,0,0,1-6.08,2.12,29,29,0,0,1-8.7.84c-4.89-.31-9.92-1-14.8-.24-1.88.3-4.28.85-5.19,2.73-.09.2.55.28.61.28a7,7,0,0,1,3.85,1.72c1.29,1,2.51,2.09,3.79,3.09a30.49,30.49,0,0,0,8.08,4.81c.15.06.55.16.69,0s0-.23-.15-.29a32.39,32.39,0,0,1-8.91-5.57c-2.27-1.85-4.47-4.06-7.57-4.2l.6.27c.81-1.67,3-2.19,4.65-2.45a37.46,37.46,0,0,1,7.56-.22c2.35.11,4.7.32,7.06.47a29.78,29.78,0,0,0,8.09-.66A33.34,33.34,0,0,0,75,113.84c2.1-.91,3.91-2.34,6-3.32l-.89-.27c-3.43,3.85-6.08,8.31-8.88,12.62-1.95,3-4.2,6.37-8.13,6.63A15.22,15.22,0,0,1,57,128.29c-.15-.06-.55-.16-.68,0S56.27,128.5,56.45,128.56Z" transform="translate(0 -0.3)"/><path class="cls-3" d="M78.36,113c-2.76,3.72-5.15,7.7-7.71,11.56-3.79,5.73-7.61,6.17-13.93,3.87-4.16-1.52-7.7-4.5-11.06-7.3-1.95-1.62-3.44-2.35-5-2.4a2.7,2.7,0,0,0-.24.76c-1.15,7.12,11.62,14.87,18,16.85,5.17,1.6,11.9-.16,15.38-4.81,5-6.73,4.34-11.88,7.21-21.39-.15.06-.3.15-.45.22C79.78,111.23,79,112.1,78.36,113Z" transform="translate(0 -0.3)"/><path class="cls-4" d="M77.87,113c-2.29,3.1-4.33,6.36-6.41,9.59-1.54,2.37-3.1,5-5.75,6.3-2.29,1.1-4.9.59-7.22-.14a28.37,28.37,0,0,1-8.91-4.91c-1.55-1.19-3-2.54-4.58-3.68a7.85,7.85,0,0,0-4.27-1.62c-.15,0-.52,0-.6.19a6.26,6.26,0,0,0,.59,5.16,17,17,0,0,0,3.76,4.69,38.77,38.77,0,0,0,11,7,17.62,17.62,0,0,0,5.64,1.52,16.29,16.29,0,0,0,6.92-1,14,14,0,0,0,5.65-3.84A21.69,21.69,0,0,0,77.41,126a41,41,0,0,0,1.91-6.9c.64-3,1.29-6,2.18-9,.1-.34-.72-.18-.85-.12a3.92,3.92,0,0,0-1.34,1.19c-.5.58-1,1.16-1.44,1.77-.14.19.79.27,1,0,.37-.48.74-1,1.14-1.42a4.37,4.37,0,0,1,1.4-1.34l-.85-.12c-.74,2.44-1.32,4.93-1.85,7.42-.45,2.13-.86,4.27-1.49,6.35-1.28,4.2-3.64,8.57-7.53,10.85a13.86,13.86,0,0,1-12.51.86,38.87,38.87,0,0,1-10.62-6.28,20,20,0,0,1-4.47-4.93c-1-1.6-1.75-3.83-1-5.66l-.6.19a7.8,7.8,0,0,1,4.34,2c1.42,1.13,2.79,2.33,4.24,3.43a28.35,28.35,0,0,0,9.24,4.86,12,12,0,0,0,7.22.23c2.57-.88,4.34-3,5.79-5.2,2.49-3.76,4.83-7.63,7.51-11.26C79,112.82,78.05,112.75,77.87,113Z" transform="translate(0 -0.3)"/><path class="cls-4" d="M172.11,128.43c-6.32,2.3-10.14,1.86-13.94-3.87-2.55-3.86-4.94-7.84-7.7-11.56-.66-.9-1.43-1.77-2.2-2.64,1.86.87,3.63,2.27,5.56,3.14a34.17,34.17,0,0,0,12.18,3c4.26.22,19.94-2.6,22.2,2.28-1.6,0-3.09.78-5,2.4C179.81,123.93,176.26,126.91,172.11,128.43Z" transform="translate(0 -0.3)"/><path class="cls-4" d="M171.77,128.25c-3.18,1.16-6.79,2.1-9.77,0a16,16,0,0,1-3.92-4.56c-1.42-2.16-2.8-4.36-4.23-6.52a59,59,0,0,0-5.14-6.84l-.81.17c1.8.85,3.38,2.08,5.16,3a30.69,30.69,0,0,0,5.8,2.1,30,30,0,0,0,9,1.11c4.8-.23,9.62-.94,14.42-.42,1.89.2,4.53.6,5.46,2.53l.36-.21c-3,.13-5.23,2.39-7.46,4.21a31.94,31.94,0,0,1-8.86,5.51c-.49.19.43.44.68.35a30.89,30.89,0,0,0,8.24-4.95c1.28-1,2.49-2.13,3.81-3.1a7.21,7.21,0,0,1,3.83-1.62c.09,0,.45,0,.37-.21-.78-1.62-2.74-2.25-4.36-2.6a31.6,31.6,0,0,0-7.46-.46c-2.5.07-5,.28-7.48.45a29.3,29.3,0,0,1-7.65-.37,32.1,32.1,0,0,1-7-2.12c-2.14-.92-4-2.37-6.08-3.37-.14-.06-1.09-.15-.8.17,3.78,4.25,6.61,9.23,9.73,14a14,14,0,0,0,3.95,4.24,8.67,8.67,0,0,0,4.54,1.32,18.08,18.08,0,0,0,6.4-1.33C172.94,128.42,172,128.16,171.77,128.25Z" transform="translate(0 -0.3)"/><path class="cls-3" d="M150.47,113c2.76,3.72,5.15,7.7,7.7,11.56,3.8,5.73,7.62,6.17,13.94,3.87,4.15-1.52,7.7-4.5,11.06-7.3,2-1.62,3.44-2.35,5-2.4a2.7,2.7,0,0,1,.24.76c1.15,7.12-11.62,14.87-18,16.85-5.17,1.6-11.9-.16-15.38-4.81-5.05-6.73-4.34-11.88-7.22-21.39.16.06.31.15.46.22C149,111.23,149.81,112.1,150.47,113Z" transform="translate(0 -0.3)"/><path class="cls-4" d="M150,113c2.38,3.22,4.49,6.62,6.67,10,1.55,2.39,3.17,4.93,5.85,6.16a10.73,10.73,0,0,0,7,.31,26.5,26.5,0,0,0,9.13-4.3c1.66-1.19,3.23-2.5,4.8-3.81,1.42-1.17,3-2.37,4.91-2.45l-.61-.16c.7,1.61.13,3.58-.64,5.06a16.92,16.92,0,0,1-3.64,4.52,38.12,38.12,0,0,1-10.66,6.81,16.74,16.74,0,0,1-5.45,1.53,14.25,14.25,0,0,1-6.78-1.24c-4.23-1.89-6.91-5.94-8.45-10.18a48.4,48.4,0,0,1-1.78-6.89c-.59-2.79-1.21-5.55-2-8.28l-.84.17a4.4,4.4,0,0,1,1.32,1.26c.42.49.82,1,1.21,1.51.18.24,1.12.13,1-.08-.46-.6-.94-1.19-1.44-1.76a3.84,3.84,0,0,0-1.35-1.19c-.14-.07-.94-.16-.84.17.81,2.68,1.42,5.42,2,8.16a58.55,58.55,0,0,0,1.55,6.27c1.46,4.39,4.1,8.66,8.33,10.8a16,16,0,0,0,12.91.62,39.7,39.7,0,0,0,11.09-6.48,20.06,20.06,0,0,0,4.58-5.1c1-1.66,1.72-3.89.9-5.76-.07-.17-.47-.16-.61-.16-3.18.14-5.49,2.65-7.82,4.53a30.64,30.64,0,0,1-8.87,5.34c-2.35.83-5,1.61-7.51.78-2.62-.89-4.29-3.24-5.74-5.44-2.36-3.61-4.62-7.3-7.18-10.78C150.78,112.72,149.84,112.84,150,113Z" transform="translate(0 -0.3)"/><path class="cls-3" d="M122.92,176.81c-2.64.55-6,.73-8.51,1.69-2.55-1-5.86-1.14-8.5-1.69-3.64-.77-7.31-1.73-16.26,4.58a50.14,50.14,0,0,0,4.59,9.36c1.82,2.68,4.06,6.37,6.75,8.2,6.23,4.23,21.86,3.75,26.85,0,2.6-1.95,4.93-5.52,6.75-8.2a50.14,50.14,0,0,0,4.59-9.36C130.22,175.08,126.56,176,122.92,176.81Z" transform="translate(0 -0.3)"/><path class="cls-4" d="M122.59,176.62c-2.86.59-5.83.71-8.59,1.72l.69,0a35.18,35.18,0,0,0-7-1.44c-1.33-.21-2.63-.55-4-.74a14.47,14.47,0,0,0-7.68,1.1,36,36,0,0,0-6.83,3.94c-.06,0-.1.07-.07.15a53.84,53.84,0,0,0,3.63,7.82,55.35,55.35,0,0,0,4.44,6.51,13.8,13.8,0,0,0,5,4.21,21.37,21.37,0,0,0,5.37,1.63,39.58,39.58,0,0,0,12.85.19,24.68,24.68,0,0,0,5.37-1.33,11.8,11.8,0,0,0,4.48-3.14A46.64,46.64,0,0,0,135.6,190a51,51,0,0,0,4.07-8.58c0-.06-.09-.14-.12-.16-4.17-2.92-9.06-5.81-14.35-5.16-.88.11-1.75.29-2.61.48-.22,0-.16.17,0,.28a.94.94,0,0,0,.7.1,14.64,14.64,0,0,1,5.78-.36c3.58.66,6.85,2.78,9.78,4.84l-.13-.16a54.11,54.11,0,0,1-3.45,7.5,52.47,52.47,0,0,1-4.32,6.34,15.3,15.3,0,0,1-4.62,4.34,17.92,17.92,0,0,1-4.74,1.55,37.47,37.47,0,0,1-12.23.37,23,23,0,0,1-5.55-1.33,12.12,12.12,0,0,1-4.84-3.47,49.7,49.7,0,0,1-4.9-7,51.44,51.44,0,0,1-3.89-8.26l-.08.14c3.46-2.43,7.61-5.12,12-5.09a18.26,18.26,0,0,1,3.59.5c1.35.28,2.71.47,4.07.67a31.51,31.51,0,0,1,4.4,1,3.06,3.06,0,0,0,1.74-.32c.81-.22,1.63-.38,2.45-.52,1.64-.28,3.29-.47,4.92-.8.22-.05.15-.17,0-.28A1,1,0,0,0,122.59,176.62Z" transform="translate(0 -0.3)"/><path class="cls-3" d="M97.13,161.11c4.65-4.91,5.25-12.59,5.78-19,.47-5.81.33-9.29-3.38-14.2-5.93-7.83-13.9-9-22.77-12.92a9.42,9.42,0,0,1,.5,1c1.56,4.21.63,31.52.63,40.51,0,4.38-.44,8.74,1.67,12.71.6,1.13,1.8,3.1,3.34,5.44a8.29,8.29,0,0,1,.51-1.83C86.2,166.26,92.72,165.78,97.13,161.11Z" transform="translate(0 -0.3)"/><path class="cls-4" d="M97.62,161.15c2.82-3,4.15-7.05,4.87-11.05.37-2,.59-4.12.76-6.18a59.2,59.2,0,0,0,.35-6.09,15.76,15.76,0,0,0-.93-5.32,19.28,19.28,0,0,0-3.17-5.3,26.3,26.3,0,0,0-9.42-7.12c-4.22-2-8.71-3.34-13-5.24-.13,0-1-.06-.83.23,1.17,2.23,1.11,5,1.22,7.44.17,3.87.18,7.75.16,11.63,0,7.47-.26,14.95-.27,22.43,0,3.41-.29,6.92.67,10.24.85,2.89,2.73,5.47,4.36,8,.14.21.93.2,1-.09,1.29-7.42,9.68-8.8,14.22-13.54.14-.16-.76-.3-1-.07-2.34,2.44-5.43,3.8-8.23,5.6s-5.41,4.54-6,8l1-.09c-1.49-2.27-3.23-4.64-4.12-7.23-1-2.92-.93-6-.89-9.09,0-3.43.07-6.86.12-10.29.14-8.19.34-16.39.05-24.58-.06-1.65-.14-3.3-.32-4.93a9.28,9.28,0,0,0-1-3.58l-.82.22c7.27,3.24,15.56,5,21.15,11.07a17.39,17.39,0,0,1,5,10.44,39,39,0,0,1-.18,5.92c-.16,2-.33,4-.62,5.94-.65,4.52-1.92,9.13-5.1,12.55C96.5,161.23,97.41,161.37,97.62,161.15Z" transform="translate(0 -0.3)"/><path class="cls-3" d="M131.69,161.11c-4.64-4.91-5.24-12.59-5.77-19-.47-5.81-.34-9.29,3.38-14.2,5.93-7.83,13.89-9,22.77-12.92a7.9,7.9,0,0,0-.5,1c-1.56,4.21-.63,31.52-.63,40.51,0,4.38.44,8.74-1.67,12.71-.61,1.13-1.8,3.1-3.34,5.44a8.29,8.29,0,0,0-.51-1.83C142.63,166.26,136.1,165.78,131.69,161.11Z" transform="translate(0 -0.3)"/><path class="cls-4" d="M132.14,161.09c-2.8-3-4.11-7-4.82-10.94-.37-2.06-.58-4.14-.76-6.22a60,60,0,0,1-.34-6,15.93,15.93,0,0,1,.89-5.21,19,19,0,0,1,3.23-5.38,26.08,26.08,0,0,1,9.4-7c4.15-1.93,8.55-3.27,12.73-5.12l-.9-.27c-1.16,2.21-1.12,4.88-1.23,7.32-.17,3.88-.18,7.76-.16,11.64,0,7.48.25,15,.27,22.43,0,3.32.28,6.73-.56,10-.79,3-2.74,5.69-4.43,8.27l.95.17c-.61-3.51-3.18-6.18-6.07-8.05s-5.87-3.16-8.2-5.6c-.19-.19-1.14-.22-.89,0,2.26,2.37,5.21,3.75,7.95,5.46,3,1.86,5.62,4.49,6.24,8.09.05.23.83.36.95.17a38,38,0,0,0,4-6.92c1.1-2.88,1.09-6,1-9.06,0-3.53-.06-7.06-.12-10.6-.13-8.19-.34-16.4-.05-24.59.06-1.66.13-3.32.31-5a9.41,9.41,0,0,1,1-3.61c.13-.26-.78-.32-.9-.27-7.35,3.27-15.7,5-21.34,11.19a17.49,17.49,0,0,0-5,10.46,38.87,38.87,0,0,0,.17,6.1c.17,2,.35,4.09.66,6.13.66,4.48,2,9,5.12,12.42C131.43,161.33,132.39,161.36,132.14,161.09Z" transform="translate(0 -0.3)"/><path class="cls-4" d="M152.07,115c.63-1.2,1.51-2.73,1.29-3.69-.41-1.85-2-1.25-3.56-1.64.14-1.65,1-3.38,1.21-5.08.33-3.54-1.55-1.71-2.93-3.65-.88-1.22.81-3.15,1.3-4.42a13,13,0,0,0,.56-5.59c-4.08-.08-7.94,3.75-12.22,2.37-11-.28-35.57-.28-46.61,0-4.28,1.38-8.14-2.45-12.22-2.37a13,13,0,0,0,.56,5.59c.49,1.27,2.17,3.2,1.3,4.42-1.38,1.94-3.27.11-2.93,3.65.17,1.7,1.07,3.43,1.2,5.08-1.53.39-3.14-.21-3.55,1.64-.22,1,.66,2.49,1.29,3.69,8.87,4,16.84,5.09,22.77,12.92,3.71,4.91,3.85,8.39,3.38,14.2-.53,6.39-1.13,14.07-5.78,19-4.41,4.67-10.93,5.15-13.72,11.77a8.29,8.29,0,0,0-.51,1.83c4.67,7.12,12.49,17.76,16.38,19.42a41.62,41.62,0,0,0,12.54,2.52l.21,0c.52,0,1.11,0,1.73,0h0l1.27,0h.55l.13,0c4.65-.23,10.55-1.15,13.79-2.54,3.89-1.66,11.7-12.3,16.38-19.42a8.29,8.29,0,0,0-.51-1.83c-2.79-6.62-9.32-7.1-13.73-11.77-4.64-4.91-5.24-12.59-5.77-19-.47-5.81-.34-9.29,3.38-14.2C135.23,120.1,143.19,119,152.07,115Z" transform="translate(0 -0.3)"/><path class="cls-4" d="M152.55,115.13c.67-1.27,2-3.13.95-4.54-.81-1.14-2.46-.83-3.65-1.1l.44.31c.19-1.82,1.08-3.47,1.22-5.3.07-.9,0-1.9-.86-2.36s-1.74-.38-2.2-1.31c-.59-1.18.7-2.73,1.21-3.73a12,12,0,0,0,.77-6c0-.26-.5-.34-.69-.34-2.6,0-4.89,1.28-7.29,2.09a7.88,7.88,0,0,1-4.13.47,6.47,6.47,0,0,0-1.38-.2l-1.34,0c-4.3-.09-8.61-.12-12.91-.15-9.52,0-19,0-28.57.13-1,0-2,0-3,.06-.63,0-1.23.27-1.88.3A7.43,7.43,0,0,1,87,93.1c-2.81-.74-5.34-2.4-8.32-2.39-.06,0-.27,0-.28.11a13.64,13.64,0,0,0,.53,5.54c.45,1.2,1.67,2.42,1.58,3.77-.08,1.11-1.19,1.5-2.08,1.78a1.62,1.62,0,0,0-1.13,1.8c0,2.06,1,3.89,1.24,5.91l.17-.16c-1.42.33-3.76,0-3.76,2.09A6.62,6.62,0,0,0,76,114.44a1.62,1.62,0,0,0,1,.93l1.59.67c4.05,1.66,8.28,2.95,12.17,5a24,24,0,0,1,9.84,9.22,14.58,14.58,0,0,1,1.86,5.68,34.08,34.08,0,0,1-.12,6.62c-.36,4.39-.76,8.89-2.39,13a16.46,16.46,0,0,1-3.55,5.62,21.79,21.79,0,0,1-4.61,3.38c-3.32,2-6.69,3.78-8.51,7.35a9.43,9.43,0,0,0-.64,1.54c-.15.49-.38,1-.09,1.45.55.83,1.1,1.66,1.66,2.48,1.25,1.81,2.52,3.61,3.84,5.38A68.18,68.18,0,0,0,95.87,192,11.84,11.84,0,0,0,99,194.23,28.09,28.09,0,0,0,105.3,196a50.14,50.14,0,0,0,7.13.88,46,46,0,0,0,6.94-.29,53.87,53.87,0,0,0,7.13-1.2,13.83,13.83,0,0,0,4.45-1.66,20.42,20.42,0,0,0,3.4-3c1.4-1.47,2.69-3,4-4.61,2.69-3.38,5.2-6.91,7.59-10.51.23-.34.56-.64.48-1.06a7.9,7.9,0,0,0-.55-1.79,12.35,12.35,0,0,0-1.57-2.64,15.94,15.94,0,0,0-4.17-3.59c-1.6-1-3.29-1.87-4.87-2.91a16.34,16.34,0,0,1-4.48-4.25c-2.56-3.69-3.42-8.31-3.91-12.69-.26-2.27-.47-4.55-.57-6.83a19.33,19.33,0,0,1,.48-5.92c1.15-4.3,4.38-8.08,7.91-10.66s7.54-4,11.53-5.55c2.12-.79,4.23-1.6,6.29-2.52.34-.15-.54-.51-.79-.4-4,1.8-8.29,3.11-12.32,4.94a26.67,26.67,0,0,0-10.06,7.45,18.67,18.67,0,0,0-3.24,5.55,16.87,16.87,0,0,0-.81,5.77c0,2.16.25,4.32.45,6.46a56.5,56.5,0,0,0,.94,6.48c.9,4.13,2.63,8.09,5.92,10.86,2.88,2.44,6.57,3.71,9.37,6.25a11.27,11.27,0,0,1,3.32,5.15,1.78,1.78,0,0,1,.14,1,3.05,3.05,0,0,1-.36.55c-.28.42-.56.85-.85,1.27-.59.87-1.19,1.73-1.79,2.59a112,112,0,0,1-7.81,10.08,32.25,32.25,0,0,1-3.56,3.55,10.23,10.23,0,0,1-3.74,1.88,43.1,43.1,0,0,1-6.76,1.38,55.77,55.77,0,0,1-7,.52,43.53,43.53,0,0,1-7.46-.72,27.45,27.45,0,0,1-6.6-1.79,11.43,11.43,0,0,1-3.08-2.37,50.09,50.09,0,0,1-3.73-4.11c-2.76-3.32-5.3-6.84-7.74-10.41-.26-.38-.52-.76-.77-1.15s-.73-.87-.75-1.33a5,5,0,0,1,.55-1.79,12.61,12.61,0,0,1,.76-1.46,13.48,13.48,0,0,1,4-4c3.12-2.15,6.71-3.56,9.25-6.47,2.89-3.31,4.09-7.69,4.73-12,.31-2.12.49-4.26.67-6.4a34.83,34.83,0,0,0,.12-6.21c-.41-4.3-2.84-8.07-5.87-11a31.29,31.29,0,0,0-10.43-6.35c-2-.81-4-1.54-6-2.31-1.13-.44-2.26-.89-3.37-1.37a2,2,0,0,1-.64-.32,2.93,2.93,0,0,1-.37-.7,10,10,0,0,1-.71-1.6,1.81,1.81,0,0,1,.77-2.36,20.44,20.44,0,0,1,2.49-.35c.09,0,.18,0,.17-.16-.22-2.13-1.65-4.31-1.18-6.49.24-1.1,1.49-1,2.26-1.5,1.56-1.11.63-2.75-.1-4.07a11.7,11.7,0,0,1-1.12-6.63l-.28.11c2.69,0,5.1,1.57,7.63,2.28a9.3,9.3,0,0,0,3.59.34,12.74,12.74,0,0,1,1.46-.25l1.33,0c4.35-.09,8.69-.13,13-.15,9.57,0,19.14,0,28.7.12,1,0,2,0,3,.06-.28,0,.28.09.23.08l.5.11a7.19,7.19,0,0,0,1,.11,8.11,8.11,0,0,0,2.08-.19c2.87-.61,5.49-2.49,8.49-2.48l-.69-.34a13.11,13.11,0,0,1-.57,5.6c-.47,1.18-1.57,2.31-1.54,3.64,0,1,1,1.7,1.84,2a4.21,4.21,0,0,1,.93.3c.39.26.43.84.44,1.25,0,2.07-1,3.91-1.24,5.93,0,.19.32.29.44.31,1,.24,2.59-.1,3,1s-.62,2.87-1.2,4C151.47,115.09,152.4,115.41,152.55,115.13Z" transform="translate(0 -0.3)"/><path class="cls-4" d="M84.24,139.25c.17,3.57,5.2,9.48,9.08,8.16C100.23,145.05,89.2,140.37,84.24,139.25Z" transform="translate(0 -0.3)"/><path class="cls-3" d="M95,177.21c-1.18-.5-2.19-.38-2.61.92-.8,2.44,2.76,6.81,4.71,7.8,2.38,1.21,4.57,0,3.8-2.83C100.51,181.81,97.37,178.23,95,177.21Z" transform="translate(0 -0.3)"/><path class="cls-3" d="M133.87,177.21c1.18-.5,2.19-.38,2.61.92.8,2.44-2.77,6.81-4.71,7.8-2.39,1.21-4.57,0-3.8-2.83C128.32,181.81,131.46,178.23,133.87,177.21Z" transform="translate(0 -0.3)"/><path class="cls-4" d="M144.59,139.25c-.17,3.57-5.2,9.48-9.08,8.16C128.6,145.05,139.63,140.37,144.59,139.25Z" transform="translate(0 -0.3)"/></g></g></svg>