<svg xmlns="http://www.w3.org/2000/svg" xmlns:xlink="http://www.w3.org/1999/xlink" viewBox="0 0 228.63 245.45"><defs><style>.cls-1{fill:none;}.cls-2{fill:#f79521;}.cls-3{fill:#922160;}.cls-4{opacity:0.7;}.cls-5{opacity:0.5;}.cls-6{clip-path:url(#clip-path);}.cls-7{clip-path:url(#clip-path-2);}.cls-8{fill:#731745;}</style><clipPath id="clip-path" transform="translate(-0.03 -0.25)"><circle class="cls-1" cx="114.34" cy="114.34" r="103.62"/></clipPath><clipPath id="clip-path-2" transform="translate(-0.03 -0.25)"><path class="cls-1" d="M155.83,171.68c-3.66-1.53-7.56-3-10.51-5.47a47.11,47.11,0,0,1-5.13,10.52c-7.21,10.88-17.61,19.56-29,25.85-16.66,9.24-36,11.2-54.71,9.63-7.34-.61-14.88-1.53-22.41-2.84-4.84-.85,1.07,11,1.69,11.64,3.56,4,9.94,6.24,14.83,8a125.45,125.45,0,0,0,64.08,5.11c10.51-1.88,21.48-4.84,30.89-10,7.22-4,11.44-6.67,19.84-7.48a173.57,173.57,0,0,1-7.29-25.32A171.21,171.21,0,0,1,155.83,171.68Z"/></clipPath></defs><g id="Layer_2" data-name="Layer 2"><g id="BG"><path class="cls-2" d="M227.71,114.24A113.63,113.63,0,0,1,83.48,223.74a112,112,0,0,1-31.56-14.45A113.81,113.81,0,0,1,67.15,11.12,112.8,112.8,0,0,1,101,1.56,114.29,114.29,0,0,1,137,3,112.21,112.21,0,0,1,169.73,15.1a113.46,113.46,0,0,1,58,99.14c0,.26.95.53.95.21A114.62,114.62,0,0,0,83.46,4.4,113.82,113.82,0,0,0,.35,105.57a114.75,114.75,0,0,0,3,35.9,113.33,113.33,0,0,0,13.32,32,114.84,114.84,0,0,0,120.2,52.81,113.35,113.35,0,0,0,32.71-11.9,114.4,114.4,0,0,0,47.14-49,113.33,113.33,0,0,0,10.66-33.54,115.28,115.28,0,0,0,1.32-17.41C228.66,114.19,227.71,113.91,227.71,114.24Z" transform="translate(-0.03 -0.25)"/><circle class="cls-3" cx="114.32" cy="114.09" r="103.62"/><g class="cls-4"><path class="cls-2" d="M177.66,59.34a20.54,20.54,0,0,0-3.73.31h0c.58-1,1.91-2.77,1.91-2.77a12.29,12.29,0,0,1-.89-3.06,23.83,23.83,0,0,1,2.82.8,21.08,21.08,0,0,1,2.43-1.86,23,23,0,0,1-.23,3.12c1,.46,2.39,1.09,3.39,1.65-.76.22-3.28.85-3.28.85a18.35,18.35,0,0,1-.58,3Z" transform="translate(-0.03 -0.25)"/><path class="cls-2" d="M21.59,125.08a20.14,20.14,0,0,1,1.9,3.21h0c.49-1,1.15-3.15,1.15-3.15a12.27,12.27,0,0,0,3-1.06,22.1,22.1,0,0,0-2.28-1.83,20.6,20.6,0,0,0,.11-3.06,22.24,22.24,0,0,0-2.41,2c-1-.57-2.27-1.32-3.31-1.81.26.75,1.2,3.17,1.2,3.17a18.41,18.41,0,0,0-2.11,2.21Z" transform="translate(-0.03 -0.25)"/><path class="cls-2" d="M75.49,45.31a19.44,19.44,0,0,1,3.2,1.93h0c-.07-1.16-.48-3.33-.48-3.33a12.22,12.22,0,0,0,2.15-2.36A23.08,23.08,0,0,0,77.48,41a20.79,20.79,0,0,0-1.36-2.74A22.54,22.54,0,0,0,75,41.19c-1.13,0-2.62-.08-3.78,0,.59.54,2.57,2.22,2.57,2.22a18.72,18.72,0,0,0-.8,2.95Z" transform="translate(-0.03 -0.25)"/><path class="cls-2" d="M89.75,33.79a20.41,20.41,0,0,1,1.31-3.5h0c-1.12.28-3.18,1.08-3.18,1.08a12.21,12.21,0,0,0-2.72-1.68,25.16,25.16,0,0,0,0,2.92,20.7,20.7,0,0,0-2.44,1.85,22.09,22.09,0,0,0,3.06.61c.17,1.12.41,2.6.67,3.72.42-.67,1.71-2.93,1.71-2.93a17.88,17.88,0,0,0,3,.26Z" transform="translate(-0.03 -0.25)"/><path class="cls-2" d="M146.59,36a20.07,20.07,0,0,0,1-3.6h0c.74.88,2,2.74,2,2.74a12,12,0,0,1,3.18.22A24.23,24.23,0,0,1,151,37.67a19.72,19.72,0,0,1,.91,2.92A22.12,22.12,0,0,1,149,39.31c-.79.81-1.84,1.87-2.71,2.62,0-.79.33-3.37.33-3.37A18,18,0,0,1,144,37Z" transform="translate(-0.03 -0.25)"/><path class="cls-2" d="M192.59,90a19.7,19.7,0,0,0,.1,3.73h0c-1-.63-2.66-2.06-2.66-2.06a12.21,12.21,0,0,1-3.11.7,24.8,24.8,0,0,1,1-2.76,20.68,20.68,0,0,1-1.7-2.54,22.88,22.88,0,0,1,3.1.42c.52-1,1.22-2.32,1.84-3.3.18.78.66,3.33.66,3.33a18.29,18.29,0,0,1,3,.76Z" transform="translate(-0.03 -0.25)"/><path class="cls-2" d="M165.61,67.62a19.9,19.9,0,0,1-2.4,2.86h0c1.15.11,3.36,0,3.36,0a12.07,12.07,0,0,0,2,2.5,24.29,24.29,0,0,0,1-2.76,21.93,21.93,0,0,0,2.92-.91,23,23,0,0,0-2.68-1.62c.22-1.1.49-2.58.62-3.72-.62.49-2.59,2.19-2.59,2.19a17.68,17.68,0,0,0-2.8-1.26Z" transform="translate(-0.03 -0.25)"/><path class="cls-2" d="M67.17,69.8a20.72,20.72,0,0,1-.72,3.66h0c1.06-.46,3-1.59,3-1.59a12,12,0,0,0,3,1.21,26,26,0,0,0-.5-2.88c0-.19,1.66-1.39,2.11-2.21a21.8,21.8,0,0,0-3.12-.11c-.35-1.08-.82-2.5-1.27-3.56-.31.73-1.21,3.17-1.21,3.17a18.41,18.41,0,0,0-3,.25Z" transform="translate(-0.03 -0.25)"/><path class="cls-2" d="M39.66,63.39a21,21,0,0,1,3.21,1.91h0c-.08-1.15-.5-3.32-.5-3.32a12.45,12.45,0,0,0,2.14-2.37,23.19,23.19,0,0,0-2.89-.51,21.2,21.2,0,0,0-1.37-2.73,21.25,21.25,0,0,0-1.16,2.91c-1.13,0-2.62-.07-3.77,0,.58.54,2.57,2.2,2.57,2.2a18,18,0,0,0-.78,3Z" transform="translate(-0.03 -0.25)"/><path class="cls-2" d="M58.05,77.24A20.14,20.14,0,0,1,56.15,74h0c-.48,1-1.15,3.15-1.15,3.15a12.27,12.27,0,0,0-3,1.06,23.23,23.23,0,0,0,2.28,1.83,22.49,22.49,0,0,0-.1,3.06,22.24,22.24,0,0,0,2.41-2c1,.57,2.27,1.32,3.31,1.81-.26-.75-1.21-3.17-1.21-3.17a17.15,17.15,0,0,0,2.11-2.22Z" transform="translate(-0.03 -0.25)"/><path class="cls-2" d="M208.87,102.14a20.72,20.72,0,0,1,.72-3.66h0c-1.06.46-3,1.59-3,1.59a12,12,0,0,0-2.95-1.21,24.1,24.1,0,0,0,.49,2.88c0,.19-1.66,1.39-2.11,2.21a21.8,21.8,0,0,0,3.12.11c.35,1.08.83,2.5,1.27,3.56.31-.73,1.21-3.17,1.21-3.17a18.25,18.25,0,0,0,3.05-.25Z" transform="translate(-0.03 -0.25)"/><path class="cls-2" d="M204,137.67a20.21,20.21,0,0,1-3.21-1.91h0c.08,1.15.51,3.32.51,3.32a12,12,0,0,0-2.14,2.38,24.74,24.74,0,0,0,2.88.51,21.56,21.56,0,0,0,1.38,2.73,21.71,21.71,0,0,0,1.15-2.91c1.13,0,2.62.06,3.78,0-.59-.53-2.58-2.2-2.58-2.2a18.68,18.68,0,0,0,.79-3Z" transform="translate(-0.03 -0.25)"/></g><g class="cls-5"><path class="cls-2" d="M62.94,53.8a1.69,1.69,0,0,0,.23,3.14c1.84.62,3-2.21,1.42-3.12A1.65,1.65,0,0,0,62.94,53.8Z" transform="translate(-0.03 -0.25)"/><path class="cls-2" d="M169.9,49.54A1.69,1.69,0,0,0,168.08,47c-1.89.42-1.44,3.45.4,3.41A1.64,1.64,0,0,0,169.9,49.54Z" transform="translate(-0.03 -0.25)"/><path class="cls-2" d="M150,64.14a1.68,1.68,0,0,0-.23-3.13c-1.83-.62-3,2.21-1.41,3.12A1.6,1.6,0,0,0,150,64.14Z" transform="translate(-0.03 -0.25)"/><path class="cls-2" d="M166.61,97.26a1.68,1.68,0,0,0,1.81,2.57c1.89-.42,1.45-3.45-.39-3.4A1.61,1.61,0,0,0,166.61,97.26Z" transform="translate(-0.03 -0.25)"/><path class="cls-2" d="M161.4,47.71a1.68,1.68,0,0,0-.23-3.14c-1.83-.61-3,2.22-1.41,3.13A1.63,1.63,0,0,0,161.4,47.71Z" transform="translate(-0.03 -0.25)"/><path class="cls-2" d="M34.2,93.46A1.69,1.69,0,0,0,36,96c1.89-.42,1.44-3.45-.4-3.4A1.61,1.61,0,0,0,34.2,93.46Z" transform="translate(-0.03 -0.25)"/><path class="cls-2" d="M20.7,100.78a1.69,1.69,0,0,0,.22,3.14c1.84.61,3-2.21,1.42-3.12A1.63,1.63,0,0,0,20.7,100.78Z" transform="translate(-0.03 -0.25)"/><path class="cls-2" d="M37.48,81.81a1.69,1.69,0,0,0-1.81-2.58c-1.89.42-1.44,3.46.4,3.41A1.64,1.64,0,0,0,37.48,81.81Z" transform="translate(-0.03 -0.25)"/><path class="cls-2" d="M189.39,108.44a1.69,1.69,0,0,0,.23,3.14c1.84.61,3-2.22,1.42-3.13A1.65,1.65,0,0,0,189.39,108.44Z" transform="translate(-0.03 -0.25)"/><path class="cls-2" d="M82.31,57.61A1.69,1.69,0,0,0,80.5,55c-1.89.43-1.45,3.46.39,3.41A1.61,1.61,0,0,0,82.31,57.61Z" transform="translate(-0.03 -0.25)"/><path class="cls-2" d="M143.81,59a1.69,1.69,0,0,0-.23-3.14c-1.84-.61-3,2.22-1.42,3.13A1.65,1.65,0,0,0,143.81,59Z" transform="translate(-0.03 -0.25)"/><path class="cls-2" d="M57.43,47.71a1.68,1.68,0,0,0,1.82,2.57c1.88-.42,1.44-3.45-.4-3.4A1.61,1.61,0,0,0,57.43,47.71Z" transform="translate(-0.03 -0.25)"/><path class="cls-2" d="M185.91,70.73a1.68,1.68,0,0,0,.23,3.14c1.83.61,3-2.22,1.41-3.12A1.63,1.63,0,0,0,185.91,70.73Z" transform="translate(-0.03 -0.25)"/><path class="cls-2" d="M47.78,62.56a1.69,1.69,0,0,0,1.81,2.58c1.89-.43,1.44-3.46-.4-3.41A1.64,1.64,0,0,0,47.78,62.56Z" transform="translate(-0.03 -0.25)"/><path class="cls-2" d="M51.43,103.6A1.68,1.68,0,0,0,49.62,101c-1.89.42-1.44,3.45.4,3.41A1.63,1.63,0,0,0,51.43,103.6Z" transform="translate(-0.03 -0.25)"/><path class="cls-2" d="M150.81,52.86A1.69,1.69,0,0,0,151,56c1.84.61,3-2.22,1.41-3.13A1.63,1.63,0,0,0,150.81,52.86Z" transform="translate(-0.03 -0.25)"/><path class="cls-2" d="M201.31,77.26a1.69,1.69,0,0,0,.22,3.14c1.84.61,3-2.22,1.42-3.13A1.63,1.63,0,0,0,201.31,77.26Z" transform="translate(-0.03 -0.25)"/><path class="cls-2" d="M99.17,58.48A1.68,1.68,0,0,0,101,61.05c1.89-.42,1.45-3.45-.4-3.4A1.6,1.6,0,0,0,99.17,58.48Z" transform="translate(-0.03 -0.25)"/><path class="cls-2" d="M134.52,28a1.68,1.68,0,0,0,1.81,2.57c1.89-.42,1.44-3.45-.4-3.4A1.6,1.6,0,0,0,134.52,28Z" transform="translate(-0.03 -0.25)"/><path class="cls-2" d="M96.64,65.1A1.69,1.69,0,0,0,96.41,62c-1.84-.61-3,2.22-1.41,3.13A1.63,1.63,0,0,0,96.64,65.1Z" transform="translate(-0.03 -0.25)"/><path class="cls-2" d="M29.25,147.8a1.68,1.68,0,0,0-1.81-2.57c-1.89.42-1.45,3.45.4,3.41A1.63,1.63,0,0,0,29.25,147.8Z" transform="translate(-0.03 -0.25)"/><path class="cls-2" d="M30.54,139.42a1.69,1.69,0,0,0-.23-3.14c-1.84-.62-3,2.21-1.41,3.12A1.63,1.63,0,0,0,30.54,139.42Z" transform="translate(-0.03 -0.25)"/><path class="cls-2" d="M201.91,125.9a1.69,1.69,0,0,0,1.81,2.58c1.89-.43,1.44-3.46-.4-3.41A1.64,1.64,0,0,0,201.91,125.9Z" transform="translate(-0.03 -0.25)"/><path class="cls-2" d="M124.32,64.37A1.69,1.69,0,0,0,126.13,67c1.89-.43,1.45-3.46-.4-3.41A1.65,1.65,0,0,0,124.32,64.37Z" transform="translate(-0.03 -0.25)"/><path class="cls-2" d="M39.82,112.45A1.68,1.68,0,0,0,38,109.88c-1.89.42-1.45,3.45.4,3.41A1.63,1.63,0,0,0,39.82,112.45Z" transform="translate(-0.03 -0.25)"/><path class="cls-2" d="M189.84,104.33a1.69,1.69,0,0,0-1.82-2.57c-1.89.42-1.44,3.45.4,3.41A1.64,1.64,0,0,0,189.84,104.33Z" transform="translate(-0.03 -0.25)"/><path class="cls-2" d="M178.22,83.31a1.68,1.68,0,0,0-1.81-2.57c-1.89.42-1.44,3.46.4,3.41A1.63,1.63,0,0,0,178.22,83.31Z" transform="translate(-0.03 -0.25)"/><path class="cls-2" d="M28.83,113.19a1.68,1.68,0,0,0,1.81,2.57c1.89-.42,1.45-3.45-.4-3.41A1.64,1.64,0,0,0,28.83,113.19Z" transform="translate(-0.03 -0.25)"/></g><path class="cls-2" d="M100.92,28.31c.45-1.54.64-3.21,2.12-4.15.45-.28,1-.59,1.51-.29a2.23,2.23,0,0,1,.92,1.47,26.2,26.2,0,0,1,.3,5.81q.08,6.95,0,13.89c0,2,0,4-.07,6,0,.53,2,.53,2-.06.18-4.62.09-9.26.07-13.89,0-2.22,0-4.44,0-6.66,0-.92,0-1.83,0-2.75,0-1.23-.06-2.88-1-3.83-1.3-1.34-3.68-1-5.15-.17a4.46,4.46,0,0,0-1.84,1.91,18.29,18.29,0,0,0-.84,2.82c-.12.4,1.81.58,2-.05Z" transform="translate(-0.03 -0.25)"/><path class="cls-2" d="M107.79,31.28a4.49,4.49,0,0,1,2.45-4.19c.49-.21,1.23-.51,1.73-.18a4,4,0,0,1,1.32,2.32,21.86,21.86,0,0,1,.62,6.19c0,2.44,0,4.87-.06,7.31,0,2.73-.14,5.47-.15,8.2,0,.64,2,.94,2,.47,0-2.78.13-5.56.15-8.33s.09-5.52,0-8.28c0-2.2-.1-4.83-1.21-6.8a4.58,4.58,0,0,0-5.13-2,4.83,4.83,0,0,0-3.66,4.8c0,.63,1.93.94,1.94.46Z" transform="translate(-0.03 -0.25)"/><path class="cls-2" d="M116,33.75a18.08,18.08,0,0,1,1-4.11c.46-1.19,1.27-2.59,2.64-2.83a3.55,3.55,0,0,1,.46,0c.21,0,0,0,.09,0a1.68,1.68,0,0,1,.62.77,6.3,6.3,0,0,1,.49,2.13c.08,1,.07,2.09.08,3.13,0,5.69-.05,11.38-.07,17.06a4.78,4.78,0,0,0,2.2,4.32c1.75,1.06,4.56,1.18,6.16-.24.42-.36-1.34-1.13-1.79-.74a3.49,3.49,0,0,1-2.61.81,2.22,2.22,0,0,1-1.53-1.3,6.84,6.84,0,0,1-.5-3.44q0-4.4,0-8.81c0-2.89,0-5.79,0-8.69a10.79,10.79,0,0,0-.43-3.58,3.91,3.91,0,0,0-4.08-2.37c-3.49.19-4.28,4.62-4.66,7.36-.08.6,1.85,1.06,1.92.55Z" transform="translate(-0.03 -0.25)"/><path class="cls-2" d="M119.24,52.56a17.31,17.31,0,0,0,4.6-4.59,25.24,25.24,0,0,0,2.71-6.1c.86-2.59,1.67-5.17.51-7.81-.33-.76-.76-1.46-1.65-1.54a2.67,2.67,0,0,0-2.22.83,9.85,9.85,0,0,0-1.84,5.26c0,.44,1.9.32,2-.33a11.65,11.65,0,0,1,1.24-4.2,3.13,3.13,0,0,1,.46-.68s.21-.21.22-.19-1,.28-.95.11c0,0,.12,0,.13.07.15.27.42.48.57.77a7.4,7.4,0,0,1,.57,1.66c.49,2.33-.42,4.62-1.16,6.79a24.62,24.62,0,0,1-2.28,5.14,15.54,15.54,0,0,1-4.37,4.48c-.31.23-.28.46.09.56a1.91,1.91,0,0,0,1.4-.23Z" transform="translate(-0.03 -0.25)"/><g class="cls-6"><rect class="cls-2" x="71.61" y="110.83" width="84.29" height="54.74"/><path class="cls-2" d="M155.71,165.6H74.86c-1.08,0-2.21-.09-3.29,0h-.14l.7.32V112a2.55,2.55,0,0,0,0-.73.34.34,0,0,1,0-.1l-.28.12H152.7c1.09,0,2.22.09,3.3,0h.14l-.7-.32v52.5a12.74,12.74,0,0,0,0,2.14v.1c0,.31,1,.44,1,.2v-52.5a12.74,12.74,0,0,0,0-2.14v-.1c0-.26-.52-.32-.7-.32H74.86c-1.1,0-2.2,0-3.29,0h-.14c-.06,0-.28,0-.28.12v52.5a12.74,12.74,0,0,0,0,2.14v.1c0,.26.52.32.7.32h73.9c3.41,0,6.84.12,10.25,0h.14c.18,0,.31-.06.23-.23S155.86,165.6,155.71,165.6Z" transform="translate(-0.03 -0.25)"/><path class="cls-3" d="M194.15,208.61c-3-8.33-8.64-15.8-15.43-22.06A82.67,82.67,0,0,0,167.61,178a87.54,87.54,0,0,0-8.6-4.88c-1-.49-2.09-1-3.18-1.4-3.66-1.53-7.56-3-10.51-5.47-.21-.17-.43-.33-.63-.52a26.7,26.7,0,0,1-7.3-13.36c-1.21-5.58-1.73-11.46-2.62-17.11-.6-3.83.12-7.54-.06-11.32a181.9,181.9,0,0,0-20.46-5.68,182.48,182.48,0,0,0-20.46,5.68c-.17,3.78.54,7.49-.06,11.32-.88,5.65-1.4,11.53-2.62,17.11a26.7,26.7,0,0,1-7.3,13.36c-3.84,3.59-9.67,5.12-14.31,7.39A88.84,88.84,0,0,0,60.89,178a82,82,0,0,0-11.1,8.59c-6.79,6.26-12.42,13.73-15.44,22.06-.09.26-.16.51-.25.76-.67,1.95-1.24,3.87-1.73,5.84v1.65H196.13v-1.65A64.59,64.59,0,0,0,194.15,208.61Z" transform="translate(-0.03 -0.25)"/><path class="cls-2" d="M194.63,208.56c-4.85-13.25-15.65-23.8-27.39-31.2a73.17,73.17,0,0,0-10-5.39c-3.29-1.41-6.72-2.61-9.73-4.58-5.94-3.89-8.84-10.72-10.08-17.47-.77-4.21-1.24-8.48-1.84-12.72a38,38,0,0,1-.53-6.56c.06-2.25.26-4.49.17-6.74,0-.07-.09-.12-.14-.14-5.61-1.86-11.27-3.57-17-4.93a35.45,35.45,0,0,0-3.54-.78,10,10,0,0,0-3.13.57c-2.62.6-5.22,1.28-7.81,2-3.4,1-6.77,2-10.12,3.12-.06,0-.15.08-.15.14-.09,2.2.1,4.39.17,6.59A37.92,37.92,0,0,1,93,137c-.62,4.29-1.08,8.61-1.87,12.88-1.38,7.54-4.85,14.8-11.87,18.55-3.24,1.74-6.77,2.86-10.08,4.47a83.7,83.7,0,0,0-10.89,6.4A73.72,73.72,0,0,0,40.9,195.75a51.23,51.23,0,0,0-6.3,10.93,58.36,58.36,0,0,0-2.1,6.18,11.83,11.83,0,0,0-.63,2.61c0,.46,0,.93,0,1.39,0,.18.4.2.5.2H196.13c.11,0,.5,0,.5-.19a9.94,9.94,0,0,0-.27-2.72c-.49-1.88-1.07-3.75-1.73-5.59-.09-.25-1.07-.2-1,.1.68,1.9,1.26,3.84,1.77,5.79a9.28,9.28,0,0,1,.19,2.41l.51-.2H32.37l.5.21c0-.47,0-.94,0-1.4a12.11,12.11,0,0,1,.63-2.61,55.18,55.18,0,0,1,2.33-6.69,52,52,0,0,1,6.53-11A76,76,0,0,1,63.06,177a85.62,85.62,0,0,1,12.2-6.08c3.62-1.5,7.22-3.16,9.95-6.06a26.62,26.62,0,0,0,6-10.75c1.35-4.62,1.78-9.54,2.42-14.29.31-2.36.8-4.73.88-7.12s-.2-5-.2-7.52a3,3,0,0,1,0-.94c.17-.37.43-.37.79-.48l1.51-.49q1.85-.6,3.72-1.17,3.15-1,6.33-1.81,2.84-.75,5.7-1.4a9.1,9.1,0,0,1,2.1-.39c.88.13,1.77.39,2.65.59,4.15,1,8.25,2.12,12.31,3.37l3.44,1.09a6.47,6.47,0,0,1,.91.3c.43.23.42.2.49.69a10,10,0,0,1,0,1.89,63.21,63.21,0,0,0-.1,7.54c.22,2.46.68,4.93,1,7.38s.62,4.72,1,7.07a35,35,0,0,0,4,12.15,22.63,22.63,0,0,0,3.9,5,21.49,21.49,0,0,0,5.06,3.43c1.91,1,3.9,1.78,5.89,2.6a70.4,70.4,0,0,1,6.85,3.27,85.38,85.38,0,0,1,11.9,7.87c7,5.55,13.27,12.3,17.44,20.26a46.84,46.84,0,0,1,2.51,5.66C193.76,208.91,194.74,208.86,194.63,208.56Z" transform="translate(-0.03 -0.25)"/><path class="cls-3" d="M155.83,171.68c-3.66-1.53-7.56-3-10.51-5.47a47.11,47.11,0,0,1-5.13,10.52c-7.21,10.88-17.61,19.56-29,25.85-16.66,9.24-36,11.2-54.71,9.63-7.34-.61-14.88-1.53-22.41-2.84-3.08,8.9-3.19,13.78,5.26,20.13C52,239,67.76,243.73,83.52,245.06s31.62-.55,47.21-3.21c8.38-1.43,16.94-3.18,24.1-7.74,18.87-12,6.61-26,3.31-42.8A171.21,171.21,0,0,1,155.83,171.68Z" transform="translate(-0.03 -0.25)"/><path class="cls-2" d="M156.25,171.54c-3.61-1.51-7.4-2.9-10.46-5.43-.17-.14-.86-.19-1,.09a48.54,48.54,0,0,1-5.71,11.38,71,71,0,0,1-7.56,9.22,87.09,87.09,0,0,1-18.64,14.5,78.82,78.82,0,0,1-23.27,9,105.62,105.62,0,0,1-24.9,2.14,205.3,205.3,0,0,1-27-2.7l-3.43-.57c-.15,0-.65,0-.72.18a29.88,29.88,0,0,0-1.92,8.11,11.2,11.2,0,0,0,1.69,6.58,24.38,24.38,0,0,0,6.67,6.41,69.42,69.42,0,0,0,9.61,5.79,86.56,86.56,0,0,0,21,7.19,115.23,115.23,0,0,0,23.72,2.26,189.37,189.37,0,0,0,25.61-2q6.24-.87,12.44-2a103.16,103.16,0,0,0,11.12-2.48c6.65-1.94,13.52-5.12,18.08-10.52a16.21,16.21,0,0,0,3.47-6.71,19.32,19.32,0,0,0,.21-7.11c-.76-5.4-2.9-10.51-4.58-15.66a71.43,71.43,0,0,1-2.3-8.73c-.79-4.21-1.27-8.47-1.65-12.73-.19-2.06-.35-4.12-.51-6.18,0-.28-1-.2-1,.09.61,7.74,1.12,15.63,3.13,23.16,1.42,5.32,3.56,10.41,5,15.72,1.23,4.63,1.84,9.62-.18,14.12-2.62,5.86-8.67,9.75-14.36,12.19-7.07,3-14.8,4.21-22.33,5.42a228.74,228.74,0,0,1-25.17,2.8,126.56,126.56,0,0,1-24.38-1,91.27,91.27,0,0,1-21.46-5.81,75.77,75.77,0,0,1-9.75-4.87,49.18,49.18,0,0,1-8.76-6.33,13.4,13.4,0,0,1-4.05-6.3,14.81,14.81,0,0,1,.3-7.21c.35-1.42.8-2.81,1.28-4.19l-.72.18a219.84,219.84,0,0,0,27.68,3.19,112.84,112.84,0,0,0,25.3-1.47,80.28,80.28,0,0,0,23.86-8.11,89.48,89.48,0,0,0,19.52-14c5.93-5.66,11.25-12.29,14.43-19.9q.61-1.49,1.14-3l-1,.09c3.1,2.55,6.9,4,10.57,5.5a1,1,0,0,0,.69,0C156.19,171.79,156.47,171.63,156.25,171.54Z" transform="translate(-0.03 -0.25)"/><g class="cls-7"><path class="cls-2" d="M150.69,156.84a142,142,0,0,1-4.8,21.87,79,79,0,0,1-8.35,18,119.41,119.41,0,0,1-8.62,11.76,102.09,102.09,0,0,1-12.59,13c-4.09,3.47-8.72,6.81-13.94,8.32-.57.16-1.15.3-1.73.41-.18,0-.3.12-.19.27s.54.11.69.08c5.22-1,9.92-4,14-7.24a92.94,92.94,0,0,0,12.94-12.69,125.5,125.5,0,0,0,9.5-12.51A78.47,78.47,0,0,0,146,181.48a123.3,123.3,0,0,0,5.27-21.68c.16-1,.32-2,.47-3,0-.25-.95-.32-1,0Z" transform="translate(-0.03 -0.25)"/><path class="cls-2" d="M153.32,164.8A190.43,190.43,0,0,1,150,192.33,200.2,200.2,0,0,1,142.33,223a47.06,47.06,0,0,1-5.48,11.71c-.12.18.76.58,1,.31a44.15,44.15,0,0,0,4.92-10.13,142.47,142.47,0,0,0,4.33-14.29,269.59,269.59,0,0,0,6-31.51c.59-4.63,1.1-9.28,1.25-13.94,0-.33-.94-.54-1-.31Z" transform="translate(-0.03 -0.25)"/></g><path class="cls-3" d="M158.67,171.4c-1.55-2.78-14-11.49-17.71-7.92C135.76,168.48,160,179.35,158.67,171.4Z" transform="translate(-0.03 -0.25)"/><path class="cls-2" d="M159.15,171.31a12.71,12.71,0,0,0-3.37-3.29,35.85,35.85,0,0,0-6-3.75,15.41,15.41,0,0,0-5.93-1.83c-1.42-.07-3.11.28-3.87,1.62-1.31,2.31,1.93,4.79,3.51,5.9a25.78,25.78,0,0,0,9.68,4.21c1.84.37,5.71.74,6-1.93a3.23,3.23,0,0,0,0-.88c0-.29-1-.18-1,.09a2,2,0,0,1-.92,2.29,5.38,5.38,0,0,1-3.13.13,24.46,24.46,0,0,1-8.87-3.6,14.74,14.74,0,0,1-3.37-2.77,3.64,3.64,0,0,1-1.13-2.74,2.4,2.4,0,0,1,2.29-1.91,11.32,11.32,0,0,1,5.37,1.43,35.53,35.53,0,0,1,6.13,3.72,13.27,13.27,0,0,1,3.66,3.5C158.33,171.74,159.3,171.57,159.15,171.31Z" transform="translate(-0.03 -0.25)"/><ellipse class="cls-3" cx="114.23" cy="115.58" rx="27.9" ry="27.26"/><path class="cls-2" d="M141.67,115.7a27,27,0,0,1-5,15.58,27.88,27.88,0,0,1-29.91,10.61,27.32,27.32,0,0,1-13.61-8.74,26.65,26.65,0,0,1-2.44-31,28.09,28.09,0,0,1,28.85-12.84,27.3,27.3,0,0,1,21.78,22.21,28.23,28.23,0,0,1,.34,4.21c0,.32,1,.49,1,.27A27.16,27.16,0,0,0,137.41,100a28.6,28.6,0,0,0-13.33-9.94,29.63,29.63,0,0,0-17.36-.83,28.2,28.2,0,0,0-14.26,8.84A26.83,26.83,0,0,0,90,129.94a28.52,28.52,0,0,0,12.53,10.85,29.56,29.56,0,0,0,17.21,2.07,28.45,28.45,0,0,0,14.91-7.74,27.24,27.24,0,0,0,7.67-14.79,27.68,27.68,0,0,0,.36-4.36C142.63,115.65,141.67,115.48,141.67,115.7Z" transform="translate(-0.03 -0.25)"/><path class="cls-2" d="M107.06,129a8.15,8.15,0,0,0,7.52,4.14,7.9,7.9,0,0,0,6.87-4.23c.13-.25-.84-.3-1,0a6.94,6.94,0,0,1-5.93,3.88,7.36,7.36,0,0,1-6.54-3.92c-.14-.24-1.1-.09-1,.17Z" transform="translate(-0.03 -0.25)"/><path class="cls-2" d="M226.24,216.76a29.92,29.92,0,0,0,.14-9.37,36.23,36.23,0,0,0-1.14-5.76c-2.29-7.57-10.49-9.7-12.91-16.93-.94-2.81-1.18-5.82-1.82-8.73-1.1-5-3.57-9.85-7.69-12.42-2-1.23-4.26-1.88-6.22-3.16a13.07,13.07,0,0,1-5.61-9.11,38.73,38.73,0,0,1,0-6.55c.34-8.83-2.47-18.64-9.68-22.93-4.43-2.64-10-2.92-13.85-6.48-4.31-4-6.86-9.26-8.63-14.7-3.07-9.47-7.13-14.32-14.38-20.26-.28-.23-.56-.45-.85-.66a30,30,0,0,0-7-3.83,42,42,0,0,0-8-2.28,48.45,48.45,0,0,0-8.24-.82c-1.33,0-2.65,0-4,.1a32,32,0,0,1-4,.19c-.38,0-.76,0-1.14,0q-1.17,0-2.34,0a72.11,72.11,0,0,0-8.81.68,39.13,39.13,0,0,0-8.45,2.16A28.07,28.07,0,0,0,84,80.36C76.76,86.3,72.7,91.15,69.63,100.62c-1.77,5.44-4.32,10.7-8.63,14.7-3.82,3.56-9.42,3.84-13.85,6.48-7.21,4.29-10,14.1-9.67,22.93a38.73,38.73,0,0,1,0,6.55,13.09,13.09,0,0,1-5.6,9.11c-2,1.28-4.24,1.93-6.22,3.16C21.57,166.12,19.09,171,18,176c-.64,2.91-.88,5.92-1.82,8.73-2.41,7.23-10.61,9.36-12.9,16.92-2.44,8-1.52,17,4.34,23.38,7.63,8.26,19.18,12.24,30.42,12.21,11,0,23.92-6.41,30.19-15.5,3.32-4.8,2-12.61,6.06-16.38a22.38,22.38,0,0,0,6-9.3c1.45-4.39,1.37-9.16.93-13.73-.37-3.68-1.52-7.33-.62-11,1.52-6.19,8.56-8.82,9.45-15.28.78-5.64-1.25-11.14-2.14-16.61-.94-5.74,3.54-8.29,5-13.39,1.65-6,.28-11.93,4-17.19,4.12-5.91,10.87-8.63,14.67-14.94a42.09,42.09,0,0,0,3-5.39A26.91,26.91,0,0,0,117,93.9c3.8,6.31,10.55,9,14.68,14.94,3.67,5.26,2.3,11.23,3.95,17.19,1.42,5.1,5.9,7.65,5,13.39-.9,5.47-2.93,11-2.15,16.61.9,6.46,7.93,9.09,9.45,15.28.9,3.66-.25,7.31-.61,11-.45,4.57-.52,9.34.93,13.73,1.51,4.56,5,7.86,7,12.09,1.79,3.71,1.61,6.66,4.46,10.27C174,236.44,221.17,243.55,226.24,216.76Z" transform="translate(-0.03 -0.25)"/><path class="cls-2" d="M226.74,216.77a30.45,30.45,0,0,0,.19-8.94,25.52,25.52,0,0,0-1.92-8.08c-1.88-3.94-5.59-6.39-8.55-9.44a15.81,15.81,0,0,1-3.45-5.1c-1.14-3-1.32-6.17-2-9.23-1-4.73-3.33-9.6-7.48-12.34-2.41-1.59-5.31-2.27-7.55-4.12a13,13,0,0,1-4.15-6.57c-.81-3-.32-6.12-.28-9.19a35.41,35.41,0,0,0-.63-7.19c-.86-4.53-2.69-9.07-6-12.39-3.64-3.67-8.53-4.44-13.08-6.46-5.13-2.29-8.48-7.38-10.68-12.36-2.06-4.66-3.21-9.57-5.9-14a42.05,42.05,0,0,0-8.79-9.84,35.73,35.73,0,0,0-15.12-7.63,50,50,0,0,0-9.19-1.32c-3.14-.16-6.22.28-9.34.25-6-.05-12,.19-17.84,1.73a32,32,0,0,0-7.92,3.24,39.93,39.93,0,0,0-6.51,5,38.66,38.66,0,0,0-8.22,10.1c-2.49,4.6-3.57,9.75-6,14.39A29.4,29.4,0,0,1,61.84,114a17.45,17.45,0,0,1-7.08,4.52,62.09,62.09,0,0,0-7.14,2.72,16.52,16.52,0,0,0-5.07,4.11,25.58,25.58,0,0,0-5.24,12.88A39.72,39.72,0,0,0,37,146c.16,3,.22,6-1,8.76a12.6,12.6,0,0,1-5.21,5.89c-2.49,1.42-5.22,2.2-7.4,4.15-3.86,3.47-5.52,8.55-6.37,13.52-.48,2.76-.83,5.67-2.17,8.18a19.71,19.71,0,0,1-4.1,5c-3.1,2.9-6.52,5.59-7.91,9.78a26.3,26.3,0,0,0-.49,15.09c2.73,9.88,12.51,16.17,21.84,19A41.37,41.37,0,0,0,53.26,234a40.05,40.05,0,0,0,12-8.07,21.56,21.56,0,0,0,4.19-5.37,25,25,0,0,0,1.86-6.46,22.36,22.36,0,0,1,2-6.71c1.14-2.06,3.17-3.5,4.53-5.42,3.42-4.83,4.4-10.55,4.15-16.36-.15-3.24-.83-6.39-1.11-9.6a12.22,12.22,0,0,1,1.57-7.7c2.23-3.63,6.13-6.11,7.62-10.21,2-5.4-.29-11.66-1.34-17a10.63,10.63,0,0,1,.55-7.12c1-2,2.38-3.75,3.33-5.76,2.3-4.88,1.28-10.52,2.92-15.57,1.69-5.23,6.35-8.51,10.36-11.9A32.81,32.81,0,0,0,115,88.57h-1a25.83,25.83,0,0,0,7.63,11.24c3.21,2.84,6.81,5.3,9.36,8.81,3,4.11,2.82,9.08,3.45,13.88a18.4,18.4,0,0,0,1.74,6.18c.84,1.63,2,3.1,2.81,4.72a9.45,9.45,0,0,1,1.15,5.67c-.33,2.63-1.07,5.2-1.6,7.79-.87,4.32-1.53,9.23.88,13.18,1.85,3,4.8,5.2,6.66,8.22,2.85,4.64,1.06,9.83.62,14.85s-.38,10.12,1.7,14.68c1.94,4.26,5.4,7.64,7,12.08a62.07,62.07,0,0,0,2.1,6,17.71,17.71,0,0,0,3,4.21,35.05,35.05,0,0,0,5.93,5A58.72,58.72,0,0,0,200,234.64c10.17-.21,21.69-3.75,25.67-14.1a22.49,22.49,0,0,0,1.07-3.77c0-.24-.94-.32-1,0a19.61,19.61,0,0,1-8.06,12.54c-4.41,3-9.8,4.4-15.08,4.82a57.13,57.13,0,0,1-33.86-8.37,37.3,37.3,0,0,1-6.3-4.89,25.48,25.48,0,0,1-2.53-2.86,19.91,19.91,0,0,1-2.83-6.26,24.86,24.86,0,0,0-2.49-5.72c-1.14-1.88-2.48-3.64-3.66-5.51-2.78-4.43-3.58-9.38-3.39-14.55a64.82,64.82,0,0,1,.8-7.47,17.38,17.38,0,0,0-.08-7.73c-1-3.31-3.65-5.65-5.86-8.18a15.11,15.11,0,0,1-2.87-4.37,15.62,15.62,0,0,1-.63-7.09,61.59,61.59,0,0,1,1.36-7.49c.49-2.19,1.19-4.53.91-6.79-.45-3.61-3.25-6.25-4.58-9.51-1.77-4.34-1.14-9.23-2.28-13.72-2.19-8.65-11.4-11.88-16.16-18.74A26,26,0,0,1,115,88.46c-.08-.22-.88-.22-1,0a33.42,33.42,0,0,1-9.55,12.44c-3.72,3.1-8,6.22-9.73,10.92-1.91,5.07-.79,10.81-3,15.79-1.72,4-5.08,7-4.43,11.64.81,5.75,3.33,11.64,2,17.51-.92,4.22-4.62,6.86-7.1,10.13a12,12,0,0,0-2.48,5.9c-.34,3.13.52,6.21.85,9.3.64,5.92.48,12.07-2.41,17.42a30.89,30.89,0,0,1-4.86,6.17,12,12,0,0,0-2.49,5.38c-.53,2.19-.82,4.43-1.42,6.6a15.68,15.68,0,0,1-3.27,6,38.92,38.92,0,0,1-26.15,13.29c-10.4.78-21.67-2.68-29.53-9.59a22.42,22.42,0,0,1-7.7-13.22c-.79-4.7-.42-10.41,1.82-14.69,2-3.77,5.6-6.15,8.47-9.16A15.3,15.3,0,0,0,16.56,185c1-2.66,1.22-5.51,1.77-8.27,1-5,3.29-10.31,7.79-13.11,2.35-1.47,5.11-2.16,7.27-3.94a13.27,13.27,0,0,0,4-5.75c1-2.72.8-5.53.66-8.36a38.35,38.35,0,0,1,.29-7.42,25.23,25.23,0,0,1,5.4-13,16.32,16.32,0,0,1,5.94-4.32c2.31-1,4.76-1.63,7.08-2.59,4.8-2,8.09-6,10.46-10.5S70.64,98.15,73,93.6a37.73,37.73,0,0,1,8.17-10.34,42.56,42.56,0,0,1,6.08-4.81,30.36,30.36,0,0,1,8.62-3.6,50.54,50.54,0,0,1,9.4-1.39c3-.19,5.92-.07,8.88-.21a68.66,68.66,0,0,1,10-.08,46.35,46.35,0,0,1,9.75,2,32.93,32.93,0,0,1,8.27,3.95A48.08,48.08,0,0,1,148,83.89a37,37,0,0,1,7.9,10.52c2.28,4.66,3.37,9.77,5.94,14.31a27.75,27.75,0,0,0,4.91,6.39,17.12,17.12,0,0,0,6,3.53c2.35.88,4.81,1.53,7.07,2.64a16.24,16.24,0,0,1,5.58,4.6,26.31,26.31,0,0,1,4.95,13.28,47.76,47.76,0,0,1,.1,7.75,17.3,17.3,0,0,0,1.1,8,12.87,12.87,0,0,0,4.38,5.39c2.28,1.59,5.06,2.25,7.3,3.91,4.36,3.21,6.29,8.62,7.2,13.75a33.23,33.23,0,0,0,1.87,7.89,16.81,16.81,0,0,0,3.62,5c2.92,2.9,6.44,5.35,8.22,9.18a26.38,26.38,0,0,1,1.87,8.27,30,30,0,0,1-.24,8.51C225.69,217,226.68,217.07,226.74,216.77Z" transform="translate(-0.03 -0.25)"/><path class="cls-8" d="M15.1,216.87a39.42,39.42,0,0,1,.65-9.76,16.24,16.24,0,0,1,4-8.37c4.13-4.2,10.48-5.53,13.73-10.73,2.85-4.56,2.39-10.08,3.65-15.12a15.32,15.32,0,0,1,4.08-7.32c2.29-2.25,5-4,7.16-6.42,4.56-5.11,4-12.06,5.11-18.38.92-5.26,3.28-10.12,7.65-13.34,2.4-1.77,5.21-2.72,7.8-4.16a29.48,29.48,0,0,0,7.13-5.53,24.28,24.28,0,0,0,5-8,47,47,0,0,0,1.52-5.3c.45-1.78,1-3.51,1.58-5.23a41.41,41.41,0,0,1,3.38-7.86A29.92,29.92,0,0,1,93,85.06a20.82,20.82,0,0,1,5.71-3.9,19.48,19.48,0,0,1,7.68-1.51,37.65,37.65,0,0,1,5,.34c.58.08.64-.32.05-.39-5.39-.7-11-.53-15.76,2.42a29.44,29.44,0,0,0-5.37,4.53,25.74,25.74,0,0,0-4.85,6.85,56.49,56.49,0,0,0-3.27,8.9c-1,3.58-1.66,7.2-3.54,10.47A26.42,26.42,0,0,1,72.42,120a35.55,35.55,0,0,1-8,4.73,19.61,19.61,0,0,0-10.55,10.84,32.83,32.83,0,0,0-1.83,8.6c-.36,3.37-.6,6.82-1.78,10s-3.53,5.61-6.15,7.8c-2.38,2-4.88,3.89-6.4,6.66-2.62,4.75-2,10.32-3.53,15.39a14.31,14.31,0,0,1-4.68,7.13c-2.35,1.93-5.16,3.21-7.68,4.89a14.87,14.87,0,0,0-5.67,6.42,28.06,28.06,0,0,0-2,9.53,43.16,43.16,0,0,0,0,4.69c0,.31,1,.38,1,.14Z" transform="translate(-0.03 -0.25)"/><path class="cls-8" d="M44.79,216.91a31.78,31.78,0,0,1,.66-7.54,16.79,16.79,0,0,1,2.89-6c3.27-4.42,8.46-7.51,10.47-12.8a14.59,14.59,0,0,0,.35-8.1,41.91,41.91,0,0,1-1.28-8c0-5.62,3.9-9.62,7.54-13.43,1.85-1.94,4.16-4,4.48-6.76a34.09,34.09,0,0,0,0-4.52l-.11-5.3c-.06-3.16-.29-6.5.86-9.5A14,14,0,0,1,75.45,129a68.35,68.35,0,0,0,5.81-4.51,21.08,21.08,0,0,0,4.36-6.43c2.26-4.9,3-10.23,4.78-15.28a36.7,36.7,0,0,1,7.09-12.31,26.57,26.57,0,0,1,11.6-7.57,29.54,29.54,0,0,1,3.48-.88c.23,0,0-.25-.08-.31a.89.89,0,0,0-.67-.17,27.09,27.09,0,0,0-12.66,6A32.65,32.65,0,0,0,91,98.7a46.87,46.87,0,0,0-2.57,7c-.74,2.62-1.27,5.29-2.13,7.88a32.22,32.22,0,0,1-3.45,7.55,21.23,21.23,0,0,1-5.5,5.48,31.31,31.31,0,0,0-5.57,4.62A12.75,12.75,0,0,0,68.87,139c-.2,3.27,0,6.59.09,9.86a39,39,0,0,1,0,5.07,7.52,7.52,0,0,1-2,4.12c-3.3,3.81-7.68,7.18-9.35,12.12a15.81,15.81,0,0,0-.19,8.08c.49,2.58,1.29,5.14,1.27,7.79a13.33,13.33,0,0,1-3.17,8.27c-1.74,2.17-3.87,4-5.77,6a22.57,22.57,0,0,0-4.28,6.06A19,19,0,0,0,44,212.83c-.09,1.29-.11,2.57-.11,3.86,0,.26.94.54.94.22Z" transform="translate(-0.03 -0.25)"/><path class="cls-8" d="M214.4,216.81a38.82,38.82,0,0,0-.7-10,16.52,16.52,0,0,0-3.84-8.12c-4.12-4.31-10.59-5.63-13.87-10.87-3-4.72-2.31-10.51-3.79-15.7a15.44,15.44,0,0,0-4.22-7c-2.38-2.27-5.19-4.08-7.3-6.64-4.45-5.38-3.51-12.71-4.92-19.12a20,20,0,0,0-8.2-12.67c-2.46-1.65-5.29-2.59-7.83-4.1a28.09,28.09,0,0,1-7.22-6,24.69,24.69,0,0,1-4.86-9.21c-.49-1.73-.87-3.49-1.36-5.22s-1.06-3.25-1.65-4.85A30.16,30.16,0,0,0,141,89.83,33.26,33.26,0,0,0,135.48,84a19.75,19.75,0,0,0-6-3.57,22.18,22.18,0,0,0-7.67-1.19,39.08,39.08,0,0,0-4.83.35c-.67.09-.18.45.25.39a27.86,27.86,0,0,1,9.29.08A17.23,17.23,0,0,1,133,82.9a28.24,28.24,0,0,1,9.84,12.19,70.11,70.11,0,0,1,3.17,9.64,51,51,0,0,0,1.45,5,23.35,23.35,0,0,0,2.42,4.65,27,27,0,0,0,6.14,6.48,43.82,43.82,0,0,0,7.88,4.42,20.09,20.09,0,0,1,6.42,4.72,19.56,19.56,0,0,1,3.76,6.7c2,6,1.05,12.69,3.61,18.54,1.29,2.94,3.59,5.1,6,7.12s4.89,4,6.36,6.8c2.47,4.77,1.85,10.33,3.44,15.35a14.47,14.47,0,0,0,4.56,6.83c2.27,1.88,4.95,3.14,7.42,4.72a15,15,0,0,1,6,6.56,27.89,27.89,0,0,1,2,9.47,43.17,43.17,0,0,1,0,4.69c0,.28,1,.32,1,0Z" transform="translate(-0.03 -0.25)"/><path class="cls-8" d="M184.68,216.81a32.72,32.72,0,0,0-.63-7.52,16.75,16.75,0,0,0-2.82-6c-3.26-4.5-8.56-7.61-10.58-13a14.71,14.71,0,0,1-.28-8.29c.55-2.7,1.3-5.37,1.22-8.15-.16-5.48-4-9.42-7.59-13.14-.9-.94-1.8-1.89-2.63-2.88a7.13,7.13,0,0,1-1.84-4.25c-.11-1.68,0-3.38.05-5.06s.07-3.53.11-5.3c.06-3,.15-6.24-1.13-9.08a14.76,14.76,0,0,0-4.71-5.49A62,62,0,0,1,148,124.1a21.49,21.49,0,0,1-4.44-6.9c-2.16-5-2.87-10.34-4.77-15.38a35.87,35.87,0,0,0-7.31-12.08A27.17,27.17,0,0,0,120,82.51a30.53,30.53,0,0,0-3.51-.88c-.43-.08-1,.26-.28.38a26.36,26.36,0,0,1,12.76,6.29,33.25,33.25,0,0,1,8,11.36,47.9,47.9,0,0,1,2.45,7.09c.67,2.55,1.24,5.11,2.1,7.61a30,30,0,0,0,3.66,7.53,22,22,0,0,0,5.32,5.09,28.08,28.08,0,0,1,5.61,4.75,13.18,13.18,0,0,1,2.67,8.11c.11,3.33-.08,6.68-.15,10a22.22,22.22,0,0,0,.13,4.89,8,8,0,0,0,2,3.52c3.32,3.84,7.78,7.25,9.38,12.26a16.23,16.23,0,0,1,0,8.19c-.52,2.58-1.28,5.15-1.18,7.8a13.45,13.45,0,0,0,2.95,7.68,77.65,77.65,0,0,0,5.74,6A23.26,23.26,0,0,1,182,206.3a18.52,18.52,0,0,1,1.55,6.59c.09,1.3.11,2.6.11,3.9,0,.28,1,.3,1,0Z" transform="translate(-0.03 -0.25)"/><path class="cls-3" d="M90.65,108.62c0-4.19-3.67-8.45-7.59-8.69-1.7-.11-1.4,1.61-.93,3C83.34,106.43,85.15,107.89,90.65,108.62Z" transform="translate(-0.03 -0.25)"/><path class="cls-2" d="M91.15,108.62c0-4.27-3.68-8.71-8.09-8.89-.8,0-1.63.21-1.77,1.09a5.24,5.24,0,0,0,.49,2.52,7.32,7.32,0,0,0,2.54,3.55,13.9,13.9,0,0,0,6.2,1.92c.13,0,.56,0,.62-.14s-.22-.23-.35-.25A14,14,0,0,1,85.68,107a6.35,6.35,0,0,1-2.51-2.77,11.21,11.21,0,0,1-.78-2.12c-.12-.54-.34-1.58.27-1.92a1.61,1.61,0,0,1,1.08,0,6.59,6.59,0,0,1,1.43.51,8.43,8.43,0,0,1,2.42,1.81,9,9,0,0,1,2.56,6.06C90.16,108.9,91.15,108.9,91.15,108.62Z" transform="translate(-0.03 -0.25)"/><path class="cls-3" d="M85.36,102c2.7,1.67,4.06,2.35,7.36,1.18a15.61,15.61,0,0,0,4.86-2.47C93.67,98.88,88,96.26,85.36,102Z" transform="translate(-0.03 -0.25)"/><path class="cls-2" d="M85,102.07c1.89,1.17,3.78,2.17,6.06,1.84a16.19,16.19,0,0,0,3.64-1.14A11.81,11.81,0,0,0,98,100.85c.12-.11-.12-.24-.18-.27a20,20,0,0,0-7.1-2.29,6.23,6.23,0,0,0-3.34.65,6.3,6.3,0,0,0-2.55,3c-.1.21.84.48,1,.19a5.24,5.24,0,0,1,5.37-3.35,18.63,18.63,0,0,1,6.07,2.09l-.18-.27a10.51,10.51,0,0,1-2.79,1.66,19.57,19.57,0,0,1-3.22,1.14,4.88,4.88,0,0,1-2.68,0,13.31,13.31,0,0,1-2.69-1.42.94.94,0,0,0-.69-.13C84.88,101.86,84.78,102,85,102.07Z" transform="translate(-0.03 -0.25)"/><path class="cls-3" d="M81.59,96.58c1.59,1.77,2.59,3.26,2.12,5.74-.25,1.31-1.16,2.38-1.6,3.59C77.92,103.74,76.72,98.45,81.59,96.58Z" transform="translate(-0.03 -0.25)"/><path class="cls-2" d="M81.15,96.57a7.06,7.06,0,0,1,2.19,4.19,5.6,5.6,0,0,1-.47,2.52c-.38.85-.91,1.63-1.25,2.51l.78,0a6.29,6.29,0,0,1-3.47-4.61A4.3,4.3,0,0,1,82,96.79c.2-.09,0-.25-.11-.31a1,1,0,0,0-.68-.11c-2,.79-3.49,2.44-3.23,4.69a6.9,6.9,0,0,0,3.85,5c.14.07.68.26.77,0,.35-.9.9-1.7,1.28-2.58a5.53,5.53,0,0,0,.42-2.63A7.45,7.45,0,0,0,82,96.59a1,1,0,0,0-.65-.24C81.28,96.35,81,96.4,81.15,96.57Z" transform="translate(-0.03 -0.25)"/><path class="cls-3" d="M82.13,94.71c4.34.35,7.53,5.53,6.42,9.56C84.51,102.94,78.68,100.83,82.13,94.71Z" transform="translate(-0.03 -0.25)"/><path class="cls-2" d="M82.23,94.92a6.68,6.68,0,0,1,4.83,3.42,7.65,7.65,0,0,1,1,5.84l.66-.08c-2-.65-4.19-1.35-5.74-2.84a4.24,4.24,0,0,1-1.38-2.6,6.57,6.57,0,0,1,1-3.82c.15-.28-.8-.5-.93-.27-1,1.73-1.58,3.83-.47,5.64a8.68,8.68,0,0,0,4.19,3.13c1,.42,2,.76,3,1.09.12,0,.6.13.66-.08,1.18-4.51-2.44-9.44-7-9.86-.13,0-.42,0-.39.19S82.11,94.91,82.23,94.92Z" transform="translate(-0.03 -0.25)"/><path class="cls-3" d="M77.77,91c1.23,1.87,2.73,3.17,2.32,5.6-.35,2.08-1.74,3.72-2.08,5.77-.82-2.11-3.62-2.63-4.51-4.94C72.4,94.6,74,92.34,77.77,91Z" transform="translate(-0.03 -0.25)"/><path class="cls-2" d="M77.29,91c1.06,1.6,2.55,3.1,2.36,5.17s-1.74,4-2.13,6.15l1,.13A6.56,6.56,0,0,0,76,99.85a5.38,5.38,0,0,1-2.3-3.15c-.63-2.92,2-4.64,4.43-5.49.22-.07,0-.25-.12-.3a.94.94,0,0,0-.68-.06c-2.37.83-5.05,2.5-4.66,5.38a5,5,0,0,0,2,3.27c1,.86,2.32,1.55,2.87,2.86.08.2.92.43,1,.14.4-2.21,2-4,2.15-6.33.11-2-1.34-3.51-2.4-5.1C78.09,90.82,77.16,90.81,77.29,91Z" transform="translate(-0.03 -0.25)"/><path class="cls-3" d="M76,94.32c2.73,3.85,10.55,2.93,12.86-.89-1.41-.55-2.42-1.76-3.84-2.37C82.5,90,78.92,90.42,76,94.32Z" transform="translate(-0.03 -0.25)"/><path class="cls-2" d="M75.52,94.44c1.59,2.18,4.54,2.75,7.08,2.51s5.32-1.29,6.72-3.54c0-.06,0-.12-.07-.14-1.44-.6-2.5-1.83-4-2.42a7.06,7.06,0,0,0-3.08-.5,9.35,9.35,0,0,0-6.72,4c-.13.17.78.21,1,0,1.43-1.86,3.5-3.56,6-3.54a5.69,5.69,0,0,1,2.7.73,30.67,30.67,0,0,0,3.3,2.1l-.08-.15c-2.32,3.74-9.22,4.42-11.9.75C76.29,94,75.34,94.2,75.52,94.44Z" transform="translate(-0.03 -0.25)"/><path class="cls-3" d="M75.37,85.76c3.13,3.3.71,7.63-2.36,10.11C68.78,93.22,69.23,86.8,75.37,85.76Z" transform="translate(-0.03 -0.25)"/><path class="cls-2" d="M74.89,85.83A5.17,5.17,0,0,1,76,91.16a10.55,10.55,0,0,1-3.43,4.62l.86,0a5.59,5.59,0,0,1-2.66-5.42A5.44,5.44,0,0,1,75.51,86c.67-.12.14-.45-.28-.38a6.62,6.62,0,0,0-4.93,3.16,5.34,5.34,0,0,0,.09,4.93A6.12,6.12,0,0,0,72.59,96a.88.88,0,0,0,.86,0A10.72,10.72,0,0,0,77,91.09a5.33,5.33,0,0,0-1.17-5.4C75.64,85.47,74.72,85.65,74.89,85.83Z" transform="translate(-0.03 -0.25)"/><path class="cls-3" d="M75.32,84c1.87,1.14,4.6,1.68,5.26,4,.6,2.12-.47,4.73.42,6.74a8.07,8.07,0,0,1-5.57-2.25C73.88,90.72,72.46,86.59,75.32,84Z" transform="translate(-0.03 -0.25)"/><path class="cls-2" d="M74.9,84.16c1.64,1,4,1.47,4.95,3.3a7,7,0,0,1,.36,3.65,8,8,0,0,0,.29,3.68l.61-.27a8.4,8.4,0,0,1-4-1.13,5.8,5.8,0,0,1-2.21-2.52c-1.09-2.25-1.1-5,.83-6.81.27-.25-.68-.28-.88-.1-2.07,1.92-2.06,4.84-.85,7.23,1.3,2.56,4.1,3.67,6.86,3.75.06,0,.68-.07.6-.27-1-2.37.52-5.13-.7-7.43-1-1.87-3.37-2.37-5.05-3.38C75.51,83.72,74.58,84,74.9,84.16Z" transform="translate(-0.03 -0.25)"/><path class="cls-3" d="M137.85,108.62c0-4.19,3.68-8.45,7.59-8.69,1.7-.11,1.4,1.61.93,3C145.16,106.43,143.35,107.89,137.85,108.62Z" transform="translate(-0.03 -0.25)"/><path class="cls-2" d="M138.34,108.71a8.92,8.92,0,0,1,2.12-5.58,7.87,7.87,0,0,1,4.95-3c.36,0,.55-.07.72.27a1.87,1.87,0,0,1,.08,1.07,8.43,8.43,0,0,1-.69,2.24,6.52,6.52,0,0,1-2.37,3,13.3,13.3,0,0,1-5.62,1.67c-.21,0-.18.17-.05.28a1,1,0,0,0,.69.13,14.39,14.39,0,0,0,5.6-1.6,6.88,6.88,0,0,0,2.74-3.28c.52-1.21,1.5-3.62-.38-4.14a5,5,0,0,0-2.94.36,8.55,8.55,0,0,0-2.73,1.71,9.31,9.31,0,0,0-3.1,6.65C137.36,108.83,138.34,109,138.34,108.71Z" transform="translate(-0.03 -0.25)"/><path class="cls-3" d="M143.15,102c-2.71,1.67-4.07,2.35-7.36,1.18a15.5,15.5,0,0,1-4.86-2.47C134.84,98.88,140.52,96.26,143.15,102Z" transform="translate(-0.03 -0.25)"/><path class="cls-2" d="M142.73,101.86c-1.67,1-3.3,2-5.32,1.57a18.28,18.28,0,0,1-3.17-1.1,10.48,10.48,0,0,1-2.87-1.69l0,.2a19.9,19.9,0,0,1,6.07-2.1,4.74,4.74,0,0,1,2.89.49,5.91,5.91,0,0,1,2.35,2.78c.12.26,1.09.24,1,0A6.32,6.32,0,0,0,141,99a6.4,6.4,0,0,0-3.44-.71,19.26,19.26,0,0,0-7.09,2.27c-.1,0-.09.14,0,.2a11.81,11.81,0,0,0,3.38,1.93,17.49,17.49,0,0,0,3.59,1.16,6.71,6.71,0,0,0,3-.14,14.08,14.08,0,0,0,3.12-1.58C143.88,101.94,143,101.72,142.73,101.86Z" transform="translate(-0.03 -0.25)"/><path class="cls-3" d="M146.91,96.58c-1.59,1.77-2.58,3.26-2.12,5.74.25,1.31,1.16,2.38,1.61,3.59C150.59,103.74,151.78,98.45,146.91,96.58Z" transform="translate(-0.03 -0.25)"/><path class="cls-2" d="M146.42,96.56a7.52,7.52,0,0,0-2.22,4.17,5.41,5.41,0,0,0,.42,2.64c.37.89.93,1.68,1.28,2.58.1.27.67.18.86.08a6.81,6.81,0,0,0,3.79-4.94c.26-2.26-1.32-3.9-3.3-4.68-.24-.09-1.17.15-.68.34a4.26,4.26,0,0,1,3,4.42A6.34,6.34,0,0,1,146,105.8l.86.07c-.31-.82-.8-1.56-1.17-2.35a5.49,5.49,0,0,1-.53-2.74,7.13,7.13,0,0,1,2.2-4.18c.14-.16-.31-.22-.36-.22A.78.78,0,0,0,146.42,96.56Z" transform="translate(-0.03 -0.25)"/><path class="cls-3" d="M146.37,94.71c-4.34.35-7.52,5.53-6.42,9.56C144,102.94,149.82,100.83,146.37,94.71Z" transform="translate(-0.03 -0.25)"/><path class="cls-2" d="M146.14,94.51c-4.5.41-7.81,5.43-6.68,9.75.07.23.66.24.82.19,2.93-1,7.53-2.41,7.63-6.16a7,7,0,0,0-1.06-3.58c-.14-.26-1.09-.24-1,0,.92,1.66,1.53,3.69.47,5.43a8.21,8.21,0,0,1-4,3c-.9.39-1.83.7-2.75,1l.81.19c-1-4,1.95-9,6.17-9.36.16,0,.33-.09.21-.25S146.31,94.49,146.14,94.51Z" transform="translate(-0.03 -0.25)"/><path class="cls-3" d="M150.73,91c-1.22,1.87-2.73,3.17-2.32,5.6.35,2.08,1.74,3.72,2.08,5.77.82-2.11,3.62-2.63,4.51-4.94C156.1,94.6,154.54,92.34,150.73,91Z" transform="translate(-0.03 -0.25)"/><path class="cls-2" d="M150.25,91c-1.06,1.59-2.51,3.06-2.4,5.1.12,2.28,1.74,4.12,2.15,6.33.05.28.89.16,1-.06.54-1.31,1.81-2,2.86-2.86a5.05,5.05,0,0,0,2-3.26c.42-2.92-2.35-4.59-4.73-5.43-.24-.08-1.16.19-.67.36,2.39.84,5,2.58,4.35,5.48a5.3,5.3,0,0,1-2.24,3.09,6.76,6.76,0,0,0-2.5,2.62l1-.05c-.39-2.16-1.93-3.95-2.13-6.15s1.29-3.56,2.36-5.17C151.35,90.83,150.42,90.78,150.25,91Z" transform="translate(-0.03 -0.25)"/><path class="cls-3" d="M152.52,94.32c-2.73,3.85-10.54,2.93-12.86-.89,1.41-.55,2.42-1.76,3.84-2.37C146,90,149.58,90.42,152.52,94.32Z" transform="translate(-0.03 -0.25)"/><path class="cls-2" d="M152.07,94.12c-2.67,3.67-9.62,3.1-12-.66l-.06.19a26,26,0,0,0,3.19-2,5.93,5.93,0,0,1,2.81-.83c2.52-.08,4.57,1.6,6,3.49.16.21,1.1.36.88.07a9.54,9.54,0,0,0-6.69-4,6.72,6.72,0,0,0-3,.46c-1.44.59-2.5,1.82-3.95,2.41-.1,0-.12.1-.06.2,1.39,2.22,4.18,3.29,6.68,3.57s5.48-.29,7.06-2.46C153.15,94.25,152.23,93.91,152.07,94.12Z" transform="translate(-0.03 -0.25)"/><path class="cls-3" d="M153.14,85.76c-3.13,3.3-.72,7.63,2.35,10.11C159.72,93.22,159.27,86.8,153.14,85.76Z" transform="translate(-0.03 -0.25)"/><path class="cls-2" d="M152.66,85.68a5.31,5.31,0,0,0-1.18,5.4,10.72,10.72,0,0,0,3.57,4.86.88.88,0,0,0,.86,0,6,6,0,0,0,2.84-4.42,5.2,5.2,0,0,0-2-4.58,7.72,7.72,0,0,0-3.44-1.41c-.13,0-.56-.07-.62.1s.21.24.33.26a5.43,5.43,0,0,1,4.73,4.38,5.59,5.59,0,0,1-2.66,5.42l.87.05a10.43,10.43,0,0,1-3.43-4.63,5.12,5.12,0,0,1,1.12-5.32C153.78,85.66,152.87,85.45,152.66,85.68Z" transform="translate(-0.03 -0.25)"/><path class="cls-3" d="M153.18,84c-1.87,1.14-4.6,1.68-5.25,4-.6,2.12.46,4.73-.42,6.74a8,8,0,0,0,5.56-2.25C154.62,90.72,156,86.59,153.18,84Z" transform="translate(-0.03 -0.25)"/><path class="cls-2" d="M152.74,83.82c-1.68,1-4,1.49-5,3.33-1.26,2.28.27,5.07-.71,7.44-.11.26.64.38.77.38A9.23,9.23,0,0,0,152,93.88a6,6,0,0,0,2.55-2.71c1.2-2.41,1.12-5.28-.94-7.19-.19-.18-1.14-.29-.76.06,1.94,1.8,1.85,4.62.74,6.85a7,7,0,0,1-6.33,3.6l.77.39c1-2.34-.49-5,.65-7.33.94-1.86,3.34-2.36,5-3.35C153.83,84.08,153,83.66,152.74,83.82Z" transform="translate(-0.03 -0.25)"/><path class="cls-3" d="M93.83,104.28c1.85,0,1.87,3.78-.45,3.31-1.67-.35-1.46-3,.13-3.29A1.77,1.77,0,0,1,93.83,104.28Z" transform="translate(-0.03 -0.25)"/><path class="cls-2" d="M93.82,104.48h.06c.07,0,0,0,0,0h0c.06,0,0,0,0,0s.07,0,.08,0-.07,0,0,0l.06,0,.09,0c-.06,0,0,0,0,0l.16.13s0,0,0,0l.06.06.12.18a2,2,0,0,1,.16.36,2,2,0,0,1-.12,1.55,1.78,1.78,0,0,1-.23.31s-.08.07,0,0l-.08.06-.08,0s-.11.06,0,0l-.1,0h0c.07,0,0,0-.07,0h0s0,0-.06,0h0l-.12,0c-.08,0,0,0,0,0l-.08,0-.06,0-.11,0c-.06,0,0,0,0,0l-.06,0-.11-.08a1.14,1.14,0,0,1-.26-.34,1.64,1.64,0,0,1-.2-.92,1.76,1.76,0,0,1,.36-1,1.06,1.06,0,0,1,.38-.35l.11-.06.08,0,.06,0c.05,0-.06,0,0,0h.1c.13,0,.5,0,.51-.18s-.39-.22-.49-.22a2.13,2.13,0,0,0-1.53.51,2,2,0,0,0-.54,1,1.76,1.76,0,0,0,.87,2,2.73,2.73,0,0,0,1.6.22,1.69,1.69,0,0,0,1-.5,2,2,0,0,0,.4-1.78,2,2,0,0,0-.52-1,1.88,1.88,0,0,0-1.26-.47c-.12,0-.49,0-.51.18S93.73,104.47,93.82,104.48Z" transform="translate(-0.03 -0.25)"/><path class="cls-3" d="M98.27,105.1c1.84.16,1.6,3.9-.67,3.27-1.65-.46-1.25-3.08.35-3.27Z" transform="translate(-0.03 -0.25)"/><path class="cls-2" d="M98.25,105.29c.13,0-.06,0,0,0h0l.09,0s-.07,0,0,0l.05,0s.11.06,0,0l.07.05.15.14s0,0,0,0a.35.35,0,0,1,0,.08,1,1,0,0,1,.1.17,1.77,1.77,0,0,1,.15.38,2.07,2.07,0,0,1-.23,1.54,1.67,1.67,0,0,1-.25.28l-.11.09-.09,0-.07,0-.07,0s-.09,0,0,0H98c-.11,0,.09,0,0,0h-.06c-.09,0,0,0,0,0l-.13,0s-.07,0,0,0h0l-.06,0h0l-.11-.06,0,0-.1-.09a1.19,1.19,0,0,1-.26-.36,1.71,1.71,0,0,1-.13-.92,1.77,1.77,0,0,1,.42-1,1.3,1.3,0,0,1,.41-.33.66.66,0,0,1,.2-.07s.08,0,0,0h.15c.12,0,.49,0,.52-.14s-.38-.25-.48-.25a2.17,2.17,0,0,0-1.56.41,1.9,1.9,0,0,0-.61,1,1.77,1.77,0,0,0,.76,2,2.31,2.31,0,0,0,2.57-.13,2,2,0,0,0,.52-1.76,2,2,0,0,0-.45-1,1.88,1.88,0,0,0-1.23-.54c-.12,0-.49,0-.52.14S98.16,105.28,98.25,105.29Z" transform="translate(-0.03 -0.25)"/><path class="cls-3" d="M102.59,106c1.83.16,1.6,3.9-.68,3.27-1.65-.46-1.25-3.08.35-3.27Z" transform="translate(-0.03 -0.25)"/><path class="cls-2" d="M102.67,106.24s.08,0,.1,0-.14,0,0,0,0,0,0,0-.14,0,0,0-.09,0,0,0,0,0,0,0l.07,0s0,0,0,0,0,0,0,0l.08.07a1.2,1.2,0,0,1,.19.29,1.79,1.79,0,0,1,.13.39,2.06,2.06,0,0,1-.23,1.52,1.2,1.2,0,0,1-.26.29l-.16.11,0,0-.11,0-.1,0c-.05,0,0,0,0,0l-.1,0h-.06s-.15,0,0,0H102c-.06,0,.1,0,0,0H102l-.05,0c-.12,0,.1,0,0,0l-.06,0,0,0,0,0c-.06,0,0,0,0,0l-.09-.06,0,0s0,0,0,0a1.51,1.51,0,0,1-.25-.37,1.67,1.67,0,0,1-.11-.94,1.81,1.81,0,0,1,.45-1,1.35,1.35,0,0,1,.41-.31,1,1,0,0,1,.57-.1c.12,0,.38-.06.24-.22a.92.92,0,0,0-.65-.24,1.82,1.82,0,0,0-1.95,1.39,1.8,1.8,0,0,0,.85,2.07,2.16,2.16,0,0,0,2.49-.09,2.06,2.06,0,0,0,.49-1.78,1.9,1.9,0,0,0-1.76-1.58c-.1,0-.45,0-.4.15S102.52,106.22,102.67,106.24Z" transform="translate(-0.03 -0.25)"/><path class="cls-3" d="M107.19,106.51c1.84.17,1.6,3.91-.68,3.27-1.64-.45-1.25-3.07.36-3.26A1.74,1.74,0,0,1,107.19,106.51Z" transform="translate(-0.03 -0.25)"/><path class="cls-2" d="M107.27,106.73l.1,0c.09,0-.12,0,0,0s.07,0,0,0,0,0,0,0,.08,0,0,0h0c.08,0,0,0,0,0l.07,0,0,0s0,0,0,0a.3.3,0,0,1,.08.08.91.91,0,0,1,.19.29,1.74,1.74,0,0,1,.14.38,2.06,2.06,0,0,1-.24,1.52,1.2,1.2,0,0,1-.26.29,1,1,0,0,1-.16.12l0,0-.1,0-.1,0c-.06,0,0,0,0,0h-.11s-.08,0,0,0h0s-.16,0,0,0l-.11,0c-.12,0,.09,0,0,0h0c-.11,0,.1,0,0,0l-.07,0,0,0-.09,0,0,0,0,0s0,0,0,0a1.24,1.24,0,0,1-.24-.37,1.59,1.59,0,0,1-.12-.94,1.89,1.89,0,0,1,.45-1,1.48,1.48,0,0,1,.41-.31,1,1,0,0,1,.57-.11c.12,0,.38,0,.24-.21a.93.93,0,0,0-.64-.25,1.93,1.93,0,0,0-1.37.41,2,2,0,0,0-.58,1,1.8,1.8,0,0,0,.84,2.06,2.18,2.18,0,0,0,2.5-.08,2.12,2.12,0,0,0,.49-1.78,1.93,1.93,0,0,0-1.76-1.59c-.1,0-.45,0-.4.15S107.12,106.72,107.27,106.73Z" transform="translate(-0.03 -0.25)"/><path class="cls-3" d="M112.09,106.87c1.84.16,1.6,3.9-.68,3.27-1.64-.46-1.24-3.08.36-3.27A1.71,1.71,0,0,1,112.09,106.87Z" transform="translate(-0.03 -0.25)"/><path class="cls-2" d="M111.85,107.06H112c.06,0-.08,0,0,0l.09,0c.06,0,0,0,0,0a.86.86,0,0,1,.28.21,1.53,1.53,0,0,1,.36.66,2.07,2.07,0,0,1-.2,1.56.91.91,0,0,1-.11.16l0,0s0,0,0,0a.3.3,0,0,1-.08.08l-.15.12s0,0,0,0l-.1,0c.08,0,0,0,0,0s.11,0,0,0H112c-.06,0,.12,0,0,0h0s-.16,0,0,0l-.11,0h-.07c-.06,0,.07,0,0,0l-.16,0-.06,0h0a.3.3,0,0,1-.11-.06l-.18-.12a1.82,1.82,0,0,1-.29-.38,1.7,1.7,0,0,1-.14-.94,1.76,1.76,0,0,1,.41-1,1.36,1.36,0,0,1,.17-.17l.1-.07c.06,0,0,0,0,0l.08,0,.11-.06c-.12,0,.12,0,0,0s0,0,0,0H112c.16,0,.52,0,.6-.19s-.27-.21-.36-.22a2.11,2.11,0,0,0-2.26,1.42,1.74,1.74,0,0,0,.67,2,2.34,2.34,0,0,0,2.61-.17,2.05,2.05,0,0,0,.56-1.77,1.64,1.64,0,0,0-1.46-1.5,1,1,0,0,0-.68.13C111.49,106.94,111.73,107,111.85,107.06Z" transform="translate(-0.03 -0.25)"/><path class="cls-3" d="M134.67,104.28c-1.85,0-1.86,3.78.45,3.31,1.68-.35,1.46-3-.13-3.29A1.77,1.77,0,0,0,134.67,104.28Z" transform="translate(-0.03 -0.25)"/><path class="cls-2" d="M134.38,104c-1.47,0-1.92,2-1.17,3a2.29,2.29,0,0,0,2.46.72,1.66,1.66,0,0,0,1.08-1.84,2.27,2.27,0,0,0-2.37-1.9c-.06,0-.16,0-.18.09s.05.14.09.18a1,1,0,0,0,.67.22h.16s-.12,0,0,0l0,0c.06,0-.09,0,0,0l.06,0c.05,0-.09-.06,0,0s.13.08,0,0l.08.07.08.07.07.08a1.77,1.77,0,0,1,.36.84,1.53,1.53,0,0,1-.72,1.61l-.22.08-.14,0s-.06,0,0,0h-.26s.09,0,0,0h-.11s.1,0,0,0,0,0-.07,0,.13,0,.05,0l-.05,0c-.08,0,.12,0,0,0s.09,0,0,0h0c-.07,0,.07.05,0,0l-.07,0,0,0s0,0,0,0l-.12-.15a1.07,1.07,0,0,1-.16-.32,1.72,1.72,0,0,1-.1-.39,2.21,2.21,0,0,1,0-.81,1.69,1.69,0,0,1,.39-.75l.17-.14.09-.06s.1-.06,0,0l.2-.07h0s-.06,0,0,0H135c.06,0,.16,0,.19-.09s-.06-.14-.1-.18A1.06,1.06,0,0,0,134.38,104Z" transform="translate(-0.03 -0.25)"/><path class="cls-3" d="M130.23,105.1c-1.84.16-1.6,3.9.68,3.27,1.64-.46,1.25-3.08-.36-3.27Z" transform="translate(-0.03 -0.25)"/><path class="cls-2" d="M130.09,104.91a1.68,1.68,0,0,0-1.51,1.29,2.15,2.15,0,0,0,.32,1.81,2.19,2.19,0,0,0,2.47.45,1.69,1.69,0,0,0,1.07-1.88,2,2,0,0,0-.56-1.15,2.13,2.13,0,0,0-1.66-.53c-.12,0-.49,0-.49.21s.41.19.51.18h.1s-.07,0,0,0c-.08,0,0,0,.07,0h0l.13.06.06,0,.1.06a.58.58,0,0,1,.17.14,1.8,1.8,0,0,1,.47.84,1.53,1.53,0,0,1-.54,1.67h0l-.06,0-.13,0c.08,0,0,0-.05,0h-.07c-.05,0,.09,0,0,0a.3.3,0,0,1-.13,0h0s.12,0,.06,0h0c-.1,0,.08,0,0,0s-.13,0,0,0l-.08,0,0,0c-.05,0,0,0,0,0l-.1-.06L130,108,130,108l-.08-.08a2,2,0,0,1-.36-1.53,1.67,1.67,0,0,1,.33-.79,1.11,1.11,0,0,1,.3-.25c-.07,0,0,0,0,0l.05,0c.06,0-.06,0,0,0h.05c.09,0,0,0,0,0a.59.59,0,0,0,.13,0c.11,0,.44-.09.34-.26S130.24,104.89,130.09,104.91Z" transform="translate(-0.03 -0.25)"/><path class="cls-3" d="M125.92,106c-1.84.16-1.6,3.9.67,3.27,1.65-.46,1.25-3.08-.35-3.27Z" transform="translate(-0.03 -0.25)"/><path class="cls-2" d="M125.79,105.82a1.64,1.64,0,0,0-1.53,1.28,2.14,2.14,0,0,0,.34,1.83,2.23,2.23,0,0,0,2.45.47,1.68,1.68,0,0,0,1.08-1.9,2.08,2.08,0,0,0-.61-1.17,2.29,2.29,0,0,0-1.73-.51c-.11,0-.45.07-.35.24s.46.16.61.15c-.08,0,0,0,0,0h.1s-.1,0,0,0l.07,0h0l.07,0,.06,0h0l.09.06.18.15a1.73,1.73,0,0,1,.45.83,1.53,1.53,0,0,1-.56,1.67l-.06,0h0l-.13,0c-.09,0,0,0,0,0l-.15,0c-.06,0,.09,0,0,0h-.07c-.12,0,.09,0,0,0h0s-.17,0-.08,0,0,0,0,0h0l-.09,0s-.06,0,0,0l-.06,0a1.09,1.09,0,0,1-.25-.22,1.92,1.92,0,0,1-.36-1.52,1.54,1.54,0,0,1,.33-.79l.07-.09,0,0h0l.18-.13c.07,0,0,0,0,0l.1,0c.08,0-.07,0,0,0s-.09,0,0,0,.44-.07.35-.24S125.93,105.81,125.79,105.82Z" transform="translate(-0.03 -0.25)"/><path class="cls-3" d="M121.32,106.51c-1.84.17-1.61,3.91.67,3.27,1.65-.45,1.25-3.07-.35-3.26A1.76,1.76,0,0,0,121.32,106.51Z" transform="translate(-0.03 -0.25)"/><path class="cls-2" d="M121,106.29c-1.47.15-1.79,2.1-1,3.1a2.29,2.29,0,0,0,2.47.55,1.67,1.67,0,0,0,1-1.92,2.26,2.26,0,0,0-2.49-1.73c-.2,0-.21.17-.07.28a1,1,0,0,0,.69.16h.17c.07,0-.09,0,0,0l.06,0s-.09,0,0,0,.13.08,0,0l.09.07s.09.07.08.05.06.06.07.08a1.72,1.72,0,0,1,.42.84,1.53,1.53,0,0,1-.61,1.64l-.23.1-.21,0-.13,0c-.1,0,0,0,0,0h0s-.17,0-.07,0-.13,0,0,0,0,0,0,0,.1,0,0,0,0,0,0,0l-.07,0c-.08-.06,0,0,0,0a1.85,1.85,0,0,1-.14-.14.35.35,0,0,1,0-.08s0,0,0,0a.77.77,0,0,1-.1-.18,2.22,2.22,0,0,1-.12-.39,1.91,1.91,0,0,1,0-.79,1.66,1.66,0,0,1,.34-.79l.15-.15.09-.06s.1-.06,0,0l.2-.08,0,0h0l.14,0c.05,0,.15,0,.17-.1s-.06-.14-.11-.17A1,1,0,0,0,121,106.29Z" transform="translate(-0.03 -0.25)"/><path class="cls-3" d="M116.41,106.87c-1.84.16-1.6,3.9.68,3.27,1.64-.46,1.25-3.08-.36-3.27A1.71,1.71,0,0,0,116.41,106.87Z" transform="translate(-0.03 -0.25)"/><path class="cls-2" d="M116.2,106.65a1.61,1.61,0,0,0-1,.42,1.73,1.73,0,0,0-.44.82,2.17,2.17,0,0,0,.38,1.86,2.26,2.26,0,0,0,2.46.53,1.64,1.64,0,0,0,1-1.9,2.18,2.18,0,0,0-2.4-1.73c-.12,0-.38.07-.23.23a.87.87,0,0,0,.66.2h.14s.12,0,0,0h.07s-.12,0,0,0,.08,0,0,0,0,0,0,0l.06,0s-.07,0,0,0l.09.06,0,0a.94.94,0,0,1,.1.1,1.74,1.74,0,0,1,.43.83,1.51,1.51,0,0,1-.58,1.64,1.12,1.12,0,0,1-.44.16s-.15,0-.09,0h-.07c-.13,0,0,0,0,0s.09,0,0,0h0c-.08,0,0,0,0,0l-.09,0s0,0,0,0l0,0-.07,0,0,0-.13-.14s-.07-.09,0,0l0-.09a.77.77,0,0,1-.1-.18,2.23,2.23,0,0,1-.13-.39,2.1,2.1,0,0,1,0-.79,1.65,1.65,0,0,1,.33-.79,1.06,1.06,0,0,1,.15-.15l.09-.07,0,0,.19-.08s-.06,0,0,0l.07,0s.17,0,0,0c.12,0,.38-.07.23-.23A.94.94,0,0,0,116.2,106.65Z" transform="translate(-0.03 -0.25)"/></g></g></g></svg>